/* XPM */
static char * AddAnotherItem_xpm[] = {
"34 34 269 2",
"  	c None",
". 	c #6389D3",
"+ 	c #5884DB",
"@ 	c #4F7ED9",
"# 	c #4E7DD9",
"$ 	c #4D7DD9",
"% 	c #4B7DD9",
"& 	c #4A7CD9",
"* 	c #497BD8",
"= 	c #447DD6",
"- 	c #638AD5",
"; 	c #396BD3",
"> 	c #3669D2",
", 	c #366AD3",
"' 	c #366BD3",
") 	c #3A75D6",
"! 	c #618AD6",
"~ 	c #386CD3",
"{ 	c #366BD4",
"] 	c #366CD4",
"^ 	c #3A77D7",
"/ 	c #5E89D5",
"( 	c #386CD4",
"_ 	c #376CD4",
": 	c #376DD5",
"< 	c #5C88D5",
"[ 	c #386DD3",
"} 	c #376ED5",
"| 	c #3B78D8",
"1 	c #5987D5",
"2 	c #386DD4",
"3 	c #376ED6",
"4 	c #386FD6",
"5 	c #3B79D9",
"6 	c #5787D5",
"7 	c #396ED5",
"8 	c #376FD6",
"9 	c #3970D7",
"0 	c #3971D7",
"a 	c #3B7AD9",
"b 	c #5586D4",
"c 	c #396FD5",
"d 	c #3870D7",
"e 	c #3972D7",
"f 	c #3A72D8",
"g 	c #3C7BDA",
"h 	c #5285D4",
"i 	c #3970D5",
"j 	c #3870D6",
"k 	c #3972D8",
"l 	c #3A73D8",
"m 	c #3C7CDB",
"n 	c #5084D5",
"o 	c #3A70D6",
"p 	c #3A74D9",
"q 	c #3A75D9",
"r 	c #3D7DDB",
"s 	c #4D84D6",
"t 	c #3A72D7",
"u 	c #3A73D9",
"v 	c #3B75D9",
"w 	c #3B76DA",
"x 	c #3D7EDC",
"y 	c #6389D2",
"z 	c #5787D4",
"A 	c #4F87DB",
"B 	c #3A73D7",
"C 	c #3B77DA",
"D 	c #3C78DB",
"E 	c #3F80DF",
"F 	c #3D81D9",
"G 	c #3D83DB",
"H 	c #3D84DB",
"I 	c #3E84DC",
"J 	c #3F85DD",
"K 	c #4085DD",
"L 	c #4086DD",
"M 	c #4185DD",
"N 	c #4285DD",
"O 	c #4386DE",
"P 	c #4487DD",
"Q 	c #4183D8",
"R 	c #396CD3",
"S 	c #396DD4",
"T 	c #3C77DA",
"U 	c #3D78DB",
"V 	c #3E7ADC",
"W 	c #3E7ADD",
"X 	c #3F7BDD",
"Y 	c #3F7CDD",
"Z 	c #3F7DDE",
"` 	c #407EDE",
" .	c #417FDF",
"..	c #4180E0",
"+.	c #4280E0",
"@.	c #4281E0",
"#.	c #4383E1",
"$.	c #3C7DD3",
"%.	c #4F7DD9",
"&.	c #3C77DB",
"*.	c #3B78DC",
"=.	c #3A78DC",
"-.	c #3978DC",
";.	c #3979DD",
">.	c #3A7ADE",
",.	c #3B7BDF",
"'.	c #3C7CDF",
").	c #3C7EE0",
"!.	c #3E7FE0",
"~.	c #3F80E1",
"{.	c #4182E1",
"].	c #4384E2",
"^.	c #3C7ED2",
"/.	c #3973D9",
"(.	c #3774D9",
"_.	c #3572D9",
":.	c #3270D9",
"<.	c #316FD9",
"[.	c #3171DA",
"}.	c #3172DB",
"|.	c #3274DC",
"1.	c #3375DC",
"2.	c #3577DD",
"3.	c #3578DE",
"4.	c #3679DE",
"5.	c #387ADF",
"6.	c #387CE0",
"7.	c #397CE0",
"8.	c #3A7DE0",
"9.	c #3A7EE1",
"0.	c #3B7FE1",
"a.	c #3B80E2",
"b.	c #377BD3",
"c.	c #3872D7",
"d.	c #3670D8",
"e.	c #316ED7",
"f.	c #2E6CD7",
"g.	c #2C6AD7",
"h.	c #2D6CD8",
"i.	c #2E6ED9",
"j.	c #3070DA",
"k.	c #3172DA",
"l.	c #3374DC",
"m.	c #3475DC",
"n.	c #377ADF",
"o.	c #387CDF",
"p.	c #397DE0",
"q.	c #3B80E1",
"r.	c #3C80E2",
"s.	c #3C81E2",
"t.	c #3C82E3",
"u.	c #367CD4",
"v.	c #4B7CD9",
"w.	c #346ED6",
"x.	c #2E6AD5",
"y.	c #2A68D5",
"z.	c #2A68D6",
"A.	c #2B6AD6",
"B.	c #2C6CD7",
"C.	c #3476DD",
"D.	c #3578DD",
"E.	c #3D82E3",
"F.	c #3E83E3",
"G.	c #3E84E4",
"H.	c #3F85E4",
"I.	c #387ED5",
"J.	c #4A7BD8",
"K.	c #356ED6",
"L.	c #2D68D4",
"M.	c #2864D4",
"N.	c #2865D4",
"O.	c #2967D5",
"P.	c #2B69D6",
"Q.	c #2C6BD7",
"R.	c #2E6DD9",
"S.	c #2F70DA",
"T.	c #3D83E3",
"U.	c #4086E5",
"V.	c #4087E5",
"W.	c #4188E5",
"X.	c #4189E6",
"Y.	c #3980D6",
"Z.	c #366DD5",
"`.	c #3069D4",
" +	c #2863D3",
".+	c #2562D3",
"++	c #2764D4",
"@+	c #2966D5",
"#+	c #2A69D6",
"$+	c #2E6DD8",
"%+	c #2F6FD9",
"&+	c #3678DE",
"*+	c #387BDF",
"=+	c #3A7FE1",
"-+	c #3F84E4",
";+	c #4187E5",
">+	c #4289E6",
",+	c #438AE7",
"'+	c #438BE7",
")+	c #448CE8",
"!+	c #3B82D7",
"~+	c #447DD7",
"{+	c #3A76D7",
"]+	c #3A78D9",
"^+	c #3374D8",
"/+	c #2B6ED6",
"(+	c #2A6ED7",
"_+	c #2B70D7",
":+	c #2C71D9",
"<+	c #2D73DA",
"[+	c #2F75DA",
"}+	c #3076DC",
"|+	c #2F6ED9",
"1+	c #3071DA",
"2+	c #3273DC",
"3+	c #3B82E3",
"4+	c #3C86E4",
"5+	c #3C88E5",
"6+	c #3D8AE6",
"7+	c #3F8BE7",
"8+	c #408CE7",
"9+	c #408DE8",
"0+	c #428EE8",
"a+	c #428FE9",
"b+	c #4390E9",
"c+	c #4490E9",
"d+	c #4391E9",
"e+	c #3E89DF",
"f+	c #327BD8",
"g+	c #3070D9",
"h+	c #3272DB",
"i+	c #3B85E3",
"j+	c #337DD9",
"k+	c #3C87E4",
"l+	c #337EDA",
"m+	c #3D88E4",
"n+	c #347EDA",
"o+	c #3374DB",
"p+	c #3D81E3",
"q+	c #3E89E5",
"r+	c #367FDB",
"s+	c #3F8BE6",
"t+	c #377FDB",
"u+	c #3476DC",
"v+	c #3780DB",
"w+	c #418DE7",
"x+	c #3980DB",
"y+	c #3E83E4",
"z+	c #428AE6",
"A+	c #3A80DB",
"B+	c #3678DD",
"C+	c #377BDF",
"D+	c #3B81DB",
"E+	c #3C82E2",
"F+	c #4188E6",
"G+	c #448BE7",
"H+	c #438FE8",
"I+	c #3D82DB",
"J+	c #3A7FE2",
"K+	c #3F86E5",
"L+	c #4189E7",
"M+	c #3B80D7",
"N+	c #3479D2",
"O+	c #357AD2",
"P+	c #377ED5",
"Q+	c #3880D6",
"R+	c #3982D7",
"S+	c #3B84D8",
"T+	c #3E8ADF",
"                                                                    ",
"                        . + @ # $ % & * =                           ",
"                        - ; > , , , ' ' )                           ",
"                        ! ~ , , ' { ] ] ^                           ",
"                        / ( , ' ] _ : : ^                           ",
"                        < [ { _ : : } } |                           ",
"                        1 2 : : : } 3 4 5                           ",
"                        6 7 : } 8 4 9 0 a                           ",
"                        b c } 4 d 9 e f g                           ",
"                        h i j 9 0 k l l m                           ",
"                        n o 9 0 f l p q r                           ",
"                        s t e l u p v w x                           ",
"  y - ! / < 1 z b h n s A B l u p w C D E F G H I J K L M N O P Q   ",
"  + ; R ( 2 S 7 c i o t B l u p w T U V W X Y Z `  . ...+.@.@.#.$.  ",
"  %.> , , { : : } j 9 e l u p w &.D *.=.-.-.;.>.>.,.'.).!.~.{.].^.  ",
"  # , , ' _ : } 4 9 0 l u /.(._.:.<.[.}.|.1.2.3.4.5.6.7.8.9.0.a.b.  ",
"  $ , ' ] : : 8 d 0 c.d.e.f.g.h.i.j.k.l.m.2.4.n.o.p.9.0.q.r.s.t.u.  ",
"  v., { _ : } 4 9 w.x.y.z.A.B.i.j.}.l.C.D.n.6.p.9.a.s.E.F.G.G.H.I.  ",
"  J.' ] : } 4 K.L.M.N.O.P.Q.R.S.k.l.C.3.n.7.9.a.s.T.G.H.U.V.W.X.Y.  ",
"  * { _ : Z.`. +.+++@+#+Q.$+%+[.l.C.&+*+p.=+s.E.-+U.;+>+>+,+'+)+!+  ",
"  ~+{+| ]+^+/+(+_+:+<+[+}+|+1+2+m.D.n.p.3+4+5+6+7+8+9+0+a+b+c+d+e+  ",
"                        f+g+h+1.D.n.7.=+i+                          ",
"                        j+[.l.C.4.6.9.s.k+                          ",
"                        l+h+1.&+n.p.a.E.m+                          ",
"                        n+o+C.4.o.9.p+-+q+                          ",
"                        r+m.3.n.p.r.T.U.s+                          ",
"                        t+u+4.6.9.s.-+;+8+                          ",
"                        v+2.4.p.q.E.U.>+w+                          ",
"                        x+2.n.p.r.y+U.z+0+                          ",
"                        A+B+C+9.s.G.V.,+0+                          ",
"                        D+B+*+9.E+G.F+G+H+                          ",
"                        I+n.6.J+T.K+L+)+H+                          ",
"                        M+N+O+u.P+Q+R+S+T+                          ",
"                                                                    "};
