/* XPM */
static char * AddComposedIcon_xpm[] = {
"34 34 372 2",
"  	c None",
". 	c #C5C5C5",
"+ 	c #C4C4C4",
"@ 	c #C2C2C2",
"# 	c #C1C1C1",
"$ 	c #C6C6C6",
"% 	c #C7C7C7",
"& 	c #C9C9C9",
"* 	c #CACACA",
"= 	c #C8C8C8",
"- 	c #B4B4B6",
"; 	c #A8A8B1",
"> 	c #9899AB",
", 	c #8C8CA4",
"' 	c #A5A5AC",
") 	c #817A7A",
"! 	c #929090",
"~ 	c #C9C8C9",
"{ 	c #BCBCBC",
"] 	c #9D9DA3",
"^ 	c #70709B",
"/ 	c #4748A2",
"( 	c #2E2EB0",
"_ 	c #1F20C2",
": 	c #1919C8",
"< 	c #2020C0",
"[ 	c #3E388A",
"} 	c #8A363B",
"| 	c #7F4B4C",
"1 	c #9B9A9B",
"2 	c #BBBBBB",
"3 	c #C9C8C8",
"4 	c #A6A6A9",
"5 	c #686A8E",
"6 	c #3334B6",
"7 	c #1213DC",
"8 	c #0708F0",
"9 	c #0202FB",
"0 	c #0000FE",
"a 	c #0605F2",
"b 	c #52297A",
"c 	c #D1141A",
"d 	c #C11B1F",
"e 	c #504B67",
"f 	c #676888",
"g 	c #A5A4A7",
"h 	c #BEBEBE",
"i 	c #8A8998",
"j 	c #3839A0",
"k 	c #0D0EE7",
"l 	c #0102FB",
"m 	c #0000FD",
"n 	c #241CB8",
"o 	c #A8242D",
"p 	c #FA0303",
"q 	c #F40406",
"r 	c #7B264E",
"s 	c #1F1EB6",
"t 	c #36389D",
"u 	c #868695",
"v 	c #BDBEBE",
"w 	c #7C7D95",
"x 	c #2E2FB2",
"y 	c #0505F5",
"z 	c #0101FD",
"A 	c #0001FD",
"B 	c #0B0CE5",
"C 	c #632D64",
"D 	c #EC090D",
"E 	c #FD0001",
"F 	c #FC0102",
"G 	c #C8151D",
"H 	c #422386",
"I 	c #0A0AE6",
"J 	c #2C2DB0",
"K 	c #7A7B92",
"L 	c #BEBDBD",
"M 	c #C3C3C3",
"N 	c #898997",
"O 	c #2E2EB2",
"P 	c #0506F2",
"Q 	c #0303F7",
"R 	c #2A24A6",
"S 	c #B91A29",
"T 	c #FD0101",
"U 	c #FD0000",
"V 	c #FE0001",
"W 	c #F10609",
"X 	c #8C243E",
"Y 	c #1813C7",
"Z 	c #0506F1",
"` 	c #2C2CB0",
" .	c #868594",
"..	c #C8C9C9",
"+.	c #A5A5A8",
"@.	c #0E0EDE",
"#.	c #1616CB",
"$.	c #0505F1",
"%.	c #1614CF",
"&.	c #7C2854",
"*.	c #EF0709",
"=.	c #FE0000",
"-.	c #DD0E12",
";.	c #52296C",
">.	c #0505F0",
",.	c #0505F3",
"'.	c #35369C",
").	c #A3A3A4",
"!.	c #BBBCBB",
"~.	c #68698E",
"{.	c #0D0EE8",
"].	c #0404F5",
"^.	c #191AC5",
"/.	c #5E5B68",
"(.	c #79744A",
"_.	c #343395",
":.	c #100FD9",
"<.	c #482688",
"[.	c #CB161C",
"}.	c #FB0202",
"|.	c #A42030",
"1.	c #1D1AB5",
"2.	c #0202FA",
"3.	c #0C0DE7",
"4.	c #64658A",
"5.	c #3233B5",
"6.	c #0708EE",
"7.	c #2A2BA5",
"8.	c #7A7653",
"9.	c #D7C919",
"0.	c #E9D90E",
"a.	c #AEA32E",
"b.	c #4D466C",
"c.	c #92283C",
"d.	c #F40507",
"e.	c #E70A0D",
"f.	c #56286C",
"g.	c #0A0AE2",
"h.	c #3031B2",
"i.	c #9A9AA0",
"j.	c #C0C0C0",
"k.	c #6F709B",
"l.	c #1112DB",
"m.	c #0001FC",
"n.	c #0303F8",
"o.	c #1011DA",
"p.	c #4C4B79",
"q.	c #AAA132",
"r.	c #EEDD0B",
"s.	c #FDE902",
"t.	c #FDE901",
"u.	c #ECDC0A",
"v.	c #8E6133",
"w.	c #E40F0F",
"x.	c #B41928",
"y.	c #2D1DA0",
"z.	c #0303F5",
"A.	c #1112DA",
"B.	c #6B6C97",
"C.	c #BFBFBF",
"D.	c #B4B5B6",
"E.	c #4748A1",
"F.	c #0808EF",
"G.	c #0607F0",
"H.	c #2222B7",
"I.	c #686460",
"J.	c #C8BD20",
"K.	c #FAE805",
"L.	c #FEEA00",
"M.	c #FAE702",
"N.	c #B4A620",
"O.	c #C02E1E",
"P.	c #FC0201",
"Q.	c #EA090B",
"R.	c #772550",
"S.	c #110FD5",
"T.	c #0708EF",
"U.	c #43449D",
"V.	c #B3B3B4",
"W.	c #C9C9C8",
"X.	c #A8A8B0",
"Y.	c #2D2EAF",
"Z.	c #0909EA",
"`.	c #333397",
" +	c #8B8447",
".+	c #DCCE16",
"++	c #FCE902",
"@+	c #FEEA01",
"#+	c #FDEA01",
"$+	c #DECE0F",
"%+	c #A2632A",
"&+	c #ED0C09",
"*+	c #FC0101",
"=+	c #C11720",
"-+	c #38228E",
";+	c #2A2AAC",
">+	c #A6A6AE",
",+	c #CACAC9",
"'+	c #9999A8",
")+	c #4E4C76",
"!+	c #B7AC2C",
"~+	c #F4E207",
"{+	c #FDEA02",
"]+	c #F5E205",
"^+	c #B09124",
"/+	c #CA241A",
"(+	c #F60406",
"_+	c #88273F",
":+	c #1211CF",
"<+	c #1E1EBD",
"[+	c #9495A7",
"}+	c #84837D",
"|+	c #817C40",
"1+	c #D1C51B",
"2+	c #D5C113",
"3+	c #A64627",
"4+	c #F00A08",
"5+	c #FD0100",
"6+	c #DD0D13",
"7+	c #41277F",
"8+	c #1E1DB5",
"9+	c #86879D",
"0+	c #B5B6B5",
"a+	c #898880",
"b+	c #ABA435",
"c+	c #E5D60E",
"d+	c #F8E504",
"e+	c #9E7A2A",
"f+	c #D71914",
"g+	c #F90203",
"h+	c #94213E",
"i+	c #322E83",
"j+	c #88889C",
"k+	c #CAC9CA",
"l+	c #B5B5B5",
"m+	c #888776",
"n+	c #BBB329",
"o+	c #F6E506",
"p+	c #C3B51A",
"q+	c #B23723",
"r+	c #DB0E13",
"s+	c #6C3645",
"t+	c #98979B",
"u+	c #BABABA",
"v+	c #8E8C7A",
"w+	c #D0C21A",
"x+	c #E5D30D",
"y+	c #9D6C2C",
"z+	c #ED0D0A",
"A+	c #F90204",
"B+	c #B12022",
"C+	c #948586",
"D+	c #989896",
"E+	c #AFA634",
"F+	c #F7E504",
"G+	c #B7A121",
"H+	c #C12F1E",
"I+	c #FA0302",
"J+	c #EA0B0A",
"K+	c #8B4B4B",
"L+	c #BABBBA",
"M+	c #B2B2B2",
"N+	c #898556",
"O+	c #F8E505",
"P+	c #DECF0F",
"Q+	c #9B572D",
"R+	c #DE1210",
"S+	c #F10606",
"T+	c #F20505",
"U+	c #F20605",
"V+	c #F20506",
"W+	c #F00607",
"X+	c #BF2323",
"Y+	c #878685",
"Z+	c #7D7C78",
"`+	c #E0D117",
" @	c #C8B916",
".@	c #8A702D",
"+@	c #976928",
"@@	c #986928",
"#@	c #986829",
"$@	c #8F612C",
"%@	c #6A4043",
"&@	c #542A67",
"*@	c #53286D",
"=@	c #53296B",
"-@	c #673E4E",
";@	c #815857",
">@	c #866160",
",@	c #7D7A7A",
"'@	c #989898",
")@	c #B1A72B",
"!@	c #F8E502",
"~@	c #EEDC05",
"{@	c #EDDB05",
"]@	c #EDDC05",
"^@	c #EDDB06",
"/@	c #C3B61A",
"(@	c #434177",
"_@	c #0A0ADF",
":@	c #0505EE",
"<@	c #0505ED",
"[@	c #1111D5",
"}@	c #62637F",
"|@	c #B2B2B1",
"1@	c #BDBDBD",
"2@	c #B9B9B9",
"3@	c #858044",
"4@	c #F5E309",
"5@	c #FBE802",
"6@	c #ACA22B",
"7@	c #2121A9",
"8@	c #0202F8",
"9@	c #333499",
"0@	c #A1A2A4",
"a@	c #C8C8C9",
"b@	c #86846A",
"c@	c #D3C519",
"d@	c #F5E105",
"e@	c #726C52",
"f@	c #0F10CF",
"g@	c #0606F0",
"h@	c #2A2BAC",
"i@	c #838391",
"j@	c #9D9C94",
"k@	c #AEA429",
"l@	c #FCE803",
"m@	c #E4D40F",
"n@	c #3F3E78",
"o@	c #0606EC",
"p@	c #76778E",
"q@	c #B1B0AF",
"r@	c #979144",
"s@	c #EFDE0B",
"t@	c #B5AB28",
"u@	c #23229E",
"v@	c #0D0DE2",
"w@	c #828391",
"x@	c #8F8C6E",
"y@	c #D7C815",
"z@	c #F6E406",
"A@	c #7A743C",
"B@	c #393A8E",
"C@	c #626287",
"D@	c #A1A1A3",
"E@	c #94938E",
"F@	c #BAAF2A",
"G@	c #E0D011",
"H@	c #716E52",
"I@	c #98999B",
"J@	c #A8A9A8",
"K@	c #97924B",
"L@	c #F9E604",
"M@	c #B8AD22",
"N@	c #8F8E82",
"O@	c #7E7D6D",
"P@	c #CBBE1E",
"Q@	c #D6C817",
"R@	c #D6C717",
"S@	c #D1C31A",
"T@	c #8A843E",
"U@	c #AFAEAC",
"V@	c #9D9D9D",
"W@	c #898878",
"X@	c #8C8A77",
"Y@	c #8C8B77",
"Z@	c #8B8A76",
"`@	c #8B8A77",
" #	c #898976",
".#	c #8C8C85",
"+#	c #B8B8B8",
"@#	c #C1C0C1",
"          . + + @ @ # @ # # # # # @ # # # # # # # @ + + $           ",
"      $ % & & & & & & & & & & * * & & & & & & & = & & & & = $       ",
"    % & * = & & & = = & * & & & * & & & . % & & & & & = & & = =     ",
"  $ = = & & & * & & & = # - ; > , , > ' ) ! % & & & & & & = = & $   ",
"  % & & & * & & * ~ { ] ^ / ( _ : : < [ } | 1 2 3 & & & & = & & %   ",
"$ & & & & & & & = 4 5 6 7 8 9 0 0 0 a b c d e f g = & = & & & & = . ",
"+ & & & & & & h i j k l m 0 0 0 0 l n o p q r s t u v & & & & & & + ",
"+ & & = & & h w x y z 0 0 0 0 0 A B C D E F G H I J K L & & & & & . ",
"M & & & = % N O P m 0 0 0 0 0 0 Q R S T U V W X Y Z `  ...* * = & @ ",
"# * & & = +.j y m 0 0 l @.#.$.9 %.&.*.=.=.=.T -.;.>.,.'.).= & & & # ",
"# & & & !.~.{.A 0 m ].^./.(._.:.<.[.F =.=.=.=.}.|.1.2.3.4.2 & & & # ",
"# = & = ] 5.l 0 A 6.7.8.9.0.a.b.c.d.=.=.=.=.=.T e.f.g.l h.i.= & & # ",
"# & & j.k.l.m.n.o.p.q.r.s.t.u.v.w.T =.=.=.=.=.=.}.x.y.z.A.B.C.& & @ ",
"# * & D.E.F.G.H.I.J.K.L.L.M.N.O.P.=.=.=.=.=.=.=.=.Q.R.S.T.U.V.W.& # ",
"# * & X.Y.Z.`. +.+++@+L.#+$+%+&+=.=.=.=.=.=.=.=.=.*+=+-+Q ;+>+,+& # ",
"# & & '+`.)+!+~+{+L.L.L.]+^+/+}.=.=.=.=.=.=.=.=.=.=.(+_+:+<+[+& & # ",
"# = C.}+|+1+++L.L.L.L.L.2+3+4+5+=.=.=.=.=.=.=.=.=.=.T 6+7+8+9+& & @ ",
"# 0+a+b+c+++L.L.L.L.@+d+e+f+*+=.=.=.=.=.=.=.=.=.=.=.=.g+h+i+j+k+& # ",
"l+m+n+o+#+L.L.L.L.@+++p+q+p =.=.=.=.=.=.=.=.=.=.=.=.=.=.r+s+t+..& # ",
"u+v+w+L.L.L.L.L.L.{+x+y+z+=.=.=.=.=.=.=.=.=.=.=.=.=.=.=.A+B+C+..& # ",
"j.D+E+t.L.L.L.L.L.F+G+H+I+=.=.=.=.=.=.=.=.=.=.=.=.=.=.=.U J+K+L+& # ",
"# M+N+O+L.L.L.L.L.P+Q+R+S+T+T+T+T+T+T+T+T+T+U+V+V+T+T+T+T+W+X+Y+$ # ",
"# . Z+`+#+L.L.L.L. @.@+@@@@@@@@@@@@@@@@@@@#@$@%@&@*@*@=@-@;@>@,@u+# ",
"# = '@)@#+L.L.L.L.!@~@{@]@~@~@~@~@~@~@~@~@^@/@(@_@:@<@[@}@|@1@C.% # ",
"j.& 2@3@4@L.L.L.L.L.L.L.L.L.L.L.L.L.L.L.L.5@6@7@8@0 ,.9@0@a@a@& * # ",
"@ = = b@c@L.L.L.L.L.L.L.L.L.L.L.L.L.L.L.L.d@e@f@m g@h@i@= & & & & @ ",
"+ = & j@k@l@L.L.L.L.L.L.L.L.L.L.L.L.L.L.@+m@n@o@,.h@p@1@& & & & & + ",
"M & = q@r@s@@+L.L.L.L.L.L.L.L.L.L.L.L.L.s.t@u@v@9@w@{ & = = & & & + ",
". & = h x@y@L.L.L.L.L.L.L.L.L.L.L.L.L.L.z@A@B@C@D@= & & & & * & & . ",
"  % & $ E@F@t.L.L.L.L.L.L.L.L.L.L.L.L.L.G@H@I@u+= & & & * & & & %   ",
"  $ = & J@K@L@L.L.L.L.L.L.L.L.L.L.L.L.t.M@N@= & & & & & & & = = $   ",
"    = = j.O@P@Q@Q@Q@Q@Q@R@R@R@Q@Q@Q@Q@S@T@U@& & * & & * * & = .     ",
"      $ $ V@W@X@Y@X@Y@X@Z@`@X@Y@Y@Y@Y@ #.#C.& & & & & & & % $       ",
"          @ 2 2 2@+#+#+#+#+#+#+#+#+#+#+#2 @## # # @ + + .           "};
