/* XPM */
static char * AddXMLEntity_xpm[] = {
"29 29 458 2",
"  	c None",
". 	c #507385",
"+ 	c #4A6E80",
"@ 	c #43687A",
"# 	c #3F6476",
"$ 	c #648495",
"% 	c #5E7F91",
"& 	c #57788B",
"* 	c #4D7182",
"= 	c #44697B",
"- 	c #426779",
"; 	c #456A7C",
"> 	c #839EAF",
", 	c #7E99AB",
"' 	c #7391A2",
") 	c #4D7082",
"! 	c #4E7183",
"~ 	c #4E7184",
"{ 	c #89A3B3",
"] 	c #88A2B3",
"^ 	c #85A0B0",
"/ 	c #7B97A9",
"( 	c #557789",
"_ 	c #527587",
": 	c #517486",
"< 	c #8CA6B6",
"[ 	c #8BA5B5",
"} 	c #88A3B3",
"| 	c #7E9AAB",
"1 	c #587A8C",
"2 	c #537588",
"3 	c #90A9B9",
"4 	c #8DA6B6",
"5 	c #7F9BAC",
"6 	c #5A7C8E",
"7 	c #57798B",
"8 	c #8FA8B8",
"9 	c #7F9BAB",
"0 	c #DF871B",
"a 	c #D67A1A",
"b 	c #CD6E19",
"c 	c #C56419",
"d 	c #BE5C19",
"e 	c #89A4B4",
"f 	c #86A1B2",
"g 	c #7D9AAB",
"h 	c #58798B",
"i 	c #547688",
"j 	c #EEAA37",
"k 	c #E89B28",
"l 	c #E08C21",
"m 	c #D77D1D",
"n 	c #CE701A",
"o 	c #CA6B19",
"p 	c #D2741A",
"q 	c #D77B1B",
"r 	c #87A2B2",
"s 	c #86A1B1",
"t 	c #849FB0",
"u 	c #7A98A9",
"v 	c #527486",
"w 	c #517385",
"x 	c #F7C94F",
"y 	c #F7C64D",
"z 	c #F3BC47",
"A 	c #EAA639",
"B 	c #DF8A22",
"C 	c #E1871B",
"D 	c #DF861B",
"E 	c #DE841B",
"F 	c #829DAE",
"G 	c #809CAD",
"H 	c #7895A6",
"I 	c #527586",
"J 	c #517081",
"K 	c #566A7A",
"L 	c #66525B",
"M 	c #F8D052",
"N 	c #F9D052",
"O 	c #F8CB50",
"P 	c #F5BE47",
"Q 	c #EB9D26",
"R 	c #E68E19",
"S 	c #E38A1A",
"T 	c #E1881C",
"U 	c #7C99AA",
"V 	c #7592A3",
"W 	c #527081",
"X 	c #645E69",
"Y 	c #7C4449",
"Z 	c #852E2C",
"` 	c #84201B",
" .	c #7A1C18",
"..	c #731F18",
"+.	c #9A592B",
"@.	c #F5D454",
"#.	c #FAD855",
"$.	c #F9D153",
"%.	c #F5C348",
"&.	c #EDA225",
"*.	c #E99316",
"=.	c #E58D19",
"-.	c #E2891B",
";.	c #7B98A9",
">.	c #7996A8",
",.	c #728FA1",
"'.	c #546B7B",
").	c #87484E",
"!.	c #B82821",
"~.	c #B1241C",
"{.	c #A3211A",
"].	c #8F1F19",
"^.	c #801F19",
"/.	c #A5572B",
"(.	c #F5D655",
"_.	c #FBDC57",
":.	c #F9D353",
"<.	c #F6C349",
"[.	c #ECA026",
"}.	c #E79117",
"|.	c #E48C1A",
"1.	c #E1891C",
"2.	c #7895A7",
"3.	c #7795A6",
"4.	c #7794A6",
"5.	c #6E8D9F",
"6.	c #536878",
"7.	c #924347",
"8.	c #D0231B",
"9.	c #CC241B",
"0.	c #C4241B",
"a.	c #B1221B",
"b.	c #93221A",
"c.	c #AF572B",
"d.	c #F5D153",
"e.	c #F9D759",
"f.	c #F4D265",
"g.	c #EECA72",
"h.	c #E6B468",
"i.	c #E2A85B",
"j.	c #DF9B47",
"k.	c #DC9135",
"l.	c #7492A4",
"m.	c #7492A3",
"n.	c #7391A3",
"o.	c #6A8A9C",
"p.	c #506676",
"q.	c #934347",
"r.	c #D4241C",
"s.	c #CF241C",
"t.	c #C9241B",
"u.	c #B9231B",
"v.	c #96221B",
"w.	c #AE542E",
"x.	c #EECC6C",
"y.	c #E6DA9B",
"z.	c #CFD9B0",
"A.	c #ADCDA3",
"B.	c #94BF93",
"C.	c #99BF93",
"D.	c #B7C7A2",
"E.	c #CCCBAF",
"F.	c #708FA0",
"G.	c #6F8EA0",
"H.	c #688799",
"I.	c #4D6474",
"J.	c #904245",
"K.	c #D0241B",
"L.	c #CD241B",
"M.	c #C7241B",
"N.	c #B7231B",
"O.	c #932720",
"P.	c #B27565",
"Q.	c #C4D2AE",
"R.	c #77BC8D",
"S.	c #3AA261",
"T.	c #289B55",
"U.	c #299B56",
"V.	c #2B9C57",
"W.	c #4FAB71",
"X.	c #92C6A5",
"Y.	c #6D8C9E",
"Z.	c #6C8B9D",
"`.	c #648597",
" +	c #496171",
".+	c #8A4144",
"++	c #CA251C",
"@+	c #C8251C",
"#+	c #C3241B",
"$+	c #B52920",
"%+	c #A96761",
"&+	c #A6BFA5",
"*+	c #4AAD6E",
"=+	c #29A056",
"-+	c #30A45B",
";+	c #49AF6E",
">+	c #5FBA82",
",+	c #59B77D",
"'+	c #36A760",
")+	c #2DA259",
"!+	c #31A25B",
"~+	c #72BB8C",
"{+	c #6A8A9B",
"]+	c #6A899B",
"^+	c #69899A",
"/+	c #618294",
"(+	c #465F6F",
"_+	c #864043",
":+	c #C2241B",
"<+	c #BF241B",
"[+	c #BF4B44",
"}+	c #B5BBA8",
"|+	c #4BAF6E",
"1+	c #2CA355",
"2+	c #3BAB5C",
"3+	c #42AF5D",
"4+	c #90D09E",
"5+	c #E0F2E5",
"6+	c #C8E8D4",
"7+	c #4CB36A",
"8+	c #3EAD5C",
"9+	c #36A95B",
"0+	c #33A65B",
"a+	c #79C092",
"b+	c #7F9AA8",
"c+	c #688899",
"d+	c #678798",
"e+	c #668698",
"f+	c #5E8092",
"g+	c #445D6D",
"h+	c #813F42",
"i+	c #BD241B",
"j+	c #BC241B",
"k+	c #BB2A22",
"l+	c #CC8E86",
"m+	c #79BF8B",
"n+	c #33A855",
"o+	c #49B05B",
"p+	c #55B55C",
"q+	c #5EB85C",
"r+	c #A8D8A4",
"s+	c #F3F9F3",
"t+	c #D9EFE0",
"u+	c #61BA6C",
"v+	c #59B65C",
"w+	c #4EB25C",
"x+	c #3EAC59",
"y+	c #40AC61",
"z+	c #ACD3B7",
"A+	c #CED5DA",
"B+	c #C0CBD1",
"C+	c #8FA6B2",
"D+	c #678698",
"E+	c #648496",
"F+	c #638496",
"G+	c #5C7E8F",
"H+	c #415B6B",
"I+	c #7D3D41",
"J+	c #B6241B",
"K+	c #BC4039",
"L+	c #C7BAA8",
"M+	c #56B55C",
"N+	c #53B458",
"O+	c #62B95C",
"P+	c #6DBE5F",
"Q+	c #74C062",
"R+	c #B3DDA8",
"S+	c #F5FAF3",
"T+	c #DAEFE0",
"U+	c #6EBF70",
"V+	c #6FBE5F",
"W+	c #67BB5D",
"X+	c #4DB154",
"Y+	c #84C78E",
"Z+	c #C8DCC9",
"`+	c #CCD3D8",
" @	c #C9D1D7",
".@	c #A0B2BD",
"+@	c #7591A1",
"@@	c #678697",
"#@	c #618193",
"$@	c #597B8C",
"%@	c #3F5A69",
"&@	c #7B3F42",
"*@	c #B1231B",
"=@	c #B0241B",
"-@	c #C15D58",
";@	c #B3C39E",
">@	c #72BE4C",
",@	c #85C769",
"'@	c #A5D79D",
")@	c #AEDAA6",
"!@	c #B1DBA7",
"~@	c #D3EBCE",
"{@	c #F8FCF8",
"]@	c #EAF6ED",
"^@	c #ACDAAE",
"/@	c #AFDBA6",
"(@	c #A9D9A3",
"_@	c #8BCC86",
":@	c #79C35B",
"<@	c #7DC470",
"[@	c #C8DBC8",
"}@	c #C7CFD5",
"|@	c #C5CED4",
"1@	c #B3C0C9",
"2@	c #9BAEB9",
"3@	c #7D96A5",
"4@	c #5F7F90",
"5@	c #5D717E",
"6@	c #985858",
"7@	c #AB231A",
"8@	c #AA231A",
"9@	c #C36C66",
"0@	c #A9C592",
"a@	c #86C64A",
"b@	c #ADD779",
"c@	c #EBF5E5",
"d@	c #F4FAF3",
"e@	c #FDFEFD",
"f@	c #FBFDFC",
"g@	c #EFF8EF",
"h@	c #BAE0B7",
"i@	c #8DCA62",
"j@	c #82C564",
"k@	c #C5D9C3",
"l@	c #C0C8D0",
"m@	c #C8D0D6",
"n@	c #CCD4D9",
"o@	c #CAD2D8",
"p@	c #C4CED4",
"q@	c #B7C2CA",
"r@	c #BABFC5",
"s@	c #BC8D8E",
"t@	c #AD4039",
"u@	c #A72C24",
"v@	c #BE6B65",
"w@	c #B0C695",
"x@	c #88C74A",
"y@	c #ACD66D",
"z@	c #E3F0CE",
"A@	c #EAF5DB",
"B@	c #ECF5E0",
"C@	c #F5FAF0",
"D@	c #FDFEFC",
"E@	c #F9FCFA",
"F@	c #EAF5E5",
"G@	c #EBF5DD",
"H@	c #E6F3D8",
"I@	c #B7DEA6",
"J@	c #8FCA5D",
"K@	c #8AC967",
"L@	c #CBDCC5",
"M@	c #BEC8CE",
"N@	c #C4CDD3",
"O@	c #CBD2D8",
"P@	c #CED5DB",
"Q@	c #CFD6DB",
"R@	c #CED1D6",
"S@	c #C7B9BC",
"T@	c #BB8C8C",
"U@	c #C08887",
"V@	c #C7D0B1",
"W@	c #85C44B",
"X@	c #8DC736",
"Y@	c #92C93F",
"Z@	c #94C944",
"`@	c #97CB4B",
" #	c #C7E3A1",
".#	c #F8FCF4",
"+#	c #E0F2E4",
"@#	c #8DC969",
"##	c #94CA46",
"$#	c #93C942",
"%#	c #8CC53B",
"&#	c #89C53D",
"*#	c #98CF78",
"=#	c #D2E1CC",
"-#	c #CBD3D8",
";#	c #C8D1D7",
">#	c #C8D1D6",
",#	c #CDD4D9",
"'#	c #CDD5DA",
")#	c #CBD1D5",
"!#	c #CCCED2",
"~#	c #DBE4DA",
"{#	c #95CC6B",
"]#	c #81C128",
"^#	c #82C023",
"/#	c #83C124",
"(#	c #BADC86",
"_#	c #F6FAEF",
":#	c #DBEFDD",
"<#	c #77BE47",
"[#	c #82C024",
"}#	c #80C138",
"|#	c #B5DAA0",
"1#	c #C3CDD3",
"2#	c #C1CAD1",
"3#	c #C2CBD1",
"4#	c #C5CED3",
"5#	c #C8D0D5",
"6#	c #CAD3D8",
"7#	c #DAE0E1",
"8#	c #C1DFAF",
"9#	c #88C441",
"0#	c #82C025",
"a#	c #B9DC83",
"b#	c #F3F9EB",
"c#	c #D9EEDB",
"d#	c #77BF46",
"e#	c #81C02D",
"f#	c #95CC65",
"g#	c #CEE4C1",
"h#	c #B7C1C9",
"i#	c #B8C2C9",
"j#	c #BCC6CD",
"k#	c #C6CFD4",
"l#	c #D8E2D9",
"m#	c #B4D991",
"n#	c #8CC640",
"o#	c #83C127",
"p#	c #A6D263",
"q#	c #CBE6A9",
"r#	c #B9DE9E",
"s#	c #7AC03B",
"t#	c #84C22E",
"u#	c #98CC5E",
"v#	c #C7E1B3",
"w#	c #AFBAC1",
"x#	c #BBC4CA",
"y#	c #D0DCCE",
"z#	c #BDDD9A",
"A#	c #98CC54",
"B#	c #86C32F",
"C#	c #8AC433",
"D#	c #90C841",
"E#	c #8DC63E",
"F#	c #81C12D",
"G#	c #8AC53B",
"H#	c #A4D16D",
"I#	c #CCE3B6",
"J#	c #E2EBDA",
"K#	c #B1BCC1",
"L#	c #CBD5CE",
"M#	c #D0E2C1",
"N#	c #BFDF9B",
"O#	c #ACD678",
"P#	c #A2D166",
"Q#	c #A5D26A",
"R#	c #B2D884",
"S#	c #CAE3AD",
"T#	c #DAEAC9",
"U#	c #CBD4D0",
"V#	c #D8E2D5",
"W#	c #DFEAD4",
"X#	c #E2EBD6",
"Y#	c #E5EEDB",
"            . + @ #                                       ",
"        $ % & * = - ;                                     ",
"        > , ' $ ) ! ~                                     ",
"        { ] ^ / ( _ :                                     ",
"        < [ } | 1 ( 2                                     ",
"        3 4 { 5 6 7 (                                     ",
"        8 4 { 9 6 7 (               0 a b c d             ",
"        [ e f g h ( i           j k l m n o p q           ",
"        r s t u ( v w           x y z A B C D E           ",
"        > F G H I J K L         M N O P Q R S T           ",
"        5 | U V W X Y Z `  ...+.@.#.$.%.&.*.=.-.          ",
"        ;.;.>.,.'.).!.~.{.].^./.(._.:.<.[.}.|.1.          ",
"        2.3.4.5.6.7.8.9.0.a.b.c.d.e.f.g.h.i.j.k.          ",
"        l.m.n.o.p.q.r.s.t.u.v.w.x.y.z.A.B.C.D.E.          ",
"        F.F.G.H.I.J.K.L.M.N.O.P.Q.R.S.T.U.T.V.W.X.        ",
"        Y.Y.Z.`. +.+++@+#+$+%+&+*+=+-+;+>+,+'+)+!+~+      ",
"        {+]+^+/+(+_+#+:+<+[+}+|+1+2+3+4+5+6+7+8+9+0+a+    ",
"      b+c+d+e+f+g+h+i+j+k+l+m+n+o+p+q+r+s+t+u+v+w+x+y+z+  ",
"  A+B+C+D+E+F+G+H+I+N.J+K+L+M+N+O+P+Q+R+S+T+U+V+W+v+X+Y+Z+",
"`+A+ @.@+@@@#@$@%@&@*@=@-@;@>@,@'@)@!@~@{@]@^@/@(@_@:@<@[@",
"}@A+A+|@1@2@3@4@5@6@7@8@9@0@a@b@c@d@d@{@e@f@s+d@g@h@i@j@k@",
"  l@m@n@n@o@p@q@r@s@t@u@v@w@x@y@z@A@B@C@D@E@F@G@H@I@J@K@L@",
"    M@N@O@A+P@A+Q@R@S@T@U@V@W@X@Y@Z@`@ #.#+#@###$#%#&#*#=#",
"          -#;#>#o@,#'#)#!#~#{#]#^#^#/#(#_#:#<#[#^#[#}#|#  ",
"            1#2#3#3#4#5#6#7#8#9#0#^#/#a#b#c#d#[#[#e#f#g#  ",
"                    h#i#j#k#l#m#n#o#^#p#q#r#s#0#t#u#v#    ",
"                          w#x#y#z#A#B#C#D#E#F#G#H#I#J#    ",
"                              K#L#M#N#O#P#Q#R#S#T#        ",
"                                    U#V#W#X#Y#            "};
