/* XPM */
static char * AddXMLEntity_xpm[] = {
"32 32 340 2",
"  	c None",
". 	c #159305",
"+ 	c #159605",
"@ 	c #159405",
"# 	c #159205",
"$ 	c #148E05",
"% 	c #169A06",
"& 	c #33C720",
"* 	c #46D335",
"= 	c #46D235",
"- 	c #46D035",
"; 	c #46CF34",
"> 	c #31BF1E",
", 	c #149105",
"' 	c #17A007",
") 	c #6DE85D",
"! 	c #ACFEA0",
"~ 	c #ACFDA0",
"{ 	c #ABFDA0",
"] 	c #6BE35B",
"^ 	c #159706",
"/ 	c #169E07",
"( 	c #70E860",
"_ 	c #B0FFA5",
": 	c #AFFEA4",
"< 	c #6CE15C",
"[ 	c #159606",
"} 	c #169D06",
"| 	c #6FE65F",
"1 	c #AFFFA4",
"2 	c #ADFDA2",
"3 	c #A9FB9D",
"4 	c #67DE58",
"5 	c #159306",
"6 	c #6FE55F",
"7 	c #A6FA9B",
"8 	c #A1F895",
"9 	c #63DB53",
"0 	c #159105",
"a 	c #169906",
"b 	c #6DE35E",
"c 	c #A9FC9E",
"d 	c #A4F998",
"e 	c #9FF692",
"f 	c #9AF48D",
"g 	c #5ED84E",
"h 	c #148F05",
"i 	c #69E059",
"j 	c #A2F896",
"k 	c #9CF590",
"l 	c #97F38B",
"m 	c #92F185",
"n 	c #5AD54A",
"o 	c #148D05",
"p 	c #159506",
"q 	c #64DD54",
"r 	c #9AF48E",
"s 	c #95F288",
"t 	c #90F083",
"u 	c #8BED7E",
"v 	c #56D146",
"w 	c #148C05",
"x 	c #60DA50",
"y 	c #93F186",
"z 	c #8EEF81",
"A 	c #89EC7C",
"B 	c #84EA77",
"C 	c #52CE42",
"D 	c #148905",
"E 	c #159005",
"F 	c #5BD74C",
"G 	c #8CED7F",
"H 	c #87EB7A",
"I 	c #82E975",
"J 	c #7DE670",
"K 	c #4ECB3E",
"L 	c #128805",
"M 	c #138F04",
"N 	c #57D348",
"O 	c #80E872",
"P 	c #7BE56D",
"Q 	c #76E268",
"R 	c #4AC83A",
"S 	c #128604",
"T 	c #169706",
"U 	c #138D04",
"V 	c #159505",
"W 	c #54D144",
"X 	c #7EE670",
"Y 	c #79E46B",
"Z 	c #74E166",
"` 	c #70DF62",
" .	c #47C537",
"..	c #138A04",
"+.	c #128303",
"@.	c #128103",
"#.	c #118003",
"$.	c #117E03",
"%.	c #117D03",
"&.	c #117C03",
"*.	c #117B03",
"=.	c #107903",
"-.	c #107803",
";.	c #107702",
">.	c #0F7002",
",.	c #158D05",
"'.	c #31C01F",
").	c #6CE45C",
"!.	c #6DE35D",
"~.	c #6AE15A",
"{.	c #66DF57",
"].	c #63DC54",
"^.	c #61DA50",
"/.	c #5DD84D",
"(.	c #5AD64A",
"_.	c #58D448",
":.	c #54D245",
"<.	c #52D042",
"[.	c #6ADD5B",
"}.	c #77E369",
"|.	c #72E064",
"1.	c #6EDE60",
"2.	c #6ADB5B",
"3.	c #57D048",
"4.	c #3FC02F",
"5.	c #3DBD2C",
"6.	c #3BBA2A",
"7.	c #38B828",
"8.	c #36B625",
"9.	c #34B323",
"0.	c #32B121",
"a.	c #2FAF1F",
"b.	c #2DAC1D",
"c.	c #2BAA1B",
"d.	c #28A718",
"e.	c #178B09",
"f.	c #0E6A03",
"g.	c #45CC33",
"h.	c #A8FB9C",
"i.	c #A7FA9B",
"j.	c #97F38A",
"k.	c #8DEE80",
"l.	c #88EC7B",
"m.	c #83E976",
"n.	c #7EE771",
"o.	c #7AE46C",
"p.	c #75E267",
"q.	c #6CDD5E",
"r.	c #68DA59",
"s.	c #63D755",
"t.	c #5FD550",
"u.	c #5BD24C",
"v.	c #57CF48",
"w.	c #53CD44",
"x.	c #4FCA40",
"y.	c #4CC83C",
"z.	c #48C538",
"A.	c #45C235",
"B.	c #41C031",
"C.	c #3EBD2E",
"D.	c #3ABA2B",
"E.	c #36B626",
"F.	c #1C920D",
"G.	c #0E6903",
"H.	c #138C05",
"I.	c #43C931",
"J.	c #A1F894",
"K.	c #9FF793",
"L.	c #86EB79",
"M.	c #81E874",
"N.	c #7CE66F",
"O.	c #78E36A",
"P.	c #73E065",
"Q.	c #6ADB5C",
"R.	c #66D957",
"S.	c #62D653",
"T.	c #5ED34E",
"U.	c #5AD14A",
"V.	c #56CE46",
"W.	c #52CC42",
"X.	c #4EC93E",
"Y.	c #4AC63A",
"Z.	c #47C437",
"`.	c #43C133",
" +	c #40BE30",
".+	c #3CBC2C",
"++	c #39B929",
"@+	c #32B222",
"#+	c #1A8F0B",
"$+	c #138A05",
"%+	c #40C62F",
"&+	c #99F48C",
"*+	c #98F38B",
"=+	c #7FE772",
"-+	c #7AE46D",
";+	c #71DF63",
">+	c #6DDD5E",
",+	c #68DA5A",
"'+	c #64D855",
")+	c #60D551",
"!+	c #5CD24C",
"~+	c #58D048",
"{+	c #54CD44",
"]+	c #50CB40",
"^+	c #49C539",
"/+	c #45C335",
"(+	c #42C032",
"_+	c #3BBB2B",
":+	c #35B525",
"<+	c #2EAF1E",
"[+	c #198C0A",
"}+	c #0E6703",
"|+	c #138805",
"1+	c #3EC32C",
"2+	c #90F084",
"3+	c #87EB79",
"4+	c #82E974",
"5+	c #7DE66F",
"6+	c #6FDE61",
"7+	c #6BDC5C",
"8+	c #66D958",
"9+	c #5ED44F",
"0+	c #5AD14B",
"a+	c #56CF47",
"b+	c #4EC93F",
"c+	c #4BC73B",
"d+	c #44C234",
"e+	c #40BF30",
"f+	c #3DBC2D",
"g+	c #39B92A",
"h+	c #36B726",
"i+	c #34B423",
"j+	c #30B121",
"k+	c #2EAE1E",
"l+	c #2AAB1A",
"m+	c #178909",
"n+	c #0C6503",
"o+	c #138405",
"p+	c #2BB319",
"q+	c #59D449",
"r+	c #58D349",
"s+	c #55D146",
"t+	c #53CF43",
"u+	c #50CC40",
"v+	c #4DCA3D",
"w+	c #48C638",
"x+	c #40C030",
"y+	c #59D049",
"z+	c #54CE45",
"A+	c #50CB41",
"B+	c #4DC83D",
"C+	c #30AF20",
"D+	c #2EAC1E",
"E+	c #2CAA1C",
"F+	c #2AA71A",
"G+	c #28A518",
"H+	c #26A317",
"I+	c #24A015",
"J+	c #239E13",
"K+	c #219B11",
"L+	c #1F9910",
"M+	c #1D960E",
"N+	c #127E05",
"O+	c #0C6303",
"P+	c #138605",
"Q+	c #148A05",
"R+	c #128705",
"S+	c #128505",
"T+	c #128405",
"U+	c #128305",
"V+	c #3ABA29",
"W+	c #53CC43",
"X+	c #4FCA3F",
"Y+	c #2FAE1F",
"Z+	c #107C03",
"`+	c #107602",
" @	c #107402",
".@	c #0F7202",
"+@	c #0F7102",
"@@	c #0F6F02",
"#@	c #0F6D02",
"$@	c #0F6C02",
"%@	c #0D6B02",
"&@	c #0D6A02",
"*@	c #0D6502",
"=@	c #4DC93D",
"-@	c #46C336",
";@	c #33B223",
">@	c #29A719",
",@	c #117903",
"'@	c #3BBA2B",
")@	c #24A014",
"!@	c #2AA81A",
"~@	c #33B423",
"{@	c #30B120",
"]@	c #219C12",
"^@	c #27A517",
"/@	c #32B322",
"(@	c #2FB01F",
"_@	c #2CAD1C",
":@	c #0F6B02",
"<@	c #24A115",
"[@	c #31B221",
"}@	c #2BAC1B",
"|@	c #28A918",
"1@	c #1C960D",
"2@	c #229E12",
"3@	c #2DAE1D",
"4@	c #27A817",
"5@	c #25A515",
"6@	c #1A920C",
"7@	c #0D6702",
"8@	c #0F6E02",
"9@	c #1F9B10",
"0@	c #29AA19",
"a@	c #26A716",
"b@	c #23A414",
"c@	c #21A111",
"d@	c #188F09",
"e@	c #0D6601",
"f@	c #1D970D",
"g@	c #24A515",
"h@	c #22A212",
"i@	c #1F9F10",
"j@	c #1D9C0E",
"k@	c #168B07",
"l@	c #0C6301",
"m@	c #0E6702",
"n@	c #127D05",
"o@	c #158407",
"p@	c #148106",
"q@	c #137F05",
"r@	c #127D04",
"s@	c #0F7403",
"t@	c #0D5E01",
"u@	c #0C6103",
"v@	c #0C6201",
"w@	c #0C6001",
"x@	c #0C5E01",
"y@	c #0C5C01",
"                          . + @ # # $                           ",
"                        % & * = - ; > ,                         ",
"                        ' ) ! ~ ~ { ] ^                         ",
"                        / ( _ _ _ : < [                         ",
"                        } | _ 1 2 3 4 5                         ",
"                        % 6 : ~ 7 8 9 0                         ",
"                        a b c d e f g h                         ",
"                        [ i j k l m n o                         ",
"                        p q r s t u v w                         ",
"                        # x y z A B C D                         ",
"                        E F G H I J K L                         ",
"                        M N B O P Q R S                         ",
"  # % a T [ p @ # 0 E U V W X Y Z `  ...+.@.#.$.%.&.*.=.-.;.>.  ",
",.'.).!.~.{.].^./.(._.:.<.[.}.|.1.2.3.4.5.6.7.8.9.0.a.b.c.d.e.f.",
",.g.h.i.j k j.m k.l.m.n.o.p.` q.r.s.t.u.v.w.x.y.z.A.B.C.D.E.F.G.",
"H.I.J.K.f s t u L.M.N.O.P.1.Q.R.S.T.U.V.W.X.Y.Z.`. +.+++E.@+#+G.",
"$+%+&+*+y z A B =+-+Q ;+>+,+'+)+!+~+{+]+y.^+/+(+C._+7.:+@+<+[+}+",
"|+1+m 2+G 3+4+5+O.Z 6+7+8+S.9+0+a+W.b+c+Z.d+e+f+g+h+i+j+k+l+m+n+",
"o+p+q+r+s+t+u+v+R w+/+`.x+]+y+z+A+B+ +C+D+E+F+G+H+I+J+K+L+M+N+O+",
"  P+o w Q+D L R+S+T+U+@.S V+W+X+c+z.Y+Z+`+ @.@+@>.@@#@$@%@&@*@  ",
"                        $.E.=@Y.-@`.E+ @                        ",
"                        &.;@z.A.B.C.>@.@                        ",
"                        ,@C+`. +.+++H++@                        ",
"                        -.b.C.'@7.:+)@@@                        ",
"                        `+!@++E.~@{@]@#@                        ",
"                         @^@:+/@(@_@L+:@                        ",
"                        .@<@[@<+}@|@1@&@                        ",
"                        +@2@3@l+4@5@6@7@                        ",
"                        8@9@0@a@b@c@d@e@                        ",
"                        #@f@g@h@i@j@k@l@                        ",
"                        m@n@o@p@q@r@s@t@                        ",
"                          u@v@w@x@x@y@                          "};
