/* XPM */
static char * AddXMLEntity_xpm[] = {
"33 33 520 2",
"  	c None",
". 	c #507385",
"+ 	c #4B6E80",
"@ 	c #44697B",
"# 	c #3F6476",
"$ 	c #618193",
"% 	c #56788A",
"& 	c #557789",
"* 	c #507285",
"= 	c #4A6E80",
"- 	c #44687A",
"; 	c #3E6476",
"> 	c #406677",
", 	c #466A7C",
"' 	c #829DAE",
") 	c #809CAD",
"! 	c #7693A5",
"~ 	c #688899",
"{ 	c #597B8C",
"] 	c #496D7F",
"^ 	c #4C6F81",
"/ 	c #4E7183",
"( 	c #4D7083",
"_ 	c #87A2B2",
": 	c #86A0B1",
"< 	c #839EAF",
"[ 	c #7D99AA",
"} 	c #547688",
"| 	c #517486",
"1 	c #8BA5B5",
"2 	c #89A4B4",
"3 	c #86A1B1",
"4 	c #58798B",
"5 	c #537587",
"6 	c #527486",
"7 	c #8EA7B7",
"8 	c #8DA7B7",
"9 	c #88A3B3",
"0 	c #829EAE",
"a 	c #597B8D",
"b 	c #537588",
"c 	c #91AABA",
"d 	c #90A9B9",
"e 	c #8CA6B6",
"f 	c #89A3B3",
"g 	c #5B7D8F",
"h 	c #587A8C",
"i 	c #8FA8B8",
"j 	c #5B7C8E",
"k 	c #57798B",
"l 	c #E38C1A",
"m 	c #DB821B",
"n 	c #D3761A",
"o 	c #CC6C19",
"p 	c #C46319",
"q 	c #BE5C19",
"r 	c #8CA5B5",
"s 	c #86A1B2",
"t 	c #819DAE",
"u 	c #597A8C",
"v 	c #EEAB39",
"w 	c #EA9D29",
"x 	c #E38E1F",
"y 	c #DB821D",
"z 	c #D2761A",
"A 	c #CB6C19",
"B 	c #C86819",
"C 	c #D0721A",
"D 	c #D67A1B",
"E 	c #87A2B3",
"F 	c #849FB0",
"G 	c #7E9BAC",
"H 	c #517385",
"I 	c #F7C84E",
"J 	c #F7C74E",
"K 	c #F5C04A",
"L 	c #EFB241",
"M 	c #E39730",
"N 	c #DB811D",
"O 	c #E0861B",
"P 	c #DF861B",
"Q 	c #DD831B",
"R 	c #85A0B0",
"S 	c #7C99AA",
"T 	c #4F7284",
"U 	c #F9CF51",
"V 	c #F8CB50",
"W 	c #F3B742",
"X 	c #E79420",
"Y 	c #E58C19",
"Z 	c #E28A1A",
"` 	c #E0871C",
" .	c #7F9BAC",
"..	c #7D9AAB",
"+.	c #7996A7",
"@.	c #4F6F80",
"#.	c #5B616E",
"$.	c #6A4F57",
"%.	c #852622",
"&.	c #821E1A",
"*.	c #791C18",
"=.	c #721E18",
"-.	c #874324",
";.	c #F3CF52",
">.	c #FAD855",
",.	c #F9D353",
"'.	c #F8CD51",
").	c #F4BC43",
"!.	c #EB9A1D",
"~.	c #E89116",
"{.	c #E58D19",
"].	c #E2891B",
"^.	c #7B98A9",
"/.	c #7794A5",
"(.	c #665D69",
"_.	c #9D312E",
":.	c #9B2621",
"<.	c #8E201A",
"[.	c #811E19",
"}.	c #771C18",
"|.	c #701B17",
"1.	c #863A21",
"2.	c #F2D254",
"3.	c #FCDF58",
"4.	c #FAD755",
"5.	c #F8CF52",
"6.	c #F4BE44",
"7.	c #EC9B1C",
"8.	c #E99315",
"9.	c #E58E18",
"0.	c #7A97A8",
"a.	c #7996A8",
"b.	c #7895A7",
"c.	c #7491A3",
"d.	c #73545E",
"e.	c #CD241C",
"f.	c #CB251C",
"g.	c #C3241B",
"h.	c #B5231B",
"i.	c #9A2019",
"j.	c #881F19",
"k.	c #9D3D23",
"l.	c #F3D254",
"m.	c #F9D052",
"n.	c #F4BD44",
"o.	c #E9971F",
"p.	c #E68F18",
"q.	c #E48B1A",
"r.	c #E1891D",
"s.	c #7794A6",
"t.	c #7694A5",
"u.	c #718FA1",
"v.	c #73535D",
"w.	c #D3231B",
"x.	c #D1231B",
"y.	c #CC241B",
"z.	c #C7241B",
"A.	c #94211A",
"B.	c #A13C22",
"C.	c #F3CB51",
"D.	c #FAD856",
"E.	c #F5D260",
"F.	c #EED078",
"G.	c #E9CB8B",
"H.	c #E2BA82",
"I.	c #E0B277",
"J.	c #DDA55F",
"K.	c #DA9440",
"L.	c #7492A3",
"M.	c #7392A3",
"N.	c #7391A2",
"O.	c #7291A2",
"P.	c #6D8D9E",
"Q.	c #476B7D",
"R.	c #72525C",
"S.	c #D5241C",
"T.	c #D3241C",
"U.	c #C8241B",
"V.	c #B6231B",
"W.	c #93201A",
"X.	c #9F3B23",
"Y.	c #EDC561",
"Z.	c #ECD997",
"`.	c #D5DDC1",
" +	c #BCD8BD",
".+	c #91C7A0",
"++	c #7FBE94",
"@+	c #89C299",
"#+	c #AACEB0",
"$+	c #C7D3BE",
"%+	c #CFD5C9",
"&+	c #708FA0",
"*+	c #6F8EA0",
"=+	c #6B8A9C",
"-+	c #6F515A",
";+	c #D1241B",
">+	c #D0241B",
",+	c #CB241B",
"'+	c #C6241B",
")+	c #B4231B",
"!+	c #A85B50",
"~+	c #DDD9BC",
"{+	c #9ACCAA",
"]+	c #44A76A",
"^+	c #21974F",
"/+	c #1E964E",
"(+	c #219850",
"_+	c #1F974F",
":+	c #1D964D",
"<+	c #37A15F",
"[+	c #78BD92",
"}+	c #C5DACB",
"|+	c #6E8D9E",
"1+	c #6D8C9E",
"2+	c #68889A",
"3+	c #416678",
"4+	c #6B4F59",
"5+	c #C7251C",
"6+	c #B1251C",
"7+	c #A0524D",
"8+	c #C9C4B9",
"9+	c #66B883",
"0+	c #249C52",
"a+	c #2AA058",
"b+	c #30A45C",
"c+	c #40AB68",
"d+	c #46AF6E",
"e+	c #42AD6B",
"f+	c #33A65F",
"g+	c #2DA25A",
"h+	c #269D53",
"i+	c #41A767",
"j+	c #BAD8C3",
"k+	c #6A8A9B",
"l+	c #6A899B",
"m+	c #658597",
"n+	c #684E57",
"o+	c #C5241B",
"p+	c #C2241B",
"q+	c #BF241B",
"r+	c #B93E37",
"s+	c #CABDB6",
"t+	c #67BA83",
"u+	c #1E9C4D",
"v+	c #32A75C",
"w+	c #38AB5D",
"x+	c #3DAD5D",
"y+	c #ADDDBA",
"z+	c #E3F3E9",
"A+	c #C2E5D0",
"B+	c #49B26C",
"C+	c #38AB5C",
"D+	c #34A95D",
"E+	c #2AA256",
"F+	c #3DA864",
"G+	c #BDDAC7",
"H+	c #69899A",
"I+	c #678799",
"J+	c #638496",
"K+	c #3C6374",
"L+	c #644D56",
"M+	c #C0241C",
"N+	c #BE241C",
"O+	c #BB251C",
"P+	c #CF8681",
"Q+	c #99CEAA",
"R+	c #25A251",
"S+	c #39AB5B",
"T+	c #46AF5C",
"U+	c #51B35C",
"V+	c #57B55B",
"W+	c #C8E7C8",
"X+	c #FEFEFE",
"Y+	c #D9EFE1",
"Z+	c #5CB86E",
"`+	c #48B05C",
" @	c #3CAC5C",
".@	c #27A353",
"+@	c #5AB67A",
"@@	c #DFE4E0",
"#@	c #AEBDC6",
"$@	c #6C8B9C",
"%@	c #648596",
"&@	c #608193",
"*@	c #3A6172",
"=@	c #614B55",
"-@	c #BA241B",
";@	c #B8231B",
">@	c #BA3730",
",@	c #D1CBBF",
"'@	c #4BB367",
")@	c #3EAC56",
"!@	c #55B45C",
"~@	c #60B95B",
"{@	c #69BC5C",
"]@	c #6EBE5D",
"^@	c #CFEAC9",
"/@	c #DAEFE1",
"(@	c #69BD6F",
"_@	c #62B95B",
":@	c #57B55C",
"<@	c #2CA54E",
"[@	c #B2D8BD",
"}@	c #CED5DA",
"|@	c #CED6DB",
"1@	c #B5C2CA",
"2@	c #6A899A",
"3@	c #638395",
"4@	c #628395",
"5@	c #5E8091",
"6@	c #385F70",
"7@	c #5E4A53",
"8@	c #B4241C",
"9@	c #C25E59",
"0@	c #C2D8BC",
"a@	c #52B348",
"b@	c #5FB859",
"c@	c #67BB5C",
"d@	c #70BF5F",
"e@	c #79C264",
"f@	c #7DC368",
"g@	c #D4EBCD",
"h@	c #71C075",
"i@	c #78C164",
"j@	c #72BF5F",
"k@	c #5CB75B",
"l@	c #62B952",
"m@	c #80C68C",
"n@	c #D4E0D3",
"o@	c #CCD3D8",
"p@	c #CFD6DB",
"q@	c #C3CCD3",
"r@	c #8CA3AF",
"s@	c #738F9F",
"t@	c #658495",
"u@	c #608092",
"v@	c #5C7D8E",
"w@	c #365D6E",
"x@	c #614E56",
"y@	c #AF231B",
"z@	c #AE241B",
"A@	c #CC827E",
"B@	c #A5D29D",
"C@	c #7AC042",
"D@	c #8ECA61",
"E@	c #C0E3B9",
"F@	c #CAE7C8",
"G@	c #CCE8C9",
"H@	c #CBE7C7",
"I@	c #ECF6EB",
"J@	c #F2F9F4",
"K@	c #C9E7CC",
"L@	c #CBE8C8",
"M@	c #CAE8C8",
"N@	c #C1E4C1",
"O@	c #81C779",
"P@	c #89C84E",
"Q@	c #7BC372",
"R@	c #D2DED3",
"S@	c #C5CDD4",
"T@	c #CDD4D9",
"U@	c #CCD4D9",
"V@	c #BBC6CE",
"W@	c #A1B3BD",
"X@	c #7F98A6",
"Y@	c #618192",
"Z@	c #567685",
"`@	c #9A7C80",
" #	c #AA231A",
".#	c #A9231A",
"+#	c #CF8F8A",
"@#	c #9FD192",
"##	c #84C544",
"$#	c #A5D362",
"%#	c #F1F8E9",
"&#	c #FFFFFF",
"*#	c #F3FAF6",
"=#	c #91CE8A",
"-#	c #8EC94D",
";#	c #7FC46A",
">#	c #CEDCCE",
",#	c #BCC5CD",
"'#	c #C5CED4",
")#	c #CBD3D8",
"!#	c #CDD5DA",
"~#	c #CAD2D8",
"{#	c #BEC8CF",
"]#	c #C1CBD1",
"^#	c #C6B3B6",
"/#	c #AF4A44",
"(#	c #A9322A",
"_#	c #A4241B",
":#	c #C98884",
"<#	c #AAD498",
"[#	c #84C543",
"}#	c #A1D159",
"|#	c #E0EFC9",
"1#	c #EBF5DC",
"2#	c #EBF5DE",
"3#	c #EEF6E4",
"4#	c #F9FCF7",
"5#	c #F9FCFA",
"6#	c #EBF5E8",
"7#	c #ECF5DF",
"8#	c #E1F1D5",
"9#	c #90CC7B",
"0#	c #8FC94C",
"a#	c #89C96F",
"b#	c #D4DFD1",
"c#	c #BDC7CD",
"d#	c #C8D0D6",
"e#	c #CBC6CA",
"f#	c #C09FA0",
"g#	c #B26966",
"h#	c #C38582",
"i#	c #C4DCB3",
"j#	c #7FC242",
"k#	c #8EC737",
"l#	c #94CA43",
"m#	c #97CB48",
"n#	c #98CB4B",
"o#	c #9DCE58",
"p#	c #E0F0CC",
"q#	c #E1F2E6",
"r#	c #90CB75",
"s#	c #98CC4E",
"t#	c #95CA47",
"u#	c #87C337",
"v#	c #8DC844",
"w#	c #97CF82",
"x#	c #DBE4D7",
"y#	c #CACDD1",
"z#	c #CECBCF",
"A#	c #DDEAD8",
"B#	c #86C655",
"C#	c #82C127",
"D#	c #82C023",
"E#	c #83C124",
"F#	c #D6EAB7",
"G#	c #DBEFDF",
"H#	c #75BE4D",
"I#	c #82C024",
"J#	c #7CC039",
"K#	c #BBDDB1",
"L#	c #C3CDD3",
"M#	c #C1CAD1",
"N#	c #C2CBD1",
"O#	c #C6CED4",
"P#	c #E2E7E5",
"Q#	c #B0D998",
"R#	c #7FC030",
"S#	c #D5EAB6",
"T#	c #DAEFDF",
"U#	c #81C024",
"V#	c #7EBF27",
"W#	c #87C65D",
"X#	c #E6EDE2",
"Y#	c #B9C3CB",
"Z#	c #B9C3CA",
"`#	c #BDC6CD",
" $	c #C5CED3",
".$	c #C9D2D7",
"+$	c #D5DBDF",
"@$	c #E0ECDC",
"#$	c #98CD6A",
"$$	c #82C129",
"%$	c #D1E8AF",
"&$	c #F8FCF5",
"*$	c #D6EDD8",
"=$	c #75BF4B",
"-$	c #82C126",
";$	c #85C348",
">$	c #C9E4BA",
",$	c #B0BBC3",
"'$	c #AEB9C1",
")$	c #B3BDC5",
"!$	c #BCC6CC",
"~$	c #D6DBDF",
"{$	c #DDEBD4",
"]$	c #9DCF69",
"^$	c #85C22F",
"/$	c #9FCF59",
"($	c #AAD675",
"_$	c #9ED069",
":$	c #7CC033",
"<$	c #82C028",
"[$	c #8DC74C",
"}$	c #C8E3B5",
"|$	c #E8EDE4",
"1$	c #A7B3BB",
"2$	c #ABB6BE",
"3$	c #CBD1D5",
"4$	c #E1EDD7",
"5$	c #B3DA8A",
"6$	c #8DC743",
"7$	c #84C22C",
"8$	c #83C126",
"9$	c #84C126",
"0$	c #83C128",
"a$	c #88C43A",
"b$	c #A1D06B",
"c$	c #D3E8BF",
"d$	c #EAEEE6",
"e$	c #A2AFB7",
"f$	c #BEC6CB",
"g$	c #DFE4E4",
"h$	c #DDECD1",
"i$	c #C6E3A9",
"j$	c #B3D985",
"k$	c #AAD577",
"l$	c #AFD87F",
"m$	c #BDDE9A",
"n$	c #D7EAC4",
"o$	c #EEF3E9",
"p$	c #C6CDD0",
"q$	c #CED5D6",
"r$	c #E4E9E2",
"s$	c #E7EEE0",
"t$	c #E9EEE2",
"u$	c #EBF0E5",
"              . + @ #                                             ",
"        $ % & * = - ; > ,                                         ",
"        ' ) ! ~ { ] ^ / (                                         ",
"        _ _ : < [ } | . *                                         ",
"        1 1 2 3 ) 4 } 5 6                                         ",
"        7 8 1 9 0 a % & b                                         ",
"        c d e f < g h % }                                         ",
"        i 7 e 9 0 j k % }               l m n o p q               ",
"        r 1 2 s t u & & 5           v w x y z A B C D             ",
"        9 E 3 F G % 5 6 H           I J K L M N O P Q             ",
"        R F < t S } H . T           U U V J W X Y Z `             ",
"        ) )  ...+.| @.#.$.%.&.*.=.-.;.>.,.'.).!.~.{.].            ",
"        ....S ^././ (._.:.<.[.}.|.1.2.3.4.5.6.7.8.9.].            ",
"        0.0.a.b.c.^ d.e.f.g.h.i.j.k.l.3.4.m.n.o.p.q.r.            ",
"        s.s.t.! u.] v.w.x.y.z.h.A.B.C.D.E.F.G.H.I.J.K.            ",
"        L.M.N.O.P.Q.R.S.T.e.U.V.W.X.Y.Z.`. +.+++@+#+$+%+          ",
"        &+&+&+*+=+@ -+;+>+,+'+)+<.!+~+{+]+^+/+(+_+:+<+[+}+        ",
"        |+1+1+1+2+3+4+f.f.5+g.6+7+8+9+0+a+b+c+d+e+f+g+h+i+j+      ",
"        =+=+k+l+m+; n+o+o+p+q+r+s+t+u+v+w+x+y+z+A+B+C+D+E+F+G+    ",
"        H+~ ~ I+J+K+L+M+q+N+O+P+Q+R+S+T+U+V+W+X+Y+Z+U+`+ @.@+@@@  ",
"      #@$@m+m+%@&@*@=@-@-@;@>@,@'@)@!@~@{@]@^@X+/@(@{@_@:@T+<@[@  ",
"  }@|@1@2@3@3@4@5@6@7@h.h.8@9@0@a@b@c@d@e@f@g@X+/@h@i@j@{@k@l@m@n@",
"o@}@p@q@r@s@t@u@v@w@x@y@y@z@A@B@C@D@E@F@G@H@I@X+J@K@L@M@N@O@P@Q@R@",
"S@T@p@}@U@V@W@X@Y@Z@`@ # #.#+#@###$#%#&#X+&#X+X+X+X+&#X+*#=#-#;#>#",
"  ,#'#)#!#}@!#~#{#]#^#/#(#_#:#<#[#}#|#1#2#3#4#X+5#6#7#1#8#9#0#a#b#",
"    c#]#d#T@p@p@}@p@p@e#f#g#h#i#j#k#l#m#n#o#p#&#q#r#s#m#t#u#v#w#x#",
"          )#)#~#)#!#}@p@T@y#z#A#B#C#D#E#D#E#F#&#G#H#I#D#E#I#J#K#  ",
"              L#M#N#O#)#U@)#U@P#Q#R#D#D#D#E#S#X+T#H#U#D#I#V#W#X#  ",
"                    Y#Z#`# $.$+$@$#$$$E#D#E#%$&$*$=$I#I#-$;$>$    ",
"                        ,$'$)$!$~${$]$^$D#D#/$($_$:$I#<$[$}$|$    ",
"                              1$2$3$4$5$6$7$8$8$9$0$a$b$c$d$      ",
"                                  e$f$g$h$i$j$k$l$m$n$o$          ",
"                                        p$q$r$s$t$u$              "};
