/* XPM */
static char * align_xpm[] = {
"32 32 80 1",
" 	c None",
".	c #FEFEFE",
"+	c #FFFFFF",
"@	c #FCFCFC",
"#	c #E7E7E7",
"$	c #585858",
"%	c #CCCCCC",
"&	c #3D3D3D",
"*	c #E4E4E4",
"=	c #282828",
"-	c #404040",
";	c #2C2C2C",
">	c #3C3C3C",
",	c #2A2A2A",
"'	c #555555",
")	c #E3E3E3",
"!	c #E2E2E2",
"~	c #CBCBCB",
"{	c #3E3E3E",
"]	c #5C5C5C",
"^	c #FDFDFD",
"/	c #424242",
"(	c #434343",
"_	c #414141",
":	c #707070",
"<	c #E6E6E6",
"[	c #717171",
"}	c #F5F6F7",
"|	c #D4DEE4",
"1	c #E2EEF5",
"2	c #E6F2F9",
"3	c #E7F2FA",
"4	c #E7F2F9",
"5	c #E6F1F8",
"6	c #E1ECF3",
"7	c #F4F6F6",
"8	c #3F3F3F",
"9	c #6F6F6F",
"0	c #6BB2DE",
"a	c #56A8DA",
"b	c #56A7DA",
"c	c #57A7DA",
"d	c #58A7D9",
"e	c #6BB1DD",
"f	c #D5DEE5",
"g	c #727272",
"h	c #5D5D5D",
"i	c #5E5E5E",
"j	c #2E2E2E",
"k	c #E5E5E5",
"l	c #E3EEF5",
"m	c #3E9BD4",
"n	c #3F9BD4",
"o	c #409BD4",
"p	c #3F9BD5",
"q	c #3E9BD5",
"r	c #3F9AD4",
"s	c #57A7D9",
"t	c #E1EDF4",
"u	c #3F9AD3",
"v	c #409AD3",
"w	c #58A7D8",
"x	c #E5F1F8",
"y	c #57A8DA",
"z	c #419AD3",
"A	c #56A7D9",
"B	c #409BD3",
"C	c #E5F0F7",
"D	c #E6F1F9",
"E	c #57A7D8",
"F	c #58A8DA",
"G	c #2F2F2F",
"H	c #D3DEE4",
"I	c #58A8D9",
"J	c #D5DFE5",
"K	c #F4F5F6",
"L	c #D3DDE3",
"M	c #F5F7F8",
"N	c #CACACA",
"O	c #292929",
"................................",
".++@##@++++++++++++++++++@##@++.",
".++#$$#++++++++++++++++++#$$#++.",
".@#%&&%******************%&&%#@.",
".#$&==&------------------&==&$#.",
".#$&==&----&;&----&;&---->,,&$#.",
".@#%&&%****%'%****%'%**)!~{{%#@.",
".++*--*++++*]*++++*]*..^.!/(*++.",
".++*--*++++*]*++++*]!^^.^)__)++.",
".++*--*++++*]*++++!]!^^^.!__).+.",
".++*--*++++#:<^^^^<[<^^^^)(/).+.",
".++*-&%***#}|123456|7<!))~8/!^..",
".++*-;']]]9|0abcddbefghi]'j/)^^.",
".++*-&%***klamnopqrst<!)!~8/*.+.",
".++*--*+.+^4sopqmuvw5..^.!_(*++.",
".++*--*.^.@xyqmrvzoy5^..^*_-*++.",
".++*-_)^.^^4AuvBBopsC^^^.*--*++.",
".++*//).^.^DEBvopnoF5.+++*--*++.",
"..^)({~!))k1wopnoopbt#***%&-*++.",
".^.)/G'hih[H0AsIyabeJ:]]]';-*++.",
"..^)/{%))!<KL64342tJM#***%&-*++.",
".+.!_/)^..^<:<^^^^#:#++++*--*++.",
".+.)__!^^^.!]*++++*]*++++*--*++.",
".++)__)^.^^)]*++++*]*++++*--*++.",
".++*//).^++*]*++++*]*++++*--*++.",
".@#%{{N!)**%'%****%'%****%&&%#@.",
".#$&O,&----&;&----&;&----&==&$#.",
".#$&==&------------------&==&$#.",
".@#%&&%******************%&&%#@.",
".++#$$#++++++++++++++++++#$$#++.",
".++@##@++++++++++++++++++@##@++.",
"................................"};
