/* XPM */
static char * align_xpm[] = {
"32 32 71 1",
" 	c None",
".	c #575757",
"+	c #555555",
"@	c #6D6D6E",
"#	c #585757",
"$	c #565655",
"%	c #878788",
"&	c #D1D2D4",
"*	c #D8D9DB",
"=	c #D1D2D5",
"-	c #767576",
";	c #575756",
">	c #565555",
",	c #D0D1D2",
"'	c #A2A4A6",
")	c #8F9195",
"!	c #D1D2D3",
"~	c #72706F",
"{	c #BCBEC0",
"]	c #A4A6A8",
"^	c #A5A7A9",
"/	c #C0C2C3",
"(	c #565453",
"_	c #554F4C",
":	c #B8BABC",
"<	c #B7B9BB",
"[	c #B9BBBD",
"}	c #56504D",
"|	c #77BAD8",
"1	c #5F7B88",
"2	c #85827F",
"3	c #CDCFCF",
"4	c #D3D5D6",
"5	c #CDCFD0",
"6	c #74716E",
"7	c #637F8A",
"8	c #72B1CD",
"9	c #78B7D2",
"0	c #63A6CA",
"a	c #3687BC",
"b	c #4A606D",
"c	c #575554",
"d	c #585553",
"e	c #4D6573",
"f	c #3C8ABD",
"g	c #70B1D1",
"h	c #73B1CC",
"i	c #63A6C9",
"j	c #3983B4",
"k	c #3376A1",
"l	c #3980AF",
"m	c #3D86B6",
"n	c #70B0D0",
"o	c #35749E",
"p	c #3980AD",
"q	c #3D86B5",
"r	c #79B8D2",
"s	c #4B92BC",
"t	c #65A7CA",
"u	c #3C84B4",
"v	c #3676A0",
"w	c #3A81AE",
"x	c #34739B",
"y	c #34749D",
"z	c #74B1CC",
"A	c #78B5CF",
"B	c #75B4D3",
"C	c #3980AE",
"D	c #36769F",
"E	c #3C85B5",
"F	c #3676A1",
"                                ",
"                                ",
"                                ",
"                                ",
"          .+@+#                 ",
"         $%&*=-;                ",
"         >,')'!;                ",
"         ~{]^]/(                ",
"         _::<[[}                ",
"        |12345678               ",
"       90abc+defgh              ",
"      9ijk     lmnh             ",
"     9ijo       pqnh            ",
"    9ijo         pqnh           ",
"   9ijo           pqnh          ",
"  rijo             pqnh         ",
" stjo               pqnh        ",
"  uv                 pqnh       ",
"                      wqnh      ",
"                       xqnh     ",
"                        yqnh    ",
"                         yqnz   ",
"                          yqnA  ",
"                           ymBC ",
"                            DEF ",
"                                ",
"                                ",
"                                ",
"                                ",
"                                ",
"                                ",
"                                "};
