/* XPM */
static const char * apolo_xpm[] = {
"32 32 381 2",
"  	c #0080C0",
". 	c #005782",
"+ 	c #005884",
"@ 	c #005883",
"# 	c #2178A3",
"$ 	c #0089CF",
"% 	c #0084C8",
"& 	c #0081C3",
"* 	c #007FBF",
"= 	c #0080C1",
"- 	c #5F040D",
"; 	c #951023",
"> 	c #991125",
", 	c #3B0108",
"' 	c #380005",
") 	c #3D3543",
"! 	c #0F4C70",
"~ 	c #006697",
"{ 	c #037DB9",
"] 	c #0083C4",
"^ 	c #951A30",
"/ 	c #E01F3F",
"( 	c #E02040",
"_ 	c #DF1F3F",
": 	c #DD1F3F",
"< 	c #DF1F40",
"[ 	c #9A1A33",
"} 	c #100F1E",
"| 	c #022637",
"1 	c #0086C9",
"2 	c #671D29",
"3 	c #E92143",
"4 	c #E22040",
"5 	c #EA2041",
"6 	c #C01A35",
"7 	c #6A1022",
"8 	c #002532",
"9 	c #0572A7",
"0 	c #132434",
"a 	c #E82144",
"b 	c #E42041",
"c 	c #DB2040",
"d 	c #4C000A",
"e 	c #074060",
"f 	c #0A506F",
"g 	c #851123",
"h 	c #E62041",
"i 	c #E72142",
"j 	c #CE1E3B",
"k 	c #050002",
"l 	c #1B709A",
"m 	c #0982BE",
"n 	c #520E12",
"o 	c #E32040",
"p 	c #761223",
"q 	c #000000",
"r 	c #2C0108",
"s 	c #D61F3F",
"t 	c #E01F40",
"u 	c #EC2446",
"v 	c #4E101C",
"w 	c #124360",
"x 	c #0081C2",
"y 	c #225572",
"z 	c #DF2041",
"A 	c #D62141",
"B 	c #DEF0F6",
"C 	c #DDF1FF",
"D 	c #516A71",
"E 	c #120103",
"F 	c #DF2040",
"G 	c #DF203F",
"H 	c #EC2244",
"I 	c #410811",
"J 	c #0A4866",
"K 	c #0076B2",
"L 	c #0072AD",
"M 	c #0073AE",
"N 	c #007FBE",
"O 	c #0678AE",
"P 	c #58212B",
"Q 	c #E92041",
"R 	c #D72141",
"S 	c #072815",
"T 	c #FFFFFF",
"U 	c #A4C9EF",
"V 	c #AAD1F2",
"W 	c #0A0000",
"X 	c #D81F3E",
"Y 	c #450913",
"Z 	c #374247",
"` 	c #797C75",
" .	c #717C7B",
"..	c #5A6D67",
"+.	c #58665F",
"@.	c #17658F",
"#.	c #0082C3",
"$.	c #275168",
"%.	c #B2152F",
"&.	c #E32142",
"*.	c #180004",
"=.	c #686D75",
"-.	c #9ABDE0",
";.	c #5B6C78",
">.	c #2F030B",
",.	c #ED2244",
"'.	c #5C0C1A",
").	c #959897",
"!.	c #C6C6C6",
"~.	c #C5C4C4",
"{.	c #C5C4C5",
"].	c #3C3E41",
"^.	c #0B8AC9",
"/.	c #0082C5",
"(.	c #432D3E",
"_.	c #E71F40",
":.	c #D41F3E",
"<.	c #130103",
"[.	c #070000",
"}.	c #0D0000",
"|.	c #C71E3B",
"1.	c #E12040",
"2.	c #DC2040",
"3.	c #0E0507",
"4.	c #B9B9BA",
"5.	c #BFBFBF",
"6.	c #C0C0C0",
"7.	c #929190",
"8.	c #185579",
"9.	c #007FC0",
"0.	c #0673A4",
"a.	c #4D0818",
"b.	c #D61E3D",
"c.	c #BE1A36",
"d.	c #7F1022",
"e.	c #D21E3D",
"f.	c #48464D",
"g.	c #CBC9C9",
"h.	c #D0D0CE",
"i.	c #374252",
"j.	c #0081C4",
"k.	c #215F7E",
"l.	c #A01B38",
"m.	c #E82041",
"n.	c #51363A",
"o.	c #565E5B",
"p.	c #301218",
"q.	c #D21C3C",
"r.	c #3B000A",
"s.	c #969A99",
"t.	c #8B8784",
"u.	c #187EB1",
"v.	c #0083C5",
"w.	c #003248",
"x.	c #A0162C",
"y.	c #F22347",
"z.	c #43383F",
"A.	c #BDBEBB",
"B.	c #707171",
"C.	c #3B232C",
"D.	c #DC1E3F",
"E.	c #D92141",
"F.	c #383A35",
"G.	c #C6C7C6",
"H.	c #C1C1C1",
"I.	c #BABBBA",
"J.	c #313031",
"K.	c #0382C1",
"L.	c #0F2C38",
"M.	c #841228",
"N.	c #991129",
"O.	c #757B84",
"P.	c #848D87",
"Q.	c #4C4B50",
"R.	c #605054",
"S.	c #DA1D3D",
"T.	c #DE1F3F",
"U.	c #1F060E",
"V.	c #13171D",
"W.	c #403C3F",
"X.	c #6F6B6A",
"Y.	c #38342A",
"Z.	c #1272A6",
"`.	c #0483C0",
" +	c #123140",
".+	c #901327",
"++	c #EA2143",
"@+	c #E42142",
"#+	c #5D0E1B",
"$+	c #7D7F7F",
"%+	c #9B9E9B",
"&+	c #3E4048",
"*+	c #6B5C5E",
"=+	c #CA1536",
"-+	c #8D1329",
";+	c #554311",
">+	c #CB3702",
",+	c #EC8064",
"'+	c #5F8CB4",
")+	c #005F98",
"!+	c #005F91",
"~+	c #027BB6",
"{+	c #00334C",
"]+	c #881124",
"^+	c #480713",
"/+	c #4C4D4F",
"(+	c #BBC3BB",
"_+	c #262632",
":+	c #515959",
"<+	c #393003",
"[+	c #E8C844",
"}+	c #DFC63D",
"|+	c #DF5409",
"1+	c #E23200",
"2+	c #BC9199",
"3+	c #0F84C2",
"4+	c #0083C6",
"5+	c #525146",
"6+	c #270003",
"7+	c #E92243",
"8+	c #E22041",
"9+	c #690E1E",
"0+	c #151918",
"a+	c #4F514F",
"b+	c #0F0E03",
"c+	c #E6C740",
"d+	c #E0BF40",
"e+	c #DFC241",
"f+	c #E0BA35",
"g+	c #E15C09",
"h+	c #DA4B2F",
"i+	c #56A0C9",
"j+	c #007BBE",
"k+	c #97938C",
"l+	c #A7A8AA",
"m+	c #29242A",
"n+	c #9B1129",
"o+	c #EF2244",
"p+	c #560D19",
"q+	c #434214",
"r+	c #6A757D",
"s+	c #3E3205",
"t+	c #E3C340",
"u+	c #E0C03F",
"v+	c #E09625",
"w+	c #DF6A0E",
"x+	c #E03E00",
"y+	c #F04B18",
"z+	c #8D9BAB",
"A+	c #007DBE",
"B+	c #878086",
"C+	c #C8CEC8",
"D+	c #5B5F64",
"E+	c #340C11",
"F+	c #D51E3C",
"G+	c #BB1A38",
"H+	c #292A08",
"I+	c #E7C443",
"J+	c #948525",
"K+	c #EFD347",
"L+	c #DFBF3F",
"M+	c #E0BF3F",
"N+	c #E0CB43",
"O+	c #E03E01",
"P+	c #DF4000",
"Q+	c #E04000",
"R+	c #E03F00",
"S+	c #E63C0F",
"T+	c #4EA4CF",
"U+	c #007EBF",
"V+	c #0084C7",
"W+	c #807973",
"X+	c #C3C3C3",
"Y+	c #ACAFAC",
"Z+	c #4E4950",
"`+	c #100000",
" @	c #EA5F0D",
".@	c #E0C340",
"+@	c #E1C943",
"@@	c #DFBE40",
"#@	c #E0C041",
"$@	c #E08924",
"%@	c #E0BF37",
"&@	c #E08D26",
"*@	c #E5430E",
"=@	c #85ADC3",
"-@	c #7896AE",
";@	c #8C7177",
">@	c #67A9CC",
",@	c #0085C8",
"'@	c #584F4B",
")@	c #C6C5C5",
"!@	c #C2C2C2",
"~@	c #C0BFBF",
"{@	c #C8C9C8",
"]@	c #67645E",
"^@	c #F34A00",
"/@	c #DFBD40",
"(@	c #E07F10",
"_@	c #E09423",
":@	c #E0C642",
"<@	c #E0952B",
"[@	c #E02E00",
"}@	c #E0610B",
"|@	c #DE3800",
"1@	c #EC6645",
"2@	c #2791C7",
"3@	c #007EC1",
"4@	c #006597",
"5@	c #080A18",
"6@	c #909085",
"7@	c #BEBEBE",
"8@	c #C0C1C0",
"9@	c #C0BFC0",
"0@	c #636F71",
"a@	c #F16F4D",
"b@	c #DFA32D",
"c@	c #E08D27",
"d@	c #E0480A",
"e@	c #E0CB33",
"f@	c #DF3700",
"g@	c #DF3F00",
"h@	c #F65C3E",
"i@	c #218DCB",
"j@	c #0081C1",
"k@	c #00679B",
"l@	c #28475C",
"m@	c #433D38",
"n@	c #BFC0C3",
"o@	c #757774",
"p@	c #DDB6AC",
"q@	c #DF4402",
"r@	c #E05407",
"s@	c #E04902",
"t@	c #E04500",
"u@	c #DE3900",
"v@	c #EC6745",
"w@	c #EB2F00",
"x@	c #E03A00",
"y@	c #E45933",
"z@	c #2398CF",
"A@	c #0D79B0",
"B@	c #052C3F",
"C@	c #353939",
"D@	c #367393",
"E@	c #DD3F16",
"F@	c #DF3E00",
"G@	c #DE3100",
"H@	c #9FAAB1",
"I@	c #1B94CD",
"J@	c #7A7285",
"K@	c #AD5136",
"L@	c #DAA6AD",
"M@	c #007EC0",
"N@	c #0080BF",
"O@	c #C18F9E",
"P@	c #DF3900",
"Q@	c #E04306",
"R@	c #E46A58",
"S@	c #E03800",
"T@	c #F26D49",
"U@	c #E77975",
"V@	c #DF3D00",
"W@	c #A1A7B6",
"X@	c #6F90A6",
"Y@	c #E73500",
"Z@	c #E33C04",
"`@	c #8FB0C7",
" #	c #1093C6",
".#	c #B86F6E",
"+#	c #6E9FBA",
"@#	c #0079BD",
"##	c #50A8CF",
"$#	c #CB6249",
"%#	c #E63500",
"&#	c #EC967F",
"*#	c #0585C5",
"=#	c #5596B8",
"-#	c #6D7C86",
";#	c #0E89C6",
">#	c #0080C2",
"                                                                ",
"                                                                ",
"    . + @ # $ % & *                                             ",
"  = - ; > , ' ) ! ~ { ] *                                       ",
"  = ^ / ( ( _ : < [ } | 1   *                                   ",
"  = 2 3 _ ( ( ( _ 4 5 6 7 8 9 ] *                               ",
"    0 a / ( ( ( ( ( ( _ b c d e { =                             ",
"  * f g ( ( ( ( ( h i 4 _ ( ( j k l   *                         ",
"    m n _ ( _ o p q q r s ( ( t u v w x *                       ",
"    & y z _ ( A q B C D E F _ ( G H I J K L L L M N *           ",
"    * O P Q ( R S T U V W X _ ( ( _ ( Y Z `  ...+.@.            ",
"      #.$.%.( &.*.=.-.;.>.F _ ( ( ( _ ,.'.).!.~.{.].^.          ",
"      * /.(._._ :.<.[.}.|.( ( 1.( ( ( G 2.3.4.5.6.7.8.9.        ",
"        * 0.a._ ( F b.: ( _ c.d.( _ ( ( / e.f.g.5.h.i.=         ",
"          j.k.l.m.( ( ( _ H n.o.p.q._ ( ( ( r.s.5.5.t.u.        ",
"            v.w.x.o _ ( _ y.z.A.B.C.D.( ( t E.F.G.H.I.J.#.      ",
"            9.K.L.M.1.( ( _ N.O.P.Q.R.S.T.( :.U.V.W.X.Y.Z.      ",
"              * `. +.+++( ( @+#+$+%+&+*+=+-+;+>+,+'+)+!+~+      ",
"                * v.{+]+: ( _ 4 ^+/+(+_+:+<+[+}+|+1+2+3+*       ",
"                  * 4+5+6+7+_ / 8+9+0+5.a+b+c+d+e+f+g+h+i+j+    ",
"                    /.k+l+m+n+,._ o+p+q+r+s+t+u+d+v+w+x+y+z+A+  ",
"                    v.B+5.C+D+E+F+G+H+I+J+K+L+M+N+O+P+Q+R+S+T+U+",
"                    V+W+5.5.X+Y+Z+`+ @.@+@@@#@$@%@&@*@=@-@;@>@U+",
"                    ,@'@)@!@5.~@{@]@^@/@(@_@:@<@[@}@|@1@2@3@A+  ",
"                    * 4@5@6@7@8@9@0@a@b@c@R+d@e@f@Q+g@g@h@i@*   ",
"                      = j@k@l@m@n@o@p@q@r@Q+R+s@t@u@v@w@x@y@z@* ",
"                          * V+A@B@C@D@E@Q+g@F@Q+Q+G@H@I@J@K@L@M@",
"                              N@9.x = O@P@Q@R@S@P+Q+T@9.N@9.9.N@",
"                                    * #.U@V@W@X@Y@g@Z@`@U+      ",
"                                         #.#+#@###$#%#&#*#      ",
"                                          * 9.  N@A+=#-#;#      ",
"                                                    9.>#*       "};
