/* XPM */
static char *asea_xpm[] = {
/* columns rows colors chars-per-pixel */
"16 16 71 1",
"  c #622C10",
". c #633418",
"X c #733C19",
"o c #7C3F1B",
"O c #6C401D",
"+ c #75411A",
"@ c #7B4119",
"# c #7F461D",
"$ c #7B4E2C",
"% c #7E5430",
"& c #844218",
"* c #87481B",
"= c #884A1D",
"- c #8F4A1C",
"; c #814E24",
": c #944E20",
"> c #8D5223",
", c #86522D",
"< c #8E552A",
"1 c #975522",
"2 c #965625",
"3 c #9C5421",
"4 c #9E5521",
"5 c #9C5B25",
"6 c #9E5D27",
"7 c #A15720",
"8 c #A66122",
"9 c #A86329",
"0 c #AA6629",
"q c #A8672E",
"w c #A7682B",
"e c #B36D29",
"r c #B26D2B",
"t c #B36D2F",
"y c #B86F2B",
"u c #B3712F",
"i c #A56830",
"p c #A56935",
"a c #AD6B30",
"s c #AE743F",
"d c #AE793D",
"f c #B77132",
"g c #B47333",
"h c #BB7731",
"j c #BA7737",
"k c #B77837",
"l c #BC7937",
"z c #B1743A",
"x c #B67638",
"c c #B67B3C",
"v c #BD7C38",
"b c #B97A3D",
"n c #BB7D3D",
"m c #C37B30",
"M c #C07B38",
"N c #C07F38",
"B c #A36F41",
"V c #B77F45",
"C c #C1813B",
"Z c #BB8249",
"A c #B48150",
"S c #B5875C",
"D c #C28442",
"F c #C18746",
"G c #C58842",
"H c #C08849",
"J c #C58B4D",
"K c #C28B51",
"L c #C48F50",
"P c #C19060",
"I c None",
/* pixels */
"IIIIIIIIIFIIIIII",
"IIIBgxVdDjZsIIII",
"IIII%III.+i#qIII",
"IIIIIIIIIO<IIIII",
"IIIIIIIIclIIIIII",
"IIIIIIIAmpIIIIII",
"IIIIIIICeIIIIIII",
"IIIIIP;vJKIIIIII",
"IIIII9oaGnIIIIII",
"IIIII2 =ruSIIIII",
"IIIII,&-3fzIIIII",
"IIIIII>74:0IIIII",
"IIIIII$@*X1HIIII",
"IIIIII856wkNLIII",
"IIIIIItyhMbIIIII",
"IIIIIIIIIIIIIIII"
};
