/* XPM */
static char *aseaSelect_xpm[] = {
/* columns rows colors chars-per-pixel */
"16 16 132 2",
"   c #622C10",
".  c #733C19",
"X  c #7C3F1B",
"o  c #5D2D37",
"O  c #6C401D",
"+  c #75411A",
"@  c #7B4119",
"#  c #7F461D",
"$  c #7E4B2C",
"%  c #65366C",
"&  c #67337B",
"*  c #844218",
"=  c #87481B",
"-  c #884A1D",
";  c #8F4A1C",
":  c #8A4F2A",
">  c #944E20",
",  c #975522",
"<  c #9C5421",
"1  c #9E5521",
"2  c #9C5B25",
"3  c #9E5D27",
"4  c #A15720",
"5  c #A66122",
"6  c #A86329",
"7  c #AA6629",
"8  c #A7682B",
"9  c #B36D29",
"0  c #B26D2B",
"q  c #A26635",
"w  c #AD6B30",
"e  c #AF6D36",
"r  c #AD653D",
"t  c #AF723E",
"y  c #B77132",
"u  c #B47333",
"i  c #BA7737",
"p  c #B77837",
"a  c #BC7937",
"s  c #B5753A",
"d  c #B67B3C",
"f  c #BD7C38",
"g  c #C37B30",
"h  c #C07F38",
"j  c #824A47",
"k  c #884A44",
"l  c #935955",
"z  c #9D645A",
"x  c #98645F",
"c  c #A86441",
"v  c #B06D42",
"b  c #B87B4F",
"n  c #A96759",
"m  c #AE7150",
"M  c #AB735E",
"N  c #915677",
"B  c #A16A64",
"V  c #C1813B",
"C  c #C58842",
"Z  c #C58B4D",
"A  c #5B2D91",
"S  c #6D3A9E",
"D  c #713692",
"F  c #4817B2",
"G  c #4A17B8",
"H  c #5C2AB5",
"J  c #632CA7",
"K  c #6938AB",
"L  c #602EBA",
"P  c #603DB0",
"I  c #6B38BA",
"U  c #723FB9",
"Y  c #703FBD",
"T  c #7D49A7",
"R  c #7847A9",
"E  c #3704F9",
"W  c #3300FE",
"Q  c #3300FF",
"!  c #3401FE",
"~  c #3401FF",
"^  c #3402FF",
"/  c #3502FF",
"(  c #3503FF",
")  c #3604FF",
"_  c #3705FF",
"`  c #3806FF",
"'  c #3907FF",
"]  c #3908FF",
"[  c #3A09FF",
"{  c #3C0BFF",
"}  c #3D0CFF",
"|  c #3D0DFF",
" . c #3E0EFF",
".. c #3F0FFF",
"X. c #4E1EDE",
"o. c #5C2FC4",
"O. c #5527CF",
"+. c #4B22D9",
"@. c #6836C2",
"#. c #6B3AC0",
"$. c #6232D0",
"%. c #6334D4",
"&. c #410EEA",
"*. c #410FEF",
"=. c #4211EB",
"-. c #4414EC",
";. c #4614EF",
":. c #4717EF",
">. c #501DE4",
",. c #4414F1",
"<. c #4010F4",
"1. c #4919F7",
"2. c #4010FF",
"3. c #4111FF",
"4. c #4112FF",
"5. c #4213FF",
"6. c #4314FF",
"7. c #4415FF",
"8. c #4618FF",
"9. c #4719FF",
"0. c #4A1DFA",
"q. c #5323E4",
"w. c #5323E6",
"e. c #4D21FF",
"r. c #5227FF",
"t. c #562CFF",
"y. c #5930FF",
"u. c #86538E",
"i. c #8B558D",
"p. c #935D8A",
"a. c #854E96",
"s. c #8F5D98",
/* pixels */
"2.t. .:.U @.>.w.$.a.%.q.1.~  .y.",
"| ~ ~ S u s B x b i M z #.( ' ' ",
"' r.' +.A H O.G o + q # D _ e.] ",
") Q 9.( ( Q / Q P O j F =.~ ` Q ",
"Q Q _ ( _ Q Q -.d a o.) Q [ 3.Q ",
"Q Q Q ' Q Q Q u.g l Q Q ( ' _ ' ",
"Q Q Q ( Q ~ X.V 9 L Q / ..) ] 3.",
"Q Q Q } / s.$ f Z p.Q Q 7.' ' 7.",
"Q Q Q ( &.6 X w C m ! ~ 4.2.( 5.",
"Q Q Q Q W k   - 0 e R E ( 8.( ..",
"Q Q Q Q Q & * ; < y t *.~ ..{ ` ",
"Q Q Q Q Q ,.: 4 1 > 7 Y ~ ~ ) ( ",
"Q Q ~ Q Q 0.% @ = . , i.;./ ( | ",
"Q Q ^ ~ Q K 5 2 3 8 p h T ~ ) 5.",
"Q Q _ Q ~ J c r v n N I <.' Q 6.",
"~ Q ] ( / ~ ' ( Q Q Q / 7.' Q { "
};
