/* XPM */
static char * axis_xpm[] = {
"34 30 223 2",
"  	c #FDFDFD",
". 	c #FEFEFE",
"+ 	c #DDDCE6",
"@ 	c #AEADD1",
"# 	c #F9F9F8",
"$ 	c #FAFBFA",
"% 	c #7577A7",
"& 	c #EAEBEF",
"* 	c #F1F2F3",
"= 	c #8083A0",
"- 	c #FDFBFB",
"; 	c #CFD0DE",
"> 	c #6A6AAC",
", 	c #E8E8EB",
"' 	c #FCFCF9",
") 	c #F0F1F3",
"! 	c #F6F7F8",
"~ 	c #F5F7F6",
"{ 	c #7A78C3",
"] 	c #F9F8F6",
"^ 	c #FDFCFE",
"/ 	c #7B7CD4",
"( 	c #2727D7",
"_ 	c #8686A9",
": 	c #FDFDFC",
"< 	c #FCFBFE",
"[ 	c #5959CA",
"} 	c #2729D4",
"| 	c #6161A1",
"1 	c #FCFCFC",
"2 	c #FDFDFB",
"3 	c #8C8BC4",
"4 	c #02029C",
"5 	c #9293A7",
"6 	c #8B8BC3",
"7 	c #0201A0",
"8 	c #9393A5",
"9 	c #9293A5",
"0 	c #02019E",
"a 	c #8B8BC4",
"b 	c #9393A6",
"c 	c #9293A6",
"d 	c #FCFDFD",
"e 	c #8B8AC4",
"f 	c #02029E",
"g 	c #FDFEFD",
"h 	c #FEFDFE",
"i 	c #FDFDFE",
"j 	c #FCFDFB",
"k 	c #FCFEFA",
"l 	c #FEFCFC",
"m 	c #E9F5EA",
"n 	c #5C9C84",
"o 	c #201781",
"p 	c #A1626F",
"q 	c #F2EDED",
"r 	c #FBFCFC",
"s 	c #FDFCFC",
"t 	c #FBFEFD",
"u 	c #FCFBFC",
"v 	c #E8F5E9",
"w 	c #86D287",
"x 	c #1DBB1E",
"y 	c #06A808",
"z 	c #75450B",
"A 	c #E80506",
"B 	c #CE1E21",
"C 	c #CF898C",
"D 	c #F0ECEA",
"E 	c #F9FCFD",
"F 	c #FDFEFC",
"G 	c #FCFEFD",
"H 	c #FDFCFB",
"I 	c #EEF5EC",
"J 	c #83D183",
"K 	c #1DB91A",
"L 	c #06A806",
"M 	c #076E09",
"N 	c #244C25",
"O 	c #4F433E",
"P 	c #802425",
"Q 	c #C70507",
"R 	c #E80304",
"S 	c #CC1E21",
"T 	c #CD8888",
"U 	c #F5F2F1",
"V 	c #FBFDFC",
"W 	c #FBFEFC",
"X 	c #FEFCFD",
"Y 	c #FBFDFB",
"Z 	c #FCFCFB",
"` 	c #EAF6E8",
" .	c #82D082",
"..	c #1BB81A",
"+.	c #06A705",
"@.	c #086D06",
"#.	c #294F28",
"$.	c #6A6A6A",
"%.	c #A3A2A2",
"&.	c #BFC2C1",
"*.	c #A0A1A0",
"=.	c #746566",
"-.	c #832829",
";.	c #C40908",
">.	c #EA0404",
",.	c #CB1A19",
"'.	c #CD8482",
").	c #F6EEEF",
"!.	c #FAFDFD",
"~.	c #FCFCFE",
"{.	c #FCFEFC",
"].	c #EBF5E9",
"^.	c #7DCF7E",
"/.	c #1BB71B",
"(.	c #07A606",
"_.	c #096B08",
":.	c #2A4D2D",
"<.	c #696C67",
"[.	c #A6A7A7",
"}.	c #DCDDDE",
"|.	c #FCFCFD",
"1.	c #F5F6F7",
"2.	c #DDDADB",
"3.	c #A3A5A5",
"4.	c #746666",
"5.	c #822928",
"6.	c #C20707",
"7.	c #E60605",
"8.	c #CC181A",
"9.	c #CA8382",
"0.	c #F6F3F4",
"a.	c #F1E9E9",
"b.	c #FDFDFA",
"c.	c #FBFCFD",
"d.	c #DAEFD7",
"e.	c #3CE03E",
"f.	c #1DBE1A",
"g.	c #07A406",
"h.	c #076D08",
"i.	c #2D4D2C",
"j.	c #6C6E6C",
"k.	c #A9A9A9",
"l.	c #DEDEDE",
"m.	c #F7F7F7",
"n.	c #DCDCDC",
"o.	c #A4A7A6",
"p.	c #766868",
"q.	c #812A2A",
"r.	c #C10709",
"s.	c #E90404",
"t.	c #CD2221",
"u.	c #B33638",
"v.	c #E8E4E3",
"w.	c #F7F5F3",
"x.	c #B98484",
"y.	c #D3C0C1",
"z.	c #9DCA9B",
"A.	c #F4FAF4",
"B.	c #FCFDFE",
"C.	c #FCFCF8",
"D.	c #79E27C",
"E.	c #23E020",
"F.	c #14A015",
"G.	c #2D4D2E",
"H.	c #6C6F6D",
"I.	c #AAA9A7",
"J.	c #DDDFDD",
"K.	c #F4F8F7",
"L.	c #DADEDB",
"M.	c #A6A7A9",
"N.	c #73696A",
"O.	c #7D2C2C",
"P.	c #D42122",
"Q.	c #E63935",
"R.	c #C58A8B",
"S.	c #FCFAFB",
"T.	c #BE7572",
"U.	c #CFB7B7",
"V.	c #A9D4A8",
"W.	c #6DA66E",
"X.	c #ECEEEA",
"Y.	c #EAEDEB",
"Z.	c #80A17F",
"`.	c #356136",
" +	c #4E6D4C",
".+	c #AAA8AA",
"++	c #DEE0DF",
"@+	c #F8F8F9",
"#+	c #F9F6F7",
"$+	c #DFDEDD",
"%+	c #A8A6A6",
"&+	c #764E4E",
"*+	c #6B3A3C",
"=+	c #A98B8A",
"-+	c #E8E0E2",
";+	c #AD8583",
">+	c #C49B99",
",+	c #E4F2E2",
"'+	c #93B593",
")+	c #FDFBFC",
"!+	c #F1F1F1",
"~+	c #D5D5D5",
"{+	c #CDCCCD",
"]+	c #E0E0E0",
"^+	c #F5F5F5",
"/+	c #F4F5F5",
"(+	c #DFE0E0",
"_+	c #CCCDCD",
":+	c #D4D7D6",
"<+	c #EAEAEA",
"[+	c #EFEEED",
"}+	c #C49FA2",
"|+	c #EDF4ED",
"1+	c #B2C3B5",
"2+	c #FDFCFD",
"3+	c #FBFEFE",
"4+	c #FCFBFA",
"5+	c #F1EFF3",
"6+	c #DEDFE0",
"7+	c #E9E9E9",
"8+	c #F6F6F6",
"9+	c #FAFAFA",
"0+	c #F8F8F8",
"                .                 + @ #                             ",
"                  .               $ % &                     .       ",
"                                  * = -                             ",
"                                  ; > ,                     .   .   ",
"            .       . .           ' ) !                     .   .   ",
"                                  ~ { ]                     .     . ",
"                                ^ / ( _                     .     . ",
"                      .     : : < [ } | 1                       . . ",
"        .                     2 2 3 4 5       . .                 . ",
"        .                         6 7 8 .                           ",
"        . .           .           6 7 9             .               ",
"                        .         6 0 9             .             . ",
"                        .         6 4 9         .                 . ",
".       .             .           6 4 9                             ",
"                                  a 0 b       . .                 . ",
"                      .           a 0 c                             ",
"                                  a 0 c                             ",
"                                  a 0 c                             ",
"              .               d   e f c       g h                   ",
"    . . .             . i j k l m n o p q r s d                     ",
".                       t u v w x y z A B C D E F                   ",
"              G i d : H I J K L M N O P Q R S T U V 1 j W X         ",
"              i Y Z `  ...+.@.#.$.%.&.*.=.-.;.>.,.'.).!.~.{.  1     ",
": h       d : k ].^./.(._.:.<.[.}.! |.1.2.3.4.5.6.7.8.9.q V Z 0.a.d ",
"b.s W   : c.d.e.f.g.h.i.j.k.l.m..         m.n.o.p.q.r.s.t.u.v.w.x.y.",
"z.A.Z   B.C.D.E.F.G.H.I.J.m.  .         .   g K.L.M.N.O.P.Q.R.S.T.U.",
"V.W.X.  1 Y.Z.`. +.+++@+^                         #+$+%+&+*+=+-+;+>+",
",+'+)+  1 !+~+{+]+^+                                1 /+(+_+:+<+[+}+",
"|+1+2+      1 j F                                     i 3+^ 4+5+n.6+",
"7+7+8+  .                                     . .               9+0+"};
