/* XPM */
static char *box_xpm[] = {
/* columns rows colors chars-per-pixel */
"16 16 165 2",
"   c #213635",
".  c #274436",
"X  c #264736",
"o  c #2D4837",
"O  c #2A403A",
"+  c #28463C",
"@  c #345038",
"#  c #385D3C",
"$  c #3E5C3E",
"%  c #327820",
"&  c #396134",
"*  c #3F613D",
"=  c #367333",
"-  c #3C7634",
";  c #3F7F33",
":  c #3C7038",
">  c #3F7938",
",  c #427239",
"<  c #43773B",
"1  c #457A3B",
"2  c #487A3F",
"3  c #2E4340",
"4  c #2F4742",
"5  c #2F4743",
"6  c #2B4E43",
"7  c #2D4C45",
"8  c #304545",
"9  c #344F44",
"0  c #314949",
"q  c #2E5343",
"w  c #345141",
"e  c #325742",
"r  c #355743",
"t  c #345245",
"y  c #365046",
"u  c #355446",
"i  c #355C40",
"p  c #345A44",
"a  c #375947",
"s  c #325148",
"d  c #31524E",
"f  c #39574F",
"g  c #365C48",
"h  c #354C52",
"j  c #385D51",
"k  c #385E53",
"l  c #3C5D5F",
"z  c #3D6957",
"x  c #435A52",
"c  c #415F50",
"v  c #435B5F",
"b  c #446B41",
"n  c #40624A",
"m  c #42634A",
"M  c #43624C",
"N  c #41624F",
"B  c #44614D",
"V  c #467141",
"C  c #4C7D41",
"Z  c #4E7A44",
"A  c #43685F",
"S  c #437257",
"D  c #547B51",
"F  c #406060",
"G  c #406361",
"H  c #426F62",
"J  c #4A6E66",
"K  c #4A6769",
"L  c #4F7E69",
"P  c #49786D",
"I  c #4F7F71",
"U  c #527572",
"Y  c #507A74",
"T  c #368122",
"R  c #3B8327",
"E  c #3A8526",
"W  c #409127",
"Q  c #42922B",
"!  c #49972E",
"~  c #46833E",
"^  c #4C853E",
"/  c #488F3D",
"(  c #449230",
")  c #459330",
"_  c #4D9134",
"`  c #499638",
"'  c #4C923F",
"]  c #4A953D",
"[  c #458242",
"{  c #488E49",
"}  c #508C49",
"|  c #4E9345",
" . c #4D9744",
".. c #4E9847",
"X. c #4E964F",
"o. c #529341",
"O. c #549644",
"+. c #529A43",
"@. c #4C8A55",
"#. c #538452",
"$. c #5B8653",
"%. c #5A8F53",
"&. c #598E57",
"*. c #549656",
"=. c #589956",
"-. c #55965E",
";. c #649C5F",
":. c #5AAC55",
">. c #61A555",
",. c #68A65C",
"<. c #4B846A",
"1. c #4E846E",
"2. c #508F67",
"3. c #538269",
"4. c #529661",
"5. c #548377",
"6. c #518A73",
"7. c #578279",
"8. c #5B817F",
"9. c #5A8D7B",
"0. c #589573",
"q. c #59957C",
"w. c #59987F",
"e. c #668D78",
"r. c #6A9D75",
"t. c #629179",
"y. c #67987F",
"u. c #55A265",
"i. c #5BA361",
"p. c #5FAB62",
"a. c #5FA672",
"s. c #5EAA75",
"d. c #6BA565",
"f. c #64A068",
"g. c #67A068",
"h. c #63AB6E",
"j. c #6AB46E",
"k. c #64A373",
"l. c #6CA875",
"z. c #65AB7E",
"x. c #72A971",
"c. c #62B571",
"v. c #62B770",
"b. c #6DB87F",
"n. c #5F8780",
"m. c #5E9B80",
"M. c #619A80",
"N. c #659886",
"B. c #67988C",
"V. c #6A9D8B",
"C. c #779C8E",
"Z. c #65A48A",
"A. c #6BA089",
"S. c #77AB87",
"D. c #70A68E",
"F. c #75AD8B",
"G. c #71A88D",
"H. c #66B08B",
"J. c #66B58C",
"K. c #6FB48A",
"L. c #6DBF8A",
"P. c #69BB8F",
"I. c #6ABC8D",
"U. c #74C09C",
"Y. c None",
/* pixels */
"Y.Y.Y.Y.Y.Y.Y.e.B.Y.Y.Y.Y.Y.Y.Y.",
"Y.Y.Y.Y.Y.Y.A.1.i.K.Y.Y.Y.Y.Y.Y.",
"Y.Y.Y.Y.G.U.U b * d.P.Z.Y.Y.Y.Y.",
"Y.Y.C.m.z ~ b.k.L V.j [ v.y.Y.Y.",
"Y.= L.8.D o f.H.I.n.C $ x.J.J Y.",
"Y.W < j.a.q.5.r - p.s.0.I e 5 Y.",
"Y.! x r.] c.N.#.c S.w.7 A o.w Y.",
"Y.R g l V & >.u.6.F # @ =.{ 9 Y.",
"Y.T ..z.&.4 t.; X 3.O.m D.H 8 Y.",
"Y.Q B ,.( S K Z n g.4.+ h , u Y.",
"Y.E f Y > / h.} a 9.k . -.' t Y.",
"Y.% @.7.$.y ;.) 6 v ^ M l.2.3 Y.",
"Y.Y.1 :. .s G : i *.| p P 0 Y.Y.",
"Y.Y.Y.Y._ X.M.%.N F.<.  Y.Y.Y.Y.",
"Y.Y.Y.Y.Y.Y.+.` q d Y.Y.Y.Y.Y.Y.",
"Y.Y.Y.Y.Y.Y.Y.2 O Y.Y.Y.Y.Y.Y.Y."
};
