/* XPM */
static char * Cancel_xpm[] = {
"62 19 17 1",
" 	c None",
".	c #66B1DF",
"+	c #4C84A7",
"@	c #203846",
"#	c #2E5065",
"$	c #274456",
"%	c #182934",
"&	c #5C9FC9",
"*	c #5696BD",
"=	c #467A9A",
"-	c #41718E",
";	c #3B6681",
">	c #000000",
",	c #0E1920",
"'	c #355C74",
")	c #518DB2",
"!	c #61A8D4",
"..............................................................",
"..............................................................",
"..............................................................",
"..............................................................",
"..............................................................",
".......+@#@##...$%%&..#%%%*&%%=..-%#$$==%%%#%%;&%%%%&.........",
"......->,*;>%...%>>-..&%>>@.$%..$>$&$>'&,>>=$>'.$>>#..........",
"......,>%..$%..&$>>$...;>>>=''.+>>'..,'.%>>).$;.'>>'..........",
".....+>>%..+$..;$>>,...$%>>%''.#>>'..'-.%>>)@+..'>>'..........",
".....'>>%......%),>,...%-,>>$'.%>>'.....%>>$>)..'>>'..........",
".....'>>%......%.%>>+..%)$>>,&.%>>'.....%>>=,)..'>>'..........",
".....+>>%..&=.+%,>>>#..%)!,>>'.#>>'..+*.%>>)=;=.'>>'.';.......",
"......%>%..$'.$=);>>%..%).'>>'.&,>'..%+.%>>)!%'.'>>'.,'.......",
"......),>;%%.#>%.#>>>=#>%..%>'..-,,;,$.=,>>#,>'&,>>$,>'.......",
"........+-+..&)).*)))!&))..&)!...&--*...)))&))!.)))&))!.......",
"..............................................................",
"..............................................................",
"..............................................................",
".............................................................."};
