/* XPM */
static char * CancelIcon_xpm[] = {
"40 40 2 1",
" 	c None",
".	c #4874C6",
"                                        ",
"         .                   ..         ",
"        ....                ....        ",
"       .....               ......       ",
"      ........            ........      ",
"     .........           ..........     ",
"    ............        ............    ",
"   .............        .............   ",
"  ................    ................  ",
" .................   .................  ",
"  ....................................  ",
"  ....................................  ",
"    ................................    ",
"    ................................    ",
"      ............................      ",
"      ............................      ",
"        ........................        ",
"        ........................        ",
"          ....................          ",
"          ....................          ",
"          ....................          ",
"         .....................          ",
"        ........................        ",
"       .........................        ",
"      ............................      ",
"     .............................      ",
"    ................................    ",
"   .................................    ",
"  ....................................  ",
" .....................................  ",
"  ................    ................  ",
"  ................    ................  ",
"    ............        ............    ",
"    ............        ............    ",
"      ........            ........      ",
"      ........            ........      ",
"        ....                ....        ",
"        ....                ....        ",
"                                        ",
"                                        "};
