/* XPM */
static char * checkIcon_xpm[] = {
"33 33 185 2",
"  	c None",
". 	c #E2E3E3",
"+ 	c #E7E8E9",
"@ 	c #E8E9E9",
"# 	c #E9EAEA",
"$ 	c #EAEAEA",
"% 	c #EAEBEB",
"& 	c #EBECEC",
"* 	c #ECECEC",
"= 	c #ECEDED",
"- 	c #EDEDED",
"; 	c #EDEEEE",
"> 	c #EEEEEE",
", 	c #EEEFEF",
"' 	c #EFEFEF",
") 	c #EFF0F0",
"! 	c #E8E8E8",
"~ 	c #E1E1E2",
"{ 	c #E6E7E7",
"] 	c #D4D5D5",
"^ 	c #CBCCCC",
"/ 	c #C6C7C7",
"( 	c #C9CACA",
"_ 	c #E4E5E5",
": 	c #D3D4D4",
"< 	c #CFD0D0",
"[ 	c #CECFCF",
"} 	c #D9DADA",
"| 	c #DBDBDB",
"1 	c #DCDDDD",
"2 	c #D4D4D4",
"3 	c #DEDEDE",
"4 	c #DFE0E0",
"5 	c #D2D3D3",
"6 	c #DDDEDE",
"7 	c #E0E0E0",
"8 	c #E9E9E9",
"9 	c #E1E2E2",
"0 	c #E7E8E8",
"a 	c #E3E4E4",
"b 	c #EBEBEB",
"c 	c #F1F2F2",
"d 	c #F1F1F1",
"e 	c #F0F0F0",
"f 	c #F0F1F1",
"g 	c #F2F2F2",
"h 	c #F2F3F3",
"i 	c #F3F3F3",
"j 	c #F3F4F4",
"k 	c #F4F4F4",
"l 	c #D5D6D6",
"m 	c #F4F5F5",
"n 	c #F5F5F5",
"o 	c #E0E1E1",
"p 	c #E5E6E6",
"q 	c #F5F6F6",
"r 	c #F6F6F6",
"s 	c #F6F7F7",
"t 	c #E5E5E5",
"u 	c #D8D9D9",
"v 	c #D0D1D1",
"w 	c #DADBDB",
"x 	c #E4E4E4",
"y 	c #E2E2E2",
"z 	c #F7F7F7",
"A 	c #F7F8F8",
"B 	c #E1E1E1",
"C 	c #E6E6E6",
"D 	c #F8F8F8",
"E 	c #F9F9F9",
"F 	c #D5D5D5",
"G 	c #DFDFDF",
"H 	c #D9D9D9",
"I 	c #E3E3E3",
"J 	c #DDDDDD",
"K 	c #FAFAFA",
"L 	c #E7E7E7",
"M 	c #DADADA",
"N 	c #FBFBFB",
"O 	c #DDDCDD",
"P 	c #DCB4C4",
"Q 	c #D7A9BD",
"R 	c #DEBDCB",
"S 	c #E787AF",
"T 	c #EEBACF",
"U 	c #E1BACA",
"V 	c #DFBBCA",
"W 	c #EAE8E9",
"X 	c #FCFCFC",
"Y 	c #EDD1DD",
"Z 	c #EE8BB4",
"` 	c #EB6A9F",
" .	c #DEAEC2",
"..	c #F8EDF2",
"+.	c #EF84B1",
"@.	c #E783AD",
"#.	c #F9F3F5",
"$.	c #E9BFD1",
"%.	c #EC78A8",
"&.	c #F195BB",
"*.	c #F6DBE6",
"=.	c #E4D5DC",
"-.	c #D983A6",
";.	c #EB679E",
">.	c #ED93B9",
",.	c #EFDAE3",
"'.	c #DFDEDE",
").	c #EF97BC",
"!.	c #ED74A7",
"~.	c #EAD1DB",
"{.	c #DCDCDC",
"].	c #E7D3DB",
"^.	c #F19ABE",
"/.	c #E890B5",
"(.	c #F2E1E8",
"_.	c #FDFDFD",
":.	c #EDA5C3",
"<.	c #EB649C",
"[.	c #EDB1CA",
"}.	c #F4BCD3",
"|.	c #EC6AA0",
"1.	c #F5BCD3",
"2.	c #F4B5D0",
"3.	c #E95A95",
"4.	c #F2A5C5",
"5.	c #E7D7DD",
"6.	c #ED98BB",
"7.	c #EB699F",
"8.	c #E58CB1",
"9.	c #D9C4CD",
"0.	c #F8DDE8",
"a.	c #EF8FB7",
"b.	c #FCFBFB",
"c.	c #FBE5EE",
"d.	c #F092B9",
"e.	c #E95D97",
"f.	c #F093B9",
"g.	c #FBEAF1",
"h.	c #FEFEFE",
"i.	c #F5DAE5",
"j.	c #EF8EB6",
"k.	c #EC6FA3",
"l.	c #F5C6DA",
"m.	c #FAF3F6",
"n.	c #ED7AA9",
"o.	c #EB6CA1",
"p.	c #FAEDF3",
"q.	c #F7C6DA",
"r.	c #EA639C",
"s.	c #EE85B1",
"t.	c #F9DBE8",
"u.	c #F4F2F3",
"v.	c #F1CADA",
"w.	c #F5C9DC",
"x.	c #F3B2CD",
"y.	c #EC71A4",
"z.	c #F6CCDE",
"A.	c #F7C7DA",
"B.	c #F7CCDD",
"C.	c #FCFAFB",
"D.	c #D8D8D8",
"E.	c #D6D6D6",
"F.	c #CDCDCD",
"G.	c #CFCFCF",
"H.	c #D2D2D2",
"I.	c #D3D3D3",
"J.	c #D8D8D9",
"K.	c #C7C7C7",
"L.	c #CECECE",
"M.	c #CBCBCB",
"N.	c #C6C6C6",
"O.	c #C3C3C3",
"P.	c #CACACA",
"Q.	c #CCCCCC",
"R.	c #C9C9C9",
"S.	c #D1D1D1",
"T.	c #C0C0C0",
"U.	c #ACACAC",
"V.	c #CDCECE",
"W.	c #757575",
"X.	c #797979",
"Y.	c #D0D0D0",
"Z.	c #BDBDBD",
"`.	c #B6B6B6",
" +	c #6C6C6C",
"                                                                  ",
"                                                                  ",
"        . + @ # $ % & * = = - ; > , , , ' ' ' ) ) ) ) ) !         ",
"        ~ { ] ^ / ( _ ( : ] < [ } | 1 2 3 4 5 6 6 7 8 * @         ",
"        9 0 { { _ a & { $ @ { 8 = ' % b c , - - - , d e #         ",
"        . # % & = = ; , ' ) e f d c g h i i j j k k k k %         ",
"        a % } < 5 l 6 ) e f c g h i j k k m n n n n n n b         ",
"        _ & @ o . p * f d g h i j k m n n q r r r s s s *         ",
"        t = 1 u | 2 : v 6 . w x y n r r s z z z z A A A -         ",
"        p ; @ B _ y 9 . p * * C , s z z D D D E E E E E >         ",
"        { , ' e a F y | G H I C J ! 3 { y I D K K K K K '         ",
"        L ' e d % { 0 G L J B ! C - g > x 8 E K K K K K '         ",
"        L ) x H 4 B I y C M y I $ B L - 8 I 8 * e g r N '         ",
"        ! f L M } O P Q a 7 G 3 ! R S T > U V W - > z X e         ",
"        ! c 0 B Y Z `  .$ ' n $ ..+.@.#.> $.%.&.*.n z X e         ",
"        8 g =.-.;.>.,.I y C k '.).!.~.K - {.].^.;./.(._.d         ",
"        8 h :.<.[.$ - n K K N }.|.1.X X _._._._.2.3.4._.d         ",
"        # j 5.6.7.8.9.' K N 0.7.a.b._._._._.c.d.e.f.g.h.d         ",
"        $ k n r i.j.k.l.K m.n.o.p._._._.h.q.r.s.t._._._.d         ",
"        % m d ' > u.v.w.N x.y.z._._.h.h.h.A.B.C.N N K N '         ",
"        b n x 2 M {.! N N X X _._.h.h.h._.N K D z r r r *         ",
"        b q k g n g z z z D E E K E K n z r n i d e e e 8         ",
"        b r I D.{.2 E.F.G.J > M D.H.t I D.t e > * $ 8 $ I.        ",
"        & r A E E d K K K D X K K N d r g > ! B | F J.K.          ",
"        * s D E C H 3 L.M M.F B 2 y y H N.O.P.F.J.G P.            ",
"        * z D z K D E X X n X h.N N n - * {.F.N ! Q.              ",
"        * z 7 R.M.I.F Q.H y G.S.F F M L.T.U.V.8 G.W.              ",
"        * z D D E K N D X _.K h.X r g - x M.7 L.X.                ",
"        * z 7 P.Y.F | 2 D.z D.{.K L.N.x Z.`.F. +                  ",
"        * z E K K D N X _._.h.h.X D g * y K.                      ",
"        8 i k n n r r z z z D D r k e * I.                        ",
"                                                                  ",
"                                                                  "};
