/* XPM */
static char * checkIcon_xpm[] = {
"32 32 256 2",
"  	c None",
". 	c #64ED77",
"+ 	c #66ED79",
"@ 	c #65ED78",
"# 	c #67EE79",
"$ 	c #67EE7A",
"% 	c #69EF7C",
"& 	c #61ED74",
"* 	c #61EE75",
"= 	c #54EB69",
"- 	c #4BEB62",
"; 	c #47EA5E",
"> 	c #47EA5D",
", 	c #4AEA60",
"' 	c #52EB67",
") 	c #6AEE7C",
"! 	c #5EED71",
"~ 	c #55EB6A",
"{ 	c #46E95C",
"] 	c #43E95A",
"^ 	c #44E95B",
"/ 	c #52EA67",
"( 	c #50E966",
"_ 	c #43E859",
": 	c #42E859",
"< 	c #4DE963",
"[ 	c #55E96B",
"} 	c #56E86B",
"| 	c #55E969",
"1 	c #56E96A",
"2 	c #53E967",
"3 	c #42E759",
"4 	c #40E757",
"5 	c #41E758",
"6 	c #51E865",
"7 	c #51E867",
"8 	c #4BE761",
"9 	c #47E75D",
"0 	c #47E65D",
"a 	c #49E75E",
"b 	c #42E659",
"c 	c #3FE656",
"d 	c #43E65A",
"e 	c #52E866",
"f 	c #46E55C",
"g 	c #41E557",
"h 	c #3DE554",
"i 	c #3EE555",
"j 	c #3FE356",
"k 	c #3CE453",
"l 	c #40E456",
"m 	c #49E55E",
"n 	c #48E55D",
"o 	c #41E357",
"p 	c #3EE254",
"q 	c #3AE351",
"r 	c #3BE352",
"s 	c #40E356",
"t 	c #40E357",
"u 	c #3CE252",
"v 	c #3CE253",
"w 	c #3AE250",
"x 	c #39E250",
"y 	c #3AE252",
"z 	c #38E04E",
"A 	c #38E14E",
"B 	c #38E14F",
"C 	c #37E04F",
"D 	c #35DE4D",
"E 	c #35DF4D",
"F 	c #36E04D",
"G 	c #34DE4B",
"H 	c #35DF4C",
"I 	c #35DE4C",
"J 	c #34DB4A",
"K 	c #32DE4A",
"L 	c #33DE4A",
"M 	c #32DA49",
"N 	c #31D947",
"O 	c #32DC49",
"P 	c #32DD49",
"Q 	c #32DC48",
"R 	c #32DD48",
"S 	c #30D646",
"T 	c #30D645",
"U 	c #31DC48",
"V 	c #46D757",
"W 	c #72D178",
"X 	c #4ED45D",
"Y 	c #31DB48",
"Z 	c #40D652",
"` 	c #6ED176",
" .	c #48D859",
"..	c #5FD56B",
"+.	c #6BD273",
"@.	c #38D94D",
"#.	c #40D752",
"$.	c #71D278",
"%.	c #49D85A",
"&.	c #4AD85B",
"*.	c #75D27C",
"=.	c #2ED445",
"-.	c #2DD543",
";.	c #2FDB46",
">.	c #43DE58",
",.	c #B7F1BF",
"'.	c #C2EAC4",
").	c #55D362",
"!.	c #A1E1A6",
"~.	c #C0F1C6",
"{.	c #4DDF60",
"].	c #B3F1BB",
"^.	c #ECF7EC",
"/.	c #6CDB78",
"(.	c #30DA46",
"_.	c #32DA48",
":.	c #8ADF92",
"<.	c #F1FAF2",
"[.	c #76E785",
"}.	c #77E786",
"|.	c #F3FCF4",
"1.	c #76E685",
"2.	c #2DD342",
"3.	c #2ACF40",
"4.	c #2EDA45",
"5.	c #51E064",
"6.	c #CDF4D2",
"7.	c #D9EFD9",
"8.	c #CDF1D1",
"9.	c #58E16A",
"0.	c #32DB48",
"a.	c #B5F2BD",
"b.	c #F7FDF8",
"c.	c #BDEAC1",
"d.	c #3ED751",
"e.	c #4DD85D",
"f.	c #D7F1D8",
"g.	c #F9FEFA",
"h.	c #F7FEF8",
"i.	c #28CC3F",
"j.	c #26C83B",
"k.	c #2CD943",
"l.	c #34D648",
"m.	c #A6E4AC",
"n.	c #F8FDF9",
"o.	c #B6E8BA",
"p.	c #39D54C",
"q.	c #B4F2BD",
"r.	c #CCF5D2",
"s.	c #C9F2CE",
"t.	c #7FDB88",
"u.	c #98E19F",
"v.	c #CBF4D0",
"w.	c #E9FBEC",
"x.	c #75E684",
"y.	c #2CD843",
"z.	c #25C339",
"A.	c #21BD37",
"B.	c #2AD641",
"C.	c #2BD842",
"D.	c #2ED644",
"E.	c #78D881",
"F.	c #D1F2D4",
"G.	c #98ECA3",
"H.	c #DCF6DF",
"I.	c #86DB8D",
"J.	c #33D648",
"K.	c #B4F1BC",
"L.	c #7DE68B",
"M.	c #D8F1DA",
"N.	c #D5F2D8",
"O.	c #7AE688",
"P.	c #DFF9E3",
"Q.	c #74E583",
"R.	c #86DE8F",
"S.	c #46CC53",
"T.	c #3CD04D",
"U.	c #2AD741",
"V.	c #22BA35",
"W.	c #28D43F",
"X.	c #29D740",
"Y.	c #4ED75E",
"Z.	c #BDECC2",
"`.	c #77E586",
" +	c #31D847",
".+	c #82E790",
"++	c #C6EFCA",
"@+	c #54DA64",
"#+	c #A1EDAB",
"$+	c #A0EDAA",
"%+	c #3CDA51",
"&+	c #B2F0BA",
"*+	c #9AEBA4",
"=+	c #48DD5B",
"-+	c #C7F4CD",
";+	c #69E379",
">+	c #6AE37A",
",+	c #DEF8E2",
"'+	c #D0F1D3",
")+	c #C7ECC9",
"!+	c #8FE599",
"~+	c #2CD842",
"{+	c #28D53F",
"]+	c #26D03C",
"^+	c #28D63F",
"/+	c #32D848",
"(+	c #3FDA54",
"_+	c #2DD743",
":+	c #2ED745",
"<+	c #40DB54",
"[+	c #39D94E",
"}+	c #29D640",
"|+	c #34D849",
"1+	c #2BD742",
"2+	c #3FDA53",
"3+	c #42DB56",
"4+	c #43DB57",
"5+	c #24C83A",
"6+	c #27D53E",
"7+	c #24C839",
"8+	c #25D33C",
"9+	c #25D43C",
"0+	c #22B936",
"a+	c #24CF3B",
"b+	c #24D33B",
"c+	c #24CE3B",
"d+	c #25C13A",
"e+	c #23D23A",
"f+	c #22D239",
"g+	c #24C039",
"h+	c #24CC3A",
"i+	c #21D138",
"j+	c #24CC3B",
"k+	c #27B53A",
"l+	c #23D039",
"m+	c #1FD036",
"n+	c #28B43A",
"o+	c #2ABD3D",
"p+	c #1ECF35",
"q+	c #1FCF36",
"r+	c #25CF3B",
"s+	c #2BBA3E",
"t+	c #2DB93F",
"u+	c #28CE3D",
"v+	c #20CF36",
"w+	c #1DCE34",
"x+	c #22D039",
"y+	c #2BCD40",
"z+	c #2EB340",
"A+	c #2AA339",
"B+	c #32C144",
"C+	c #2FCB44",
"D+	c #2ECC43",
"E+	c #2FCB43",
"F+	c #31C945",
"G+	c #30B842",
"                                . + @ # $ %                     ",
"                            & * = - ; > , ' * )                 ",
"                          ! ~ { ] ] ] ] ] ] ^ / +               ",
"                          ( _ : : : : : : : : : < &             ",
"                [ } | 1 2 3 4 4 4 4 4 4 4 4 4 4 5 6             ",
"              7 8 9 0 a b c c c c c c c c c c c c d e           ",
"            f g h h h h h h h h h h h h h h h h h i 8           ",
"            j k k k k k k k k k k k k k k k k k k k l m n       ",
"          o p q q q q q q q q q q q q q q q q q q q q r s t     ",
"      u v u w x x x x x x x x x x x x x x x x x x x x x x y     ",
"    z A B B B B B B B B B B B B B B B B B B B B B B B B B B C   ",
"  D E F F F F F F F F F F F F F F F F F F F F F F F F F F F F   ",
"  G H H H H H H H H H H H H H H H H H H H H H H H H H H H H I J ",
"  K L L L L L L L L L L L L L L L L L L L L L L L L L L L L L M ",
"N O P P P P Q Q R P P Q Q Q Q P P P P Q Q Q Q Q P P P P P P P S ",
"T U U U U U V W X Y Z `  ...+.@.U U #.$.%.&.*.%.U U U U U U U =.",
"-.;.;.;.;.;.>.,.'.).!.~.{.].^./.(._.:.<.[.}.|.1.;.;.;.;.;.;.;.2.",
"3.4.4.4.4.4.4.5.6.7.8.9.0.a.b.c.d.e.f.g.[.}.h.[.4.4.4.4.4.4.4.i.",
"j.k.k.k.k.k.k.l.m.n.o.p.(.q.r.s.t.u.v.w.x.1.h.x.k.k.k.k.k.k.y.z.",
"A.B.C.C.C.C.D.E.F.G.H.I.J.K.K.L.M.N.O.P.Q.x.b.R.S.T.C.C.C.C.U.V.",
"  W.X.X.X.X.Y.Z.`. +.+++@+#+$+%+&+*+=+-+;+>+,+'+)+!+~+X.X.X.{+  ",
"  ]+^+^+^+^+/+(+_+^+:+<+ +[+[+}+@.|+1+2+ + +3+4+4+[+^+^+^+^+]+  ",
"  5+6+6+6+6+6+6+6+6+6+6+6+6+6+6+6+6+6+6+6+6+6+6+6+6+6+6+6+6+7+  ",
"  V.8+9+9+9+9+9+9+9+9+9+9+9+9+9+9+9+9+9+9+9+9+9+9+9+9+9+9+8+0+  ",
"    a+b+b+b+b+b+b+b+b+b+b+b+b+b+b+b+b+b+b+b+b+b+b+b+b+b+b+c+    ",
"    d+e+f+f+f+f+f+f+f+f+f+f+f+f+f+f+f+f+f+f+f+f+f+f+f+f+e+g+    ",
"      h+i+i+i+i+i+i+i+i+i+i+i+i+i+i+i+i+i+i+i+i+i+i+i+i+j+      ",
"      k+l+m+m+m+m+m+m+m+m+m+m+m+m+m+m+m+m+m+m+m+m+m+m+l+n+      ",
"        o+l+p+p+p+p+p+p+p+p+p+p+p+p+p+p+p+p+p+p+p+q+r+s+        ",
"          t+u+v+w+w+w+w+w+w+w+w+w+w+w+w+w+w+w+p+x+y+z+          ",
"            A+B+C+D+D+D+D+D+D+D+D+D+D+D+D+D+E+F+G+              ",
"                                                                "};
