/* XPM */
static char * checkIcon_xpm[] = {
"29 29 346 2",
"  	c None",
". 	c #020202",
"+ 	c #0A0A0A",
"@ 	c #111111",
"# 	c #0D0D0E",
"$ 	c #060707",
"% 	c #1B1B1B",
"& 	c #757575",
"* 	c #C3C3C3",
"= 	c #BCBEBF",
"- 	c #91999E",
"; 	c #52585B",
"> 	c #121314",
", 	c #212121",
"' 	c #909191",
") 	c #F3F3F4",
"! 	c #F7F7F7",
"~ 	c #EFF1F2",
"{ 	c #BCC6CD",
"] 	c #BECAD0",
"^ 	c #6E7172",
"/ 	c #131313",
"( 	c #202121",
"_ 	c #8F9090",
": 	c #F6F7F7",
"< 	c #FEFEFE",
"[ 	c #FFFFFF",
"} 	c #F8F9FA",
"| 	c #C7D0D6",
"1 	c #CCD7DC",
"2 	c #E8EBED",
"3 	c #777777",
"4 	c #141414",
"5 	c #000000",
"6 	c #181819",
"7 	c #7F8385",
"8 	c #DDE3E5",
"9 	c #E7EBEE",
"0 	c #E9EDF0",
"a 	c #EBEFF2",
"b 	c #EEF1F3",
"c 	c #F0F3F5",
"d 	c #F2F5F6",
"e 	c #F4F7F8",
"f 	c #F7F9FA",
"g 	c #FBFCFD",
"h 	c #F8FAFA",
"i 	c #CCD5DB",
"j 	c #D2DBE0",
"k 	c #EFF3F4",
"l 	c #EAEBEC",
"m 	c #767778",
"n 	c #161616",
"o 	c #050601",
"p 	c #3D4311",
"q 	c #4C5415",
"r 	c #545D20",
"s 	c #879459",
"t 	c #B6C68C",
"u 	c #BDCC93",
"v 	c #C1CF96",
"w 	c #C5D299",
"x 	c #C8D69C",
"y 	c #CCD99F",
"z 	c #D1DCA2",
"A 	c #D5E0A9",
"B 	c #E1E9CD",
"C 	c #F5F7F8",
"D 	c #D2DAE0",
"E 	c #D8DFE4",
"F 	c #ECF0F2",
"G 	c #F0F4F5",
"H 	c #DBDEE0",
"I 	c #757879",
"J 	c #161717",
"K 	c #0B0D04",
"L 	c #859238",
"M 	c #BEC97E",
"N 	c #C0CA80",
"O 	c #C6D288",
"P 	c #CDD98F",
"Q 	c #CEDA91",
"R 	c #CFDB92",
"S 	c #D0DC92",
"T 	c #D1DD94",
"U 	c #D2DE94",
"V 	c #D4DF95",
"W 	c #CDDB87",
"X 	c #CEDB9F",
"Y 	c #F7F9F9",
"Z 	c #DDE3E7",
"` 	c #EBEEF0",
" .	c #E8EDF0",
"..	c #D0D5D8",
"+.	c #727678",
"@.	c #151617",
"#.	c #89983B",
"$.	c #D4DEA0",
"%.	c #E4EBC4",
"&.	c #DFE7B9",
"*.	c #DFE7B8",
"=.	c #E7EDC9",
"-.	c #D6DFA4",
";.	c #EDF1D5",
">.	c #D5DFA4",
",.	c #E9EECE",
"'.	c #C9D589",
").	c #C0CF78",
"!.	c #C3D192",
"~.	c #EFF2F4",
"{.	c #DCE2E6",
"].	c #E3E7EA",
"^.	c #E8ECEE",
"/.	c #E5EAEC",
"(.	c #E1E7EA",
"_.	c #DCE3E7",
":.	c #C3CBD0",
"<.	c #686E71",
"[.	c #121414",
"}.	c #0A0C03",
"|.	c #7A8828",
"1.	c #AFBD60",
"2.	c #D6DCAD",
"3.	c #D9E0B4",
"4.	c #E1E6C3",
"5.	c #EDF1DC",
"6.	c #F0F2E1",
"7.	c #C0CB80",
"8.	c #E5EACC",
"9.	c #A8B751",
"0.	c #A6B54F",
"a.	c #BBC78C",
"b.	c #EBEFF1",
"c.	c #DFE5E9",
"d.	c #DFE4E7",
"e.	c #DBE1E4",
"f.	c #D4DADF",
"g.	c #C5D0D6",
"h.	c #BECAD1",
"i.	c #A6B2B9",
"j.	c #4C5256",
"k.	c #090A0A",
"l.	c #090A02",
"m.	c #6B7717",
"n.	c #99A741",
"o.	c #D0D6A7",
"p.	c #CDD3A2",
"q.	c #B2BC70",
"r.	c #BAC27E",
"s.	c #B9C27E",
"t.	c #CAD09E",
"u.	c #A6B159",
"v.	c #E1E5C8",
"w.	c #9CA945",
"x.	c #94A23A",
"y.	c #B3BE85",
"z.	c #E8ECEF",
"A.	c #F0F2F3",
"B.	c #E0E5E9",
"C.	c #DAE1E6",
"D.	c #D5DCE1",
"E.	c #D0D9DE",
"F.	c #C7D1D7",
"G.	c #BDC8CF",
"H.	c #6C7477",
"I.	c #17191A",
"J.	c #080901",
"K.	c #5C6610",
"L.	c #848F32",
"M.	c #939B4B",
"N.	c #909A44",
"O.	c #9BA557",
"P.	c #929D47",
"Q.	c #808D26",
"R.	c #98A151",
"S.	c #8A9537",
"T.	c #B7BE87",
"U.	c #B2B97D",
"V.	c #ACB684",
"W.	c #E9ECEF",
"X.	c #898B8D",
"Y.	c #1F2020",
"Z.	c #040400",
"`.	c #2C3104",
" +	c #373D06",
".+	c #3D430E",
"++	c #626C3A",
"@+	c #829060",
"#+	c #879463",
"$+	c #8A9766",
"%+	c #8E9969",
"&+	c #919D6C",
"*+	c #95A06F",
"=+	c #98A473",
"-+	c #9FAA7B",
";+	c #BCC5AF",
">+	c #E2E7EA",
",+	c #E6EBED",
"'+	c #888A8C",
")+	c #1F1F20",
"!+	c #141516",
"~+	c #727A7D",
"{+	c #C3CED3",
"]+	c #C9D2D8",
"^+	c #CBD4DA",
"/+	c #CED6DC",
"(+	c #D1D9DE",
"_+	c #D4DBE1",
":+	c #D7DEE3",
"<+	c #DAE1E5",
"[+	c #DDE4E7",
"}+	c #E3E8EB",
"|+	c #E4E9EB",
"1+	c #878A8C",
"2+	c #1E1F20",
"3+	c #868A8C",
"4+	c #E4E9EC",
"5+	c #E5E9EC",
"6+	c #E4E9EA",
"7+	c #1E1F1F",
"8+	c #85898B",
"9+	c #DFE6E9",
"0+	c #DCE2DA",
"a+	c #C8D3A4",
"b+	c #CBD5AA",
"c+	c #DEE4DF",
"d+	c #DDE4E8",
"e+	c #DEE4E8",
"f+	c #CCD6B7",
"g+	c #A7B851",
"h+	c #BAC782",
"i+	c #D9E0DA",
"j+	c #83888A",
"k+	c #DBE2E6",
"l+	c #DAE2E6",
"m+	c #D3DCD1",
"n+	c #C4CFAA",
"o+	c #DAE1E4",
"p+	c #BEC997",
"q+	c #9CAE3B",
"r+	c #C3CEA2",
"s+	c #C4CEA7",
"t+	c #83878A",
"u+	c #D9E1E5",
"v+	c #D5DDDB",
"w+	c #BAC695",
"x+	c #9FAE4D",
"y+	c #A4B35B",
"z+	c #D7E0E1",
"A+	c #D4DDD8",
"B+	c #AFBC77",
"C+	c #9FAE48",
"D+	c #C8D2B7",
"E+	c #1D1F1F",
"F+	c #81878A",
"G+	c #D7E0E5",
"H+	c #D6DEDF",
"I+	c #BDC8A1",
"J+	c #9BAA4C",
"K+	c #90A02C",
"L+	c #8F9F29",
"M+	c #B1BD76",
"N+	c #D7DFE3",
"O+	c #C9D3C0",
"P+	c #A0AE55",
"Q+	c #A9B568",
"R+	c #CFD8CB",
"S+	c #1D1E1F",
"T+	c #808689",
"U+	c #D6DFE4",
"V+	c #C9D4C4",
"W+	c #96A445",
"X+	c #86961E",
"Y+	c #A1AE55",
"Z+	c #CED6C0",
"`+	c #D6DEE1",
" @	c #BCC7A3",
".@	c #8F9E34",
"+@	c #B4C08C",
"@@	c #D5DEDF",
"#@	c #808588",
"$@	c #D5DEE3",
"%@	c #CAD5CA",
"&@	c #9BA855",
"*@	c #879525",
"=@	c #88962A",
"-@	c #A9B57D",
";@	c #C8D2C5",
">@	c #D1DADA",
",@	c #ACB882",
"'@	c #8E9C36",
")@	c #BDC8A8",
"!@	c #D4DEE2",
"~@	c #1C1E1F",
"{@	c #7E8588",
"]@	c #D3DDE3",
"^@	c #D4DEE3",
"/@	c #CED7CB",
"(@	c #AFB980",
"_@	c #909D40",
":@	c #839022",
"<@	c #939F4A",
"[@	c #C5D0C3",
"}@	c #99A55A",
"|@	c #97A352",
"1@	c #C5D0C1",
"2@	c #D1DBDF",
"3@	c #7E8488",
"4@	c #D2DCE2",
"5@	c #C9D2C1",
"6@	c #A7B174",
"7@	c #9FAA67",
"8@	c #BAC6AC",
"9@	c #869334",
"0@	c #A1AD70",
"a@	c #CED8D7",
"b@	c #D0DBDE",
"c@	c #7D8387",
"d@	c #D0DBE1",
"e@	c #C6D0C3",
"f@	c #ACB791",
"g@	c #7E8A28",
"h@	c #ADB890",
"i@	c #CFDAE0",
"j@	c #C8D3C8",
"k@	c #7C8387",
"l@	c #CEDAE0",
"m@	c #C9D4D3",
"n@	c #A5AE7D",
"o@	c #929B51",
"p@	c #BCC7B3",
"q@	c #1C1E1E",
"r@	c #7B8386",
"s@	c #CDD9DF",
"t@	c #CBD7D9",
"u@	c #BFC9BA",
"v@	c #BDC7B5",
"w@	c #C9D5D5",
"x@	c #1B1E1E",
"y@	c #7A8286",
"z@	c #CCD8DF",
"A@	c #161718",
"B@	c #60676A",
"C@	c #A1ABB1",
"D@	c #080909",
"E@	c #0E0F10",
"      . + @ @ @ @ @ @ @ @ @ @ @ # $                       ",
"      % & * * * * * * * * * * = - ; >                     ",
"      , ' ) ! ! ! ! ! ! ! ! ! ~ { ] ^ /                   ",
"      ( _ : < [ [ [ [ [ [ [ [ } | 1 2 3 4                 ",
"    5 6 7 8 9 0 a b c d e f g h i j k l m n               ",
"o p q r s t u v w x y z A B C } D E F G H I J             ",
"K L M N O P Q R S T U V W X d Y E Z ` F  ...+.@.          ",
"K #.$.%.&.*.=.-.;.>.,.'.).!.~.C {.].^./.(._.:.<.[.        ",
"}.|.1.2.3.M 4.5.6.7.8.9.0.a.b.d c.d.e.f.i g.h.i.j.k.      ",
"l.m.n.o.p.q.r.s.t.u.v.w.x.y.z.A.9 B.C.D.E.i F.G.H.I.      ",
"J.K.L.M.N.O.P.Q.R.S.T.U.R.V./.~ A.A.A.A.A.A.~ W.X.Y.      ",
"Z.`. +.+++@+#+$+%+&+*+=+-+;+>+` b.b.b.b.b.b.` ,+'+)+      ",
"5 5 5 !+~+{+]+^+/+(+_+:+<+[+}+^.^.^.^.^.^.^.^.|+1+)+      ",
"      2+3+>+4+5+5+5+5+5+5+5+5+|+6+5+5+5+5+5+4+>+3+2+      ",
"      7+8+9+(.>+>+>+>+>+>+(.0+a+b+c+>+(.(.(.(.9+8+7+      ",
"      7+8+[+d+e+e+e+e+e+e+e+f+g+h+i+e+e+e+e+d+[+8+7+      ",
"      7+j+k+k+k+k+l+m+n+o+k+p+q+r+s+m+l+k+k+k+k+j+7+      ",
"      7+t+u+u+u+v+w+x+y+z+A+B+C+D+y+x+w+v+u+u+u+t+7+      ",
"      E+F+G+H+I+J+K+L+M+N+O+P+Q+R+M+L+K+J+I+H+G+F+E+      ",
"      S+T+U+V+W+X+Y+Z+`+U+ @.@+@@@`+Z+Y+X+W+V+U+T+S+      ",
"      S+#@$@%@&@*@=@-@;@>@,@'@)@!@;@-@=@*@&@%@$@#@S+      ",
"      ~@{@]@^@/@(@_@:@<@[@}@|@1@2@<@:@_@(@/@^@]@{@~@      ",
"      ~@3@4@4@4@]@5@6@7@8@9@0@a@b@7@6@5@]@4@4@4@3@~@      ",
"      ~@c@d@d@d@d@d@b@e@f@g@h@d@i@j@b@d@d@d@d@d@c@~@      ",
"      ~@k@l@l@l@l@l@l@m@n@o@p@l@l@l@l@l@l@l@l@l@k@~@      ",
"      q@r@s@s@s@s@s@s@t@u@v@w@s@s@s@s@s@s@s@s@s@r@q@      ",
"      x@y@z@z@z@z@z@z@z@z@z@z@z@z@z@z@z@z@z@z@z@y@x@      ",
"      A@B@C@C@C@C@C@C@C@C@C@C@C@C@C@C@C@C@C@C@C@B@A@      ",
"      . D@E@E@E@E@E@E@E@E@E@E@E@E@E@E@E@E@E@E@E@D@.       "};
