/* XPM */
static char * coloursComp_xpm[] = {
"45 45 277 2",
"  	c None",
". 	c #FD5308",
"+ 	c #FE2712",
"@ 	c #FE2812",
"# 	c #FD400C",
"$ 	c #FC7106",
"% 	c #FB9702",
"& 	c #FB9902",
"* 	c #FE350F",
"= 	c #FC8204",
"- 	c #FE2B11",
"; 	c #FD5108",
"> 	c #FD5508",
", 	c #FB9303",
"' 	c #FD4A0A",
") 	c #FC6107",
"! 	c #F72617",
"~ 	c #FE3E0D",
"{ 	c #FC7505",
"] 	c #FB9C02",
"^ 	c #AE1A46",
"/ 	c #D2202E",
"( 	c #FE360F",
"_ 	c #FD5008",
": 	c #FD5708",
"< 	c #FB8204",
"[ 	c #FBAB02",
"} 	c #FAB902",
"| 	c #A7194B",
"1 	c #F82616",
"2 	c #FE2914",
"3 	c #FE371C",
"4 	c #FE642C",
"5 	c #FD7F48",
"6 	c #FE8A57",
"7 	c #FE8E5D",
"8 	c #FD7F47",
"9 	c #FD7629",
"0 	c #FB940F",
"a 	c #FB9A04",
"b 	c #FB9B02",
"c 	c #FABC02",
"d 	c #AD1A47",
"e 	c #FA2615",
"f 	c #FE3C29",
"g 	c #FE6557",
"h 	c #FFB3AB",
"i 	c #FFDCD1",
"j 	c #FFEEE6",
"k 	c #FFF5F1",
"l 	c #FFF8F5",
"m 	c #FFE2D0",
"n 	c #FEDAA5",
"o 	c #FCB64B",
"p 	c #FBA31A",
"q 	c #FABA02",
"r 	c #AB1A48",
"s 	c #FE3420",
"t 	c #FE6B5D",
"u 	c #FFC6C0",
"v 	c #FFF8F7",
"w 	c #FFFFFF",
"x 	c #FFFCF7",
"y 	c #FEE4BC",
"z 	c #FCB951",
"A 	c #FB9F11",
"B 	c #D2212F",
"C 	c #F83B2D",
"D 	c #FE9287",
"E 	c #FFE4E1",
"F 	c #FFFDFD",
"G 	c #FFFEFD",
"H 	c #FFF2DF",
"I 	c #FDCB7F",
"J 	c #FBA51B",
"K 	c #FBAB03",
"L 	c #B63059",
"M 	c #EB9DA3",
"N 	c #FEF2F1",
"O 	c #FFF9F0",
"P 	c #FDDA90",
"Q 	c #FBC01B",
"R 	c #AC2756",
"S 	c #D38BA4",
"T 	c #FAF1F4",
"U 	c #FFFBF0",
"V 	c #FCDD7F",
"W 	c #FAC011",
"X 	c #A81B4C",
"Y 	c #C26184",
"Z 	c #F4E2E8",
"` 	c #FEF7DF",
" .	c #FCD151",
"..	c #FABD04",
"+.	c #A6194D",
"@.	c #AF2F5C",
"#.	c #E8C2CF",
"$.	c #FEFDFE",
"%.	c #FEEDBC",
"&.	c #FAC21A",
"*.	c #FABD03",
"=.	c #940B84",
"-.	c #9C116B",
";.	c #A41753",
">.	c #A81B4D",
",.	c #C15C7F",
"'.	c #FCF7F9",
").	c #FFFDF7",
"!.	c #FBCF4B",
"~.	c #FABC04",
"{.	c #FAC206",
"].	c #FBD112",
"^.	c #FCE11E",
"/.	c #8601AF",
"(.	c #8702AC",
"_.	c #8D069A",
":.	c #960D7F",
"<.	c #9C116C",
"[.	c #A62162",
"}.	c #DFADC1",
"|.	c #FDE9A6",
"1.	c #FBC815",
"2.	c #FCDE1C",
"3.	c #FDF029",
"4.	c #FEFC31",
"5.	c #FEFE33",
"6.	c #8601AE",
"7.	c #8802A9",
"8.	c #9C28AA",
"9.	c #EAD0EA",
"0.	c #FFFBD5",
"a.	c #FDF347",
"b.	c #FEFA30",
"c.	c #A542C4",
"d.	c #F3E5F7",
"e.	c #FFFFEA",
"f.	c #FEFE67",
"g.	c #AD52C9",
"h.	c #F8F1FB",
"i.	c #FFFFF3",
"j.	c #FEFE74",
"k.	c #B058CA",
"l.	c #FAF5FC",
"m.	c #FFFFF7",
"n.	c #FEFE79",
"o.	c #8201AE",
"p.	c #8B24B8",
"q.	c #E4CEEF",
"r.	c #FCFDD8",
"s.	c #F6FB4E",
"t.	c #FBFD33",
"u.	c #8401AF",
"v.	c #7701AD",
"w.	c #6301AA",
"x.	c #5401A7",
"y.	c #510DAA",
"z.	c #BBA5DF",
"A.	c #EFF8B4",
"B.	c #D9EE36",
"C.	c #DFF02E",
"D.	c #E8F42F",
"E.	c #F5FA32",
"F.	c #FCFD33",
"G.	c #6701AB",
"H.	c #5401A8",
"I.	c #4301A5",
"J.	c #3D01A4",
"K.	c #3F03A5",
"L.	c #754ABE",
"M.	c #F9F7FC",
"N.	c #FEFEF8",
"O.	c #DEF068",
"P.	c #D0EA2D",
"Q.	c #D0EA2B",
"R.	c #D4EB2C",
"S.	c #EAF530",
"T.	c #3F01A4",
"U.	c #5019AC",
"V.	c #CCBCE6",
"W.	c #FFFFFD",
"X.	c #F2F9C7",
"Y.	c #D5EC3F",
"Z.	c #D1EA2B",
"`.	c #7A51C0",
" +	c #E7DFF4",
".+	c #F9FCE4",
"++	c #DFF16D",
"@+	c #4910AA",
"#+	c #9D7ED1",
"$+	c #F3F0FA",
"%+	c #FCFDF2",
"&+	c #E7F494",
"*+	c #D3EB38",
"=+	c #4C1FB3",
"-+	c #9D9FEB",
";+	c #F0F3FE",
">+	c #F6FBF2",
",+	c #D3E9A3",
"'+	c #CDE840",
")+	c #3807AC",
"!+	c #2125D1",
"~+	c #1F54F8",
"{+	c #7FA2FE",
"]+	c #DFE8FF",
"^+	c #FDFEFF",
"/+	c #FEFEFD",
"(+	c #ECF5E5",
"_+	c #B1D797",
":+	c #7CBC45",
"<+	c #9BCD30",
"[+	c #C7E52C",
"}+	c #3A04A9",
"|+	c #2024D1",
"1+	c #0741F6",
"2+	c #0247FE",
"3+	c #1152FE",
"4+	c #5181FE",
"5+	c #BCCEFF",
"6+	c #F7F9FF",
"7+	c #FAFCF8",
"8+	c #D6EAC8",
"9+	c #96C972",
"0+	c #6FB53E",
"a+	c #66B032",
"b+	c #6FB531",
"c+	c #9BCD2F",
"d+	c #CBE72C",
"e+	c #3906AA",
"f+	c #0544F9",
"g+	c #0448FE",
"h+	c #1A59FE",
"i+	c #4B7CFE",
"j+	c #A5BFFE",
"k+	c #CFE6F9",
"l+	c #E6F4FA",
"m+	c #F1F9FC",
"n+	c #F5FBFD",
"o+	c #D4ECED",
"p+	c #C7E2B9",
"q+	c #92C76D",
"r+	c #75B845",
"s+	c #67B134",
"t+	c #6BB332",
"u+	c #C9E62B",
"v+	c #0642F8",
"w+	c #0449FE",
"x+	c #0E5AF8",
"y+	c #2594DD",
"z+	c #44ADDB",
"A+	c #54B4DE",
"B+	c #59B7DF",
"C+	c #35A5BC",
"D+	c #5FAF52",
"E+	c #6DB432",
"F+	c #3807AB",
"G+	c #025FEE",
"H+	c #038DD1",
"I+	c #0391CE",
"J+	c #0993C5",
"K+	c #45A665",
"L+	c #0741F7",
"M+	c #026EE5",
"N+	c #0491CD",
"O+	c #33A083",
"P+	c #6FB532",
"Q+	c #0382D8",
"R+	c #1798AE",
"S+	c #66B033",
"T+	c #024DFA",
"U+	c #038FD0",
"V+	c #0692C9",
"W+	c #5EAD3F",
"X+	c #46A664",
"Y+	c #0249FD",
"Z+	c #0372E3",
"`+	c #2D9E8B",
" @	c #64AF35",
"                                                                                          ",
"                                                                                          ",
"                                    . . . . . . . . .                                     ",
"                            + + @ # . . . . . . . . . $ % & &                             ",
"                        + + + + + * . . . . . . . . . = & & & & &                         ",
"                    + + + + + + + - ; . . . . . . . > , & & & & & & &                     ",
"                  + + + + + + + + + ' . . . . . . . ) & & & & & & & & &                   ",
"                ! + + + + + + + + + ~ . . . . . . . { & & & & & & & & & ]                 ",
"              ^ / + + + + + + + + + ( _ . . . . . : < & & & & & & & & & [ }               ",
"            | | | / 1 + + + + + + 2 3 4 5 6 7 6 8 9 0 a & & & & & & b [ c c c             ",
"          | | | | d / e + + + 2 f g h i j k l k j m n o p a & & & b [ q c c c c           ",
"          | | | | | r / ! + s t u v w w w w w w w w w x y z A & ] [ q c c c c c           ",
"        | | | | | | | ^ B C D E F w w w w w w w w w w w G H I J K } c c c c c c c         ",
"        | | | | | | | | L M N w w w w w w w w w w w w w w w O P Q c c c c c c c c         ",
"      | | | | | | | | R S T w w w w w w w w w w w w w w w w w U V W c c c c c c c c       ",
"      | | | | | | | X Y Z w w w w w w w w w w w w w w w w w w w `  ...c c c c c c c       ",
"      +.| | | | | | @.#.$.w w w w w w w w w w w w w w w w w w w G %.&.c c c c c c *.      ",
"      =.-.;.| | | >.,.'.w w w w w w w w w w w w w w w w w w w w w ).!.~.c c c {.].^.      ",
"    /././.(._.:.<.[.}.w w w w w w w w w w w w w w w w w w w w w w w |.1.].2.3.4.5.5.5.    ",
"    /././././.6.7.8.9.w w w w w w w w w w w w w w w w w w w w w w w 0.a.b.5.5.5.5.5.5.    ",
"    /././././././.c.d.w w w w w w w w w w w w w w w w w w w w w w w e.f.5.5.5.5.5.5.5.    ",
"    /././././././.g.h.w w w w w w w w w w w w w w w w w w w w w w w i.j.5.5.5.5.5.5.5.    ",
"    /././././././.k.l.w w w w w w w w w w w w w w w w w w w w w w w m.n.5.5.5.5.5.5.5.    ",
"    /././././././.g.h.w w w w w w w w w w w w w w w w w w w w w w w i.j.5.5.5.5.5.5.5.    ",
"    /././././././.c.d.w w w w w w w w w w w w w w w w w w w w w w w e.f.5.5.5.5.5.5.5.    ",
"    /./././././.o.p.q.w w w w w w w w w w w w w w w w w w w w w w w r.s.t.5.5.5.5.5.5.    ",
"    /././.u.v.w.x.y.z.w w w w w w w w w w w w w w w w w w w w w w w A.B.C.D.E.F.5.5.5.    ",
"      G.H.I.J.J.J.K.L.M.w w w w w w w w w w w w w w w w w w w w w N.O.P.Q.Q.Q.R.C.S.      ",
"      T.J.J.J.J.J.J.U.V.$.w w w w w w w w w w w w w w w w w w w W.X.Y.Q.Q.Q.Q.Q.Q.Z.      ",
"      J.J.J.J.J.J.J.K.`. +w w w w w w w w w w w w w w w w w w w .+++P.Q.Q.Q.Q.Q.Q.Q.      ",
"      J.J.J.J.J.J.J.J.@+#+$+w w w w w w w w w w w w w w w w w %+&+*+Q.Q.Q.Q.Q.Q.Q.Q.      ",
"        J.J.J.J.J.J.J.J.=+-+;+w w w w w w w w w w w w w w w >+,+'+Q.Q.Q.Q.Q.Q.Q.Q.        ",
"        J.J.J.J.J.J.J.)+!+~+{+]+^+w w w w w w w w w w w /+(+_+:+<+[+Q.Q.Q.Q.Q.Q.Q.        ",
"          J.J.J.J.J.}+|+1+2+3+4+5+6+w w w w w w w w w 7+8+9+0+a+b+c+d+Q.Q.Q.Q.Q.          ",
"          J.J.J.J.e+|+f+2+2+2+g+h+i+j+k+l+m+n+m+l+o+p+q+r+s+a+a+a+t+c+u+Q.Q.Q.Q.          ",
"            J.J.J.|+v+2+2+2+2+2+2+w+x+y+z+A+B+A+z+C+D+s+a+a+a+a+a+a+E+c+Q.Q.Q.            ",
"              F+|+2+2+2+2+2+2+2+2+2+G+H+I+I+I+I+I+J+K+a+a+a+a+a+a+a+a+a+c+[+              ",
"                L+2+2+2+2+2+2+2+2+2+M+I+I+I+I+I+I+N+O+a+a+a+a+a+a+a+a+a+P+                ",
"                  2+2+2+2+2+2+2+2+2+Q+I+I+I+I+I+I+I+R+S+a+a+a+a+a+a+a+a+                  ",
"                    2+2+2+2+2+2+2+T+U+I+I+I+I+I+I+I+V+W+a+a+a+a+a+a+a+                    ",
"                        2+2+2+2+2+G+I+I+I+I+I+I+I+I+I+X+a+a+a+a+a+                        ",
"                            2+2+Y+Z+I+I+I+I+I+I+I+I+I+`+ @a+a+                            ",
"                                    I+I+I+I+I+I+I+I+I+                                    ",
"                                                                                          ",
"                                                                                          "};
