/* XPM */
static const char * colour_xpm[] = {
"16 16 23 1",
" 	c #FE0000",
".	c #FD0000",
"+	c #7D0000",
"@	c #FFFF00",
"#	c #FFFE00",
"$	c #FF0000",
"%	c #830000",
"&	c #FFFF01",
"*	c #FFFF04",
"=	c #FFFF03",
"-	c #FFFF02",
";	c #007D00",
">	c #0C4A00",
",	c #000058",
"'	c #000054",
")	c #000053",
"!	c #00FF01",
"~	c #00FF00",
"{	c #0F8A00",
"]	c #0000B3",
"^	c #0000A7",
"/	c #0000A8",
"(	c #00FD01",
"      .+@@@@@@@@",
"      .+@@@@@@@@",
"      .+@@@@@@@@",
"      .+@@@@@@@@",
"      .+@@@@@@@@",
"      .+@@@@@@@@",
"      .+@#@@#@@@",
"$$$$$$$%&@*===*-",
";;;;;;;>,'))))))",
"!!!!!!~{]^//////",
"!!!!!!~{]^//////",
"!!!!!!~{]^//////",
"!!!!!!~{]^//////",
"!!!!!!~{]^//////",
"!!!!!!~{]^//////",
"(!!!!!~{]^//////"};
