/* XPM */
static const char * composedSelect_xpm[] = {
"16 16 128 2",
"  	c None",
". 	c #140CFF",
"+ 	c #823F16",
"@ 	c #25170F",
"# 	c #192519",
"$ 	c #48A348",
"% 	c #429542",
"& 	c #439843",
"* 	c #8C4617",
"= 	c #FF8025",
"- 	c #CB5E1C",
"; 	c #A44F18",
"> 	c #3C783C",
", 	c #49AC49",
"' 	c #6DFF6D",
") 	c #6CFF6C",
"! 	c #5FE15F",
"~ 	c #5C3318",
"{ 	c #FF7B23",
"] 	c #FC7522",
"^ 	c #CD601C",
"/ 	c #FF7723",
"( 	c #F57220",
"_ 	c #723613",
": 	c #418E43",
"< 	c #5BD25B",
"[ 	c #4DAA4D",
"} 	c #50AF50",
"| 	c #4FAE4F",
"1 	c #387B38",
"2 	c #F47220",
"3 	c #FD7522",
"4 	c #B25318",
"5 	c #FE7823",
"6 	c #FF7722",
"7 	c #FE7623",
"8 	c #FF8023",
"9 	c #4E9544",
"0 	c #5ACF5A",
"a 	c #67F667",
"b 	c #6AFF6A",
"c 	c #4BAF4B",
"d 	c #9A4C1A",
"e 	c #FF7823",
"f 	c #B65519",
"g 	c #FE7622",
"h 	c #FF7F23",
"i 	c #509946",
"j 	c #5CD25B",
"k 	c #67F567",
"l 	c #6BFF6B",
"m 	c #F77320",
"n 	c #AF5218",
"o 	c #FF7822",
"p 	c #D25C1F",
"q 	c #C37F0E",
"r 	c #93A416",
"s 	c #729D24",
"t 	c #4ED25F",
"u 	c #A14D1B",
"v 	c #DA671E",
"w 	c #D6661E",
"x 	c #FE7522",
"y 	c #C36D14",
"z 	c #DFDC00",
"A 	c #FFF800",
"B 	c #FEF100",
"C 	c #FFF900",
"D 	c #E9D400",
"E 	c #5EB23E",
"F 	c #6FFF6D",
"G 	c #AB511A",
"H 	c #D5641E",
"I 	c #BF5A1B",
"J 	c #CB5D1D",
"K 	c #E9E500",
"L 	c #FFF200",
"M 	c #F8E600",
"N 	c #58D057",
"O 	c #6AFE6A",
"P 	c #663313",
"Q 	c #E66B1F",
"R 	c #FF7923",
"S 	c #C49A09",
"T 	c #CFC500",
"U 	c #C8BD00",
"V 	c #CBC000",
"W 	c #CABF00",
"X 	c #C9BF00",
"Y 	c #C8BE00",
"Z 	c #CBC100",
"` 	c #8DB926",
" .	c #B9581B",
"..	c #776104",
"+.	c #FBF100",
"@.	c #FFF600",
"#.	c #FFF700",
"$.	c #FFF500",
"%.	c #5F6608",
"&.	c #72FF72",
"*.	c #756805",
"=.	c #ADA500",
"-.	c #CBC300",
";.	c #E7DB00",
">.	c #E9DD00",
",.	c #CFC600",
"'.	c #B0AA00",
").	c #678218",
"!.	c #6FFF6F",
"~.	c #373300",
"{.	c #FFFF00",
"].	c #FBEE00",
"^.	c #EADE00",
"/.	c #F8EB00",
"(.	c #63BE42",
"_.	c #4AAF4A",
":.	c #979000",
"<.	c #FFF100",
"[.	c #FFFD00",
"}.	c #707C0A",
"|.	c #4DBD53",
"1.	c #4FBA4F",
"2.	c #388238",
"3.	c #797200",
"4.	c #928E00",
"5.	c #C1BA00",
"6.	c #948E00",
"7.	c #7B7500",
". . . . . . . . . . . . . . . . ",
". . . . + @ . . . # $ % % & . . ",
". . . * = - ; . . > , ' ) ) ! . ",
". . ~ { ] ^ / ( _ : < [ } } | 1 ",
". . 2 3 4 5 6 7 8 9 0 a b b b c ",
". d / e f g / g h i j k l l b c ",
". m 6 n o / e p q r s t l l b c ",
"u e v w x e y z A B C D E F b c ",
"G H I 6 g J K B L L L B M N O c ",
". P Q 6 R S T U V W X Y Z ` ' c ",
". . .  .e ..+.@.@.@.#.@.$.%.&.c ",
". . . . . *.=.-.;.>.>.,.'.).!.c ",
". . . . . ~.{.].^.>.^./.{.(.O _.",
". . . . . . :.{.B <.B [.}.|.1.2.",
". . . . . . . 3.4.5.6.7.. . . . ",
". . . . . . . . . . . . . . . . "};
