/* XPM */
static char * ComposedTCP_xpm[] = {
"36 28 147 2",
"  	c #FFFFFF",
". 	c #C2DDFB",
"+ 	c #A3CDFC",
"@ 	c #EDF3F8",
"# 	c #91C4FB",
"$ 	c #D5E8FC",
"% 	c #6899C9",
"& 	c #FFFFFE",
"* 	c #E4E6E7",
"= 	c #055BAF",
"- 	c #E0EEFB",
"; 	c #97A3AF",
"> 	c #015FBC",
", 	c #93C4F4",
"' 	c #49647F",
") 	c #0161C0",
"! 	c #4599ED",
"~ 	c #FBFCFC",
"{ 	c #123B65",
"] 	c #0162C0",
"^ 	c #107DE8",
"/ 	c #FAFCFE",
"( 	c #DEE6ED",
"_ 	c #0653A1",
": 	c #D9EAFA",
"< 	c #FEFEFF",
"[ 	c #0753A0",
"} 	c #F8FBFD",
"| 	c #0854A1",
"1 	c #0955A1",
"2 	c #F8FAFC",
"3 	c #0D58A3",
"4 	c #FBFCFD",
"5 	c #FBFCFE",
"6 	c #0D58A2",
"7 	c #125CA5",
"8 	c #125BA5",
"9 	c #125191",
"0 	c #F5F8F5",
"a 	c #87D983",
"b 	c #2A662D",
"c 	c #C47777",
"d 	c #F8F0F0",
"e 	c #FDFEFD",
"f 	c #A9DEA7",
"g 	c #2AD722",
"h 	c #65E55F",
"i 	c #D8E1D1",
"j 	c #AB6C6C",
"k 	c #921C1C",
"l 	c #D49A9A",
"m 	c #FEFBFB",
"n 	c #CAE6C9",
"o 	c #42D63B",
"p 	c #42E13A",
"q 	c #C9EEC8",
"r 	c #E2D3D2",
"s 	c #9A4545",
"t 	c #A03131",
"u 	c #E3BEBD",
"v 	c #E4F0E3",
"w 	c #64D75F",
"x 	c #29DD20",
"y 	c #A6E9A3",
"z 	c #FEFEFE",
"A 	c #CEB0B0",
"B 	c #8D2626",
"C 	c #B35252",
"D 	c #EFDCDC",
"E 	c #FEF9F9",
"F 	c #F6FEF6",
"G 	c #FAFEFA",
"H 	c #FBFFFB",
"I 	c #F5F8F4",
"J 	c #86D982",
"K 	c #1FDA16",
"L 	c #82E77D",
"M 	c #F4F9F3",
"N 	c #FAF8F7",
"O 	c #B98A8A",
"P 	c #8A1616",
"Q 	c #C47575",
"R 	c #F8EFEF",
"S 	c #FCBEBE",
"T 	c #FBA7A7",
"U 	c #C3FCBF",
"V 	c #AFFCA9",
"W 	c #F9FFF8",
"X 	c #FCFCFC",
"Y 	c #FBFCFB",
"Z 	c #FDFDFD",
"` 	c #A8DDA6",
" .	c #29D621",
"..	c #5CE455",
"+.	c #DFF3DE",
"@.	c #EEE6E6",
"#.	c #A66262",
"$.	c #911B1B",
"%.	c #D49999",
"&.	c #FDFBFB",
"*.	c #FCBFBE",
"=.	c #FBB6B6",
"-.	c #98FB91",
";.	c #FAFAFA",
">.	c #4E8E4D",
",.	c #37CE32",
"'.	c #43D63C",
").	c #3AE132",
"!.	c #C1ECBF",
"~.	c #DECBCB",
"{.	c #943C3C",
"].	c #833131",
"^.	c #C37978",
"/.	c #D12F2F",
"(.	c #F8E3E3",
"_.	c #E8FDE6",
":.	c #ECFEEB",
"<.	c #5EA85D",
"[.	c #13D70A",
"}.	c #20F314",
"|.	c #6CE866",
"1.	c #FCFDFC",
"2.	c #BB9C9B",
"3.	c #9E0101",
"4.	c #B80101",
"5.	c #CF2C2D",
"6.	c #FAECEB",
"7.	c #75C872",
"8.	c #16E20C",
"9.	c #12D00A",
"0.	c #2DB828",
"a.	c #AEDDAC",
"b.	c #F0E6E6",
"c.	c #771E1E",
"d.	c #800202",
"e.	c #A40101",
"f.	c #CE3838",
"g.	c #FCF3F2",
"h.	c #C3EBC1",
"i.	c #86E381",
"j.	c #B7DFB6",
"k.	c #EBF2EB",
"l.	c #EAE2E2",
"m.	c #C6AAA9",
"n.	c #B97372",
"o.	c #D17F7F",
"p.	c #FEFCFC",
"                          . +       @                                   ",
"                          # $       %                                   ",
"                          &       * = -                                 ",
"                                  ; > ,                                 ",
"                                  ' ) !                                 ",
"                                ~ { ] ^ /                               ",
"                                  ( _ :                                 ",
"                                  < [ }                                 ",
"                                  < | }                                 ",
"                                  < 1 2                                 ",
"                                  < 3 4                                 ",
"                                  < 3 5                                 ",
"                                  < 3 5                                 ",
"                                  < 3 5                                 ",
"                                  < 6 5                                 ",
"                                    7 5                                 ",
"                                    8 5                                 ",
"                                    9 5                                 ",
"                                0 a b c d                               ",
"                            e f g h i j k l m                           ",
"                          n o p q       r s t u &                       ",
"                      v w x y e           z A B C D                 E E ",
"F G H             I J K L M                   N O P Q R             S T ",
"U V W     X Y Z `  ...+.                          @.#.$.%.&.        *.=.",
"H -.    ;.>.,.'.).!.&                                 ~.{.].^./.(.      ",
"_.:.  Z <.[.}.|.1.                                      z 2.3.4.5.6.    ",
"    z 7.8.9.0.a.                                          b.c.d.e.f.g.  ",
"    h.i.j.k.                                                z l.m.n.o.p."};
