/* XPM */
static char * createworld_xpm[] = {
"32 32 246 2",
"  	c None",
". 	c #FDFEFD",
"+ 	c #F6FCF8",
"@ 	c #F2F9F3",
"# 	c #EEF9F0",
"$ 	c #FFFFFF",
"% 	c #C9EFCC",
"& 	c #99E19F",
"* 	c #6DD476",
"= 	c #51C55E",
"- 	c #45C151",
"; 	c #69CF75",
"> 	c #EBF8EC",
", 	c #A7E5AE",
"' 	c #59C966",
") 	c #2EB337",
"! 	c #1C9A24",
"~ 	c #249629",
"{ 	c #33A13C",
"] 	c #33983A",
"^ 	c #22A72C",
"/ 	c #55C661",
"( 	c #ACE6B4",
"_ 	c #C6EAC8",
": 	c #59C565",
"< 	c #1CA327",
"[ 	c #1B8525",
"} 	c #399846",
"| 	c #5BB46C",
"1 	c #6CC07B",
"2 	c #78C786",
"3 	c #76C585",
"4 	c #5CB466",
"5 	c #46A44A",
"6 	c #68C767",
"7 	c #CEEBD1",
"8 	c #A4D9AB",
"9 	c #34A840",
"0 	c #128818",
"a 	c #358837",
"b 	c #54AD63",
"c 	c #68BC75",
"d 	c #69C376",
"e 	c #61B96E",
"f 	c #2B9435",
"g 	c #3EAA49",
"h 	c #B6E0BC",
"i 	c #94D59C",
"j 	c #0B7913",
"k 	c #45A657",
"l 	c #2C9640",
"m 	c #A7DDB1",
"n 	c #A4D4A9",
"o 	c #06730B",
"p 	c #4FAD61",
"q 	c #7FD083",
"r 	c #8DD995",
"s 	c #65B26F",
"t 	c #3EA352",
"u 	c #3CA04D",
"v 	c #278B32",
"w 	c #0C6A10",
"x 	c #A8DCB3",
"y 	c #CCE4CD",
"z 	c #80C482",
"A 	c #8EE28A",
"B 	c #96F78A",
"C 	c #96FD88",
"D 	c #91E88A",
"E 	c #56985B",
"F 	c #479952",
"G 	c #147919",
"H 	c #38A247",
"I 	c #63AA66",
"J 	c #67D072",
"K 	c #619F65",
"L 	c #82D87A",
"M 	c #8AFD7B",
"N 	c #91F780",
"O 	c #6AB26A",
"P 	c #3C8543",
"Q 	c #5EBD66",
"R 	c #459C4A",
"S 	c #0A8313",
"T 	c #B5D9B8",
"U 	c #24892A",
"V 	c #82F677",
"W 	c #83E77D",
"X 	c #77C778",
"Y 	c #7BE674",
"Z 	c #57A755",
"` 	c #59B559",
" .	c #8ADB88",
"..	c #6DCC79",
"+.	c #7BF271",
"@.	c #C1E2C5",
"#.	c #4FB959",
"$.	c #428744",
"%.	c #216F2A",
"&.	c #337D3A",
"*.	c #67C073",
"=.	c #82F778",
"-.	c #74F766",
";.	c #5CC159",
">.	c #78BE81",
",.	c #DCEDDC",
"'.	c #4CB24D",
").	c #69D665",
"!.	c #65BD61",
"~.	c #1B7522",
"{.	c #6DF860",
"].	c #67FD59",
"^.	c #E1F5E3",
"/.	c #74EE65",
"(.	c #6CE95E",
"_.	c #72E868",
":.	c #09630B",
"<.	c #8CCA91",
"[.	c #61E95B",
"}.	c #5EFB51",
"|.	c #45B241",
"1.	c #126517",
"2.	c #2CA636",
"3.	c #36AC3A",
"4.	c #39AD3A",
"5.	c #7DDD77",
"6.	c #6DEB63",
"7.	c #72E06A",
"8.	c #257825",
"9.	c #5AE350",
"0.	c #55F949",
"a.	c #2BA12E",
"b.	c #3DB343",
"c.	c #45BB44",
"d.	c #4BB949",
"e.	c #58C551",
"f.	c #53CA4B",
"g.	c #72CA80",
"h.	c #5CD353",
"i.	c #4CCB3C",
"j.	c #23951D",
"k.	c #3EB839",
"l.	c #53E44A",
"m.	c #5FCF5A",
"n.	c #63E759",
"o.	c #4FF540",
"p.	c #49B642",
"q.	c #3BB335",
"r.	c #44C13C",
"s.	c #4BC73F",
"t.	c #52CE44",
"u.	c #46E83A",
"v.	c #46F339",
"w.	c #3FF132",
"x.	c #57D648",
"y.	c #5ECE56",
"z.	c #4CD343",
"A.	c #0E9417",
"B.	c #31AD2A",
"C.	c #34E727",
"D.	c #3FE532",
"E.	c #3AAD35",
"F.	c #42AD3E",
"G.	c #7BCC85",
"H.	c #41DA37",
"I.	c #42CC39",
"J.	c #42BA35",
"K.	c #66E54D",
"L.	c #61D94F",
"M.	c #32DA29",
"N.	c #2DE220",
"O.	c #179117",
"P.	c #9DDBA3",
"Q.	c #D2F1D7",
"R.	c #33A336",
"S.	c #71EB58",
"T.	c #75F15C",
"U.	c #26AC22",
"V.	c #35B72C",
"W.	c #65CD73",
"X.	c #2ADA24",
"Y.	c #84F767",
"Z.	c #3CD834",
"`.	c #26D51F",
" +	c #26A721",
".+	c #60D550",
"++	c #43BC3C",
"@+	c #48B940",
"#+	c #31C82E",
"$+	c #20CD1B",
"%+	c #3EBF31",
"&+	c #85F96C",
"*+	c #9BFE7D",
"=+	c #A3FE83",
"-+	c #8BF270",
";+	c #4DC349",
">+	c #55CD65",
",+	c #4EC84B",
"'+	c #49C342",
")+	c #29CA25",
"!+	c #92FB76",
"~+	c #AAFF89",
"{+	c #B9FD9C",
"]+	c #A5F88E",
"^+	c #2BBA2A",
"/+	c #2BAB29",
"(+	c #62DA52",
"_+	c #58CC4F",
":+	c #34BA43",
"<+	c #DAF3DB",
"[+	c #33AA34",
"}+	c #57CC50",
"|+	c #2CB32B",
"1+	c #2BAB23",
"2+	c #9EFD81",
"3+	c #B4FE93",
"4+	c #C0FEA4",
"5+	c #AEFA9A",
"6+	c #25AC1D",
"7+	c #70E55D",
"8+	c #68DD58",
"9+	c #7CDC89",
"0+	c #3BB63B",
"a+	c #56C452",
"b+	c #2BA323",
"c+	c #8DFC73",
"d+	c #81E56C",
"e+	c #6DE35B",
"f+	c #22AB2A",
"g+	c #6AD17A",
"h+	c #34B63A",
"i+	c #79EC64",
"j+	c #94FC79",
"k+	c #89F96F",
"l+	c #84F46C",
"m+	c #DDF1E1",
"n+	c #3CBC41",
"o+	c #4CCC42",
"p+	c #32B933",
"q+	c #4AB455",
"r+	c #34B233",
"s+	c #E6F4E8",
"t+	c #C1DFC2",
"u+	c #A9D5AD",
"v+	c #9BCC9F",
"w+	c #9DCEA1",
". . . . . . . . . . . . . + @ # # @ + . . . . . . . . . . . . . ",
"$ $ $ $ $ $ $ $ $ . # % & * = - - = ; & % # . $ $ $ $ $ $ $ $ . ",
". $ $ $ $ $ $ $ > , ' ) ! ~ { { { ] ~ ! ^ / ( # . $ $ $ $ $ $ $ ",
"$ $ $ $ $ $ . _ : < [ } | 1 2 2 2 3 1 4 5 [ ! 6 7 . $ $ $ $ $ . ",
". $ $ $ $ + 8 9 0 a b c d 1 1 1 1 1 c c e b f 0 g h + $ $ $ $ $ ",
"$ $ $ $ + i ~ j ] b | | | | e | e | | | b b k l j ] m + $ $ $ . ",
". $ $ . n [ o f k p b c q r s b b p p p k k t u v w { x . $ $ $ ",
"$ $ . y f o [ u e z A B C D E F k k k t k k } } l G o H 7 $ $ . ",
". $ @ I o j } J A K L M N O P } u | Q k F I R t t v o S c @ $ $ ",
"$ . T G o U J V W I X Y Z K F } ` A D  ...W +.+.Y R G o U @.. . ",
". + I o G #.+.6 Z $.$.$.%.&.&.$.*.X X =.+.-.-.-.-.-.;.G j >.+ . ",
". ,.v o '.-.-.Z ).!.~.~.U f F O !.Y -.-.-.-.{.{.].{.-.` w R ^.. ",
". T j j ] /.].-.(.'.~.f { { ] ` +.V -._.-.{.].].].].{.a :.v h $ ",
". <.o G [ [.}.].|.1.[ 2.3.4.'.6 5 X 5.6 6.7./.}.}.}.6.8.w 0 i . ",
". X o [ [ 9.0.9.~.G a.3.b.c.d.6 e.] !.).}.6.}.0.0.}.f.1.G G g.. ",
". d S [ [ h.i.U :.j.3.k.c.f.h.0.0.l.l.m.n.h.l.o.o.o.p.1.~.S *.+ ",
". g.S v [ } Z 8.G j.q.r.s.t.u.v.w.w.w.x.y.f.8.z.z.l.U ~.U S d + ",
". r A.U v [ 5 $.j.B.r.i.x.t.u.C.C.C.C.D.e.E.j F.U ` %.[ ~ S G.. ",
". ( ! v f a.[ E.H.I.J.x.K.L.z.M.M.N.N.N.H.O.O.j.G Z a ] U A.P.. ",
". Q.b.~ R.R.a.E.D.M.I.x.S.T.i.U.r.D.N.N.V.O.q.J.R.Z a a G ^ _ . ",
". @ W.~ { R.4.|.z.X.M.z.L.Y.Y.S.L.Z.`.M. +V..+t.++] |.a G - > . ",
"$ . , 2.2.4.c.@+++#+$+#+%+&+*+=+-+H.$+#+@+J.L.L.f.;+t.8.A.r . . ",
". $ ^.>+a.4.d.,+'+#+)+U.i.!+~+{+]+x.)+^+/+B.L.(+_+F.U G :+<+$ . ",
"$ $ . ( :+[+c.}+}+I.|+1+S.2+3+4+5+).#+6+V.t.7+8+y.4.j.< & + $ . ",
". $ $ # 9+) 0+f.y.a+b+x.c+=+3+4+{+d+%+t.T.Y./.e+h.k.f+J > $ $ $ ",
"$ $ $ $ ^.g+h+'+h.@+J.i+j+2+~+3+3+=+&+k+c+l+i+8+s.|+/ <+$ $ $ . ",
". $ $ $ . m+..n+o+.+e+k+j+*+=+=+~+=+2+j+c+l+7+t.p+: Q.$ $ $ $ $ ",
"$ $ $ $ $ $ ^.G.n+o+e+l+c+*+2+=+=+2+*+j+&+6.o+h+g.m+. $ $ $ $ . ",
". $ $ $ $ $ $ # 8 q+r+t.(.l+!+j+j+!+l+7+z.h+#.m @ $ $ $ $ $ $ $ ",
"$ $ $ $ $ $ $ . . s+n 4 H [+q.k.k.0+r+g e x s+. $ $ $ $ $ $ $ . ",
". $ $ $ $ $ $ $ $ $ $ + ,.t+u+v+w+u+@.m++ $ $ $ $ $ $ $ $ $ $ $ ",
"$ $ . $ $ . $ $ $ . $ $ $ . . . . . $ . . $ . $ $ . $ $ $ $ $ . "};
