/* XPM */
static char * createworld_xpm[] = {
"33 33 719 2",
"  	c None",
". 	c #0B77B9",
"+ 	c #0978BE",
"@ 	c #0878C2",
"# 	c #0678C4",
"$ 	c #0677C5",
"% 	c #0777C5",
"& 	c #0778C4",
"* 	c #0979C3",
"= 	c #0B78BE",
"- 	c #0C76B9",
"; 	c #2A8CB4",
"> 	c #419BAA",
", 	c #5DAEA5",
"' 	c #6CB6A1",
") 	c #72B99E",
"! 	c #73B99F",
"~ 	c #73BA9E",
"{ 	c #74BA9E",
"] 	c #6CB6A4",
"^ 	c #5BAAAC",
"/ 	c #3C97B6",
"( 	c #1E86C2",
"_ 	c #3191B3",
": 	c #48A0AD",
"< 	c #71B9A3",
"[ 	c #A0D49A",
"} 	c #C9EF91",
"| 	c #E5FC81",
"1 	c #EAFD6F",
"2 	c #E4FC61",
"3 	c #D5FA67",
"4 	c #C9F571",
"5 	c #BDEE79",
"6 	c #AFE371",
"7 	c #8ECD8E",
"8 	c #66B3A9",
"9 	c #419AB5",
"0 	c #298ABA",
"a 	c #3796CD",
"b 	c #5EAECB",
"c 	c #B0E0B1",
"d 	c #E6FB97",
"e 	c #EFFE96",
"f 	c #E3FBA1",
"g 	c #D2F3AF",
"h 	c #C3EDA5",
"i 	c #B6E88D",
"j 	c #9BDC96",
"k 	c #83CFA8",
"l 	c #74C99F",
"m 	c #9BE04A",
"n 	c #BDF13C",
"o 	c #C3F059",
"p 	c #9AD489",
"q 	c #55A8B4",
"r 	c #2F90C4",
"s 	c #1C81B5",
"t 	c #3492C3",
"u 	c #79BEE1",
"v 	c #C0E7E8",
"w 	c #E2F9D1",
"x 	c #E8FCB3",
"y 	c #DCF7AB",
"z 	c #C8EDC9",
"A 	c #B3E1F2",
"B 	c #A6DAFD",
"C 	c #9DD5FE",
"D 	c #90D0FE",
"E 	c #86CBFD",
"F 	c #65BDF2",
"G 	c #62C297",
"H 	c #7ED430",
"I 	c #9DE415",
"J 	c #B4EB3A",
"K 	c #A5DE79",
"L 	c #69B5AF",
"M 	c #2C8BC0",
"N 	c #177CBA",
"O 	c #3291C1",
"P 	c #7FC3E5",
"Q 	c #C7EBF7",
"R 	c #DDF6E0",
"S 	c #E1F9B4",
"T 	c #DCF99E",
"U 	c #C9EEC7",
"V 	c #B2E1F5",
"W 	c #A9DDFD",
"X 	c #A0DAFA",
"Y 	c #96D4FB",
"Z 	c #8CD0F2",
"` 	c #8FD3C4",
" .	c #7FCBD2",
"..	c #61BDE6",
"+.	c #5ABDA4",
"@.	c #6FCA57",
"#.	c #82D525",
"$.	c #9BE120",
"%.	c #A5E05B",
"&.	c #74BCA2",
"*.	c #2E8DB8",
"=.	c #3695C7",
"-.	c #72BBE1",
";.	c #C0E8FC",
">.	c #D3EEFF",
",.	c #CCECFC",
"'.	c #CDEFD8",
").	c #CFF3B1",
"!.	c #C3ECC2",
"~.	c #AFE1EB",
"{.	c #A3DBFC",
"].	c #99D6FD",
"^.	c #8FD1FA",
"/.	c #9BDBA6",
"(.	c #ADE743",
"_.	c #9CE057",
":.	c #7ACC9B",
"<.	c #4EB5D2",
"[.	c #48B3BD",
"}.	c #5ABE7B",
"|.	c #7ED225",
"1.	c #9AE013",
"2.	c #9CDB5F",
"3.	c #68B5A6",
"4.	c #2F90BB",
"5.	c #2B8BBC",
"6.	c #54A9D5",
"7.	c #AADEF8",
"8.	c #CAECFD",
"9.	c #CCECFD",
"0.	c #C5E9F8",
"a.	c #C5ECD6",
"b.	c #CBF39D",
"c.	c #C9F386",
"d.	c #B7E8B3",
"e.	c #A4DDDD",
"f.	c #9FDCC5",
"g.	c #94D7C5",
"h.	c #AEE940",
"i.	c #9DE15B",
"j.	c #A1E429",
"k.	c #97E026",
"l.	c #6AC680",
"m.	c #54BAA1",
"n.	c #46B2B5",
"o.	c #5ABD7E",
"p.	c #75CD3C",
"q.	c #78CC50",
"r.	c #84CC82",
"s.	c #4DA5AD",
"t.	c #2285B7",
"u.	c #3B96C5",
"v.	c #87CAED",
"w.	c #B6E5FC",
"x.	c #CBECFD",
"y.	c #C4E9FC",
"z.	c #C3EAE8",
"A.	c #C8F1B1",
"B.	c #CCF676",
"C.	c #CAF75A",
"D.	c #BFF06C",
"E.	c #B1E985",
"F.	c #B1EA5C",
"G.	c #A6E564",
"H.	c #AAE92A",
"I.	c #8BD779",
"J.	c #87D65D",
"K.	c #97E20D",
"L.	c #76CE54",
"M.	c #4FB7B0",
"N.	c #37A9E2",
"O.	c #32A6DD",
"P.	c #42B0A1",
"Q.	c #65C44A",
"R.	c #88D53A",
"S.	c #81C87B",
"T.	c #3592B1",
"U.	c #2986B6",
"V.	c #4EA8D6",
"W.	c #9AD9FA",
"X.	c #BAE5FB",
"Y.	c #C3E8FC",
"Z.	c #BCE6FC",
"`.	c #BCE8EC",
" +	c #BDEBD2",
".+	c #C0F09C",
"++	c #C3F45B",
"@+	c #BEF345",
"#+	c #B8F03E",
"$+	c #B3EE2D",
"%+	c #ACEA2B",
"&+	c #A0E430",
"*+	c #91DD42",
"=+	c #83D654",
"-+	c #79D05F",
";+	c #6BC873",
">+	c #46B2CD",
",+	c #33A7EE",
"'+	c #2DA3EA",
")+	c #2BA3DC",
"!+	c #4BB584",
"~+	c #7ACF26",
"{+	c #9CDD34",
"]+	c #4FA69D",
"^+	c #348FBC",
"/+	c #62B8E3",
"(+	c #91D6F9",
"_+	c #BFE6FA",
":+	c #BAE4FB",
"<+	c #B4E3FC",
"[+	c #B2E3FB",
"}+	c #ADE2F8",
"|+	c #B2E8BB",
"1+	c #BDF256",
"2+	c #BAF236",
"3+	c #B4EF2C",
"4+	c #AFED1E",
"5+	c #A4E81F",
"6+	c #7BD092",
"7+	c #8ADB41",
"8+	c #8FDE24",
"9+	c #62C1A0",
"0+	c #51B8C5",
"a+	c #3FAEE5",
"b+	c #36A9EA",
"c+	c #30A6E3",
"d+	c #28A1E5",
"e+	c #29A1D0",
"f+	c #4EB673",
"g+	c #89D620",
"h+	c #6EBC76",
"i+	c #3490AB",
"j+	c #3F9BC8",
"k+	c #74C6EF",
"l+	c #8AD2F7",
"m+	c #BAE4FA",
"n+	c #B0E0FA",
"o+	c #ACE0FB",
"p+	c #A9DFFD",
"q+	c #A2DCFF",
"r+	c #AAE4B3",
"s+	c #B9F13E",
"t+	c #B6F027",
"u+	c #AEED21",
"v+	c #A9EC11",
"w+	c #9DE61A",
"x+	c #6DC9A7",
"y+	c #89DA3B",
"z+	c #92E012",
"A+	c #7DD24E",
"B+	c #5CBFA1",
"C+	c #41AFDC",
"D+	c #35A9E7",
"E+	c #30A6E1",
"F+	c #29A1E1",
"G+	c #1F9CE3",
"H+	c #28A1C0",
"I+	c #6DC83A",
"J+	c #88CF4C",
"K+	c #3995A4",
"L+	c #3F9FD0",
"M+	c #77CCF6",
"N+	c #83CEF5",
"O+	c #B0E0F9",
"P+	c #A6DCF9",
"Q+	c #A2DCFA",
"R+	c #9EDBFB",
"S+	c #96D7FE",
"T+	c #9FDFAF",
"U+	c #B3EF32",
"V+	c #B0EF18",
"W+	c #A9ED13",
"X+	c #A3EA06",
"Y+	c #9EE706",
"Z+	c #8FDF29",
"`+	c #90DE23",
" @	c #97E305",
".@	c #97E20A",
"+@	c #80D439",
"@@	c #51B8A9",
"#@	c #36A8E3",
"$@	c #2FA5E3",
"%@	c #29A2DE",
"&@	c #209CE2",
"*@	c #1998E0",
"=@	c #5DBE50",
"-@	c #93D924",
";@	c #3E9C9A",
">@	c #3A9ED0",
",@	c #6AC7F6",
"'@	c #74C8F2",
")@	c #A5DCF8",
"!@	c #9CD9F7",
"~@	c #96D7F7",
"{@	c #92D5FB",
"]@	c #8AD2FF",
"^@	c #97DDA8",
"/@	c #ADEE29",
"(@	c #ABEE0A",
"_@	c #A4EC06",
":@	c #A0E901",
"<@	c #9DE800",
"[@	c #9CE700",
"}@	c #99E406",
"|@	c #98E300",
"1@	c #97E209",
"2@	c #7AD047",
"3@	c #51B8A8",
"4@	c #36A8DE",
"5@	c #2DA3E3",
"6@	c #28A0DD",
"7@	c #209BDF",
"8@	c #1898DF",
"9@	c #4DB667",
"0@	c #91DB10",
"a@	c #409F8E",
"b@	c #369CD0",
"c@	c #5FC2F7",
"d@	c #66C2F3",
"e@	c #92D4F6",
"f@	c #91D4F6",
"g@	c #8BD2F6",
"h@	c #84CFFB",
"i@	c #85D2E3",
"j@	c #9AE176",
"k@	c #ABEF15",
"l@	c #A6EE02",
"m@	c #A2EB01",
"n@	c #9FE901",
"o@	c #9DE801",
"p@	c #9BE601",
"q@	c #9AE400",
"r@	c #99E403",
"s@	c #86D82A",
"t@	c #59BD99",
"u@	c #3AABDF",
"v@	c #31A6E7",
"w@	c #2DA3E0",
"x@	c #26A0DD",
"y@	c #1F9BDD",
"z@	c #1797DD",
"A@	c #36A992",
"B@	c #84D51F",
"C@	c #41A08A",
"D@	c #329ACF",
"E@	c #58BFF1",
"F@	c #59BCEC",
"G@	c #72C6F4",
"H@	c #84CFF4",
"I@	c #7ECDF4",
"J@	c #76C8FA",
"K@	c #7ACDD5",
"L@	c #95E162",
"M@	c #A8EF0F",
"N@	c #A5ED00",
"O@	c #A1EA01",
"P@	c #9BE500",
"Q@	c #97E214",
"R@	c #5CBE9E",
"S@	c #3BABE8",
"T@	c #33A7EC",
"U@	c #30A5E5",
"V@	c #2AA2E4",
"W@	c #239FE3",
"X@	c #1C9BE1",
"Y@	c #1497E1",
"Z@	c #1697CF",
"`@	c #61C247",
" #	c #399C8D",
".#	c #349CC3",
"+#	c #6ECEAC",
"@#	c #72CF9B",
"##	c #54B8F7",
"$#	c #6DC4F2",
"%#	c #70C6F1",
"&#	c #69C2F6",
"*#	c #60BEFB",
"=#	c #7CD19C",
"-#	c #A4EE1F",
";#	c #A7EF00",
">#	c #9EE800",
",#	c #9CE600",
"'#	c #9DE602",
")#	c #84D930",
"!#	c #40AFE0",
"~#	c #33A7F4",
"{#	c #31A7E8",
"]#	c #2BA3E5",
"^#	c #249FE4",
"/#	c #1D9CE4",
"(#	c #1799E2",
"_#	c #1195DF",
":#	c #0990DF",
"<#	c #058DE1",
"[#	c #1587CC",
"}#	c #2D97C9",
"|#	c #70CF97",
"1#	c #8BDF5F",
"2#	c #48B2F4",
"3#	c #52B7EF",
"4#	c #5BBCEE",
"5#	c #5ABCEF",
"6#	c #51B7F8",
"7#	c #6AC7B1",
"8#	c #9AE62C",
"9#	c #A7EF01",
"0#	c #A3EB00",
"a#	c #9EE90A",
"b#	c #9CE70E",
"c#	c #9CE510",
"d#	c #5EC095",
"e#	c #37ABED",
"f#	c #31A6E9",
"g#	c #359EA8",
"h#	c #41944E",
"i#	c #4E8E17",
"j#	c #528C0E",
"k#	c #528D0F",
"l#	c #528E10",
"m#	c #428E2B",
"n#	c #1F8C7C",
"o#	c #1987B8",
"p#	c #248AC4",
"q#	c #5EBFA1",
"r#	c #93E44D",
"s#	c #61C3B6",
"t#	c #49B3EE",
"u#	c #4DB5EB",
"v#	c #4FB7EC",
"w#	c #4DB5F6",
"x#	c #59BDD7",
"y#	c #7FD56C",
"z#	c #A0EA18",
"A#	c #A8EE02",
"B#	c #9BE616",
"C#	c #6AC884",
"D#	c #5CBFA5",
"E#	c #7ED444",
"F#	c #4DB6B9",
"G#	c #33A4D7",
"H#	c #3D976E",
"I#	c #5E9C29",
"J#	c #8EB944",
"K#	c #B3D370",
"L#	c #BDDB7F",
"M#	c #BCDB7F",
"N#	c #BAD97A",
"O#	c #A3C95D",
"P#	c #72A729",
"Q#	c #448C2F",
"R#	c #1F81B7",
"S#	c #3DA6C5",
"T#	c #5CC1B4",
"U#	c #4DB6D2",
"V#	c #44B0EA",
"W#	c #47B2E9",
"X#	c #49B3E9",
"Y#	c #49B4EC",
"Z#	c #49B3ED",
"`#	c #56BBC9",
" $	c #7ED566",
".$	c #A4EC0F",
"+$	c #89DB3F",
"@$	c #43B0D4",
"#$	c #58BCAB",
"$$	c #67C77B",
"%$	c #64C46F",
"&$	c #449956",
"*$	c #67A22F",
"=$	c #A4C959",
"-$	c #AAD257",
";$	c #90C52D",
">$	c #85BF27",
",$	c #85C02D",
"'$	c #8AC326",
")$	c #9DCC41",
"!$	c #B4D66B",
"~$	c #81B13A",
"{$	c #508A0B",
"]$	c #2A95CD",
"^$	c #3CADE5",
"/$	c #3DADE6",
"($	c #3FADE7",
"_$	c #41AFE6",
":$	c #43AFE6",
"<$	c #43B0E7",
"[$	c #42AFEC",
"}$	c #40AEEF",
"|$	c #58BCB3",
"1$	c #8CDD40",
"2$	c #95E32E",
"3$	c #74CF61",
"4$	c #8FE02D",
"5$	c #40B0C5",
"6$	c #4BAA75",
"7$	c #619E28",
"8$	c #9EC64F",
"9$	c #9DCC3D",
"0$	c #81BE14",
"a$	c #7FBC1C",
"b$	c #BBDC8A",
"c$	c #DEEEC6",
"d$	c #A9D35F",
"e$	c #81BF18",
"f$	c #8EC626",
"g$	c #ABD25C",
"h$	c #79AC31",
"i$	c #2083B6",
"j$	c #2EA0DC",
"k$	c #37AAE6",
"l$	c #39AAE4",
"m$	c #3BABE4",
"n$	c #3CACE4",
"o$	c #3DACE5",
"p$	c #3DACE6",
"q$	c #3AAAEA",
"r$	c #3CACE3",
"s$	c #49B5C2",
"t$	c #57BDA3",
"u$	c #65C57A",
"v$	c #8BDC2F",
"w$	c #6BC960",
"x$	c #45974E",
"y$	c #89B747",
"z$	c #9BCA39",
"A$	c #80BE10",
"B$	c #6EB400",
"C$	c #7CBB23",
"D$	c #CBE4A6",
"E$	c #F9FCF3",
"F$	c #B6DA71",
"G$	c #78BA0B",
"H$	c #73B701",
"I$	c #92C82A",
"J$	c #9AC64E",
"K$	c #659C23",
"L$	c #1A739F",
"M$	c #2490C6",
"N$	c #30A4DF",
"O$	c #34A8E3",
"P$	c #35A8E2",
"Q$	c #36A8E2",
"R$	c #33A7E8",
"S$	c #2EA4EE",
"T$	c #2FA4E8",
"U$	c #36A9D5",
"V$	c #43B1B4",
"W$	c #66C65E",
"X$	c #51921C",
"Y$	c #9FC94F",
"Z$	c #8BC41E",
"`$	c #82BF1E",
" %	c #81BE29",
".%	c #8CC442",
"+%	c #D1E7B1",
"@%	c #F8FBF1",
"#%	c #BCDD7C",
"$%	c #89C32D",
"%%	c #83C029",
"&%	c #80BF12",
"*%	c #A7D34F",
"=%	c #6FA627",
"-%	c #1E83B5",
";%	c #2695CC",
">%	c #2DA4DE",
",%	c #2FA5E1",
"'%	c #30A5E0",
")%	c #30A6E0",
"!%	c #2FA5E0",
"~%	c #2BA2E2",
"{%	c #259FE8",
"]%	c #1F9DF1",
"^%	c #32A5B7",
"/%	c #5B9511",
"(%	c #98C82F",
"_%	c #8BC624",
":%	c #BDDE86",
"<%	c #D0E7AC",
"[%	c #D3E9B5",
"}%	c #EDF6E2",
"|%	c #FCFEF9",
"1%	c #E6F2CD",
"2%	c #D3E8AE",
"3%	c #D1E8AD",
"4%	c #A6D252",
"5%	c #A5D53E",
"6%	c #6CA718",
"7%	c #1D7BAA",
"8%	c #2596CE",
"9%	c #29A2DF",
"0%	c #2AA2DE",
"a%	c #28A1DD",
"b%	c #27A1DD",
"c%	c #26A0DC",
"d%	c #249EDC",
"e%	c #1F9CE0",
"f%	c #1D97CF",
"g%	c #5A9512",
"h%	c #8CC311",
"i%	c #8EC828",
"j%	c #D7EBB3",
"k%	c #F2F8E6",
"l%	c #F1F8E6",
"m%	c #F9FCF5",
"n%	c #FEFEFC",
"o%	c #F7FBEE",
"p%	c #F1F8E4",
"q%	c #F1F8E5",
"r%	c #BADD71",
"s%	c #9ED227",
"t%	c #66A509",
"u%	c #186A93",
"v%	c #1D7DAE",
"w%	c #2192CA",
"x%	c #239CD8",
"y%	c #249FDC",
"z%	c #239EDC",
"A%	c #229EDB",
"B%	c #219DDB",
"C%	c #1F9CDA",
"D%	c #1E9BDA",
"E%	c #1A99DD",
"F%	c #1996D3",
"G%	c #519013",
"H%	c #83BE04",
"I%	c #88C60F",
"J%	c #9DCF46",
"K%	c #A3D25D",
"L%	c #AAD56E",
"M%	c #DDEEC3",
"N%	c #FAFCF4",
"O%	c #CEE799",
"P%	c #A8D45D",
"Q%	c #A5D35C",
"R%	c #94CB2C",
"S%	c #8ECA0C",
"T%	c #61A102",
"U%	c #1D84B7",
"V%	c #1E8DC3",
"W%	c #1E96D2",
"X%	c #1D9AD9",
"Y%	c #1C9BDA",
"Z%	c #1B9ADA",
"`%	c #1A99D9",
" &	c #1998D8",
".&	c #1897D8",
"+&	c #1496DA",
"@&	c #1094DC",
"#&	c #408F35",
"$&	c #75B304",
"%&	c #86C500",
"&&	c #82C300",
"*&	c #79BE00",
"=&	c #84C322",
"-&	c #CEE7A4",
";&	c #F8FCF0",
">&	c #B9DD6C",
",&	c #83C20A",
"'&	c #7DC000",
")&	c #85C500",
"!&	c #80BF00",
"~&	c #5A9700",
"{&	c #1A75A2",
"]&	c #1B7FB1",
"^&	c #1D8CC5",
"/&	c #1B91CD",
"(&	c #1794D3",
"_&	c #1495D8",
":&	c #1196D8",
"<&	c #1095D7",
"[&	c #0D94D8",
"}&	c #0891DB",
"|&	c #228D82",
"1&	c #5D9E11",
"2&	c #86C100",
"3&	c #8CCA00",
"4&	c #84C500",
"5&	c #8EC923",
"6&	c #D2E9A6",
"7&	c #BFE177",
"8&	c #8DC910",
"9&	c #88C700",
"0&	c #8DCA00",
"a&	c #6DAD00",
"b&	c #467D00",
"c&	c #1A7AAB",
"d&	c #1B82B6",
"e&	c #1C8AC2",
"f&	c #1A8BC3",
"g&	c #1A8CC5",
"h&	c #198CC5",
"i&	c #188AC9",
"j&	c #1C88B7",
"k&	c #408A35",
"l&	c #68A603",
"m&	c #88C400",
"n&	c #8ECC00",
"o&	c #8DCA0B",
"p&	c #9ED235",
"q&	c #A9D74C",
"r&	c #99D026",
"s&	c #8ECB05",
"t&	c #8FCC00",
"u&	c #76B400",
"v&	c #528E00",
"w&	c #477B02",
"x&	c #64A000",
"y&	c #7EBB00",
"z&	c #93D002",
"A&	c #92D002",
"B&	c #91CF01",
"C&	c #86C400",
"D&	c #6FAE00",
"E&	c #528D00",
"F&	c #528B00",
"G&	c #609F00",
"H&	c #63A300",
"I&	c #62A200",
"J&	c #437700",
"                      . + @ # $ % & * = -                         ",
"                    ; > , ' ) ! ~ { ] ^ / (                       ",
"                _ : < [ } | 1 2 3 4 5 6 7 8 9 0                   ",
"              a b c d e f g h i j k l m n o p q r                 ",
"          s t u v w x y z A B C D E F G H I J K L M N             ",
"          O P Q R S T U V W X Y Z `  ...+.@.#.$.%.&.*.            ",
"        =.-.;.>.,.'.).!.~.{.].^./.(._.:.<.[.}.|.1.2.3.4.          ",
"      5.6.7.8.9.0.a.b.c.d.e.f.g.h.i.j.k.l.m.n.o.p.q.r.s.t.        ",
"      u.v.w.x.y.z.A.B.C.D.E.F.G.H.I.J.K.L.M.N.O.P.Q.R.S.T.        ",
"    U.V.W.X.Y.Z.`. +.+++@+#+$+%+&+*+=+-+;+>+,+'+)+!+~+{+]+        ",
"    ^+/+(+_+:+<+[+}+|+1+2+3+4+5+6+7+8+9+0+a+b+c+d+e+f+g+h+i+      ",
"    j+k+l+m+n+o+p+q+r+s+t+u+v+w+x+y+z+A+B+C+D+E+F+G+H+I+J+K+      ",
"    L+M+N+O+P+Q+R+S+T+U+V+W+X+Y+Z+`+ @.@+@@@#@$@%@&@*@=@-@;@      ",
"    >@,@'@)@!@~@{@]@^@/@(@_@:@<@[@}@|@1@2@3@4@5@6@7@8@9@0@a@      ",
"    b@c@d@e@f@g@h@i@j@k@l@m@n@o@p@q@r@s@t@u@v@w@x@y@z@A@B@C@      ",
"    D@E@F@G@H@I@J@K@L@M@N@O@n@o@p@P@Q@R@S@T@U@V@W@X@Y@Z@`@ #      ",
"    .#+#@###$#%#&#*#=#-#;#m@n@>#,#'#)#!#~#{#]#^#/#(#_#:#<#[#      ",
"    }#|#1#2#3#4#5#6#7#8#9#0#O@a#b#c#d#e#f#g#h#i#j#k#l#m#n#o#      ",
"    p#q#r#s#t#u#v#w#x#y#z#A#B#C#D#E#F#G#H#I#J#K#L#M#N#O#P#Q#      ",
"    R#S#T#U#V#W#X#Y#Z#`# $.$+$@$#$$$%$&$*$=$-$;$>$,$'$)$!$~${$    ",
"      ]$^$/$($_$:$<$[$}$|$1$2$3$4$5$6$7$8$9$0$a$b$c$d$e$f$g$h$    ",
"      i$j$k$l$m$n$o$p$q$r$s$t$u$v$w$x$y$z$A$B$C$D$E$F$G$H$I$J$K$  ",
"      L$M$N$O$P$Q$N.N.#@R$S$T$U$V$W$X$Y$Z$`$ %.%+%@%#%$%%%&%*%=%  ",
"        -%;%>%,%'%)%)%'%!%w@~%{%]%^%/%(%_%:%<%[%}%|%1%2%3%4%5%6%  ",
"          7%8%6@9%0%0%%@a%b%c%d%e%f%g%h%i%j%k%l%m%n%o%p%q%r%s%t%  ",
"          u%v%w%x%y%d%z%A%B%C%D%E%F%G%H%I%J%K%L%M%N%O%P%Q%R%S%T%  ",
"              U%V%W%X%Y%Z%`% &.&+&@&#&$&%&&&*&=&-&;&>&,&'&)&!&~&  ",
"                {&]&^&/&(&_&:&<&[&}&|&1&2&3&4&5&6&;&7&8&9&0&a&b&  ",
"                      c&d&e&f&g&h&i&j&k&l&m&n&o&p&q&r&s&t&u&v&    ",
"                                        w&x&y&n&z&A&B&C&D&E&      ",
"                                            F&G&H&H&I&~&J&        ",
"                                                                  ",
"                                                                  "};
