/* XPM */
static char * CreateJoint_xpm[] = {
"49 34 10 1",
" 	c None",
".	c #000000",
"+	c #0000FF",
"@	c #00FF00",
"#	c #00FFFF",
"$	c #7B7B7B",
"%	c #8C948C",
"&	c #949494",
"*	c #FF0000",
"=	c #FFFF00",
"                                                 ",
"                      @@                         ",
"                     @@@@                        ",
"                     @@@@                        ",
"                    @@@@.*                       ",
"                   @@@  ***                      ",
"                  @@@   .***                     ",
"                 @@@      ***                    ",
"                @@@        ***                   ",
"               @@@          ***                  ",
"              @@@            ***                 ",
"             @@@              ***                ",
"            @@@                ***               ",
"           @@@                  ***              ",
"          @@@                    ***             ",
"         @@@                      ***            ",
"       .==@                        ***           ",
"       ====                        .**++++.      ",
"      %%%%%.                          .....      ",
"      %%%%%.                                     ",
"      %%%%%.                                     ",
"      %%%%%.                                     ",
"      %%%%%.                                     ",
"      %%%%%.                                     ",
"      %%%%%.                                     ",
"      %%%%%.                                     ",
"      %%%%%.                                     ",
"      %%%%%.                                     ",
"      %%%%%.                                     ",
"   $$$$$$$$$$$$$                                 ",
"   $$$$$$$$$$$$$                                 ",
"   $$$$$$$$$$$$$                                 ",
"                                                 ",
"                                                 "};
