/* XPM */
static char * createworld_xpm[] = {
"29 29 549 2",
"  	c None",
". 	c #127DB9",
"+ 	c #147FBD",
"@ 	c #1380BF",
"# 	c #137FC0",
"$ 	c #147FC0",
"% 	c #1480BF",
"& 	c #1580BE",
"* 	c #137CBA",
"= 	c #459DAD",
"- 	c #66B2A3",
"; 	c #82C39C",
"> 	c #8DC995",
", 	c #8FC990",
"' 	c #8BC991",
") 	c #87C794",
"! 	c #7BC09B",
"~ 	c #62AFA4",
"{ 	c #3E9AB5",
"] 	c #459EBB",
"^ 	c #78BDAB",
"/ 	c #A7D79D",
"( 	c #C7EB98",
"_ 	c #D9F694",
": 	c #DDF887",
"< 	c #D5F574",
"[ 	c #C0EF78",
"} 	c #ADE685",
"| 	c #A4E17C",
"1 	c #A4DF68",
"2 	c #92D17F",
"3 	c #6EB89D",
"4 	c #429AB4",
"5 	c #54A8D5",
"6 	c #91CCD7",
"7 	c #CFEFBB",
"8 	c #E7FBA3",
"9 	c #DFF8A9",
"0 	c #CBEEC4",
"a 	c #B9E6D0",
"b 	c #ACE0C6",
"c 	c #96D6C9",
"d 	c #80CBCF",
"e 	c #72C8AD",
"f 	c #8DD957",
"g 	c #A8E737",
"h 	c #AAE354",
"i 	c #85C88C",
"j 	c #4FA5B7",
"k 	c #298BBC",
"l 	c #52A6D0",
"m 	c #9ED3EB",
"n 	c #D2F0E0",
"o 	c #E1F9BA",
"p 	c #DBF7AE",
"q 	c #C7ECCE",
"r 	c #B3E2F0",
"s 	c #A6DBFA",
"t 	c #9BD5FC",
"u 	c #8ED0F5",
"v 	c #87CEDB",
"w 	c #6FC4D7",
"x 	c #64C2A5",
"y 	c #76CE57",
"z 	c #8FDB33",
"A 	c #9DDF3E",
"B 	c #8DCF78",
"C 	c #50A3AF",
"D 	c #2586B9",
"E 	c #53A7D3",
"F 	c #99D1EE",
"G 	c #CBEBFC",
"H 	c #D1EFF1",
"I 	c #D2F2C7",
"J 	c #CEF2B4",
"K 	c #BBE7D7",
"L 	c #A9DEF6",
"M 	c #9ED8FC",
"N 	c #93D3FB",
"O 	c #97D8B9",
"P 	c #A2E06A",
"Q 	c #8AD589",
"R 	c #65C1B9",
"S 	c #52B8B2",
"T 	c #5FC178",
"U 	c #7FD231",
"V 	c #9BDF29",
"W 	c #88CC7A",
"X 	c #4FA4AE",
"Y 	c #3E99C8",
"Z 	c #81C5E7",
"` 	c #BEE6FB",
" .	c #CCECFD",
"..	c #C6EAF6",
"+.	c #C7EECB",
"@.	c #CAF39A",
"#.	c #C0EDA3",
"$.	c #ABE1D1",
"%.	c #A0DCD4",
"&.	c #95D7CD",
"*.	c #A9E658",
"=.	c #A0E250",
"-.	c #9CE132",
";.	c #80D25C",
">.	c #5BBE9A",
",.	c #4CB6AA",
"'.	c #5BBE7D",
").	c #78CE3C",
"!.	c #7ECD5A",
"~.	c #71BE92",
"{.	c #3B98B2",
"].	c #61B0D9",
"^.	c #A4DAF6",
"/.	c #C5EAFD",
"(.	c #C5E9FC",
"_.	c #C3EAE5",
":.	c #C8F1A9",
"<.	c #CAF670",
"[.	c #C4F462",
"}.	c #B7EC78",
"|.	c #B1EA67",
"1.	c #A8E661",
"2.	c #A7E733",
"3.	c #8BD86F",
"4.	c #8BD946",
"5.	c #87D832",
"6.	c #60C189",
"7.	c #3FAED2",
"8.	c #34A7DD",
"9.	c #41AFA6",
"0.	c #69C64C",
"a.	c #85D14B",
"b.	c #64B48D",
"c.	c #3995C3",
"d.	c #74C1E9",
"e.	c #ADE0FA",
"f.	c #BFE7FC",
"g.	c #BBE6FC",
"h.	c #BAE7EE",
"i.	c #BAEACE",
"j.	c #BFF08A",
"k.	c #C0F34F",
"l.	c #BAF13D",
"m.	c #B4EE2F",
"n.	c #ACEA29",
"o.	c #99E043",
"p.	c #8EDC43",
"q.	c #80D454",
"r.	c #6EC977",
"s.	c #54BAAF",
"t.	c #39ABE4",
"u.	c #2FA4E9",
"v.	c #2BA3DD",
"w.	c #4BB586",
"x.	c #7BCF35",
"y.	c #7EC858",
"z.	c #4FA699",
"A.	c #49A2CE",
"B.	c #7BC8EF",
"C.	c #ABDFF9",
"D.	c #B8E3FA",
"E.	c #B2E2FC",
"F.	c #AFE2FC",
"G.	c #ABE1EC",
"H.	c #B3EA95",
"I.	c #BAF241",
"J.	c #B5F02C",
"K.	c #AFED1E",
"L.	c #A4E81D",
"M.	c #7AD08C",
"N.	c #8BDB39",
"O.	c #85D73D",
"P.	c #62C19B",
"Q.	c #49B4CF",
"R.	c #39ABE7",
"S.	c #31A7E4",
"T.	c #29A1E3",
"U.	c #2AA2CB",
"V.	c #52B871",
"W.	c #7CCB42",
"X.	c #55A989",
"Y.	c #53ADDA",
"Z.	c #7ECCF4",
"`.	c #A3DBF8",
" +	c #AEDFFA",
".+	c #A8DEFA",
"++	c #A3DDFC",
"@+	c #9EDBEE",
"#+	c #ABE789",
"$+	c #B5F02D",
"%+	c #AFEE1D",
"&+	c #A8EC10",
"*+	c #9FE710",
"=+	c #7FD564",
"-+	c #8EDD2A",
";+	c #91DF17",
">+	c #7DD24B",
",+	c #59BD9F",
"'+	c #3CACDA",
")+	c #31A6E3",
"!+	c #29A2E0",
"~+	c #209CE0",
"{+	c #34A7A9",
"]+	c #75CA40",
"^+	c #63B56E",
"/+	c #4FAEDE",
"(+	c #75CAF5",
"_+	c #97D6F6",
":+	c #9CD9F8",
"<+	c #96D7FB",
"[+	c #91D6ED",
"}+	c #A1E381",
"|+	c #AEEE20",
"1+	c #A9ED0D",
"2+	c #A3EA06",
"3+	c #9EE803",
"4+	c #97E411",
"5+	c #96E20F",
"6+	c #97E304",
"7+	c #8CDB21",
"8+	c #65C479",
"9+	c #3FADCE",
"0+	c #30A5E2",
"a+	c #29A1DE",
"b+	c #1F9BE0",
"c+	c #29A1BC",
"d+	c #6CC642",
"e+	c #67BB58",
"f+	c #47ABDE",
"g+	c #66C4F5",
"h+	c #86CFF5",
"i+	c #95D6F6",
"j+	c #8FD4F6",
"k+	c #88D1F9",
"l+	c #8AD5D6",
"m+	c #9FE562",
"n+	c #AAEE11",
"o+	c #A5EC03",
"p+	c #A0EA01",
"q+	c #9DE801",
"r+	c #9BE601",
"s+	c #9AE402",
"t+	c #95E10B",
"u+	c #7AD149",
"v+	c #50B8AB",
"w+	c #37A9DD",
"x+	c #2EA4E2",
"y+	c #27A0DD",
"z+	c #1E9ADE",
"A+	c #229DC5",
"B+	c #5BBD5B",
"C+	c #63BA55",
"D+	c #41A8DC",
"E+	c #5ABEF0",
"F+	c #6DC4F2",
"G+	c #82CEF4",
"H+	c #81CEF4",
"I+	c #79CAF7",
"J+	c #81D2BF",
"K+	c #9CE649",
"L+	c #A7EE09",
"M+	c #A3EB01",
"N+	c #A0E901",
"O+	c #9AE403",
"P+	c #88D935",
"Q+	c #55BAAB",
"R+	c #3AABE2",
"S+	c #32A6E7",
"T+	c #2CA3E4",
"U+	c #249FE2",
"V+	c #1B9AE0",
"W+	c #1798D9",
"X+	c #3AAB90",
"Y+	c #50B067",
"Z+	c #48AEBC",
"`+	c #6FCEA6",
" @	c #60C1D3",
".@	c #66C1F3",
"+@	c #6FC6F1",
"@@	c #68C2F6",
"#@	c #67C2E4",
"$@	c #89DB71",
"%@	c #A5EE11",
"&@	c #A4ED01",
"*@	c #9EE801",
"=@	c #9CE601",
"-@	c #98E30C",
";@	c #6FCC67",
">@	c #3BACE6",
",@	c #32A7EB",
"'@	c #2EA4DF",
")@	c #289FD8",
"!@	c #219BD7",
"~@	c #1A98D5",
"{@	c #1393D3",
"]@	c #0D90D3",
"^@	c #128CCC",
"/@	c #43A9B7",
"(@	c #7CD67B",
"_@	c #66C6B1",
":@	c #4FB6ED",
"<@	c #57BAEE",
"[@	c #57BBEF",
"}@	c #55BAEA",
"|@	c #76CF8D",
"1@	c #9DE821",
"2@	c #A5ED02",
"3@	c #A1EA03",
"4@	c #97E41B",
"5@	c #91E028",
"6@	c #8CDB31",
"7@	c #50B8B3",
"8@	c #35A7E0",
"9@	c #38A0AF",
"0@	c #499C63",
"a@	c #5D9B2F",
"b@	c #659A23",
"c@	c #659B23",
"d@	c #609B28",
"e@	c #45964A",
"f@	c #278C87",
"g@	c #3499B9",
"h@	c #6AC88D",
"i@	c #6AC99E",
"j@	c #4DB6E0",
"k@	c #4BB4EB",
"l@	c #4DB6EC",
"m@	c #4EB6EE",
"n@	c #5EC0C1",
"o@	c #83D760",
"p@	c #A0E918",
"q@	c #9BE61A",
"r@	c #68C786",
"s@	c #5DBFA1",
"t@	c #71CC63",
"u@	c #4CB2A7",
"v@	c #409E8C",
"w@	c #60A348",
"x@	c #8BB944",
"y@	c #A5CC58",
"z@	c #ACD264",
"A@	c #ABD365",
"B@	c #A9D05D",
"C@	c #96C24B",
"D@	c #6EA638",
"E@	c #549325",
"F@	c #2A90C0",
"G@	c #41ABC9",
"H@	c #49B5D4",
"I@	c #43B0E5",
"J@	c #44B0E8",
"K@	c #46B1E8",
"L@	c #46B2EA",
"M@	c #48B3E6",
"N@	c #5CBFB4",
"O@	c #87DA4E",
"P@	c #92E132",
"Q@	c #62C390",
"R@	c #6CCA7B",
"S@	c #57BC93",
"T@	c #57B063",
"U@	c #64A540",
"V@	c #91BF46",
"W@	c #9BCA41",
"X@	c #8CC32A",
"Y@	c #9BCB4E",
"Z@	c #A8D267",
"`@	c #96C93A",
" #	c #99CA3B",
".#	c #9BC74B",
"+#	c #73A62C",
"@#	c #2C98D0",
"##	c #38A9E4",
"$#	c #3BABE6",
"%#	c #3DADE5",
"&#	c #3FADE5",
"*#	c #40AEE7",
"=#	c #3EADEA",
"-#	c #42AFDE",
";#	c #5ABFA5",
">#	c #70CC75",
",#	c #6DCA6E",
"'#	c #88DB38",
")#	c #55B886",
"!#	c #56A354",
"~#	c #87B83D",
"{#	c #94C632",
"]#	c #7EBC12",
"^#	c #7CBB1B",
"/#	c #BFDE90",
"(#	c #E4F1CD",
"_#	c #A2D051",
":#	c #7DBD11",
"<#	c #8FC52A",
"[#	c #92C141",
"}#	c #73A72E",
"|#	c #2186B9",
"1#	c #2E9FD9",
"2#	c #35A8E3",
"3#	c #37A9E3",
"4#	c #38A9E3",
"5#	c #39AAE3",
"6#	c #38AAE4",
"7#	c #37A9E6",
"8#	c #37A9E2",
"9#	c #3BACD5",
"0#	c #44B1BB",
"a#	c #5ABF88",
"b#	c #63BE56",
"c#	c #64A236",
"d#	c #95C43C",
"e#	c #88C220",
"f#	c #7DBC1B",
"g#	c #84C032",
"h#	c #CAE3A5",
"i#	c #EFF7DF",
"j#	c #ABD461",
"k#	c #81BF1F",
"l#	c #82C01B",
"m#	c #98CA3C",
"n#	c #79AD30",
"o#	c #1E82B4",
"p#	c #2591C7",
"q#	c #2DA1DB",
"r#	c #30A6E1",
"s#	c #31A6E0",
"t#	c #31A7E0",
"u#	c #31A6E1",
"v#	c #2CA3E3",
"w#	c #29A1E4",
"x#	c #28A2E0",
"y#	c #42A88A",
"z#	c #6CA41E",
"A#	c #93C72E",
"B#	c #9FCF4D",
"C#	c #BADC85",
"D#	c #C3E19A",
"E#	c #E4F2D3",
"F#	c #F7FBEE",
"G#	c #D6EAB1",
"H#	c #C2E092",
"I#	c #AFD66A",
"J#	c #A3D243",
"K#	c #7AB224",
"L#	c #1E7DAD",
"M#	c #2390C5",
"N#	c #289FDB",
"O#	c #2AA2DF",
"P#	c #2AA2DE",
"Q#	c #29A2DE",
"R#	c #28A1DD",
"S#	c #249EDD",
"T#	c #1F9CE0",
"U#	c #2A98AB",
"V#	c #69A312",
"W#	c #8DC51C",
"X#	c #B3DA6F",
"Y#	c #E4F1CC",
"Z#	c #ECF6DE",
"`#	c #F6FBF0",
" $	c #FCFDF9",
".$	c #F2F8E5",
"+$	c #ECF5DB",
"@$	c #D1E8A2",
"#$	c #A7D541",
"$$	c #74B011",
"%$	c #186A93",
"&$	c #1C78A7",
"*$	c #208DC4",
"=$	c #229AD5",
"-$	c #239EDB",
";$	c #239DDC",
">$	c #219DDB",
",$	c #209DDB",
"'$	c #1F9CDA",
")$	c #1D9BDA",
"!$	c #1998DC",
"~$	c #2295B2",
"{$	c #5E9D12",
"]$	c #84C008",
"^$	c #91CA26",
"/$	c #9BCE48",
"($	c #A3D25E",
"_$	c #D7EBB8",
":$	c #F3F9E5",
"<$	c #C0E080",
"[$	c #A1D14F",
"}$	c #98CD39",
"|$	c #8EC914",
"1$	c #6BA904",
"2$	c #1D84B7",
"3$	c #1D87BB",
"4$	c #1D91CB",
"5$	c #1D97D5",
"6$	c #1B98D7",
"7$	c #1998D8",
"8$	c #1798D8",
"9$	c #1697D8",
"0$	c #1295D9",
"a$	c #1592C1",
"b$	c #489836",
"c$	c #78B704",
"d$	c #85C400",
"e$	c #7FC200",
"f$	c #84C41B",
"g$	c #CAE59B",
"h$	c #EFF7DC",
"i$	c #ACD754",
"j$	c #83C307",
"k$	c #84C400",
"l$	c #7FBF00",
"m$	c #5E9A00",
"n$	c #1A76A3",
"o$	c #1B82B5",
"p$	c #1C8AC3",
"q$	c #1A8AC3",
"r$	c #188FCC",
"s$	c #1591D0",
"t$	c #1491D0",
"u$	c #1291D1",
"v$	c #118EC9",
"w$	c #2F8E73",
"x$	c #63A412",
"y$	c #83C001",
"z$	c #89C800",
"A$	c #8CC914",
"B$	c #BADE72",
"C$	c #D3EBA2",
"D$	c #A7D643",
"E$	c #8CC907",
"F$	c #87C500",
"G$	c #6FAD00",
"H$	c #508900",
"I$	c #4E8E17",
"J$	c #68A201",
"K$	c #80BD00",
"L$	c #8CC904",
"M$	c #97D119",
"N$	c #9CD323",
"O$	c #92CD0E",
"P$	c #85C301",
"Q$	c #71AE00",
"R$	c #5B9800",
"S$	c #629D00",
"T$	c #6EAB00",
"U$	c #74B301",
"V$	c #71AF00",
"W$	c #619C00",
"X$	c #538C00",
"                    . + @ # $ % & * *                     ",
"                  = - ; > , ' ) ! ~ {                     ",
"              ] ^ / ( _ : < [ } | 1 2 3 4                 ",
"            5 6 7 8 9 0 a b c d e f g h i j               ",
"        k l m n o p q r s t u v w x y z A B C D           ",
"        E F G H I J K L M N O P Q R S T U V W X           ",
"      Y Z `  ...+.@.#.$.%.&.*.=.-.;.>.,.'.).!.~.{.        ",
"      ].^./.(._.:.<.[.}.|.1.2.3.4.5.6.7.8.9.0.a.b.        ",
"    c.d.e.f.g.h.i.j.k.l.m.n.o.p.q.r.s.t.u.v.w.x.y.z.      ",
"    A.B.C.D.E.F.G.H.I.J.K.L.M.N.O.P.Q.R.S.T.U.V.W.X.      ",
"    Y.Z.`. +.+++@+#+$+%+&+*+=+-+;+>+,+'+)+!+~+{+]+^+      ",
"    /+(+_+`.:+<+[+}+|+1+2+3+4+5+6+7+8+9+0+a+b+c+d+e+      ",
"    f+g+h+i+j+k+l+m+n+o+p+q+r+s+t+u+v+w+x+y+z+A+B+C+      ",
"    D+E+F+G+H+I+J+K+L+M+N+q+r+O+P+Q+R+S+T+U+V+W+X+Y+      ",
"    Z+`+ @.@+@@@#@$@%@&@p+*@=@-@;@>@,@'@)@!@~@{@]@^@      ",
"    /@(@_@:@<@[@}@|@1@2@3@4@5@6@7@8@9@0@a@b@c@d@e@f@      ",
"    g@h@i@j@k@l@m@n@o@p@q@r@s@t@u@v@w@x@y@z@A@B@C@D@E@    ",
"    F@G@H@I@J@K@L@M@N@O@P@Q@R@S@T@U@V@W@X@Y@Z@`@ #.#+#    ",
"      @###$#%#&#*#=#-#;#>#,#'#)#!#~#{#]#^#/#(#_#:#<#[#}#  ",
"      |#1#2#3#4#5#6#7#8#9#0#a#b#c#d#e#f#g#h#i#j#k#l#m#n#  ",
"      o#p#q#r#s#t#s#u#x+v#w#x#y#z#A#B#C#D#E#F#G#H#I#J#K#  ",
"        L#M#N#O#P#P#Q#R#y+S#T#U#V#W#X#Y#Z#`# $.$+$@$#$$$  ",
"        %$&$*$=$-$;$>$,$'$)$!$~${$]$^$/$($_$:$<$[$}$|$1$  ",
"            2$3$4$5$6$7$8$9$0$a$b$c$d$e$f$g$h$i$j$k$l$m$  ",
"              n$o$p$q$r$s$t$u$v$w$x$y$z$A$B$C$D$E$F$G$H$  ",
"                                  I$J$K$L$M$N$O$P$Q$R$    ",
"                                      S$T$U$U$V$W$X$      ",
"                                                          ",
"                                                          "};
