/* XPM */
static const char * cursorUp_xpm[] = {
"19 13 17 1",
" 	c #ABABAB",
".	c #FFFFFF",
"+	c #ABADB3",
"@	c #FCFCFC",
"#	c #F2F2F2",
"$	c #FBFBFB",
"%	c #F1F1F1",
"&	c #EFEFEF",
"*	c #4D5678",
"=	c #FAFAFA",
"-	c #ECECEC",
";	c #5F6EA5",
">	c #F9F9F9",
",	c #E8E8E8",
"'	c #7085D1",
")	c #F3F3F3",
"!	c #D1D1D1",
"                   ",
" ................. ",
" .+++++++++++++++. ",
" .+@###########@+. ",
" .+$%%%%%%%%%%%$+. ",
" .+$&&&&&*&&&&&$+. ",
" .+=----;;;----=+. ",
" .+>,,,''''',,,>+. ",
" .+)!!!!!!!!!!!)+. ",
" .+)))))))))))))+. ",
" .               . ",
" ................. ",
" +++++++++++++++   "};
