/* XPM */
static const char * cursorDown_xpm[] = {
"19 13 17 1",
" 	c #ABABAB",
".	c #ABADB3",
"+	c #FFFFFF",
"@	c #F3F3F3",
"#	c #D1D1D1",
"$	c #F9F9F9",
"%	c #E8E8E8",
"&	c #7085D1",
"*	c #FAFAFA",
"=	c #ECECEC",
"-	c #5F6EA5",
";	c #FBFBFB",
">	c #EFEFEF",
",	c #4D5678",
"'	c #F1F1F1",
")	c #FCFCFC",
"!	c #F2F2F2",
"   ............... ",
" +++++++++++++++++ ",
" +               + ",
" +.@@@@@@@@@@@@@.+ ",
" +.@###########@.+ ",
" +.$%%%&&&&&%%%$.+ ",
" +.*====---====*.+ ",
" +.;>>>>>,>>>>>;.+ ",
" +.;''''''''''';.+ ",
" +.)!!!!!!!!!!!).+ ",
" +...............+ ",
" +++++++++++++++++ ",
"                   "};
