/* XPM */
static const char * cylindrical_xpm[] = {
"16 16 71 1",
" 	c None",
".	c #873E11",
"+	c #271205",
"@	c #E96F21",
"#	c #F97522",
"$	c #934715",
"%	c #4F240A",
"&	c #E96D21",
"*	c #FF7622",
"=	c #D6641D",
"-	c #D1631C",
";	c #FF7B23",
">	c #A44E17",
",	c #4D240B",
"'	c #B85519",
")	c #FF7722",
"!	c #FF7723",
"~	c #9A4815",
"{	c #FF7D24",
"]	c #FE7623",
"^	c #FB7622",
"/	c #894012",
"(	c #7C3911",
"_	c #FF7A23",
":	c #FE7622",
"<	c #FF7923",
"[	c #9D4B16",
"}	c #EE6F20",
"|	c #823D12",
"1	c #DA671D",
"2	c #A04B16",
"3	c #FD7822",
"4	c #D2631D",
"5	c #331706",
"6	c #73340F",
"7	c #FF7C24",
"8	c #F77422",
"9	c #A64E16",
"0	c #B35619",
"a	c #B7591A",
"b	c #FD7521",
"c	c #8D4213",
"d	c #FE7723",
"e	c #904515",
"f	c #0D0601",
"g	c #FF7E24",
"h	c #FF7A24",
"i	c #A54E17",
"j	c #EA6D20",
"k	c #381B0A",
"l	c #FF8626",
"m	c #A54F18",
"n	c #D2631E",
"o	c #DF6A1F",
"p	c #3D1C09",
"q	c #ED6F1F",
"r	c #FF7B24",
"s	c #853D13",
"t	c #2D1608",
"u	c #B45418",
"v	c #FF7823",
"w	c #D9661E",
"x	c #5A2A0D",
"y	c #D3631D",
"z	c #5C2A0C",
"A	c #853E13",
"B	c #E66D1F",
"C	c #7E3B11",
"D	c #813C12",
"E	c #391907",
"F	c #72340F",
"      .         ",
"    +@#$%       ",
"    &*=-;>,     ",
"   ')!~{])^/    ",
"  (_:<[!*!]!}|  ",
"  1]:23:!!:::<45",
" 67:89*:!!!!!!:0",
" ab;c_!!!!!!!d:e",
"fghij::!!!!!!!{ ",
"klmn):!!!!!!!:o ",
" pq):!!!!!!!]rs ",
"  tuv:!:!!!!:w  ",
"    xy_:!!::_z  ",
"      AB<::<C   ",
"        Drgc    ",
"         EF     "};
