/* XPM */
static char * cylinder_xpm[] = {
"40 40 210 2",
"  	c None",
". 	c #C6C600",
"+ 	c #D1D100",
"@ 	c #D5D500",
"# 	c #DCDC00",
"$ 	c #D8D800",
"% 	c #D2D200",
"& 	c #C7C700",
"* 	c #EFEF00",
"= 	c #FCFC00",
"- 	c #FFFF00",
"; 	c #FEFE00",
"> 	c #F7F700",
", 	c #E1E100",
"' 	c #C4C400",
") 	c #FBFB00",
"! 	c #EDED00",
"~ 	c #B6B600",
"{ 	c #D9D900",
"] 	c #FDFD00",
"^ 	c #EEEE00",
"/ 	c #DBDB00",
"( 	c #F8F800",
"_ 	c #A9A900",
": 	c #E7E500",
"< 	c #817F00",
"[ 	c #A09400",
"} 	c #F5F300",
"| 	c #CCC700",
"1 	c #312C00",
"2 	c #847500",
"3 	c #B5A300",
"4 	c #E0D800",
"5 	c #FDFC00",
"6 	c #F0EE00",
"7 	c #B4AA00",
"8 	c #7D6F00",
"9 	c #1A1700",
"0 	c #746800",
"a 	c #AE9B00",
"b 	c #B7A300",
"c 	c #C2AF00",
"d 	c #DBD000",
"e 	c #F0EB00",
"f 	c #F7F500",
"g 	c #DED700",
"h 	c #BAAE00",
"i 	c #978600",
"j 	c #8B7B00",
"k 	c #756800",
"l 	c #AB9900",
"m 	c #B6A200",
"n 	c #BCA700",
"o 	c #C0AB00",
"p 	c #C3AE00",
"q 	c #C9B400",
"r 	c #D5C500",
"s 	c #E1D500",
"t 	c #EAE100",
"u 	c #F1EB00",
"v 	c #F7F400",
"w 	c #FBFA00",
"x 	c #F9F700",
"y 	c #F2EF00",
"z 	c #EAE300",
"A 	c #DED500",
"B 	c #CFC300",
"C 	c #BCAC00",
"D 	c #AB9800",
"E 	c #A49200",
"F 	c #9D8C00",
"G 	c #948400",
"H 	c #897900",
"I 	c #635800",
"J 	c #A89600",
"K 	c #B5A100",
"L 	c #C3AD00",
"M 	c #C5B000",
"N 	c #C7B100",
"O 	c #C8B200",
"P 	c #C9B300",
"Q 	c #CAB400",
"R 	c #C8B300",
"S 	c #C7B200",
"T 	c #C2AD00",
"U 	c #BFAA00",
"V 	c #B9A500",
"W 	c #B29F00",
"X 	c #A99600",
"Y 	c #A39100",
"Z 	c #9C8B00",
"` 	c #938300",
" .	c #867700",
"..	c #524900",
"+.	c #9E8D00",
"@.	c #B4A000",
"#.	c #BBA600",
"$.	c #C5AF00",
"%.	c #C6B100",
"&.	c #C1AC00",
"*.	c #B9A400",
"=.	c #B29E00",
"-.	c #AE9A00",
";.	c #A29000",
">.	c #9B8A00",
",.	c #918100",
"'.	c #837500",
").	c #423A00",
"!.	c #BAA600",
"~.	c #BEAA00",
"{.	c #AD9A00",
"].	c #A89500",
"^.	c #A19000",
"/.	c #9A8900",
"(.	c #908000",
"_.	c #807200",
":.	c #302B00",
"<.	c #847600",
"[.	c #B09D00",
"}.	c #BEA900",
"|.	c #C2AC00",
"1.	c #B8A400",
"2.	c #B19D00",
"3.	c #A79500",
"4.	c #A08F00",
"5.	c #988800",
"6.	c #8E7E00",
"7.	c #1B1800",
"8.	c #756900",
"9.	c #C4AF00",
"0.	c #C6B000",
"a.	c #BBA700",
"b.	c #AC9900",
"c.	c #A79400",
"d.	c #A08E00",
"e.	c #978700",
"f.	c #8C7C00",
"g.	c #746700",
"h.	c #BDA800",
"i.	c #B4A100",
"j.	c #A69400",
"k.	c #9F8D00",
"l.	c #968500",
"m.	c #8A7B00",
"n.	c #645900",
"o.	c #C1AB00",
"p.	c #C4AE00",
"q.	c #B8A300",
"r.	c #B09C00",
"s.	c #A59300",
"t.	c #9E8C00",
"u.	c #877800",
"v.	c #534A00",
"w.	c #9F8E00",
"x.	c #AF9C00",
"y.	c #AA9800",
"z.	c #857600",
"A.	c #433C00",
"B.	c #928200",
"C.	c #B39F00",
"D.	c #AA9700",
"E.	c #827300",
"F.	c #B19E00",
"G.	c #BDA900",
"H.	c #AF9B00",
"I.	c #A99700",
"J.	c #7E7000",
"K.	c #1C1900",
"L.	c #776900",
"M.	c #998800",
"N.	c #B7A200",
"O.	c #A18F00",
"P.	c #988700",
"Q.	c #8B7C00",
"R.	c #665B00",
"S.	c #968600",
"T.	c #897A00",
"U.	c #554C00",
"V.	c #B5A200",
"W.	c #BAA500",
"X.	c #958400",
"Y.	c #443D00",
"Z.	c #A69300",
"`.	c #332D00",
" +	c #867800",
".+	c #7F7100",
"++	c #1D1A00",
"@+	c #786A00",
"#+	c #BCA800",
"$+	c #8F7F00",
"%+	c #8D7D00",
"&+	c #685C00",
"*+	c #574D00",
"=+	c #C9B200",
"-+	c #887900",
";+	c #413A00",
">+	c #958500",
",+	c #151300",
"'+	c #A59200",
")+	c #B3A000",
"!+	c #4A4200",
"~+	c #5B5100",
"{+	c #817300",
"]+	c #5E5400",
"^+	c #8F8000",
"/+	c #948300",
"(+	c #6A5E00",
"_+	c #2C2700",
":+	c #3B3400",
"<+	c #322D00",
"                                                                                ",
"                              . + @ @ # $ @ % &                                 ",
"                    # * = - - - - - - - - - - - - - ; > , '                     ",
"              , ) - - - - - - - - - - - - - - - - - - - - - - ! ~               ",
"          { ] - - - - - - - - - - - - - - - - - - - - - - - - - - ^             ",
"        / - - - - - - - - - - - - - - - - - - - - - - - - - - - - - (           ",
"        ( - - - - - - - - - - - - - - - - - - - - - - - - - - - - - - _         ",
"        : - - - - - - - - - - - - - - - - - - - - - - - - - - - - - - <         ",
"        [ } - - - - - - - - - - - - - - - - - - - - - - - - - - - - | 1         ",
"        2 3 4 5 - - - - - - - - - - - - - - - - - - - - - - - - 6 7 8 9         ",
"        0 a b c d e ] - - - - - - - - - - - - - - - - - - f g h i j k           ",
"          l m n o p q r s t u v w ; - - - - 5 x y z A B C D E F G H I           ",
"          J K n o L M N O P P P q Q q R S M T U n V m W a X Y Z `  ...          ",
"          +.@.#.U T $.N O P P P P P S %.$.p &.U n *.m =.-.X ;.>.,.'.).          ",
"          ,.W !.U T $.%.O P P P P R S %.$.p &.~.n V K =.{.].^./.(._.:.          ",
"          <.[.V }.|.$.%.O P P P P R S %.$.p &.}.n 1.K 2.{.3.4.5.6.8 7.          ",
"          8.a 1.}.&.9.0.O P P P P O S %.$.L &.}.a.1.K 2.b.c.d.e.f.g.            ",
"            b.b h.&.9.0.O P P P P O S %.$.p &.}.a.1.i.[.b.j.k.l.m.n.            ",
"            J m h.o.p.0.O P P P P O N %.$.L o }.#.q.@.r.D s.t.G u.v.            ",
"            w.K n o p.0.S O P P P O N %.9.L o }.#.q.@.x.y.E Z ` z.A.            ",
"            B.C.#.o p 0.N O P P P O N %.9.L o }.#.b @.x.D.E >.,.E.1             ",
"            z.F.!.U p M N O P P P O N %.9.L o G.#.b C.H.I.Y /.(.J.K.            ",
"            L.x.V U T $.N O P P P O N %.9.L o G.!.b C.a X ;.M.6.L.              ",
"              {.1.}.T $.N O P P P O N 0.9.L o h.!.N.W a ].O.P.Q.R.              ",
"              I.b G.|.$.N O P P P O N 0.9.T o h.!.m W {.3.d.S.T.U.              ",
"              O.V.h.&.9.%.O P P P O N 0.9.T o h.W.m =.{.c.k.X. .Y.              ",
"              ` @.n &.9.0.O P P P O N 0.9.T o h.W.m F.b.Z.t.` '.`.              ",
"               +W #.o p.0.O P P P O S 0.9.T o h.V K 2.l s.Z ,..+++              ",
"              @+[.!.o p 0.S P P P O S 0.9.T o #+V K [.D E >.$+@+                ",
"                a V U p 0.O P P P O S 0.9.T o #+*.K r.D.Y /.%+&+                ",
"                y.1.U L M S P P P O S 0.9.T U n *.@.x.I.;.P.m.*+                ",
"                t.N.}.T M N O P P =+S 0.9.T U n 1.@.H.X O.i -+;+                ",
"                8 K h.|.$.N O P P O S 0.9.T U n 1.@.a ].d.>+.+,+                ",
"                  '+h.&.$.N O P P O S 0.p.T U a.q.)+a 3.+.` !+                  ",
"                    2.&.9.N O P P O O 0.p.T U n q.C.{.j.F I                     ",
"                      j.p.N O P P =+O 0.p.|.U a.b W {.;.~+                      ",
"                        g.m O P P P O 0.p.|.U #.b [.{+:.                        ",
"                            ]+^+r.9.N 0.p.o.@./+(+_+                            ",
"                                      :+<+                                      ",
"                                                                                "};
