/* XPM */
static char * DesignSize_xpm[] = {
"32 32 402 2",
"  	c None",
". 	c #959597",
"+ 	c #A5A5AB",
"@ 	c #A6A6AB",
"# 	c #A7A7AB",
"$ 	c #A7A7AC",
"% 	c #A8A8AC",
"& 	c #A9A9AC",
"* 	c #AAAAAC",
"= 	c #AAAAAD",
"- 	c #ABABAD",
"; 	c #ACACAD",
"> 	c #ACACAE",
", 	c #ADADAE",
"' 	c #AEAEAE",
") 	c #AFAFAF",
"! 	c #A4A4A4",
"~ 	c #959599",
"{ 	c #DDDDE5",
"] 	c #FBFBFB",
"^ 	c #FFFFFF",
"/ 	c #FEFEFE",
"( 	c #FDFDFD",
"_ 	c #FCFCFC",
": 	c #FAFAFA",
"< 	c #F9F9F9",
"[ 	c #ECECEC",
"} 	c #B6B6B6",
"| 	c #B9B9C5",
"1 	c #E5E5E6",
"2 	c #838383",
"3 	c #C5C5D2",
"4 	c #E2E2F3",
"5 	c #CFCFEB",
"6 	c #D1D1EC",
"7 	c #D2D2EC",
"8 	c #D3D3ED",
"9 	c #D5D5ED",
"0 	c #D6D6ED",
"a 	c #D7D7EE",
"b 	c #D8D8EE",
"c 	c #DADAEF",
"d 	c #DBDBEF",
"e 	c #DCDCF0",
"f 	c #DDDDF1",
"g 	c #DFDFF1",
"h 	c #E0E0F1",
"i 	c #E1E1F2",
"j 	c #E2E2F2",
"k 	c #E3E3F3",
"l 	c #E4E4F3",
"m 	c #E6E6F4",
"n 	c #E7E7F4",
"o 	c #E8E8F4",
"p 	c #E9E9F5",
"q 	c #EAEAF5",
"r 	c #EEEEF6",
"s 	c #F7F7F7",
"t 	c #DEDEDF",
"u 	c #7E7E81",
"v 	c #C0C0CF",
"w 	c #B9B9E2",
"x 	c #C2C2E6",
"y 	c #C3C3E6",
"z 	c #C5C5E7",
"A 	c #C7C7E7",
"B 	c #C8C8E8",
"C 	c #C9C9E8",
"D 	c #CBCBE9",
"E 	c #CCCCEA",
"F 	c #CECEEA",
"G 	c #D6D6EE",
"H 	c #D9D9EF",
"I 	c #E0E0F2",
"J 	c #E2E2F1",
"K 	c #F3F3F3",
"L 	c #D8D8D9",
"M 	c #7B7B80",
"N 	c #BBBBCD",
"O 	c #CACAE8",
"P 	c #A3A3D9",
"Q 	c #C6C6E7",
"R 	c #EDEDF7",
"S 	c #DEDEF1",
"T 	c #CDCDEA",
"U 	c #C0C0E5",
"V 	c #BFBFE4",
"W 	c #C1C1E5",
"X 	c #C4C4E7",
"Y 	c #C7C7E8",
"Z 	c #CACAE9",
"` 	c #CCCCE9",
" .	c #CECEEB",
"..	c #D0D0EB",
"+.	c #D4D4ED",
"@.	c #D5D5EE",
"#.	c #D6D6EB",
"$.	c #E9E9E9",
"%.	c #CFCFD1",
"&.	c #78787E",
"*.	c #B7B7CB",
"=.	c #C2C2E5",
"-.	c #9595D4",
";.	c #9797D5",
">.	c #DFDFF2",
",.	c #FDFDFE",
"'.	c #EFEFF8",
").	c #BDBDE4",
"!.	c #BBBBE3",
"~.	c #BCBCE3",
"{.	c #BEBEE4",
"].	c #C4C4E6",
"^.	c #CCCCE6",
"/.	c #E8E8E8",
"(.	c #CECED0",
"_.	c #74747D",
":.	c #B2B2C9",
"<.	c #BABAE2",
"[.	c #8787CE",
"}.	c #8989CF",
"|.	c #9494D4",
"1.	c #F4F4FA",
"2.	c #F1F1F9",
"3.	c #FCFCFE",
"4.	c #B0B0DE",
"5.	c #B1B1DF",
"6.	c #B3B3E0",
"7.	c #B4B4E1",
"8.	c #B6B6E1",
"9.	c #B8B8E2",
"0.	c #BABAE3",
"a.	c #C2C2E2",
"b.	c #E7E7E7",
"c.	c #CCCCCF",
"d.	c #71717C",
"e.	c #ADADC8",
"f.	c #7878C9",
"g.	c #7A7ACA",
"h.	c #7C7CCA",
"i.	c #A3A3DA",
"j.	c #F7F7FC",
"k.	c #A5A5DA",
"l.	c #A7A7DB",
"m.	c #A8A8DB",
"n.	c #A9A9DC",
"o.	c #ABABDD",
"p.	c #ACACDD",
"q.	c #AEAEDD",
"r.	c #AFAFDE",
"s.	c #B2B2DF",
"t.	c #B4B4E0",
"u.	c #B5B5E1",
"v.	c #B7B7DE",
"w.	c #E5E5E5",
"x.	c #CACACD",
"y.	c #6E6E7A",
"z.	c #A8A8C6",
"A.	c #6969C3",
"B.	c #6B6BC4",
"C.	c #6D6DC5",
"D.	c #7070C5",
"E.	c #C3C3E7",
"F.	c #FCFCFD",
"G.	c #A1A1D9",
"H.	c #9A9AD6",
"I.	c #9C9CD6",
"J.	c #9E9ED7",
"K.	c #9F9FD7",
"L.	c #A0A0D8",
"M.	c #A2A2D8",
"N.	c #A4A4DA",
"O.	c #A6A6DB",
"P.	c #AAAADC",
"Q.	c #ADADDA",
"R.	c #E3E3E3",
"S.	c #C8C8CC",
"T.	c #6A6A79",
"U.	c #A4A4C4",
"V.	c #5A5ABD",
"W.	c #5C5CBE",
"X.	c #5E5EBF",
"Y.	c #6060C0",
"Z.	c #6868C3",
"`.	c #E5E5F4",
" +	c #CFCFEC",
".+	c #9A9AD7",
"++	c #F2F2F9",
"@+	c #F6F6FB",
"#+	c #7878C8",
"$+	c #7B7BCA",
"%+	c #8080CC",
"&+	c #9696D4",
"*+	c #9D9DD7",
"=+	c #9F9FD8",
"-+	c #A3A3D5",
";+	c #E2E2E2",
">+	c #C6C6CA",
",+	c #676778",
"'+	c #9F9FC2",
")+	c #4949B8",
"!+	c #4B4BB9",
"~+	c #4E4EBA",
"{+	c #5050BA",
"]+	c #5252BB",
"^+	c #7575C9",
"/+	c #7676C8",
"(+	c #C6C6E8",
"_+	c #6767C3",
":+	c #8585CE",
"<+	c #7272C6",
"[+	c #8282CD",
"}+	c #9393D3",
"|+	c #9494D3",
"1+	c #9A9AD2",
"2+	c #E0E0E0",
"3+	c #C4C4C9",
"4+	c #636376",
"5+	c #9999C0",
"6+	c #8D8DD1",
"7+	c #3838B2",
"8+	c #3A3AB3",
"9+	c #3D3DB4",
"0+	c #3F3FB5",
"a+	c #4242B5",
"b+	c #4444B6",
"c+	c #5353BC",
"d+	c #4848B7",
"e+	c #4A4AB8",
"f+	c #4C4CB9",
"g+	c #8585CF",
"h+	c #EEEEF8",
"i+	c #9D9DD8",
"j+	c #5A5ABE",
"k+	c #DCDCF1",
"l+	c #6161C0",
"m+	c #6262C1",
"n+	c #6464C1",
"o+	c #8F8FCD",
"p+	c #DFDFDF",
"q+	c #C2C2C8",
"r+	c #606075",
"s+	c #9393BE",
"t+	c #8383CE",
"u+	c #2626AD",
"v+	c #2828AD",
"w+	c #2B2BAE",
"x+	c #2D2DAF",
"y+	c #3030AF",
"z+	c #3232B0",
"A+	c #3535B1",
"B+	c #3737B2",
"C+	c #3939B3",
"D+	c #3C3CB4",
"E+	c #3E3EB4",
"F+	c #4D4DBA",
"G+	c #B8B8E3",
"H+	c #8484CE",
"I+	c #FAFAFD",
"J+	c #5454BC",
"K+	c #5858BD",
"L+	c #7979C9",
"M+	c #8484C9",
"N+	c #DDDDDD",
"O+	c #C0C0C6",
"P+	c #5C5C73",
"Q+	c #8D8DBC",
"R+	c #F8F8F8",
"S+	c #7676CA",
"T+	c #1111A7",
"U+	c #1515A7",
"V+	c #1717A8",
"W+	c #1A1AA9",
"X+	c #1D1DAA",
"Y+	c #2020AB",
"Z+	c #2222AB",
"`+	c #2525AC",
" @	c #2727AD",
".@	c #2A2AAD",
"+@	c #2C2CAE",
"@@	c #2F2FAF",
"#@	c #3131B0",
"$@	c #6E6EC7",
"%@	c #E7E7F5",
"&@	c #F7F7FB",
"*@	c #F8F8FC",
"=@	c #6161C1",
"-@	c #4646B7",
";@	c #5D5DBF",
">@	c #7979C5",
",@	c #DCDCDC",
"'@	c #BEBEC5",
")@	c #585872",
"!@	c #8A8ABB",
"~@	c #F5F5F5",
"{@	c #6D6DC7",
"]@	c #0000A4",
"^@	c #0101A4",
"/@	c #0303A4",
"(@	c #0404A4",
"_@	c #0707A4",
":@	c #0909A5",
"<@	c #0D0DA6",
"[@	c #1010A6",
"}@	c #1313A7",
"|@	c #1616A8",
"1@	c #1919A9",
"2@	c #1C1CAA",
"3@	c #3939B4",
"4@	c #A2A2DB",
"5@	c #7B7BCC",
"6@	c #BEBEE5",
"7@	c #D8D8EF",
"8@	c #4141B5",
"9@	c #6D6DC1",
"0@	c #DADADA",
"a@	c #BCBCC3",
"b@	c #545471",
"c@	c #8888B9",
"d@	c #F2F2F2",
"e@	c #6B6BC6",
"f@	c #0202A4",
"g@	c #0606A4",
"h@	c #3535B4",
"i@	c #BEBEE6",
"j@	c #9999D8",
"k@	c #2626AC",
"l@	c #5F5FBC",
"m@	c #D9D9D9",
"n@	c #BABAC2",
"o@	c #4F4F6F",
"p@	c #8787B8",
"q@	c #EFEFEF",
"r@	c #6A6AC4",
"s@	c #0505A5",
"t@	c #3A3AB7",
"u@	c #7676CD",
"v@	c #B4B4E3",
"w@	c #4C4CBC",
"x@	c #4C4CB5",
"y@	c #D7D7D7",
"z@	c #B8B8C0",
"A@	c #4B4B6E",
"B@	c #8686B7",
"C@	c #EBEBEB",
"D@	c #6868C2",
"E@	c #2F2FB4",
"F@	c #6C6CC9",
"G@	c #8D8DD4",
"H@	c #0404A5",
"I@	c #3B3BB1",
"J@	c #B7B7C0",
"K@	c #45456D",
"L@	c #8484B5",
"M@	c #E6E6E6",
"N@	c #6666C1",
"O@	c #3737B1",
"P@	c #44446D",
"Q@	c #7F7FB2",
"R@	c #E4E4E4",
"S@	c #B6B6D6",
"T@	c #9191CB",
"U@	c #9090CB",
"V@	c #9090CA",
"W@	c #8F8FCA",
"X@	c #8F8FC9",
"Y@	c #8E8EC8",
"Z@	c #8D8DC7",
"`@	c #8C8CC6",
" #	c #8B8BC5",
".#	c #8A8AC4",
"+#	c #8A8AC3",
"@#	c #8989C3",
"##	c #9D9DC8",
"$#	c #ADADC0",
"%#	c #4B4B6B",
"&#	c #676797",
"*#	c #CECEDB",
"=#	c #E1E1E1",
"-#	c #DEDEDE",
";#	c #DBDBDB",
">#	c #D8D8D8",
",#	c #D6D6D6",
"'#	c #6D6DA8",
")#	c #67679B",
"!#	c #9595C3",
"~#	c #9595C2",
"{#	c #9494C2",
"]#	c #9494C1",
"^#	c #9393C1",
"/#	c #9393C0",
"(#	c #9292BF",
"_#	c #9191BF",
":#	c #9191BE",
"<#	c #9090BE",
"[#	c #9090BD",
"}#	c #8F8FBD",
"|#	c #8B8BBA",
"1#	c #6A6AA4",
"2#	c #5E5E71",
"3#	c #727279",
"4#	c #616161",
"5#	c #575757",
"                                                                ",
"                                                                ",
"                                                                ",
"                                                                ",
"    . + @ @ # $ % & & * = - - ; > , , ' ' ' ' ' ' ' ' ) !       ",
"  ~ { ] ^ ^ ^ / / ( ( ( ( ( ( _ _ _ _ ] ] ] : : : : : < [ }     ",
"  | ^ ^ / / / / ( ( ( ( ( ( ( _ _ _ _ ] ] ] ] : : : : < < 1 2   ",
"  3 / 4 5 6 7 8 9 0 a b c d e f g h i j k l m n o p q r s t u   ",
"  v / 7 w x y z A B C D E F 5 6 7 8 9 G b H c e f g I J K L M   ",
"  N ( O P Q R S T U V U W y X Q Y B Z ` T  ...6 7 +.@.#.$.%.&.  ",
"  *.( =.-.;.>.^ ^ ,.'.S T ).w !.~.{.V W x ].z A B C D ^./.(._.  ",
"  :.( <.[.}.|.1.^ ^ ^ 2.3./ e 4.5.6.7.8.9.w 0.~.).V U a.b.c.d.  ",
"  e._ 5.f.g.h.i./ ^ ^ j.A w 8.k.l.m.n.o.p.q.r.5.s.t.u.v.w.x.y.  ",
"  z._ n.A.B.C.D.E.F.S ^ ^ >.G.H.I.J.K.L.M.P N.O.l.n.P.Q.R.S.T.  ",
"  U.] L.V.W.X.Y.Z.`. +.+++^ @+P.#+#+#+f.$+%+}.&+*+J.=+-+;+>+,+  ",
"  '+] ;.)+!+~+{+]+^+@+/+Z.(+^ ^ @.f._+A.:+$+D.<+[+}+|+1+2+3+4+  ",
"  5+: 6+7+8+9+0+a+b+c+d+e+f+g+h+^ @+i+j+k+6 l+m+n+f.}.o+p+q+r+  ",
"  s+< t+u+v+w+x+y+z+A+B+C+D+E+F+G+^ ^ 8 H+I+.+]+J+K+L+M+N+O+P+  ",
"  Q+R+S+T+U+V+W+X+Y+Z+`+ @.@+@@@#@$@%@^ &@k *@=@b+-@;@>@,@'@)@  ",
"  !@~@{@]@^@/@(@_@:@<@[@}@|@1@2@3@4@5@6@/ ^ ^ 7@B+A+8@9@0@a@b@  ",
"  c@d@e@]@]@]@]@]@]@]@]@^@f@(@g@h@i@1.^ 3.^ ^ ^ j@Z+k@l@m@n@o@  ",
"  p@q@r@]@]@]@]@]@]@]@]@]@]@]@]@]@]@s@t@u@v@'.^ 3.w@[@x@y@z@A@  ",
"  B@C@D@]@]@]@]@]@]@]@]@]@]@]@]@]@]@]@]@]@]@f@E@F@G@H@I@y@J@K@  ",
"  L@M@N@]@]@]@]@]@]@]@]@]@]@]@]@]@]@]@]@]@]@]@]@]@]@]@O@y@J@P@  ",
"  Q@R@S@T@T@U@V@W@X@Y@Y@Z@Z@Z@`@`@ # #.#.#+#+#@#@#@#@###y@$#%#  ",
"  &#*#;+;+=#2+2+p+-#N+N+,@,@;#0@m@m@>#y@y@y@y@y@y@y@y@y@,#'#    ",
"    )#!@!#~#{#]#^#/#/#/#(#_#_#:#<#[#}#}#}#}#}#}#}#}#}#|#1#2#    ",
"      3#4#4#4#4#4#4#4#4#4#4#4#4#4#4#4#4#4#4#4#4#4#4#4#5#        ",
"                                                                ",
"                                                                ",
"                                                                ",
"                                                                "};
