/* XPM */
static char * DesignSize_xpm[] = {
"26 26 103 2",
"  	c None",
". 	c #FCFEFE",
"+ 	c #EAF4FA",
"@ 	c #E7F3FA",
"# 	c #EAF5FB",
"$ 	c #6BB3DF",
"% 	c #56A8DA",
"& 	c #56A7DA",
"* 	c #419DD6",
"= 	c #53A6DA",
"- 	c #52A5D9",
"; 	c #429CD5",
"> 	c #57A8DA",
", 	c #53A6D9",
"' 	c #D2E8F5",
") 	c #E6F1F9",
"! 	c #E5F1F8",
"~ 	c #D1E6F4",
"{ 	c #54A6D9",
"] 	c #57A7D9",
"^ 	c #FFFFFF",
"/ 	c #FAFAFA",
"( 	c #E6E6E6",
"_ 	c #E4E4E4",
": 	c #EFEFEF",
"< 	c #FDFDFD",
"[ 	c #58A8D9",
"} 	c #E7F2F9",
"| 	c #ACACAC",
"1 	c #454545",
"2 	c #404040",
"3 	c #424242",
"4 	c #414141",
"5 	c #6F6F6F",
"6 	c #E6F1F8",
"7 	c #A9A9A9",
"8 	c #2E2E2E",
"9 	c #262626",
"0 	c #282828",
"a 	c #272727",
"b 	c #E3E3E3",
"c 	c #E5F0F8",
"d 	c #FEFEFE",
"e 	c #F3F3F3",
"f 	c #8C8C8C",
"g 	c #2B2B2B",
"h 	c #E2E2E2",
"i 	c #58A7D9",
"j 	c #F5F5F5",
"k 	c #8E8E8E",
"l 	c #2C2C2C",
"m 	c #F7F7F7",
"n 	c #F6F6F6",
"o 	c #949494",
"p 	c #313131",
"q 	c #434343",
"r 	c #58A8DA",
"s 	c #444444",
"t 	c #2F2F2F",
"u 	c #8D8D8D",
"v 	c #252525",
"w 	c #2A2A2A",
"x 	c #323232",
"y 	c #474747",
"z 	c #59A8DA",
"A 	c #FCFCFC",
"B 	c #303030",
"C 	c #F4F4F4",
"D 	c #AAAAAA",
"E 	c #ADADAD",
"F 	c #56A7D9",
"G 	c #2D2D2D",
"H 	c #E7F2FA",
"I 	c #E9F2F8",
"J 	c #6DB3DE",
"K 	c #6CB2DD",
"L 	c #E9F2F9",
"M 	c #F8FBFC",
"N 	c #D4E8F4",
"O 	c #E3F0F8",
"P 	c #E5F0F7",
"Q 	c #DAE4EA",
"R 	c #6C6D6E",
"S 	c #ABABAB",
"T 	c #E9F3F9",
"U 	c #6CB2DE",
"V 	c #57A7DA",
"W 	c #6BB2DE",
"X 	c #D9E4EA",
"Y 	c #E1E1E1",
"Z 	c #F8F8F8",
"` 	c #439DD5",
" .	c #54A6D8",
"..	c #439CD4",
"+.	c #E6F2F9",
"@.	c #54A5D8",
"#.	c #D1E6F3",
"$.	c #D0E6F4",
"%.	c #D0E6F3",
"&.	c #E4F1F9",
"*.	c #D2E8F6",
"=.	c #D5E9F6",
"-.	c #F9FCFE",
". + @ @ @ @ @ @ @ @ @ @ @ @ @ @ @ @ @ @ @ @ @ @ + . ",
"# $ % % % % % % % % % % % % % % % % % % % % % & $ # ",
"@ % * = % % % % % % % % % % % % % % % % & & - ; > @ ",
"@ % , ' @ @ @ @ @ @ @ @ @ @ @ @ @ @ @ @ ) ! ~ { ] @ ",
"@ % % @ ^ ^ ^ ^ ^ ^ ^ ^ ^ / ( _ _ _ _ _ : < ! ] [ } ",
"@ % % @ ^ ^ ^ ^ ^ ^ ^ ^ ^ | 1 2 2 3 3 4 5 : ) ] ] 6 ",
"@ % % @ ^ ^ ^ ^ ^ ^ ^ ^ ^ 7 8 9 9 0 a a 3 b c ] ] 6 ",
"@ % % @ ^ ^ ^ ^ ^ ^ d < < e f g 9 9 0 9 4 h 6 i ] ) ",
"@ % % @ ^ ^ ^ ^ d < < ^ ^ j k l 9 a a 0 4 b ! i ] ! ",
"@ % % @ ^ ^ ^ ^ m | 7 n j o p 9 9 a a a q b ) i r 6 ",
"@ % % @ ^ ^ ^ < ( s t k u t v 9 a g g 0 4 h ! i ] } ",
"@ % % @ ^ d ^ < _ 4 0 g w v a 0 x k u t y ( ! ] z @ ",
"@ % % @ d < d A h 3 v v a 0 0 B o j C D E m } > % @ ",
"@ % F ) < d < < b 2 9 0 0 0 G u C A < < A d @ % % @ ",
"H i [ 6 d < d < b 3 0 0 a 9 g k j d d ^ ^ ^ @ % % @ ",
"I J K L < d < < b q a 9 9 0 a t 7 A ^ ^ ^ ^ @ % % @ ",
"M N ~ O c P ) 6 Q R 4 3 q 4 2 s S < ^ ^ ^ ^ @ % % @ ",
"T U ] [ F F i V W X Y _ _ b b _ Z ^ ^ ^ ^ ^ @ % % @ ",
"! ] `  .[ ] { ..r ! < < < < < d ^ ^ ^ ^ ^ ^ @ % % @ ",
"+.] @.#.6 c $.{ i } ^ ^ ^ ^ ^ ^ ^ ^ ^ ^ ^ ^ @ % % @ ",
"6 ] ] 6 < d ! ] z @ ^ ^ ^ ^ ^ ^ ^ ^ ^ ^ ^ ^ @ % % @ ",
"H i i 6 d < } > % @ ^ ^ ^ ^ ^ ^ ^ ^ ^ ^ ^ ^ @ % % @ ",
"@ > @.%.c +.' , % &.+ @ @ @ @ @ @ @ @ @ @ @ ' , % @ ",
"@ % ` = & % = * % *.$ % % % % % % % % % % % = * % @ ",
"# $ % % % % % % $ =.$ % % % % % % % % % % % % % $ # ",
". + @ @ @ @ @ @ + -.+ @ @ @ @ @ @ @ @ @ @ @ @ @ + . "};
