/* XPM */
static const char * down_xpm[] = {
"32 32 340 2",
"  	c None",
". 	c #56A9BF",
"+ 	c #5DAFCA",
"@ 	c #6DADBE",
"# 	c #71ACBB",
"$ 	c #70ADBF",
"% 	c #70B0C2",
"& 	c #6FB0C1",
"* 	c #75B2C6",
"= 	c #63ABBE",
"- 	c #59A8BC",
"; 	c #63B0C3",
"> 	c #6CAABB",
", 	c #77ABBA",
"' 	c #76B0C0",
") 	c #74B4C4",
"! 	c #73B6C7",
"~ 	c #77B6C6",
"{ 	c #63ABBD",
"] 	c #57A6BA",
"^ 	c #66ACBE",
"/ 	c #69A5B8",
"( 	c #76A9B5",
"_ 	c #77AFBD",
": 	c #75B4C3",
"< 	c #75B8C7",
"[ 	c #79B7C9",
"} 	c #62ACBE",
"| 	c #55A3B8",
"1 	c #65A9BB",
"2 	c #6AA5B8",
"3 	c #72A7B6",
"4 	c #7AAEBB",
"5 	c #77B5C5",
"6 	c #75B7C8",
"7 	c #79B6C7",
"8 	c #66ADC1",
"9 	c #4EA2B8",
"0 	c #69A9BE",
"a 	c #69A7B8",
"b 	c #6BA6B7",
"c 	c #78AFBC",
"d 	c #78B5C4",
"e 	c #78BAC8",
"f 	c #7AB6C8",
"g 	c #66AFC1",
"h 	c #47A1B6",
"i 	c #68AABE",
"j 	c #69A6B8",
"k 	c #68A8BA",
"l 	c #71B1BE",
"m 	c #7BB7C3",
"n 	c #78B9C9",
"o 	c #7DB7C9",
"p 	c #67AEC0",
"q 	c #43A1B8",
"r 	c #6AABBF",
"s 	c #6AA7B7",
"t 	c #6BA9BA",
"u 	c #6BB3C1",
"v 	c #79BAC7",
"w 	c #7AB9C8",
"x 	c #81B7C8",
"y 	c #6CADC1",
"z 	c #3FA0BD",
"A 	c #6BACC0",
"B 	c #6BA7B9",
"C 	c #6AAABC",
"D 	c #6EB4C4",
"E 	c #72BFD0",
"F 	c #7AB8C9",
"G 	c #71B2C4",
"H 	c #58A4BD",
"I 	c #399EBA",
"J 	c #6CAFC1",
"K 	c #69A8BA",
"L 	c #6FACBE",
"M 	c #71B6C8",
"N 	c #57B3C7",
"O 	c #4FAFC8",
"P 	c #63ABC2",
"Q 	c #5CA3BD",
"R 	c #3AA0BE",
"S 	c #6CAEC1",
"T 	c #6FABBE",
"U 	c #64AABC",
"V 	c #48A2B5",
"W 	c #4DAFC6",
"X 	c #51B1CB",
"Y 	c #59AECC",
"Z 	c #53A4BB",
"` 	c #38A1BC",
" .	c #72B3C7",
"..	c #50A1B4",
"+.	c #4898AF",
"@.	c #4FA6BB",
"#.	c #52B3C6",
"$.	c #58B2CD",
"%.	c #60B0CE",
"&.	c #43A7C2",
"*.	c #3CA2BF",
"=.	c #4FA3BA",
"-.	c #4596B0",
";.	c #4C9CB3",
">.	c #51AABC",
",.	c #55B4C7",
"'.	c #5AB4CC",
").	c #63B3D0",
"!.	c #48A8C5",
"~.	c #2397B7",
"{.	c #469FBB",
"].	c #4A9DB4",
"^.	c #4F9FB5",
"/.	c #55ABBE",
"(.	c #59B6C8",
"_.	c #60B5CD",
":.	c #68B6D2",
"<.	c #4EAAC6",
"[.	c #1F99BB",
"}.	c #48A2B9",
"|.	c #4B9FB7",
"1.	c #51A1B7",
"2.	c #58AEC0",
"3.	c #5DB7C9",
"4.	c #66B7CF",
"5.	c #6CB8D1",
"6.	c #52ADC9",
"7.	c #209ABB",
"8.	c #49A4BC",
"9.	c #4DA2B9",
"0.	c #54A5BA",
"a.	c #58AFC2",
"b.	c #61BACC",
"c.	c #6AB8CF",
"d.	c #70BAD3",
"e.	c #57B1CD",
"f.	c #B3C0C2",
"g.	c #229CBF",
"h.	c #49A5BE",
"i.	c #50A5BD",
"j.	c #56A7BD",
"k.	c #5AB2C5",
"l.	c #63B9CC",
"m.	c #6FBBD2",
"n.	c #73BCD4",
"o.	c #5AB3CF",
"p.	c #A6ADB4",
"q.	c #A7C9DC",
"r.	c #43ACC0",
"s.	c #45AAC3",
"t.	c #47A8C6",
"u.	c #4CACC3",
"v.	c #3FA9BF",
"w.	c #3DA4C2",
"x.	c #4AA7C0",
"y.	c #51A8C0",
"z.	c #59ABC0",
"A.	c #5DB4C7",
"B.	c #67BACC",
"C.	c #73BDD4",
"D.	c #78BFD8",
"E.	c #5EB4CD",
"F.	c #519EBC",
"G.	c #54B5CB",
"H.	c #55ADC5",
"I.	c #56AEC9",
"J.	c #3CA5C1",
"K.	c #A1D2DF",
"L.	c #A7B6B4",
"M.	c #4EAECA",
"N.	c #3BA8C5",
"O.	c #43A9C6",
"P.	c #41A9C1",
"Q.	c #45A8C8",
"R.	c #40A9C6",
"S.	c #4BA9C3",
"T.	c #53ACC3",
"U.	c #5BADC2",
"V.	c #60B4C9",
"W.	c #6BBCCF",
"X.	c #76C0D5",
"Y.	c #79BFD7",
"Z.	c #76BED4",
"`.	c #75BDD3",
" +	c #79B7D0",
".+	c #71BAD0",
"++	c #47AEC5",
"@+	c #52B1CB",
"#+	c #B9CCD1",
"$+	c #CED8D9",
"%+	c #5398A8",
"&+	c #54B8CC",
"*+	c #3EA9C4",
"=+	c #45ABC7",
"-+	c #47AAC5",
";+	c #48ACC4",
">+	c #4DACC5",
",+	c #56AEC7",
"'+	c #5DB0C5",
")+	c #64B7CA",
"!+	c #6EBDD1",
"~+	c #7AC1D6",
"{+	c #7FC2D8",
"]+	c #7FC3D8",
"^+	c #7BC3D9",
"/+	c #7DC2D8",
"(+	c #61B4CC",
"_+	c #3EAAC6",
":+	c #62A8B5",
"<+	c #6CA1B4",
"[+	c #5893A3",
"}+	c #5EA7BC",
"|+	c #44AEC4",
"1+	c #49AEC6",
"2+	c #49ADC5",
"3+	c #4EAEC8",
"4+	c #51AFC8",
"5+	c #58B0C9",
"6+	c #5EB2C7",
"7+	c #66B8CB",
"8+	c #71BFD1",
"9+	c #7CC3D7",
"0+	c #7FC2D7",
"a+	c #81C3D9",
"b+	c #81C6DA",
"c+	c #6EBAD2",
"d+	c #38A8C5",
"e+	c #8FC8D7",
"f+	c #398DA4",
"g+	c #E9E6E5",
"h+	c #5999A9",
"i+	c #72BBCE",
"j+	c #3CA5C3",
"k+	c #51B0CB",
"l+	c #4FB0C7",
"m+	c #55B1CA",
"n+	c #5AB2CA",
"o+	c #61B4CB",
"p+	c #69B9CD",
"q+	c #75C0D3",
"r+	c #7CC3D6",
"s+	c #81C3D8",
"t+	c #81C4D9",
"u+	c #78B9D8",
"v+	c #4BB1C7",
"w+	c #7FC4D2",
"x+	c #3AA0B6",
"y+	c #D1DEDE",
"z+	c #4DA6B8",
"A+	c #6FBFD1",
"B+	c #48AEC5",
"C+	c #55B2CE",
"D+	c #58B3CA",
"E+	c #5EB4CB",
"F+	c #62B6CB",
"G+	c #6CBCCF",
"H+	c #7CC4D7",
"I+	c #7FC4D7",
"J+	c #78C1D6",
"K+	c #4DB1C3",
"L+	c #69BAD6",
"M+	c #4BB0C6",
"N+	c #A0BDC2",
"O+	c #C4CCD1",
"P+	c #3CA9C2",
"Q+	c #6BBFD1",
"R+	c #44AAC4",
"S+	c #5BB7CD",
"T+	c #61B5CD",
"U+	c #65B9CD",
"V+	c #6DBDCF",
"W+	c #75C1D6",
"X+	c #7BC2D5",
"Y+	c #7BC2D8",
"Z+	c #59B4CC",
"`+	c #7AC6D5",
" @	c #5FB4CA",
".@	c #94BDC8",
"+@	c #A1BBBE",
"@@	c #55B0C5",
"#@	c #66B8D1",
"$@	c #5AB3CE",
"%@	c #65BACF",
"&@	c #67BACE",
"*@	c #6FBED0",
"=@	c #76C0D3",
"-@	c #7CC5D8",
";@	c #66B8D0",
">@	c #53ACCA",
",@	c #6DB7CD",
"'@	c #65AAC0",
")@	c #75A7BA",
"!@	c #5EB6CB",
"~@	c #57B0CA",
"{@	c #65BBCF",
"]@	c #6ABACF",
"^@	c #70C0D1",
"/@	c #75C2D6",
"(@	c #6EBAD4",
"_@	c #54AEC8",
":@	c #83C3D4",
"<@	c #4B9BB4",
"[@	c #62A2B6",
"}@	c #69B9CF",
"|@	c #54ADCB",
"1@	c #6ABDD1",
"2@	c #72BED3",
"3@	c #72C0D6",
"4@	c #59ABC9",
"5@	c #88CADA",
"6@	c #57A7C2",
"7@	c #D1D8DC",
"8@	c #D6DFE1",
"9@	c #6AB2C9",
"0@	c #74BCD1",
"a@	c #5AB1CD",
"b@	c #76BED5",
"c@	c #50A7CB",
"d@	c #7BC6D3",
"e@	c #6CB3CE",
"f@	c #B5C8C9",
"g@	c #AEBFC2",
"h@	c #7BC0D5",
"i@	c #6AB9D1",
"j@	c #5BB1CA",
"k@	c #6BBFCD",
"l@	c #A1D0E5",
"m@	c #A0C2C5",
"n@	c #B2C2C8",
"o@	c #9AD4E2",
"p@	c #6DB9D2",
"q@	c #90C7DA",
"r@	c #95C3CC",
"s@	c #93B8C3",
"t@	c #7AB2C2",
"u@	c #71A1B0",
"v@	c #D7DEDF",
"w@	c #E7EDEF",
"x@	c #99B4BF",
"y@	c #D8E2E4",
"                                                                ",
"                        . + @ # $ % & * =                       ",
"                        - ; > , ' ) ! ~ {                       ",
"                        ] ^ / ( _ : < [ }                       ",
"                        | 1 2 3 4 5 6 7 8                       ",
"                        9 0 a b c d e f g                       ",
"                        h i j k l m n o p                       ",
"                        q r s t u v w x y                       ",
"                        z A B C D E F G H                       ",
"                        I J K L M N O P Q                       ",
"                        R S T U V W X Y Z                       ",
"                        `  ...+.@.#.$.%.&.                      ",
"                        *.=.-.;.>.,.'.).!.                      ",
"                        ~.{.].^./.(._.:.<.                      ",
"                        [.}.|.1.2.3.4.5.6.                      ",
"                        7.8.9.0.a.b.c.d.e.f.                    ",
"                        g.h.i.j.k.l.m.n.o.p.                    ",
"            q.r.s.t.u.v.w.x.y.z.A.B.C.D.E.F.G.H.I.J.K.          ",
"            L.M.N.O.P.Q.R.S.T.U.V.W.X.Y.Z.`. +.+++@+#+          ",
"            $+%+&+*+=+-+;+>+,+'+)+!+~+{+]+^+/+(+_+:+<+          ",
"              [+}+|+1+2+3+4+5+6+7+8+9+0+a+b+c+d+e+f+g+          ",
"                h+i+j+k+l+m+n+o+p+q+r+s+t+u+v+w+x+y+            ",
"                  z+A+B+C+D+E+F+G+q+H+I+J+K+L+M+N+              ",
"                  O+P+Q+R+S+T+U+V+W+X+Y+Z+`+ @.@                ",
"                    +@@@#@$@%@&@*@=@-@;@>@,@'@                  ",
"                      )@!@~@{@]@^@/@(@_@:@<@                    ",
"                        [@}@|@1@2@3@4@5@6@7@                    ",
"                        8@9@0@a@b@c@d@e@f@                      ",
"                          g@h@i@j@k@l@m@                        ",
"                            n@o@p@q@r@                          ",
"                              s@t@u@v@                          ",
"                              w@x@y@                            "};
