/* XPM */
static char * erase_xpm[] = {
"32 32 195 2",
"  	c None",
". 	c #FEFEFE",
"+ 	c #FFFFFF",
"@ 	c #FDFDFD",
"# 	c #ECECEC",
"$ 	c #E4E4E4",
"% 	c #B3B3B3",
"& 	c #505050",
"* 	c #404040",
"= 	c #252525",
"- 	c #272727",
"; 	c #515151",
"> 	c #262626",
", 	c #282828",
"' 	c #EDEDED",
") 	c #B2B2B2",
"! 	c #393939",
"~ 	c #383838",
"{ 	c #434343",
"] 	c #3A3A3A",
"^ 	c #F9F9F9",
"/ 	c #6C6C6C",
"( 	c #A0A0A0",
"_ 	c #E2E2E2",
": 	c #E3E3E3",
"< 	c #2A2A2A",
"[ 	c #F8F8F8",
"} 	c #858585",
"| 	c #9C9C9C",
"1 	c #9B9B9B",
"2 	c #292929",
"3 	c #868686",
"4 	c #9F9F9F",
"5 	c #828282",
"6 	c #FCFCFC",
"7 	c #838383",
"8 	c #9E9E9E",
"9 	c #B7B7B7",
"0 	c #6B6B6B",
"a 	c #FAFAFA",
"b 	c #FDFEFE",
"c 	c #F4F8FB",
"d 	c #F9FBFB",
"e 	c #2C2C2C",
"f 	c #B8B8B8",
"g 	c #CBCBCB",
"h 	c #303030",
"i 	c #575757",
"j 	c #F3F3F3",
"k 	c #FCFDFE",
"l 	c #C8E2F2",
"m 	c #90C4E5",
"n 	c #6FB4DE",
"o 	c #9ECCEA",
"p 	c #E6F1F8",
"q 	c #F1F1F1",
"r 	c #585858",
"s 	c #323232",
"t 	c #C9C9C9",
"u 	c #DCDCDC",
"v 	c #3B3B3B",
"w 	c #464646",
"x 	c #E8E8E8",
"y 	c #F8FBFD",
"z 	c #C3E0F2",
"A 	c #D8EAF5",
"B 	c #78B8E0",
"C 	c #3F9BD5",
"D 	c #3E9BD5",
"E 	c #479FD5",
"F 	c #A5D0EA",
"G 	c #FAFBFC",
"H 	c #E7E7E7",
"I 	c #484848",
"J 	c #3C3C3C",
"K 	c #E9E9E9",
"L 	c #D9D9D9",
"M 	c #9FCDE9",
"N 	c #4CA1D6",
"O 	c #A7D1EB",
"P 	c #9CCBE9",
"Q 	c #3F9BD4",
"R 	c #3F9AD3",
"S 	c #459DD4",
"T 	c #91C4E4",
"U 	c #D8D8D8",
"V 	c #494949",
"W 	c #F4F4F4",
"X 	c #595959",
"Y 	c #C8C8C8",
"Z 	c #C0DDF0",
"` 	c #4BA1D7",
" .	c #4EA3D8",
"..	c #B9DAEF",
"+.	c #D5E8F4",
"@.	c #63ADDB",
"#.	c #499FD4",
"$.	c #479FD6",
"%.	c #B4D8EE",
"&.	c #FCFCFD",
"*.	c #5A5A5A",
"=.	c #6E6E6E",
"-.	c #FBFCFD",
";.	c #EEF5F9",
">.	c #7CBBE2",
",.	c #419CD5",
"'.	c #98C9E7",
").	c #F5F8FA",
"!.	c #E3EFF6",
"~.	c #AED4EC",
"{.	c #9ECCE9",
"].	c #449DD5",
"^.	c #71B4DE",
"/.	c #F3F8FB",
"(.	c #2B2B2B",
"_.	c #FBFBFB",
":.	c #EDF5FA",
"<.	c #85BFE3",
"[.	c #51A4D8",
"}.	c #73B5DE",
"|.	c #E4F0F7",
"1.	c #E2EFF7",
"2.	c #5AA9DA",
"3.	c #57A7D9",
"4.	c #E6F1F9",
"5.	c #E7F1F7",
"6.	c #5CA9DA",
"7.	c #409BD4",
"8.	c #409AD3",
"9.	c #55A6D9",
"0.	c #E2F0F8",
"a.	c #ECF5FB",
"b.	c #C4E0F2",
"c.	c #A6D0EA",
"d.	c #EFF6FB",
"e.	c #B6B6B6",
"f.	c #EDF3F6",
"g.	c #76B7E0",
"h.	c #6BB2DE",
"i.	c #ECF4F9",
"j.	c #E6F2F9",
"k.	c #9ACAE9",
"l.	c #65AFDD",
"m.	c #7FBCE2",
"n.	c #B7D9EE",
"o.	c #FAFCFE",
"p.	c #CACACA",
"q.	c #313131",
"r.	c #F0F0F0",
"s.	c #DDEDF7",
"t.	c #6DB2DE",
"u.	c #66AEDB",
"v.	c #C9E2F1",
"w.	c #C5E1F2",
"x.	c #DCEDF7",
"y.	c #9BCBE9",
"z.	c #469ED6",
"A.	c #6CB3DF",
"B.	c #F4F9FD",
"C.	c #DBDBDB",
"D.	c #3D3D3D",
"E.	c #474747",
"F.	c #E7F2F9",
"G.	c #DEEDF6",
"H.	c #9CCBE8",
"I.	c #489FD6",
"J.	c #51A4D7",
"K.	c #429CD5",
"L.	c #92C6E7",
"M.	c #FDFEFF",
"N.	c #C2DFF2",
"O.	c #78B9E2",
"P.	c #5BAADB",
"Q.	c #6EB4DF",
"R.	c #50A4D9",
"S.	c #64AFDD",
"T.	c #D3E8F5",
"U.	c #DADADA",
"V.	c #F2F2F2",
"W.	c #5B5B5B",
"X.	c #EBF4FB",
"Y.	c #EAF4FA",
"Z.	c #B9DBF0",
"`.	c #E7F3FA",
" +	c #FEFFFF",
".+	c #2F2F2F",
"++	c #B4B4B4",
"@+	c #646464",
"#+	c #E0E0E0",
"$+	c #D2D2D2",
"%+	c #363636",
"&+	c #2D2D2D",
"*+	c #3F3F3F",
"=+	c #F7F7F7",
"-+	c #949494",
". . . . . . . . . . . . . . . . . . . . . . . . . . . . . . . . ",
". + + + + + + + + + + + + + + + + + + + + + + + + + + + + + + . ",
". + + + + + + + + + + + + + + + + + + + + + + + + + + + + + + . ",
". + + + @ # $ $ $ $ $ $ $ $ $ $ $ $ $ $ $ $ $ $ $ $ # @ + + + . ",
". + + @ % & * * * * * * * * * * * * * * * * * * * * & % @ + + . ",
". + + # & = = = = = = = = = = = = = = = = = = = = = - ; # + + . ",
". + + # & = = = = = = = = = = = = = = = = = = > , - - & ' + + . ",
". + + @ ) ! > ~ * * * * * * * * * * * * * * * { ] , ] % @ + + . ",
". + + + ^ / , ( $ $ $ $ $ $ $ $ $ $ $ $ _ : : $ ( < / [ @ + + . ",
". + + + . } > | + + + + + + + + + + @ @ @ @ @ @ 1 2 3 @ @ . + . ",
". + + + + 4 > 5 . + + + + . @ @ @ @ . . @ @ @ 6 7 2 8 @ . . + . ",
". + + + + 9 2 0 a + + . @ . + + b c d @ . @ @ ^ 0 e f @ @ @ . . ",
". + + + + g h i j + + @ . + k l m n o p @ @ @ q r s t . @ @ @ . ",
". + + + + u v w x + @ . y z A B C D E F G . @ H I J u @ . . + . ",
". + + + + K I ! L + @ y M N O P Q R S T c . . U ] V x . + + + . ",
". + + + + W X h Y . 6 Z `  ...+.@.#.` $.%.&.. Y s *.j + + + + . ",
". + + + + ^ =.e % -.;.>.,.'.).6 !.~.{.].^./.@ % (.=._.+ + + + . ",
". + + + @ @ 3 - 1 :.<.[.S }.|.@ . @ 1.2.3.4.+ | > } . + + + + . ",
". . @ @ @ @ 8 , 7 5.6.7.8.9.0.. @ -.a.b.c.d.. 5 > 4 + + + + + . ",
". @ . . @ @ e.(.0 f.g.7.Q h.i.@ j.k.l.m.n.o.a 0 2 9 + + + + + . ",
". . @ . . @ p.q.i r.s.t.u.v.w.x.y.z.7.7.A.B.j i h g + + + + + . ",
". + . @ @ @ C.D.E.H @ F.G.H.I.J.J.K.C D L.M.x w v u + + + + + . ",
". + . . @ @ x V v L . @ -.N.O.P.P.Q.R.S.T.+ U.! I K + + + + + . ",
". + + . . @ V.W.q.Y @ . + + y X.Y.a.Z.`. ++ t .+X W + + + + + . ",
". + + + @ @ ^ =.e +++ + + + + + + + + + + + ++2 =._.+ + + + + . ",
". + + + . @ 6 3 , | + + + + + + + + + + + + | > } . + + + + + . ",
". + + + + . + 4 > 5 . + + + + + + + + + + . 5 > 4 + + + + + + . ",
". + + + + + + 9 2 @+#+$ $ $ $ $ $ $ $ $ $ #+@+2 9 + + + + + + . ",
". + + + + + + $+%+&+*+* * * * * * * * * * *+&+%+$++ + + + + + . ",
". + + + + + + =+-+I * * * * * * * * * * * * I -+=++ + + + + + . ",
". + + + + + + + _.K $ $ $ $ $ $ $ $ $ $ $ $ K _.+ + + + + + + . ",
". . . . . . . . . . . . . . . . . . . . . . . . . . . . . . . . "};
