/* XPM */
static char * erase_xpm[] = {
"29 29 2 1",
" 	c None",
".	c #0000FF",
"                 ...         ",
"                ......       ",
"               ........      ",
"              ..........     ",
"             ............    ",
"            .............    ",
"           ..............    ",
"          ...............    ",
"         ................    ",
"        ... .............    ",
"       ...  .............    ",
"      ...   .............    ",
"     ...    .............    ",
"    ...     .............    ",
"    ..      .............    ",
"    .      .............     ",
"    .     .............      ",
"    .    .............       ",
"    .   ....  .......        ",
"    .  ....    .....         ",
"    ......     ....          ",
"    .....      ...           ",
"    ....      ...            ",
"    ...      ...             ",
"    ...     ...              ",
"    ....   ...               ",
"     ........                ",
"      ......                 ",
"        ...                  "};
