/* XPM */
static const char * erase_xpm[] = {
"30 30 210 2",
"  	c None",
". 	c #EA651E",
"+ 	c #FFFFFF",
"@ 	c #FDFEFE",
"# 	c #FBFBFB",
"$ 	c #FAD8C7",
"% 	c #FDFCFC",
"& 	c #D6D7DA",
"* 	c #D7D8DB",
"= 	c #F7B78A",
"- 	c #EF8C56",
"; 	c #FCDCC4",
"> 	c #F9F9F9",
", 	c #D9DBDD",
"' 	c #F6F6F7",
") 	c #F5F5F6",
"! 	c #ECEDEE",
"~ 	c #DDDEE0",
"{ 	c #DEDFE1",
"] 	c #EEEEEF",
"^ 	c #E5E5E8",
"/ 	c #E7E7E9",
"( 	c #EBEBEC",
"_ 	c #F4F4F5",
": 	c #FCFCFC",
"< 	c #D9D9DC",
"[ 	c #F8F7F8",
"} 	c #E4A47A",
"| 	c #F4B28E",
"1 	c #F1F1F2",
"2 	c #EFEFF0",
"3 	c #F3F3F3",
"4 	c #EAEAEB",
"5 	c #DBDCDE",
"6 	c #E1E2E4",
"7 	c #E3E3E5",
"8 	c #E8E8EA",
"9 	c #E0E0E3",
"0 	c #E4E4E6",
"a 	c #D8D9DB",
"b 	c #F9F8F8",
"c 	c #F18F51",
"d 	c #EB894D",
"e 	c #E0E1E3",
"f 	c #DADBDE",
"g 	c #F0EFF0",
"h 	c #F2F2F2",
"i 	c #E9E9EA",
"j 	c #E3E4E6",
"k 	c #E2E3E5",
"l 	c #EE8C4F",
"m 	c #EB6F2C",
"n 	c #FEF5F1",
"o 	c #EC8A4E",
"p 	c #EE8248",
"q 	c #E9874C",
"r 	c #FCECE3",
"s 	c #F29F73",
"t 	c #F7C5AA",
"u 	c #EB6F2B",
"v 	c #FBE2D5",
"w 	c #F6BB9C",
"x 	c #ECAC81",
"y 	c #F8CFB8",
"z 	c #E9874B",
"A 	c #F2B286",
"B 	c #F19565",
"C 	c #E7A77D",
"D 	c #F1B185",
"E 	c #EA884C",
"F 	c #EA884D",
"G 	c #F5B588",
"H 	c #EC8B4E",
"I 	c #ED783A",
"J 	c #E9884C",
"K 	c #E8A87E",
"L 	c #F4A46D",
"M 	c #EF8D50",
"N 	c #FEEEE2",
"O 	c #EF8444",
"P 	c #FFF7F0",
"Q 	c #F08E50",
"R 	c #EE8D4F",
"S 	c #EAAA7F",
"T 	c #EE8D50",
"U 	c #EFAF84",
"V 	c #E9A97F",
"W 	c #EEAE83",
"X 	c #ED7936",
"Y 	c #F3A981",
"Z 	c #EEAD82",
"` 	c #E87F3F",
" .	c #EA6E29",
"..	c #FACAA7",
"+.	c #DBD3D0",
"@.	c #DFC0AB",
"#.	c #E87635",
"$.	c #ED7A37",
"%.	c #E69562",
"&.	c #E8864B",
"*.	c #FBD3B6",
"=.	c #E6A67C",
"-.	c #E97635",
";.	c #EDAD82",
">.	c #EFAF83",
",.	c #E9A97E",
"'.	c #F0B084",
").	c #E2BBA0",
"!.	c #EF8E50",
"~.	c #EAAA80",
"{.	c #F4B487",
"].	c #E69E6F",
"^.	c #F2D2BC",
"/.	c #F5B589",
"(.	c #EACBB5",
"_.	c #F3D3BD",
":.	c #EE8443",
"<.	c #E0C1AD",
"[.	c #DDC6B7",
"}.	c #EDCDB7",
"|.	c #E2B293",
"1.	c #EECFB9",
"2.	c #F8D1B4",
"3.	c #E7C8B3",
"4.	c #EFD0BA",
"5.	c #E3B393",
"6.	c #F8C199",
"7.	c #F2995F",
"8.	c #F5D5BE",
"9.	c #FDE5D3",
"0.	c #F6BE96",
"a.	c #E5A57A",
"b.	c #E8C8B3",
"c.	c #D9D2CF",
"d.	c #E78E56",
"e.	c #ECCCB6",
"f.	c #F6D7BF",
"g.	c #E9CAB4",
"h.	c #E79663",
"i.	c #E4AB87",
"j.	c #F6C6A4",
"k.	c #F08E51",
"l.	c #E4C5B0",
"m.	c #E6C5B1",
"n.	c #F9F1EB",
"o.	c #E87E3F",
"p.	c #E2C2AE",
"q.	c #FAEADE",
"r.	c #F3AB79",
"s.	c #F8E0CF",
"t.	c #E88F57",
"u.	c #EBCBB6",
"v.	c #F2D3BC",
"w.	c #F7D8C0",
"x.	c #EFCFB9",
"y.	c #DBCCC3",
"z.	c #DFC7B9",
"A.	c #E6C7B2",
"B.	c #F5AD7B",
"C.	c #F5CEB2",
"D.	c #D8D2CE",
"E.	c #EFB084",
"F.	c #E3C4AF",
"G.	c #E0C8B9",
"H.	c #F2A16B",
"I.	c #E96D29",
"J.	c #F0975D",
"K.	c #F6B689",
"L.	c #ECAD82",
"M.	c #DBCCC4",
"N.	c #F0B085",
"O.	c #F8F0EA",
"P.	c #F4BC95",
"Q.	c #FAE2D0",
"R.	c #F3B386",
"S.	c #F7E0CE",
"T.	c #E1B192",
"U.	c #F9E9DD",
"V.	c #E4C4B0",
"W.	c #E79763",
"X.	c #F4CDB1",
"Y.	c #F6DECD",
"Z.	c #E5C5B0",
"`.	c #F1985E",
" +	c #F9D9C2",
".+	c #F4BD96",
"++	c #E6C6B1",
"@+	c #F4C4A3",
"#+	c #E3B494",
"$+	c #DCCCC4",
"%+	c #F3B487",
"&+	c #EBCCB6",
"*+	c #E79F70",
"=+	c #F3BC94",
"-+	c #F6B68A",
";+	c #EACAB4",
">+	c #E0B99F",
",+	c #E4AC88",
"'+	c #EE8343",
")+	c #F1D2BB",
"!+	c #F5D5BF",
"~+	c #FBF3ED",
"{+	c #DEC7B8",
"]+	c #DDCEC5",
"^+	c #F2AA79",
"/+	c #DCD5D2",
"(+	c #E4AD88",
"_+	c #F1A06B",
":+	c #E4B594",
"<+	c #EA6E2A",
"                                                            ",
"                                                            ",
"                        . . . . . . p                       ",
"                      . + + + + + + .                       ",
"              m . . . . + + + + + + . . . . .               ",
"            . c + + + + + + + + + + + + + + + .             ",
"          $ . + + + + + + + + + + + + + + + + ..p           ",
"        . = + + + + + + + + + + + + + + + + + + = . t       ",
"        . + + + + + + + + + + + + + + + + + + + + + .       ",
"        . . . . . . . . . . . . . . . . . . . . . .         ",
"          $ -+@ @ @ @ @ @ @ @ @ @ @ @ @ @ @ @ @ .           ",
"          $ /.: : : : : : : : : : : : : : : : : .           ",
"          $ {.> r.. . > > > . . > > > r.. . > > .           ",
"          $ A ' .   . ' ' . n   . ' ' .   . ' ' .           ",
"          $ D _ .   - _ _ .     . _ _ .   - _ _ .           ",
"          $ N.h .   - h h .     . h h .   - h h .           ",
"          $ U 2 .   - 2 2 .     . 2 2 .   - 2 2 .           ",
"          $ W ! .   - ! ! .     . ! ! .   - ! ! .           ",
"          $ ;.4 .   - 4 4 .     . 4 4 .   - 4 4 .           ",
"          $ x / .   - / / .     . / / .   - / / .           ",
"          $ ~.^ .   - ^ ^ .     . ^ ^ .   - ^ ^ .           ",
"          $ V 7 .   - 7 7 .     . 7 7 .   - 7 7 .           ",
"          $ K 9 .   - 9 9 .     . 9 9 .   - 9 9 .           ",
"          $ C ~ .   - ~ ~ .     . ~ ~ .   - ~ ~ .           ",
"          r z f .   . f f . n   . f f .   . f f .           ",
"            . < (+. . < < < . . < < < a.. . < ` w           ",
"            m . & & & & & & & & & & & & & & } .             ",
"              n . . . . . . . . . . . . . . B               ",
"                                                            ",
"                                                            "};
