/* XPM */
static const char * faceSetPart_xpm[] = {
"16 16 84 1",
" 	c None",
".	c #000000",
"+	c #C16000",
"@	c #944900",
"#	c #8C4600",
"$	c #AD5300",
"%	c #AC5600",
"&	c #C26100",
"*	c #B15900",
"=	c #BF6000",
"-	c #BD5E00",
";	c #BB5D00",
">	c #954B00",
",	c #7A3D00",
"'	c #924900",
")	c #914800",
"!	c #9A4D00",
"~	c #A25100",
"{	c #D06800",
"]	c #733900",
"^	c #B25900",
"/	c #7B3E00",
"(	c #8B4500",
"_	c #BD5F00",
":	c #CC6600",
"<	c #9D4E00",
"[	c #B55A00",
"}	c #CD6600",
"|	c #9B4E00",
"1	c #B35A00",
"2	c #A55300",
"3	c #A35100",
"4	c #B05800",
"5	c #CE6700",
"6	c #964B00",
"7	c #A65300",
"8	c #8F4700",
"9	c #803F00",
"0	c #A75400",
"a	c #C56200",
"b	c #AD5600",
"c	c #894400",
"d	c #BE5F00",
"e	c #C66300",
"f	c #8E4700",
"g	c #B85C00",
"h	c #C46200",
"i	c #BF5F00",
"j	c #874400",
"k	c #A85400",
"l	c #B35900",
"m	c #C96400",
"n	c #C06000",
"o	c #B95C00",
"p	c #6D3600",
"q	c #864300",
"r	c #B15800",
"s	c #D26900",
"t	c #9F4F00",
"u	c #944A00",
"v	c #AB5500",
"w	c #D66B00",
"x	c #9D4F00",
"y	c #AE5700",
"z	c #B45A00",
"A	c #874300",
"B	c #884400",
"C	c #964A00",
"D	c #B55B00",
"E	c #C76300",
"F	c #BA5C00",
"G	c #B65B00",
"H	c #A55200",
"I	c #8D4700",
"J	c #D76B00",
"K	c #C36100",
"L	c #844200",
"M	c #914900",
"N	c #AB5600",
"O	c #A75300",
"P	c #9C4E00",
"Q	c #994B00",
"R	c #9E4B00",
"S	c #B65600",
"      ........  ",
"    ..+@+##..$. ",
"  ..+@##...%&*. ",
" .+@##..=-;#>,. ",
" .....')!~-{%]. ",
" .^./(_:+<#,[}. ",
" .'.|123~45678. ",
" .9.8=0abc6def. ",
" .g.hijcklmnop. ",
" .8.qrs{tfkuvw. ",
" .1.x4/#em:yzA. ",
" .B.C^DEFGHI... ",
" .z.JKLMNt..    ",
" .O.pP5:..      ",
" .Q.RS..        ",
"  ....          "};
