/* XPM */
static char * FinishComp_xpm[] = {
"55 55 257 2",
"  	c None",
". 	c #0281B6",
"+ 	c #36A4CD",
"@ 	c #44ACD2",
"# 	c #3CA8CF",
"$ 	c #0178AE",
"% 	c #EEEDED",
"& 	c #34A5CE",
"* 	c #98C6DD",
"= 	c #38A4CD",
"- 	c #B8C3C6",
"; 	c #1D8DBC",
"> 	c #2490BE",
", 	c #33A2CC",
"' 	c #37A3CC",
") 	c #2C98C4",
"! 	c #42AAD1",
"~ 	c #40A8D0",
"{ 	c #017CB2",
"] 	c #32A4CE",
"^ 	c #A5BCC5",
"/ 	c #3995BE",
"( 	c #EAE9E9",
"_ 	c #36A2CC",
": 	c #99B7C3",
"< 	c #3AA7D0",
"[ 	c #D1E5F0",
"} 	c #3DA8CF",
"| 	c #E6E5E5",
"1 	c #459ABF",
"2 	c #E2E1E1",
"3 	c #2593C0",
"4 	c #036B9D",
"5 	c #208EBC",
"6 	c #4E9DC1",
"7 	c #5AA3C4",
"8 	c #2FA0CB",
"9 	c #30A0CB",
"0 	c #43ACD2",
"a 	c #2996C2",
"b 	c #0171A4",
"c 	c #0075AA",
"d 	c #35A6D0",
"e 	c #B6D7E7",
"f 	c #0076AC",
"g 	c #DAD9D8",
"h 	c #3BA8CF",
"i 	c #78ACC1",
"j 	c #027FB4",
"k 	c #30A1CC",
"l 	c #8CB3C3",
"m 	c #6AADCC",
"n 	c #137BA9",
"o 	c #329EC8",
"p 	c #2E9FCA",
"q 	c #E9F3F8",
"r 	c #34A6CF",
"s 	c #0A71A1",
"t 	c #DEDDDC",
"u 	c #46AED3",
"v 	c #79B5D1",
"w 	c #D3D2D0",
"x 	c #32A0CB",
"y 	c #CECDCC",
"z 	c #D6D5D4",
"A 	c #2A9CC9",
"B 	c #2992BE",
"C 	c #F6F5F5",
"D 	c #C2DEEB",
"E 	c #017AB0",
"F 	c #33A1CB",
"G 	c #38A8D0",
"H 	c #309BC5",
"I 	c #1B84B1",
"J 	c #42AAD2",
"K 	c #016EA1",
"L 	c #32A1CB",
"M 	c #63A0BA",
"N 	c #C6C5C4",
"O 	c #39A8CF",
"P 	c #F4F3F3",
"Q 	c #E8E7E6",
"R 	c #C9CACA",
"S 	c #87BDD7",
"T 	c #0073A9",
"U 	c #2D9EC9",
"V 	c #2C9ECA",
"W 	c #C5C9C9",
"X 	c #A1CBE0",
"Y 	c #0176AA",
"Z 	c #ECEBEA",
"` 	c #30A0CC",
" .	c #F5F9FC",
"..	c #2C9CC8",
"+.	c #E4E3E2",
"@.	c #47AFD3",
"#.	c #328EBA",
"$.	c #208BB7",
"%.	c #45ADD2",
"&.	c #63A5C0",
"*.	c #DCDBDA",
"=.	c #3AA5CE",
"-.	c #1E88B4",
";.	c #1881AF",
">.	c #3DA8D0",
",.	c #AAD0E3",
"'.	c #3FAAD0",
").	c #56A1C1",
"!.	c #67A5C0",
"~.	c #0E7AAD",
"{.	c #37A8D0",
"].	c #38A2CB",
"^.	c #47AED4",
"/.	c #64A9CA",
"(.	c #BFC6C8",
"_.	c #32A3CD",
":.	c #A0C6D7",
"<.	c #3EA7CF",
"[.	c #82AFC2",
"}.	c #0073A7",
"|.	c #3AA4CC",
"1.	c #3195BF",
"2.	c #69A6C1",
"3.	c #45AED3",
"4.	c #70B0CE",
"5.	c #30A3CD",
"6.	c #6FA9C1",
"7.	c #0276AA",
"8.	c #299AC7",
"9.	c #3F97BF",
"0.	c #2F9DC8",
"a.	c #1682B1",
"b.	c #157EAD",
"c.	c #2486B4",
"d.	c #33A1CC",
"e.	c #2F9CC7",
"f.	c #C9C8C7",
"g.	c #37A2CA",
"h.	c #0274A8",
"i.	c #43ABD2",
"j.	c #CBCBCA",
"k.	c #33A2CB",
"l.	c #FDFCFC",
"m.	c #36A8CF",
"n.	c #41A9D1",
"o.	c #C7C7C6",
"p.	c #40A8CF",
"q.	c #2C9DC9",
"r.	c #3AA5CD",
"s.	c #3CA5CD",
"t.	c #AFBFC5",
"u.	c #2D9AC6",
"v.	c #39A6CD",
"w.	c #309FC9",
"x.	c #208FBE",
"y.	c #3FA9D0",
"z.	c #3CA7CF",
"A.	c #3AA6CE",
"B.	c #39A5CE",
"C.	c #3BA6CE",
"D.	c #FCFBFB",
"E.	c #38A5CE",
"F.	c #3AA7CF",
"G.	c #35A3CD",
"H.	c #41AAD1",
"I.	c #3DA7CF",
"J.	c #3BA7CF",
"K.	c #34A2CC",
"L.	c #40AAD0",
"M.	c #FBFAFA",
"N.	c #42ABD1",
"O.	c #FAF9F9",
"P.	c #3EA8D0",
"Q.	c #36A6CF",
"R.	c #37A6CF",
"S.	c #38A6CE",
"T.	c #39A7CF",
"U.	c #39A6CF",
"V.	c #38A7CF",
"W.	c #F8F7F7",
"X.	c #F9F8F8",
"Y.	c #36A5CE",
"Z.	c #38A6CF",
"`.	c #3EA9D0",
" +	c #3CA7CE",
".+	c #40AAD1",
"++	c #37A7CF",
"@+	c #35A2CC",
"#+	c #F7F6F6",
"$+	c #3BA7CE",
"%+	c #41AAD0",
"&+	c #3FA8D0",
"*+	c #34A3CD",
"=+	c #36A3CC",
"-+	c #3BA6CF",
";+	c #F0EFEF",
">+	c #37A4CD",
",+	c #F1F0F0",
"'+	c #34A3CC",
")+	c #F5F4F4",
"!+	c #3AA7CE",
"~+	c #F2F1F1",
"{+	c #36A4CE",
"]+	c #37A6CE",
"^+	c #35A5CF",
"/+	c #F3F2F1",
"(+	c #E1E0DF",
"_+	c #D9D8D7",
":+	c #F5F4F3",
"<+	c #D1D0CF",
"[+	c #DDDCDB",
"}+	c #36A7CF",
"|+	c #D4D3D2",
"1+	c #D0CFCE",
"2+	c #E0DFDE",
"3+	c #D8D7D6",
"4+	c #D5D4D3",
"5+	c #F3F2F2",
"6+	c #3CA6CF",
"7+	c #3AA6CF",
"8+	c #EDECEB",
"9+	c #CDCCCB",
"0+	c #E9E8E7",
"a+	c #36A6CE",
"b+	c #37A5CF",
"c+	c #3CA6CE",
"d+	c #E5E4E4",
"e+	c #39A7CE",
"f+	c #FCFDFE",
"g+	c #34A2CD",
"h+	c #EFF6FA",
"i+	c #2D8BB8",
"j+	c #40ABD1",
"k+	c #45ACD2",
"l+	c #38A7CE",
"m+	c #90C2DA",
"n+	c #5EA6C8",
"o+	c #2989B7",
"p+	c #349FC9",
"q+	c #E0EDF5",
"r+	c #3DA6CE",
"s+	c #37A7CE",
"t+	c #0A77AB",
"u+	c #0175A9",
"v+	c #31A2CC",
"w+	c #3BA5CE",
"x+	c #F9FCFD",
"y+	c #35A2CD",
"z+	c #3DA7CE",
"A+	c #33A3CE",
"B+	c #D6DDDF",
"C+	c #1B86B4",
"D+	c #A1B9C3",
"E+	c #CBD4D7",
"F+	c #0F76A5",
"G+	c #B4C8D0",
"H+	c #FFFFFF",
"                                                                                                              ",
"                                                [ /.#.T #./.[                                                 ",
"                                        T c c c c c c c c c c c c c T                                         ",
"                                  T c c c c T 4 ) 9 p p 9 k u.F+b c c c c T                                   ",
"                              T c c c 4 A q.p U 9 L U 9 L L L , 9 , L s c c c T                               ",
"                          4.f f f ..A U 8 k 8 _.'+k *+L *+v+G.g+'+d., K.'+, f f f 4.                          ",
"                        f f f a U p p k _.k & & , A+Q.R.Y.A+R.R.b+Y.{+G.L G.L F f f f                         ",
"                      f f K A A 8 k v+v+r d a+}+& & a+G a+Y.V.{+V.G.R.K.b+x , =+=+4 f f                       ",
"                    f f $.V 8 k v+_.& ] ] ++{.G Q.++Y.Y.G O b+Z.b+U.S.b+G.]+'+, d.L _ f f                     ",
"                f+f f ;.q.V v+v+& & & {.& }+G ++G R.Y.]+O T.T.< F.T.h h >+=++ {+>+, ; $.f f f+                ",
"                f f 3 A V v+_._.] d d d G ++O Y.O h T.T.F.E.E.U.F.U.F.F.h h v.T.3 9+_+D+K.f f                 ",
"              f f ;.V 8 _., r }+}+d d V.O R.Y.]+Z.F.F.E.v.# J.# # v.A.F.J.>+>+1.[+;+/+z L p+f f               ",
"            f f 5 V p _._.] }+}+& G R.Q.Y.O O U.J.J.J.A.# } z.} # A.A.C.A.o 1+Q #+D.O.2 a + G.f f             ",
"          v f K U V v+] }+& & {.G G V.O b+T.S.E.h b+J.# v.v.P.P.P.} B.} ; _+;+O.l.l.l.% ).*++ F+f 4.          ",
"          f f U p v+& r Q.r d ^+V.Z.O ]+{+h J.B.# z.v.`.`.!+A.y.y.B.y.B 2+P D.l.l.l.l.#+g '+>+K.f f           ",
"        c $ a p k ] r }+& d d V.Y.T.b+h E.v.J.z.C.} } =.y.&+z.L.y.I.6 +.C l.l.l.l.l.l.D.% l >+x =+$ c         ",
"        $ $ p p v+& d r ++++G Y.a+b+T.h J.E.# P. +C.P.z.L.y.'.P.N.D+Q W.l.l.l.l.l.l.l.l.X.+.6 >+=+b $         ",
"      T $ e.U v+& ] Q.& Q.Y.V.V.S.h E.E.v.#  +y.=.} y.z..+P.N.L.D+Q X.l.l.l.l.l.l.l.l.l.l.C 2 ; g+9 $ T       ",
"      $ $ 8 8 _._.] }+& V.Q.V.b+< >+B.# B.P.A.y.y.j+L.0 N.N.P.: Q X.l.l.l.l.l.l.l.l.l.l.l.D.C *.3 + $ $       ",
"      $ 4 q.v+& ] & G ++O V.O Z.F.h E.$+P.P.y.'.y.N.N.N.0 <.).Q X.l.l.l.l.l.l.l.l.l.l.l.l.l.D.~+w d.u.$       ",
"    c $ 9 U v+_.++++++^+R.T.h J.B.A.z.v.P.`..+P.N.y.i.i.%.B d+W.l.l.l.l.l.l.l.l.l.l.l.l.l.D.X.;+3+t.G.$ c     ",
"    $ $ 9 k ] ^+++++R.{+V.b+b+F.B.=.} B.C.-+6+P.N.y.0 %.3 (+#+l.l.l.l.l.l.l.l.l.l.l.l.l.W.% (+y ; @+>+$ E     ",
"    E $ L k & }+^+Y.R.G {+U.F.J.# # z.P.C.z.N.%+%.@ %.3 g :+l.l.l.l.l.l.l.l.l.l.l.l.M./+(+D+a !+S.G.F 4 E     ",
"    E 4 p , ^+}+Y.Q.V.O > N E.b+B.P.=.`.'.N.N.y.0 0 H g ,+D.l.l.l.l.l.l.l.l.l.l.l.W.( w 3 `.# # T.E.F o E     ",
"  [ E ) U , _.++R.Q.++W +.(+x.J.} A.y.A.N.y.n.@ ! ! <+;+M.l.l.l.l.l.l.l.l.l.l.D.)+2 !.`.=.A.= z.>+v.{+G.E [   ",
"  /.E L L v+A+V.Y.; z % X.)+_+' } P.>.z.z.N.y.~ ~ &.( O.l.l.l.l.l.l.l.l.l.l.M.,+g x.y.N.%+P.C.r.v.S.+ G.E /.  ",
"  b.E U 9 L Q.{+: 2+5+M.l.D.% ^ A.&+z.N..+i.H.n.3 (+W.l.l.l.l.l.l.l.l.l.l.O.% w H N.L.N.P.z.y.} = =+=+E.E ;.  ",
"  T E U 9 , 3 w Z #+l.l.l.l.X.2 x.&+H.L.y.@ <.%.4+5+l.l.l.l.l.l.l.l.l.l.X.( y i.0 0 H.N.H.y.P.} # A.v.@+E T   ",
"  b.{ 9 d.; z % X.l.l.l.l.l.D.;+y y..+.+N.&+%.B Q O.l.l.l.l.l.l.l.l.l.O.Z 1+! ^.N.%.N.z.`.-+A.P.= F.=+E.{ ;.  ",
"  /.{ 8 > t /+M.l.l.l.l.l.l.l.O.| > y.H.P.0 o *.C l.l.l.l.l.l.l.l.l.X.( j.%.u H.%.y.y.N.N.z.C.A.# F.' E.{ /.  ",
"  [ { N 3+/+D.l.l.l.l.l.l.l.l.l.)+3+y.y.N.@ W % D.l.l.l.l.l.l.l.l.X.0+- @.u ! n.@ 0 N.`.N.L.C.P.C.' v.>+{ [   ",
"    { F+[.2 )+D.l.l.l.l.l.l.l.l.D.8+l N.N.> 2 X.l.l.l.l.l.l.l.l.X.0+^ ^.! %.u ~ 0 @ &+I.>.y.y.} z.F.' B.{     ",
"    { 7.9 ; *.~+M.l.l.l.l.l.l.l.l.W.(+> 0 w /+l.l.l.l.l.l.l.l.X.0+D+^.i.%.%.@.3.%.y.y.N. +=.&+I.=.' U.s {     ",
"    { { K., 3 z % X.l.l.l.l.l.l.l.l.~+g > Q O.l.l.l.l.l.l.l.O.( t.@.J J ^.%.n.u @ N.N.N..+y.P.=.} >+U.{ {     ",
"    c { L K.*+, w 0+X.l.l.l.l.l.l.l.M./+;+#+l.l.l.l.l.l.l.O.Z W ! ^.! ^.@ u u n.%.H.I.I.y.C.A.C.# F.' { c     ",
"      { n , , , + l Q W.l.l.l.l.l.l.l.D.D.l.l.l.l.l.l.l.M.% y @.J u ! u y.u 0 %.N.%+I.I.L.C.I.C.B.' ' {       ",
"      j j ` K., Z.b+2.| W.l.l.l.l.l.l.l.l.l.l.l.l.l.l.O.;+w ^.%.%.@.n.@ 0 %.%.%.y.y.N.`.P.I.C.# ' U.E j       ",
"      T j + G.'+G.+ b+&.Q W.l.l.l.l.l.l.l.l.l.l.l.l.M.% z n.i.i.u %.u %.<.y.y.0 y.P..+z.y.`.= = ' S.j T       ",
"        j j K.G.b++ V.U.i Q X.l.l.l.l.l.l.l.l.l.l.D.,+|+a i.H.@ n.0 %.%+%.<.P.N.H.H.z.y.I.=.=.$+v.K j         ",
"        f j x K.=+G.V.h E.l 0+O.l.l.l.l.l.l.l.l.l.P g e.@ L.&+%.N.&+N.0 N.0 N.P.N.`.=.I.P.c+A.F.v.j f         ",
"          j j , + =+b+T.Z.J.(.Z O.l.l.l.l.l.l.l.#+2+x.P.P.P.y.0 P.0 H.N.N.P.P.I.z.y.y.= = A.= F.$ j           ",
"          4.j 4 L >+*++ E.h >+y % M.l.l.l.l.l.X.| B N.I.N.&+y.y.H.I.L.H.y.`.%+L.-+C.B.C.A.B.v.) j 4.          ",
"            j j =++ , K.>++ E.v.w ;+D.l.l.l.M.8+- z.y.y.y.N.H.z.y.`.%+A.y.y.=.P.P.z.C.A.F.=+@+j j             ",
"              j j F , *+K.=+T.E.F z /+D.l.D.~+|+`.P.C.6+y.%+} y.L.y.} B.C.=.} P.r.A.=.B.' + j j               ",
"                . . =+>+'+{+>+v.h 3 *.)+D.#+t 3 `.`.`.y.`.C.y.C.y.I.`.`.} } # z.J.!+' S.b+. .                 ",
"                f+. . p++ + >+v.e+v.x.(+)+Q B A.# B.P.P.P.y.A.C.A.} z.z.r.# A.7+F.>+v.G.. . f+                ",
"                  f+. . F + >+@+@+=+T.^ 2 |+# B.z.# # # E.} A.v.z.# E.B.C.F.U.U.v.K.>+. . f+                  ",
"                      . . s >+>+G.+ _ v.N ; >+J.# = # A.# # $+J.= ' ' 7+U.S.@+@+b+H . .                       ",
"                        j . . G.+ E.@+E.@+E.G.= F.!+= v.v.= F.=+=+U.@+v.@+E.E.G.j . j                         ",
"                          4.. . E L b++ >+G.@+@+_ b+E.b+S.E.=+E.v.+ b+F >+G.b . . 4.                          ",
"                              $ . . . H + G.+ F + G.{+F b+K.>+d.= b+, >+{ . . $                               ",
"                                  T . . . . 4 o , + F G.=+K.9 S.s . . . . T                                   ",
"                                        T . . . . . . . . . . . . . c                                         ",
"                                                [ /.#.T #./.[                                                 ",
"                                                                                                              "};
