/* XPM */ 
static const char * goto_xpm[] = {
"16 16 6 1",
" 	c None",
"!	c #FF794B",
"#	c white",
"$	c #D93600",
"%	c black",
"&	c #FF0000",
"!!!!!!##########",
"!!!!!!##########",
"!!!!!$$#########",
"!!!!$$$$%#######",
"#!!!$$$$ %######",
"#####$$   %#####",
"#####%  %% %####",
"#####% %##% %###",
"######% %##%%###",
"#######% %######",
"########%%######",
"###########%%%##",
"##########%#&#%#",
"##########%&%&%#",
"##########%#&#%#",
"###########%%%##"};