/* XPM */
static char * grid_xpm[] = {
"30 29 36 1",
" 	c #FFFFFF",
".	c #D4F0FB",
"+	c #00A2E8",
"@	c #15AAEA",
"#	c #95D8F5",
"$	c #55C1F0",
"%	c #EAF7FD",
"&	c #76CDF3",
"*	c #63C6F1",
"=	c #0AA6E9",
"-	c #45BBEE",
";	c #04A3E8",
">	c #0BA6E9",
",	c #6FCAF2",
"'	c #5CC4F0",
")	c #09A5E9",
"!	c #41BAEE",
"~	c #49BDEF",
"{	c #DAF2FC",
"]	c #C8EBFA",
"^	c #9FDCF6",
"/	c #73CCF2",
"(	c #5FC5F1",
"_	c #0AA5E9",
":	c #43BAEE",
"<	c #02A3E8",
"[	c #07A5E9",
"}	c #07A4E9",
"|	c #4ABDEF",
"1	c #DEF3FC",
"2	c #CBECFA",
"3	c #01A2E8",
"4	c #03A3E8",
"5	c #4BBDEF",
"6	c #E1F4FC",
"7	c #CFEDFB",
"     .+@      #+$     %++     ",
"     .+@      #+$     %++     ",
"     .+@      #+$     %++     ",
"     .+@      #+$     %++     ",
"     .+@      #+$     %++     ",
"&&&&&*+=&&&&&&-+;>>>>>=++>>>>>",
"++++++++++++++++++++++++++++++",
",,,,,'+),,,,,,!+~{{{{{]++{{{{{",
"     .+@      #+$     %++     ",
"     .+@      #+$     %++     ",
"     .+@      #+$     %++     ",
"     .+@      #+$     %++     ",
"     .+@      #+$     %++     ",
"^////(+_//////:+<[[[[[}++[[[[[",
"++++++++++++++++++++++++++++++",
"^////(+_//////:+|111112++11111",
"     .+@      #+$     %++     ",
"     .+@      #+$     %++     ",
"     .+@      #+$     %++     ",
"     .+@      #+$     %++     ",
"     .+@      #+$     %++     ",
",,,,,'+),,,,,,!+3;;;;;4++;;;;;",
"++++++++++++++++++++++++++++++",
"&&&&&*+=&&&&&&-+5666667++66666",
"     .+@      #+$     %++     ",
"     .+@      #+$     %++     ",
"     .+@      #+$     %++     ",
"     .+@      #+$     %++     ",
"     .+@      #+$     %++     "};
