/* XPM */
static char * grid_xpm[] = {
"30 30 392 2",
"  	c None",
". 	c #869FBD",
"+ 	c #627FAB",
"@ 	c #3F62A0",
"# 	c #4065A4",
"$ 	c #4164A3",
"% 	c #4264A4",
"& 	c #4365A5",
"* 	c #3E629F",
"= 	c #6686AF",
"- 	c #6882AF",
"; 	c #5472A8",
"> 	c #3F63A3",
", 	c #4264A3",
"' 	c #5574AA",
") 	c #4865A4",
"! 	c #4364A5",
"~ 	c #3F65A6",
"{ 	c #4265A4",
"] 	c #4064A6",
"^ 	c #4464A6",
"/ 	c #4668A8",
"( 	c #4167A5",
"_ 	c #3E65A2",
": 	c #4065A5",
"< 	c #4163A3",
"[ 	c #4264A5",
"} 	c #4465A6",
"| 	c #456DA8",
"1 	c #46699F",
"2 	c #48699D",
"3 	c #4B6BA4",
"4 	c #4C6BA3",
"5 	c #4B6CA1",
"6 	c #4B6BA0",
"7 	c #4B6BA1",
"8 	c #4D6DA3",
"9 	c #4C6CA2",
"0 	c #4C6BA1",
"a 	c #4B6CA2",
"b 	c #4B6BA2",
"c 	c #4C6BA2",
"d 	c #47689E",
"e 	c #4667A2",
"f 	c #5677A3",
"g 	c #849BBB",
"h 	c #B3C0D7",
"i 	c #B6C3DB",
"j 	c #B6C3D9",
"k 	c #B6C4D9",
"l 	c #B6C4D8",
"m 	c #ADBBCF",
"n 	c #9FAEC2",
"o 	c #A9B8CC",
"p 	c #B5C3D8",
"q 	c #B6C5D9",
"r 	c #B5C4D8",
"s 	c #B6C5D8",
"t 	c #B2C2D7",
"u 	c #7B93B8",
"v 	c #7E99B3",
"w 	c #C0CEDA",
"x 	c #FDFEFE",
"y 	c #FCFEFC",
"z 	c #FDFDFC",
"A 	c #FDFDFB",
"B 	c #FBFBFA",
"C 	c #CDCDCA",
"D 	c #8A8A88",
"E 	c #C1C1BF",
"F 	c #FCFCFB",
"G 	c #D6D6D5",
"H 	c #9C9C9B",
"I 	c #CFCFCE",
"J 	c #FBFBFB",
"K 	c #BDBDBC",
"L 	c #A2A2A1",
"M 	c #DFDEDE",
"N 	c #FEFEFD",
"O 	c #FDFDF9",
"P 	c #FFFEFD",
"Q 	c #B5C2D2",
"R 	c #94AAC2",
"S 	c #CBD5E0",
"T 	c #F8FBF8",
"U 	c #F1F5F5",
"V 	c #F3F3F5",
"W 	c #F3F3F3",
"X 	c #F5F5F4",
"Y 	c #AEAEAD",
"Z 	c #4F4E4E",
"` 	c #9F9E9E",
" .	c #F4F3F2",
"..	c #F4F4F3",
"+.	c #F4F4F2",
"@.	c #F2F1EF",
"#.	c #B0AFAF",
"$.	c #4D4D4D",
"%.	c #A6A5A5",
"&.	c #F5F5F5",
"*.	c #F1F1F1",
"=.	c #888888",
"-.	c #565555",
";.	c #BDBDBD",
">.	c #FAFAFA",
",.	c #F3F4F2",
"'.	c #F3F3F2",
").	c #F4F2F2",
"!.	c #FCFBF9",
"~.	c #C0C8D6",
"{.	c #95A5BE",
"].	c #CBD3DD",
"^.	c #F9FAF8",
"/.	c #F1F4F5",
"(.	c #F3F4F5",
"_.	c #F4F4F4",
":.	c #B1B1B1",
"<.	c #535354",
"[.	c #A1A1A1",
"}.	c #B1B1B0",
"|.	c #515151",
"1.	c #A7A7A8",
"2.	c #F6F6F6",
"3.	c #F2F2F2",
"4.	c #8B8B8B",
"5.	c #595959",
"6.	c #BEBFBE",
"7.	c #FAFAFC",
"8.	c #F4F4F5",
"9.	c #F4F3F5",
"0.	c #FBFCF9",
"a.	c #BDC6D5",
"b.	c #90A1B8",
"c.	c #C9D2DB",
"d.	c #FBFCFA",
"e.	c #F6F7F6",
"f.	c #F7F7F7",
"g.	c #F8F8F7",
"h.	c #B3B3B2",
"i.	c #545454",
"j.	c #A3A3A3",
"k.	c #F7F7F8",
"l.	c #B4B4B4",
"m.	c #535353",
"n.	c #ABABAA",
"o.	c #F8F8F8",
"p.	c #F9F9F8",
"q.	c #8E8E8E",
"r.	c #5B5B5B",
"s.	c #C1C1C1",
"t.	c #FDFDFD",
"u.	c #BCC6D5",
"v.	c #90A2B8",
"w.	c #BBC4CD",
"x.	c #ACADAC",
"y.	c #767776",
"z.	c #787978",
"A.	c #797979",
"B.	c #575757",
"C.	c #292929",
"D.	c #505050",
"E.	c #787878",
"F.	c #777777",
"G.	c #585858",
"H.	c #7A7A7A",
"I.	c #464646",
"J.	c #2D2D2D",
"K.	c #5F5F5F",
"L.	c #7B7B7B",
"M.	c #9F9F9F",
"N.	c #E4E5E3",
"O.	c #BDC8D5",
"P.	c #8FA1B7",
"Q.	c #B9C2CB",
"R.	c #999B98",
"S.	c #525352",
"T.	c #555555",
"U.	c #3E3E3E",
"V.	c #1E1E1E",
"W.	c #383838",
"X.	c #3F3F3F",
"Y.	c #1D1D1D",
"Z.	c #3A3A3A",
"`.	c #565656",
" +	c #323232",
".+	c #202020",
"++	c #434343",
"@+	c #DFE0DE",
"#+	c #BCC8D5",
"$+	c #8DA0B7",
"%+	c #C5CED7",
"&+	c #E2E3E1",
"*+	c #C9CAC9",
"=+	c #CACACA",
"-+	c #CBCBCB",
";+	c #939393",
">+	c #454545",
",+	c #868686",
"'+	c #C9C9C9",
")+	c #949494",
"!+	c #444444",
"~+	c #757575",
"{+	c #4C4C4C",
"]+	c #CFCFCF",
"^+	c #D9D9D9",
"/+	c #C7D0DA",
"(+	c #FBFDFB",
"_+	c #F7F9F8",
":+	c #F8F9F8",
"<+	c #F9F9F9",
"[+	c #A5A5A5",
"}+	c #B5B5B5",
"|+	c #ACACAC",
"1+	c #5D5D5D",
"2+	c #C4C4C4",
"3+	c #BCC7D4",
"4+	c #8DA1B7",
"5+	c #F1F3F2",
"6+	c #AFAFAF",
"7+	c #525252",
"8+	c #A8A8A8",
"9+	c #BFBFBF",
"0+	c #F9FBF9",
"a+	c #F3F6F4",
"b+	c #A2A2A2",
"c+	c #B3B3B3",
"d+	c #AAAAAA",
"e+	c #8D8D8D",
"f+	c #5C5C5C",
"g+	c #FCFCFC",
"h+	c #FCFCFA",
"i+	c #BCC6D3",
"j+	c #8EA0B7",
"k+	c #C3CCD6",
"l+	c #D3D4D2",
"m+	c #AFB0B0",
"n+	c #AFB0AF",
"o+	c #B0B0B0",
"p+	c #7F7F7F",
"q+	c #3C3C3C",
"r+	c #AEAEAE",
"s+	c #808080",
"t+	c #656565",
"u+	c #424242",
"v+	c #898989",
"w+	c #E4E4E3",
"x+	c #8FA0B7",
"y+	c #B7BFC9",
"z+	c #8F8F8E",
"A+	c #424243",
"B+	c #313131",
"C+	c #181818",
"D+	c #2E2E2E",
"E+	c #333333",
"F+	c #171717",
"G+	c #272727",
"H+	c #1A1A1A",
"I+	c #363636",
"J+	c #4B4B4A",
"K+	c #BABBB9",
"L+	c #BEC9D7",
"M+	c #8FA0B6",
"N+	c #BEC7D1",
"O+	c #C4C4C3",
"P+	c #9D9D9D",
"Q+	c #9E9E9D",
"R+	c #9E9E9E",
"S+	c #727272",
"T+	c #696969",
"U+	c #303030",
"V+	c #7D7D7D",
"W+	c #A1A1A0",
"X+	c #DBDBDA",
"Y+	c #BDC8D6",
"Z+	c #C8D1DB",
"`+	c #FDFEFD",
" @	c #FBFCFB",
".@	c #B7B7B7",
"+@	c #919191",
"@@	c #5E5E5E",
"#@	c #C6C6C6",
"$@	c #FEFEFE",
"%@	c #BBC6D4",
"&@	c #C7D1DA",
"*@	c #F2F4F3",
"=@	c #F3F4F3",
"-@	c #D0D0D0",
";@	c #494949",
">@	c #8C8C8C",
",@	c #5A5A5A",
"'@	c #FAFBF9",
")@	c #F4F6F6",
"!@	c #F5F6F6",
"~@	c #D1D1D1",
"{@	c #909090",
"]@	c #C0C0C0",
"^@	c #FCFDFB",
"/@	c #8EA1B7",
"(@	c #C6CFD8",
"_@	c #CECFCD",
":@	c #9B9D9D",
"<@	c #999A9A",
"[@	c #9A9999",
"}@	c #9B9B9B",
"|@	c #707070",
"1@	c #353535",
"2@	c #999999",
"3@	c #9A9A9A",
"4@	c #828282",
"5@	c #393939",
"6@	c #989897",
"7@	c #CDCECC",
"8@	c #B7C3CF",
"9@	c #C6CED7",
"0@	c #A9AAA7",
"a@	c #525353",
"b@	c #4D4C4C",
"c@	c #4E4E4E",
"d@	c #1B1B1B",
"e@	c #414141",
"f@	c #3D3D3D",
"g@	c #4A4A49",
"h@	c #A6A6A5",
"i@	c #B2BECB",
"j@	c #8FA1B8",
"k@	c #C7CFD8",
"l@	c #D9DAD8",
"m@	c #B3B5B4",
"n@	c #B2B2B2",
"o@	c #818181",
"p@	c #979797",
"q@	c #686868",
"r@	c #666666",
"s@	c #D9DAD9",
"t@	c #B7C4D1",
"u@	c #C7D0D9",
"v@	c #FDFEFB",
"w@	c #FCFBFC",
"x@	c #D6D6D6",
"y@	c #4A4A4A",
"z@	c #BBC7D6",
"A@	c #C8D1DA",
"B@	c #F3F5F3",
"C@	c #A0A0A0",
"D@	c #8F8F8F",
"E@	c #91A4BA",
"F@	c #C9D3DC",
"G@	c #F2F3F2",
"H@	c #D2D2D2",
"I@	c #C8C8C8",
"J@	c #DADADA",
"K@	c #6C6C6C",
"L@	c #929292",
"M@	c #F4F3F3",
"N@	c #BCC8D6",
"O@	c #899CB5",
"P@	c #C6D0DB",
"Q@	c #FAFBFA",
"R@	c #FCFBFA",
"S@	c #F9F9F7",
"T@	c #F7F6F5",
"U@	c #D1D0CF",
"V@	c #E2E1E0",
"W@	c #EDECEB",
"X@	c #E7E6E4",
"Y@	c #F5F5F3",
"Z@	c #FCFBFB",
"`@	c #B9C6D4",
" #	c #A0AEC4",
".#	c #B1BCCD",
"+#	c #C3CBD8",
"@#	c #C5CEDA",
"##	c #C4CEDA",
"$#	c #C2CEDB",
"%#	c #C3CEDC",
"&#	c #C4CFDC",
"*#	c #C5D0DD",
"=#	c #C5D0DE",
"-#	c #C5CFDD",
";#	c #C6D1DD",
">#	c #C6D0DC",
",#	c #C5CEDB",
"'#	c #C4CFDB",
")#	c #C4D0DC",
"!#	c #C5D1DC",
"~#	c #C6D1DC",
"{#	c #C6CFDC",
"]#	c #C6CFDD",
"^#	c #C6D0DF",
"/#	c #C5D0E0",
"(#	c #BBC9DB",
"_#	c #9DAEC5",
". + @ # $ % % % % % % % % & & & & & & & & & & & % % % % * = ",
"- ; > # , % % % % % % % & & & & & & & & & & & & % % % % > ' ",
") ! ~ # { % % % % % % % % & & & & & & & & & & & & % % % ] ^ ",
"/ ( _ : % , , < < < < < < < % % % < < < % % % % [ [ [ [ # } ",
"| 1 2 3 4 5 6 7 8 9 6 7 7 5 5 9 7 7 7 7 7 9 9 0 7 a b c d e ",
"f g h i j k l m n o p k k q q r r l k k k p k k r r l s t u ",
"v w x y z A B C D E F z z B G H I F A z J K L M N O O O P Q ",
"R S T U V W X Y Z `  ...+.@.#.$.%.&.W ..*.=.-.;.>.,.'.).!.~.",
"{.].^./.(._.&.:.<.[._._._.*.}.|.1.2._.&.3.4.5.6.7.8.8.9.0.a.",
"b.c.d.e.f.g.f.h.i.j.f.f.k.&.l.m.n.o.g.p.2.q.r.s.t.g.g.e.d.u.",
"v.w.x.y.z.A.A.B.C.D.A.E.E.F.G.C.m.A.A.H.E.I.J.K.L.E.A.M.N.O.",
"P.Q.R.S.i.i.T.U.V.W.i.i.T.T.X.Y.Z.T.T.`.T. +.+++B.i.T.=.@+#+",
"$+%+&+*+=+=+-+;+>+,+-+-+-+'+)+!+4.-+=+-+=+~+{+M.]+=+-+^+X #+",
"$+/+(+_+:+<+o.l.T.[+>.<+<+2.}+i.|+<+>.J f.q.1+2+t.>.>.o.F 3+",
"4+/+^.5+W W &.6+m.[._._._.*.:.7+8+2._.&.3.4.r.9+<+_._...0.3+",
"4+/+0+a+&.&.f.:.i.b+2.2.2.W c+m.d+o.2.f.&.e+f+s.g+&.2.2.h+i+",
"j+k+l+m+n+o+:.p+q+~+o+o+o+r+s+q+A.:.o+:.6+t+u+v+l.o+o+}+w+#+",
"x+y+z+u+++A+!+B+C+D+!+++++++E+F+J.!+++++++G+H+I+>+++++J+K+L+",
"M+N+O+P+Q+P+R+S+I+T+R+R+R+R+=.U+1+R+R+M.P+r.q+V+[.R+M.W+X+Y+",
"j+Z+`+ @ @g+o..@B.8+J g+g+J ^+{+)+o.g+g+<++@@@#@$@g+g+g+N %@",
"$+&@^.*@=@W &.:.m.[._._.W W -@;@q.&.W _.3.>@,@9+>.W _...0.%@",
"$+&@'@)@!@2.o.c+i.[.2.f.f.2.~@;@{@2.f.o.&.>@r.]@g+f.f.f.^@%@",
"/@(@_@:@<@[@}@|@1@t+2@3@3@2@4@D+,@2@2@3@2@G.5@A.P+2@2@6@7@8@",
"b.9@0@a@$.b@c@5@d@E+{+{+{+{+e@F+J.{+{+{+{+J.Y.f@c@{+{+g@h@i@",
"j@k@l@m@n@n@n@o@f@~+n@:.:.:.p@I+q@n@:.n@o+r@u+4.}+:.:.o+s@t@",
"j+u@v@ @ @w@o.}+m.[+>.g+g+>.x@y@;+o.g+g+o.{@1+2+$@g+g+g+$@z@",
"v.A@^.B@W W _.:.i.C@W W W W ]+;@D@2.W _.3.>@r.9+J _._._. @z@",
"E@F@^.5+G@W _.H@b+I@W W W _.J@K@b+2._.&.W o+L@H@o._.W M@ @N@",
"O@P@y 0+Q@B R@S@'.T@B B F g+X U@V@g+F F F W@X@Y@g+Z@B Z@$@`@",
" #.#+#@###$#%#&#*#=#-#-#-#*#*#;#>#@#,#,#'#)#!#~#{#]#^#/#(#_#"};
