/* XPM */
static char * halfwaypoint_xpm[] = {
"30 27 85 1",
" 	c #00A2E8",
".	c #09A5E9",
"+	c #7ACEF3",
"@	c #6CCAF2",
"#	c #02A3E8",
"$	c #84D2F4",
"%	c #FFFFFF",
"&	c #61C5F1",
"*	c #AEE1F8",
"=	c #8BD5F5",
"-	c #0DA7E9",
";	c #CCECFA",
">	c #EFF9FE",
",	c #31B4EC",
"'	c #0CA6E9",
")	c #C2E9FA",
"!	c #ADE1F8",
"~	c #19ABEA",
"{	c #0FA7E9",
"]	c #0BA6E9",
"^	c #C0E8F9",
"/	c #AFE2F8",
"(	c #05A4E8",
"_	c #0AA6E9",
":	c #BFE7F9",
"<	c #B1E3F8",
"[	c #06A4E9",
"}	c #BCE7F9",
"|	c #B3E3F8",
"1	c #07A5E9",
"2	c #BAE6F9",
"3	c #B6E5F8",
"4	c #18ABEA",
"5	c #82D1F4",
"6	c #B8E5F9",
"7	c #9DDBF6",
"8	c #46BBEE",
"9	c #B9E5F9",
"0	c #08A5E9",
"a	c #30B4EC",
"b	c #EDF9FD",
"c	c #D5F0FB",
"d	c #C1E9F9",
"e	c #F7FCFE",
"f	c #1AACEA",
"g	c #FAFDFF",
"h	c #59C3F0",
"i	c #03A3E8",
"j	c #E8F7FD",
"k	c #42BAEE",
"l	c #7ED0F3",
"m	c #CCEDFA",
"n	c #ABE0F7",
"o	c #DAF2FC",
"p	c #F6FCFE",
"q	c #FDFEFF",
"r	c #BEE7F9",
"s	c #17AAEA",
"t	c #04A3E8",
"u	c #AAE0F7",
"v	c #C5EAFA",
"w	c #0EA7E9",
"x	c #33B5ED",
"y	c #A7DFF7",
"z	c #C7EBFA",
"A	c #A5DEF7",
"B	c #C9EBFA",
"C	c #A3DDF7",
"D	c #CAECFA",
"E	c #10A8E9",
"F	c #A0DCF6",
"G	c #12A8EA",
"H	c #CEEDFB",
"I	c #12A9EA",
"J	c #58C2F0",
"K	c #F0FAFE",
"L	c #E3F5FC",
"M	c #D0EEFB",
"N	c #13A9EA",
"O	c #6CC9F2",
"P	c #55C1F0",
"Q	c #20AEEB",
"R	c #92D7F5",
"S	c #68C8F1",
"T	c #01A2E8",
"                       .+@#   ",
"                       $%%&   ",
"                       *%%=   ",
"                      -;%>,   ",
"                     ')!~{    ",
"                    ]^/(      ",
"                   _:<[       ",
"                  _}|1        ",
"                 .231         ",
"            45678960          ",
"           ab%%%%c.           ",
"           d%%%%%ef           ",
"          .g%%%%%%h           ",
"          ij%%%%%%k           ",
"           l%%%%%m(           ",
"          (nop%qrs            ",
"         tuvw_xf              ",
"        iyz{                  ",
"       iAB{                   ",
"      iCDE                    ",
"     iF;G                     ",
"    #7HI                      ",
"  JKLMN                       ",
"  L%%O                        ",
"  )%%P                        ",
"  QRST                        ",
"                              "};
