/* XPM */
static const char * halfwaypoint_xpm[] = {
"25 26 13 1",
" 	c None",
".	c #F0F0F0",
"+	c #888888",
"@	c #000000",
"#	c #4176AA",
"$	c #497BAD",
"%	c #4175AB",
"&	c #A8CAE7",
"*	c #FAFDFE",
"=	c #0070C7",
"-	c #FFFFFF",
";	c #FEFEFE",
">	c #F8F9FB",
"                         ",
"                         ",
"                         ",
"                         ",
"                         ",
"    ................     ",
"    .............+@.     ",
"    ............+@+.     ",
"    ...........+@+..     ",
"    ..........+@+...     ",
"    .........+@+....     ",
"    ......#$$@+.....     ",
"    .....%&*&=......     ",
"    .....$--;=......     ",
"    .....$&>&=......     ",
"    ....+@===.......     ",
"    ...+@+..........     ",
"    ..+@+...........     ",
"    .+@+............     ",
"    +@+.............     ",
"    @+..............     ",
"                         ",
"                         ",
"                         ",
"                         ",
"                         "};
