/* XPM */
static const char * home_xpm[] = {
"16 16 11 1",
" 	c None",
".	c #ACACAC",
"+	c #000000",
"@	c #939393",
"#	c #8E8E8E",
"$	c #7F7F7F",
"%	c #3F7E8F",
"&	c #8C8C8C",
"*	c #0E6178",
"=	c #7E7E7E",
"-	c #0A6A81",
" .++++++++++++@ ",
" ++++++++++++++ ",
"++#$$$$%%$$$$&++",
"++$$$$%**%$$$$++",
"++$$$%*$$*%$$$++",
"++$$%*$$$$*%$$++",
"++$%*$$$$$$*%$++",
"++$**********=++",
"++$*%$$$$==%*=++",
"++$*%$$$$$$%*$++",
"++$*%$$$$$$%*$++",
"++$*%$$$$$$%*$++",
"++$*--------*$++",
"++#$$$$$$$$$$$++",
" +++++++++++++++",
"  ++++++++++++@ "};
