/* XPM */
static char * icon_copy_xpm[] = {
"32 32 115 2",
"  	c None",
". 	c #FEFEFE",
"+ 	c #FCFEFE",
"@ 	c #EAF4FA",
"# 	c #E7F3FA",
"$ 	c #E8F3FA",
"% 	c #F4F9FD",
"& 	c #FEFFFF",
"* 	c #FFFFFF",
"= 	c #EAF5FB",
"- 	c #6BB3DF",
"; 	c #56A8DA",
"> 	c #58A8DB",
", 	c #6DB3DF",
"' 	c #B5D9EF",
") 	c #F8FBFD",
"! 	c #419DD6",
"~ 	c #53A6DA",
"{ 	c #56A7DA",
"] 	c #4AA1D8",
"^ 	c #3E9BD5",
"/ 	c #47A0D7",
"( 	c #9FCDEA",
"_ 	c #F7FBFD",
": 	c #53A6D9",
"< 	c #D2E8F5",
"[ 	c #E7F2FA",
"} 	c #C1DFF1",
"| 	c #60ACDC",
"1 	c #5FACDC",
"2 	c #FCFCFC",
"3 	c #E7E7E7",
"4 	c #E4E4E4",
"5 	c #E0E2E3",
"6 	c #CED9DF",
"7 	c #CCD7DF",
"8 	c #D1DAE0",
"9 	c #E2E3E3",
"0 	c #E5E5E5",
"a 	c #F2F2F2",
"b 	c #FDFDFD",
"c 	c #585858",
"d 	c #404040",
"e 	c #424242",
"f 	c #5B5B5B",
"g 	c #ABABAB",
"h 	c #F5F5F5",
"i 	c #E1E2E3",
"j 	c #282828",
"k 	c #3D3D3D",
"l 	c #333333",
"m 	c #262626",
"n 	c #313131",
"o 	c #939393",
"p 	c #F4F4F4",
"q 	c #CFD9E0",
"r 	c #CCCCCC",
"s 	c #E2E2E2",
"t 	c #B5B5B5",
"u 	c #343434",
"v 	c #2B2B2B",
"w 	c #303030",
"x 	c #3C3C3C",
"y 	c #7A7A7A",
"z 	c #929292",
"A 	c #414141",
"B 	c #D9D9D9",
"C 	c #FAFAFA",
"D 	c #E3E3E3",
"E 	c #E1E1E1",
"F 	c #E6E6E6",
"G 	c #FBFBFB",
"H 	c #434343",
"I 	c #3E3E3E",
"J 	c #797979",
"K 	c #2A2A2A",
"L 	c #292929",
"M 	c #F1F1F1",
"N 	c #595959",
"O 	c #353535",
"P 	c #E9F3FA",
"Q 	c #E6F2F9",
"R 	c #E8F2F8",
"S 	c #444444",
"T 	c #E9F3F9",
"U 	c #6BB2DE",
"V 	c #58A7D9",
"W 	c #6CB2DE",
"X 	c #CED8DF",
"Y 	c #5A5A5A",
"Z 	c #E5F0F8",
"` 	c #56A7D9",
" .	c #6DB2DD",
"..	c #CFD9DF",
"+.	c #57A7D9",
"@.	c #E6F1F8",
"#.	c #FAFBFC",
"$.	c #E5F1F8",
"%.	c #DFE0E1",
"&.	c #FAFCFD",
"*.	c #E0E2E2",
"=.	c #E7F2F9",
"-.	c #58A8D9",
";.	c #6DB2DE",
">.	c #CED8DE",
",.	c #57A7DA",
"'.	c #E9F2F9",
").	c #57A8DA",
"!.	c #FAFCFC",
"~.	c #E8F2F9",
"{.	c #E0E1E2",
"].	c #54A6D9",
"^.	c #D2E7F4",
"/.	c #DFE1E2",
"(.	c #55A6D8",
". . . . . . . . . . . . . . . . . . . . . . . . . . . . . . . . ",
". + @ # # # # # # # # # # # $ % & * * * * * * * * * * * * * * . ",
". = - ; ; ; ; ; ; ; ; ; ; ; > , ' ) * * * * * * * * * * * * * . ",
". # ; ! ~ ; ; ; ; ; ; ; { ] ^ ^ / ( _ * * * * * * * * * * * * . ",
". # ; : < # # # # # # # [ } | ; ; 1 ' + * * * * * * * * * * * . ",
". # ; ; # * * * * 2 3 4 4 5 6 7 7 7 8 9 4 4 0 a . . b . * * * . ",
". # ; ; # * * * * 3 c d d d d d d d d d d d e f g h . . * * * . ",
". # ; ; # + @ # @ i d j k d d d d d d d d l m j n o p . . * * . ",
". # ; ; # = - ; - q d k r 4 4 4 4 4 4 4 s t u j v w o p b * * . ",
". # ; ; # = - ; - q d d 4 * * * * * b b b s e x y n w z p . * . ",
". # ; ; # + @ # @ i d d 4 . b b b b . . b s A A B o n w z h * . ",
". # ; ; # + @ # @ i d d s C 3 4 4 D E F G D H I r B J K n g b . ",
". # ; ; # = - ; - q d H 4 3 c A e e d c F D e v I A x L m f M . ",
". # ; ; # = - ; - q e H 4 3 N H A d d N 0 3 f e e e e O j H 0 . ",
". # ; ; # + @ [ P i H A s C 3 4 D E E 4 C C 3 s D s E t l d 4 . ",
". # ; ; # + @ Q R 5 S H 4 2 3 s E E D D D s D D s 3 G 4 d d 4 . ",
". # ; ; # T U V W X H A D F Y e e e d e H H e e e c 3 4 d d 4 . ",
". # ; { Z T W `  ...H A E 0 Y H A A H e A H d A d c 3 4 d d 4 . ",
". Q +.+.@.#.R $.T %.A A E C 3 s s D 4 4 s 4 4 4 4 3 2 4 d d 4 . ",
". $.+.+.$.&.T Z R *.e e D G 0 s 4 4 4 D D 4 4 4 4 3 2 4 d d 4 . ",
". =.-.+.Q T ;.` U >.e A E 4 c d d A e H d d d d d c 3 4 d d 4 . ",
". # ,.+.$.'.W -.W X e e s F N e e H e d d d d d d c 3 4 d d 4 . ",
". # ).,.$.!.~.@.R {.e e 4 G 3 4 4 4 4 4 4 4 4 4 4 3 2 4 d d 4 . ",
". # { ].^.@.Q $.T /.e H 4 2 3 4 4 4 4 4 4 4 4 4 4 3 2 4 d d 4 . ",
". # ; ! (.V +.,.;...A d 4 3 c d d d d d d d d d d c 3 4 d d 4 . ",
". = - ; ).+.V V , q d d 4 3 c d d d d d d d d d d c 3 4 d d 4 . ",
". + @ # =.=.# # @ i d d 4 2 3 4 4 4 4 4 4 4 4 4 4 3 2 4 d d 4 . ",
". * * * * * * * * 4 d k r 4 4 4 4 4 4 4 4 4 4 4 4 4 4 r k d 4 . ",
". * * * * * * * * 4 d j k d d d d d d d d d d d d d d k j d 4 . ",
". * * * * * * * * 3 c d d d d d d d d d d d d d d d d d d c 3 . ",
". * * * * * * * * 2 3 4 4 4 4 4 4 4 4 4 4 4 4 4 4 4 4 4 4 3 2 . ",
". . . . . . . . . . . . . . . . . . . . . . . . . . . . . . . . "};
