/* XPM */
static char * icon_copy_xpm[] = {
"29 29 264 2",
"  	c None",
". 	c #77A6EF",
"+ 	c #73A3EF",
"@ 	c #74A3EF",
"# 	c #73A3EE",
"$ 	c #6198ED",
"% 	c #5F97EE",
"& 	c #72A3EE",
"* 	c #71A1ED",
"= 	c #5E94EC",
"- 	c #6097ED",
"; 	c #6197ED",
"> 	c #5E95EC",
", 	c #5E95EB",
"' 	c #5F95EC",
") 	c #6095EC",
"! 	c #5F95EB",
"~ 	c #70A0EC",
"{ 	c #5B92E9",
"] 	c #5E95EA",
"^ 	c #5E94EA",
"/ 	c #5A91E9",
"( 	c #5890E9",
"_ 	c #5891E9",
": 	c #5991E9",
"< 	c #5A92E9",
"[ 	c #5D94EA",
"} 	c #5C92E9",
"| 	c #6FA0EC",
"1 	c #6A9CEB",
"2 	c #5A92E8",
"3 	c #5C93E8",
"4 	c #5890E7",
"5 	c #87AFEE",
"6 	c #B3CCF4",
"7 	c #B4CDF5",
"8 	c #A9C6F3",
"9 	c #77A5EB",
"0 	c #5991E7",
"a 	c #5B93E8",
"b 	c #699CEB",
"c 	c #679AEA",
"d 	c #5990E7",
"e 	c #5B91E7",
"f 	c #528BE6",
"g 	c #AEC9F3",
"h 	c #FFFFFF",
"i 	c #F9FBFE",
"j 	c #DAE6F9",
"k 	c #91B6EF",
"l 	c #5F94E7",
"m 	c #6498E9",
"n 	c #588FE5",
"o 	c #5990E6",
"p 	c #508AE5",
"q 	c #AEC8F3",
"r 	c #77A4EA",
"s 	c #75A2EA",
"t 	c #76A4EA",
"u 	c #78A4EA",
"v 	c #7BA6EB",
"w 	c #7CA6EB",
"x 	c #6D9DE8",
"y 	c #588FE6",
"z 	c #598FE6",
"A 	c #6195E8",
"B 	c #578DE3",
"C 	c #588DE4",
"D 	c #4F87E3",
"E 	c #ADC8F2",
"F 	c #558CE3",
"G 	c #518AE3",
"H 	c #4A85E1",
"I 	c #4C87E1",
"J 	c #4D87E1",
"K 	c #4F88E1",
"L 	c #4F88E2",
"M 	c #4F89E2",
"N 	c #4C88E2",
"O 	c #5189E2",
"P 	c #5F93E6",
"Q 	c #548CE1",
"R 	c #558DE1",
"S 	c #4C86E0",
"T 	c #ACC7F1",
"U 	c #5389E1",
"V 	c #5D92E3",
"W 	c #F4F7FD",
"X 	c #F4F8FD",
"Y 	c #EEF3FC",
"Z 	c #8AAFEA",
"` 	c #4B85DF",
" .	c #5E93E6",
"..	c #5C91E4",
"+.	c #5389E0",
"@.	c #558BE1",
"#.	c #4B84DF",
"$.	c #ABC6F0",
"%.	c #5087E0",
"&.	c #6395E3",
"*.	c #9DBCED",
"=.	c #4F87E0",
"-.	c #538AE0",
";.	c #598EE2",
">.	c #5188DE",
",.	c #5289DE",
"'.	c #4982DC",
").	c #AAC5EF",
"!.	c #4D84DD",
"~.	c #6092E1",
"{.	c #EFF4FC",
"].	c #99B9EB",
"^.	c #5187DE",
"/.	c #568BE1",
"(.	c #4F86DD",
"_.	c #5086DD",
":.	c #4680DB",
"<.	c #AAC4EE",
"[.	c #4C83DB",
"}.	c #5F8FE0",
"|.	c #E5EDFA",
"1.	c #83A9E6",
"2.	c #4A82DC",
"3.	c #5388DF",
"4.	c #4E83DA",
"5.	c #4F84DB",
"6.	c #457DD9",
"7.	c #A9C3ED",
"8.	c #4A81DA",
"9.	c #5D8DDD",
"0.	c #467DD9",
"a.	c #5085DD",
"b.	c #4C81D8",
"c.	c #4D82D9",
"d.	c #437BD7",
"e.	c #A8C2EC",
"f.	c #487FD8",
"g.	c #5C8CDB",
"h.	c #DBE5F7",
"i.	c #9FBCEA",
"j.	c #9AB8E9",
"k.	c #9BB9E9",
"l.	c #9AB7E9",
"m.	c #B9CDEF",
"n.	c #4D82DA",
"o.	c #4A7FD6",
"p.	c #4B80D7",
"q.	c #4179D4",
"r.	c #A7C1EB",
"s.	c #487DD6",
"t.	c #5A8ADA",
"u.	c #B6CBEE",
"v.	c #3E76D3",
"w.	c #346FD1",
"x.	c #3570D1",
"y.	c #336FD1",
"z.	c #719ADF",
"A.	c #4A7FD8",
"B.	c #487CD4",
"C.	c #497DD5",
"D.	c #3E75D2",
"E.	c #A6BFEA",
"F.	c #5888D8",
"G.	c #E8EFFA",
"H.	c #C3D4F1",
"I.	c #BFD2F0",
"J.	c #C0D2F0",
"K.	c #D2DFF5",
"L.	c #457BD4",
"M.	c #4679D1",
"N.	c #467AD1",
"O.	c #3C72CF",
"P.	c #A5BDE9",
"Q.	c #467AD2",
"R.	c #5484D5",
"S.	c #4176D1",
"T.	c #4376CE",
"U.	c #4276CF",
"V.	c #4376CF",
"W.	c #386ECC",
"X.	c #A3BCE7",
"Y.	c #4577CF",
"Z.	c #5281D2",
"`.	c #BCCEEE",
" +	c #4F7FD1",
".+	c #4678CF",
"++	c #4778D0",
"@+	c #7DA1DD",
"#+	c #3D71CE",
"$+	c #4173CB",
"%+	c #4173CC",
"&+	c #396DCA",
"*+	c #93AFE1",
"=+	c #ECF0F9",
"-+	c #F2F5FB",
";+	c #4475CC",
">+	c #507DD0",
",+	c #B7CAEB",
"'+	c #4072CB",
")+	c #366BC8",
"!+	c #376CC9",
"~+	c #356AC8",
"{+	c #7197D8",
"]+	c #A2BAE6",
"^+	c #366BC9",
"/+	c #3E70C8",
"(+	c #3D70C9",
"_+	c #3569C6",
":+	c #2B62C3",
"<+	c #2A61C3",
"[+	c #396CC7",
"}+	c #4D7ACD",
"|+	c #A0B9E4",
"1+	c #3267C5",
"2+	c #3467C6",
"3+	c #3A6CC5",
"4+	c #386AC4",
"5+	c #4B78C9",
"6+	c #9FB7E2",
"7+	c #2F63C1",
"8+	c #3468C6",
"9+	c #3063C2",
"0+	c #3868C0",
"a+	c #3867C0",
"b+	c #3666C0",
"c+	c #4673C4",
"d+	c #FEFEFE",
"e+	c #FDFDFE",
"f+	c #9AB2DF",
"g+	c #2D60BD",
"h+	c #2B5FBE",
"i+	c #3565BD",
"j+	c #3464BD",
"k+	c #3967BE",
"l+	c #9BB2DD",
"m+	c #9CB2DE",
"n+	c #99B0DD",
"o+	c #6589CC",
"p+	c #3061BB",
"q+	c #2C5FBF",
"r+	c #2659BB",
"s+	c #3361BA",
"t+	c #3261BA",
"u+	c #3060BA",
"v+	c #285AB8",
"w+	c #2758B7",
"x+	c #2759B7",
"y+	c #2D5EB9",
"z+	c #2F5EB8",
"A+	c #2F5EB9",
"B+	c #2F5DB9",
"C+	c #2253B5",
"D+	c #2F5CB6",
"E+	c #2E5BB7",
"F+	c #2153B5",
"G+	c #2050B3",
"H+	c #2B59B3",
"I+	c #2D5AB4",
"J+	c #2C59B4",
"K+	c #2B59B4",
"L+	c #1F50B3",
"M+	c #1A4AB0",
"N+	c #1D4DB0",
"O+	c #1E4DB0",
"        . + @ @ @ @ @ @ @ @ @ @ @ @ @ @ @ @ @ + .         ",
"    # $ % % % % % % % % % % % % % % % % % % % % % $ &     ",
"  * = - ; ; ; ; ; ; ; ; ; ; ; ; ; ; ; ; ; ; ; ; ; - > *   ",
"  , ' ) ) ' ! ! ! ! ! ! ! ! ' ) ) ) ) ) ) ) ) ) ) ) ' !   ",
"~ { ] ] ^ / ( _ _ _ _ _ _ : ( < [ ] ] ] ] ] ] ] ] ] ] } | ",
"1 2 3 3 4 5 6 7 7 7 7 7 7 7 8 9 0 a 3 3 3 3 3 3 3 3 3 2 b ",
"c d e e f g h h h h h h h h i j k l e e e e e e e e e d c ",
"m n o o p q h h h r s r t u v w x o y z o o o o o o o n m ",
"A B C C D E h h h F G H I J J J K L M N O C C C C C C B A ",
"P Q R R S T h h h U V W X X W W W W X Y Z ` R R R R R Q  .",
"..+.@.@.#.$.h h h %.&.h h h h h h h h h W *.=.-.@.@.@.+...",
";.>.,.,.'.).h h h !.~.h h h h h h h h h h {.].^.>.,.,.>.;.",
"/.(._._.:.<.h h h [.}.h h h h h h h h h h h |.1.2._._.(.@.",
"3.4.5.5.6.7.h h h 8.9.h h h h h h h h h h h h 7.0.5.5.4.3.",
"a.b.c.c.d.e.h h h f.g.h h h.i.j.k.k.k.l.m.h h e.d.c.c.b.a.",
"n.o.p.p.q.r.h h h s.t.h h u.v.w.x.x.x.y.z.h h r.q.p.p.o.n.",
"A.B.C.C.D.E.h h h B.F.h h G.H.I.J.J.J.I.K.h h E.D.C.C.B.A.",
"L.M.N.N.O.P.h h h Q.R.h h h h h h h h h h h h P.O.N.N.M.L.",
"S.T.U.V.W.X.h h h Y.Z.h h `. +.+++++++Y.@+h h X.W.U.U.T.S.",
"#+$+%+%+&+*+=+-+-+;+>+h h ,+'+)+!+!+!+~+{+h h ]+^+%+%+$+#+",
"&+/+(+(+(+_+:+<+<+[+}+h h h h h h h h h h h h |+1+(+(+/+&+",
"2+3+3+3+3+3+3+3+3+4+5+h h h h h h h h h h h h 6+7+3+3+3+8+",
"9+0+a+a+a+a+a+a+a+b+c+d+h h h h h h h h h h e+f+g+a+a+0+9+",
"h+i+i+i+i+i+i+i+i+j+k+l+m+m+m+m+m+m+m+m+m+m+n+o+p+i+i+i+q+",
"r+s+t+t+t+t+t+t+t+t+u+v+w+w+w+w+w+w+x+x+x+w+x+y+t+t+t+s+r+",
"  z+A+B+B+A+A+A+A+B+A+A+A+B+A+A+A+A+A+A+B+A+B+A+B+A+A+z+  ",
"  C+D+E+E+E+E+E+E+E+E+E+E+E+E+E+E+E+E+E+E+E+E+E+E+E+D+F+  ",
"    G+H+I+J+K+K+K+K+K+K+K+K+K+K+K+K+K+K+K+K+K+J+I+H+L+    ",
"        M+N+O+O+O+O+O+O+O+O+O+O+O+O+O+O+O+O+O+N+M+        "};
