/* XPM */
static char * icon_copy_xpm[] = {
"39 39 449 2",
"  	c #FEFEFF",
". 	c #FFFFFF",
"+ 	c #FEFEFE",
"@ 	c #FDFEFE",
"# 	c #FCFCFD",
"$ 	c #ECF0F5",
"% 	c #DCE3EE",
"& 	c #D0DAE7",
"* 	c #C5D0E1",
"= 	c #C4D0E0",
"- 	c #C5D0E0",
"; 	c #D1D9E6",
"> 	c #DDE3ED",
", 	c #ECEFF4",
"' 	c #FDFDFE",
") 	c #F8F9FB",
"! 	c #C1CEDD",
"~ 	c #708CB2",
"{ 	c #4A6E9D",
"] 	c #476B9C",
"^ 	c #466A9B",
"/ 	c #486C9C",
"( 	c #496C9C",
"_ 	c #476B9A",
": 	c #466A9A",
"< 	c #486B9C",
"[ 	c #476B9B",
"} 	c #45699B",
"| 	c #486B9B",
"1 	c #4B6E9D",
"2 	c #718DB2",
"3 	c #FAFBFC",
"4 	c #B4C2D5",
"5 	c #3D6292",
"6 	c #214C83",
"7 	c #446695",
"8 	c #6884AB",
"9 	c #7C96B7",
"0 	c #829CBA",
"a 	c #899FBD",
"b 	c #889EBD",
"c 	c #8BA1BE",
"d 	c #8FA5C1",
"e 	c #8BA0BE",
"f 	c #89A0BD",
"g 	c #829BBA",
"h 	c #7A94B5",
"i 	c #6784AA",
"j 	c #406695",
"k 	c #254F85",
"l 	c #406596",
"m 	c #BBC8D9",
"n 	c #D2DBE6",
"o 	c #4A6C97",
"p 	c #234B81",
"q 	c #5D7BA2",
"r 	c #9BACC5",
"s 	c #B8C5D6",
"t 	c #BAC6D7",
"u 	c #BAC8D8",
"v 	c #BDC9D9",
"w 	c #BAC6D8",
"x 	c #BCC9D8",
"y 	c #BAC8D7",
"z 	c #BCCAD9",
"A 	c #BBC7D8",
"B 	c #B9C6D8",
"C 	c #B6C3D5",
"D 	c #98ABC5",
"E 	c #58759F",
"F 	c #294F84",
"G 	c #496B97",
"H 	c #D2DAE6",
"I 	c #F4F6F9",
"J 	c #90A5BF",
"K 	c #1F477B",
"L 	c #496A94",
"M 	c #95A8C0",
"N 	c #B6C3D4",
"O 	c #AAB9CD",
"P 	c #A4B4CA",
"Q 	c #A3B5CA",
"R 	c #A2B4C9",
"S 	c #9FB1C8",
"T 	c #A2B3C9",
"U 	c #A5B5CB",
"V 	c #AAB9CC",
"W 	c #B4C0D3",
"X 	c #92A7BF",
"Y 	c #486993",
"Z 	c #254D7E",
"` 	c #7E95B4",
" .	c #E8EBF1",
"..	c #6782A3",
"+.	c #21487A",
"@.	c #708AA9",
"#.	c #A8B8CB",
"$.	c #A1B2C6",
"%.	c #9CADC3",
"&.	c #474A4E",
"*.	c #333333",
"=.	c #9EB0C6",
"-.	c #9BADC4",
";.	c #9CAEC4",
">.	c #9BACC3",
",.	c #9DAFC5",
"'.	c #9DAEC5",
").	c #9DAEC4",
"!.	c #9FB0C6",
"~.	c #A7B7CA",
"{.	c #738DAB",
"].	c #2E5382",
"^.	c #527098",
"/.	c #EDEFF5",
"(.	c #E5E9EF",
"_.	c #617A9D",
":.	c #294D7A",
"<.	c #8297B2",
"[.	c #A0B1C5",
"}.	c #95A7BE",
"|.	c #F5F7F9",
"1.	c #575A5D",
"2.	c #8592A5",
"3.	c #96A7BD",
"4.	c #96A8BE",
"5.	c #9CADC2",
"6.	c #899EB7",
"7.	c #395A85",
"8.	c #4F6D93",
"9.	c #E4EAEF",
"0.	c #E6EAEF",
"a.	c #637C9D",
"b.	c #2B4F7A",
"c.	c #8296B0",
"d.	c #8DA0B8",
"e.	c #F4F6F8",
"f.	c #E7E9EB",
"g.	c #5C5E60",
"h.	c #788597",
"i.	c #8EA1B8",
"j.	c #8FA1B8",
"k.	c #92A3BA",
"l.	c #8A9CB5",
"m.	c #3C5B83",
"n.	c #516E91",
"o.	c #E7ECF0",
"p.	c #617A9A",
"q.	c #294B75",
"r.	c #7B90AA",
"s.	c #8DA0B7",
"t.	c #8599B2",
"u.	c #F3F5F7",
"v.	c #E7E8EA",
"w.	c #7B7B7C",
"x.	c #677281",
"y.	c #869AB2",
"z.	c #8A9DB4",
"A.	c #8094AE",
"B.	c #38587F",
"C.	c #4F6B8E",
"D.	c #E7EBF0",
"E.	c #E6E9EE",
"F.	c #617797",
"G.	c #264771",
"H.	c #748AA3",
"I.	c #8698AF",
"J.	c #7E92AB",
"K.	c #F2F4F7",
"L.	c #868788",
"M.	c #535C67",
"N.	c #7F92AB",
"O.	c #8295AD",
"P.	c #798DA8",
"Q.	c #35537B",
"R.	c #4E698B",
"S.	c #E7EBEF",
"T.	c #E5E9EE",
"U.	c #5F7794",
"V.	c #23446C",
"W.	c #6E839D",
"X.	c #7F91A8",
"Y.	c #778BA4",
"Z.	c #F1F3F6",
"`.	c #88898A",
" +	c #666666",
".+	c #A9ABAC",
"++	c #4B535C",
"@+	c #788BA4",
"#+	c #7B8EA6",
"$+	c #7387A0",
"%+	c #325076",
"&+	c #4D6887",
"*+	c #E7EAEF",
"=+	c #E4E8ED",
"-+	c #5D7591",
";+	c #214166",
">+	c #677C96",
",+	c #7689A0",
"'+	c #6F849C",
")+	c #F0F3F5",
"!+	c #3E3F3F",
"~+	c #73859E",
"{+	c #6A8099",
"]+	c #304D71",
"^+	c #4C6684",
"/+	c #5D738E",
"(+	c #1E3D62",
"_+	c #607690",
":+	c #6D8198",
"<+	c #687C95",
"[+	c #EFF2F4",
"}+	c #565657",
"|+	c #3B3F44",
"1+	c #6B7E97",
"2+	c #647893",
"3+	c #2D4A6D",
"4+	c #4B6482",
"5+	c #E4E8EC",
"6+	c #5C728A",
"7+	c #1A395D",
"8+	c #5A6E88",
"9+	c #647990",
"0+	c #5F748D",
"a+	c #EEF1F3",
"b+	c #E6E6E6",
"c+	c #45494E",
"d+	c #61768F",
"e+	c #5B728A",
"f+	c #294767",
"g+	c #4A637F",
"h+	c #E6EAEE",
"i+	c #5A7088",
"j+	c #183657",
"k+	c #536981",
"l+	c #5B7088",
"m+	c #576D86",
"n+	c #EDF0F2",
"o+	c #878889",
"p+	c #CBCDCF",
"q+	c #CACCCE",
"r+	c #43484C",
"s+	c #556C84",
"t+	c #596F88",
"u+	c #526A83",
"v+	c #264463",
"w+	c #49617B",
"x+	c #E5E9ED",
"y+	c #5A6E85",
"z+	c #153152",
"A+	c #4A607A",
"B+	c #ECEFF1",
"C+	c #C9CBCD",
"D+	c #41464A",
"E+	c #243F5F",
"F+	c #475E78",
"G+	c #E4E7EA",
"H+	c #596D83",
"I+	c #112D4D",
"J+	c #3B516A",
"K+	c #EBEEF0",
"L+	c #C8CACC",
"M+	c #3F4448",
"N+	c #213B59",
"O+	c #475D75",
"P+	c #E5E8EC",
"Q+	c #E3E7EA",
"R+	c #576B80",
"S+	c #092645",
"T+	c #30485F",
"U+	c #EAEDEF",
"V+	c #B1B2B2",
"W+	c #C7C9CB",
"X+	c #3B4045",
"Y+	c #183350",
"Z+	c #475C73",
"`+	c #56697D",
" @	c #011C3A",
".@	c #284059",
"+@	c #E9ECEE",
"@@	c #A7A9AA",
"#@	c #3E3E3E",
"$@	c #23282D",
"%@	c #092540",
"&@	c #44596E",
"*@	c #E6E8EC",
"=@	c #566A7C",
"-@	c #021D3A",
";@	c #27405B",
">@	c #E9ECEF",
",@	c #000000",
"'@	c #0B2742",
")@	c #E5E8EB",
"!@	c #0A2643",
"~@	c #29435F",
"{@	c #EAECEF",
"]@	c #193450",
"^@	c #475C72",
"/@	c #E5E7EC",
"(@	c #E4E7EB",
"_@	c #596C82",
":@	c #0D2A49",
"<@	c #2B4564",
"[@	c #EAEDF0",
"}@	c #A8A9AB",
"|@	c #1C3855",
"1@	c #475E75",
"2@	c #5A6F86",
"3@	c #0E2C4E",
"4@	c #284360",
"5@	c #242B34",
"6@	c #1D3959",
"7@	c #485F79",
"8@	c #5D7289",
"9@	c #112F52",
"0@	c #2C4765",
"a@	c #EAEDF1",
"b@	c #203C5D",
"c@	c #4B617C",
"d@	c #E6E9ED",
"e@	c #5E738B",
"f@	c #143155",
"g@	c #324C6A",
"h@	c #2E4968",
"i@	c #2E4868",
"j@	c #EBEEF1",
"k@	c #2D4867",
"l@	c #233F60",
"m@	c #4D637F",
"n@	c #5F748F",
"o@	c #15355A",
"p@	c #334E6E",
"q@	c #2F4B6C",
"r@	c #2F4C6C",
"s@	c #EBEEF2",
"t@	c #A8AAAC",
"u@	c #2E4A6B",
"v@	c #244165",
"w@	c #4E6681",
"x@	c #E5E8EE",
"y@	c #617792",
"z@	c #17385E",
"A@	c #355172",
"B@	c #314E70",
"C@	c #304D6F",
"D@	c #264469",
"E@	c #506986",
"F@	c #617895",
"G@	c #183B63",
"H@	c #365277",
"I@	c #325075",
"J@	c #EBEEF3",
"K@	c #314F74",
"L@	c #27466E",
"M@	c #516B89",
"N@	c #E6EBEF",
"O@	c #E5EAEE",
"P@	c #627B98",
"Q@	c #1A3F68",
"R@	c #38557B",
"S@	c #345379",
"T@	c #EBEFF3",
"U@	c #335278",
"V@	c #294A72",
"W@	c #536D8D",
"X@	c #647C9B",
"Y@	c #1D416D",
"Z@	c #35567D",
"`@	c #28313B",
" #	c #030508",
".#	c #34557C",
"+#	c #2B4D77",
"@#	c #536F91",
"##	c #E7EAF0",
"$#	c #E5EAF0",
"%#	c #667E9E",
"&#	c #1F4370",
"*#	c #3B5A82",
"=#	c #385880",
"-#	c #37577F",
";#	c #2E4F7A",
">#	c #567193",
",#	c #E6EAF0",
"'#	c #667FA0",
")#	c #214674",
"!#	c #3D5C86",
"~#	c #3A5A84",
"{#	c #395983",
"]#	c #30527E",
"^#	c #577396",
"/#	c #E5EBF0",
"(#	c #6A82A4",
"_#	c #244879",
":#	c #3F5F8A",
"<#	c #3B5D87",
"[#	c #3A5D87",
"}#	c #315581",
"|#	c #577499",
"1#	c #EAEEF3",
"2#	c #F3F5F8",
"3#	c #899EBA",
"4#	c #274C7E",
"5#	c #3D5E8C",
"6#	c #3E608C",
"7#	c #3D5F8B",
"8#	c #3E608B",
"9#	c #3B5F8B",
"0#	c #2F5584",
"a#	c #718AAB",
"b#	c #C4CFDE",
"c#	c #3E608F",
"d#	c #2E5385",
"e#	c #416491",
"f#	c #406390",
"g#	c #40638F",
"h#	c #335889",
"i#	c #3E628F",
"j#	c #BDC8D8",
"k#	c #F6F7FA",
"l#	c #9FB2C9",
"m#	c #3A5F91",
"n#	c #345B8C",
"o#	c #3E6292",
"p#	c #3E6392",
"q#	c #3E6391",
"r#	c #365C8D",
"s#	c #3F6392",
"t#	c #A0B2C9",
"u#	c #F9FAFC",
"v#	c #B1C0D4",
"w#	c #4D709D",
"x#	c #385E92",
"y#	c #3E6394",
"z#	c #3D6394",
"A#	c #3D6294",
"B#	c #3B6093",
"C#	c #4B6D9B",
"D#	c #AABBD0",
"E#	c #FEFFFF",
"F#	c #DBE1EC",
"G#	c #A3B4CD",
"H#	c #98ACC8",
"I#	c #9DB0CB",
"J#	c #9EB0CB",
"K#	c #9DB1CB",
"L#	c #9EB1CB",
"M#	c #9EB1CC",
"N#	c #9BAEC9",
"O#	c #A5B8CF",
"P#	c #D7E0EA",
"        . .   + @ + @ @ @ @ @ @ @ @ + + @ @ @ @ @ @ @ @ @ @ + +   . . .       ",
"    . # $ % & * = - = = = = = = = = - - = = = = = = = = = = - - ; > , ' .     ",
"  . ) ! ~ { ] ^ ^ / ( ( ( ( ( ( ( ( _ : < ( ( ( ( ( ( ( ( ( [ } | 1 2 = # .   ",
". 3 4 5 6 7 8 9 0 a a a a a a a a b c d e a f a a a a a a f g h i j k l m ' . ",
"  n o p q r s t u v v v v v v v w w x x x y x v v v v v v z A B C D E F G H . ",
"I J K L M N O P Q R R R R R R Q Q Q Q Q Q S Q R R R R R R T P U V W X Y Z ` ' ",
" ...+.@.#.$.%.&.*.*.*.*.*.*.&.=.-.;.-.-.-.>.-.,.,.,.,.,.,.,.,.'.).!.~.{.].^./.",
"(._.:.<.[.}.}.*.|.|.|.|.|.|.*.1.2.3.3.4.4.4.4.4.4.4.4.4.4.4.4.4.4.4.5.6.7.8.9.",
"0.a.b.c.4.d.d.*.e.e.e.e.e.e.*.f.g.h.i.i.i.i.i.i.i.i.i.i.i.i.i.i.i.j.k.l.m.n.o.",
"0.p.q.r.s.t.t.*.u.u.u.u.u.u.*.u.v.w.x.y.y.y.y.y.y.y.y.y.y.y.y.y.y.y.z.A.B.C.D.",
"E.F.G.H.I.J.J.*.K.K.K.K.K.K.*.K.K.K.L.M.N.N.N.N.N.N.N.N.N.N.N.N.N.N.O.P.Q.R.S.",
"T.U.V.W.X.Y.Y.*.Z.`. + +`.Z.*.Z.Z.Z.Z..+++@+@+@+@+@+@+@+@+@+@+@+@+@+#+$+%+&+*+",
"=+-+;+>+,+'+'+*.)+)+)+)+)+)+!+*.*.*.*.*.*.'+'+'+'+'+'+'+'+'+'+'+'+'+~+{+]+^+E.",
"=+/+(+_+:+<+<+*.[+[+[+[+[+[+[+[+[+[+}+*.*.*.*.*.*.*.|+<+<+<+<+<+<+<+1+2+3+4+0.",
"5+6+7+8+9+0+0+*.a+a+a+a+a+a+a+a+a+a+*.+ + b+a+a+a+a+*.c+0+0+0+0+0+0+d+e+f+g+h+",
"5+i+j+k+l+m+m+*.n+o+ + + + + + +p+n+*.+ + b+n+n+n+n+*.q+r+s+s+s+s+m+t+u+v+w+x+",
"5+y+z+A+A+A+A+*.B+B+B+B+B+B+B+B+B+B+*.@ @ b+B+B+B+B+*.B+C+D+A+A+A+A+A+A+E+F+x+",
"G+H+I+J+J+J+J+*.K+K+K+K+K+K+K+K+K+K+*.@ @ b+K+K+K+K+*.K+K+L+M+J+J+J+J+J+N+O+P+",
"Q+R+S+T+T+T+T+*.U+U+U+U+U+U+U+U+U+U+*.@ V+ + + +U+U+*.U+U+U+W+X+T+T+T+T+Y+Z+x+",
"G+`+ @.@.@.@.@*.+@L. + + + + + +@@+@*.' ' b++@+@+@+@#@*.*.*.*.*.$@.@.@.@%@&@*@",
"G+=@-@;@;@;@;@*.>@>@>@>@>@>@>@>@>@>@*.' ' b+>@>@>@>@>@>@>@>@>@>@,@;@;@;@'@&@)@",
"Q+R+!@~@~@~@~@*.{@{@{@{@{@{@{@{@{@{@*.' ' b+{@{@{@{@{@{@{@{@{@{@,@~@~@~@]@^@/@",
"(@_@:@<@<@<@<@*.[@[@[@[@[@[@[@[@[@[@*.@ V+ + + + + + +}@[@[@[@[@,@<@<@<@|@1@P+",
"5+2@3@4@4@4@4@5@,@,@,@,@,@,@,@,@,@,@*.b+b+b+[@[@[@[@[@[@[@[@[@[@,@4@4@4@6@7@x+",
"P+8@9@0@0@0@0@0@0@0@0@0@0@0@0@0@0@0@*.a@a@a@a@a@a@a@a@a@a@a@a@a@,@0@0@0@b@c@d@",
"P+e@f@g@h@i@i@i@i@i@i@i@i@i@i@i@i@i@*.j@j@j@j@j@j@j@j@j@j@j@j@j@,@i@i@k@l@m@d@",
"P+n@o@p@q@q@r@r@r@r@r@r@q@q@q@q@q@q@*.s@t@ + + + + + +o+s@s@s@s@,@q@q@u@v@w@h+",
"x@y@z@A@B@B@B@B@B@B@B@B@B@B@B@B@B@B@*.s@s@s@s@s@s@s@s@s@s@s@s@s@,@B@B@C@D@E@E.",
"T.F@G@H@I@I@I@I@I@I@I@I@I@I@I@I@I@I@*.J@J@J@J@J@J@J@J@J@J@J@J@J@,@I@I@K@L@M@N@",
"O@P@Q@R@S@S@S@S@S@S@S@S@S@S@S@S@S@S@*.T@T@T@T@T@T@T@T@T@T@T@T@T@,@S@S@U@V@W@S.",
"E.X@Y@B.Z@Z@Z@Z@Z@Z@Z@Z@Z@Z@Z@Z@Z@Z@`@,@,@,@,@,@,@,@,@,@,@,@,@,@ #Z@Z@.#+#@###",
"$#%#&#*#=#=#=#=#=#=#=#=#=#=#=#=#=#=#=#=#=#=#=#=#=#=#=#=#=#=#=#=#=#=#=#-#;#>#D.",
",#'#)#!#~#~#~#~#~#~#~#~#~#~#~#~#~#~#~#~#~#~#~#~#~#~#~#~#~#~#~#~#~#~#~#{#]#^#/#",
"D.(#_#:#<#<#<#<#<#<#<#<#<#<#<#<#<#<#<#<#<#<#<#<#<#<#<#<#<#<#<#<#<#<#<#[#}#|#1#",
"2#3#4#5#6#7#7#7#7#7#7#7#7#7#7#7#7#7#7#7#7#7#7#7#7#7#7#7#7#7#7#7#7#7#8#9#0#a#3 ",
"@ b#c#d#e#f#f#f#f#f#f#f#f#f#f#f#f#f#f#f#f#f#f#f#f#f#f#f#f#f#f#f#f#f#g#h#i#j#. ",
". k#l#m#n#o#p#p#p#p#p#p#p#p#p#p#p#p#p#p#p#p#p#p#p#p#p#p#p#p#p#p#p#q#r#s#t#+ . ",
"  . u#v#w#x#y#z#z#z#z#z#z#z#z#z#z#z#z#z#z#z#z#z#z#z#z#z#z#z#z#z#A#B#C#D#E#.   ",
"    . . F#G#H#I#J#J#J#J#J#J#J#J#I#K#L#M#L#J#J#J#J#J#J#J#J#J#J#J#N#O#P#. .     "};
