/* XPM */
static const char * icono_xpm[] = {
"32 32 445 2",
"  	c #000000",
". 	c #010101",
"+ 	c #181818",
"@ 	c #212221",
"# 	c #1E1F1F",
"$ 	c #080907",
"% 	c #0F0F0F",
"& 	c #232223",
"* 	c #6F566F",
"= 	c #C9A9C9",
"- 	c #3E3B41",
"; 	c #161616",
"> 	c #161716",
", 	c #3E3E3F",
"' 	c #E6D7E5",
") 	c #9F489F",
"! 	c #A345A2",
"~ 	c #DEBFDE",
"{ 	c #807680",
"] 	c #2A2B2A",
"^ 	c #0D0D0D",
"/ 	c #090909",
"( 	c #141514",
"_ 	c #0E0E0E",
": 	c #080808",
"< 	c #373637",
"[ 	c #BD84BD",
"} 	c #9F42A0",
"| 	c #A249A2",
"1 	c #A349A3",
"2 	c #A244A4",
"3 	c #C190C0",
"4 	c #D9C9D9",
"5 	c #2C2C2C",
"6 	c #0B0B0B",
"7 	c #0C0C0C",
"8 	c #353433",
"9 	c #40403F",
"0 	c #3F3C3F",
"a 	c #6D4D6C",
"b 	c #A978A9",
"c 	c #9C9B9C",
"d 	c #282928",
"e 	c #8F7E8E",
"f 	c #A350A2",
"g 	c #AC5BAC",
"h 	c #A851A7",
"i 	c #A956A9",
"j 	c #A853A8",
"k 	c #AC5DAB",
"l 	c #F2E3F2",
"m 	c #272627",
"n 	c #554654",
"o 	c #947794",
"p 	c #684C69",
"q 	c #332B33",
"r 	c #404040",
"s 	c #2B2A2B",
"t 	c #191919",
"u 	c #3F3B40",
"v 	c #BC83BD",
"w 	c #B987B9",
"x 	c #A144A0",
"y 	c #A346A3",
"z 	c #BC91BC",
"A 	c #EFECED",
"B 	c #3F343F",
"C 	c #A191A0",
"D 	c #59465A",
"E 	c #5D5E5C",
"F 	c #525252",
"G 	c #504450",
"H 	c #9A9E9A",
"I 	c #ACACAD",
"J 	c #B7B7B6",
"K 	c #B26DB4",
"L 	c #A24AA2",
"M 	c #A447A3",
"N 	c #B274B3",
"O 	c #5C4F5C",
"P 	c #0C0C0D",
"Q 	c #403D41",
"R 	c #A042A0",
"S 	c #A348A3",
"T 	c #A953A8",
"U 	c #B589B4",
"V 	c #847F84",
"W 	c #414241",
"X 	c #E1E1E1",
"Y 	c #FFFFFF",
"Z 	c #969595",
"` 	c #8B8B8B",
" .	c #3F403F",
"..	c #DCDFDC",
"+.	c #B06DB1",
"@.	c #A34AA3",
"#.	c #A247A2",
"$.	c #735474",
"%.	c #0F0F0E",
"&.	c #000001",
"*.	c #10100F",
"=.	c #796F79",
"-.	c #9F429F",
";.	c #A248A2",
">.	c #A856A8",
",.	c #BFADBF",
"'.	c #292B29",
").	c #EDEDED",
"!.	c #A8A8A8",
"~.	c #F8F8F8",
"{.	c #9D9D9C",
"].	c #6D656E",
"^.	c #B880BA",
"/.	c #A44DA4",
"(.	c #B489B4",
"_.	c #131314",
":.	c #0E0E0F",
"<.	c #8D758D",
"[.	c #A0429F",
"}.	c #A454A6",
"|.	c #B597B3",
"1.	c #313131",
"2.	c #252525",
"3.	c #D8D8D8",
"4.	c #DFDFDF",
"5.	c #1B1B1B",
"6.	c #838383",
"7.	c #FCFCFC",
"8.	c #474747",
"9.	c #7E7C7E",
"0.	c #7B7C79",
"a.	c #AD67AF",
"b.	c #A34BA3",
"c.	c #C68DC5",
"d.	c #1F1F20",
"e.	c #111111",
"f.	c #454343",
"g.	c #A24CA1",
"h.	c #DFCDE1",
"i.	c #262A27",
"j.	c #EDF0EF",
"k.	c #040404",
"l.	c #333333",
"m.	c #101010",
"n.	c #909090",
"o.	c #797979",
"p.	c #020202",
"q.	c #D0D0D0",
"r.	c #393939",
"s.	c #030303",
"t.	c #060606",
"u.	c #4D4C4F",
"v.	c #A3A5A2",
"w.	c #BAB0BA",
"x.	c #AD62AE",
"y.	c #A185A1",
"z.	c #242324",
"A.	c #2E2C2E",
"B.	c #262726",
"C.	c #6A6B6C",
"D.	c #F2F2F2",
"E.	c #FEFDFD",
"F.	c #AAAAAA",
"G.	c #D4D4D4",
"H.	c #A7A7A7",
"I.	c #FEFEFE",
"J.	c #5E5E5E",
"K.	c #070707",
"L.	c #F8F8F7",
"M.	c #363836",
"N.	c #616162",
"O.	c #121012",
"P.	c #121314",
"Q.	c #020201",
"R.	c #2F2F2F",
"S.	c #C298C1",
"T.	c #B67BB6",
"U.	c #EADEEA",
"V.	c #2A2A29",
"W.	c #383838",
"X.	c #050505",
"Y.	c #ECECEC",
"Z.	c #C3C3C3",
"`.	c #121212",
" +	c #F9F9F9",
".+	c #131313",
"++	c #898989",
"@+	c #666666",
"#+	c #DADBD8",
"$+	c #B4ADB4",
"%+	c #C89BC7",
"&+	c #CCA6CD",
"*+	c #3D353E",
"=+	c #171615",
"-+	c #191819",
";+	c #A694A8",
">+	c #A0449F",
",+	c #966C97",
"'+	c #999C99",
")+	c #9D9D9D",
"!+	c #F6F6F6",
"~+	c #3E3E3E",
"{+	c #555558",
"]+	c #030203",
"^+	c #383638",
"/+	c #787878",
"(+	c #4E4E4E",
"_+	c #656265",
":+	c #B067B1",
"<+	c #AB65AB",
"[+	c #DBBADA",
"}+	c #272526",
"|+	c #4A4749",
"1+	c #B67EB7",
"2+	c #A045A0",
"3+	c #A146A1",
"4+	c #937A93",
"5+	c #E9E7E9",
"6+	c #F7F7F7",
"7+	c #F3F3F2",
"8+	c #BEA1BD",
"9+	c #BB8BBB",
"0+	c #2E232D",
"a+	c #878787",
"b+	c #FDFDFD",
"c+	c #D6D6D6",
"d+	c #DCDCDC",
"e+	c #FDFCFC",
"f+	c #3E413F",
"g+	c #AF69B1",
"h+	c #A248A3",
"i+	c #AB63AB",
"j+	c #6D506D",
"k+	c #1B1A1A",
"l+	c #363636",
"m+	c #141614",
"n+	c #D5B4D5",
"o+	c #7D5E7B",
"p+	c #858686",
"q+	c #0D0C0E",
"r+	c #A049A0",
"s+	c #A548A1",
"t+	c #EAD7EA",
"u+	c #020303",
"v+	c #222221",
"w+	c #B670B7",
"x+	c #AC67AC",
"y+	c #5C525C",
"z+	c #1D1D1E",
"A+	c #636063",
"B+	c #B983B9",
"C+	c #A145A1",
"D+	c #9B8B9B",
"E+	c #EAE9EA",
"F+	c #2D2D2D",
"G+	c #EAEAEA",
"H+	c #DDDDDD",
"I+	c #000100",
"J+	c #B07FB0",
"K+	c #B06AB0",
"L+	c #463C44",
"M+	c #A2A2A1",
"N+	c #F5F5F5",
"O+	c #CFCFCF",
"P+	c #D8D8D9",
"Q+	c #EAE9E8",
"R+	c #424041",
"S+	c #B36AB3",
"T+	c #AE6AB0",
"U+	c #B79CB7",
"V+	c #1A1B1A",
"W+	c #1B1C1A",
"X+	c #B698B6",
"Y+	c #A144A2",
"Z+	c #9E449F",
"`+	c #CFCDCE",
" @	c #A09EA0",
".@	c #919191",
"+@	c #5F5F5F",
"@@	c #3E3D3D",
"#@	c #9C9C9C",
"$@	c #666866",
"%@	c #B36DB3",
"&@	c #C895C7",
"*@	c #484A49",
"=@	c #060706",
"-@	c #090808",
";@	c #312D32",
">@	c #B271B3",
",@	c #B167B0",
"'@	c #DBC5DC",
")@	c #EBEBEB",
"!@	c #4C4C4C",
"~@	c #E5E5E5",
"{@	c #A2A2A2",
"]@	c #5B5B5B",
"^@	c #DEDFDD",
"/@	c #9E949D",
"(@	c #BF85BF",
"_@	c #AE65B0",
":@	c #5C435A",
"<@	c #1A1918",
"[@	c #020302",
"}@	c #30312F",
"|@	c #353234",
"1@	c #404141",
"2@	c #969895",
"3@	c #ABABAB",
"4@	c #9B9B9B",
"5@	c #F8F8F9",
"6@	c #1F1D1F",
"7@	c #343333",
"8@	c #3A343A",
"9@	c #AD66AE",
"0@	c #E3D3E2",
"a@	c #202020",
"b@	c #F3F3F3",
"c@	c #1F1F1F",
"d@	c #B7B7B7",
"e@	c #7A7A7A",
"f@	c #5D5D5D",
"g@	c #616363",
"h@	c #B3B4B1",
"i@	c #8E718D",
"j@	c #B67AB8",
"k@	c #856686",
"l@	c #1B1A1C",
"m@	c #4A3E4A",
"n@	c #A042A1",
"o@	c #AB62AB",
"p@	c #C5B7C6",
"q@	c #3A3837",
"r@	c #050405",
"s@	c #C6C6C5",
"t@	c #CBCBCB",
"u@	c #F9F8F9",
"v@	c #232224",
"w@	c #727171",
"x@	c #6D6E6D",
"y@	c #B276B2",
"z@	c #A250A3",
"A@	c #DBB3DB",
"B@	c #403F3E",
"C@	c #100F10",
"D@	c #434243",
"E@	c #9E419E",
"F@	c #A347A3",
"G@	c #A653A5",
"H@	c #D3CFD3",
"I@	c #2F2F2E",
"J@	c #E2E2E2",
"K@	c #DBDBDB",
"L@	c #F1F1F1",
"M@	c #7C7F7C",
"N@	c #918D91",
"O@	c #B372B2",
"P@	c #A54CA5",
"Q@	c #A349A1",
"R@	c #C996C9",
"S@	c #343535",
"T@	c #444344",
"U@	c #A447A5",
"V@	c #AF67AF",
"W@	c #BA8BB9",
"X@	c #736F73",
"Y@	c #555555",
"Z@	c #F3F2F3",
"`@	c #7A7879",
" #	c #A2A3A3",
".#	c #342F32",
"+#	c #8B4E8C",
"@#	c #A656A6",
"##	c #A44BA4",
"$#	c #A447A6",
"%#	c #9B7C9C",
"&#	c #C384C2",
"*#	c #B882B7",
"=#	c #A044A0",
"-#	c #A348A2",
";#	c #A85BA8",
">#	c #C199BF",
",#	c #414441",
"'#	c #7F657E",
")#	c #6B6A6B",
"!#	c #504E4E",
"~#	c #3A3C3D",
"{#	c #5C5C5D",
"]#	c #878B87",
"^#	c #959795",
"/#	c #CBC0CB",
"(#	c #AE6DAF",
"_#	c #B77CB6",
":#	c #402B40",
"<#	c #101110",
"[#	c #292229",
"}#	c #694468",
"|#	c #A477A5",
"1#	c #A279A3",
"2#	c #39363A",
"3#	c #8E758F",
"4#	c #B46FB4",
"5#	c #AF69AF",
"6#	c #AC60AE",
"7#	c #AE60AD",
"8#	c #AF61AE",
"9#	c #A95BA9",
"0#	c #CCA5CC",
"a#	c #1C191D",
"b#	c #BA99BA",
"c#	c #BA8CBA",
"d#	c #9C6B9C",
"e#	c #635064",
"f#	c #4A4249",
"g#	c #19191A",
"h#	c #0E0F0F",
"i#	c #0B0D0B",
"j#	c #0C0D0D",
"k#	c #110F10",
"l#	c #2A282A",
"m#	c #D3ADD2",
"n#	c #A246A0",
"o#	c #A448A4",
"p#	c #A447A4",
"q#	c #A247A3",
"r#	c #B271B2",
"s#	c #D2BDD2",
"t#	c #383637",
"u#	c #1D1D1C",
"v#	c #0E0F0E",
"w#	c #191A19",
"x#	c #434442",
"y#	c #C79FC8",
"z#	c #A3489F",
"A#	c #A147A1",
"B#	c #BC86BD",
"C#	c #7D687D",
"D#	c #292928",
"E#	c #1F201E",
"F#	c #643F66",
"G#	c #B991B9",
"H#	c #3F3A3F",
"I#	c #171817",
"J#	c #1B1B1A",
"K#	c #212321",
"L#	c #050606",
"                                                                ",
"                              . +                               ",
"                              @ # $                             ",
"                          % & * = - ;                           ",
"                        > , ' ) ! ~ { ] .                       ",
"          ^   / ^ ( _ : < [ } | 1 2 3 4 5 % 6 ^ 7     .         ",
"          8 9 0 a b c d e f g h i j k l m n o p q r s t         ",
"          u v w x y z A B C D E F G H I J K L M N N O _         ",
"        P Q R S 1 T U V W X Y Z   Y Y `  ...+.@.#.#.$.%.&.      ",
"        *.=.-.;.>.,.'.Y Y Y ).!.% X ~.Y Y {.].^./.S (._.        ",
"        :.<.[.}.|.1.2.3.4.5.          6.7.8.9.0.a.b.c.d.        ",
"        e.f.g.h.i.j.k.l.  m.n.o.p.q.r.s.t.^ u.v.w.x.y._.        ",
"      s.z.A.B.C.D.E.F.  t.G.Y H.e.7.I.J.  K.L.Y M.N.O.z.P.&.    ",
"    Q.R.S.T.U.V.Y ).  W.X.  Y.Z.`. +.+t.++t.@+Y #+$+%+&+*+=+&.  ",
"    -+;+>+#.,+'+Y )+k.Y !+~+  {+]+^+  /+Y (+  !+Y _+:+<+[+}+    ",
". m.|+1+2+3+4+5+6+l.t 7. +7+s.8+9+0+a+b+7.c+  d+e+f+g+h+i+j+k+. ",
"l+m+n+R h+#.o+p+. t.p.p.p.p.q+r+s+t+. p.p.p.. u+  v+w+S | x+y+1.",
"  z+A+B+2+C+D+E+3.F++ G+H+d+I+J+K+L+M+ +N+O+  P+Q+R+S+S T+U+V+  ",
"    W+X+Y+Z+`+ @Y .@K.Y 6++@  @@X.B.  #@I.J.  D.Y $@%@S &@*@=@  ",
"    -@;@>@,@'@d Y )@  !@; p.~@{@s.6+.+7 )+: ]@Y ^@/@(@_@:@<@    ",
"      [@}@|@1@2@~.Y 3@  K.c+Y 4@6 7.Y (+    5@Y 5 6.6@7@.+      ",
"        : 8@9@0@a@b@6 c@  5.d@e@. b@f@K.  ^ g@h@i@j@k@l@        ",
"        .+m@n@o@p@q@r@s@t@s.          J.u@v@w@x@y@z@A@B@        ",
"        C@D@E@F@G@H@I@Y I.Y J@4@K.K@L@Y Y M@N@O@P@Q@R@S@        ",
"          T@U@S ;.V@W@X@Y@Z@Y `@  Y Y  #.#+#@###S $#%#e.        ",
"          F+&#*#=#-#;#>#,#'#)#!#~#{#]#^#/#>.S S (#_#:#<#        ",
"        . r.[#G }#|#1#2#3#4#5#6#7#8#9#0#a#b#c#d#e#f#g#t         ",
"              p.h#i#j#k#l#m#n#o#p#q#r#s#t#m+u#v#%               ",
"                        w#x#y#z#A#B#C#D#Q.                      ",
"                          m.E#F#G#H#I#                          ",
"                              J#K#L#                            ",
"                              . t                               "};
