/* XPM */
static char * iconsearch_xpm[] = {
"43 34 320 2",
"  	c None",
". 	c #FFFFFF",
"+ 	c #FFFFFE",
"@ 	c #FEFEFE",
"# 	c #FEFDFD",
"$ 	c #FFFEFE",
"% 	c #FEFEFD",
"& 	c #FCFCFB",
"* 	c #FAF9F9",
"= 	c #F9F8F8",
"- 	c #F9F8F9",
"; 	c #FCFBFB",
"> 	c #FCFCFC",
", 	c #F4F5F5",
"' 	c #F0F2F2",
") 	c #EFEFF0",
"! 	c #F0F0F1",
"~ 	c #F4F3F4",
"{ 	c #FDFCFD",
"] 	c #F7F7F8",
"^ 	c #EBEDF0",
"/ 	c #E5E8EC",
"( 	c #E1E6EB",
"_ 	c #DFE6EB",
": 	c #DEE5EA",
"< 	c #DFE4EA",
"[ 	c #E1E5EA",
"} 	c #E6E8EB",
"| 	c #EEEFF0",
"1 	c #F7F7F7",
"2 	c #FDFCFC",
"3 	c #F7F6F7",
"4 	c #EAECEE",
"5 	c #D7DDE3",
"6 	c #D0D9E1",
"7 	c #CEDAE4",
"8 	c #D0DEE7",
"9 	c #D1DEE8",
"0 	c #D1DCE6",
"a 	c #D0D9E2",
"b 	c #D2D8DF",
"c 	c #DCDFE3",
"d 	c #EBEBEC",
"e 	c #F6F5F5",
"f 	c #F5F5F6",
"g 	c #E8EAEC",
"h 	c #DBE0E5",
"i 	c #D3DCE4",
"j 	c #D2DCE6",
"k 	c #D3DFE9",
"l 	c #D7E2EC",
"m 	c #D8E3ED",
"n 	c #D7E1EB",
"o 	c #D3DEE7",
"p 	c #D1DBE4",
"q 	c #D4DBE2",
"r 	c #DDE0E4",
"s 	c #EBEDEE",
"t 	c #F8F9F8",
"u 	c #FDFDFD",
"v 	c #ECEEF0",
"w 	c #DADFE3",
"x 	c #D0D8DF",
"y 	c #D6E0E9",
"z 	c #DBE5EF",
"A 	c #E0E9F1",
"B 	c #E4EBF3",
"C 	c #E5ECF4",
"D 	c #E3EBF3",
"E 	c #DEE8F0",
"F 	c #D2DCE5",
"G 	c #D2DAE1",
"H 	c #E1E6E8",
"I 	c #F1F4F3",
"J 	c #FDFDFC",
"K 	c #F7F8F7",
"L 	c #E4E8EA",
"M 	c #D2DBE0",
"N 	c #CCD7DF",
"O 	c #DCE6EF",
"P 	c #E5EEF6",
"Q 	c #EBF2F8",
"R 	c #EFF3F9",
"S 	c #F0F4FA",
"T 	c #EDF2F9",
"U 	c #E9F0F8",
"V 	c #E1EBF4",
"W 	c #D5E0EB",
"X 	c #CFDAE3",
"Y 	c #DAE1E6",
"Z 	c #EAEDEE",
"` 	c #F8F8F6",
" .	c #F9F9F8",
"..	c #EDEEEE",
"+.	c #DFE4E7",
"@.	c #D4DEE5",
"#.	c #D3DFE8",
"$.	c #E1E9F2",
"%.	c #EAF1F7",
"&.	c #F1F5FA",
"*.	c #F5F7FC",
"=.	c #F5F7FD",
"-.	c #F3F6FC",
";.	c #EEF3FA",
">.	c #E8EEF6",
",.	c #DDE6F0",
"'.	c #D5E0EA",
").	c #DAE1E8",
"!.	c #E5E7EA",
"~.	c #F1F1F1",
"{.	c #F6F6F6",
"].	c #E7E8E9",
"^.	c #DCE2E6",
"/.	c #D5DFE7",
"(.	c #D7E3EC",
"_.	c #E4ECF3",
":.	c #EDF3F8",
"<.	c #F4F7FC",
"[.	c #F8F9FD",
"}.	c #F8FAFE",
"|.	c #F6F8FE",
"1.	c #F2F5FB",
"2.	c #EBF0F7",
"3.	c #E0E9F2",
"4.	c #D7E3ED",
"5.	c #DAE2E9",
"6.	c #E4E6E9",
"7.	c #F0EFEF",
"8.	c #F5F5F5",
"9.	c #E5E7E8",
"0.	c #DBE1E6",
"a.	c #D6E0E8",
"b.	c #D8E4EE",
"c.	c #E5EDF4",
"d.	c #EEF3F9",
"e.	c #F8FAFD",
"f.	c #F8FBFF",
"g.	c #F7F9FE",
"h.	c #F2F6FC",
"i.	c #ECF2F8",
"j.	c #E2EBF3",
"k.	c #D9E5EE",
"l.	c #DBE3E9",
"m.	c #E3E5E8",
"n.	c #EFEEEE",
"o.	c #E8EAEB",
"p.	c #D6E2EC",
"q.	c #E4ECF4",
"r.	c #EDF2F8",
"s.	c #F3F6FB",
"t.	c #F6F9FC",
"u.	c #F6FAFD",
"v.	c #F4F9FD",
"w.	c #F0F6FB",
"x.	c #EAF2F7",
"y.	c #E1EBF3",
"z.	c #DCE3E8",
"A.	c #E3E5E7",
"B.	c #EFEDEE",
"C.	c #FBFAFA",
"D.	c #F1F2F1",
"E.	c #E0E5E9",
"F.	c #CFDBE6",
"G.	c #DEE8F1",
"H.	c #E8EFF6",
"I.	c #EFF4F9",
"J.	c #F1F6FA",
"K.	c #F1F6FB",
"L.	c #F0F5FA",
"M.	c #EDF3F9",
"N.	c #E8EFF5",
"O.	c #DFE9F1",
"P.	c #D8E4EC",
"Q.	c #D9E1E6",
"R.	c #E1E4E5",
"S.	c #F9F8F7",
"T.	c #E6E9ED",
"U.	c #D4DCE3",
"V.	c #CCD8E1",
"W.	c #D8E2EB",
"X.	c #E1EAF1",
"Y.	c #E7EFF6",
"Z.	c #ECF3F9",
"`.	c #EAF2F8",
" +	c #E2EBF2",
".+	c #DDE7EF",
"++	c #D7E1E8",
"@+	c #CCD3D7",
"#+	c #C6C9CA",
"$+	c #CECECE",
"%+	c #E6E6E7",
"&+	c #F6F6F7",
"*+	c #FBFBFB",
"=+	c #FEFCFC",
"-+	c #EDEEF1",
";+	c #D0D9DF",
">+	c #D3DEE5",
",+	c #D9E4EC",
"'+	c #E6EEF5",
")+	c #E5EEF5",
"!+	c #DEE7ED",
"~+	c #D9DFE4",
"{+	c #BFC2C5",
"]+	c #A7A9AA",
"^+	c #A4A5A5",
"/+	c #BEBEBF",
"(+	c #CECECF",
"_+	c #DDDDDD",
":+	c #EBEBEA",
"<+	c #F9F9F9",
"[+	c #E6E9EB",
"}+	c #D5DDE3",
"|+	c #D5E0E7",
"1+	c #DAE4ED",
"2+	c #E0EBF2",
"3+	c #DDE8EF",
"4+	c #DBE5ED",
"5+	c #E2E8ED",
"6+	c #E0E3E4",
"7+	c #BEBFC1",
"8+	c #9C9C9D",
"9+	c #8C8C8D",
"0+	c #9A9A9B",
"a+	c #A5A5A5",
"b+	c #B3B3B3",
"c+	c #C6C6C6",
"d+	c #E3E3E3",
"e+	c #FBFCFC",
"f+	c #F5F6F7",
"g+	c #EDEEF0",
"h+	c #E3E7EA",
"i+	c #DEE3E7",
"j+	c #DDE3E7",
"k+	c #DDE4E8",
"l+	c #DEE5E9",
"m+	c #DEE7EA",
"n+	c #E0E8EB",
"o+	c #E3EAED",
"p+	c #ECEFF2",
"q+	c #F1F2F3",
"r+	c #E7E7E7",
"s+	c #D2D2D3",
"t+	c #B6B6B6",
"u+	c #959596",
"v+	c #7C7C7C",
"w+	c #707070",
"x+	c #767676",
"y+	c #9D9D9D",
"z+	c #C2C2C2",
"A+	c #E1E1E1",
"B+	c #FAFAFA",
"C+	c #FAFAFB",
"D+	c #F1F2F2",
"E+	c #EAEBEC",
"F+	c #E5E8E9",
"G+	c #E2E6E7",
"H+	c #E2E7E8",
"I+	c #E4E9EA",
"J+	c #E8ECEC",
"K+	c #EDF1F0",
"L+	c #F5F7F7",
"M+	c #FEFDFE",
"N+	c #E2E2E2",
"O+	c #ABABAC",
"P+	c #7F7F7F",
"Q+	c #606060",
"R+	c #555555",
"S+	c #6B6B6B",
"T+	c #8C8C8C",
"U+	c #B1B1B1",
"V+	c #D5D5D5",
"W+	c #EBEBEB",
"X+	c #F2F3F3",
"Y+	c #F0F1F1",
"Z+	c #F1F3F3",
"`+	c #F4F6F4",
" @	c #F8F8F8",
".@	c #B4B4B4",
"+@	c #969696",
"@@	c #696969",
"#@	c #686868",
"$@	c #777777",
"%@	c #929292",
"&@	c #B5B5B5",
"*@	c #D6D6D6",
"=@	c #FCFDFD",
"-@	c #FEFFFE",
";@	c #EEEEEE",
">@	c #DBDBDB",
",@	c #B9B9B9",
"'@	c #868686",
")@	c #636363",
"!@	c #565656",
"~@	c #5D5D5D",
"{@	c #7D7D7D",
"]@	c #A7A7A7",
"^@	c #CDCDCD",
"/@	c #E6E6E6",
"(@	c #C1C1C1",
"_@	c #9E9E9E",
":@	c #818181",
"<@	c #6D6D6D",
"[@	c #646464",
"}@	c #717171",
"|@	c #9C9C9C",
"1@	c #CACACA",
"2@	c #ECECEC",
"3@	c #A6A6A6",
"4@	c #585858",
"5@	c #B2B2B2",
"6@	c #E0E0E0",
"7@	c #EFEFEF",
"8@	c #D4D4D4",
"9@	c #A9A9A9",
"0@	c #919191",
"a@	c #CBCBCB",
"b@	c #EAEAEA",
"c@	c #F3F3F3",
"d@	c #D9D9D9",
"e@	c #EDEDED",
". . . . . . . . . . . . . . . . . . . . . . . . . . . . . . . . . . . . . . . . . . . ",
". . . . . . . . . . . . . . . . . . . . . . . . . . . . . . . . . . . . . . . . . . . ",
". . . . . . . . . . . . . . . . . . . . . . . . . . . . . . . . . . . . . . . . . . . ",
". . . . . . . . . . . . . . . . . . . . . . . . . . . . . . . . . . . . . . . . . . . ",
". . . . . . . . . . . . . . + @ # @ $ . . . . . . . . . . . . . . . . . . . . . . . . ",
"@ @ . . . . . . . . . . . % & * = - ; % . . . . . . . . . . . . . . . . . . . . . . . ",
"@ @ @ . . . . . . . . @ > = , ' ) ! ~ = > @ . . . . . . . . . . . . . . . . . . . . . ",
"@ @ @ . . . . . . . { ] ^ / ( _ : < [ } | 1 ; $ . . . . . . . . . . . . . . . . . . . ",
". . . . . . . . . 2 3 4 5 6 7 8 9 0 a b c d e 2 . . . . . . . . . . . . . . . . . . . ",
". . . . . . . . . f g h i j k l m n o p q r s t . . . . . . . . . . . . . . . . . . . ",
". . . . . . . . u v w x y z A B C D E m F G H I J @ . . . . . . . . . . . . . . . . . ",
". . . . . . . % K L M N O P Q R S T U V W X Y Z ` u . . . . . . . . . . . . . . . . . ",
". . . . . . .  ...+.@.#.$.%.&.*.=.-.;.>.,.'.).!.~.> . . . . . . . . . . . . . . . . . ",
". . . . . . @ {.].^./.(._.:.<.[.}.|.1.2.3.4.5.6.7.> . . . . . . . . . . . . . . . . . ",
". . . . . . @ 8.9.0.a.b.c.d.<.e.f.g.h.i.j.k.l.m.n.> . . . . . . . . . . . . . . . . . ",
". . . . . . @ {.o.^./.p.q.r.s.t.u.v.w.x.y.k.z.A.B.u . . . . . . . . . . . . . . . . . ",
". . . . . . . C.D.E.F F.G.H.I.J.K.L.M.N.O.P.Q.R.n.. . . . . . . . . . . . . . . . . . ",
". . . . . . . % S.T.U.V.W.X.Y.i.Z.`.Y. +.+++@+#+$+%+! &+*+. . . . . . . . . . . . . . ",
". . . . . . . . =+-+h ;+>+,+A '+Y.)+y..+!+~+{+]+^+/+(+_+:+<+. . . . . . . . . . . . . ",
". . . . . . . . @ , [+w }+|+1+3.j.2+3+4+5+6+7+8+9+0+a+b+c+d+8.> @ . . . . . . . . . . ",
". . . . . . . . . e+f+g+h+i+j+k+l+m+n+o+p+q+r+s+t+u+v+w+x+y+z+A+B+. . . . . . . . . . ",
". . . . . . . . . . @ C+D+E+F+G+H+I+J+K+L+M+. u N+O+P+Q+R+S+T+U+V+W+1 *+@ . . . . . . ",
". . . . . . . . . . . @ * e X+Y+' Z+`+K > . . .  @V+.@+@v+@@#@$@%@&@*@W+<+. . . . . . ",
". . . . . . . . . . . . @ u u > > =@u % -@. . . @ 1 ;@>@,@'@)@!@~@{@]@^@W+*+@ . . . . ",
". . . . . . . . . . . . . . . . . . . . . . . . . . . *+/@(@_@:@<@[@}@|@1@2@*+. . . . ",
". . . . . . . . . . . . . . . . . . . . . . . . . . . . > B+W+^@3@}@4@v+5@6@<+. . . . ",
". . . . . . . . . . . . . . . . . . . . . . . . . . . . . . > 7@8@9@0@]@a@b@*+. . . . ",
". . . . . . . . . . . . . . . . . . . . . . . . . . . . . . . u c@d+d@A+e@ @u . . . . ",
". . . . . . . . . . . . . . . . . . . . . . . . . . . . . . . . . . . . . . . . . . . ",
". . . . . . . . . . . . . . . . . . . . . . . . . . . . . . . . . . . . . . . . . . . ",
". . . . . . . . . . . . . . . . . . . . . . . . . . . . . . . . . . . . . . . . . . . ",
". . . . . . . . . . . . . . . . . . . . . . . . . . . . . . . . . . . . . . . . . . . ",
". . . . . . . . . . . . . . . . . . . . . . . . . . . . . . . . . . . . . . . . . . . ",
". . . . . . . . . . . . . . . . . . . . . . . . . . . . . . . . . . . . . . . . . . . "};
