/* XPM */
static char * IrrPrismCom_xpm[] = {
"42 32 3 1",
" 	c None",
".	c #0000CC",
"+	c #0000CB",
"                                          ",
"                    ..                    ",
"                  .    .                  ",
"                .        .                ",
"              .            .              ",
"            .                .            ",
"          .                    .          ",
"        .                        .        ",
"      .                            .      ",
"    .                                .    ",
"  .                                    .  ",
" .                  ..                  . ",
" ..               .    .               .. ",
" . .            .        .            . . ",
" .  .         .            .         .  . ",
" .   .                              .   . ",
" .    .  .                      .  .    . ",
" .     .                          .     . ",
" .   .  .                        .  .   . ",
" . .     .                      .     . . ",
" .        ++++++++++++++++++++++        . ",
" .         .                  .         . ",
"  .                                    .  ",
"   .                                  .   ",
"    .                                .    ",
"     .                              .     ",
"      .                            .      ",
"       .                          .       ",
"        .                        .        ",
"         .+                    ++         ",
"          .....................+          ",
"                                          "};
