/* XPM */
static char * IrrPrismCom_xpm[] = {
"35 42 175 2",
"  	c #F2F2F2",
". 	c #F0F0F2",
"+ 	c #AAAAF0",
"@ 	c #8989EE",
"# 	c #ECECF2",
"$ 	c #9696EF",
"% 	c #2828EC",
"& 	c #0000EA",
"* 	c #0202EA",
"= 	c #B1B1F0",
"- 	c #E2E2F1",
"; 	c #8181EE",
"> 	c #1919EB",
", 	c #1E1EEB",
"' 	c #E4E4F1",
") 	c #D4D4F1",
"! 	c #6B6BEE",
"~ 	c #0D0DEB",
"{ 	c #5B5BED",
"] 	c #C4C4F1",
"^ 	c #5555ED",
"/ 	c #0404EA",
"( 	c #0101EA",
"_ 	c #A8A8F0",
": 	c #F1F1F2",
"< 	c #AFAFF0",
"[ 	c #4141ED",
"} 	c #1717EB",
"| 	c #E0E0F1",
"1 	c #9999F0",
"2 	c #2C2DEC",
"3 	c #504FED",
"4 	c #E5E5F1",
"5 	c #8383EE",
"6 	c #1C1BEB",
"7 	c #9E9FEF",
"8 	c #D7D8F1",
"9 	c #6F6FEE",
"0 	c #0E0EEB",
"a 	c #1111EB",
"b 	c #DADAF1",
"c 	c #C8C8F1",
"d 	c #5A5AED",
"e 	c #0606EA",
"f 	c #0000E5",
"g 	c #0001CB",
"h 	c #AAAAE1",
"i 	c #6464DA",
"j 	c #0000D9",
"k 	c #0000E9",
"l 	c #0000E8",
"m 	c #0000D2",
"n 	c #0000BB",
"o 	c #0000B8",
"p 	c #B4B4E3",
"q 	c #9D9DE1",
"r 	c #0000C3",
"s 	c #0000C9",
"t 	c #0000DB",
"u 	c #0001D8",
"v 	c #0000BE",
"w 	c #B8B8E4",
"x 	c #D6D6EC",
"y 	c #0101C4",
"z 	c #0000C4",
"A 	c #0000DD",
"B 	c #0000DF",
"C 	c #C7C7E8",
"D 	c #1F1FCA",
"E 	c #0000CB",
"F 	c #0000E4",
"G 	c #0000CA",
"H 	c #5757D4",
"I 	c #0000CC",
"J 	c #0000E0",
"K 	c #0000E7",
"L 	c #D9D9EC",
"M 	c #9292E0",
"N 	c #0000CE",
"O 	c #0000E2",
"P 	c #0000E3",
"Q 	c #0000BF",
"R 	c #DAD9EC",
"S 	c #CBCBEB",
"T 	c #0000D0",
"U 	c #0000E6",
"V 	c #0001B8",
"W 	c #E7E7EF",
"X 	c #1313C7",
"Y 	c #0000D1",
"Z 	c #ECECF1",
"` 	c #4C4DD3",
" .	c #0000C5",
"..	c #0000D4",
"+.	c #0607BA",
"@.	c #EFEFF1",
"#.	c #8585DD",
"$.	c #0000D5",
"%.	c #0001D6",
"&.	c #0000B9",
"*.	c #0D0DBC",
"=.	c #BFBFE8",
"-.	c #0000C6",
";.	c #0000D7",
">.	c #0000DC",
",.	c #0000BA",
"'.	c #1112BC",
").	c #EEEEF1",
"!.	c #0C0CC6",
"~.	c #0000C7",
"{.	c #0000E1",
"].	c #2020C4",
"^.	c #4040CF",
"/.	c #0000C8",
"(.	c #0000DA",
"_.	c #0D0DE7",
":.	c #C7C7F1",
"<.	c #7A7ADB",
"[.	c #0E0EEA",
"}.	c #B4B4E6",
"|.	c #0100C4",
"1.	c #0505DE",
"2.	c #9393EF",
"3.	c #E7E8F0",
"4.	c #0605C5",
"5.	c #0101CC",
"6.	c #7574E3",
"7.	c #8484DC",
"8.	c #0A0AC6",
"9.	c #C5C5E9",
"0.	c #D4D4EC",
"a.	c #4949D1",
"b.	c #D8D8ED",
"c.	c #A6A7E3",
"d.	c #1F1EC9",
"e.	c #0303C5",
"f.	c #EBEBF0",
"g.	c #E7E7F0",
"h.	c #7272D9",
"i.	c #0707C5",
"j.	c #1212C7",
"k.	c #C9CAEB",
"l.	c #3E3ECF",
"m.	c #2727CB",
"n.	c #9B9BE1",
"o.	c #1717C8",
"p.	c #3D3DCF",
"q.	c #E2E3EF",
"r.	c #6665D7",
"s.	c #0202C4",
"t.	c #5251D3",
"u.	c #C0C0E8",
"v.	c #3232CD",
"w.	c #6969D8",
"x.	c #8F8FDF",
"y.	c #0F0FC6",
"z.	c #7E7EDC",
"A.	c #DDDDEE",
"B.	c #5859D5",
"C.	c #B6B6E6",
"D.	c #2929CB",
"E.	c #A8A8E4",
"F.	c #8182DC",
"G.	c #0B0BC6",
"H.	c #BDBDE8",
"I.	c #D6D6ED",
"J.	c #4B4BD2",
"K.	c #D3D3EC",
"L.	c #ABABE4",
"M.	c #E8E8F0",
"N.	c #E9E9F0",
"O.	c #7474D9",
"P.	c #0D0DC6",
"Q.	c #CECEEB",
"R.	c #6060D6",
"                                      . + @                           ",
"                                  # $ % & * =                         ",
"                              - ; > & & & & , '                       ",
"                          ) ! ~ & & & & & & & {                       ",
"                      ] ^ / & & & & & & & & & ( _                     ",
"                : < [ ( & & & & & & & & & & & & } |                   ",
"            # 1 2 & & & & & & & & & & & & & & & & 3                   ",
"        4 5 6 & & & & & & & & & & & & & & & & & & & 7                 ",
"    8 9 0 & & & & & & & & & & & & & & & & & & & & & a b               ",
"c d e & & & & & & & & & & & & & & & & & & & & & & f g h               ",
"i j k & & & & & & & & & & & & & & & & & & & & l m n o p               ",
"q r s t & & & & & & & & & & & & & & & & & & u v o o o w               ",
"x y z z s A & & & & & & & & & & & & & & B r o o o o o C               ",
"  D z z z z E B & & & & & & & & & & F G o o o o o o o C               ",
"  H z z z z z z I J & & & & & & & K v o o o o o o o o L               ",
"  M z z z z z z z z N O & & & & & & P Q o o o o o o o R               ",
"  S z z z z z z z z z z T P & & & & & U z o o o o o V W               ",
"  : X z z z z z z z z z z z Y f & & & & l s o o o o o Z               ",
"    ` z z z z z z z z z z z z  ...U & & & & N o o o +.@.              ",
"    #.z z z z z z z z z z z z z z  .$.K & & & %.&.o *.                ",
"    =.z z z z z z z z z z z z z z z z -.;.l & & >.,.'.                ",
"    ).!.z z z z z z z z z z z z z z z z z ~.j k & {.].                ",
"      ^.z z z z z z z z z z z z z z z z z z z /.(.k _.:.              ",
"      <.z z z z z z z z z z z z z z z z z z z z z s >.[.<             ",
"      }.|.z z z z z z z z z z z z z z z z z z z z z z G 1.2.          ",
"      3.4.z z z z z z z z z z z z z z z z z z z z z z z z 5.6..       ",
"        7.8.z z z z z z z z z z z z z z z z z z z z z z z z z 9.      ",
"          0.a.z z z z z z z z z z z z z z z z z z z z z z z z b.      ",
"              c.d.z z z z z z z z z z z z z z z z z z z z z e.f.      ",
"                g.h.i.z z z z z z z z z z z z z z z z z z z j.        ",
"                    k.l.z z z z z z z z z z z z z z z z z z m.        ",
"                      : n.o.z z z z z z z z z z z z z z z z p.        ",
"                          q.r.s.z z z z z z z z z z z z z z t.        ",
"                              u.v.z z z z z z z z z z z z z w.        ",
"                                @.x.y.z z z z z z z z z z z z.        ",
"                                    A.B.y z z z z z z z z z M         ",
"                                        C.D.z z z z z z z z E.        ",
"                                          Z F.G.z z z z z z H.        ",
"                                              I.J.|.z z z z K.        ",
"                                                  L.D z z y M.        ",
"                                                    N.O.i.P.          ",
"                                                        Q.R.          "};
