/* XPM */
static char * itemSelected_xpm[] = {
"36 39 194 2",
"  	c None",
". 	c #305A08",
"+ 	c #2F5907",
"@ 	c #315909",
"# 	c #315907",
"$ 	c #315B09",
"% 	c #2F5909",
"& 	c #315A09",
"* 	c #305B09",
"= 	c #2F5A08",
"- 	c #2F5B09",
"; 	c #315C09",
"> 	c #39690B",
", 	c #38680A",
"' 	c #305909",
") 	c #36650A",
"! 	c #4A880E",
"~ 	c #5FAF12",
"{ 	c #5DAA11",
"] 	c #447D0D",
"^ 	c #335F09",
"/ 	c #34600A",
"( 	c #457F0D",
"_ 	c #5DAB11",
": 	c #68BE14",
"< 	c #67BD14",
"[ 	c #65BA13",
"} 	c #61B213",
"| 	c #4F920F",
"1 	c #325E09",
"2 	c #40760C",
"3 	c #5AA411",
"4 	c #69C014",
"5 	c #6AC214",
"6 	c #68BF14",
"7 	c #66BB13",
"8 	c #65B813",
"9 	c #63B513",
"0 	c #61B212",
"a 	c #58A110",
"b 	c #41780C",
"c 	c #335E09",
"d 	c #325C09",
"e 	c #3B6D0B",
"f 	c #549B10",
"g 	c #69BF14",
"h 	c #6CC615",
"i 	c #6BC314",
"j 	c #66BA13",
"k 	c #64B713",
"l 	c #62B413",
"m 	c #61B112",
"n 	c #5FAE12",
"o 	c #5BA711",
"p 	c #4B8A0E",
"q 	c #37670A",
"r 	c #37660A",
"s 	c #4E900F",
"t 	c #6FCA15",
"u 	c #6DC815",
"v 	c #6CC514",
"w 	c #67BC13",
"x 	c #65B913",
"y 	c #63B613",
"z 	c #62B312",
"A 	c #60B012",
"B 	c #5EAD12",
"C 	c #549A10",
"D 	c #305A09",
"E 	c #34610A",
"F 	c #47830D",
"G 	c #70CD16",
"H 	c #70CD15",
"I 	c #6ECA15",
"J 	c #6DC715",
"K 	c #6BC414",
"L 	c #69C114",
"M 	c #5CA811",
"N 	c #59A311",
"O 	c #41770C",
"P 	c #5EAB12",
"Q 	c #70CC15",
"R 	c #73D116",
"S 	c #71CE16",
"T 	c #6FCB15",
"U 	c #6EC815",
"V 	c #6CC515",
"W 	c #5BA611",
"X 	c #38660B",
"Y 	c #579E11",
"Z 	c #73D216",
"` 	c #72D016",
" .	c #64B813",
"..	c #5EAC12",
"+.	c #5CA911",
"@.	c #4A890D",
"#.	c #346209",
"$.	c #498114",
"%.	c #7DD626",
"&.	c #76D41A",
"*.	c #71CF16",
"=.	c #6FCC15",
"-.	c #6EC915",
";.	c #6AC314",
">.	c #64B613",
",.	c #5FAD12",
"'.	c #5BA811",
").	c #58A30E",
"!.	c #519B0A",
"~.	c #396D08",
"{.	c #4B8316",
"].	c #88DE33",
"^.	c #85DE2E",
"/.	c #7AD620",
"(.	c #73D117",
"_.	c #6AC114",
":.	c #60AF12",
"<.	c #59A50F",
"[.	c #539F0B",
"}.	c #4F9B07",
"|.	c #4D9806",
"1.	c #8AE234",
"2.	c #89E132",
"3.	c #7FD928",
"4.	c #73CE19",
"5.	c #62B412",
"6.	c #60B112",
"7.	c #5AA510",
"8.	c #55A10C",
"9.	c #509B08",
"0.	c #4E9A06",
"a.	c #85DD2E",
"b.	c #76D01F",
"c.	c #6DC515",
"d.	c #66BC13",
"e.	c #5AA610",
"f.	c #56A20D",
"g.	c #519C09",
"h.	c #88E032",
"i.	c #7DD427",
"j.	c #6DC418",
"k.	c #529E0A",
"l.	c #83DB2E",
"m.	c #72C81F",
"n.	c #66BA14",
"o.	c #5CAA11",
"p.	c #88DF32",
"q.	c #7AD026",
"r.	c #68BA17",
"s.	c #55A20C",
"t.	c #509C08",
"u.	c #82D92E",
"v.	c #6DBF1D",
"w.	c #5AA80F",
"x.	c #519D09",
"y.	c #81D72D",
"z.	c #55A20B",
"A.	c #82D82E",
"B.	c #4A8216",
"C.	c #88DD33",
"D.	c #396C08",
"E.	c #3A680D",
"F.	c #67AD23",
"G.	c #86DB32",
"H.	c #4B9406",
"I.	c #417E07",
"J.	c #336109",
"K.	c #35610B",
"L.	c #518B18",
"M.	c #7BCB2D",
"N.	c #89E134",
"O.	c #4D9706",
"P.	c #448507",
"Q.	c #386A08",
"R.	c #2F5A09",
"S.	c #3F700F",
"T.	c #67AE23",
"U.	c #85DB32",
"V.	c #4D9906",
"W.	c #478B07",
"X.	c #3B7008",
"Y.	c #4E9906",
"Z.	c #4A9006",
"`.	c #3E7708",
" +	c #346109",
".+	c #3F7010",
"++	c #356509",
"@+	c #315908",
"#+	c #68AE23",
"$+	c #72C026",
"%+	c #50980B",
"&+	c #3A6A0D",
"*+	c #37650A",
"=+	c #305B08",
"                                                                        ",
"                                    . +                                 ",
"                                @ # $ $ % &                             ",
"                            * * $ $ $ $ $ $ $                           ",
"                          = - $ $ ; > , $ $ $ % &                       ",
"                      & ' $ $ $ ) ! ~ { ] ^ $ $ $ &                     ",
"                  @ # $ $ $ / ( _ : < [ } | , $ $ $ % &                 ",
"              * * $ $ $ 1 2 3 4 5 6 7 8 9 0 a b c $ $ $ $               ",
"            = - $ $ d e f g h i 4 < j k l m n o p q $ $ $ % &           ",
"        & % $ $ $ r s < t u v 5 6 w x y z A B { o C 2 c $ $ $ $         ",
"    D # $ $ $ E F k G H I J K L : 7 k l m n _ M o o N p q $ $ $ % $     ",
"  * @ $ $ c O P Q R S T U V 5 g w x y z A B { o o o o W C 2 c $ $ @ &   ",
"  $ $ $ X Y u Z Z ` H t J K L : 7  .9 0 ~ ..+.o o o o o o N @.#.$ $ '   ",
"  $ $ $ $.%.&.Z R *.=.-.h ;.4 < [ >.z A ,.{ '.o o o o o o ).!.~.$ $ '   ",
"  $ $ $ {.].^./.(.H t J K _.: 7 8 9 0 :...+.o o o o o <.[.}.|.~.$ $ '   ",
"  $ $ $ {.].1.2.3.4.-.h i 4 < j k 5.6.n _ '.o o o 7.8.9.0.0.|.~.$ $ '   ",
"  $ $ $ {.].1.1.1.a.b.c.5 6 d.x 9 0 :...+.o o e.f.g.0.0.0.0.|.~.$ $ '   ",
"  $ $ $ {.].1.1.1.1.h.i.j.< j k l m n _ M o ).k.0.0.0.0.0.0.|.~.$ $ '   ",
"  $ $ $ {.].1.1.1.1.1.1.l.m.n.y z A B o.<.[.}.0.0.0.0.0.0.0.|.~.$ $ '   ",
"  $ $ $ {.].1.1.1.1.1.1.1.p.q.r.0 n o.s.t.0.0.0.0.0.0.0.0.0.|.~.$ $ '   ",
"  $ $ $ {.].1.1.1.1.1.1.1.1.1.u.v.w.x.0.0.0.0.0.0.0.0.0.0.0.|.~.$ $ '   ",
"  $ $ $ {.].1.1.1.1.1.1.1.1.1.1.y.z.0.0.0.0.0.0.0.0.0.0.0.0.|.~.$ $ '   ",
"  $ $ $ {.].1.1.1.1.1.1.1.1.1.1.A.z.0.0.0.0.0.0.0.0.0.0.0.0.|.~.$ $ '   ",
"  $ $ $ {.].1.1.1.1.1.1.1.1.1.1.A.z.0.0.0.0.0.0.0.0.0.0.0.0.|.~.$ $ '   ",
"  $ $ $ {.].1.1.1.1.1.1.1.1.1.1.A.z.0.0.0.0.0.0.0.0.0.0.0.0.|.~.$ $ '   ",
"  $ $ $ {.].1.1.1.1.1.1.1.1.1.1.A.z.0.0.0.0.0.0.0.0.0.0.0.0.|.~.$ $ '   ",
"  $ $ $ B.C.1.1.1.1.1.1.1.1.1.1.A.z.0.0.0.0.0.0.0.0.0.0.0.0.|.D.$ $ '   ",
"  $ $ $ E.F.G.1.1.1.1.1.1.1.1.1.A.z.0.0.0.0.0.0.0.0.0.0.0.H.I.J.$ $ '   ",
"  D @ $ $ K.L.M.N.1.1.1.1.1.1.1.A.z.0.0.0.0.0.0.0.0.0.O.P.Q.d $ $ @ &   ",
"    & R.$ $ ; S.T.U.1.1.1.1.1.1.A.z.0.0.0.0.0.0.0.V.W.X.1 $ $ $ # '     ",
"        $ $ $ $ K.L.M.N.1.1.1.1.A.z.0.0.0.0.0.Y.Z.`. +$ $ $ % &         ",
"          - R.$ $ ; .+T.G.1.1.1.A.z.0.0.0.0.H.I.++$ $ $ - @+            ",
"              $ $ $ $ K.L.M.N.1.A.z.0.0.O.P.Q.d $ $ $ * ;               ",
"                - R.$ $ ; .+#+G.A.z.V.W.X.1 $ $ $ # $                   ",
"                    $ $ $ $ K.L.$+%+`. +$ $ $ % &                       ",
"                      - R.$ $ ; &+*+$ $ $ - @+                          ",
"                          $ $ $ $ $ $ $ * ;                             ",
"                            - R.$ $ # $                                 ",
"                                - =+                                    "};
