/* XPM */
static char * itemSelected_xpm[] = {
"32 32 777 2",
"  	c None",
". 	c #FCFAFB",
"+ 	c #F9F9F9",
"@ 	c #FBFAFA",
"# 	c #FCFBFD",
"$ 	c #FBFCFC",
"% 	c #FAFBFA",
"& 	c #FBFAF9",
"* 	c #FCFAF9",
"= 	c #FCFAFA",
"- 	c #F9FBFB",
"; 	c #FAFFFF",
"> 	c #F9F4F4",
", 	c #FAF8F7",
"' 	c #FBFFFF",
") 	c #FCFFFF",
"! 	c #FCFEFD",
"~ 	c #FCFCFC",
"{ 	c #F6C0C0",
"] 	c #F48786",
"^ 	c #F78685",
"/ 	c #F89F9E",
"( 	c #F9B9B8",
"_ 	c #FBD0D0",
": 	c #FBE6E7",
"< 	c #FBF9FA",
"[ 	c #FDFFFF",
"} 	c #FDFDFD",
"| 	c #FCFBFC",
"1 	c #FCFBFB",
"2 	c #FDFAFB",
"3 	c #FDFBFC",
"4 	c #FDFBFD",
"5 	c #F9BDBD",
"6 	c #F33F3E",
"7 	c #F52E2E",
"8 	c #F52F30",
"9 	c #F63737",
"0 	c #F94A4A",
"a 	c #FA6162",
"b 	c #F87C7F",
"c 	c #F69C9D",
"d 	c #FAB9B9",
"e 	c #FACBCC",
"f 	c #FADEDE",
"g 	c #FBEFEE",
"h 	c #FCFDFD",
"i 	c #FCFEFF",
"j 	c #FDFCFC",
"k 	c #FCF4F3",
"l 	c #F9B8B5",
"m 	c #F4302F",
"n 	c #EB4545",
"o 	c #BF9995",
"p 	c #B1A6A4",
"q 	c #C09090",
"r 	c #CE716F",
"s 	c #D94C4B",
"t 	c #E52E2D",
"u 	c #F02221",
"v 	c #F73031",
"w 	c #F74E4E",
"x 	c #F86E6C",
"y 	c #F79090",
"z 	c #F9B4B4",
"A 	c #FBCCCB",
"B 	c #F7DADB",
"C 	c #FAE6E6",
"D 	c #FBF4F2",
"E 	c #FDFCFE",
"F 	c #FBF0F1",
"G 	c #F8AFAD",
"H 	c #F42324",
"I 	c #EC504F",
"J 	c #A38C8A",
"K 	c #2D3338",
"L 	c #101720",
"M 	c #1D2328",
"N 	c #3D4346",
"O 	c #677172",
"P 	c #929798",
"Q 	c #BAA5A9",
"R 	c #D39495",
"S 	c #DE6A67",
"T 	c #E63F3D",
"U 	c #ED1B1F",
"V 	c #F11718",
"W 	c #F53130",
"X 	c #F85554",
"Y 	c #F57B77",
"Z 	c #F6A5A4",
"` 	c #FAD2D1",
" .	c #FBF1F3",
"..	c #FCFAFC",
"+.	c #F7F0F0",
"@.	c #F8A09E",
"#.	c #F21617",
"$.	c #EC635F",
"%.	c #948785",
"&.	c #202424",
"*.	c #7A8FA3",
"=.	c #A2CDF3",
"-.	c #90BEE5",
";.	c #7597B2",
">.	c #566C7E",
",.	c #34414C",
"'.	c #161C23",
").	c #191E22",
"!.	c #464E50",
"~.	c #747E7E",
"{.	c #A6A6A5",
"].	c #CEAAAC",
"^.	c #E38D8E",
"/.	c #E6625F",
"(.	c #ED3632",
"_.	c #EF1414",
":.	c #EF1C1F",
"<.	c #F5AAA6",
"[.	c #FBF7F5",
"}.	c #FDFCFD",
"|.	c #FBEDED",
"1.	c #F7918D",
"2.	c #F31012",
"3.	c #EA7677",
"4.	c #7E7977",
"5.	c #202327",
"6.	c #8BA3B8",
"7.	c #B2D9F8",
"8.	c #A3D2FD",
"9.	c #92C9FD",
"0.	c #8CC9FF",
"a.	c #8ECAFF",
"b.	c #93CBFD",
"c.	c #95C8F6",
"d.	c #8AB2D7",
"e.	c #6B87A2",
"f.	c #4A5E73",
"g.	c #2C3542",
"h.	c #131419",
"i.	c #252628",
"j.	c #545559",
"k.	c #949597",
"l.	c #E9E3E1",
"m.	c #F35857",
"n.	c #F2504F",
"o.	c #FACDCE",
"p.	c #FEFFFF",
"q.	c #FAFDFC",
"r.	c #F8E8E7",
"s.	c #F57A79",
"t.	c #F41113",
"u.	c #EB8989",
"v.	c #696362",
"w.	c #25282D",
"x.	c #97B1C9",
"y.	c #B1D5F8",
"z.	c #B2D8FA",
"A.	c #A9D4FA",
"B.	c #96CAFC",
"C.	c #8DC6FC",
"D.	c #8EC6FC",
"E.	c #90C5FC",
"F.	c #92C6FC",
"G.	c #94C7FB",
"H.	c #97C9FB",
"I.	c #9BCBFB",
"J.	c #A0CCF8",
"K.	c #A0C9F1",
"L.	c #8FADCC",
"M.	c #71839A",
"N.	c #23292D",
"O.	c #7C8283",
"P.	c #E68C8A",
"Q.	c #F9494A",
"R.	c #FBB8B9",
"S.	c #FAE0DF",
"T.	c #F46364",
"U.	c #F31C1C",
"V.	c #E49493",
"W.	c #51504F",
"X.	c #31353B",
"Y.	c #9FBCD6",
"Z.	c #AED6F9",
"`.	c #B1D7FB",
" +	c #B1D7FA",
".+	c #B2D7FA",
"++	c #A0CCF9",
"@+	c #94C7F8",
"#+	c #96C9FA",
"$+	c #9BC9FA",
"%+	c #9DCCFA",
"&+	c #A2CFF9",
"*+	c #A7D1F9",
"=+	c #ABD3FA",
"-+	c #B0D4F9",
";+	c #B5D6F7",
">+	c #B8D7F8",
",+	c #BDDDF6",
"'+	c #5D7FA5",
")+	c #3D4A50",
"!+	c #D47A78",
"~+	c #FB4A4C",
"{+	c #FBB8B8",
"]+	c #F9D6D5",
"^+	c #F35051",
"/+	c #F62A2B",
"(+	c #D99898",
"_+	c #424140",
":+	c #3E464C",
"<+	c #A2C1DD",
"[+	c #B0D7FA",
"}+	c #B3D8FB",
"|+	c #B4D8FC",
"1+	c #B5D9FB",
"2+	c #BBDBF9",
"3+	c #B2D6FA",
"4+	c #A6D1FA",
"5+	c #A4D1FB",
"6+	c #A9D3FC",
"7+	c #ADD5FC",
"8+	c #B6D9FA",
"9+	c #BADAFB",
"0+	c #BFDBF8",
"a+	c #C1DFFB",
"b+	c #C6E2F9",
"c+	c #74B6F2",
"d+	c #2E6FAF",
"e+	c #36414A",
"f+	c #D57A79",
"g+	c #FB4C4B",
"h+	c #FBB9B8",
"i+	c #F7C8C6",
"j+	c #F24849",
"k+	c #F7393C",
"l+	c #C9908E",
"m+	c #393736",
"n+	c #4B565D",
"o+	c #AAC5E1",
"p+	c #B8DAFC",
"q+	c #B8DBFC",
"r+	c #BBDCFB",
"s+	c #BDDDFA",
"t+	c #BFDEFB",
"u+	c #C4DFFB",
"v+	c #C5DFFC",
"w+	c #BADAFA",
"x+	c #B5D8F9",
"y+	c #BCDCFC",
"z+	c #C2DEFB",
"A+	c #C6DFFA",
"B+	c #C8E1FB",
"C+	c #CDE3FB",
"D+	c #CCE3FA",
"E+	c #74B7F2",
"F+	c #3E9AED",
"G+	c #2266A9",
"H+	c #324048",
"I+	c #D37C7A",
"J+	c #FC4C4C",
"K+	c #FBBAB9",
"L+	c #FBF3F1",
"M+	c #F68786",
"N+	c #F73838",
"O+	c #C58C8B",
"P+	c #414240",
"Q+	c #5E676E",
"R+	c #AFC8DF",
"S+	c #BFDEFD",
"T+	c #C0DCF9",
"U+	c #C1DDFA",
"V+	c #C4DFFA",
"W+	c #C7E1FA",
"X+	c #C9E2FB",
"Y+	c #CCE2FB",
"Z+	c #D1E4FB",
"`+	c #CDE2FA",
" @	c #C6E0F9",
".@	c #CAE2F9",
"+@	c #CEE4F9",
"@@	c #D3E6F8",
"#@	c #D9E9F9",
"$@	c #CBE6FB",
"%@	c #7ABAF6",
"&@	c #459EF3",
"*@	c #3190E3",
"=@	c #1E62A4",
"-@	c #2E3C44",
";@	c #D27A79",
">@	c #FC4C4B",
",@	c #FAB9B8",
"'@	c #FBE9E9",
")@	c #F87676",
"!@	c #F53D3E",
"~@	c #A29B9D",
"{@	c #232A31",
"]@	c #BCD3E8",
"^@	c #D2E9FF",
"/@	c #D2E6F9",
"(@	c #D3E6F7",
"_@	c #D6E7F9",
":@	c #D4E6FA",
"<@	c #D3E5F9",
"[@	c #D5E6F9",
"}@	c #D6E8FA",
"|@	c #DAEAF9",
"1@	c #DBEAFA",
"2@	c #D7E9FB",
"3@	c #D5E7FA",
"4@	c #D9E9FA",
"5@	c #E0EBFA",
"6@	c #E6EEF9",
"7@	c #D2E6F8",
"8@	c #83BFF5",
"9@	c #4CA5F6",
"0@	c #3995EB",
"a@	c #2B88DB",
"b@	c #1A5CA2",
"c@	c #2D3A43",
"d@	c #D27A78",
"e@	c #FAB9B7",
"f@	c #FCE8E8",
"g@	c #FA7676",
"h@	c #F43D3D",
"i@	c #9B9799",
"j@	c #242F3D",
"k@	c #C7EAFF",
"l@	c #C3DFFB",
"m@	c #CBE2F9",
"n@	c #CFE4F8",
"o@	c #D5E7F7",
"p@	c #DEECF9",
"q@	c #E3EEFA",
"r@	c #E5F0FB",
"s@	c #E9F2FA",
"t@	c #EBF2FA",
"u@	c #EAF1FB",
"v@	c #E9F0FB",
"w@	c #EDF1FB",
"x@	c #F0F4FA",
"y@	c #D5E9F9",
"z@	c #8DC5F6",
"A@	c #54AAF8",
"B@	c #419EF1",
"C@	c #3490E2",
"D@	c #2581D5",
"E@	c #14569D",
"F@	c #2C3A42",
"G@	c #D37B79",
"H@	c #9C9999",
"I@	c #1F2E3D",
"J@	c #B6DEFF",
"K@	c #B6D8FC",
"L@	c #BCDBFB",
"M@	c #C4DDFA",
"N@	c #D3E5FB",
"O@	c #DAE9FB",
"P@	c #E0ECF9",
"Q@	c #E7F0F9",
"R@	c #ECF3FB",
"S@	c #F0F4FB",
"T@	c #F4F4FB",
"U@	c #F7F7FC",
"V@	c #F7F7FB",
"W@	c #DAEAF7",
"X@	c #94CAF7",
"Y@	c #5FB0F8",
"Z@	c #48A5F8",
"`@	c #3B97EB",
" #	c #2D89DE",
".#	c #1D7AD0",
"+#	c #0E5094",
"@#	c #D47C7A",
"##	c #FC4D4B",
"$#	c #FBE8E7",
"%#	c #F97676",
"&#	c #F33D3D",
"*#	c #9B9898",
"=#	c #1E2D3B",
"-#	c #B0DBFF",
";#	c #B0D5FB",
">#	c #B6D8FB",
",#	c #BCDAFA",
"'#	c #C4DFFC",
")#	c #CAE2FB",
"!#	c #C2DDF9",
"~#	c #C5DDF9",
"{#	c #CAE0FA",
"]#	c #D0E4FA",
"^#	c #E8F0FB",
"/#	c #DDEBF9",
"(#	c #A1CEF7",
"_#	c #69B4F8",
":#	c #54ABF9",
"<#	c #419EF2",
"[#	c #3490E6",
"}#	c #2581D8",
"|#	c #1673CB",
"1#	c #084C8C",
"2#	c #2A3841",
"3#	c #D17877",
"4#	c #FB4C4A",
"5#	c #F33C3D",
"6#	c #9C9898",
"7#	c #1D2C3B",
"8#	c #AAD8FF",
"9#	c #AAD3FB",
"0#	c #B0D5FA",
"a#	c #B8DAFB",
"b#	c #ABD3F9",
"c#	c #9BCDF9",
"d#	c #93C9F8",
"e#	c #92C8FB",
"f#	c #A0CDF9",
"g#	c #CEE4FB",
"h#	c #BEDCF9",
"i#	c #7CBCF8",
"j#	c #61B0FB",
"k#	c #4AA5F7",
"l#	c #3A97EB",
"m#	c #1E7AD0",
"n#	c #0F6BC4",
"o#	c #044686",
"p#	c #202D36",
"q#	c #BB5F5F",
"r#	c #F3403F",
"s#	c #F7B4B3",
"t#	c #FCE8E9",
"u#	c #FA7677",
"v#	c #9C9798",
"w#	c #1D2B3A",
"x#	c #A6D7FF",
"y#	c #A5D1FC",
"z#	c #A5D0F9",
"A#	c #8FC3F4",
"B#	c #6AB5F5",
"C#	c #58ABF8",
"D#	c #5DAEFB",
"E#	c #6DB7FB",
"F#	c #7DBEFB",
"G#	c #8CC5FA",
"H#	c #9ACCFB",
"I#	c #A9D3FB",
"J#	c #BEDDFA",
"K#	c #B2D7F9",
"L#	c #75B8F9",
"M#	c #54ABFB",
"N#	c #338FE3",
"O#	c #2681D5",
"P#	c #1773C7",
"Q#	c #0A64BA",
"R#	c #04407C",
"S#	c #17222C",
"T#	c #A14445",
"U#	c #EA3435",
"V#	c #F6B2B2",
"W#	c #FBE8E8",
"X#	c #FA7777",
"Y#	c #9B9798",
"Z#	c #1D2B3B",
"`#	c #A3D7FF",
" $	c #9CCCFB",
".$	c #78B4EE",
"+$	c #4095E3",
"@$	c #3897ED",
"#$	c #43A0F3",
"$$	c #50A8F7",
"%$	c #5EAEFA",
"&$	c #6EB5FB",
"*$	c #7CBCF9",
"=$	c #8AC3FA",
"-$	c #98CAFB",
";$	c #ADD5F9",
">$	c #A4D0F8",
",$	c #69B2F9",
"'$	c #48A4F6",
")$	c #3A97EA",
"!$	c #2C88DB",
"~$	c #1F7ACE",
"{$	c #116BBF",
"]$	c #065CAD",
"^$	c #043D71",
"/$	c #182129",
"($	c #A5494A",
"_$	c #ED3C3D",
":$	c #FCBBBA",
"<$	c #F43E3E",
"[$	c #9B9998",
"}$	c #A0D5FF",
"|$	c #7BB7F0",
"1$	c #2E87DA",
"2$	c #2A87DB",
"3$	c #338FE1",
"4$	c #3A97E9",
"5$	c #439FF1",
"6$	c #4FA6F8",
"7$	c #5CAEFB",
"8$	c #6AB4F9",
"9$	c #79BBFA",
"0$	c #87C2FB",
"a$	c #9ECDF9",
"b$	c #96C9F7",
"c$	c #5DADF8",
"d$	c #409DF3",
"e$	c #338FE2",
"f$	c #2581D4",
"g$	c #1772C7",
"h$	c #0A64B8",
"i$	c #0354A0",
"j$	c #033462",
"k$	c #1D282E",
"l$	c #BA6060",
"m$	c #F44443",
"n$	c #FBBAB8",
"o$	c #F4403E",
"p$	c #9B9C99",
"q$	c #1C2C3B",
"r$	c #92CCFE",
"s$	c #3C8EDB",
"t$	c #2785DD",
"u$	c #2985D8",
"v$	c #2B87DA",
"w$	c #318DE0",
"x$	c #3995E8",
"y$	c #429FF2",
"z$	c #4CA7F8",
"A$	c #5AADF9",
"B$	c #68B4FA",
"C$	c #77BBFB",
"D$	c #90C5F9",
"E$	c #8AC4F8",
"F$	c #54ABF7",
"G$	c #3A97ED",
"H$	c #2D89DB",
"I$	c #1E7ACD",
"J$	c #106CBE",
"K$	c #045EAE",
"L$	c #044685",
"M$	c #061F3E",
"N$	c #505558",
"O$	c #DC706F",
"P$	c #FA4A49",
"Q$	c #F53F3E",
"R$	c #9E9C9B",
"S$	c #142739",
"T$	c #6AB3F4",
"U$	c #2582D8",
"V$	c #2A85DC",
"W$	c #2A86D9",
"X$	c #308CDF",
"Y$	c #3894E7",
"Z$	c #419CF0",
"`$	c #4AA4F6",
" %	c #56ACFB",
".%	c #64B3FB",
"+%	c #7DBDF8",
"@%	c #7CBEF6",
"#%	c #4DA5F3",
"$%	c #338EE3",
"%%	c #0864B9",
"&%	c #064C91",
"*%	c #0A1F38",
"=%	c #373637",
"-%	c #CA9494",
";%	c #F23031",
">%	c #F36161",
",%	c #FAD9DB",
"'%	c #FA7776",
")%	c #F43F3E",
"!%	c #9F9C9C",
"~%	c #0B2139",
"{%	c #419AEA",
"]%	c #2885D9",
"^%	c #308CDE",
"/%	c #3793E6",
"(%	c #409CEF",
"_%	c #48A4F7",
":%	c #52ABFA",
"<%	c #69B6F9",
"[%	c #6EB6F4",
"}%	c #4A9DEA",
"|%	c #2A87DF",
"1%	c #1C7BCE",
"2%	c #0E6BC0",
"3%	c #08559E",
"4%	c #091B32",
"5%	c #444444",
"6%	c #DF9B9C",
"7%	c #F22121",
"8%	c #F05651",
"9%	c #F8D7D4",
"0%	c #FDFAFC",
"a%	c #FCE9E8",
"b%	c #F97777",
"c%	c #F23E3D",
"d%	c #9E9A9C",
"e%	c #071E38",
"f%	c #348FE2",
"g%	c #2E8ADD",
"h%	c #3591E5",
"i%	c #3F9AED",
"j%	c #47A2F4",
"k%	c #5CADF7",
"l%	c #66B0F1",
"m%	c #4698E2",
"n%	c #2481D6",
"o%	c #1773C9",
"p%	c #0E589A",
"q%	c #071A2C",
"r%	c #575356",
"s%	c #E69393",
"t%	c #F51313",
"u%	c #F46D6F",
"v%	c #FAE2E5",
"w%	c #FCFCFF",
"x%	c #F9E9E8",
"y%	c #F77676",
"z%	c #F94444",
"A%	c #AAA6A5",
"B%	c #000E23",
"C%	c #2A71BB",
"D%	c #2D87D8",
"E%	c #2B88DF",
"F%	c #2A88DC",
"G%	c #2986DC",
"H%	c #2A86DB",
"I%	c #2A86DA",
"J%	c #2E88DA",
"K%	c #358FE2",
"L%	c #3C98EE",
"M%	c #50A6F4",
"N%	c #5DA9EE",
"O%	c #3F94DE",
"P%	c #1B7ACB",
"Q%	c #10569F",
"R%	c #0A1729",
"S%	c #6B646A",
"T%	c #EA8682",
"U%	c #EF1011",
"V%	c #F48184",
"W%	c #FBFDFB",
"X%	c #FDFBFB",
"Y%	c #FEFBFC",
"Z%	c #F9EEED",
"`%	c #F57979",
" &	c #F83F40",
".&	c #E1D6D4",
"+&	c #707A7B",
"@&	c #0F191E",
"#&	c #011121",
"$&	c #0B2A47",
"%&	c #144575",
"&&	c #2061A0",
"*&	c #2A7DCA",
"=&	c #2F89DD",
"-&	c #2D8AE0",
";&	c #2B89DD",
">&	c #2988DC",
",&	c #2B89DF",
"'&	c #318EE6",
")&	c #459CEE",
"!&	c #53A3EB",
"~&	c #3B8DD5",
"{&	c #125193",
"]&	c #0E1928",
"^&	c #807779",
"/&	c #E77271",
"(&	c #F41314",
"_&	c #F79393",
":&	c #F7ECEB",
"<&	c #F6A7A7",
"[&	c #F12525",
"}&	c #F23C3E",
"|&	c #E67776",
"1&	c #D29394",
"2&	c #B7A6A4",
"3&	c #8F9899",
"4&	c #606C71",
"5&	c #303E46",
"6&	c #091624",
"7&	c #031931",
"8&	c #0E3159",
"9&	c #194D83",
"0&	c #216BB0",
"a&	c #2A83D5",
"b&	c #2E8EE7",
"c&	c #3E99EF",
"d&	c #519BE1",
"e&	c #305C86",
"f&	c #16212E",
"g&	c #918181",
"h&	c #E6625E",
"i&	c #F21B1D",
"j&	c #F5A0A0",
"k&	c #FAEDEF",
"l&	c #FBFBFB",
"m&	c #FCFCFE",
"n&	c #FAEDEC",
"o&	c #F6AFAC",
"p&	c #F56566",
"q&	c #F54949",
"r&	c #F82F30",
"s&	c #F42021",
"t&	c #E62E2D",
"u&	c #DD4D4B",
"v&	c #D27171",
"w&	c #C49090",
"x&	c #A39A9D",
"y&	c #79898F",
"z&	c #50616E",
"A&	c #253645",
"B&	c #061B2F",
"C&	c #012240",
"D&	c #164168",
"E&	c #1A3A57",
"F&	c #2B373C",
"G&	c #9F8283",
"H&	c #EA5254",
"I&	c #F32828",
"J&	c #F5A8A8",
"K&	c #F9F2F4",
"L&	c #FCF9FB",
"M&	c #FBFDFD",
"N&	c #FAF7F5",
"O&	c #FADFDC",
"P&	c #F9CCCA",
"Q&	c #FAB8B7",
"R&	c #F99B9E",
"S&	c #F87A7B",
"T&	c #FA6061",
"U&	c #FB4A4A",
"V&	c #F93535",
"W&	c #EF2D2F",
"X&	c #E03D3C",
"Y&	c #D15654",
"Z&	c #C27270",
"`&	c #AE8988",
" *	c #908D8F",
".*	c #6D7D83",
"+*	c #6B7C81",
"@*	c #A78080",
"#*	c #EC4B4A",
"$*	c #F43535",
"%*	c #F6B1AF",
"&*	c #FBF5F8",
"**	c #FDFBFF",
"=*	c #FBFBFA",
"-*	c #FAE6E5",
";*	c #F9D0CF",
">*	c #FAA1A3",
",*	c #F88482",
"'*	c #F76B68",
")*	c #FA5A56",
"!*	c #FC4C4A",
"~*	c #F93F3F",
"{*	c #EA3D3C",
"]*	c #D74C4A",
"^*	c #D95A58",
"/*	c #ED4644",
"(*	c #F43F3F",
"_*	c #F8B4B5",
":*	c #FDFAFA",
"<*	c #FBFAF8",
"[*	c #FCF9F8",
"}*	c #FCF9F9",
"|*	c #FDF9F8",
"1*	c #FCFAF8",
"2*	c #FCFBFA",
"3*	c #F8DBDB",
"4*	c #F8C0C0",
"5*	c #F8A6A4",
"6*	c #F78A89",
"7*	c #F67271",
"8*	c #F86663",
"9*	c #F85B5A",
"0*	c #F36768",
"a*	c #F7B8B8",
"b*	c #FDFEFF",
". . . . . . . . . . + @ # $ % & * * = . . . . . . . . . . . . . ",
". . . . . . . . . . - ; > , ' ) ) ! ~ . . . . . . . . . . . . . ",
". . . . . . . . . # ; { ] ^ / ( _ : < [ [ ) } | 1 2 . . . . . . ",
"3 3 3 3 3 3 3 3 4 * 5 6 7 8 9 0 a b c d e f g h [ i i j 3 3 3 3 ",
"3 3 3 3 3 3 3 j k l m n o p q r s t u v w x y z A B C D } E 3 3 ",
". . . . . = 1 F G H I J K L M N O P Q R S T U V W X Y Z `  .. . ",
"2 2 2 2 2 ..+.@.#.$.%.&.*.=.-.;.>.,.'.).!.~.{.].^./.(._.:.<.[.}.",
"3 3 3 3 E |.1.2.3.4.5.6.7.8.9.0.a.b.c.d.e.f.g.h.i.j.k.l.m.n.o.p.",
"2 2 = q.r.s.t.u.v.w.x.y.z.A.B.C.D.E.F.G.H.I.J.K.L.M.N.O.P.Q.R.p.",
"2 2 [ S.T.U.V.W.X.Y.Z.`. +.+++@+#+$+%+&+*+=+-+;+>+,+'+)+!+~+{+p.",
"| ) ]+^+/+(+_+:+<+[+}+|+1+2+3+4+5+6+7+ +8+9+0+a+b+c+d+e+f+g+h+p.",
") i+j+k+l+m+n+o+p+q+r+s+t+u+v+w+x+q+y+z+A+B+C+D+E+F+G+H+I+J+K+p.",
"L+M+N+O+P+Q+R+S+T+U+V+W+X+Y+Z+`+ @ @.@+@@@#@$@%@&@*@=@-@;@>@,@) ",
"'@)@!@~@{@]@^@/@(@_@:@<@[@}@|@1@2@3@4@5@6@7@8@9@0@a@b@c@d@>@e@[ ",
"f@g@h@i@j@k@l@m@n@o@|@p@q@r@s@t@u@v@w@x@y@z@A@B@C@D@E@F@G@J+h+p.",
"f@g@h@H@I@J@K@L@M@B+N@O@P@Q@R@S@T@U@V@W@X@Y@Z@`@ #.#+#F@@###h+p.",
"$#%#&#*#=#-#;#>#,#'#)# @!#~#{#]#O@^#/#(#_#:#<#[#}#|#1#2#3#4#h+p.",
"f@g@5#6#7#8#9#0#a#b#c#d#e##+f#=+a#g#h#i#j#k#l# #m#n#o#p#q#r#s#) ",
"t#u#&#v#w#x#y#z#A#B#C#D#E#F#G#H#I#J#K#L#M#<#N#O#P#Q#R#S#T#U#V#' ",
"W#X#&#Y#Z#`# $.$+$@$#$$$%$&$*$=$-$;$>$,$'$)$!$~${$]$^$/$($_$:$[ ",
"$#X#<$[$7#}$|$1$2$3$4$5$6$7$8$9$0$a$b$c$d$e$f$g$h$i$j$k$l$m$n$) ",
"W#X#o$p$q$r$s$t$u$v$w$x$y$z$A$B$C$D$E$F$G$H$I$J$K$L$M$N$O$P$5 [ ",
"W#X#Q$R$S$T$U$V$W$W$v$X$Y$Z$`$ %.%+%@%#%$%f$P#%%&%*%=%-%;%>%,%[ ",
"$#'%)%!%~%{%]%W$W$W$W$W$^%/%(%_%:%<%[%}%|%1%2%3%4%5%6%7%8%9%i 0%",
"a%b%c%d%e%f%W$W$W$W$W$W$W$g%h%i%j%k%l%m%n%o%p%q%r%s%t%u%v%w%2 2 ",
"x%y%z%A%B%C%D%E%a@F%G%H%I%W$J%K%L%M%N%O%P%Q%R%S%T%U%V%a%W%X%Y%Y%",
"Z%`% &.&+&@&#&$&%&&&*&=&-&;&>&,&'&)&!&~&{&]&^&/&(&_&:&1 2 2 2 2 ",
"' <&[&}&|&1&2&3&4&5&6&7&8&9&0&a&b&c&d&e&f&g&h&i&j&k&. l&. . . . ",
"m&n&o&p&q&r&s&t&u&v&w&x&y&z&A&B&C&D&E&F&G&H&I&J&K&| 3 3 3 3 3 3 ",
"L&M&N&O&P&Q&R&S&T&U&V&W&X&Y&Z&`& *.*+*@*#*$*%*&***2 3 3 3 3 3 3 ",
"=*= ~ ) [ [ < -*;*d >*,*'*)*!*~*{*]*^*/*(*_*W%~ :*. 1 1 1 1 1 1 ",
"<*[*}*}*|*1*2*! ) ) ' D 3*4*5*6*7*8*9*0*a*b*X%1*}*}** * * * * * "};
