/* XPM */
static const char * jointSelect_xpm[] = {
"16 16 3 1",
" 	c None",
".	c #140CFF",
"+	c #FFFFFF",
"...............+",
".....+++......++",
"....+++......+++",
"...+++..+++.+++.",
"...++..+++++++..",
"..+++.+++++++...",
"..+++.++++++++..",
"..+++.++++++++..",
"..+++..++++++...",
"...+++..++++....",
"...++++.........",
"...++++++++++...",
"..+++..+++++....",
".+++............",
"+++.............",
"++.............."};
