/* XPM */
static const char * joint_xpm[] = {
"16 16 6 1",
" 	c None",
".	c #FFFFFF",
"+	c #000000",
"@	c #030303",
"#	c #070707",
"$	c #050505",
"...............+",
".....++@......++",
"....+++......+++",
"...+++..+++.++#.",
"...++..+++++++..",
"..+++.+++++++...",
"..+++.++++++++..",
"..+++.++++++++..",
"..+++..++++$+...",
"...+++..++++....",
"...++++.........",
"...++++++++++...",
"..+++..+++++....",
".+++............",
"+++.............",
"++.............."};
