/* XPM */
static const char * landmark_xpm[] = {
"16 16 5 1",
" 	c None",
".	c #A07763",
"+	c #5A3C2A",
"@	c #442A1C",
"#	c #FE2546",
"   .+@#         ",
"   .+@###       ",
"   .+@#####     ",
"   .+@#######   ",
"   .+@########  ",
"   .+@######### ",
"   .+@######    ",
"   .+@####      ",
"   .+@##        ",
"   .+@          ",
"   .+@          ",
"   .+@          ",
"   .+@          ",
"   .+@          ",
"   .+@          ",
"   .+@          "};
