/* XPM */
static const char * laser_xpm[] = {
"16 16 9 1",
" 	c None",
".	c #ED121D",
"+	c #EC111C",
"@	c #000000",
"#	c #1C0204",
"$	c #0D0001",
"%	c #D00F19",
"&	c #020000",
"*	c #380407",
"                ",
"    .   .       ",
"    .   .  .    ",
"    .   .  .    ",
"  .  .  .  .    ",
"  .  .  .  .  . ",
"  .. .  .  .  . ",
"   . .  . .  .  ",
"   .  . . . ..  ",
"    . . . . .   ",
"    . +   + .   ",
"    .   @  +    ",
"       @#@      ",
"     @@$%&@@    ",
"       @*@      ",
"        @       "};
