/* XPM */
static const char * laserSelect_xpm[] = {
"16 16 101 2",
"  	c None",
". 	c #140CFF",
"+ 	c #1A0CF8",
"@ 	c #240CED",
"# 	c #130BFF",
"$ 	c #120BFF",
"% 	c #1F0CF3",
"& 	c #7A0F94",
"* 	c #0D0BFF",
"= 	c #140CFE",
"- 	c #270CEB",
"; 	c #2E0CE3",
"> 	c #3B0DD5",
", 	c #D00F19",
"' 	c #100BFF",
") 	c #3A0DD7",
"! 	c #DE112B",
"~ 	c #070BFF",
"{ 	c #750F9A",
"] 	c #220CEF",
"^ 	c #0C0BFF",
"/ 	c #110BFF",
"( 	c #390DD9",
"_ 	c #D81132",
": 	c #080BFF",
"< 	c #4B0DC4",
"[ 	c #250CEC",
"} 	c #230CEE",
"| 	c #0A0BFF",
"1 	c #550EBB",
"2 	c #390CD8",
"3 	c #0F0BFF",
"4 	c #020BFF",
"5 	c #6E0EA1",
"6 	c #060BFF",
"7 	c #0B0BFF",
"8 	c #230CEF",
"9 	c #2B0CE6",
"0 	c #E91120",
"a 	c #260CEB",
"b 	c #2B0DE7",
"c 	c #EB111E",
"d 	c #030BFF",
"e 	c #050BFF",
"f 	c #100CFF",
"g 	c #1C0CF6",
"h 	c #090BFF",
"i 	c #000BFF",
"j 	c #350DDC",
"k 	c #380DDA",
"l 	c #010BFF",
"m 	c #180CFA",
"n 	c #D0113B",
"o 	c #360DDB",
"p 	c #670EA8",
"q 	c #330DDE",
"r 	c #480DC8",
"s 	c #470DCA",
"t 	c #D81131",
"u 	c #2F0CE3",
"v 	c #160CFC",
"w 	c #400DD1",
"x 	c #DE112C",
"y 	c #190CF9",
"z 	c #1D0CF4",
"A 	c #1E0CF3",
"B 	c #270CEA",
"C 	c #2A0CE7",
"D 	c #190CFD",
"E 	c #470DC9",
"F 	c #4F0EC0",
"G 	c #0F0CFF",
"H 	c #100AE5",
"I 	c #040345",
"J 	c #0F0BFB",
"K 	c #040BFF",
"L 	c #340DDF",
"M 	c #530ECF",
"N 	c #0D0AE4",
"O 	c #010345",
"P 	c #1C0202",
"Q 	c #060574",
"R 	c #0E0ADE",
"S 	c #640FBF",
"T 	c #120BEC",
"U 	c #000000",
"V 	c #0D0000",
"W 	c #020000",
"X 	c #030237",
"Y 	c #130BF9",
"Z 	c #130BFE",
"` 	c #110ADB",
" .	c #0D08B1",
"..	c #000232",
"+.	c #380406",
"@.	c #030462",
"#.	c #0E08BC",
"$.	c #120AE9",
"%.	c #120BE0",
"&.	c #020228",
"*.	c #130BF5",
". . . + @ # $ % & * = - ; # . . ",
". . . > , ' ' ) ! ~ # , { # . . ",
". . . ] , ^ / ( _ : / , < # . . ",
"# [ } | , 1 ^ ( _ : ' , 2 # 3 $ ",
"$ , , 4 5 , 6 ( _ : 7 , 8 = , 9 ",
"# = 0 a b c d ( _ e 2 , f g , [ ",
"= h , , i , j k _ l , , e , , # ",
". # m n m , , o _ i , p * , q $ ",
". . / , r s , ( t i , u , , ~ = ",
". . # , , v , w x y , z , A $ . ",
". . = B , 3 , C D E , F , / = . ",
". . . G , , 4 H I J K , , = . . ",
". . . $ L M N O P Q R S v . . . ",
". . . . T U U V , W U X Y . . . ",
". . . Z . `  ...+.@.#.$.. . . . ",
". . . . Z . . %.&.*.. . Z . . . "};
