/* XPM */
static const char * left_xpm[] = {
"32 32 284 2",
"  	c None",
". 	c #A7C1C7",
"+ 	c #65ACC0",
"@ 	c #D8E7EA",
"# 	c #BACDD1",
"$ 	c #2A7A90",
"% 	c #56B5D1",
"& 	c #86C0CD",
"* 	c #508899",
"= 	c #60A8BD",
"- 	c #68C0D4",
"; 	c #5CB2CB",
"> 	c #CFE2E4",
", 	c #C5D5DC",
"' 	c #A3C0CB",
") 	c #6DA6B8",
"! 	c #66ACBD",
"~ 	c #61AEC3",
"{ 	c #53A7BD",
"] 	c #50A8C0",
"^ 	c #5BB0C6",
"/ 	c #67B5CC",
"( 	c #67B1C8",
"_ 	c #64B1C6",
": 	c #61A9C1",
"< 	c #91BEC8",
"[ 	c #D1DDE0",
"} 	c #3F8697",
"| 	c #74C3D7",
"1 	c #6ABDD3",
"2 	c #66B7CE",
"3 	c #70BACD",
"4 	c #84B5C8",
"5 	c #67AEC2",
"6 	c #5AABC0",
"7 	c #4BA1BA",
"8 	c #3998AD",
"9 	c #3B96AE",
"0 	c #3E97B0",
"a 	c #3F94AD",
"b 	c #3D94AB",
"c 	c #3991A7",
"d 	c #3C94AA",
"e 	c #439BB4",
"f 	c #5BACC4",
"g 	c #70BCD1",
"h 	c #61B5CA",
"i 	c #7EB5C3",
"j 	c #6DA0AD",
"k 	c #69AFC2",
"l 	c #6BC2D6",
"m 	c #6FBED3",
"n 	c #6BBAD0",
"o 	c #60B2CD",
"p 	c #60B1C9",
"q 	c #6AB5CA",
"r 	c #4CA7BF",
"s 	c #45A7C0",
"t 	c #48A6C1",
"u 	c #46A8BE",
"v 	c #43A7BE",
"w 	c #41A6BE",
"x 	c #40A5BB",
"y 	c #3FA3B8",
"z 	c #3D9FB6",
"A 	c #3D9CB4",
"B 	c #3898B3",
"C 	c #419EBB",
"D 	c #6BB9CD",
"E 	c #5FB3C7",
"F 	c #519EAD",
"G 	c #D7DEE1",
"H 	c #4598AC",
"I 	c #6CBED1",
"J 	c #7EC4D5",
"K 	c #70BDD4",
"L 	c #6FBBD2",
"M 	c #6CB8CF",
"N 	c #72BBCF",
"O 	c #5AB1C9",
"P 	c #57B1C9",
"Q 	c #55AFC6",
"R 	c #52B0C7",
"S 	c #4FAFC6",
"T 	c #4CAEC7",
"U 	c #4BADC5",
"V 	c #46ABC4",
"W 	c #43ABC2",
"X 	c #40AAC0",
"Y 	c #3DA7BF",
"Z 	c #3CA4BD",
"` 	c #3DA2BB",
" .	c #3A9EBB",
"..	c #5BB1CB",
"+.	c #67B2C5",
"@.	c #3B8C9E",
"#.	c #7FB8C7",
"$.	c #64B7CC",
"%.	c #7FC9D6",
"&.	c #7EC3D6",
"*.	c #76BFD4",
"=.	c #72BDD4",
"-.	c #6FBBCF",
";.	c #5EB2CA",
">.	c #60B3CA",
",.	c #60B4CB",
"'.	c #5FB5CB",
").	c #5DB3C9",
"!.	c #53AFC8",
"~.	c #51AEC8",
"{.	c #4CACC6",
"].	c #49AAC4",
"^.	c #44A9C3",
"/.	c #43A7C3",
"(.	c #3BA6C3",
"_.	c #3CA3BF",
":.	c #3B9EBD",
"<.	c #56B0CB",
"[.	c #5FA5B9",
"}.	c #45899B",
"|.	c #60B3C6",
"1.	c #7DC6D7",
"2.	c #89CBD8",
"3.	c #83C5D7",
"4.	c #7DC2D3",
"5.	c #7DC1D4",
"6.	c #5CB3CB",
"7.	c #64B5CC",
"8.	c #6AB9CE",
"9.	c #6CBACE",
"0.	c #66B4CB",
"a.	c #60B3CC",
"b.	c #5CB1CB",
"c.	c #5BB1CA",
"d.	c #57AFC8",
"e.	c #52ABC7",
"f.	c #4CA8C5",
"g.	c #45A6C5",
"h.	c #40A4C3",
"i.	c #3FA5C3",
"j.	c #3EA3C1",
"k.	c #3EA2C0",
"l.	c #3FA1BF",
"m.	c #4EACC9",
"n.	c #5099AC",
"o.	c #7CA7B0",
"p.	c #AACAD3",
"q.	c #6DB7CC",
"r.	c #86CAD9",
"s.	c #99D1DF",
"t.	c #92CADB",
"u.	c #8CC8D9",
"v.	c #75BDD2",
"w.	c #67B5CE",
"x.	c #74BED1",
"y.	c #76BED0",
"z.	c #76BFD2",
"A.	c #70BBCF",
"B.	c #69B7CE",
"C.	c #60B2CC",
"D.	c #53AEC9",
"E.	c #45A7C5",
"F.	c #40A6C3",
"G.	c #3EA4C3",
"H.	c #35A0C2",
"I.	c #369FC2",
"J.	c #3BA2C2",
"K.	c #40A1C3",
"L.	c #3EA2C1",
"M.	c #3EA0C0",
"N.	c #3B9FC0",
"O.	c #43A1C0",
"P.	c #3FA4C2",
"Q.	c #3E8297",
"R.	c #7AB4C8",
"S.	c #7AC0D5",
"T.	c #A2D7E3",
"U.	c #A9D8E6",
"V.	c #A3D4E1",
"W.	c #8FCADA",
"X.	c #7CC1D5",
"Y.	c #7DC0D4",
"Z.	c #84C4D6",
"`.	c #83C3D5",
" +	c #7DC0D1",
".+	c #6EB9D1",
"++	c #61B5CB",
"@+	c #44ACC7",
"#+	c #95CCDA",
"$+	c #C9E7EB",
"%+	c #B0D8DD",
"&+	c #60AEC5",
"*+	c #29A0C2",
"=+	c #359EBF",
"-+	c #3EA0BF",
";+	c #3B9EBE",
">+	c #32A0C0",
",+	c #499FB8",
"'+	c #B8CACE",
")+	c #CAD9DE",
"!+	c #7CC4D5",
"~+	c #8ECDDB",
"{+	c #B8E1EB",
"]+	c #B9E1EA",
"^+	c #B0DAE7",
"/+	c #96CFDF",
"(+	c #93CDDE",
"_+	c #8FCCDC",
":+	c #90CBDC",
"<+	c #8DCBD9",
"[+	c #80C4D5",
"}+	c #64BAD1",
"|+	c #62B9CC",
"1+	c #EAF1F1",
"2+	c #B3CCD3",
"3+	c #52ACC5",
"4+	c #34A0C2",
"5+	c #36A1C1",
"6+	c #40A4C1",
"7+	c #84A9B0",
"8+	c #7AABB9",
"9+	c #90CEDD",
"0+	c #AAD9E4",
"a+	c #C0E3EC",
"b+	c #ADDDE7",
"c+	c #A6D7E6",
"d+	c #A2D5E2",
"e+	c #9DD2E0",
"f+	c #98D1DF",
"g+	c #95CFDC",
"h+	c #86C7D8",
"i+	c #85C7D4",
"j+	c #7BABBB",
"k+	c #41A2BB",
"l+	c #6797A4",
"m+	c #D6E1E4",
"n+	c #5999AE",
"o+	c #88CBDC",
"p+	c #96D0E1",
"q+	c #9FD5E3",
"r+	c #A5D9E6",
"s+	c #A8D9E8",
"t+	c #ACDAE8",
"u+	c #A9DAE7",
"v+	c #A4D7E5",
"w+	c #9ED3E1",
"x+	c #9AD0E1",
"y+	c #8CCDDA",
"z+	c #BCDBE0",
"A+	c #789CA6",
"B+	c #ECF1F2",
"C+	c #9FBCC3",
"D+	c #75A8BC",
"E+	c #75B5C5",
"F+	c #71BACF",
"G+	c #6BBCD4",
"H+	c #85C9DD",
"I+	c #8DCDDD",
"J+	c #96CFE0",
"K+	c #9FD4E3",
"L+	c #9FD3E1",
"M+	c #9CD2DF",
"N+	c #98CFDF",
"O+	c #6BBED2",
"P+	c #B3D2D8",
"Q+	c #ADCFD7",
"R+	c #88BDCD",
"S+	c #74B9CE",
"T+	c #79C1D4",
"U+	c #74BED6",
"V+	c #7CC4DB",
"W+	c #82C6DA",
"X+	c #85C9DB",
"Y+	c #78C2D3",
"Z+	c #A9D8E5",
"`+	c #A3CAD3",
" @	c #8CC0D2",
".@	c #81C0D1",
"+@	c #69BCD3",
"@@	c #82C6D7",
"#@	c #D5D9DB",
"$@	c #ADBEC3",
"%@	c #98B1B6",
"&@	c #A9C8D0",
"                                                                ",
"                                                                ",
"                                                                ",
"                                                                ",
"                                                                ",
"                                                                ",
"                                                                ",
"                                                                ",
"            . + @                                               ",
"          # $ % &                                               ",
"          * = - ; >   , ' ) ! ~ { ] ^ / ( _ : <                 ",
"        [ } | 1 2 3 4 5 6 7 8 9 0 a b c d e f g h i             ",
"        j k l m n o p q r s t u v w x y z A B C D E F           ",
"      G H I J K L M N O P Q R S T U V W X Y Z `  ...+.@.        ",
"      #.$.%.&.*.=.-.;.>.,.'.).O P !.~.{.].^./.(._.:.<.[.}.      ",
"      |.1.2.3.4.5.6.7.8.8.9.0.a.b.c.d.e.f.g.h.i.j.k.l.m.n.o.    ",
"    p.q.r.s.t.u.v.w.x.y.z.A.B.C.D.E.F.G.H.I.J.K.L.M.N.O.P.Q.    ",
"    R.S.T.U.V.W.X.Y.Z.`. +.+++@+#+$+      %+&+*+=+-+;+>+,+'+    ",
"  )+!+~+{+]+^+/+(+_+:+<+[+}+|+1+              2+3+4+5+6+7+      ",
"  8+9+0+a+a+b+c+d+e+f+g+h+i+                      j+k+l+        ",
"m+n+o+p+q+r+s+t+u+v+w+x+y+z+                        A+          ",
"B+C+D+E+F+G+H+I+J+K+L+M+N+O+                                    ",
"        P+Q+R+S+T+U+V+W+X+Y+Z+                                  ",
"                    `+ @.@+@@@                                  ",
"                      #@$@%@&@                                  ",
"                                                                ",
"                                                                ",
"                                                                ",
"                                                                ",
"                                                                ",
"                                                                ",
"                                                                "};
