/* XPM */
static char * link_xpm[] = {
"25 25 361 2",
"  	c None",
". 	c #388700",
"+ 	c #3B8600",
"@ 	c #418807",
"# 	c #448A0B",
"$ 	c #428909",
"% 	c #3C8601",
"& 	c #489011",
"* 	c #4A8F14",
"= 	c #4F901A",
"- 	c #52921D",
"; 	c #50911B",
"> 	c #4A8F15",
", 	c #478F10",
"' 	c #67A139",
") 	c #73A74A",
"! 	c #78A951",
"~ 	c #7BAB54",
"{ 	c #7CAC55",
"] 	c #7BAB55",
"^ 	c #78A952",
"/ 	c #73A74B",
"( 	c #67A138",
"_ 	c #579D1F",
": 	c #5D9D2A",
"< 	c #6EA145",
"[ 	c #87AF67",
"} 	c #9DBE83",
"| 	c #A9C692",
"1 	c #ADC997",
"2 	c #ADCA97",
"3 	c #ACC996",
"4 	c #AAC793",
"5 	c #A0BF85",
"6 	c #8AB069",
"7 	c #6FA147",
"8 	c #5D9B2B",
"9 	c #579C1E",
"0 	c #4C9612",
"a 	c #649F35",
"b 	c #86B065",
"c 	c #9DC081",
"d 	c #9EC082",
"e 	c #9DBF80",
"f 	c #9FC184",
"g 	c #A3C389",
"h 	c #A5C58C",
"i 	c #A5C48B",
"j 	c #A2C287",
"k 	c #9DBF82",
"l 	c #8BB46A",
"m 	c #6AA13D",
"n 	c #4F9715",
"o 	c #4C9910",
"p 	c #65A235",
"q 	c #81B05B",
"r 	c #95BB75",
"s 	c #97BD78",
"t 	c #95BC75",
"u 	c #95BC76",
"v 	c #C0D3B1",
"w 	c #CEDBC2",
"x 	c #CAD8BD",
"y 	c #B7CDA4",
"z 	c #9EBF83",
"A 	c #95BD74",
"B 	c #96BD76",
"C 	c #87B463",
"D 	c #6EA641",
"E 	c #519A16",
"F 	c #4E9D0F",
"G 	c #549A1C",
"H 	c #78AC4E",
"I 	c #8DB96A",
"J 	c #8EBA6A",
"K 	c #8AB765",
"L 	c #8DB86B",
"M 	c #BAD2A8",
"N 	c #D3DEC9",
"O 	c #D3DECA",
"P 	c #CCD9C1",
"Q 	c #CDDAC2",
"R 	c #D6E0CE",
"S 	c #CDDBC2",
"T 	c #A0C185",
"U 	c #8CB768",
"V 	c #8BB866",
"W 	c #83B25C",
"X 	c #5EA02A",
"Y 	c #55A01A",
"Z 	c #4F9C10",
"` 	c #61A12D",
" .	c #80B256",
"..	c #87B75F",
"+.	c #81B457",
"@.	c #85B65E",
"#.	c #A2C388",
"$.	c #DAE3D3",
"%.	c #D4E0C9",
"&.	c #B4CF9E",
"*.	c #9EC281",
"=.	c #A4C58A",
"-.	c #C2D7B2",
";.	c #DDE6D8",
">.	c #C4D6B6",
",.	c #94BD73",
"'.	c #7FB255",
").	c #85B65D",
"!.	c #84B65C",
"~.	c #73AA46",
"{.	c #58A01D",
"].	c #4F9B12",
"^.	c #67A733",
"/.	c #77B048",
"(.	c #7BB34D",
"_.	c #76B046",
":.	c #86B85E",
"<.	c #CDDBC0",
"[.	c #CCDAC1",
"}.	c #9DC27E",
"|.	c #7CB34F",
"1.	c #74AF44",
"2.	c #78B04A",
"3.	c #83B55C",
"4.	c #AFCB99",
"5.	c #E5EAE0",
"6.	c #A5C788",
"7.	c #73AD44",
"8.	c #77B049",
"9.	c #79B14C",
"0.	c #7BB24F",
"a.	c #5AA021",
"b.	c #4B9E09",
"c.	c #4D9B0E",
"d.	c #59A31F",
"e.	c #64A82E",
"f.	c #6AAC37",
"g.	c #69AB33",
"h.	c #84B95A",
"i.	c #B0CC98",
"j.	c #81B556",
"k.	c #70AE3D",
"l.	c #70AF3D",
"m.	c #8EBE68",
"n.	c #E1E8DB",
"o.	c #A5C68A",
"p.	c #63A52F",
"q.	c #5DA422",
"r.	c #67A931",
"s.	c #71B03F",
"t.	c #5AA220",
"u.	c #4D9D0B",
"v.	c #4EA40A",
"w.	c #4EA30A",
"x.	c #4D9F0A",
"y.	c #4D9E0A",
"z.	c #4F9F0F",
"A.	c #52A012",
"B.	c #54A115",
"C.	c #4E9F0C",
"D.	c #6DAF38",
"E.	c #E7ECE3",
"F.	c #9EC47E",
"G.	c #69AC33",
"H.	c #59A61B",
"I.	c #55A416",
"J.	c #50A00D",
"K.	c #70B13B",
"L.	c #D9E4D0",
"M.	c #A0C583",
"N.	c #59A220",
"O.	c #4E9E0C",
"P.	c #53A113",
"Q.	c #56A317",
"R.	c #519F10",
"S.	c #4D9F0B",
"T.	c #4FA50B",
"U.	c #4FA40B",
"V.	c #4EA20A",
"W.	c #4EA209",
"X.	c #4DA109",
"Y.	c #4A9F06",
"Z.	c #6FAF3B",
"`.	c #E1E5DD",
" +	c #9EC280",
".+	c #6DAC3B",
"++	c #5FA625",
"@+	c #60A726",
"#+	c #5DA522",
"$+	c #58A21B",
"%+	c #76B146",
"&+	c #D3DFCA",
"*+	c #A5C58B",
"=+	c #60A627",
"-+	c #4AA005",
";+	c #4EA109",
">+	c #50A70A",
",+	c #4FA70A",
"'+	c #50A60A",
")+	c #50A60B",
"!+	c #4FA609",
"~+	c #4CA405",
"{+	c #5BA91C",
"]+	c #93C16E",
"^+	c #E8EBE5",
"/+	c #C5D9B5",
"(+	c #A9CD8D",
"_+	c #A1C980",
":+	c #A2CA81",
"<+	c #9FC87E",
"[+	c #B0D196",
"}+	c #E3E9DE",
"|+	c #C6D8B8",
"1+	c #7CB64D",
"2+	c #49A301",
"3+	c #4EA508",
"4+	c #4FA509",
"5+	c #50A50A",
"6+	c #51A90A",
"7+	c #51AA0B",
"8+	c #52AA0B",
"9+	c #51AA0A",
"0+	c #4DA803",
"a+	c #6EB534",
"b+	c #BAD7A4",
"c+	c #F5F7F3",
"d+	c #EFF4EC",
"e+	c #E9F1E1",
"f+	c #E6F1DE",
"g+	c #E7F1DF",
"h+	c #E6F1DF",
"i+	c #EBF3E5",
"j+	c #F8F9F7",
"k+	c #ECEEEA",
"l+	c #99C874",
"m+	c #49A600",
"n+	c #51A909",
"o+	c #53AC0A",
"p+	c #54AD0B",
"q+	c #54AE0B",
"r+	c #53AE0A",
"s+	c #4EAB02",
"t+	c #76BB3D",
"u+	c #CBE0BA",
"v+	c #FCFEFA",
"w+	c #FFFFFF",
"x+	c #FCF9FF",
"y+	c #A6D183",
"z+	c #4AAA00",
"A+	c #53AD0A",
"B+	c #54AE0A",
"C+	c #54AF0A",
"D+	c #55B10B",
"E+	c #56B30B",
"F+	c #55B20A",
"G+	c #50B102",
"H+	c #75BE3A",
"I+	c #C6DEB2",
"J+	c #FAFCF9",
"K+	c #F6F6F8",
"L+	c #A3D17E",
"M+	c #4DAF00",
"N+	c #56B20B",
"O+	c #55B00A",
"P+	c #56B40B",
"Q+	c #58B80B",
"R+	c #58B70B",
"S+	c #57B70A",
"T+	c #52B502",
"U+	c #76C13A",
"V+	c #C6DFB2",
"W+	c #F6F5F8",
"X+	c #A4D37E",
"Y+	c #4FB400",
"Z+	c #57B40B",
"`+	c #57B60C",
" @	c #5BBB0C",
".@	c #5ABB0C",
"+@	c #59BB0B",
"@@	c #54B903",
"#@	c #78C43B",
"$@	c #C6E0B3",
"%@	c #A4D57E",
"&@	c #51B800",
"*@	c #5BBC0C",
"=@	c #58B70C",
"-@	c #5BBE0B",
";@	c #5CC00C",
">@	c #5CBF0B",
",@	c #57BE03",
"'@	c #79C83B",
")@	c #C7E2B3",
"!@	c #A5D77E",
"~@	c #53BD00",
"{@	c #5BBF0B",
"]@	c #5CBE0B",
"^@	c #59BA0C",
"/@	c #5ABC0B",
"(@	c #5EC40C",
"_@	c #58C203",
":@	c #7CCB3D",
"<@	c #CCE4BA",
"[@	c #FCF8FF",
"}@	c #A9DA83",
"|@	c #55C100",
"1@	c #5DC30B",
"2@	c #5EC50D",
"3@	c #5BBD0B",
"4@	c #59BA0B",
"5@	c #5FC80C",
"6@	c #5BC706",
"7@	c #78CD35",
"8@	c #B9DF9B",
"9@	c #E2F2D6",
"0@	c #E5F4DA",
"a@	c #E5F4D9",
"b@	c #E7F4DB",
"c@	c #DFEDD5",
"d@	c #9DD76E",
"e@	c #59C502",
"f@	c #5FC60D",
"g@	c #5DC00C",
"h@	c #60C90D",
"i@	c #61CC0B",
"j@	c #6ACD1C",
"k@	c #7FCF3F",
"l@	c #8BD153",
"m@	c #8CD155",
"n@	c #8CD154",
"o@	c #8BD053",
"p@	c #76CE2F",
"q@	c #60CC09",
"r@	c #61CB0D",
"s@	c #5DC10C",
"t@	c #5DC40C",
"u@	c #61CB0C",
"v@	c #66D20F",
"w@	c #68D013",
"x@	c #69D016",
"y@	c #68D017",
"z@	c #68D016",
"A@	c #69D017",
"B@	c #67D112",
"C@	c #62CE0C",
"D@	c #5CC20D",
"E@	c #5FC70D",
"F@	c #64D20C",
"G@	c #65D60C",
"H@	c #65D70C",
"I@	c #65D60B",
"J@	c #65D50C",
"K@	c #64D30C",
"L@	c #60C90C",
"M@	c #5CC20C",
"N@	c #61CE0C",
"O@	c #63D10C",
"P@	c #64D10D",
"Q@	c #63D20D",
"R@	c #63D20C",
"S@	c #64D10C",
"T@	c #62CF0B",
"                    . + @ # $ % .                 ",
"                    & * = - ; > ,                 ",
"                  ' ) ! ~ { ] ^ / (               ",
"            _ : < [ } | 1 2 3 4 5 6 7 8 9         ",
"          0 a b c d e f g h i j k e c l m n       ",
"        o p q r s t u | v w x y z A B t C D E     ",
"      F G H I J K L M N O P Q R S T U V J W X Y   ",
"      Z `  ...+.@.#.$.%.&.*.=.-.;.>.,.'.).!.~.{.  ",
"      ].^./.(._.:.<.[.}.|.1.2.3.4.5.6.7.8.9.0.a.  ",
"    b.c.d.e.f.g.h.5.i.j.k.l.l.k.m.n.o.p.q.r.s.t.u.",
"v.w.x.y.z.A.B.C.D.E.F.G.H.H.I.J.K.L.M.N.O.P.Q.R.S.",
"T.U.w.V.W.X.X.Y.Z.`. +.+++@+#+$+%+&+*+=+-+X.X.;+V.",
">+,+'+)+'+!+~+{+]+^+/+(+_+:+_+<+[+}+|+1+2+3+4+5+'+",
"6+6+7+8+8+9+0+a+b+c+d+e+f+g+h+g+i+j+k+l+m+n+8+8+7+",
"o+o+p+q+q+r+s+t+u+v+w+w+w+w+w+w+w+w+x+y+z+A+q+q+p+",
"B+C+D+E+E+F+G+H+I+J+w+w+w+w+w+w+w+w+K+L+M+F+N+E+D+",
"C+O+P+Q+R+S+T+U+V+J+w+w+w+w+w+w+w+w+W+X+Y+S+R+Q+Z+",
"    `+ @.@+@@@#@$@J+w+w+w+w+w+w+w+w+W+%@&@+@.@*@=@",
"      -@;@>@,@'@)@J+w+w+w+w+w+w+w+w+W+!@~@{@;@]@^@",
"      /@(@(@_@:@<@w+w+w+w+w+w+w+w+w+[@}@|@1@2@3@  ",
"      4@2@5@6@7@8@9@0@0@a@a@a@a@a@b@c@d@e@5@f@/@  ",
"        g@h@i@j@k@l@m@m@n@n@n@n@n@m@o@p@q@r@s@    ",
"          t@u@v@w@x@y@z@z@z@z@z@z@y@A@B@C@(@      ",
"            D@E@F@G@H@I@J@G@G@I@H@G@K@L@M@        ",
"                  N@O@P@Q@R@R@P@S@C@T@            "};
