/* XPM */
static char * Links_xpm[] = {
"21 18 168 2",
"  	c None",
". 	c #FFFFFF",
"+ 	c #FCFCFC",
"@ 	c #C9DEB3",
"# 	c #C1DCA7",
"$ 	c #C2DCAA",
"% 	c #D8E2CE",
"& 	c #FDFDFD",
"* 	c #FAFAFA",
"= 	c #9ECF6A",
"- 	c #92D050",
"; 	c #90CD4F",
"> 	c #8DC94D",
", 	c #90CE4F",
"' 	c #91CF50",
") 	c #92CF50",
"! 	c #92CC54",
"~ 	c #A9C191",
"{ 	c #ECF4EF",
"] 	c #F2FAF5",
"^ 	c #87C14A",
"/ 	c #6F9F3C",
"( 	c #76A940",
"_ 	c #79AD42",
": 	c #7EB445",
"< 	c #91CC54",
"[ 	c #8CB97D",
"} 	c #81CFA3",
"| 	c #93D4AF",
"1 	c #C0E2CD",
"2 	c #C0E2CE",
"3 	c #C3E2D0",
"4 	c #8BC74C",
"5 	c #79AC42",
"6 	c #7AAE42",
"7 	c #7FB545",
"8 	c #8AB87B",
"9 	c #78C69A",
"0 	c #8ACBA6",
"a 	c #BCDEC9",
"b 	c #BDDFCA",
"c 	c #7DC59C",
"d 	c #9DC96F",
"e 	c #90C855",
"f 	c #90C559",
"g 	c #A7BD92",
"h 	c #E7EFEB",
"i 	c #EDF5F1",
"j 	c #87CFA7",
"k 	c #FEFEFE",
"l 	c #DEE4D8",
"m 	c #CED6C6",
"n 	c #CFD6C7",
"o 	c #DCDFD9",
"p 	c #88D1A8",
"q 	c #ECEDED",
"r 	c #EDEEEE",
"s 	c #ECEDEE",
"t 	c #EFEFEF",
"u 	c #E2E4E5",
"v 	c #EAEEF0",
"w 	c #E6EBEF",
"x 	c #E9EEF0",
"y 	c #EBEEF0",
"z 	c #E7EBEC",
"A 	c #DADCDC",
"B 	c #FCFEFD",
"C 	c #FDFEFE",
"D 	c #87D0A7",
"E 	c #FFF4F4",
"F 	c #FFEDED",
"G 	c #FDF5F5",
"H 	c #D3D6D9",
"I 	c #D4DBDF",
"J 	c #C2CEDA",
"K 	c #B2C3D7",
"L 	c #BCCAD9",
"M 	c #BBCAD9",
"N 	c #BBC9D9",
"O 	c #D2D9DF",
"P 	c #D2D9DC",
"Q 	c #BCCCC5",
"R 	c #B9E0C9",
"S 	c #B8DFC9",
"T 	c #7FC49D",
"U 	c #F19A9A",
"V 	c #EAA8A8",
"W 	c #EBA8A8",
"X 	c #F0D3D3",
"Y 	c #C2C6CA",
"Z 	c #BFC8CE",
"` 	c #B0BFCB",
" .	c #9FB3C8",
"..	c #A0B3C8",
"+.	c #9FB3C7",
"@.	c #BCC6CE",
"#.	c #BEC7CC",
"$.	c #B5C5C0",
"%.	c #BDE1CC",
"&.	c #BCE1CC",
"*.	c #C5DFD0",
"=.	c #EB7777",
"-.	c #F4DBDB",
";.	c #F5DDDD",
">.	c #F7ECEC",
",.	c #B3BBC0",
"'.	c #A9B6BE",
").	c #A7B5BE",
"!.	c #A6B4BD",
"~.	c #A5B4BD",
"{.	c #AAB6BD",
"].	c #C2C7CA",
"^.	c #EC8080",
"/.	c #D3D4D5",
"(.	c #C3C5C6",
"_.	c #C5C6C7",
":.	c #DCDCDD",
"<.	c #FCF2F2",
"[.	c #FCE7E7",
"}.	c #FBF0F0",
"|.	c #FFFCFC",
"1.	c #EC9696",
"2.	c #F13D3D",
"3.	c #EF4141",
"4.	c #E58484",
"5.	c #F8F8F8",
"6.	c #EF7676",
"7.	c #FDD3D3",
"8.	c #FFD4D4",
"9.	c #FEB9B9",
"0.	c #FEABAB",
"a.	c #FDE2E2",
"b.	c #F07474",
"c.	c #FF0000",
"d.	c #F90000",
"e.	c #E90000",
"f.	c #EE0000",
"g.	c #EF0000",
"h.	c #F10000",
"i.	c #FD0000",
"j.	c #FB0505",
"k.	c #E45A5A",
"l.	c #F3F3F3",
"m.	c #F2AFAF",
"n.	c #EEB7B7",
"o.	c #EFB8B8",
"p.	c #F18585",
"q.	c #EA5C5C",
"r.	c #EEC3C3",
"s.	c #EE7272",
"t.	c #C80000",
"u.	c #C60000",
"v.	c #CA0000",
"w.	c #CE0000",
"x.	c #FBF7F7",
"y.	c #F7F1F1",
"z.	c #F6DFDF",
"A.	c #F3D3D3",
"B.	c #F7EFEF",
"C.	c #EF7575",
"D.	c #FB0000",
"E.	c #EB0000",
"F.	c #EC0000",
"G.	c #E59797",
"H.	c #D93838",
"I.	c #D73B3B",
"J.	c #D17A7A",
"K.	c #F4F4F4",
". . . . . + @ # # # # # # # $ % & . . . . ",
". . . . . * = - ; > , ' ) - ! ~ { ] . . . ",
". . . . . * = - ^ / ( _ : ; < [ } | 1 2 3 ",
". . . . . * = - 4 5 5 6 7 ; < 8 9 0 a b c ",
". . . . . * d e e e e e e e f g h i & & j ",
". . . . . k l m m m m m m m n o & . . . p ",
". . . . . . q r r r r r r r s t . . . . p ",
". . . . . & u v w w x v y y z A B C C C D ",
"E F F F F G H I J K L M N O P Q R S S S T ",
"U V W W W X Y Z `  ...+...@.#.$.%.&.&.&.*.",
"=.-.;.;.;.>.,.'.).!.~.!.).'.{.].k . . . . ",
"^.& . . . k /.(.(.(.(.(.(.(._.:.. . . . . ",
"^.k . . . . <.[.[.[.[.[.[.[.[.}.k . . . . ",
"^.k . |.|.. 1.2.2.2.2.2.2.2.3.4.5.. . . . ",
"6.7.8.9.0.a.b.c.d.e.f.g.h.i.j.k.l.. . . . ",
"m.n.o.p.q.r.s.c.h.t.u.v.w.d.j.k.l.. . . . ",
"x.y.y.z.A.B.C.c.D.f.E.F.f.i.j.k.l.. . . . ",
". . . k . . G.H.H.H.H.H.H.H.I.J.K.. . . . "};
