/* XPM */
static char * link2_xpm[] = {
"26 26 369 2",
"  	c None",
". 	c #FEFEFE",
"+ 	c #FDFFFF",
"@ 	c #FCFFFE",
"# 	c #FDFBF9",
"$ 	c #FDFAF9",
"% 	c #FDFBF8",
"& 	c #FCFAF9",
"* 	c #FDFAFA",
"= 	c #FDFAFB",
"- 	c #FDFBFB",
"; 	c #FEFFFF",
"> 	c #FFFFFF",
", 	c #FFFEFE",
"' 	c #FCFCFB",
") 	c #FBE8E1",
"! 	c #FCDDD3",
"~ 	c #FDDAD1",
"{ 	c #FEDBD1",
"] 	c #FEDCD1",
"^ 	c #FDDDD2",
"/ 	c #FDDDD4",
"( 	c #FDDED5",
"_ 	c #FCDED6",
": 	c #FDDED6",
"< 	c #FDDFD5",
"[ 	c #FDDED4",
"} 	c #FDDCD4",
"| 	c #FDDBD3",
"1 	c #FDDBD2",
"2 	c #FEDAD1",
"3 	c #FCEAE4",
"4 	c #FEFEFC",
"5 	c #FCF8F6",
"6 	c #F8D0C4",
"7 	c #F99177",
"8 	c #FC8263",
"9 	c #FE8265",
"0 	c #FF8465",
"a 	c #FE8566",
"b 	c #FE8668",
"c 	c #FD876A",
"d 	c #FD896C",
"e 	c #FD8A6D",
"f 	c #FD8B6E",
"g 	c #FD8B6D",
"h 	c #FD8A6E",
"i 	c #FC8A6C",
"j 	c #FD886B",
"k 	c #FE8669",
"l 	c #FE8567",
"m 	c #FE8467",
"n 	c #FE8365",
"o 	c #FF8263",
"p 	c #FC8363",
"q 	c #F9967D",
"r 	c #F9D6CB",
"s 	c #F7D3C7",
"t 	c #F26442",
"u 	c #FF3003",
"v 	c #FD3609",
"w 	c #FE360A",
"x 	c #FE3609",
"y 	c #FE3608",
"z 	c #FE3508",
"A 	c #FE3408",
"B 	c #FD3407",
"C 	c #FD3507",
"D 	c #FD3406",
"E 	c #FE3407",
"F 	c #FD3001",
"G 	c #F27252",
"H 	c #F9DAD2",
"I 	c #FBFBF8",
"J 	c #F8AD9A",
"K 	c #F52600",
"L 	c #FF2B00",
"M 	c #FE2D00",
"N 	c #FE2E00",
"O 	c #FD2E02",
"P 	c #FC3005",
"Q 	c #F7340A",
"R 	c #F23911",
"S 	c #F63509",
"T 	c #FC3004",
"U 	c #FD2E01",
"V 	c #FF2D00",
"W 	c #FF2C00",
"X 	c #FE2C00",
"Y 	c #F52E02",
"Z 	c #F9B7A6",
"` 	c #F8E7DF",
" .	c #F99E88",
"..	c #FC2200",
"+.	c #FF2D01",
"@.	c #FC2A00",
"#.	c #F6502C",
"$.	c #F4AB96",
"%.	c #FBE2D8",
"&.	c #FDE7DC",
"*.	c #FBE1D7",
"=.	c #F4AA95",
"-.	c #F6502A",
";.	c #FC2B00",
">.	c #FE2D01",
",.	c #F72400",
"'.	c #F9AA96",
").	c #F8E4DC",
"!.	c #F99E86",
"~.	c #FB2400",
"{.	c #FB2600",
"].	c #F87252",
"^.	c #F6C3B2",
"/.	c #F29881",
"(.	c #F45A36",
"_.	c #F74F28",
":.	c #F45A37",
"<.	c #F29A82",
"[.	c #F6C2B1",
"}.	c #F87150",
"|.	c #F62500",
"1.	c #F9AA95",
"2.	c #F7E4DC",
"3.	c #F89F88",
"4.	c #FB2700",
"5.	c #FF2700",
"6.	c #F95A37",
"7.	c #F4A089",
"8.	c #F5967C",
"9.	c #FA4018",
"0.	c #FB2C00",
"a.	c #FC2900",
"b.	c #F94018",
"c.	c #F6967E",
"d.	c #F3A089",
"e.	c #F75A36",
"f.	c #FE2800",
"g.	c #F52800",
"h.	c #F8AB96",
"i.	c #F7E4DD",
"j.	c #F8A18B",
"k.	c #FB2B00",
"l.	c #F99278",
"m.	c #F6A48D",
"n.	c #F7431A",
"o.	c #FF2500",
"p.	c #F7441C",
"q.	c #F5A48E",
"r.	c #F89177",
"s.	c #FB2300",
"t.	c #F42C00",
"u.	c #F8AD98",
"v.	c #F7E3DD",
"w.	c #F7A38D",
"x.	c #F92F00",
"y.	c #F92B00",
"z.	c #F8A48D",
"A.	c #F9947A",
"B.	c #FB2000",
"C.	c #FA2000",
"D.	c #F8957B",
"E.	c #F7A48C",
"F.	c #F82A00",
"G.	c #F23001",
"H.	c #F7AF9A",
"I.	c #F7E2DB",
"J.	c #F6A48F",
"K.	c #F83304",
"L.	c #F73207",
"M.	c #F59C84",
"N.	c #F8876B",
"O.	c #FB1E00",
"P.	c #FB2900",
"Q.	c #FA1D00",
"R.	c #F7896D",
"S.	c #F49D84",
"T.	c #F63105",
"U.	c #F13305",
"V.	c #F7B19D",
"W.	c #F6A691",
"X.	c #F73608",
"Y.	c #FD2A00",
"Z.	c #F45029",
"`.	c #F5B29E",
" +	c #F7A48E",
".+	c #F65330",
"++	c #F75B39",
"@+	c #F75C3A",
"#+	c #F75C39",
"$+	c #F5532F",
"%+	c #F7A58F",
"&+	c #F5B09B",
"*+	c #F64B24",
"=+	c #FF2A00",
"-+	c #F03609",
";+	c #F6B29F",
">+	c #F5A792",
",+	c #F5380C",
"'+	c #F92400",
")+	c #FAB3A1",
"!+	c #FCFEFA",
"~+	c #FEFFFD",
"{+	c #FDFFFC",
"]+	c #FCFCF8",
"^+	c #FCFFFC",
"/+	c #FAF6F2",
"(+	c #F5A58F",
"_+	c #FC2400",
":+	c #EE390C",
"<+	c #F5B3A0",
"[+	c #F8E3DA",
"}+	c #F6A892",
"|+	c #F6390D",
"1+	c #FBC0B0",
"2+	c #FAEFE9",
"3+	c #F3C9BB",
"4+	c #FAF2EE",
"5+	c #FEFEFD",
"6+	c #FCFDFB",
"7+	c #F8B1A0",
"8+	c #EE3A0E",
"9+	c #F5B4A1",
"0+	c #F6A791",
"a+	c #F73809",
"b+	c #FAE9E3",
"c+	c #F17457",
"d+	c #FC3A11",
"e+	c #F2866B",
"f+	c #FCEDE9",
"g+	c #F7B1A0",
"h+	c #EE390A",
"i+	c #F5B39F",
"j+	c #F6A58F",
"k+	c #F73506",
"l+	c #F72500",
"m+	c #FBE7E1",
"n+	c #F26C4C",
"o+	c #FD2B00",
"p+	c #F27F5F",
"q+	c #FCECE7",
"r+	c #F03507",
"s+	c #F6B19D",
"t+	c #F7E3DC",
"u+	c #F7A48D",
"v+	c #FA3101",
"w+	c #FCF0ED",
"x+	c #F59980",
"y+	c #F6AA96",
"z+	c #FDF5F2",
"A+	c #F7B19F",
"B+	c #F23103",
"C+	c #F7AF9B",
"D+	c #F8A28B",
"E+	c #FB2D00",
"F+	c #FBEAE6",
"G+	c #F17A5D",
"H+	c #F92300",
"I+	c #F08E72",
"J+	c #FCEFEB",
"K+	c #F42D00",
"L+	c #F8AD99",
"M+	c #F8A089",
"N+	c #FBEDE8",
"O+	c #F1957E",
"P+	c #F77A5E",
"Q+	c #F0A28B",
"R+	c #FBF0EC",
"S+	c #FF2C01",
"T+	c #F42900",
"U+	c #F8AC97",
"V+	c #F89E88",
"W+	c #FBC2B3",
"X+	c #FAFDFA",
"Y+	c #FAFFFD",
"Z+	c #FBFDFC",
"`+	c #FCFFFF",
" @	c #F7B3A2",
".@	c #F89D86",
"+@	c #FBB3A1",
"@@	c #FEF6F2",
"#@	c #FEF3F0",
"$@	c #FDF2EE",
"%@	c #FEF3EF",
"&@	c #FCF3F0",
"*@	c #FEF2EF",
"=@	c #FDF4F1",
"-@	c #F7A691",
";@	c #FB2500",
">@	c #F72300",
",@	c #F9A994",
"'@	c #F7E6DF",
")@	c #F76542",
"!@	c #F58E72",
"~@	c #F6957B",
"{@	c #F69379",
"]@	c #F69479",
"^@	c #F6967C",
"/@	c #F58A6E",
"(@	c #F75E3A",
"_@	c #FE2900",
":@	c #FF2E00",
"<@	c #F62200",
"[@	c #F9A995",
"}@	c #FBF8F6",
"|@	c #F8AB99",
"1@	c #F52500",
"2@	c #FD2D00",
"3@	c #FE2C01",
"4@	c #FE2F02",
"5@	c #FF2F03",
"6@	c #FF2F04",
"7@	c #FE2F04",
"8@	c #FE2F03",
"9@	c #FE2E04",
"0@	c #FE2E02",
"a@	c #F42B00",
"b@	c #F7B5A4",
"c@	c #F5CDC2",
"d@	c #EA5431",
"e@	c #F62400",
"f@	c #F62B01",
"g@	c #F52C00",
"h@	c #F52A00",
"i@	c #F62A00",
"j@	c #F62900",
"k@	c #F52900",
"l@	c #F62B00",
"m@	c #F62C00",
"n@	c #F42300",
"o@	c #EA6443",
"p@	c #F7D5CC",
"q@	c #FCF7F5",
"r@	c #EFBBAD",
"s@	c #D84A28",
"t@	c #D41C00",
"u@	c #D81E00",
"v@	c #D91E00",
"w@	c #D92000",
"x@	c #DA2200",
"y@	c #DB2500",
"z@	c #DC2900",
"A@	c #DB2B00",
"B@	c #DA2A00",
"C@	c #DC2700",
"D@	c #DB2300",
"E@	c #DA2000",
"F@	c #DA1E00",
"G@	c #D11E00",
"H@	c #DA5433",
"I@	c #F1C5B7",
"J@	c #FDFAF8",
"K@	c #FBF7F4",
"L@	c #EDC7BB",
"M@	c #E39D8B",
"N@	c #DE8B76",
"O@	c #DD8A74",
"P@	c #DD8B74",
"Q@	c #DE8C75",
"R@	c #DF8E77",
"S@	c #DF8F79",
"T@	c #DE917A",
"U@	c #DE907A",
"V@	c #DF8E78",
"W@	c #DF8D76",
"X@	c #DE8A75",
"Y@	c #DD8A75",
"Z@	c #DD8C76",
"`@	c #E3A18E",
" #	c #EFCCC3",
". . + + @ # $ # % # # $ & $ $ # # # * * = - ; ; ; > ",
", ; ' ) ! ~ { ] ^ / ( ( _ : : < [ } | | 1 2 [ 3 4 > ",
"> 5 6 7 8 9 0 a b c d e f g h i j k l m n o p q r $ ",
"; s t u v w w x y y z A B C D E z y x w w w w F G H ",
"I J K L M M M M M N O P Q R S T U M V M M M W X Y Z ",
"`  ...+.V V V N M @.#.$.%.&.*.=.-.;.V M >.V M V ,.'.",
").!.~.+.V V V +.{.].^./.(._.:.<.[.}.{.>.V V V V |.1.",
"2.3.4.V V V V 5.6.7.8.9.0.a.0.b.c.d.e.f.+.V V V g.h.",
"i.j.k.W V V V ~.l.m.n.o.W V W o.p.q.r.s.+.N N V t.u.",
"v.w.x.W V V W y.z.A.B.W W W W W C.D.E.F.X N N V G.H.",
"I.J.K.W V V W L.M.N.O.a.a.a.a.P.Q.R.S.T.W V N W U.V.",
"I.W.X.W V M Y.Z.`. +.+++@+@+#+++$+%+&+*+=+V V V -+;+",
"I.>+,+L V >.'+)+!++ ~+{+{+]+{+{+^+; /+(+_+V V X :+<+",
"[+}+|+L V V |.1+> > > 4 2+3+4+5+> > 6+7+s.V V X 8+9+",
"[+0+a+L V V |.1+> > > b+c+d+e+f+> > 6+g+s.V V X h+i+",
"I.j+k+V N V l+1+> > > m+n+o+p+q+> > 6+g+s.V N X r+s+",
"t+u+v+W V V l+1+> > > w+x+U y+z+> > 6+A+s.V V +.B+C+",
"2.D+E+W V V l+1+> > > F+G+H+I+J+> > 6+g+s.V V +.K+L+",
"i.M+P.W V V l+1+> > > N+O+P+Q+R+> > 6+g+s.V V S+T+U+",
"t+V+{.V V V l+W+> > > ; X+Y+Z+> > > `+ @~.V M V K 1.",
"t+.@_+V V M l++@@@#@$@$@%@&@%@*@*@=@2+-@;@N N N >@,@",
"'@V+..V V M a.)@!@~@{@{@]@]@]@{@{@^@/@(@_@V V :@<@[@",
"}@|@1@V V 2@3@O 4@5@6@7@7@8@7@5@5@7@9@0@+.V +.W a@b@",
"; c@d@e@f@g@g@g@a@a@h@i@j@k@h@h@i@l@l@g@m@g@l@n@o@p@",
"; q@r@s@t@u@u@v@w@x@y@z@A@B@C@D@E@F@v@u@v@u@G@H@I@J@",
"> > K@L@M@N@O@O@P@Q@R@S@T@U@V@W@Q@X@Y@Y@O@Z@`@ #5 > "};
