/* XPM */
static const char * loadObject_xpm[] = {
"16 16 22 1",
" 	c None",
".	c #80A0C0",
"+	c #4060C0",
"@	c #6080C0",
"#	c #4080C0",
"$	c #2060C0",
"%	c #A6CAF0",
"&	c #60A0C0",
"*	c #000000",
"=	c #FFFFFF",
"-	c #FF7E25",
";	c #FF7923",
">	c #6BFF6B",
",	c #6DFF6D",
"'	c #FF7723",
")	c #FF7A25",
"!	c #FFFC00",
"~	c #FFFB00",
"{	c #FF7125",
"]	c #FFFF00",
"^	c #FFFBF0",
"/	c #FCEE00",
"    .+@###+$.   ",
"    .%%%%%.#&@  ",
"**********%#=%@ ",
"*-;**>>>,*%#==%@",
"*;*'*>>>>*%##@##",
"**';***>>*%%%%.#",
"*')*!~**>*%%%%%#",
"**{*]~~***=%%%%#",
" ***~~~~*==^%%%#",
"   *~~/~*==^^%%@",
"   ******===^^%@",
"    .========^^@",
"    .=========^@",
"    .==========.",
"    ............",
"                "};
