/* XPM */ 
static const char * loadobjectxml_xpm[] = {
"16 16 23 1",
" 	c None",
"!	c black",
"#	c #80A0C0",
"$	c #4060C0",
"%	c #6080C0",
"&	c #4080C0",
"'	c #2060C0",
"(	c #60A0C0",
")	c #FF7E25",
"*	c #FF7923",
"+	c #6BFF6B",
",	c #6DFF6D",
"-	c #A6CAF0",
".	c white",
"0	c #FF7723",
"1	c #FF7A25",
"2	c #FFFC00",
"3	c #FFFB00",
"4	c #FF7125",
"5	c #FFFF00",
"6	c #FCEE00",
"7	c #FFFBF0",
"8	c #FF0000",
"    #$%&&&$'#   ",
"!!!!!!!!!!#&(%  ",
"!)*!!+++,!-&.-% ",
"!*!0!++++!-&..-%",
"!!0*!!!++!-&&%&&",
"!01!23!!+!----#&",
"!!4!533!!!-----&",
" !!!3333!..----&",
"   !3363!..7---&",
"   !!!!!!..77--%",
" 8  #8.8...878-%",
"  8 8..88.88.87%",
"   8#..8.8.8.87%",
"  8 8..8...8.8.#",
" 8  #8#8###8#888",
"                "};