/* XPM */ 
static const char * loadworldxml_xpm[] = {
"16 16 45 1",
" 	c None",
"!	c black",
"#	c #80A0C0",
"$	c #4060C0",
"%	c #6080C0",
"&	c #4080C0",
"'	c #2060C0",
"(	c #A6CAF0",
")	c #60A0C0",
"*	c #71A5D9",
"+	c #A0D6B3",
",	c #CBF7B2",
"-	c #99D3B4",
".	c #628DEF",
"0	c white",
"1	c #70A1DC",
"2	c #72A2DC",
"3	c #76A6D5",
"4	c #C6F3B4",
"5	c #88B5CB",
"6	c #C6F4B4",
"7	c #C8F5B2",
"8	c #89C2BE",
"9	c #A9E3B0",
":	c #6692EA",
";	c #8CBEC3",
"<	c #BBEEB4",
"=	c #7CA7D3",
">	c #C5F3B4",
"?	c #8CC2C4",
"@	c #4978F9",
"A	c #AEE1B1",
"B	c #85B8CE",
"C	c #7BB0D4",
"D	c #5E88F2",
"E	c #CAF9AF",
"F	c #CAF7B3",
"G	c #B0E0B8",
"H	c #D4FFB0",
"I	c #698FF3",
"J	c #FFFBF0",
"K	c #608DEF",
"L	c #8FC8BF",
"M	c #5C87F1",
"N	c #FF0000",
"   #$%&&&$'#    ",
"  !!!!!(((&)%   ",
" !*+,-.!((&0(%  ",
"!12345..!(&00(% ",
"!6789:;<.!&&%&& ",
"!=>?..@A.!(((#& ",
"!.BCD.EF.!((((& ",
"!..GH..I!J((((& ",
" !KLM..!00J(((& ",
"  !!!!!000JJ((% ",
" N #0N0N000NJN% ",
"  N#N00NN0NN0N% ",
"   N000N0N0N0N% ",
"  N#N00N000N0N# ",
" N ##N#N###N#NNN",
"                "};