/* XPM */
static const char * loadWorld_xpm[] = {
"16 16 44 1",
" 	c None",
".	c #80A0C0",
"+	c #4060C0",
"@	c #6080C0",
"#	c #4080C0",
"$	c #2060C0",
"%	c #A6CAF0",
"&	c #60A0C0",
"*	c #000000",
"=	c #FFFFFF",
"-	c #71A5D9",
";	c #A0D6B3",
">	c #CBF7B2",
",	c #99D3B4",
"'	c #628DEF",
")	c #70A1DC",
"!	c #72A2DC",
"~	c #76A6D5",
"{	c #C6F3B4",
"]	c #88B5CB",
"^	c #C6F4B4",
"/	c #C8F5B2",
"(	c #89C2BE",
"_	c #A9E3B0",
":	c #6692EA",
"<	c #8CBEC3",
"[	c #BBEEB4",
"}	c #7CA7D3",
"|	c #C5F3B4",
"1	c #8CC2C4",
"2	c #4978F9",
"3	c #AEE1B1",
"4	c #85B8CE",
"5	c #7BB0D4",
"6	c #5E88F2",
"7	c #CAF9AF",
"8	c #CAF7B3",
"9	c #B0E0B8",
"0	c #D4FFB0",
"a	c #698FF3",
"b	c #FFFBF0",
"c	c #608DEF",
"d	c #8FC8BF",
"e	c #5C87F1",
"   .+@###+$.    ",
"   .%%%%%.#&@   ",
"  *****%%%#=%@  ",
" *-;>,'*%%#==%@ ",
"*)!~{]''*%##@## ",
"*^/(_:<['*%%%.# ",
"*}|1''23'*%%%%# ",
"*'456'78'*%%%%# ",
"*''90''a*bb%%%# ",
" *cde''*==bb%%@ ",
"  *****====bb%@ ",
"   .========bb@ ",
"   .=========b@ ",
"   .==========. ",
"   ............ ",
"                "};
