/* XPM */
static const char * mainLWorld_xpm[] = {
"32 32 64 1",
" 	c None",
".	c #0378FC",
"+	c #1C76DC",
"@	c #0377FA",
"#	c #0578FA",
"$	c #1B73D7",
"%	c #0577F7",
"&	c #0378FB",
"*	c #0478FA",
"=	c #0477FA",
"-	c #0978F4",
";	c #1074E4",
">	c #0578F9",
",	c #0576F6",
"'	c #0E7DFA",
")	c #0878F6",
"!	c #0574F1",
"~	c #1478E9",
"{	c #1470D6",
"]	c #0577F8",
"^	c #0974ED",
"/	c #0478FB",
"(	c #0579FC",
"_	c #0672EB",
":	c #1778E5",
"<	c #2274D1",
"[	c #0A77F1",
"}	c #0775F3",
"|	c #0575F3",
"1	c #0777F5",
"2	c #1A74DA",
"3	c #0C72E3",
"4	c #0C72E4",
"5	c #0A73E9",
"6	c #0576F5",
"7	c #5E5E5E",
"8	c #0775F1",
"9	c #6B6B6B",
"0	c #494949",
"a	c #545454",
"b	c #555555",
"c	c #595959",
"d	c #565656",
"e	c #0B71E4",
"f	c #0477F9",
"g	c #525252",
"h	c #5B5B5B",
"i	c #6E6E6E",
"j	c #404040",
"k	c #585858",
"l	c #2378D8",
"m	c #0575F5",
"n	c #505050",
"o	c #5A5A5A",
"p	c #414141",
"q	c #7A7A7A",
"r	c #575757",
"s	c #9E9E9E",
"t	c #666666",
"u	c #737373",
"v	c #757575",
"w	c #767676",
"x	c #777777",
"y	c #6C6C6C",
"                                ",
"                                ",
"                 .              ",
"                 ..             ",
"               +@.#             ",
"              $%&*=-            ",
"             ;>.,')!~           ",
"            {]. ^/( _:          ",
"           <[.  }/.  |1         ",
"           2.   %/.   @         ",
"                3&.             ",
"                4..             ",
"                5&.             ",
"                6&.             ",
"           7    8..             ",
"       90abbcd  e/f cbbghd      ",
"      ijkdd     lm  dddcnod     ",
"     ipc                qnrd    ",
"    ddoc  dd            sdddd   ",
"   dddddddddd       addddddddd  ",
"   ddddddddddtuvwxxydddddddddd  ",
"   ddd    ddddddddddddddd  ddd  ",
"   ddd    dddddddddddd     ddd  ",
"   ddd     dddddddddd      ddd  ",
"   ddd                     ddd  ",
"   ddddddddddddddddddddddddddd  ",
"   ddddddddddddddddddddddddddd  ",
"    ddddddddddddddddddddddddd   ",
"                                ",
"                                ",
"                                ",
"                                "};
