/* XPM */
static const char * mainLxml_xpm[] = {
"32 32 192 2",
"  	c None",
". 	c #FFA366",
"+ 	c #FF7B7B",
"@ 	c #FFBDFF",
"# 	c #5CC2FF",
"$ 	c #7AB8FF",
"% 	c #66AEFA",
"& 	c #75C1FF",
"* 	c #FFFFFF",
"= 	c #FFFF8C",
"- 	c #FFFF85",
"; 	c #FFD692",
"> 	c #FFEF7B",
", 	c #B8D9FF",
"' 	c #79A8E7",
") 	c #1878E9",
"! 	c #1073EB",
"~ 	c #4E98F7",
"{ 	c #6AC3FF",
"] 	c #73C6FF",
"^ 	c #2974DA",
"/ 	c #0076FF",
"( 	c #0070FF",
"_ 	c #167CF8",
": 	c #77BFFF",
"< 	c #5BA6FF",
"[ 	c #77C0FF",
"} 	c #257CD9",
"| 	c #0973FA",
"1 	c #067CFA",
"2 	c #027DFF",
"3 	c #0072EE",
"4 	c #3D96F0",
"5 	c #73B2F5",
"6 	c #6CCDFF",
"7 	c #79BEFF",
"8 	c #136DDD",
"9 	c #0878FE",
"0 	c #0378F9",
"a 	c #0E75EC",
"b 	c #0F83F2",
"c 	c #027EF8",
"d 	c #0774F5",
"e 	c #5499F4",
"f 	c #71C7FF",
"g 	c #7AB0D4",
"h 	c #2173C5",
"i 	c #0E73F7",
"j 	c #2389FF",
"k 	c #3A9DFB",
"l 	c #0871F1",
"m 	c #0D7FF2",
"n 	c #188EFF",
"o 	c #0673FF",
"p 	c #0B69ED",
"q 	c #5FA7F9",
"r 	c #77BDFA",
"s 	c #6AFEFF",
"t 	c #70A7DD",
"u 	c #3F7CBB",
"v 	c #136BCD",
"w 	c #4898F9",
"x 	c #74B9FF",
"y 	c #74B6F2",
"z 	c #057AFE",
"A 	c #0D7BF4",
"B 	c #3F9AFF",
"C 	c #4E9DFF",
"D 	c #1371E5",
"E 	c #0B6FE7",
"F 	c #4F95EA",
"G 	c #77ACFF",
"H 	c #61F3FF",
"I 	c #6EB7FF",
"J 	c #398FF6",
"K 	c #73BEFF",
"L 	c #4BF7FF",
"M 	c #739CBE",
"N 	c #007CF5",
"O 	c #1077ED",
"P 	c #6EADFA",
"Q 	c #86D3FF",
"R 	c #6EBBFF",
"S 	c #228BFF",
"T 	c #77BAFF",
"U 	c #60ACF9",
"V 	c #6E8BC3",
"W 	c #C43D79",
"X 	c #6E99DD",
"Y 	c #0870E3",
"Z 	c #0A74FC",
"` 	c #71B4FF",
" .	c #8CF0FF",
"..	c #8DBDFF",
"+.	c #74A8E9",
"@.	c #74A9BB",
"#.	c #7CFEFF",
"$.	c #6EA2E8",
"%.	c #137BEA",
"&.	c #0A73F3",
"*.	c #6BABF5",
"=.	c #92E0FF",
"-.	c #98FFFF",
";.	c #92ECFF",
">.	c #72AEEF",
",.	c #0472E3",
"'.	c #0573F0",
").	c #73B4F6",
"!.	c #70E2FF",
"~.	c #74B1ED",
"{.	c #067DFD",
"].	c #0379FD",
"^.	c #6FB6F8",
"/.	c #6CD2FF",
"(.	c #75B1E2",
"_.	c #006EF6",
":.	c #057EFF",
"<.	c #75C0FF",
"[.	c #66BBE7",
"}.	c #75AFE4",
"|.	c #1671E3",
"1.	c #1175E7",
"2.	c #70B0EE",
"3.	c #78ACC9",
"4.	c #74C4FF",
"5.	c #6290CE",
"6.	c #6CA8F0",
"7.	c #79C6FF",
"8.	c #FFCF72",
"9.	c #79E3FF",
"0.	c #79FFFF",
"a.	c #FFFF77",
"b.	c #7D7D7D",
"c.	c #575757",
"d.	c #656565",
"e.	c #747474",
"f.	c #757575",
"g.	c #505050",
"h.	c #595959",
"i.	c #767676",
"j.	c #636363",
"k.	c #5F5F5F",
"l.	c #7B7B7B",
"m.	c #6D6D6D",
"n.	c #5C5C5C",
"o.	c #7C7C7C",
"p.	c #7A7A7C",
"q.	c #5D5D5D",
"r.	c #777777",
"s.	c #525252",
"t.	c #696969",
"u.	c #4D4D4D",
"v.	c #555555",
"w.	c #7E7E7E",
"x.	c #7A7A7A",
"y.	c #4E4E4E",
"z.	c #717175",
"A.	c #606060",
"B.	c #727272",
"C.	c #585858",
"D.	c #666666",
"E.	c #7E7E7F",
"F.	c #7C7C7D",
"G.	c #888888",
"H.	c #565656",
"I.	c #737373",
"J.	c #797979",
"K.	c #6F6F6F",
"L.	c #6C6C6C",
"M.	c #353535",
"N.	c #CCCCCC",
"O.	c #707070",
"P.	c #5E5E5E",
"Q.	c #E9E9E9",
"R.	c #5A5A5A",
"S.	c #616161",
"T.	c #828282",
"U.	c #787878",
"V.	c #545454",
"W.	c #646464",
"X.	c #C0C0C0",
"Y.	c #FCFCFC",
"Z.	c #6B6B6B",
"`.	c #6E6E6E",
" +	c #6A6A6A",
".+	c #E5E5E5",
"++	c #686868",
"@+	c #F3F3F3",
"#+	c #7F7F7F",
"$+	c #434343",
"%+	c #5B5B5B",
"&+	c #515151",
"                  .       + @ # $ % & * = -   ;         * * * * ",
"                          > , ' ) ! ~ {                         ",
"                            ] ^ / ( _ :                         ",
"                        < [ } | 1 2 3 4 5   =                   ",
"                      6 7 8 9 0 a b c d e f                     ",
"                      g h i j k l m n o p q r s                 ",
"                    t u v w x y z A B C D E F G                 ",
"                    H I J K L M N O P Q R S C T                 ",
"                      U V W   X Y Z `  ...+.@.#.                ",
"                              $.%.&.*.=.  -.;.                  ",
"                              >.,.'.).                          ",
"                            !.~.{.].^.                          ",
"                            /.(._.:.<.[.                        ",
"                              }.|.1.2.3.                        ",
"                              4.5.6.7.                          ",
"                          8.    9.0.  a.                        ",
"                                                                ",
"      b.c.d.      e.f.    g.h.          i.j.i.    k.l.          ",
"      m.n.o.    p.q.r.  e.c.s.t.        h.u.r.    v.w.          ",
"        x.y.z.  j.l.    x.h.A.i.      B.q.c.r.    C.w.          ",
"          D.E.F.s.A.    l.g.b.C.      f.G.q.r.    H.l.          ",
"          I.v.s.J.      o.c.K.s.L.  M.s.N.O.r.    n.x.          ",
"            j.v.t.      O.v.P.m.i.  I.h.Q.e.r.    C.x.          ",
"          f.R.S.l.      l.s.  b.s.  i.T.* i.U.    V.x.          ",
"          W.U.w.h.l.    l.q.  D.H.L.H.X.Y.i.r.    H.x.          ",
"        U.W.    Z.`.    o. +    m.O.W..+* b.f.    h.x.          ",
"      ++h.w.    r.c.o.  o.t.    x.y.r.* @+x.t.    V.x.r.U.f.f.  ",
"      J.h.        #+j.$+o.o.    j.h.I.    x.C.    %+&+n.v.s.D.  ",
"            w.                                                  ",
"                                                                ",
"                                                                ",
"                                                                "};
