/* XPM */
static char * mainLxml_xpm[] = {
"32 32 193 2",
"  	c None",
". 	c #4BC8E6",
"+ 	c #4AC8E6",
"@ 	c #36C8EB",
"# 	c #47C8E6",
"$ 	c #48C7E7",
"% 	c #64C9E1",
"& 	c #80C9DB",
"* 	c #76C9DE",
"= 	c #CCCCCC",
"- 	c #4EC8E4",
"; 	c #9CCBD6",
"> 	c #51C8E5",
", 	c #B8CBD0",
"' 	c #45C8E6",
") 	c #93CAD8",
"! 	c #858787",
"~ 	c #919192",
"{ 	c #3DC8E9",
"] 	c #AFCBD1",
"^ 	c #C1C1C1",
"/ 	c #9E9F9F",
"( 	c #9E9E9F",
"_ 	c #A9A9AA",
": 	c #575959",
"< 	c #131416",
"[ 	c #131516",
"} 	c #878787",
"| 	c #4C4E4F",
"1 	c #131518",
"2 	c #141618",
"3 	c #A9AAAA",
"4 	c #58595B",
"5 	c #1D1F21",
"6 	c #1C1E21",
"7 	c #9D9E9F",
"8 	c #4C4D4F",
"9 	c #14171A",
"0 	c #575B5C",
"a 	c #A9AAAB",
"b 	c #36393B",
"c 	c #1D2024",
"d 	c #929394",
"e 	c #414345",
"f 	c #414446",
"g 	c #878788",
"h 	c #14181B",
"i 	c #585A5D",
"j 	c #57595C",
"k 	c #3EC8E9",
"l 	c #15191C",
"m 	c #1D2126",
"n 	c #414447",
"o 	c #1E2226",
"p 	c #14181C",
"q 	c #4BC8E7",
"r 	c #C2CCCE",
"s 	c #7C7E80",
"t 	c #151A1E",
"u 	c #414548",
"v 	c #424549",
"w 	c #161A1F",
"x 	c #50C7E5",
"y 	c #4E5155",
"z 	c #363B3F",
"A 	c #42464A",
"B 	c #6DC8DE",
"C 	c #20272C",
"D 	c #595E60",
"E 	c #43474B",
"F 	c #43474C",
"G 	c #595E61",
"H 	c #21272B",
"I 	c #A5CAD3",
"J 	c #55C8E4",
"K 	c #B6B6B7",
"L 	c #171E24",
"M 	c #888B8D",
"N 	c #44484D",
"O 	c #43484D",
"P 	c #878B8D",
"Q 	c #181E24",
"R 	c #B5B6B7",
"S 	c #4AC7E6",
"T 	c #888B8E",
"U 	c #192027",
"V 	c #44494E",
"W 	c #444A4F",
"X 	c #B6B7B7",
"Y 	c #181F26",
"Z 	c #5AC8E3",
"` 	c #3CC8E9",
" .	c #5B6065",
"..	c #20292E",
"+.	c #444A50",
"@.	c #1F2830",
"#.	c #53C8E4",
"$.	c #2E353C",
"%.	c #1B2630",
"&.	c #1C2731",
"*.	c #72787D",
"=.	c #666C6F",
"-.	c #666C70",
";.	c #73787D",
">.	c #2F373E",
",.	c #C1C2C2",
"'.	c #1A242D",
").	c #4C545C",
"!.	c #73797E",
"~.	c #475058",
"{.	c #323C45",
"].	c #26303C",
"^.	c #1A232C",
"/.	c #44C7E8",
"(.	c #94979A",
"_.	c #1B252E",
":.	c #95989C",
"<.	c #1D2934",
"[.	c #48515A",
"}.	c #1D2935",
"|.	c #8A8E93",
"1.	c #1B252F",
"2.	c #C1C2C3",
"3.	c #535C65",
"4.	c #48525B",
"5.	c #46C7E6",
"6.	c #48C8E6",
"7.	c #303B44",
"8.	c #313B44",
"9.	c #73797F",
"0.	c #475059",
"a.	c #3B444D",
"b.	c #A0A3A5",
"c.	c #8A8E91",
"d.	c #3B454D",
"e.	c #525961",
"f.	c #94989B",
"g.	c #5C636A",
"h.	c #7F8488",
"i.	c #747A80",
"j.	c #7F8489",
"k.	c #323C46",
"l.	c #27333C",
"m.	c #535B62",
"n.	c #686F75",
"o.	c #747B81",
"p.	c #49535C",
"q.	c #1E2A36",
"r.	c #3C4751",
"s.	c #28323D",
"t.	c #737A80",
"u.	c #47515A",
"v.	c #48535C",
"w.	c #757C82",
"x.	c #49535E",
"y.	c #5E666F",
"z.	c #29353F",
"A.	c #95999D",
"B.	c #1F2C38",
"C.	c #687077",
"D.	c #48525C",
"E.	c #80868C",
"F.	c #A1A4A7",
"G.	c #4A545E",
"H.	c #747B82",
"I.	c #65C9E1",
"J.	c #6E8A95",
"K.	c #4A555F",
"L.	c #B6B8BA",
"M.	c #535C66",
"N.	c #697178",
"O.	c #A0A4A7",
"P.	c #ABAEB0",
"Q.	c #687078",
"R.	c #49535D",
"S.	c #4A545F",
"T.	c #5E8B99",
"U.	c #3CBDDD",
"V.	c #4B5C68",
"W.	c #495D67",
"X.	c #47AAC5",
"Y.	c #293948",
"Z.	c #213241",
"`.	c #213141",
" +	c #293A48",
".+	c #4CC8E5",
"++	c #758C97",
"@+	c #767E86",
"#+	c #5F8B9B",
"$+	c #81CADB",
"%+	c #9CCAD5",
"&+	c #6DC9DE",
"*+	c #51C8E4",
"                        . + @ @ @ @ + .                         ",
"                  . # @ $ % & & & & % $ * =                     ",
"              - @ @ % ; = = = = = = = = = = = =                 ",
"            > @ * , = = = = = = = = = = = = = = = =             ",
"          ' @ ) = = = = = = = ! ~ = = = = = = = = = =           ",
"        ' { ] ^ / ( _ = = = : < [ } = = = _ / ( ^ = = =         ",
"      > { , = | 1 2 1 3 ^ 4 1 5 6 2 4 = 7 2 1 2 8 = = = =       ",
"      @ ; = = 9 0 ( a ^ b c d e f g h i = 3 / j h = = = ;       ",
"    k % = = a l d = = a m a = n n = d o a = = d p a = = & k     ",
"  q { r = = s t ^ = = = = = = u v = = = = = = ^ w s = = , @ x   ",
"  # * = = = y z = = = = = = = A A = = = = = = = z y = = = B #   ",
"  @ ; = = = C D = = = = = = = E F = = = = = = = G H = = = I @   ",
"J @ = = = K L M = = = = = = = N O = = = = = = = P Q R = = = { x ",
"S % = = = T U K = = = = = = = V W = = = = = = = X Y T = = = Z > ",
"` & = = =  ...= = = = = = = = +.+.= = = = = = = = @. .= = = B #.",
"@ & = = = $.%.&.%.&.%.&.*.= = =.-.= = ;.%.&.%.&.%.&.>.= = = & @ ",
"@ & = = ,.'.).!.!.!.!.~.{.= = = = = = ].~.!.!.!.!.).^.,.= = & @ ",
"/.& = = (._.= = = = = :.<.[.[.[.[.[.[.}.|.= = = = = 1.(.= = & ` ",
"S % = = *.&.= = = = = 2.3.4.4.4.4.4.4.3.2.= = = = = %.;.= = % S ",
"5.6.= = !.7.= = = = = = = = = = = = = = = = = = = = 8.!.= r @ q ",
"  @ , = 9.0.= = = = a.b.c.d.e.f.= !.g.h.h.= = = = = 0.9.= ; @   ",
"  @ & = i.4.= = = = j.k.l.|.0.m.2.l.0.n.9.= = = = = 4.i.= B {   ",
"  5.k r o.p.= = = = 2.q.[.= r.s.t.s.u.[.t.= = = = = v.o.r k 5.  ",
"    @ & w.x.= = = = p.y.z.A.B.y.B.C.p.D.E.F.= = = = G.H.I.@     ",
"    S @ J.K.= = = L.M.2.A.N.M.O.M.P.Q.N.v.R.P.= = = S.T.@ S     ",
"      S U.V.= = = = = = = = = = = = = = = = = = = = W.U.'       ",
"        /.X.Y.Z.`.Z.`.Z.`.Z.`.Z.`.Z.`.Z.`.Z.`.Z.`. +X./.        ",
"          .+U.++@+@+@+@+@+@+@+@+@+@+@+@+@+@+@+@+#+U./.          ",
"            ' @ $+r = = = = = = = = = = = = r I.@ '             ",
"              S { k $+, = = = = = = = r %+&+k { S               ",
"                  5.@ @ 6.I.$+$+$+$+*+@ @ { 5.                  ",
"                        5.S /.@ @ ` S q                         "};
