/* XPM */
static char * mainLxml_xpm[] = {
"32 32 435 2",
"  	c None",
". 	c #C5C5C5",
"+ 	c #C8C8C8",
"@ 	c #CFCFCF",
"# 	c #D8D8D8",
"$ 	c #E1E1E1",
"% 	c #E8E8E8",
"& 	c #EBEBEB",
"* 	c #ECECEC",
"= 	c #EEEEEE",
"- 	c #EDEDED",
"; 	c #E6E6E6",
"> 	c #DDDDDD",
", 	c #D2D2D2",
"' 	c #C9C9C9",
") 	c #C4C4C4",
"! 	c #CBCBCB",
"~ 	c #D4D4D4",
"{ 	c #DFDFDF",
"] 	c #EAEAEA",
"^ 	c #F0F0F0",
"/ 	c #EFEFEF",
"( 	c #F1F1F1",
"_ 	c #E5E5E5",
": 	c #DCDCDC",
"< 	c #D1D1D1",
"[ 	c #A7A7A7",
"} 	c #CCCCCC",
"| 	c #CECECE",
"1 	c #7E7E7E",
"2 	c #B2B2B2",
"3 	c #C3C3C3",
"4 	c #AAAAAA",
"5 	c #929292",
"6 	c #F7F7F7",
"7 	c #A5A5A5",
"8 	c #C1C1C1",
"9 	c #ACACAC",
"0 	c #ABABAB",
"a 	c #DBDBDB",
"b 	c #E4E4E4",
"c 	c #E9E9E9",
"d 	c #A9A9A9",
"e 	c #D3D3D3",
"f 	c #B1B1B1",
"g 	c #9F9F9F",
"h 	c #A0A0A0",
"i 	c #D0D0D0",
"j 	c #EAEBEB",
"k 	c #E4E7EC",
"l 	c #E5E9F0",
"m 	c #EAEDF3",
"n 	c #EEF0F4",
"o 	c #E7EBF2",
"p 	c #E5E9EF",
"q 	c #E8E9EC",
"r 	c #E5E6E8",
"s 	c #E0E5EF",
"t 	c #E2E9F5",
"u 	c #EBF0F9",
"v 	c #EBF1F9",
"w 	c #ECF1F9",
"x 	c #E7EDF8",
"y 	c #E0E7F3",
"z 	c #E2E6EC",
"A 	c #DADBDA",
"B 	c #D4DADC",
"C 	c #DEE7ED",
"D 	c #E9F1EF",
"E 	c #EFF4F2",
"F 	c #E3EAF3",
"G 	c #E2EAF7",
"H 	c #E1EAF4",
"I 	c #E4ECF1",
"J 	c #E5ECF2",
"K 	c #E0E9F3",
"L 	c #E1E9F6",
"M 	c #E1E9F7",
"N 	c #E0E8F5",
"O 	c #D9E1EE",
"P 	c #E1E4E5",
"Q 	c #C7C7C7",
"R 	c #C6D0CF",
"S 	c #E0EEE3",
"T 	c #DFF0E2",
"U 	c #E1EDE8",
"V 	c #D7E2EE",
"W 	c #D6E1F2",
"X 	c #DDE7ED",
"Y 	c #E1F0E5",
"Z 	c #DCEFDF",
"` 	c #DDEFE0",
" .	c #E0F0E3",
"..	c #DFEDE4",
"+.	c #DFEDE6",
"@.	c #E0EEE5",
"#.	c #E1EFE4",
"$.	c #D3E2D9",
"%.	c #CAD3CC",
"&.	c #BCC7C2",
"*.	c #D4E1DE",
"=.	c #D8EDDB",
"-.	c #D5E3E2",
";.	c #CAD8ED",
">.	c #CDDAE6",
",.	c #DAE6E4",
"'.	c #D6E8DC",
").	c #CBE8D0",
"!.	c #CDE8D1",
"~.	c #C8DECC",
"{.	c #C4CCC6",
"].	c #C2C2C2",
"^.	c #B3BBB5",
"/.	c #D6E6DA",
"(.	c #CDDCD9",
"_.	c #CADADF",
":.	c #BFCFE8",
"<.	c #BECEE8",
"[.	c #D3E4DC",
"}.	c #C3E5C9",
"|.	c #C3E4C8",
"1.	c #C4E3C9",
"2.	c #C2E4C8",
"3.	c #BFE3C5",
"4.	c #B5CDB9",
"5.	c #CBCDCC",
"6.	c #C1C2C1",
"7.	c #C0C0C0",
"8.	c #B0C8B5",
"9.	c #C6E1CD",
"0.	c #B1C5E2",
"a.	c #B2C5E7",
"b.	c #B2C6E6",
"c.	c #B9CBDD",
"d.	c #C3DDCB",
"e.	c #C5E1CC",
"f.	c #C5DACE",
"g.	c #CCE2D3",
"h.	c #C5E2CA",
"i.	c #BBE0C2",
"j.	c #B7DFBE",
"k.	c #B3DDBA",
"l.	c #BFE2C5",
"m.	c #ACBDAF",
"n.	c #C0C1C1",
"o.	c #A9B4AC",
"p.	c #C3E1C8",
"q.	c #C5DFCE",
"r.	c #A3BADD",
"s.	c #A5BBE0",
"t.	c #A4BAE0",
"u.	c #BDD5CF",
"v.	c #B5D9BB",
"w.	c #B9D4C0",
"x.	c #BDD5CA",
"y.	c #A3BAD1",
"z.	c #AABFD0",
"A.	c #B0C6CE",
"B.	c #B9D3CB",
"C.	c #ACDAB4",
"D.	c #A6D8AE",
"E.	c #A7D8AF",
"F.	c #AAC7AF",
"G.	c #C5C6C5",
"H.	c #BEC0C1",
"I.	c #ADBABA",
"J.	c #A3BBCA",
"K.	c #9AB3D1",
"L.	c #9AB2DA",
"M.	c #97B0D9",
"N.	c #96AED6",
"O.	c #ACCABD",
"P.	c #A2D5AA",
"Q.	c #9CD3A5",
"R.	c #9FD4A8",
"S.	c #B4D7BE",
"T.	c #ABC7BE",
"U.	c #B6D7C0",
"V.	c #AACBBA",
"W.	c #A4D4AC",
"X.	c #99D2A2",
"Y.	c #9AD2A4",
"Z.	c #99D2A3",
"`.	c #ACD5B3",
" +	c #B1BAB3",
".+	c #BBBEC1",
"++	c #9BADC9",
"@+	c #8AA5D0",
"#+	c #8CA6D3",
"$+	c #8FA8D4",
"%+	c #93AEC2",
"&+	c #A0D4A9",
"*+	c #8CCC97",
"=+	c #8CCC98",
"-+	c #8FCD99",
";+	c #96CE9F",
">+	c #99CFA2",
",+	c #9AC8A2",
"'+	c #A1D3AA",
")+	c #8DCC98",
"!+	c #A7B7AA",
"~+	c #B8BBC0",
"{+	c #869DC4",
"]+	c #7E9AC9",
"^+	c #7F9BCB",
"/+	c #809CCA",
"(+	c #9DC3B1",
"_+	c #81C78D",
":+	c #7FC68B",
"<+	c #97D0A1",
"[+	c #96BBA3",
"}+	c #94CE9E",
"|+	c #95BCA6",
"1+	c #93CE9D",
"2+	c #82C78E",
"3+	c #7EC68A",
"4+	c #A5B9A8",
"5+	c #B7BCBF",
"6+	c #5173AC",
"7+	c #4268A9",
"8+	c #587AB2",
"9+	c #6987B9",
"0+	c #6B8AB2",
"a+	c #97CCA2",
"b+	c #73C180",
"c+	c #7EC68B",
"d+	c #85A89F",
"e+	c #91CC9B",
"f+	c #90CD9A",
"g+	c #6D8EA8",
"h+	c #79A698",
"i+	c #649E7D",
"j+	c #6BB47C",
"k+	c #9FB7A3",
"l+	c #B7BCBE",
"m+	c #73939E",
"n+	c #487490",
"o+	c #355FA4",
"p+	c #355FA5",
"q+	c #3D669F",
"r+	c #78B986",
"s+	c #50B161",
"t+	c #57B466",
"u+	c #5CB76B",
"v+	c #5FB86E",
"w+	c #60B86F",
"x+	c #5DB76C",
"y+	c #59B669",
"z+	c #55B465",
"A+	c #73AE85",
"B+	c #7EB08B",
"C+	c #558584",
"D+	c #315B9C",
"E+	c #5C8398",
"F+	c #527B92",
"G+	c #638E8E",
"H+	c #A2B5A5",
"I+	c #BABEBE",
"J+	c #8AAF96",
"K+	c #6CBA7A",
"L+	c #3D698C",
"M+	c #3C62A3",
"N+	c #385F9F",
"O+	c #588A83",
"P+	c #46AD58",
"Q+	c #35A548",
"R+	c #35A648",
"S+	c #35A649",
"T+	c #36A649",
"U+	c #44AC56",
"V+	c #66AC72",
"W+	c #5E8397",
"X+	c #3A5F9F",
"Y+	c #466E90",
"Z+	c #597F92",
"`+	c #96BDA6",
" @	c #A0B0A5",
".@	c #BEC1BF",
"+@	c #97AE9F",
"@@	c #4DB05E",
"#@	c #66A57D",
"$@	c #3B648D",
"%@	c #365C9B",
"&@	c #3D6491",
"*@	c #7CB38C",
"=@	c #6AB178",
"-@	c #64AC73",
";@	c #37A64A",
">@	c #70B380",
",@	c #52749B",
"'@	c #3E629D",
")@	c #395E99",
"!@	c #2F568E",
"~@	c #7FA19A",
"{@	c #B5BBB7",
"]@	c #C0C2C0",
"^@	c #A5B1A9",
"/@	c #66B774",
"(@	c #3BA84D",
"_@	c #75B386",
":@	c #345A8F",
"<@	c #4A6BA1",
"[@	c #6480A5",
"}@	c #7691B0",
"|@	c #7F97B4",
"1@	c #71A386",
"2@	c #3AA74C",
"3@	c #68B377",
"4@	c #72909D",
"5@	c #6D86B1",
"6@	c #4B6BA0",
"7@	c #385B96",
"8@	c #355891",
"9@	c #657E9F",
"0@	c #C6C7C6",
"a@	c #C2C3C3",
"b@	c #C2C3C2",
"c@	c #83B18C",
"d@	c #3AA84C",
"e@	c #67AD77",
"f@	c #375B8C",
"g@	c #526FA1",
"h@	c #748BB1",
"i@	c #8598B9",
"j@	c #879ABA",
"k@	c #7B9A9E",
"l@	c #5AB36A",
"m@	c #4CAF5D",
"n@	c #749693",
"o@	c #7B92AF",
"p@	c #748BB2",
"q@	c #526FA0",
"r@	c #3B5C93",
"s@	c #37578C",
"t@	c #ADB4C1",
"u@	c #A7B4AA",
"v@	c #67B675",
"w@	c #61A176",
"x@	c #3B5B8D",
"y@	c #4B6695",
"z@	c #6980A7",
"A@	c #7C90B1",
"B@	c #8397B7",
"C@	c #66A379",
"D@	c #6EB97A",
"E@	c #67927D",
"F@	c #92B4A2",
"G@	c #6B82A6",
"H@	c #4F6B9A",
"I@	c #39588A",
"J@	c #6D81A4",
"K@	c #97B29E",
"L@	c #81AC93",
"M@	c #30507F",
"N@	c #3D5A8C",
"O@	c #536E9A",
"P@	c #6B81A5",
"Q@	c #7C8FB0",
"R@	c #8195B3",
"S@	c #7AAF8B",
"T@	c #38A64A",
"U@	c #58B367",
"V@	c #638B7F",
"W@	c #98C7A0",
"X@	c #66898D",
"Y@	c #546D98",
"Z@	c #3A5685",
"`@	c #4A648F",
" #	c #CFD1D5",
".#	c #D0D1D1",
"+#	c #8697A9",
"@#	c #324F7F",
"##	c #345181",
"$#	c #3D5988",
"%#	c #4D6692",
"&#	c #5F7599",
"*#	c #7387A9",
"=#	c #698791",
"-#	c #67B875",
";#	c #48AE59",
">#	c #72A288",
",#	c #677F9B",
"'#	c #617E90",
")#	c #4F6992",
"!#	c #3B5683",
"~#	c #48618B",
"{#	c #CCD0D7",
"]#	c #B7B7B7",
"^#	c #A6B0C1",
"/#	c #3D5784",
"(#	c #314C7B",
"_#	c #365180",
":#	c #3D5783",
"<#	c #4D658F",
"[#	c #536B93",
"}#	c #567782",
"|#	c #6D918E",
"1#	c #4C6787",
"2#	c #4A638C",
"3#	c #405A86",
"4#	c #36517E",
"5#	c #62779A",
"6#	c #D9DCE1",
"7#	c #ADADAD",
"8#	c #C0C3C7",
"9#	c #70809B",
"0#	c #39537E",
"a#	c #314C79",
"b#	c #344E7B",
"c#	c #3E5781",
"d#	c #3F5881",
"e#	c #3D5681",
"f#	c #36507C",
"g#	c #35507C",
"h#	c #4D6389",
"i#	c #959FB0",
"j#	c #DEDEDE",
"k#	c #808080",
"l#	c #7F7F7F",
"m#	c #707070",
"n#	c #646464",
"o#	c #606060",
"p#	c #5E5E5E",
"q#	c #57585A",
"r#	c #414A59",
"s#	c #3C4A63",
"t#	c #3B4B68",
"u#	c #3B4C69",
"v#	c #3B4B66",
"w#	c #3E4A5F",
"x#	c #4A4E57",
"y#	c #5D5D5D",
"z#	c #616161",
"A#	c #666666",
"B#	c #747474",
"                                                                ",
"                                                                ",
"        . + @ # $ % & * = = = - - - - = = - * & ; > , '         ",
"        ) . ! ~ { ; ] * ^ / ^ ( = / ( ^ - - * & _ : < +         ",
"        ) . ' , > _ ] - [ } | 1 = 2 3 4 = - * ] _ : < +         ",
"        ) . ' < : _ ] - ~ 5 6 7 8 9 ) 0 / - * ] _ : < +         ",
"        ) ) + < a b c % d e . f g @ 8 h 2 = * ] _ : < +         ",
"        ) ) + i a b c * = - / / ^ ^ / ^ ^ - & ] b a < +         ",
"        ) ) + i a b c ] j k l m n o p q * * & c b a < +         ",
"        ) ) + i a b r s t u u v u v w x y z & c b a < '         ",
"        ) ) + i A B C D E F G H I J K L M N O P b a < +         ",
"        ) ) Q i R S T U V W X Y Z `  ...+.@.#.$.%.a < +         ",
"        3 3 Q &.*.=.-.;.>.,.'.).).).).).).).).!.~.{.< +         ",
"        ].].^./.(._.:.<.[.}.|.1.2.3.3.3.3.3.3.3.2.4.5.+         ",
"        6.7.8.9.0.a.b.c.d.e.f.g.h.i.j.k.k.k.k.k.k.l.m.+         ",
"        n.o.p.q.r.s.t.u.v.w.x.y.z.A.B.C.D.D.D.D.D.E.F.G.        ",
"        H.I.J.K.L.M.N.O.P.Q.R.S.T.U.V.W.X.Y.Z.Z.Z.Z.`. +        ",
"        .+++@+#+$+#+%+&+*+*+*+=+-+*+*+;+>+,+'+)+*+*+R.!+        ",
"        ~+{+]+^+^+/+(+_+:+:+:+:+:+:+:+<+[+}+,+|+1+2+3+4+        ",
"        5+6+7+8+9+0+a+b+b+b+b+b+b+b+b+c+d+e+f+g+h+i+j+k+        ",
"        l+m+n+o+p+q+r+s+t+u+v+w+v+x+y+z+A+B+C+D+E+F+G+H+        ",
"        I+J+K+L+M+N+O+P+Q+R+R+R+R+R+S+T+U+V+W+X+Y+Z+`+ @        ",
"        .@+@@@#@$@%@&@*@=@-@@@T+T+T+T+T+;@>@,@'@)@!@~@{@        ",
"        ]@^@/@(@_@:@<@[@}@|@1@2@T+T+T+;@3@4@5@6@7@8@9@0@        ",
"        a@b@c@d@e@f@g@h@i@j@k@l@T+T+T+m@n@o@p@q@r@s@t@Q         ",
"        ) ) u@v@w@x@y@z@A@i@B@C@T+T+T+D@E@F@G@H@I@J@i Q         ",
"        ) ) + K@L@M@N@O@P@Q@R@S@T@T+U@V@W@X@Y@Z@`@ #i Q         ",
"        3 . + .#+#@###$#%#&#*#=#-#;#>#,#'#)#!#~#{#: < Q         ",
"        ]#) + , > ^#/#(#_#:#<#[#}#|#1#2#3#4#5#6#; > < +         ",
"        7#) + < , , 8#9#0#a#b#c#d#e#f#g#h#i#e # j#: < +         ",
"            k#l#m#n#o#p#q#r#s#t#u#v#w#x#y#p#z#A#B#k#k#          ",
"                                                                "};
