/* XPM */
static char * mainLWorld_xpm[] = {
"32 32 447 2",
"  	c None",
". 	c #000000",
"+ 	c #0E0F11",
"@ 	c #111215",
"# 	c #040505",
"$ 	c #020202",
"% 	c #0D0E10",
"& 	c #17191D",
"* 	c #16181B",
"= 	c #141618",
"- 	c #ACBCDB",
"; 	c #C2D3F6",
"> 	c #BECEEF",
", 	c #B1BFDC",
"' 	c #A1ADC7",
") 	c #929CB2",
"! 	c #80899B",
"~ 	c #6F7684",
"{ 	c #5D636E",
"] 	c #4A4F57",
"^ 	c #383B41",
"/ 	c #26282B",
"( 	c #141416",
"_ 	c #050505",
": 	c #010101",
"< 	c #000001",
"[ 	c #9EACC8",
"} 	c #C6D7FA",
"| 	c #C7D8FA",
"1 	c #C9D9FA",
"2 	c #CBDAFA",
"3 	c #CDDCFB",
"4 	c #D0DEFB",
"5 	c #D2E0FB",
"6 	c #D5E1FB",
"7 	c #D8E3FB",
"8 	c #DAE5FB",
"9 	c #DCE5FA",
"0 	c #DDE6F8",
"a 	c #DBE2F2",
"b 	c #CBD1DF",
"c 	c #BABFCA",
"d 	c #A8ACB4",
"e 	c #94979D",
"f 	c #808287",
"g 	c #6C6D70",
"h 	c #575759",
"i 	c #414143",
"j 	c #242425",
"k 	c #778195",
"l 	c #C8D9FA",
"m 	c #CADAFA",
"n 	c #CCDBFB",
"o 	c #CEDCFB",
"p 	c #D3E0FB",
"q 	c #D5E2FB",
"r 	c #D8E4FB",
"s 	c #DBE6FC",
"t 	c #DDE7FC",
"u 	c #E0E9FC",
"v 	c #E3EBFC",
"w 	c #E6EDFC",
"x 	c #E9EFFC",
"y 	c #EBF1FD",
"z 	c #EEF3FD",
"A 	c #F1F5FD",
"B 	c #F3F6FD",
"C 	c #F6F8FD",
"D 	c #F7F9FD",
"E 	c #F6F7FA",
"F 	c #4F4F50",
"G 	c #4E5562",
"H 	c #CBDBFB",
"I 	c #CFDDFB",
"J 	c #D1DFFB",
"K 	c #D4E0FB",
"L 	c #D6E2FB",
"M 	c #D9E4FB",
"N 	c #DEE8FC",
"O 	c #E1EAFC",
"P 	c #E4ECFC",
"Q 	c #E6EEFC",
"R 	c #E9F0FD",
"S 	c #ECF1FD",
"T 	c #F3F7FD",
"U 	c #F8F9FE",
"V 	c #FAFBFE",
"W 	c #878789",
"X 	c #26292F",
"Y 	c #CAD9F9",
"Z 	c #CEDDFB",
"` 	c #D7E3FB",
" .	c #DCE6FC",
"..	c #DFE8FC",
"+.	c #E2EAFC",
"@.	c #E7EEFC",
"#.	c #EAF0FD",
"$.	c #ECF2FD",
"%.	c #EFF4FD",
"&.	c #F4F7FD",
"*.	c #F8FAFE",
"=.	c #A3A3A4",
"-.	c #060708",
";.	c #C2D0ED",
">.	c #D2DFFB",
",.	c #D4E1FB",
"'.	c #DEE7FC",
").	c #E4ECFA",
"!.	c #E5ECF9",
"~.	c #E7EDF9",
"{.	c #EBF1FB",
"].	c #EFF4FC",
"^.	c #F2F6FD",
"/.	c #F9FAFE",
"(.	c #BEBEBF",
"_.	c #9FAAC0",
":.	c #D1DEFB",
"<.	c #DAE5FC",
"[.	c #DCE7FC",
"}.	c #DAE3F6",
"|.	c #A0A9B3",
"1.	c #5F8166",
"2.	c #367633",
"3.	c #22711B",
"4.	c #206F18",
"5.	c #2C4E4D",
"6.	c #54637E",
"7.	c #9A9DA2",
"8.	c #E7E9EE",
"9.	c #F7F8FD",
"0.	c #FBFCFE",
"a.	c #D8D9D9",
"b.	c #767E8D",
"c.	c #DBE5FB",
"d.	c #9BA4AF",
"e.	c #2B6829",
"f.	c #109100",
"g.	c #109800",
"h.	c #04433F",
"i.	c #054E4E",
"j.	c #0F8D03",
"k.	c #0A7029",
"l.	c #004AC5",
"m.	c #0040AA",
"n.	c #163160",
"o.	c #898B8F",
"p.	c #F2F3F6",
"q.	c #FBFCFD",
"r.	c #F1F1F2",
"s.	c #4B5059",
"t.	c #D8E2F7",
"u.	c #61736D",
"v.	c #0F7F01",
"w.	c #12A500",
"x.	c #13AC00",
"y.	c #0C7109",
"z.	c #004CC8",
"A.	c #004FD1",
"B.	c #024C7C",
"C.	c #11A101",
"D.	c #01468D",
"E.	c #004FD0",
"F.	c #003792",
"G.	c #424751",
"H.	c #E2E3E4",
"I.	c #F9FAFA",
"J.	c #171717",
"K.	c #212327",
"L.	c #D6E1F9",
"M.	c #DBE5FC",
"N.	c #DAE4F9",
"O.	c #586863",
"P.	c #0F8D00",
"Q.	c #09620F",
"R.	c #003B89",
"S.	c #0C7708",
"T.	c #0D8617",
"U.	c #0050D1",
"V.	c #0051D3",
"W.	c #0051D2",
"X.	c #014384",
"Y.	c #0044A4",
"Z.	c #003FA5",
"`.	c #33373F",
" +	c #E4E4E4",
".+	c #313131",
"++	c #040404",
"@+	c #C9D3E8",
"#+	c #DDE7FB",
"$+	c #858C97",
"%+	c #0D7801",
"&+	c #119B00",
"*+	c #003881",
"=+	c #0054D5",
"-+	c #076049",
";+	c #0D891C",
">+	c #0053D4",
",+	c #0054D6",
"'+	c #003587",
")+	c #555556",
"!+	c #434444",
"~+	c #A2A9B8",
"{+	c #CED7E8",
"]+	c #164613",
"^+	c #14B500",
"/+	c #0A7424",
"(+	c #0055D5",
"_+	c #0057D8",
":+	c #0050C8",
"<+	c #00449B",
"[+	c #0056D6",
"}+	c #0056D7",
"|+	c #0055D4",
"1+	c #004CBE",
"2+	c #0057D9",
"3+	c #021736",
"4+	c #767B84",
"5+	c #7A7F89",
"6+	c #0A630A",
"7+	c #15BF00",
"8+	c #0C7E1F",
"9+	c #065F61",
"0+	c #086234",
"a+	c #0D7D0A",
"b+	c #0C730B",
"c+	c #0C7D1E",
"d+	c #0C7D1D",
"e+	c #0C720B",
"f+	c #0F8E02",
"g+	c #045264",
"h+	c #005ADC",
"i+	c #003D94",
"j+	c #494B50",
"k+	c #E3EBFB",
"l+	c #E2EAFA",
"m+	c #313843",
"n+	c #00479B",
"o+	c #0C7409",
"p+	c #14BB00",
"q+	c #17CF00",
"r+	c #18D700",
"s+	c #19DD00",
"t+	c #19E200",
"u+	c #1AE600",
"v+	c #1AEA00",
"w+	c #1BEE00",
"x+	c #1AEC00",
"y+	c #095E1A",
"z+	c #005DDD",
"A+	c #005EDF",
"B+	c #0059D4",
"C+	c #000308",
"D+	c #1C1D1F",
"E+	c #E3EAF9",
"F+	c #DDE4F1",
"G+	c #081D3A",
"H+	c #0060E2",
"I+	c #0053C1",
"J+	c #002F67",
"K+	c #001D38",
"L+	c #03290F",
"M+	c #1BEC00",
"N+	c #1BF000",
"O+	c #1BF400",
"P+	c #1CF700",
"Q+	c #0E8302",
"R+	c #004097",
"S+	c #0061E3",
"T+	c #00112A",
"U+	c #D0D6E2",
"V+	c #CDD2DE",
"W+	c #021F45",
"X+	c #0065E6",
"Y+	c #0060DB",
"Z+	c #013651",
"`+	c #1CF800",
" @	c #1CFB00",
".@	c #1CF500",
"+@	c #023C51",
"@@	c #0065E5",
"#@	c #00193B",
"$@	c #A4A8B0",
"%@	c #CDD2DC",
"&@	c #021E41",
"*@	c #0069EA",
"=@	c #0068EA",
"-@	c #005BCC",
";@	c #14B302",
">@	c #1BF300",
",@	c #1BF600",
"'@	c #14B706",
")@	c #005AC7",
"!@	c #0068E9",
"~@	c #001836",
"{@	c #74777C",
"]@	c #DFE4ED",
"^@	c #071628",
"/@	c #006BEB",
"(@	c #006CEE",
"_@	c #006CED",
":@	c #0064DD",
"<@	c #119F03",
"[@	c #19DE00",
"}@	c #09845F",
"|@	c #000B19",
"1@	c #444548",
"2@	c #EBEFF7",
"3@	c #2D2F31",
"4@	c #0060D0",
"5@	c #0070F1",
"6@	c #0057BA",
"7@	c #12A800",
"8@	c #16C500",
"9@	c #14B90E",
"0@	c #0069D6",
"a@	c #005DC9",
"b@	c #040406",
"c@	c #0C0C0D",
"d@	c #161617",
"e@	c #EEF1F7",
"f@	c #737578",
"g@	c #003979",
"h@	c #0073F4",
"i@	c #013F70",
"j@	c #17CB00",
"k@	c #046B8B",
"l@	c #003571",
"m@	c #1E1F21",
"n@	c #242528",
"o@	c #D3D5D9",
"p@	c #CFD2D5",
"q@	c #0C151F",
"r@	c #006ADF",
"s@	c #0076F7",
"t@	c #006FE9",
"u@	c #0A6315",
"v@	c #055E59",
"w@	c #0074F4",
"x@	c #0068DA",
"y@	c #00070F",
"z@	c #565960",
"A@	c #484B51",
"B@	c #A4A5A8",
"C@	c #F3F5F9",
"D@	c #757577",
"E@	c #00244A",
"F@	c #0076F5",
"G@	c #0078FA",
"H@	c #004187",
"I@	c #075215",
"J@	c #015286",
"K@	c #0079FA",
"L@	c #0078F8",
"M@	c #0173EE",
"N@	c #0078F9",
"O@	c #0276F1",
"P@	c #1568BF",
"Q@	c #011B37",
"R@	c #202123",
"S@	c #9CA3B1",
"T@	c #6C717B",
"U@	c #717273",
"V@	c #FAFBFD",
"W@	c #E5E6E8",
"X@	c #424243",
"Y@	c #002E5F",
"Z@	c #0077F4",
"`@	c #0167D2",
" #	c #0353A5",
".#	c #0455AB",
"+#	c #0173EA",
"@#	c #007AFB",
"##	c #09488A",
"$#	c #213E5B",
"%#	c #007AFA",
"&#	c #0079F7",
"*#	c #0C56A2",
"=#	c #6EA0CA",
"-#	c #334959",
";#	c #0F1012",
">#	c #757A84",
",#	c #CED7EB",
"'#	c #858C99",
")#	c #3F3F3F",
"!#	c #FBFBFD",
"~#	c #D7D8D9",
"{#	c #424242",
"]#	c #01152A",
"^#	c #426079",
"/#	c #8FB8DA",
"(#	c #B0CCE3",
"_#	c #5E7183",
":#	c #04509F",
"<#	c #73797F",
"[#	c #9DA5AC",
"}#	c #075099",
"|#	c #305170",
"1#	c #748B9C",
"2#	c #263038",
"3#	c #131416",
"4#	c #6A6E78",
"5#	c #C3CCDF",
"6#	c #9198A8",
"7#	c #101010",
"8#	c #F7F7F8",
"9#	c #FDFDFE",
"0#	c #FCFCFC",
"a#	c #DEDEDE",
"b#	c #6D6D6D",
"c#	c #141516",
"d#	c #3C4953",
"e#	c #8D9CA8",
"f#	c #C9D2D9",
"g#	c #B0B6BA",
"h#	c #E9EDF0",
"i#	c #D3D7DB",
"j#	c #8F9599",
"k#	c #43494D",
"l#	c #080909",
"m#	c #2C2D30",
"n#	c #6C7079",
"o#	c #959BA9",
"p#	c #8A919F",
"q#	c #6A6F7A",
"r#	c #1D1E21",
"s#	c #D2D2D2",
"t#	c #FEFEFE",
"u#	c #FDFDFD",
"v#	c #EFEFEF",
"w#	c #B8B8B8",
"x#	c #626263",
"y#	c #292929",
"z#	c #0F1010",
"A#	c #050606",
"B#	c #0A0A0B",
"C#	c #070708",
"D#	c #010102",
"E#	c #818181",
"F#	c #F8F8F8",
"G#	c #E2E2E2",
"H#	c #C0C0C0",
"I#	c #9C9C9C",
"J#	c #767676",
"K#	c #484848",
"L#	c #1E1E1E",
"M#	c #060606",
"N#	c #0B0B0B",
"                                                                ",
"  . . + @ # $ % & * =                                           ",
"  . $ - ; > , ' ) ! ~ { ] ^ / ( _ $ . . . . . . . . :           ",
"    < [ } | 1 2 3 4 5 6 7 8 9 0 a b c d e f g h i j . .         ",
"    . k | l m n o 4 p q r s t u v w x y z A B C D E F .         ",
"    . G 1 m H 3 I J K L M s N O P Q R S z A T C U V W .         ",
"    . X Y n 3 Z 4 p 6 ` 8  ...+.P @.#.$.%.A &.C *.V =..         ",
"    . -.;.3 I 4 >.,.L M s '.u v ).!.~.{.].^.&.D /.V (..         ",
"      . _.4 :.>.,.L 7 <.[.}.|.1.2.3.4.5.6.7.8.9./.0.a.$ .       ",
"      . b.>.p 6 L 7 8 c.d.e.f.g.h.i.j.k.l.m.n.o.p.q.r._ .       ",
"      . s.6 L ` r <.t.u.v.w.x.y.z.A.B.C.D.A.E.F.G.H.I.J..       ",
"      . K.L.r M M.N.O.P.Q.R.S.T.U.V.W.X.Y.V.V.V.Z.`. +.+.       ",
"      . ++@+s  .#+$+%+&+*+=+-+;+>+,+,+,+,+,+,+,+,+'+)+!+.       ",
"        . ~+'...{+]+^+/+(+_+:+<+[+}+|+1+}+2+2+2+2+}+3+j .       ",
"        . 4+u O 5+6+7+8+9+0+a+b+c+d+e+f+g+h+h+h+h+h+i+. .       ",
"        . j+k+l+m+n+o+p+q+r+s+t+u+v+w+x+y+z+A+A+A+A+B+C+.       ",
"        . D+E+F+G+H+I+J+K+L+w.M+N+O+P+Q+R+S+S+S+S+S+H+T+.       ",
"          $ U+V+W+X+X+X+X+Y+Z+u+`+ @.@+@@@X+X+X+X+X+X+#@.       ",
"          . $@%@&@*@=@*@*@*@-@;@>@,@'@)@*@*@*@*@=@*@!@~@. .     ",
"          . {@]@^@/@(@(@(@_@:@<@[@t+}@_@(@(@_@(@(@(@/@|@. .     ",
"          . 1@2@3@4@5@5@5@5@6@7@8@9@0@5@5@5@5@5@5@5@a@b@c@.     ",
"          . d@e@f@g@h@h@h@h@i@[@j@k@h@h@h@h@h@h@h@h@l@m@n@.     ",
"            $ o@p@q@r@s@s@t@u@[@v@w@s@s@s@s@s@s@s@x@y@z@A@.     ",
"            . B@C@D@E@F@G@H@I@J@F@K@L@M@G@K@N@O@P@Q@R@S@T@.     ",
"            . U@V@W@X@Y@Z@`@ #.#+#@###$#%#&#*#=#-#;#>#,#'#.     ",
"            . )#!#!#~#{#]#^#/#(#_#:#<#[#}#|#1#2#3#4#5#M 6#.     ",
"              7#8#9#0#a#b#c#d#e#f#g#h#i#j#k#l#m#n#o#p#q#r#.     ",
"              : s#t#t#u#v#w#x#y#z#A## $ . . B#C#D#. . . . .     ",
"              . E#F#G#H#I#J#K#L#M#. . . . . . .                 ",
"              . : N#$ . . . . . .                               ",
"                . .                                             ",
"                                                                "};
