/* XPM */
static char * mainLWorld_xpm[] = {
"32 32 164 2",
"  	c None",
". 	c #4BC8E6",
"+ 	c #4AC8E6",
"@ 	c #36C8EB",
"# 	c #47C8E6",
"$ 	c #48C7E7",
"% 	c #64C9E1",
"& 	c #80C9DB",
"* 	c #76C9DE",
"= 	c #CCCCCC",
"- 	c #4EC8E4",
"; 	c #9CCBD6",
"> 	c #51C8E5",
", 	c #B8CBD0",
"' 	c #45C8E6",
") 	c #93CAD8",
"! 	c #858787",
"~ 	c #919192",
"{ 	c #3DC8E9",
"] 	c #AFCBD1",
"^ 	c #C1C1C1",
"/ 	c #9E9F9F",
"( 	c #9E9E9F",
"_ 	c #A9A9AA",
": 	c #575959",
"< 	c #131416",
"[ 	c #131516",
"} 	c #878787",
"| 	c #4C4E4F",
"1 	c #131518",
"2 	c #141618",
"3 	c #A9AAAA",
"4 	c #58595B",
"5 	c #1D1F21",
"6 	c #1C1E21",
"7 	c #9D9E9F",
"8 	c #4C4D4F",
"9 	c #14171A",
"0 	c #575B5C",
"a 	c #A9AAAB",
"b 	c #36393B",
"c 	c #1D2024",
"d 	c #929394",
"e 	c #414345",
"f 	c #414446",
"g 	c #878788",
"h 	c #14181B",
"i 	c #585A5D",
"j 	c #57595C",
"k 	c #3EC8E9",
"l 	c #15191C",
"m 	c #1D2126",
"n 	c #414447",
"o 	c #1E2226",
"p 	c #14181C",
"q 	c #4BC8E7",
"r 	c #C2CCCE",
"s 	c #7C7E80",
"t 	c #151A1E",
"u 	c #414548",
"v 	c #424549",
"w 	c #161A1F",
"x 	c #50C7E5",
"y 	c #4E5155",
"z 	c #363B3F",
"A 	c #42464A",
"B 	c #6DC8DE",
"C 	c #20272C",
"D 	c #595E60",
"E 	c #43474B",
"F 	c #43474C",
"G 	c #595E61",
"H 	c #21272B",
"I 	c #A5CAD3",
"J 	c #55C8E4",
"K 	c #B6B6B7",
"L 	c #171E24",
"M 	c #888B8D",
"N 	c #44484D",
"O 	c #43484D",
"P 	c #878B8D",
"Q 	c #181E24",
"R 	c #B5B6B7",
"S 	c #4AC7E6",
"T 	c #888B8E",
"U 	c #192027",
"V 	c #44494E",
"W 	c #444A4F",
"X 	c #B6B7B7",
"Y 	c #181F26",
"Z 	c #5AC8E3",
"` 	c #3CC8E9",
" .	c #5B6065",
"..	c #222B30",
"+.	c #444A50",
"@.	c #222B31",
"#.	c #53C8E4",
"$.	c #2E353C",
"%.	c #50575C",
"&.	c #666C6F",
"*.	c #666C70",
"=.	c #50555C",
"-.	c #2F373E",
";.	c #C1C2C2",
">.	c #1A242D",
",.	c #7E8286",
"'.	c #1A232C",
").	c #44C7E8",
"!.	c #94979A",
"~.	c #1B252E",
"{.	c #ABACAE",
"].	c #9FA2A4",
"^.	c #1B252F",
"/.	c #72787D",
"(.	c #1C2731",
"_.	c #1B2630",
":.	c #73787D",
"<.	c #46C7E6",
"[.	c #48C8E6",
"}.	c #73797E",
"|.	c #303B44",
"1.	c #475058",
"2.	c #323C45",
"3.	c #26303C",
"4.	c #313B44",
"5.	c #73797F",
"6.	c #475059",
"7.	c #95989C",
"8.	c #1D2934",
"9.	c #48515A",
"0.	c #1D2935",
"a.	c #8A8E93",
"b.	c #747A80",
"c.	c #48525B",
"d.	c #C1C2C3",
"e.	c #535C65",
"f.	c #747B81",
"g.	c #49535C",
"h.	c #48535C",
"i.	c #757C82",
"j.	c #49535E",
"k.	c #4A545E",
"l.	c #747B82",
"m.	c #65C9E1",
"n.	c #6E8A95",
"o.	c #4A555F",
"p.	c #4A545F",
"q.	c #5E8B99",
"r.	c #3CBDDD",
"s.	c #4B5C68",
"t.	c #495D67",
"u.	c #47AAC5",
"v.	c #293948",
"w.	c #213241",
"x.	c #213141",
"y.	c #293A48",
"z.	c #4CC8E5",
"A.	c #758C97",
"B.	c #767E86",
"C.	c #5F8B9B",
"D.	c #81CADB",
"E.	c #9CCAD5",
"F.	c #6DC9DE",
"G.	c #51C8E4",
"                        . + @ @ @ @ + .                         ",
"                  . # @ $ % & & & & % $ * =                     ",
"              - @ @ % ; = = = = = = = = = = = =                 ",
"            > @ * , = = = = = = = = = = = = = = = =             ",
"          ' @ ) = = = = = = = ! ~ = = = = = = = = = =           ",
"        ' { ] ^ / ( _ = = = : < [ } = = = _ / ( ^ = = =         ",
"      > { , = | 1 2 1 3 ^ 4 1 5 6 2 4 = 7 2 1 2 8 = = = =       ",
"      @ ; = = 9 0 ( a ^ b c d e f g h i = 3 / j h = = = ;       ",
"    k % = = a l d = = a m a = n n = d o a = = d p a = = & k     ",
"  q { r = = s t ^ = = = = = = u v = = = = = = ^ w s = = , @ x   ",
"  # * = = = y z = = = = = = = A A = = = = = = = z y = = = B #   ",
"  @ ; = = = C D = = = = = = = E F = = = = = = = G H = = = I @   ",
"J @ = = = K L M = = = = = = = N O = = = = = = = P Q R = = = { x ",
"S % = = = T U K = = = = = = = V W = = = = = = = X Y T = = = Z > ",
"` & = = =  ...= = = = = = = = +.+.= = = = = = = = @. .= = = B #.",
"@ & = = = $.%.= = = = = = = = &.*.= = = = = = = = =.-.= = = & @ ",
"@ & = = ;.>.,.= = = = = = = = = = = = = = = = = = ,.'.;.= = & @ ",
").& = = !.~.{.= = = = = = = = = = = = = = = = = = ].^.!.= = & ` ",
"S % = = /.(._.(._.(._.(./.= = = = = = :._.(._.(._.(._.:.= = % S ",
"<.[.= = }.|.}.}.}.}.}.1.2.= = = = = = 3.1.}.}.}.}.}.4.}.= r @ q ",
"  @ , = 5.6.= = = = = 7.8.9.9.9.9.9.9.0.a.= = = = = 6.5.= ; @   ",
"  @ & = b.c.= = = = = d.e.c.c.c.c.c.c.e.d.= = = = = c.b.= B {   ",
"  <.k r f.g.= = = = = = = = = = = = = = = = = = = = h.f.r k <.  ",
"    @ & i.j.= = = = = = = = = = = = = = = = = = = = k.l.m.@     ",
"    S @ n.o.= = = = = = = = = = = = = = = = = = = = p.q.@ S     ",
"      S r.s.= = = = = = = = = = = = = = = = = = = = t.r.'       ",
"        ).u.v.w.x.w.x.w.x.w.x.w.x.w.x.w.x.w.x.w.x.y.u.).        ",
"          z.r.A.B.B.B.B.B.B.B.B.B.B.B.B.B.B.B.B.C.r.).          ",
"            ' @ D.r = = = = = = = = = = = = r m.@ '             ",
"              S { k D., = = = = = = = r E.F.k { S               ",
"                  <.@ @ [.m.D.D.D.D.G.@ @ { <.                  ",
"                        <.S ).@ @ ` S q                         "};
