/* XPM */
static const char * meshpart_xpm[] = {
"16 16 63 1",
" 	c None",
".	c #0A040A",
"+	c #000000",
"@	c #632C64",
"#	c #AE4DAF",
"$	c #9F47A0",
"%	c #411D41",
"&	c #4C224C",
"*	c #773577",
"=	c #060306",
"-	c #873C88",
";	c #A84BA9",
">	c #5D2A5E",
",	c #7E387F",
"'	c #A349A4",
")	c #934294",
"!	c #2A132A",
"~	c #A64AA7",
"{	c #863C87",
"]	c #AA4CAB",
"^	c #A449A5",
"/	c #0B050B",
"(	c #522553",
"_	c #833A83",
":	c #763577",
"<	c #A54AA6",
"[	c #AA4CAA",
"}	c #AC4DAD",
"|	c #A94CAB",
"1	c #8C3F8C",
"2	c #964397",
"3	c #733474",
"4	c #010001",
"5	c #843B85",
"6	c #A248A3",
"7	c #A94CAA",
"8	c #A94CA9",
"9	c #221022",
"0	c #753476",
"a	c #9A459B",
"b	c #642D64",
"c	c #100710",
"d	c #A84BAA",
"e	c #803981",
"f	c #5D295E",
"g	c #853B85",
"h	c #7D387E",
"i	c #8E3F8F",
"j	c #6A306B",
"k	c #A74BA8",
"l	c #9C469D",
"m	c #AB4CAC",
"n	c #542555",
"o	c #080307",
"p	c #8F4090",
"q	c #8B3E8C",
"r	c #190B19",
"s	c #954295",
"t	c #A148A2",
"u	c #99449A",
"v	c #7C377D",
"w	c #924193",
"x	c #050205",
"                ",
"    .++++++++   ",
"   +@+#$+%&*=   ",
"   -;>++,'')!+  ",
"  +~{+++,]'^/(  ",
" +_:+<+[++$}+^+ ",
" +++'$+|;*+1+23 ",
"4+5^6$+7''8+90-+",
"++a'6$+7'']+++bc",
" +++^$+]de+f+gh ",
" +ij+<+k++l]7++ ",
"  +~5+++5]'m+n  ",
"  o$'p++q6'lr+  ",
"   +s+tu9+vwx   ",
"   ++++++++++   ",
"                "};
