/* XPM */
static const char * meshpartSelect_xpm[] = {
"16 16 53 1",
" 	c None",
".	c #140CFF",
"+	c #FFFFFF",
"@	c #632C64",
"#	c #000000",
"$	c #AE4DAF",
"%	c #9F47A0",
"&	c #4C224C",
"*	c #773577",
"=	c #A64AA7",
"-	c #A84BA9",
";	c #5D2A5E",
">	c #7E387F",
",	c #A349A4",
"'	c #934294",
")	c #AA4CAB",
"!	c #A449A5",
"~	c #0B050B",
"{	c #833A83",
"]	c #763577",
"^	c #A54AA6",
"/	c #AA4CAA",
"(	c #AC4DAD",
"_	c #A94CAB",
":	c #8C3F8C",
"<	c #964397",
"[	c #733474",
"}	c #843B85",
"|	c #A248A3",
"1	c #A94CAA",
"2	c #A94CA9",
"3	c #221022",
"4	c #753476",
"5	c #873C88",
"6	c #9A459B",
"7	c #A84BAA",
"8	c #803981",
"9	c #5D295E",
"0	c #853B85",
"a	c #7D387E",
"b	c #8E3F8F",
"c	c #6A306B",
"d	c #A74BA8",
"e	c #9C469D",
"f	c #AB4CAC",
"g	c #542555",
"h	c #8F4090",
"i	c #8B3E8C",
"j	c #954295",
"k	c #A148A2",
"l	c #99449A",
"m	c #7C377D",
"n	c #924193",
"................",
"....+++++++++...",
"...+@#$%##&*+...",
"...=-;##>,,'#+..",
"..+=####>),!~#..",
".+{]#^#/##%(#!+.",
".+##,%#_-*#:#<[.",
"+#}!|%#1,,2#345+",
"+#6,|%#1,,)####+",
".+##!%#)78#9#0a.",
".+bc#^#d##e)1#+.",
"..+=}###}),f#g..",
"..+%,h##i|,e#+..",
"...+j#kl##mn+...",
"...++++++++++...",
"................"};
