/* XPM */
static  const char * move_xpm[] = {
"25 25 12 1",
" 	c None",
".	c #F0F0F0",
"+	c #FFFFFF",
"@	c #8CA3BB",
"#	c #A4B6C8",
"$	c #35608D",
"%	c #4D729A",
"&	c #6183A4",
"*	c #7995B1",
"=	c #92A7BE",
"-	c #4F749B",
";	c #7290AE",
".+.......................",
".+.......................",
".+.......................",
".+.......................",
".+.......................",
".+..........@@...........",
".+.........#$$#..........",
".+.........%$$%..........",
".+........&$$$$&.........",
".+..........$$...........",
".+......*...$$...&.......",
".+....=-$...$$...$%#.....",
".+...;$$$$$$$$$$$$$$@....",
".+...;$$$$$$$$$$$$$$@....",
".+....=-$...$$...$%#.....",
".+......*...$$...&.......",
".+..........$$...........",
".+........*$$$$*.........",
".+.........-$$-..........",
".+.........=$$=..........",
".+..........;;...........",
".+.......................",
".+.......................",
".+.......................",
".+......................."};
