/* XPM */
static char * move_xpm[] = {
"30 31 207 2",
"  	c None",
". 	c #111C23",
"+ 	c #0B151B",
"@ 	c #203846",
"# 	c #306381",
"$ 	c #224961",
"% 	c #0C1114",
"& 	c #0A151C",
"* 	c #1F4F6C",
"= 	c #3C9FDB",
"- 	c #3985B2",
"; 	c #172F3D",
"> 	c #132834",
", 	c #3589BB",
"' 	c #41B1F4",
") 	c #3FAAEA",
"! 	c #2C6A8E",
"~ 	c #132530",
"{ 	c #0B1318",
"] 	c #2A5D7C",
"^ 	c #40AFF1",
"/ 	c #3F9ED6",
"( 	c #1E4861",
"_ 	c #050E12",
": 	c #193F56",
"< 	c #3B97CE",
"[ 	c #3489BB",
"} 	c #12222A",
"| 	c #0F202A",
"1 	c #327CA9",
"2 	c #40ABEB",
"3 	c #285E7E",
"4 	c #080D10",
"5 	c #0A1922",
"6 	c #2A5F7E",
"7 	c #428EBB",
"8 	c #3E8AB7",
"9 	c #21475C",
"0 	c #060A0B",
"a 	c #080E11",
"b 	c #152732",
"c 	c #2A6E97",
"d 	c #40ABED",
"e 	c #419FD7",
"f 	c #2D5A74",
"g 	c #152027",
"h 	c #0B1A23",
"i 	c #225472",
"j 	c #225371",
"k 	c #0C1A23",
"l 	c #0E1C23",
"m 	c #070E11",
"n 	c #0D1519",
"o 	c #0F1C24",
"p 	c #071014",
"q 	c #112835",
"r 	c #1F4257",
"s 	c #3A84B0",
"t 	c #2A6182",
"u 	c #060E12",
"v 	c #0A1115",
"w 	c #347092",
"x 	c #3A98D0",
"y 	c #22516C",
"z 	c #162C39",
"A 	c #0A151B",
"B 	c #143141",
"C 	c #2A6E96",
"D 	c #3B9DD7",
"E 	c #3A9AD3",
"F 	c #13242F",
"G 	c #132733",
"H 	c #0E2330",
"I 	c #09171E",
"J 	c #163446",
"K 	c #3D9ED9",
"L 	c #42B1F4",
"M 	c #3FA0DA",
"N 	c #2E719A",
"O 	c #183445",
"P 	c #0E191F",
"Q 	c #193749",
"R 	c #225573",
"S 	c #3587B8",
"T 	c #40ADEE",
"U 	c #40A7E5",
"V 	c #33627E",
"W 	c #213C4C",
"X 	c #306F94",
"Y 	c #3489BD",
"Z 	c #1E465E",
"` 	c #0A1318",
" .	c #153041",
"..	c #3482B1",
"+.	c #42AEF0",
"@.	c #43B1F4",
"#.	c #45B2F3",
"$.	c #42ADEE",
"%.	c #3B8DBE",
"&.	c #265876",
"*.	c #1F3D4E",
"=.	c #121E25",
"-.	c #337196",
";.	c #40A9E8",
">.	c #43A5E0",
",.	c #2C4858",
"'.	c #255877",
").	c #41A9E7",
"!.	c #3A7BA1",
"~.	c #121C22",
"{.	c #000000",
"].	c #316E92",
"^.	c #44B0F2",
"/.	c #336785",
"(.	c #131719",
"_.	c #0C171E",
":.	c #2B5D7A",
"<.	c #3B97D0",
"[.	c #42ABEB",
"}.	c #41AFF1",
"|.	c #3B8EC0",
"1.	c #213641",
"2.	c #254E65",
"3.	c #429FD7",
"4.	c #41ACEC",
"5.	c #336F92",
"6.	c #0E181D",
"7.	c #203E50",
"8.	c #3A8ABB",
"9.	c #42AFF0",
"0.	c #3FA9E9",
"a.	c #3796CE",
"b.	c #224A61",
"c.	c #317198",
"d.	c #3DA5E3",
"e.	c #3CA0DC",
"f.	c #1F3F51",
"g.	c #131B1F",
"h.	c #2D536A",
"i.	c #2D6588",
"j.	c #16303F",
"k.	c #070D0F",
"l.	c #1D3B4D",
"m.	c #3FA0DB",
"n.	c #3B94CA",
"o.	c #265F80",
"p.	c #256084",
"q.	c #0E1D27",
"r.	c #204C66",
"s.	c #388DBF",
"t.	c #42AFF2",
"u.	c #3C7A9E",
"v.	c #0D151A",
"w.	c #0C1C25",
"x.	c #3996CD",
"y.	c #43A4DE",
"z.	c #357294",
"A.	c #193545",
"B.	c #070F13",
"C.	c #121E24",
"D.	c #2B5770",
"E.	c #203643",
"F.	c #1E3948",
"G.	c #20465C",
"H.	c #101B21",
"I.	c #141617",
"J.	c #121415",
"K.	c #16374B",
"L.	c #3787B6",
"M.	c #3784B3",
"N.	c #163447",
"O.	c #060B0D",
"P.	c #192E3A",
"Q.	c #245E80",
"R.	c #348EC3",
"S.	c #358EC3",
"T.	c #255C7D",
"U.	c #15242C",
"V.	c #377EA8",
"W.	c #42ACEC",
"X.	c #43ABE9",
"Y.	c #2F6280",
"Z.	c #2A536B",
"`.	c #46A9E4",
" +	c #45B2F4",
".+	c #3FA4E2",
"++	c #1E455C",
"@+	c #151F24",
"#+	c #3A7FA8",
"$+	c #2C74A0",
"%+	c #1E4257",
"&+	c #3EA3E0",
"*+	c #378ABC",
"=+	c #132E3D",
"-+	c #04080A",
";+	c #152C39",
">+	c #306B8D",
",+	c #43A9E6",
"'+	c #3CA1DF",
")+	c #20506C",
"!+	c #0B161D",
"~+	c #2B5975",
"{+	c #3A86B5",
"]+	c #306B8E",
"^+	c #19303E",
"/+	c #203A49",
"(+	c #152A37",
"                                                            ",
"                            . +                             ",
"                          @ # $ %                           ",
"                        & * = - ;                           ",
"                        > , ' ) ! ~                         ",
"                      { ] ^ ' ' / ( _                       ",
"                      : < ' ' ' ' [ }                       ",
"                    | 1 ^ ' ' ' ' 2 3 4                     ",
"                    5 6 7 ' ' ' ' 8 9 0                     ",
"                      a b c d e f g 0                       ",
"                          h i j k                           ",
"            l m                             n o p           ",
"        q r s t u                         v w x y z         ",
"    A B C D ' E F           G H I         J K L M N O P     ",
"  Q R S T ' ' U V         W X Y Z `      ...+.@.#.$.%.&.*.  ",
"=.-.;.L L L ' ' >.,.      '.).' !.~.  {.].^.L L @.@.L ;./.(.",
"_.:.<.[.L L ' }.|.1.      2.3.4.5.6.    7.8.9.L @.@.0.a.b.  ",
"    Q c.d.' ' e.f.        g.h.i.j.k.      l.m.L 9.n.o.p.    ",
"      q.r.s.t.u.v.                        w.x.y.z.A.}       ",
"        B.C.D.E.                            F.G.H.          ",
"                            I.J.                            ",
"                          K.L.M.N.                          ",
"                    O.P.Q.R.@.@.S.T.U.                      ",
"                    | V.W.L ' L L X.Y.%                     ",
"                    4 Z.`. +@.L L .+++                      ",
"                      @+#+ +L L }.$+A                       ",
"                      O.%+&+' L *+=+-+                      ",
"                        ;+>+,+'+)+!+                        ",
"                          ~+{+]+^+                          ",
"                            /+(+                            ",
"                                                            "};
