/* XPM */
static char * move_xpm[] = {
"29 29 128 2",
"  	c None",
". 	c #223F56",
"+ 	c #1A5380",
"@ 	c #0F6BB4",
"# 	c #175789",
"$ 	c #21415B",
"% 	c #224056",
"& 	c #185788",
"* 	c #0781DF",
"= 	c #0091FF",
"- 	c #0486E8",
"; 	c #155D94",
"> 	c #22415A",
", 	c #243D51",
"' 	c #185989",
") 	c #0784E0",
"! 	c #0093FF",
"~ 	c #0488E9",
"{ 	c #155F96",
"] 	c #223F55",
"^ 	c #195783",
"/ 	c #0686E2",
"( 	c #0095FF",
"_ 	c #0096FF",
": 	c #048AEB",
"< 	c #155F95",
"[ 	c #243A4A",
"} 	c #253B4B",
"| 	c #0B7AC8",
"1 	c #0097FF",
"2 	c #0098FF",
"3 	c #0686E0",
"4 	c #243C4E",
"5 	c #1D4E6E",
"6 	c #185B87",
"7 	c #0D77BC",
"8 	c #009AFF",
"9 	c #185B88",
"0 	c #1B5175",
"a 	c #156394",
"b 	c #009DFF",
"c 	c #166290",
"d 	c #009FFF",
"e 	c #243D52",
"f 	c #185887",
"g 	c #0880D5",
"h 	c #1B5075",
"i 	c #166390",
"j 	c #00A1FF",
"k 	c #00A2FF",
"l 	c #1D4D6F",
"m 	c #0980D4",
"n 	c #155F93",
"o 	c #224053",
"p 	c #18588B",
"q 	c #0685E3",
"r 	c #165E8E",
"s 	c #156897",
"t 	c #00A4FF",
"u 	c #185986",
"v 	c #214159",
"w 	c #223F57",
"x 	c #185789",
"y 	c #0683E1",
"z 	c #0094FF",
"A 	c #0B7CC7",
"B 	c #146599",
"C 	c #156494",
"D 	c #156594",
"E 	c #146999",
"F 	c #0B85C7",
"G 	c #00A6FF",
"H 	c #00A7FF",
"I 	c #156497",
"J 	c #0D76BC",
"K 	c #0487E9",
"L 	c #21415A",
"M 	c #1A527E",
"N 	c #0681DF",
"O 	c #0092FF",
"P 	c #0099FF",
"Q 	c #009CFF",
"R 	c #009EFF",
"S 	c #00A0FF",
"T 	c #00A5FF",
"U 	c #00A8FF",
"V 	c #00A3FF",
"W 	c #0485E8",
"X 	c #17588C",
"Y 	c #1166A9",
"Z 	c #0090FF",
"` 	c #0D71C0",
" .	c #009BFF",
"..	c #166091",
"+.	c #175F8D",
"@.	c #17618D",
"#.	c #166491",
"$.	c #0D7EBE",
"%.	c #17608D",
"&.	c #165F8F",
"*.	c #0F71B3",
"=.	c #175B8A",
"-.	c #195883",
";.	c #0489EB",
">.	c #155E95",
",.	c #087FD5",
"'.	c #097FD4",
").	c #155E93",
"!.	c #223F53",
"~.	c #166190",
"{.	c #156294",
"].	c #1D4C6E",
"^.	c #185A87",
"/.	c #0D75BC",
"(.	c #185A88",
"_.	c #0B78C8",
":.	c #0684E0",
"<.	c #195683",
"[.	c #0684E2",
"}.	c #0782E0",
"|.	c #0486E9",
"1.	c #155E96",
"2.	c #0780DF",
"3.	c #008FFF",
"4.	c #0484E8",
"5.	c #155C94",
"6.	c #1A5280",
"7.	c #0F6AB4",
"                                                          ",
"                                                          ",
"                        . + @ # $                         ",
"                      % & * = - ; >                       ",
"                    , ' ) ! ! ! ~ { ]                     ",
"                    ^ / ( _ _ _ ( : < [                   ",
"                  } | 1 2 2 2 2 2 1 3 4                   ",
"                    5 6 7 8 8 8 7 9 0                     ",
"                        a b b b a                         ",
"            4           c d d d c           4             ",
"        e f g h         i j k k i         l m n o         ",
"      . p q _ r         s t t t s         u _ : < v       ",
"    w x y z _ A B C D E F G H G F E D C I J 1 z K ; L     ",
"    M N O z 1 P Q R S k T H U H T V S R Q 8 1 ( O W X     ",
"    Y Z O z 1 P Q R S k T H U H T V S R Q 8 1 ( O Z `     ",
"    M N O z _ P  .b S k t T G G t k S b  .P 1 z O W X     ",
"    w x y ! _ J ..+.@.#.$.V t t $.#.@.%.&.*._ z K ; L     ",
"      . p q ( =.        D j j j D         -._ ;.>.v       ",
"        e f ,.h         i d d d i         l '.).!.        ",
"            4           ~.b b b ~.          4             ",
"                        {.8  .8 {.                        ",
"                    ].^./.2 2 2 /.(.h                     ",
"                  } _.( ( ( ( ( ( ( :.4                   ",
"                    <.[.! ! ! ! ! ;.>.[                   ",
"                    , x }.= = = |.1.]                     ",
"                      . & 2.3.4.5.>                       ",
"                        . 6.7.# $                         ",
"                                                          ",
"                                                          "};
