/* XPM */
static const char * nemolaser_xpm[] = {
"16 16 105 2",
"  	c None",
". 	c #000000",
"+ 	c #384145",
"@ 	c #008AC5",
"# 	c #006A99",
"$ 	c #005D86",
"% 	c #00628C",
"& 	c #00648F",
"* 	c #006692",
"= 	c #006F9E",
"- 	c #007EB4",
"; 	c #0075A6",
"> 	c #00A0E4",
", 	c #00A0E6",
"' 	c #00A7EF",
") 	c #00A9F2",
"! 	c #00A8F2",
"~ 	c #00A9F3",
"{ 	c #00A5ED",
"] 	c #00546F",
"^ 	c #007EB2",
"/ 	c #00AAF6",
"( 	c #01618A",
"_ 	c #046791",
": 	c #0070A0",
"< 	c #007FB4",
"[ 	c #0084BD",
"} 	c #0089C5",
"| 	c #0095D6",
"1 	c #006485",
"2 	c #037CAE",
"3 	c #0096D7",
"4 	c #160903",
"5 	c #000C10",
"6 	c #001C28",
"7 	c #1A4D62",
"8 	c #0A303C",
"9 	c #172A36",
"0 	c #035777",
"a 	c #12110F",
"b 	c #4D4845",
"c 	c #211B18",
"d 	c #22232E",
"e 	c #075B7C",
"f 	c #272930",
"g 	c #070607",
"h 	c #403F3E",
"i 	c #1B1918",
"j 	c #1E1D26",
"k 	c #05678E",
"l 	c #0D5372",
"m 	c #175677",
"n 	c #143C52",
"o 	c #192F3E",
"p 	c #1E222C",
"q 	c #1E1C24",
"r 	c #383A42",
"s 	c #2A2E38",
"t 	c #13303E",
"u 	c #006187",
"v 	c #036186",
"w 	c #0070A1",
"x 	c #0481BE",
"y 	c #0F8CD1",
"z 	c #1489C6",
"A 	c #167BB0",
"B 	c #156C98",
"C 	c #144358",
"D 	c #03668E",
"E 	c #007BB2",
"F 	c #0B6955",
"G 	c #008455",
"H 	c #057C7E",
"I 	c #037392",
"J 	c #006DA2",
"K 	c #003E64",
"L 	c #015C71",
"M 	c #045363",
"N 	c #1A6C12",
"O 	c #008500",
"P 	c #02610A",
"Q 	c #017F14",
"R 	c #027B20",
"S 	c #057F1D",
"T 	c #02A112",
"U 	c #045104",
"V 	c #008F00",
"W 	c #00B000",
"X 	c #009400",
"Y 	c #007100",
"Z 	c #01A000",
"` 	c #00BE00",
" .	c #004800",
"..	c #009100",
"+.	c #00C400",
"@.	c #006A00",
"#.	c #00A100",
"$.	c #00C000",
"%.	c #096609",
"&.	c #008E00",
"*.	c #006F00",
"=.	c #008A00",
"-.	c #008000",
";.	c #00A700",
">.	c #019701",
"                                ",
"      . . . . . . . . . . +     ",
"    . @ # $ % & * = - ; & .     ",
"    . > , ' ) ! ~ { ] ^ / .     ",
"    . ( _ : < [ } | 1 2 3 .     ",
"      . 4 . . 5 6 7 8 9 0 .     ",
"        a . . . . b c d e .     ",
"    . . f g . . . h i j k .     ",
"    . l m n o p q r s t u .     ",
"    . v w x y z A B C D E .     ",
"    . . . F G H I J K L M .     ",
"        . N O P Q R S T . .     ",
"        . U V W X Y Z ` .       ",
"        .  ...+.X @.#.$..       ",
"        . %.&.*.=.-.;.>..       ",
"        . . . . . . . . .       "};
