/* XPM */
static const char * nemolaserSelect_xpm[] = {
"16 16 107 2",
"  	c None",
". 	c #140CFF",
"+ 	c #FFFFFF",
"@ 	c #008DC4",
"# 	c #006A99",
"$ 	c #005D86",
"% 	c #00628C",
"& 	c #00648F",
"* 	c #006692",
"= 	c #006F9D",
"- 	c #007FB3",
"; 	c #0076A5",
"> 	c #00678C",
", 	c #00A4E4",
"' 	c #00A1E6",
") 	c #00A7EF",
"! 	c #00A9F2",
"~ 	c #00A8F2",
"{ 	c #00A9F3",
"] 	c #00A5ED",
"^ 	c #00546F",
"/ 	c #007EB2",
"( 	c #00ADF6",
"_ 	c #0C5C98",
": 	c #056397",
"< 	c #00709F",
"[ 	c #007FB4",
"} 	c #0084BD",
"| 	c #0089C5",
"1 	c #0095D6",
"2 	c #006485",
"3 	c #037CAE",
"4 	c #0098D6",
"5 	c #000000",
"6 	c #000C10",
"7 	c #001C28",
"8 	c #1A4D62",
"9 	c #0A303C",
"0 	c #172A36",
"a 	c #055976",
"b 	c #4D4845",
"c 	c #211B18",
"d 	c #22232E",
"e 	c #085D7A",
"f 	c #070504",
"g 	c #403F3E",
"h 	c #1B1918",
"i 	c #1E1D26",
"j 	c #06698D",
"k 	c #0B5272",
"l 	c #175774",
"m 	c #143C52",
"n 	c #192F3E",
"o 	c #1E222C",
"p 	c #1E1C24",
"q 	c #383A42",
"r 	c #2A2E38",
"s 	c #13303E",
"t 	c #006386",
"u 	c #006282",
"v 	c #0073A0",
"w 	c #0583BE",
"x 	c #0F8CD1",
"y 	c #1588C7",
"z 	c #167BB0",
"A 	c #156C98",
"B 	c #144358",
"C 	c #03658E",
"D 	c #007EB0",
"E 	c #234CA4",
"F 	c #0A5E64",
"G 	c #008751",
"H 	c #007E77",
"I 	c #00748D",
"J 	c #006DA1",
"K 	c #003E65",
"L 	c #005D6E",
"M 	c #0E5176",
"N 	c #135738",
"O 	c #008900",
"P 	c #006207",
"Q 	c #007F12",
"R 	c #007D1E",
"S 	c #008417",
"T 	c #00A609",
"U 	c #134C3F",
"V 	c #009100",
"W 	c #00B000",
"X 	c #009400",
"Y 	c #007100",
"Z 	c #00A100",
"` 	c #00C300",
" .	c #13483E",
"..	c #009300",
"+.	c #00C400",
"@.	c #006A00",
"#.	c #135A3D",
"$.	c #009200",
"%.	c #006F00",
"&.	c #008A00",
"*.	c #008000",
"=.	c #00A800",
"-.	c #009A00",
";.	c #0E5D2E",
">.	c #066915",
",.	c #018D04",
"'.	c #006600",
". . . . . . . . . . . . . . . . ",
". . + + + + + + + + + + + + . . ",
". . + @ # $ % & * = - ; > + . . ",
". . + , ' ) ! ~ { ] ^ / ( + . . ",
". . + _ : < [ } | 1 2 3 4 + . . ",
". . . + + 5 5 6 7 8 9 0 a + . . ",
". . . . + 5 5 5 5 b c d e + . . ",
". . . + + f 5 5 5 g h i j + . . ",
". . + k l m n o p q r s t + . . ",
". . + u v w x y z A B C D + . . ",
". . . + E F G H I J K L M + . . ",
". . . . + N O P Q R S T + . . . ",
". . . . + U V W X Y Z ` + . . . ",
". . . . +  ...+.X @.Z +.+ . . . ",
". . . . + #.$.%.&.*.=.-.+ . . . ",
". . . . . + ;.>.,.'.@.+ . . . . "};
