/* XPM */
static char * NewWorld_xpm[] = {
"32 32 635 2",
"  	c None",
". 	c #127DBB",
"+ 	c #0F7DC0",
"@ 	c #0D7CC1",
"# 	c #0D7CC2",
"$ 	c #0E7CC2",
"% 	c #0E7CC1",
"& 	c #107EC1",
"* 	c #137DBC",
"= 	c #147DB9",
"- 	c #1782C5",
"; 	c #5DAEA2",
"> 	c #9ED794",
", 	c #D3F882",
"' 	c #E3FF75",
") 	c #E3FF77",
"! 	c #E2FF77",
"~ 	c #E4FF76",
"{ 	c #D3F585",
"] 	c #9CD39A",
"^ 	c #58AAB1",
"/ 	c #1783C7",
"( 	c #157EBA",
"_ 	c #0F7DB8",
": 	c #74BDA5",
"< 	c #D4FA77",
"[ 	c #EBFF92",
"} 	c #E8FE99",
"| 	c #E1FC8E",
"1 	c #D6F974",
"2 	c #C8F44A",
"3 	c #A6E658",
"4 	c #88D573",
"5 	c #83D375",
"6 	c #BEF131",
"7 	c #D2F669",
"8 	c #CCF088",
"9 	c #6DB7AF",
"0 	c #117EC1",
"a 	c #167DB1",
"b 	c #2A8EC2",
"c 	c #93CFF6",
"d 	c #D4F2ED",
"e 	c #EDFEC9",
"f 	c #E5FCA0",
"g 	c #DAF89D",
"h 	c #BCE5E6",
"i 	c #AADCFD",
"j 	c #A2D8F9",
"k 	c #94D2FF",
"l 	c #8BCEFF",
"m 	c #5BB8FF",
"n 	c #68C85A",
"o 	c #93E200",
"p 	c #A9E720",
"q 	c #CEF467",
"r 	c #99D2BD",
"s 	c #1F87CA",
"t 	c #177BB3",
"u 	c #167CB0",
"v 	c #2C90C1",
"w 	c #ABE0FC",
"x 	c #E2F8E2",
"y 	c #E9FEAF",
"z 	c #E3FC99",
"A 	c #D7F7A2",
"B 	c #B6E2FF",
"C 	c #ACDEFE",
"D 	c #A3DBF9",
"E 	c #9AD5FA",
"F 	c #8DCFFB",
"G 	c #81CAFF",
"H 	c #75C4FF",
"I 	c #59B9F2",
"J 	c #6AC85E",
"K 	c #95E100",
"L 	c #8FDE00",
"M 	c #AFE92C",
"N 	c #B2E3A5",
"O 	c #268BD1",
"P 	c #177BB2",
"Q 	c #2289BE",
"R 	c #ABE0FA",
"S 	c #D9F2FF",
"T 	c #D1EDFF",
"U 	c #CEEEE9",
"V 	c #DCFA8C",
"W 	c #C4EDCF",
"X 	c #AEDFFF",
"Y 	c #A7DCFE",
"Z 	c #9ED9FA",
"` 	c #92D2FD",
" .	c #8CD1EA",
"..	c #ABE559",
"+.	c #93DA7F",
"@.	c #66BFE7",
"#.	c #38A9FF",
"$.	c #3FAECF",
"%.	c #69C651",
"&.	c #87D800",
"*.	c #A4E418",
"=.	c #BEE97F",
"-.	c #248AC1",
";.	c #127EB5",
">.	c #91D1F1",
",.	c #C1E9FD",
"'.	c #D2EEFD",
").	c #C7EAFF",
"!.	c #BFE6FF",
"~.	c #C4ECD8",
"{.	c #CDF586",
"].	c #B6E6C9",
"^.	c #A0DAFF",
"/.	c #96D5FF",
"(.	c #87CEFF",
"_.	c #B3EB3F",
":.	c #B2ED1C",
"<.	c #ACEA0F",
"[.	c #9DE31D",
"}.	c #5CBDAB",
"|.	c #5ABF8A",
"1.	c #3DACCA",
"2.	c #87D702",
"3.	c #8FDD00",
"4.	c #74C77B",
"5.	c #9AD39A",
"6.	c #137FC1",
"7.	c #167BAE",
"8.	c #5EAFD9",
"9.	c #A6DFFB",
"0.	c #D3EFFD",
"a.	c #C8EBFE",
"b.	c #C3E9F7",
"c.	c #C6EDCB",
"d.	c #D3FA64",
"e.	c #CDF75E",
"f.	c #C7F45D",
"g.	c #A7E1C6",
"h.	c #B5EC5A",
"i.	c #A3E280",
"j.	c #ACEA2C",
"k.	c #7ACCC0",
"l.	c #8FDB4C",
"m.	c #9EE600",
"n.	c #6AC773",
"o.	c #57BC9A",
"p.	c #30A4F2",
"q.	c #2DA3E5",
"r.	c #57BC6B",
"s.	c #64C439",
"t.	c #90D767",
"u.	c #5EB0AF",
"v.	c #167BB6",
"w.	c #1D85BA",
"x.	c #95D6F8",
"y.	c #A8DEFA",
"z.	c #C8EAFB",
"A.	c #BFE7FE",
"B.	c #BDE8F6",
"C.	c #C5EFBC",
"D.	c #C4F19D",
"E.	c #C8F751",
"F.	c #C1F449",
"G.	c #BCF23B",
"H.	c #B6EF2E",
"I.	c #ADEB32",
"J.	c #A7E820",
"K.	c #9CE324",
"L.	c #71CB8A",
"M.	c #98E300",
"N.	c #79D046",
"O.	c #37AAF6",
"P.	c #34A8E7",
"Q.	c #2DA3E8",
"R.	c #1F9CF3",
"S.	c #7CD10E",
"T.	c #8EDB00",
"U.	c #B1E45C",
"V.	c #1982CA",
"W.	c #4AA3D0",
"X.	c #73CAF7",
"Y.	c #C2E8FA",
"Z.	c #BEE6FB",
"`.	c #B7E4FB",
" +	c #B4E4FE",
".+	c #B1E3FF",
"++	c #ACE1FF",
"@+	c #C0F25B",
"#+	c #BBF33E",
"$+	c #B5EF32",
"%+	c #AFEC25",
"&+	c #ABEC11",
"*+	c #8DDB5D",
"=+	c #86D94F",
"-+	c #9DE700",
";+	c #43AFFF",
">+	c #5DBF9F",
",+	c #3BABEF",
"'+	c #37A9E5",
")+	c #2FA5E2",
"!+	c #27A0E6",
"~+	c #1F9CE2",
"{+	c #6EC825",
"]+	c #A0E10C",
"^+	c #49A2B4",
"/+	c #177BAD",
"(+	c #72BFE5",
"_+	c #69C6F4",
":+	c #BEE5FA",
"<+	c #B4E1FA",
"[+	c #AEE1FB",
"}+	c #ACE0FD",
"|+	c #A9E0FF",
"1+	c #A1DDFF",
"2+	c #BFF62B",
"3+	c #B7F02F",
"4+	c #B0EE26",
"5+	c #AAEB17",
"6+	c #A1E813",
"7+	c #55B9FF",
"8+	c #89DA3B",
"9+	c #90DF15",
"0+	c #79CF56",
"a+	c #41AEF2",
"b+	c #3AABF0",
"c+	c #35A9E4",
"d+	c #30A5E0",
"e+	c #28A0E0",
"f+	c #1C9AE6",
"g+	c #2EA4AE",
"h+	c #8BD900",
"i+	c #82C77B",
"j+	c #157AB9",
"k+	c #1781B6",
"l+	c #7ACBF4",
"m+	c #6DC6F3",
"n+	c #B4E1F9",
"o+	c #A9DDF9",
"p+	c #A5DDFA",
"q+	c #A1DCFA",
"r+	c #9DDBFF",
"s+	c #94D6FF",
"t+	c #BBF41A",
"u+	c #B2EF20",
"v+	c #AAED17",
"w+	c #A3EA08",
"x+	c #A0E900",
"y+	c #93E11A",
"z+	c #8CDB31",
"A+	c #99E400",
"B+	c #9AE400",
"C+	c #8BDC12",
"D+	c #43B0D0",
"E+	c #33A7E7",
"F+	c #2FA5E0",
"G+	c #28A1DD",
"H+	c #209CE0",
"I+	c #0F92EF",
"J+	c #85D500",
"K+	c #95D842",
"L+	c #1580C8",
"M+	c #6FC7F5",
"N+	c #57BDEF",
"O+	c #A9DDF8",
"P+	c #9FDAF7",
"Q+	c #99D8F8",
"R+	c #95D7F8",
"S+	c #90D4FF",
"T+	c #85D0FF",
"U+	c #B2F21F",
"V+	c #ABEE11",
"W+	c #A5EC07",
"X+	c #9DE800",
"Y+	c #9CE700",
"Z+	c #9AE500",
"`+	c #99E300",
" @	c #7DD23C",
".@	c #50B7AA",
"+@	c #32A6E7",
"@@	c #2EA4DF",
"#@	c #27A0DD",
"$@	c #209BDE",
"%@	c #1194E9",
"&@	c #6CC823",
"*@	c #9FE204",
"=@	c #147FCA",
"-@	c #1981B6",
";@	c #63C2F3",
">@	c #50B9EF",
",@	c #94D5F6",
"'@	c #93D5F6",
")@	c #8ED3F6",
"!@	c #88D1F7",
"~@	c #81CFFF",
"{@	c #90DAA7",
"]@	c #B1F300",
"^@	c #A6ED03",
"/@	c #A2EB00",
"(@	c #9FE901",
"_@	c #9DE801",
":@	c #9BE601",
"<@	c #90DE0D",
"[@	c #56BBA3",
"}@	c #34A8EF",
"|@	c #31A6E4",
"1@	c #2CA3DF",
"2@	c #259FDC",
"3@	c #1E9ADC",
"4@	c #1195E4",
"5@	c #4CB563",
"6@	c #9CE100",
"7@	c #1680CA",
"8@	c #1981B7",
"9@	c #56BCF4",
"0@	c #4DB6F2",
"a@	c #67C1F3",
"b@	c #89D0F4",
"c@	c #80CDF4",
"d@	c #7BCBF5",
"e@	c #72C7FF",
"f@	c #90DD7A",
"g@	c #ACF200",
"h@	c #A4ED00",
"i@	c #A2EB01",
"j@	c #9BE500",
"k@	c #9DE600",
"l@	c #57BBAB",
"m@	c #37A9F4",
"n@	c #34A7E7",
"o@	c #30A5E3",
"p@	c #2AA1E1",
"q@	c #229EE0",
"r@	c #1C9ADD",
"s@	c #1395E0",
"t@	c #1898C5",
"u@	c #89D800",
"v@	c #1982C5",
"w@	c #1981B9",
"x@	c #5BC0D1",
"y@	c #86DC6F",
"z@	c #4AB4F5",
"A@	c #6BC3F2",
"B@	c #73C7F1",
"C@	c #6CC4F3",
"D@	c #64C0F9",
"E@	c #63C0E5",
"F@	c #AEF400",
"G@	c #A6EE00",
"H@	c #9EE800",
"I@	c #9CE600",
"J@	c #8CDD1B",
"K@	c #36A8FD",
"L@	c #35A9EC",
"M@	c #31A7EA",
"N@	c #29A3EE",
"O@	c #21A0F0",
"P@	c #1A9CF0",
"Q@	c #1299ED",
"R@	c #0C94EB",
"S@	c #048FE9",
"T@	c #008BE6",
"U@	c #1D84C1",
"V@	c #1A82BA",
"W@	c #47B4E4",
"X@	c #AEF614",
"Y@	c #45B0FA",
"Z@	c #4CB5F0",
"`@	c #5BBCEF",
" #	c #5CBDEE",
".#	c #56BAF2",
"+#	c #51B6FF",
"@#	c #9FE91B",
"##	c #A8F000",
"$#	c #A3EB00",
"%#	c #A1EA00",
"&#	c #A1EB00",
"*#	c #A1E900",
"=#	c #A2E900",
"-#	c #5CBF98",
";#	c #34A9F7",
">#	c #31A8F3",
",#	c #329EAF",
"'#	c #3E8F33",
")#	c #4A8600",
"!#	c #4A8700",
"~#	c #4D8800",
"{#	c #358B31",
"]#	c #0F8AA5",
"^#	c #1A85CD",
"/#	c #1978AB",
"(#	c #319FE6",
"_#	c #A5F027",
":#	c #78D283",
"<#	c #47B2F0",
"[#	c #4CB5EB",
"}#	c #4EB6EB",
"|#	c #50B7EE",
"1#	c #4DB5F9",
"2#	c #77CF85",
"3#	c #A6ED00",
"4#	c #A5EC00",
"5#	c #6CC981",
"6#	c #55BBB6",
"7#	c #81D63C",
"8#	c #46B2CC",
"9#	c #2EA6FE",
"0#	c #3D9457",
"a#	c #599200",
"b#	c #9DC353",
"c#	c #C8E18F",
"d#	c #CFE79A",
"e#	c #C8E28F",
"f#	c #9FC454",
"g#	c #5B9400",
"h#	c #388331",
"i#	c #176891",
"j#	c #2692CF",
"k#	c #57BEBB",
"l#	c #50B8CA",
"m#	c #42AEEB",
"n#	c #47B2E8",
"o#	c #48B3E9",
"p#	c #49B4EA",
"q#	c #48B3EE",
"r#	c #4AB4E8",
"s#	c #6ECB88",
"t#	c #ACF100",
"u#	c #8BDC37",
"v#	c #2FA4FF",
"w#	c #4FB7BE",
"x#	c #6DCA6F",
"y#	c #72D05B",
"z#	c #3D904D",
"A#	c #609803",
"B#	c #CAE392",
"C#	c #ACD45B",
"D#	c #7FBC0B",
"E#	c #68B000",
"F#	c #7DBC08",
"G#	c #ABD45A",
"H#	c #CAE494",
"I#	c #609A0F",
"J#	c #468100",
"K#	c #1E85BC",
"L#	c #37AAE9",
"M#	c #3AABE9",
"N#	c #3EADE7",
"O#	c #40AEE6",
"P#	c #42AFE6",
"Q#	c #43B0E7",
"R#	c #43B0E9",
"S#	c #40AEEE",
"T#	c #42AFE9",
"U#	c #93E123",
"V#	c #AFF300",
"W#	c #84D83C",
"X#	c #A3EC00",
"Y#	c #25A0FF",
"Z#	c #46A987",
"`#	c #579000",
" $	c #C6E289",
".$	c #8BC41C",
"+$	c #74B700",
"@$	c #6DB300",
"#$	c #FFFFFF",
"$$	c #97C938",
"%$	c #71B600",
"&$	c #C6E28D",
"*$	c #57940B",
"=$	c #1A75A3",
"-$	c #2897CE",
";$	c #36AAE5",
">$	c #38A9E4",
",$	c #3AABE4",
"'$	c #3BABE4",
")$	c #3CACE4",
"!$	c #3DACE5",
"~$	c #3BACE6",
"{$	c #38A9EB",
"]$	c #33A7F5",
"^$	c #3EADD5",
"/$	c #5CBF8F",
"($	c #95E10F",
"_$	c #89DD28",
":$	c #388B43",
"<$	c #A0C55B",
"[$	c #95C828",
"}$	c #78BA00",
"|$	c #78B900",
"1$	c #6EB400",
"2$	c #95C831",
"3$	c #75B800",
"4$	c #95C82A",
"5$	c #A0C763",
"6$	c #468500",
"7$	c #1D84B7",
"8$	c #2EA1DC",
"9$	c #33A8E3",
"0$	c #34A7E1",
"a$	c #35A8E2",
"b$	c #36A8E2",
"c$	c #36A9E2",
"d$	c #35A8E3",
"e$	c #2FA4E8",
"f$	c #2AA2ED",
"g$	c #229EF6",
"h$	c #65C96D",
"i$	c #478400",
"j$	c #B9DB6A",
"k$	c #78BB00",
"l$	c #74B900",
"m$	c #71B700",
"n$	c #68B200",
"o$	c #90C622",
"p$	c #6EB600",
"q$	c #73B800",
"r$	c #77BB00",
"s$	c #B8DB6D",
"t$	c #478900",
"u$	c #1F87BC",
"v$	c #2CA4DF",
"w$	c #2DA4E1",
"x$	c #2DA3DF",
"y$	c #2BA2DE",
"z$	c #239FE6",
"A$	c #1D9BE6",
"B$	c #5E9300",
"C$	c #A1D235",
"D$	c #76BB00",
"E$	c #9ECE3A",
"F$	c #A0D235",
"G$	c #4B8C00",
"H$	c #186992",
"I$	c #208ABE",
"J$	c #26A0DE",
"K$	c #28A1DF",
"L$	c #29A1DE",
"M$	c #26A0DD",
"N$	c #239EDB",
"O$	c #1E9CE0",
"P$	c #1E98CC",
"Q$	c #568E00",
"R$	c #96CC17",
"S$	c #7ABD00",
"T$	c #A1D13C",
"U$	c #94CC17",
"V$	c #4C8D00",
"W$	c #1A6F9A",
"X$	c #1E88BC",
"Y$	c #219BD7",
"Z$	c #229FDD",
"`$	c #229DDC",
" %	c #229DDB",
".%	c #219DDB",
"+%	c #209CDA",
"@%	c #1E9BDA",
"#%	c #1C9AD9",
"$%	c #1999DB",
"%%	c #1297EC",
"&%	c #508900",
"*%	c #88C500",
"=%	c #83C300",
"-%	c #7CBE00",
";%	c #77BC00",
">%	c #6FB800",
",%	c #96CB22",
"'%	c #75BB00",
")%	c #7BBE00",
"!%	c #81C200",
"~%	c #86C500",
"{%	c #498A00",
"]%	c #1F85B8",
"^%	c #1D91CA",
"/%	c #1B9ADA",
"(%	c #1A9ADB",
"_%	c #1999D9",
":%	c #1998D9",
"<%	c #1897D7",
"[%	c #1696D7",
"}%	c #1395D9",
"|%	c #0B94E5",
"1%	c #3A8C38",
"2%	c #77B300",
"3%	c #8AC800",
"4%	c #79BE00",
"5%	c #9ED132",
"6%	c #74B300",
"7%	c #458000",
"8%	c #1B74A0",
"9%	c #1F86BA",
"0%	c #1C8CC5",
"a%	c #1791CF",
"b%	c #1295D7",
"c%	c #0E95D8",
"d%	c #0E94D7",
"e%	c #0B93D7",
"f%	c #0590DE",
"g%	c #148CA9",
"h%	c #579200",
"i%	c #8EC900",
"j%	c #8CCA00",
"k%	c #88C700",
"l%	c #80C300",
"m%	c #A6D43D",
"n%	c #86C600",
"o%	c #8BC900",
"p%	c #8DC900",
"q%	c #519200",
"r%	c #166085",
"s%	c #1D78A5",
"t%	c #2085B8",
"u%	c #2087BB",
"v%	c #2086BD",
"w%	c #1B85CC",
"x%	c #3B8233",
"y%	c #589700",
"z%	c #8FCB00",
"A%	c #8FCD00",
"B%	c #8AC900",
"C%	c #85C600",
"D%	c #84C600",
"E%	c #89C900",
"F%	c #8FCC00",
"G%	c #569600",
"H%	c #407600",
"I%	c #407200",
"J%	c #539100",
"K%	c #79B600",
"L%	c #90CD00",
"M%	c #94D100",
"N%	c #78B600",
"O%	c #529100",
"P%	c #3F7400",
"Q%	c #437C00",
"R%	c #498900",
"                      . + @ # $ % & *                           ",
"                = - ; > , ' ) ! ~ { ] ^ / (                     ",
"              _ : < [ } | 1 2 3 4 5 6 7 8 9 0                   ",
"          a b c d e f g h i j k l m n o p q r s t               ",
"        u v w x y z A B C D E F G H I J K L M N O P             ",
"        Q R S T U V W X Y Z `  ...+.@.#.$.%.&.*.=.-.            ",
"      ;.>.,.'.).!.~.{.].^./.(._.:.<.[.}.|.1.2.3.4.5.6.          ",
"    7.8.9.0.a.b.c.d.e.f.g.h.i.j.k.l.m.n.o.p.q.r.s.t.u.v.        ",
"    w.x.y.z.A.B.C.D.E.F.G.H.I.J.K.L.M.N.O.P.Q.R.S.T.U.V.        ",
"    W.X.Y.Z.`. +.+++@+#+$+%+&+*+=+-+;+>+,+'+)+!+~+{+]+^+        ",
"  /+(+_+:+<+[+}+|+1+2+3+4+5+6+7+8+9+0+a+b+c+d+e+f+g+h+i+j+      ",
"  k+l+m+n+o+p+q+r+s+t+u+v+w+x+y+z+A+B+C+D+E+F+G+H+I+J+K+L+      ",
"  k+M+N+O+P+Q+R+S+T+U+V+W+x+X+Y+Z+M.`+ @.@+@@@#@$@%@&@*@=@      ",
"  -@;@>@,@'@)@!@~@{@]@^@/@(@_@:@B+A+<@[@}@|@1@2@3@4@5@6@7@      ",
"  8@9@0@a@b@c@d@e@f@g@h@i@(@_@:@j@k@l@m@n@o@p@q@r@s@t@u@v@      ",
"  w@x@y@z@A@B@C@D@E@F@G@i@(@H@I@k@J@K@L@M@N@O@P@Q@R@S@T@U@      ",
"  V@W@X@Y@Z@`@ #.#+#@###$#%#&#*#=#-#;#>#,#'#)#)#!#~#{#]#^#      ",
"  /#(#_#:#<#[#}#|#1#2#G@3#4#5#6#7#8#9#0#a#b#c#d#d#e#f#g#h#      ",
"  i#j#k#l#m#n#o#p#q#r#s#t#u#v#w#x#y#z#A#B#C#D#E#E#F#G#H#I#J#    ",
"    K#L#M#N#O#P#Q#R#S#T#U#V#W#X#Y#Z#`# $.$+$@$#$#$$$%$.$&$*$    ",
"    =$-$;$>$,$'$)$!$~${$]$^$/$($_$:$<$[$}$|$1$#$#$2$3$|$4$5$6$  ",
"      7$8$9$0$a$b$c$a$d$|@e$f$g$h$i$j$k$l$m$n$#$#$o$p$q$r$s$t$  ",
"        u$v$w$@@F+F+F+@@x$y$e+z$A$B$C$D$#$#$#$#$#$#$#$#$E$F$G$  ",
"        H$I$J$K$G+L$G+#@M$2@N$O$P$Q$R$S$#$#$#$#$#$#$#$#$T$U$V$  ",
"          W$X$Y$Z$`$ %.%+%@%#%$%%%&%*%=%-%;%>%#$#$,%'%)%!%~%{%  ",
"              ]%^%/%(%_%:%<%[%}%|%1%2%3%~%=%4%#$#$5%!%~%3%6%7%  ",
"                8%9%0%a%b%c%d%e%f%g%h%i%j%k%l%#$#$m%n%o%p%q%    ",
"                    r%s%t%t%u%u%v%w%x%y%z%A%B%C%D%E%F%z%G%H%    ",
"                                      I%J%K%L%M%M%L%N%O%P%      ",
"                                          Q%{%R%R%{%Q%          ",
"                                                                ",
"                                                                "};
