/* XPM */
static const char * NewWorld_xpm[] = {
"32 32 48 1",
" 	c None",
".	c #F3F1F1",
"+	c #EFF0F1",
"@	c #F1F0F1",
"#	c #414042",
"$	c #D7E3F2",
"%	c #96C2F5",
"&	c #9AC4F5",
"*	c #DAE4F2",
"=	c #96C3F5",
"-	c #0378FC",
";	c #9FC7F5",
">	c #F0F0F1",
",	c #91BFF5",
"'	c #9EC6F5",
")	c #F2F1F1",
"!	c #F1F1F1",
"~	c #ACCEF4",
"{	c #E9ECF1",
"]	c #CBDDF3",
"^	c #BDD6F3",
"/	c #BCD5F4",
"(	c #82B8F6",
"_	c #BED6F3",
":	c #C9DCF3",
"<	c #D1E0F3",
"[	c #E8EBF2",
"}	c #C6DAF3",
"|	c #BBD5F4",
"1	c #B9D4F4",
"2	c #1B84FB",
"3	c #1F86FB",
"4	c #1A83FB",
"5	c #2288FB",
"6	c #99C3F5",
"7	c #E2E8F2",
"8	c #B3D1F4",
"9	c #6CADF7",
"0	c #77B3F7",
"a	c #91C0F5",
"b	c #D5E2F2",
"c	c #BAD4F4",
"d	c #ABCDF4",
"e	c #A5CAF5",
"f	c #D9E3F3",
"g	c #85BAF6",
"h	c #5CA5F8",
"i	c #BFD6F3",
"     ..+@.    #####             ",
"   ...$%&*.. #########          ",
"  ...@=--;>.. ##########        ",
"  ...@,--')..  #  ########      ",
" ..))!;--~!)).       ######     ",
" .{]^/(--(_:<[  ##     #####    ",
" )}----------|  ##      ####    ",
" @1------23456  ##    #######   ",
" .78';9--0%a;b  ##   #########  ",
"  .)@>6--c>>>           ######  ",
"  ...@%--c...      ##   ####### ",
" # ..@d--e@.      ###  ######## ",
" ##  .fghi         ############ ",
"####                 ###########",
" ######  ##          ###########",
" ##########         ###  #######",
" ### ####           ###  #######",
" ### ###            ###  ##  ###",
"#### ##              #   #  ####",
"#### ######                 ### ",
" ###  ######       ############ ",
" #### ######      ############# ",
"  ##########      ############  ",
"   ########       ############  ",
"   ####  ###      ###########   ",
"    ####  ##         #######    ",
"     ####  ##        #######    ",
"      #######         #####     ",
"       ####### ##########       ",
"        ################        ",
"          ############          ",
"              ####              "};
