/* XPM */
static const char * open_xpm[] = {
"16 16 223 2",
"  	c #FEFDFE",
". 	c #FEFDFA",
"+ 	c #FEFDFB",
"@ 	c #FFFDFC",
"# 	c #F7F5F2",
"$ 	c #E5E5E0",
"% 	c #E8E9E7",
"& 	c #E8E9E9",
"* 	c #E7E9E6",
"= 	c #E7E7E9",
"- 	c #E6E5E6",
"; 	c #FBFCFC",
"> 	c #FDFEFD",
", 	c #FDFEFE",
"' 	c #FAFDFC",
") 	c #FBFEFF",
"! 	c #FEFEFF",
"~ 	c #FEFEFE",
"{ 	c #FEFDFF",
"] 	c #E2E3E1",
"^ 	c #C8C9C6",
"/ 	c #D7DBDA",
"( 	c #D6DADA",
"_ 	c #D5D7D5",
": 	c #D3D3D5",
"< 	c #AFAFB2",
"[ 	c #8B8B8A",
"} 	c #FFFFFF",
"| 	c #FDFEFF",
"1 	c #EBEDEC",
"2 	c #E7E7E8",
"3 	c #E7E8EA",
"4 	c #CECFD0",
"5 	c #CACBCA",
"6 	c #D5D6D6",
"7 	c #C3C3C5",
"8 	c #C3C2C0",
"9 	c #BEBCBE",
"0 	c #CFCCCC",
"a 	c #D7D6D2",
"b 	c #999894",
"c 	c #FDFCFA",
"d 	c #FEFEFC",
"e 	c #FFFEFC",
"f 	c #F1F1F0",
"g 	c #A3A39F",
"h 	c #A3A2A2",
"i 	c #A4A4AA",
"j 	c #878888",
"k 	c #DADAD8",
"l 	c #DDDCDB",
"m 	c #ADABAC",
"n 	c #A8A3A0",
"o 	c #A4A09D",
"p 	c #E6E2E3",
"q 	c #C7C4C4",
"r 	c #A8A8A7",
"s 	c #E4E4E3",
"t 	c #FFFEFE",
"u 	c #FEFEFB",
"v 	c #EFEEEB",
"w 	c #B3B1AD",
"x 	c #A6A6A8",
"y 	c #A2A5AD",
"z 	c #8A8F94",
"A 	c #A8AEB0",
"B 	c #DCE1E4",
"C 	c #CFD2D7",
"D 	c #D4D5D6",
"E 	c #D0D1D6",
"F 	c #C9C9D1",
"G 	c #C8CAD1",
"H 	c #CCD1D7",
"I 	c #E0E4E5",
"J 	c #FBFCFE",
"K 	c #EEEEEE",
"L 	c #9EA1A3",
"M 	c #98A0A8",
"N 	c #99A5B6",
"O 	c #778695",
"P 	c #E6F6F9",
"Q 	c #ECFDFF",
"R 	c #B8C7D8",
"S 	c #B0BFCC",
"T 	c #B2C2D2",
"U 	c #B4C1D5",
"V 	c #AAB7CA",
"W 	c #E3F2F5",
"X 	c #E6F0F2",
"Y 	c #EDEEEF",
"Z 	c #9FA6A9",
"` 	c #84929E",
" .	c #697C94",
"..	c #7189A1",
"+.	c #59748E",
"@.	c #5E7992",
"#.	c #607995",
"$.	c #69849B",
"%.	c #617C9A",
"&.	c #647E9D",
"*.	c #677F99",
"=.	c #5C7690",
"-.	c #647990",
";.	c #78838F",
">.	c #ECEBED",
",.	c #949A9F",
"'.	c #7D8A99",
").	c #ABC1DE",
"!.	c #96B1CE",
"~.	c #99B8D5",
"{.	c #98B7D6",
"].	c #97B5D6",
"^.	c #96B6D4",
"/.	c #96B6DA",
"(.	c #97B8DC",
"_.	c #92B2D4",
":.	c #9BBCDF",
"<.	c #A1BDDB",
"[.	c #A7B6C5",
"}.	c #FDFFFF",
"|.	c #A8ABAF",
"1.	c #82909F",
"2.	c #9EB4D3",
"3.	c #98B7D5",
"4.	c #97B6D6",
"5.	c #98B6D8",
"6.	c #96B5D4",
"7.	c #95B6DA",
"8.	c #91B3DA",
"9.	c #94B7DD",
"0.	c #8BB2D9",
"a.	c #95B5D5",
"b.	c #9DAFC2",
"c.	c #FCFFFF",
"d.	c #9FA5AB",
"e.	c #7A8B9E",
"f.	c #A5BFE2",
"g.	c #99B9DE",
"h.	c #9ABCE0",
"i.	c #97B9DD",
"j.	c #9BBAE0",
"k.	c #9BBCDE",
"l.	c #98B9E0",
"m.	c #97B9E3",
"n.	c #95BAE3",
"o.	c #83AAD4",
"p.	c #A6C7E8",
"q.	c #95A8BA",
"r.	c #9DA3AE",
"s.	c #788BA2",
"t.	c #9FBCE1",
"u.	c #90B5DE",
"v.	c #8DB4DD",
"w.	c #8DB5DC",
"x.	c #8CB1D9",
"y.	c #8DB0D8",
"z.	c #88AEDA",
"A.	c #86ACDA",
"B.	c #83A9D7",
"C.	c #80A9D6",
"D.	c #A4C4E9",
"E.	c #8496A8",
"F.	c #FEFFFF",
"G.	c #9599A8",
"H.	c #6C7E99",
"I.	c #88A8CE",
"J.	c #749DCA",
"K.	c #72A0CD",
"L.	c #719ECB",
"M.	c #709CC6",
"N.	c #739DCA",
"O.	c #739CCB",
"P.	c #729DCE",
"Q.	c #749FD1",
"R.	c #729CCF",
"S.	c #94B7DF",
"T.	c #75899D",
"U.	c #FBFFFF",
"V.	c #919EA8",
"W.	c #637D96",
"X.	c #769CC3",
"Y.	c #6B98C8",
"Z.	c #6D9CCF",
"`.	c #6C9CCD",
" +	c #6D9CCB",
".+	c #6F9BCA",
"++	c #6E9CCD",
"@+	c #709DCE",
"#+	c #6E9AC8",
"$+	c #729ECD",
"%+	c #759BC0",
"&+	c #8BA2B5",
"*+	c #FAFFFF",
"=+	c #83939F",
"-+	c #5D7691",
";+	c #7294BC",
">+	c #7098C7",
",+	c #6F97CA",
"'+	c #7199C9",
")+	c #739AC8",
"!+	c #7298C6",
"~+	c #729AC8",
"{+	c #7599C7",
"]+	c #789CC4",
"^+	c #779BC5",
"/+	c #6886A7",
"(+	c #9EB1C3",
"_+	c #9CA2AC",
":+	c #758293",
"<+	c #72849C",
"[+	c #6B809D",
"}+	c #6D839E",
"|+	c #6C829B",
"1+	c #6E829A",
"2+	c #6E819C",
"3+	c #6E8299",
"4+	c #6D8196",
"5+	c #70869B",
"6+	c #6B7C8F",
"7+	c #FFFAF9",
"8+	c #FFFEFF",
"9+	c #FFFFFD",
"0+	c #FEFEFA",
"  . + @ # $ % & * = - ; > , ' ) ",
"! ~ ~ { ] ^ / ( _ : < [ } + ~ | ",
"| 1 2 3 4 5 6 7 8 9 0 a b c d e ",
"f g h i j k l m n o p q r s t u ",
"v w x y z A B C D E F G H I J e ",
"K L M N O P Q R S T U V W X } , ",
"Y Z `  ...+.@.#.$.%.&.*.=.-.;.} ",
">.,.'.).!.~.{.].^./.(._.:.<.[.}.",
"} |.1.2.3.4.4.5.6.7.8.9.0.a.b.c.",
"} d.e.f.g.h.i.j.k.l.m.n.o.p.q.c.",
"} r.s.t.u.v.w.x.y.z.A.B.C.D.E.F.",
"} G.H.I.J.K.L.M.N.O.P.Q.R.S.T.}.",
"U.V.W.X.Y.Z.`. +.+++@+#+$+%+&+U.",
"*+=+-+;+>+,+'+)+!+~+{+]+^+/+(+U.",
"}._+:+<+[+}+|+1+1+2+3+4+5+6+} , ",
"7+8+} } } } } 9+} } } } c.}.> 0+"};
