/* XPM */
static char * PasteIcon_xpm[] = {
"29 29 59 1",
" 	c None",
".	c #4D9AEF",
"+	c #4B99EF",
"@	c #4796EE",
"#	c #4595EE",
"$	c #4696EE",
"%	c #519CEF",
"&	c #75B0F2",
"*	c #7DB5F3",
"=	c #7BB4F3",
"-	c #539DEF",
";	c #4A99EF",
">	c #4093EE",
",	c #3F92EE",
"'	c #4C99EF",
")	c #4092EE",
"!	c #73B0F2",
"~	c #EDF5FD",
"{	c #FFFFFF",
"]	c #F8FBFE",
"^	c #7FB6F3",
"/	c #4193EE",
"(	c #81B7F3",
"_	c #A4CBF7",
":	c #4695EE",
"<	c #4C9AEF",
"[	c #A6CCF6",
"}	c #CBE2FA",
"|	c #D2E5FA",
"1	c #A9CEF7",
"2	c #3D91EE",
"3	c #B7D6F8",
"4	c #FEFFFF",
"5	c #3E91ED",
"6	c #E5F0FC",
"7	c #4E9AEF",
"8	c #3C90ED",
"9	c #B8D6F8",
"0	c #388EED",
"a	c #60A4F0",
"b	c #63A6F1",
"c	c #63A7F1",
"d	c #569FEF",
"e	c #2E88EC",
"f	c #308AEC",
"g	c #2F89EC",
"h	c #F5F9FE",
"i	c #F2F7FE",
"j	c #F2F8FE",
"k	c #AED1F7",
"l	c #FBFCFE",
"m	c #AED0F7",
"n	c #4897EE",
"o	c #6DACF1",
"p	c #8FBFF4",
"q	c #92C1F5",
"r	c #4897EF",
"s	c #4495EE",
"t	c #4394EE",
"    .....................    ",
"   .......................   ",
"  ..........+@#$+..........  ",
" ..........+%&*=-;.......... ",
"......$>,'+)!~{]^/+',)$......",
".....$(__:<[}{{{|1':__($.....",
".....234{5.6{{{{{675{432.....",
".....89{{0+abccbba+0{{38.....",
".....89{{defgggggfed{{38.....",
".....89{{hijjjjjjjih{{38.....",
".....89{{{{{{{{{{{{{{{38.....",
".....89{{{{{{{{{{{{{{{38.....",
".....89{{{{{{{{{{{{{{{38.....",
".....89{{{{{{{{{{{{{{{38.....",
".....89{{{{{{{{{{{{{{{38.....",
".....89{{{{{{{{{{{{{{{38.....",
".....89{{{{{{{{{{{{{{{38.....",
".....89{{{{{{{{{{{{{{{38.....",
".....89{{{{{{{{{{{{{{{38.....",
".....89{{{{{{{{{{{{{{{38.....",
".....89{{{{{{{{{{{{{{{38.....",
".....89{{{{{{{{{{{{{{{98.....",
".....89{{{{{{{{{{{{{{{38.....",
".....,kl{{{{{{{{{{{{{lm,.....",
".....nopqqqqqqqqqqqqqpon.....",
" .....rstttttttttttttsr..... ",
"  .........................  ",
"   .......................   ",
"    .....................    "};
