/* XPM */
static char * PasteIcon_xpm[] = {
"32 32 90 1",
" 	c None",
".	c #FEFEFE",
"+	c #F4F4F4",
"@	c #E4E4E4",
"#	c #FFFFFF",
"$	c #F1F1F1",
"%	c #A9A9A9",
"&	c #626262",
"*	c #535353",
"=	c #FBFBFB",
"-	c #E3E3E3",
";	c #777777",
">	c #2C2C2C",
",	c #333333",
"'	c #B4B4B4",
")	c #EBEBEB",
"!	c #888888",
"~	c #474747",
"{	c #292929",
"]	c #252525",
"^	c #404040",
"/	c #414141",
"(	c #4E4E4E",
"_	c #FDFEFF",
":	c #F2F8FC",
"<	c #E7E8E9",
"[	c #494949",
"}	c #B2B4B5",
"|	c #CED9DF",
"1	c #CCD7DF",
"2	c #FDFDFE",
"3	c #FDFDFD",
"4	c #BCDDF0",
"5	c #79BAE2",
"6	c #CFD9E0",
"7	c #D1DADF",
"8	c #81BEE3",
"9	c #6FB4E0",
"0	c #6EB4E0",
"a	c #D1D9DF",
"b	c #CFD8DE",
"c	c #7BB9E0",
"d	c #BBDBEF",
"e	c #FCFDFD",
"f	c #EFF7FB",
"g	c #64AFDD",
"h	c #56A8DA",
"i	c #D3DFE6",
"j	c #4D4D4D",
"k	c #CFD9DF",
"l	c #343434",
"m	c #D1DDE4",
"n	c #57A7DA",
"o	c #65AEDC",
"p	c #EDF5F9",
"q	c #E7F3FA",
"r	c #E5F0F7",
"s	c #595959",
"t	c #515151",
"u	c #5B5B5B",
"v	c #5C5C5C",
"w	c #525252",
"x	c #E4EFF6",
"y	c #58A7D9",
"z	c #57A8D9",
"A	c #E6F1F8",
"B	c #F2F2F2",
"C	c #E6E6E6",
"D	c #E2E2E2",
"E	c #E5E5E5",
"F	c #F0F0F0",
"G	c #FCFCFC",
"H	c #E5F1F8",
"I	c #E6F2F9",
"J	c #58A8D9",
"K	c #E5F0F8",
"L	c #57A7D9",
"M	c #E6F1F9",
"N	c #56A7D9",
"O	c #59A8D9",
"P	c #57A8DA",
"Q	c #E6F2F8",
"R	c #57A7D8",
"S	c #55A6D8",
"T	c #D2E7F5",
"U	c #D2E8F5",
"V	c #53A6D9",
"W	c #419DD6",
"X	c #53A6DA",
"Y	c #3E9BD5",
"..............+@@+..............",
".###########$%&**&%$###########.",
".#########=-;>,'',>;-=#########.",
".########)!~{],'',]{~!)########.",
".#######=!{,^^/((/^^,{!=#######.",
".#####_:<[,}|111111|},[<:23.###.",
".####_456^^789990008a^^bcde.###.",
".####fghij,}k111111|}ljmnop..##.",
".####qhhr'stuvvvvvvuwu'xyzA33##.",
".####qhhq.BC@@@@@-DDEFGHnyI.3.#.",
".####qhhq####.3333..333HyJK3..#.",
".####qhhq##.3.###3G3.33ILLI333..",
".####qhhq##3.##.33#3333HLzH.333.",
".####qhhq#3.#.33##333.3AyLM3..#.",
".####qhhI#3#33.#.GG=3..rLLK.###.",
".####qhNA.G3.#.3G=..33.MOPq####.",
".####INyQ33..3G3G..3G33HPhq####.",
".###3MLLK.3.GGG3.33...#qhhq####.",
"..333ALLI33.G3..3.##3##qhhq####.",
".3..3HLLH.33..3.###3.##qhhq####.",
"..3..AyLM3.3GG.##.3.###qhhq####.",
".#.33ALyM.3.333333.####qhhq####.",
".#..3AyLH3.3.##########qhhq####.",
".##..ALOI33.###########qhhq####.",
".###3AzLH##############qhhq####.",
".###.ARSTqqqqqqqqqqqqqqUVhq####.",
".####IhWXhhhhhhhhhhhhhhXWhq####.",
".####qhYYYYYYYYYYYYYYYYYYhq####.",
".####fgYYYYYYYYYYYYYYYYYYgf####.",
".####_4ghhhhhhhhhhhhhhhhg4_####.",
".#####_fqqqqqqqqqqqqqqqqf_#####.",
"................................"};
