/* XPM */
static char * PasteIcon_xpm[] = {
"32 39 331 2",
"  	c None",
". 	c #EDF2F8",
"+ 	c #DEE8F5",
"@ 	c #DCE7F4",
"# 	c #DBE6F3",
"$ 	c #DAE5F3",
"% 	c #C8D2DE",
"& 	c #95A0A8",
"* 	c #93A2AB",
"= 	c #A3B0B6",
"- 	c #ABB5BC",
"; 	c #C9D3DF",
"> 	c #D7E2F0",
", 	c #D9E5F3",
"' 	c #99A5AE",
") 	c #C1C9D1",
"! 	c #FFFFFF",
"~ 	c #677782",
"{ 	c #99A0A5",
"] 	c #CDD9E6",
"^ 	c #D6E2F0",
"/ 	c #D8E4F2",
"( 	c #C9C2B4",
"_ 	c #BFA883",
": 	c #BFA984",
"< 	c #C0A884",
"[ 	c #BFA985",
"} 	c #BFA885",
"| 	c #77828A",
"1 	c #AD956D",
"2 	c #816F51",
"3 	c #D2DFEF",
"4 	c #77808A",
"5 	c #C0AB86",
"6 	c #C1AA87",
"7 	c #C1AB87",
"8 	c #C1AB88",
"9 	c #C2AB87",
"0 	c #C6BFB5",
"a 	c #D4E0EE",
"b 	c #D7E3F1",
"c 	c #D7E3F2",
"d 	c #D2C4A8",
"e 	c #FBE1A3",
"f 	c #FBE0A3",
"g 	c #BEC1B0",
"h 	c #849099",
"i 	c #AD946C",
"j 	c #D8E2F1",
"k 	c #747D87",
"l 	c #BEBFB0",
"m 	c #FADE9F",
"n 	c #F9DE9F",
"o 	c #F9DD9E",
"p 	c #CAB275",
"q 	c #C6AB7A",
"r 	c #CAD5E3",
"s 	c #D3DFEE",
"t 	c #D6E2F2",
"u 	c #F7CF74",
"v 	c #F8D075",
"w 	c #F8D074",
"x 	c #6F7780",
"y 	c #E7F2FF",
"z 	c #CCDBEA",
"A 	c #C6D7E5",
"B 	c #C2D2E1",
"C 	c #98A5AF",
"D 	c #646D73",
"E 	c #F3C767",
"F 	c #C7AB7A",
"G 	c #C1CBDA",
"H 	c #CFDAEA",
"I 	c #D5E2F1",
"J 	c #FADFA3",
"K 	c #F7D073",
"L 	c #F8CF74",
"M 	c #737D86",
"N 	c #E8EFF8",
"O 	c #99A2AE",
"P 	c #A3AFB8",
"Q 	c #A3ACB8",
"R 	c #A2ABB6",
"S 	c #9CA6B2",
"T 	c #929FA9",
"U 	c #8A969F",
"V 	c #939FAB",
"W 	c #636C71",
"X 	c #C7AA7A",
"Y 	c #BDC9D6",
"Z 	c #CDDAE8",
"` 	c #D4E1F1",
" .	c #C0A985",
"..	c #FADFA2",
"+.	c #F8CF73",
"@.	c #F7CF73",
"#.	c #99927D",
"$.	c #606A70",
"%.	c #5D696D",
"&.	c #616C71",
"*.	c #636D71",
"=.	c #616D73",
"-.	c #616D71",
";.	c #847F64",
">.	c #C6A97A",
",.	c #BCC8D6",
"'.	c #CCD9E8",
").	c #D3E0F1",
"!.	c #C0AA86",
"~.	c #F7CE71",
"{.	c #F7CE72",
"].	c #F6CE71",
"^.	c #F6CD71",
"/.	c #F6CC6F",
"(.	c #F5CB6E",
"_.	c #F5CB6C",
":.	c #F4CA6B",
"<.	c #F4C96A",
"[.	c #F4C869",
"}.	c #F3C867",
"|.	c #C5A979",
"1.	c #BBC7D6",
"2.	c #CBD8E8",
"3.	c #D2DFF0",
"4.	c #FADFA1",
"5.	c #F7CD70",
"6.	c #F6CD70",
"7.	c #F7CD71",
"8.	c #F5CA6D",
"9.	c #F3C868",
"0.	c #C5A878",
"a.	c #BAC6D5",
"b.	c #CAD7E7",
"c.	c #D1DFF0",
"d.	c #FADEA0",
"e.	c #F6CA6D",
"f.	c #F5CA6C",
"g.	c #F4C868",
"h.	c #F4C768",
"i.	c #C5A777",
"j.	c #C9D7E7",
"k.	c #C7D8ED",
"l.	c #F9DD9F",
"m.	c #F5CB6D",
"n.	c #F5CA6B",
"o.	c #F4C96B",
"p.	c #F4C969",
"q.	c #C3A575",
"r.	c #B1C0D2",
"s.	c #BFD0E4",
"t.	c #C2AC88",
"u.	c #F5C96A",
"v.	c #B2C0D2",
"w.	c #B1BFD1",
"x.	c #B0BED1",
"y.	c #AEBDCF",
"z.	c #ADBCCE",
"A.	c #ABBACD",
"B.	c #AAB8CB",
"C.	c #A8B7CA",
"D.	c #A5B5C8",
"E.	c #A4B2C5",
"F.	c #A2B1C5",
"G.	c #C2A475",
"H.	c #C2AC89",
"I.	c #F8DD9D",
"J.	c #F4CA6A",
"K.	c #F3C869",
"L.	c #B2C0D1",
"M.	c #FEFFFF",
"N.	c #FFFEFF",
"O.	c #FEFEFF",
"P.	c #FEFEFE",
"Q.	c #A1B0C4",
"R.	c #8E9DAD",
"S.	c #DDBC6F",
"T.	c #C2A374",
"U.	c #C3AD8A",
"V.	c #F8DC9D",
"W.	c #FEFFFE",
"X.	c #FDFEFE",
"Y.	c #9FAFC3",
"Z.	c #A5B2C0",
"`.	c #7F8FA0",
" +	c #B49D7B",
".+	c #C2AD89",
"++	c #F8DB9C",
"@+	c #F3C768",
"#+	c #B0BED0",
"$+	c #E0E0E0",
"%+	c #DFE0E1",
"&+	c #DEDFE1",
"*+	c #DEDEE1",
"=+	c #FDFDFE",
"-+	c #9FAEC1",
";+	c #D4DBE6",
">+	c #94A3B2",
",+	c #6C7E91",
"'+	c #A6B5C9",
")+	c #BFCFE3",
"!+	c #C8D8ED",
"~+	c #F8DC9C",
"{+	c #AFBECF",
"]+	c #FDFEFF",
"^+	c #FDFDFF",
"/+	c #FCFDFE",
"(+	c #FCFCFE",
"_+	c #9EADC1",
":+	c #EBF0F9",
"<+	c #D5DCE7",
"[+	c #B0BBC9",
"}+	c #5A6D81",
"|+	c #AFBFD3",
"1+	c #C4D4E9",
"2+	c #C3AE8A",
"3+	c #F7DB9A",
"4+	c #DCDEE1",
"5+	c #DBDDE1",
"6+	c #9CACC0",
"7+	c #7A8B9C",
"8+	c #627488",
"9+	c #BDCCDF",
"0+	c #C5D5EA",
"a+	c #C3AE8B",
"b+	c #FFFEFE",
"c+	c #FBFCFE",
"d+	c #FBFCFD",
"e+	c #FAFBFD",
"f+	c #FAFCFD",
"g+	c #B5C3D6",
"h+	c #C2D2E6",
"i+	c #C4AE8B",
"j+	c #F7DA9A",
"k+	c #ACBBCE",
"l+	c #DADEE2",
"m+	c #D9DCE1",
"n+	c #DADDE2",
"o+	c #D8DBE1",
"p+	c #FBFBFD",
"q+	c #F9FBFD",
"r+	c #F9FAFC",
"s+	c #F9FAFD",
"t+	c #C0D0E4",
"u+	c #C8D9ED",
"v+	c #C4AE8C",
"w+	c #F7DA99",
"x+	c #FCFCFD",
"y+	c #FBFBFE",
"z+	c #FAFAFD",
"A+	c #F8FAFC",
"B+	c #F8FAFD",
"C+	c #B2C1D2",
"D+	c #C0D1E4",
"E+	c #C9D9ED",
"F+	c #D7DBE2",
"G+	c #D6DBE1",
"H+	c #D6DAE2",
"I+	c #D5DBE2",
"J+	c #D4D9E3",
"K+	c #D3DBE2",
"L+	c #D3D9E2",
"M+	c #D3D7E1",
"N+	c #D3D8E2",
"O+	c #F8F9FC",
"P+	c #F7F9FD",
"Q+	c #C1D1E4",
"R+	c #C4AF8D",
"S+	c #A7B6C9",
"T+	c #F6F8FC",
"U+	c #F6F7FC",
"V+	c #F5F7FC",
"W+	c #C4B08D",
"X+	c #F5F6FC",
"Y+	c #F5F6FB",
"Z+	c #CAD9ED",
"`+	c #FDFCFE",
" @	c #FAFBFE",
".@	c #F7F9FC",
"+@	c #F6F7FB",
"@@	c #F4F7FB",
"#@	c #F4F6FB",
"$@	c #F3F6FB",
"%@	c #B3C1D2",
"&@	c #C2D1E4",
"*@	c #CBDAEE",
"=@	c #C5B08E",
"-@	c #F6D998",
";@	c #F3F5FB",
">@	c #B4C2D3",
",@	c #C3D2E5",
"'@	c #DBC696",
")@	c #F7F8FC",
"!@	c #F6F8FB",
"~@	c #F5F7FB",
"{@	c #F4F6FA",
"]@	c #F3F5FA",
"^@	c #F2F5FB",
"/@	c #BFBAB4",
"(@	c #B79E7B",
"_@	c #B79664",
":@	c #FCFDFD",
"<@	c #F2F5FA",
"[@	c #F2F4FA",
"}@	c #CBDBEE",
"|@	c #C7D7EA",
"1@	c #BFCEE0",
"2@	c #B8C7D8",
"3@	c #B5C3D4",
"4@	c #F1F4FA",
"5@	c #F1F3FA",
"6@	c #C3D3E5",
"7@	c #CCDBEE",
"8@	c #CBDAED",
"9@	c #C8D7EA",
"0@	c #C6D4E7",
"a@	c #C4D3E5",
"b@	c #F5F8FB",
"c@	c #F1F3F9",
"d@	c #F0F4FA",
"e@	c #F0F3F9",
"f@	c #B5C2D3",
"g@	c #CCDCEE",
"h@	c #A6B5C8",
"i@	c #7E8FA0",
"j@	c #697B8E",
"k@	c #B5C3D3",
"l@	c #C4D4E5",
"m@	c #C6D5E7",
"n@	c #BBC9DA",
"o@	c #CADAEC",
"p@	c #CDDCEE",
". . . . . . . . . . . . . . . . . . . . . . . . . . . . . . . . ",
"+ + + + + + + + + + + + + + + + + + + + + + + + + + + + + + + + ",
"@ @ @ @ @ @ @ @ @ @ @ @ @ @ @ @ @ @ @ @ @ @ @ @ @ @ @ @ @ @ @ @ ",
"# # # # # # # # # # # # # # # # # # # # # # # # # # # # # # # # ",
"$ $ $ $ $ $ $ $ $ $ $ $ $ % & * = - ; > $ $ $ $ $ $ $ $ $ $ $ $ ",
", , , , , , , , , , , , , ' ) ! ! ~ { ] ^ , , , , , , , , , , , ",
"/ / / / ( _ _ : _ < [ } [ | ! 1 2 3 4 5 5 6 6 7 8 9 9 0 a b / / ",
"c c c c _ d e e f g = = = h ! 2 i j k h = = l m n o p q r s c c ",
"t t t t : f u v w x ! ! ! ! ! ! ! y z A B C D E E E E F G H t t ",
"I I I I : J K w L M ! N O P Q R S T U U U V W E E E E X Y Z I I ",
"` ` ` `  ...+.@.@.#.$.%.&.&.&.&.*.=.&.-.$.&.;.E E E E >.,.'.` ` ",
").).).).!...~.{.{.].^./.(._.:.<.[.}.E E E E E E E E E |.1.2.).).",
"3.3.3.3.6 4.5.6.7.6./.(.8.:.<.[.9.E E E E E E E E E E 0.a.b.3.3.",
"c.c.c.c.7 d././././.(.e.f.:.<.g.h.E E E E E E E E E E i.a.j.c.c.",
"k.k.k.k.7 l.(.m.(.e.f.n.o.<.p.9.9.E E E E E E E E E E q.r.s.k.k.",
"k.k.k.k.t.o f.f.f.f.:.u.v.w.x.y.z.A.z.A.B.C.D.E.F.E E G.r.s.k.k.",
"k.k.k.k.H.I.o.<.o.J.<.K.L.! ! ! ! ! ! M.N.O.O.P.Q.R.S.T.r.s.k.k.",
"k.k.k.k.U.V.p.p.<.K.[.g.w.! ! ! ! ! P.W.O.P.P.X.Y.Z.`. +r.s.k.k.",
"k.k.k.k..+++9.9.9.g.9.@+#+! ! $+%+&+%+&+&+*+=+=+-+;+>+,+'+)+k.k.",
"!+!+!+!+U.~+@+@+@+E E E {+! ! ! ! N.]+P.^+=+/+(+_+:+<+[+}+|+1+!+",
"!+!+!+!+2+3+E E E E E E y.! ! &+*+4+*+4+4+5+(+/+6+R.7+8+}+}+9+0+",
"!+!+!+!+a+3+E E E E E E z.b+b+W.O.^+=+/+/+(+c+d+d+e+f+e+e+}+g+h+",
"!+!+!+!+i+j+E E E E E E k+N.W.5+l+m+l+n+m+o+p+e+e+q+r+e+s+}+v.t+",
"u+u+u+u+v+w+E E E E E E A.M.O.P.=+/+x+c+c+y+e+q+z+s+A+B+A+}+C+D+",
"E+E+E+E+v+w+E E E E E E B.O.P.o+F+G+F+H+G+I+J+K+L+M+N+O+P+}+C+Q+",
"E+E+E+E+R+w+E E E E E E S+=+/+x+(+d+s+s+r+A+P+T+T+U+V+V+V+}+C+Q+",
"E+E+E+E+W+w+E E E E E E S+=+/+o+F+G+F+H+G+I+J+K+L+M+N+X+Y+}+C+Q+",
"Z+Z+Z+Z+R+w+E E E E E E S+`+(+d+f+ @B+O+.@T+T++@V+@@#@$@$@}+%@&@",
"*@*@*@*@=@-@E E E E E E S+/+c+o+F+G+F+H+G+I+J+K+L+M+N+;@;@}+>@,@",
"*@*@*@*@=@'@E E E E E E S+(+d+e+e+r+O+)@!@~@Y+#@{@$@]@^@]@}+>@,@",
"*@*@*@*@/@(@_@_@_@_@_@_@S+:@d+o+F+G+F+H+G+I+J+K+L+M+N+<@[@}+>@,@",
"}@}@}@}@|@1@2@3@>@>@>@>@S+(+c+e+q+s+.@T+V+~@#@;@]@[@<@4@5@}+>@6@",
"7@7@7@7@8@9@0@a@a@a@a@a@S+(+d+e+s+O+.@!@b@#@{@;@[@[@c@d@e@}+f@a@",
"g@g@g@g@g@g@g@g@g@g@g@g@h@R.i@j@}+}+}+}+}+}+}+}+}+}+}+}+}+}+k@l@",
"g@g@g@g@g@g@g@g@g@g@g@g@m@n@k@k@k@k@k@k@k@k@k@k@k@k@k@k@k@k@n@m@",
"g@g@g@g@g@g@g@g@g@g@g@g@o@m@l@l@l@l@l@l@l@l@l@l@l@l@l@l@l@l@m@o@",
"p@p@p@p@p@p@p@p@p@p@p@p@p@p@p@p@p@p@p@p@p@p@p@p@p@p@p@p@p@p@p@p@",
"p@p@p@p@p@p@p@p@p@p@p@p@p@p@p@p@p@p@p@p@p@p@p@p@p@p@p@p@p@p@p@p@",
"p@p@p@p@p@p@p@p@p@p@p@p@p@p@p@p@p@p@p@p@p@p@p@p@p@p@p@p@p@p@p@p@"};
