/* XPM */
static const char * pioneerSelect_xpm[] = {
"16 16 114 2",
"  	c None",
". 	c #140CFF",
"+ 	c #FFFFFF",
"@ 	c #0A0A0E",
"# 	c #060500",
"$ 	c #060600",
"% 	c #070602",
"& 	c #070703",
"* 	c #080705",
"= 	c #080806",
"- 	c #060601",
"; 	c #09090A",
"> 	c #050500",
", 	c #080807",
"' 	c #090909",
") 	c #080809",
"! 	c #050705",
"~ 	c #0A0B12",
"{ 	c #090801",
"] 	c #0E0A0A",
"^ 	c #040808",
"/ 	c #050808",
"( 	c #010808",
"_ 	c #210A0A",
": 	c #160C0F",
"< 	c #0B0B02",
"[ 	c #1A1314",
"} 	c #471010",
"| 	c #300B0B",
"1 	c #320C0C",
"2 	c #290B0B",
"3 	c #2C0C0C",
"4 	c #390D0D",
"5 	c #430E0E",
"6 	c #751313",
"7 	c #B31410",
"8 	c #261B1B",
"9 	c #831111",
"0 	c #A31111",
"a 	c #C51717",
"b 	c #BB1717",
"c 	c #BB1616",
"d 	c #C11919",
"e 	c #DA1B1B",
"f 	c #F61C1C",
"g 	c #FF1D1D",
"h 	c #FF1B15",
"i 	c #7E1111",
"j 	c #A71010",
"k 	c #F91A1A",
"l 	c #FF1C1C",
"m 	c #EB1A1A",
"n 	c #B01511",
"o 	c #381F4D",
"p 	c #241A16",
"q 	c #78100F",
"r 	c #A71011",
"s 	c #EB1919",
"t 	c #BC1717",
"u 	c #701212",
"v 	c #7B1212",
"w 	c #CF1919",
"x 	c #F81B1B",
"y 	c #771414",
"z 	c #180F0F",
"A 	c #0C0E07",
"B 	c #1D1E35",
"C 	c #53181F",
"D 	c #B10D06",
"E 	c #CD1716",
"F 	c #421010",
"G 	c #000D0D",
"H 	c #0B1313",
"I 	c #611A1A",
"J 	c #D01B1B",
"K 	c #381010",
"L 	c #0D1313",
"M 	c #1B1B1B",
"N 	c #1B1B17",
"O 	c #1E1E26",
"P 	c #1913F6",
"Q 	c #892759",
"R 	c #A0171A",
"S 	c #0B0F0E",
"T 	c #141515",
"U 	c #191B1B",
"V 	c #221C1C",
"W 	c #561919",
"X 	c #231010",
"Y 	c #171818",
"Z 	c #1C1C1C",
"` 	c #1B1B1A",
" .	c #3C2659",
"..	c #0D100A",
"+.	c #1A1C1B",
"@.	c #1A1B1D",
"#.	c #10100D",
"$.	c #191918",
"%.	c #1A1A16",
"&.	c #0F0D01",
"*.	c #1D1D1D",
"=.	c #1A1A15",
"-.	c #272A53",
";.	c #1A1B1F",
">.	c #1B1B18",
",.	c #282A55",
"'.	c #1F2141",
").	c #1A1A14",
"!.	c #1A1A13",
"~.	c #22243D",
"{.	c #25284B",
"].	c #23243E",
"^.	c #18180C",
"/.	c #242644",
". . . . . . . . . . . . . . . . ",
". . . . + + + + + + + + + . . . ",
". . . + @ # $ % & * = - ; + . . ",
". . + > , ' ' ' ' ' ' ) ! ~ + . ",
". + { ] ^ ^ / / / ^ ( ] _ : + . ",
"+ < [ } | 1 2 2 3 4 5 6 7 + . . ",
"+ < 8 9 0 a b c d e f g h + . . ",
"+ < 8 i j k g g l l l m n o + . ",
"+ < p q r s t u v w x y z A B + ",
". + + C D E F G H I J K L M N O ",
". . P + Q R S T U V W X Y Z Z ` ",
". . . . +  ...M Z +.@.#.$.Z Z %.",
". . . . . + &.*.Z =.-.+ ;.>.=.,.",
". . . . . + '.).M !.+ . + ~.{.+ ",
". . . . . . + ].^./.+ . . + + . ",
". . . . . . . + + + . . . . . . "};
