/* XPM */
static const char * pioneer_xpm[] = {
"16 16 90 1",
" 	c None",
".	c #090909",
"+	c #000000",
"@	c #080808",
"#	c #090808",
"$	c #060808",
"%	c #070808",
"&	c #0D0D0D",
"*	c #0C0B0B",
"=	c #0E0A0A",
"-	c #040808",
";	c #050808",
">	c #010808",
",	c #210B0B",
"'	c #160B0B",
")	c #0E0F0F",
"!	c #1A1313",
"~	c #471010",
"{	c #300B0B",
"]	c #320C0C",
"^	c #290B0B",
"/	c #2C0C0C",
"(	c #390D0D",
"_	c #430E0E",
":	c #751313",
"<	c #AF1616",
"[	c #721616",
"}	c #121212",
"|	c #261B1B",
"1	c #831111",
"2	c #A31111",
"3	c #C51717",
"4	c #BB1717",
"5	c #BB1616",
"6	c #C11919",
"7	c #DA1B1B",
"8	c #F61C1C",
"9	c #FF1D1D",
"0	c #141515",
"a	c #7E1111",
"b	c #A71010",
"c	c #F91A1A",
"d	c #FF1C1C",
"e	c #EB1A1A",
"f	c #AD1616",
"g	c #340A0A",
"h	c #151616",
"i	c #241B1B",
"j	c #781111",
"k	c #EB1919",
"l	c #BC1717",
"m	c #701212",
"n	c #7B1212",
"o	c #CF1919",
"p	c #F81B1B",
"q	c #771414",
"r	c #180F0F",
"s	c #0F1111",
"t	c #161616",
"u	c #211B1B",
"v	c #541515",
"w	c #AB1010",
"x	c #CC1717",
"y	c #421010",
"z	c #000D0D",
"A	c #0B1313",
"B	c #611A1A",
"C	c #D01B1B",
"D	c #381010",
"E	c #0D1313",
"F	c #1B1B1B",
"G	c #1C1C1C",
"H	c #B61111",
"I	c #A31515",
"J	c #0B0F0F",
"K	c #191B1B",
"L	c #221C1C",
"M	c #561919",
"N	c #231010",
"O	c #171818",
"P	c #3A1010",
"Q	c #0F1212",
"R	c #1A1C1C",
"S	c #191A1A",
"T	c #111212",
"U	c #1A1A1A",
"V	c #131313",
"W	c #1B1C1C",
"X	c #191919",
"Y	c #141414",
"                ",
"                ",
"   .....++++.   ",
"  .@#.....+@$%  ",
" &*=--;;;->=,'  ",
" )!~{]^^/(_:<[  ",
" }|1234567899   ",
" 0|abc99dddefg  ",
" hijbklmnopqrst ",
"  uvwxyzABCDEFGG",
"    HIJ0KLMNOGGF",
"     PQFGRSTUGFG",
"      VGGGW&XGGG",
"      YGFF   FG ",
"       GGG      ",
"                "};
