/* XPM */
static const char * play_xpm[] = {
"16 16 6 1",
" 	c None",
".	c #2C3777",
"+	c #2B3A7F",
"@	c #D0D7EC",
"#	c #D4DAEE",
"$	c #344087",
"                ",
"    ........    ",
"   ++......++   ",
"  ++.@@@@@@@++  ",
" ++.@@..@@@@@++ ",
" +.@@@....@@@@.+",
" +.@@@.....#@@.+",
" ..@@@......@@.+",
" ..@@@.......@.+",
" ..@@@......@@.+",
" ..@@@.....@@@$+",
" ..@@@....@@@.+ ",
" .+.@@..@@@@... ",
"  ...@@@@@@.+.  ",
"   ..........   ",
"    ........    "};
