/* XPM */
static const char * positionableSelect_xpm[] = {
"16 16 9 1",
" 	c None",
".	c #140CFF",
"+	c #FFFFFF",
"@	c #0000FF",
"#	c #FF0000",
"$	c #00FF00",
"%	c #FF0707",
"&	c #FF0505",
"*	c #FF0908",
"....+@@+........",
"....+@@+........",
"....+@@+........",
"....+@@+........",
"....+@@+........",
"....+@@+........",
"....+@@+........",
"....+@@+........",
"....+@.+++++++++",
"....+##$$$$$$$$$",
"...+###$$$$$$$$$",
"..+###++++++++++",
".+###+..........",
"+###+...........",
"#%#+............",
"&*+............."};
