/* XPM */
static const char * positionable_xpm[] = {
"16 16 8 1",
" 	c None",
".	c #0000FF",
"+	c #140CFF",
"@	c #FF0000",
"#	c #00FF00",
"$	c #FF0707",
"%	c #FF0505",
"&	c #FF0908",
"     ..         ",
"     ..         ",
"     ..         ",
"     ..         ",
"     ..         ",
"     ..         ",
"     ..         ",
"     ..         ",
"     .+         ",
"     @@#########",
"    @@@#########",
"   @@@          ",
"  @@@           ",
" @@@            ",
"@$@             ",
"%&              "};
