/* XPM */
static const char * powercube_xpm[] = {
"16 16 96 2",
"  	c None",
". 	c #888888",
"+ 	c #898989",
"@ 	c #8D8D8D",
"# 	c #414141",
"$ 	c #000000",
"% 	c #1E1C1E",
"& 	c #003319",
"* 	c #1F301E",
"= 	c #477147",
"- 	c #456F45",
"; 	c #505050",
"> 	c #D3D3D3",
", 	c #007B3D",
"' 	c #000002",
") 	c #005900",
"! 	c #005100",
"~ 	c #005400",
"{ 	c #000300",
"] 	c #050905",
"^ 	c #060504",
"/ 	c #00CB00",
"( 	c #00B900",
"_ 	c #00BF00",
": 	c #3D623D",
"< 	c #81D081",
"[ 	c #79C379",
"} 	c #030003",
"| 	c #00C900",
"1 	c #00B600",
"2 	c #00BD00",
"3 	c #6D6D6D",
"4 	c #002E16",
"5 	c #273D26",
"6 	c #508050",
"7 	c #020002",
"8 	c #00B500",
"9 	c #008000",
"0 	c #008300",
"a 	c #00BA00",
"b 	c #0B080B",
"c 	c #101F10",
"d 	c #626262",
"e 	c #009248",
"f 	c #002612",
"g 	c #003000",
"h 	c #007400",
"i 	c #003300",
"j 	c #002900",
"k 	c #007E00",
"l 	c #000B00",
"m 	c #4C4C4C",
"n 	c #008B45",
"o 	c #004522",
"p 	c #006000",
"q 	c #000500",
"r 	c #002000",
"s 	c #00B100",
"t 	c #000F00",
"u 	c #001D00",
"v 	c #00A800",
"w 	c #004622",
"x 	c #00BE00",
"y 	c #00B700",
"z 	c #00AE00",
"A 	c #001100",
"B 	c #009E00",
"C 	c #006100",
"D 	c #00C500",
"E 	c #006800",
"F 	c #002300",
"G 	c #007600",
"H 	c #006300",
"I 	c #005200",
"J 	c #009600",
"K 	c #00AB00",
"L 	c #009B00",
"M 	c #009100",
"N 	c #004A00",
"O 	c #000800",
"P 	c #00AF00",
"Q 	c #009400",
"R 	c #007F3F",
"S 	c #004623",
"T 	c #005000",
"U 	c #001B00",
"V 	c #001F00",
"W 	c #005D00",
"X 	c #00C100",
"Y 	c #6E6E6E",
"Z 	c #000200",
"` 	c #002713",
" .	c #006200",
"..	c #00B800",
"+.	c #00C000",
"@.	c #717271",
"        . + + + + + @           ",
"      # $ $ $ $ $ $ $ %         ",
"      $ & * = - - - = $ ;       ",
"  >   $ , ' ) ! ! ! ! ~ $       ",
"  $ { ] ^ $ / ( ( ( ( _ $       ",
"  $ : < [ } | 1 1 1 1 2 $ 3     ",
"  $ 4 5 6 7 / 8 9 0 a 2 b c d   ",
"  $ e f g $ h $ i j $ k $ l m   ",
"  $ n o p q r a 2 _ s t u v $   ",
"  $ n w p $ x 1 y 1 8 z A B $   ",
"  $ n w C $ D y y y y y A B $   ",
"  $ n w E F G ( 1 1 a H I J $   ",
"  $ n w p K { ~ L M N O P Q $   ",
"  $ R S C 8 ( T U V W X 1 Q $   ",
"  Y Z `  .y ..( +._ ......J $   ",
"      $ $ $ $ $ $ $ $ $ $ $ @.  "};
