/* XPM */
static const char * powercubeSelect_xpm[] = {
"16 16 82 1",
" 	c None",
".	c #140CFF",
"+	c #FFFFFF",
"@	c #003319",
"#	c #1F301E",
"$	c #477147",
"%	c #456F45",
"&	c #007B3D",
"*	c #000002",
"=	c #005900",
"-	c #005100",
";	c #005400",
">	c #060504",
",	c #000000",
"'	c #00CB00",
")	c #00B900",
"!	c #00BF00",
"~	c #3D623D",
"{	c #81D081",
"]	c #79C379",
"^	c #030003",
"/	c #00C900",
"(	c #00B600",
"_	c #00BD00",
":	c #002E16",
"<	c #273D26",
"[	c #508050",
"}	c #020002",
"|	c #00B500",
"1	c #008000",
"2	c #008300",
"3	c #00BA00",
"4	c #009248",
"5	c #002612",
"6	c #003000",
"7	c #007400",
"8	c #003300",
"9	c #002900",
"0	c #007E00",
"a	c #000B00",
"b	c #008B45",
"c	c #004522",
"d	c #006000",
"e	c #000500",
"f	c #002000",
"g	c #00B100",
"h	c #000F00",
"i	c #001D00",
"j	c #00A800",
"k	c #004622",
"l	c #00BE00",
"m	c #00B700",
"n	c #00AE00",
"o	c #001100",
"p	c #009E00",
"q	c #006100",
"r	c #00C500",
"s	c #006800",
"t	c #002300",
"u	c #007600",
"v	c #006300",
"w	c #005200",
"x	c #009600",
"y	c #00AB00",
"z	c #000300",
"A	c #009B00",
"B	c #009100",
"C	c #004A00",
"D	c #000800",
"E	c #00AF00",
"F	c #009400",
"G	c #007F3F",
"H	c #004623",
"I	c #005000",
"J	c #001B00",
"K	c #001F00",
"L	c #005D00",
"M	c #00C100",
"N	c #002713",
"O	c #006200",
"P	c #00B800",
"Q	c #00C000",
"................",
"....+++++++.....",
"...+@#$%%%$+....",
"...+&*=----;+...",
".+++>,'))))!+...",
".+~{]^/((((_+...",
".+:<[}'|123_++..",
".+456,7,89,0,a..",
".+bcdef3_!ghij+.",
".+bkd,l(m(|nop+.",
".+bkq,rmmmmmop+.",
".+bkstu)((3vwx+.",
".+bkdyz;ABCDEF+.",
".+GHq|)IJKLM(F+.",
"..+NOmP)Q!PPPx+.",
"....iiiiiiiii..."};
