/* XPM */
static const char * prismaticSelect_xpm[] = {
"16 16 28 1",
" 	c None",
".	c #140CFF",
"+	c #4ABC4A",
"@	c #3E5CA6",
"#	c #6EFF6E",
"$	c #6DFF6D",
"%	c #54D354",
"&	c #59CF59",
"*	c #3B7D3B",
"=	c #469A46",
"-	c #469946",
";	c #469E46",
">	c #54D454",
",	c #5CD65C",
"'	c #5BCF5B",
")	c #6CFF6C",
"!	c #70FF70",
"~	c #59CB59",
"{	c #6BFF6B",
"]	c #50CD50",
"^	c #5BD65B",
"/	c #57CE57",
"(	c #59CA59",
"_	c #6AFF6A",
":	c #48A948",
"<	c #58D058",
"[	c #58D158",
"}	c #5BD75B",
"................",
"....+@#$$$$.....",
"....%&*===-;....",
"....>,'))))!....",
"....>,~{{{{#....",
"....>,~{{{{#....",
"....>,~{{{{#....",
"....>,~{{{{#....",
"....>,~{{{{#....",
"....>,~{{{{#....",
"....>,~{{{{#....",
"....>,~{{{{#....",
"....%,~{{{{#....",
"....]^~{{{{#....",
"...../(____#....",
"......:<[[[}...."};
