/* XPM */
static char * prismCom_xpm[] = {
"41 38 213 2",
"  	c None",
". 	c #4EA5E7",
"+ 	c #4DA4E6",
"@ 	c #4DA2E5",
"# 	c #4CA0E3",
"$ 	c #4B9FE2",
"% 	c #4B9EE1",
"& 	c #51ACED",
"* 	c #50AAEC",
"= 	c #50A8EA",
"- 	c #4FA7E9",
"; 	c #4EA6E8",
"> 	c #4CA1E4",
", 	c #4A9CE0",
"' 	c #499BDE",
") 	c #4999DD",
"! 	c #53B1F2",
"~ 	c #52AFF0",
"{ 	c #52AEEF",
"] 	c #51ACEE",
"^ 	c #50ABEC",
"/ 	c #50A9EB",
"( 	c #4FA7EA",
"_ 	c #4EA4E7",
": 	c #4DA3E6",
"< 	c #4B9EE2",
"[ 	c #4A9DE0",
"} 	c #4A9BDF",
"| 	c #499ADE",
"1 	c #4898DC",
"2 	c #4897DB",
"3 	c #4795DA",
"4 	c #55B6F6",
"5 	c #55B4F5",
"6 	c #54B3F3",
"7 	c #53AFF1",
"8 	c #51ABED",
"9 	c #4FA8EA",
"0 	c #4FA6E9",
"a 	c #4CA2E5",
"b 	c #4A9DE1",
"c 	c #4A9CDF",
"d 	c #4899DD",
"e 	c #4694D9",
"f 	c #4692D7",
"g 	c #4591D6",
"h 	c #5FBFFC",
"i 	c #58BBFA",
"j 	c #57B9F9",
"k 	c #56B8F8",
"l 	c #56B6F6",
"m 	c #55B5F5",
"n 	c #54B3F4",
"o 	c #54B1F2",
"p 	c #53B0F1",
"q 	c #52AEF0",
"r 	c #51ADEE",
"s 	c #4EA5E8",
"t 	c #4B9DE1",
"u 	c #4897DC",
"v 	c #4796DA",
"w 	c #4693D8",
"x 	c #86CFFE",
"y 	c #89D0FD",
"z 	c #7CCAFC",
"A 	c #6AC1FA",
"B 	c #5AB9F8",
"C 	c #56B6F7",
"D 	c #54B2F3",
"E 	c #52ADEF",
"F 	c #4DA3E5",
"G 	c #4BA0E3",
"H 	c #499BDF",
"I 	c #4796DB",
"J 	c #4795D9",
"K 	c #4592D7",
"L 	c #5198D9",
"M 	c #62A2DC",
"N 	c #74AFE2",
"O 	c #80B9E8",
"P 	c #59BDFC",
"Q 	c #64C1FB",
"R 	c #75C7FB",
"S 	c #86CDFC",
"T 	c #88CDFB",
"U 	c #7AC6F9",
"V 	c #67BDF7",
"W 	c #57B5F5",
"X 	c #53AFF0",
"Y 	c #4CA2E4",
"Z 	c #4997DA",
"` 	c #589EDC",
" .	c #68A7DF",
"..	c #79B2E4",
"+.	c #7FB8E8",
"@.	c #75B5E9",
"#.	c #65AEE7",
"$.	c #55A6E6",
"%.	c #58BBFB",
"&.	c #58BAFA",
"*.	c #57BAFA",
"=.	c #58B9F9",
"-.	c #64BEF9",
";.	c #75C4F9",
">.	c #85CBF9",
",.	c #86CBF8",
"'.	c #77C2F6",
").	c #65B9F3",
"!.	c #55B1F1",
"~.	c #50AAEB",
"{.	c #4F9EDF",
"].	c #5FA5E1",
"^.	c #6FAEE3",
"/.	c #7EB6E6",
"(.	c #7DB7E7",
"_.	c #6FB1E7",
":.	c #5FA9E5",
"<.	c #50A2E3",
"[.	c #57B8F8",
"}.	c #56B7F7",
"|.	c #64BBF6",
"1.	c #75C2F7",
"2.	c #85C9F7",
"3.	c #85C7F6",
"4.	c #74BEF3",
"5.	c #62B5F0",
"6.	c #53ACED",
"7.	c #56A5E4",
"8.	c #66ACE6",
"9.	c #76B4E7",
"0.	c #80B8E8",
"a.	c #79B5E7",
"b.	c #69ADE5",
"c.	c #59A5E3",
"d.	c #4C9EE1",
"e.	c #55B5F6",
"f.	c #55B4F4",
"g.	c #56B3F3",
"h.	c #64B9F4",
"i.	c #75C0F4",
"j.	c #84C6F4",
"k.	c #83C4F3",
"l.	c #72BBF0",
"m.	c #5FB0EC",
"n.	c #50A7E8",
"o.	c #5EACE9",
"p.	c #6DB3EA",
"q.	c #7CB8E9",
"r.	c #73B1E5",
"s.	c #63A8E2",
"t.	c #53A0E0",
"u.	c #54B0F0",
"v.	c #63B6F1",
"w.	c #75BEF2",
"x.	c #83C4F2",
"y.	c #81C1F0",
"z.	c #7FBBEB",
"A.	c #7EB7E7",
"B.	c #6EACE2",
"C.	c #5DA3DF",
"D.	c #4D9BDD",
"E.	c #54B4F4",
"F.	c #54ADED",
"G.	c #7EBFEF",
"H.	c #64A6DF",
"I.	c #4997DB",
"J.	c #7CBEEF",
"K.	c #5CA2DE",
"L.	c #7CBDEE",
"M.	c #5DA3E0",
"N.	c #7BBCED",
"O.	c #5DA4E1",
"P.	c #7ABBED",
"Q.	c #5EA5E1",
"R.	c #7ABAEC",
"S.	c #5EA6E2",
"T.	c #5FA7E3",
"U.	c #7AB9EB",
"V.	c #5FA8E4",
"W.	c #79B8EA",
"X.	c #60ABE6",
"Y.	c #79B7EA",
"Z.	c #60ACE7",
"`.	c #79B7E9",
" +	c #61ADE8",
".+	c #79B6E8",
"++	c #61AEE9",
"@+	c #53B0F2",
"#+	c #78B5E8",
"$+	c #62AFEA",
"%+	c #78B5E7",
"&+	c #62B0EB",
"*+	c #77B4E7",
"=+	c #64B1EC",
"-+	c #57BAF9",
";+	c #77B3E6",
">+	c #64B2EC",
",+	c #56B7F8",
"'+	c #77B3E5",
")+	c #65B3ED",
"!+	c #58BCFB",
"~+	c #77B2E5",
"{+	c #65B5EE",
"]+	c #76B2E5",
"^+	c #66B5EF",
"/+	c #4797DB",
"(+	c #4794D9",
"_+	c #4694D8",
":+	c #76B1E4",
"<+	c #66B7F0",
"[+	c #76B0E3",
"}+	c #66B8F1",
"|+	c #67B9F2",
"                                                                                  ",
"                                                                                  ",
"                                    . + @ # $ %                                   ",
"                            & * = - ; + @ > $ % , ' )                             ",
"                      ! ~ { ] ^ / ( ; _ : > # < [ } | 1 2 3                       ",
"                4 5 6 ! 7 { ] 8 / 9 0 . : a # $ b c | d 2 3 e f g                 ",
"        h i j k l m n o p q r 8 * 9 - s + @ > $ t , ' ) u v e w g g g g           ",
"      x y z A B C m n D p ~ E & * / - ; _ F > G % , H ) 1 I J w K g L M N O       ",
"      P Q R S T U V W D ! X { ] ^ / 9 ; _ : Y # < [ } | 1 2 Z `  ...+.@.#.$.      ",
"      %.&.*.=.-.;.>.,.'.).!.{ r 8 ~.9 0 . : @ # $ b c {.].^./.(._.:.<.> a :       ",
"      *.j [.k }.C l |.1.2.3.4.5.6.* = - s + @ > 7.8.9.0.a.b.c.d.$ # > @ : _       ",
"      j k }.}.4 e.5 f.n g.h.i.j.k.l.m.= n.o.p.q.+.r.s.t.} , t $ # > @ : _ s       ",
"      k }.l e.m f.n 6 D ! p p u.v.w.x.y.z.A.B.C.D.) | } [ % $ # > @ : _ s 0       ",
"      C 4 m 5 E.6 D ! ! p ~ q { E ] F.G.H.I.2 1 ) | } [ % $ # > @ : _ s - 9       ",
"      m 5 f.n D o ! p X ~ { E r & 8 * J.K.2 1 ) ' c [ % $ # > @ : _ ; - 9 /       ",
"      f.n D D ! p 7 ~ { E r ] 8 ^ * / L.M.1 ) ' c [ % $ # > @ : . ; - 9 / *       ",
"      6 D ! p p ~ q { r ] 8 ^ * / / 9 N.O.| ' c [ % $ # > @ + . ; - 9 / * 8       ",
"      ! ! p X ~ { E ] & 8 * ~./ 9 ( - P.Q.' c [ % $ # > @ + . ; - 9 / * 8 ]       ",
"      p 7 ~ { E r & 8 ^ * / 9 9 - ; ; R.S., b < $ # Y F + . ; - 9 / * 8 r {       ",
"      ~ { E r ] 8 ^ * / = 9 - 0 ; . _ R.T.b < $ # Y F + . ; - 9 / * & r { ~       ",
"      { r ] & 8 * / / 9 - 0 ; s _ + : U.V.< G > a : + . ; - 9 / ^ & r { ~ p       ",
"      ] & 8 * ~./ 9 ( - ; s . + : @ a W.:.G > a : + . ; - 9 / ^ & r { ~ p !       ",
"      8 ^ * / 9 9 - 0 ; . _ : F @ > > W.X.> @ : _ s 0 ( = ~.^ & r { ~ p ! D       ",
"      * / = 9 - 0 ; . _ + : @ Y > # $ Y.Z.@ : _ s 0 ( = ~.^ & r { ~ p o 6 f.      ",
"      / 9 ( - ; s _ + : @ a > # G $ % `. +: _ s 0 9 / * 8 ] E { X p o 6 f.m       ",
"      9 - ; s . + : F @ > # # $ < t [ .+++_ s 0 9 / * 8 ] E { X @+D 6 f.m l       ",
"      0 ; . _ + : @ > > # $ < % b , c #+$+; - 9 / * 8 ] E q 7 ! D 6 f.m l }.      ",
"      . _ + : @ Y > # $ $ % b [ c } | %+&+- 9 / * 8 ] E q p ! D n 5 e.C }.[.      ",
"      + : @ a > # G $ < t [ , } ' | ) *+=+9 / * 8 ] E ~ p ! D n 5 e.C }.[.-+      ",
"      F @ > # # $ < % [ , } ' | ) d 1 ;+>+/ * 8 ] E ~ p ! D n 5 e.C ,+j *.%.      ",
"      > > # $ $ % b , c H | | ) 1 u 2 '+)+* 8 r { ~ p ! D n 5 e.C k j *.%.!+      ",
"          $ % b [ c } | | ) 1 1 2 v 3 ~+{+8 r { ~ p ! D n 5 e.}.k j *.%.!+        ",
"                c ' | ) d 1 2 I v 3 e ]+^+r { ~ p ! D n 5 4 }.k j                 ",
"                      1 2 /+v 3 (+_+w :+<+{ ~ p ! D n m 4 C                       ",
"                            J e w f K [+}+~ p ! D n 5                             ",
"                                  g g [+|+p !                                     ",
"                                                                                  ",
"                                                                                  "};
