/* XPM */
static const char * prismatic_xpm[] = {
"16 16 41 1",
" 	c None",
".	c #B6B5B6",
"+	c #203E20",
"@	c #55A455",
"#	c #529D52",
"$	c #658B65",
"%	c #A393A3",
"&	c #4ABC4A",
"*	c #419841",
"=	c #6EFF6E",
"-	c #6DFF6D",
";	c #628E62",
">	c #A495A4",
",	c #54D354",
"'	c #59CF59",
")	c #3B7D3B",
"!	c #469A46",
"~	c #469946",
"{	c #469E46",
"]	c #858F85",
"^	c #54D454",
"/	c #5CD65C",
"(	c #5BCF5B",
"_	c #6CFF6C",
":	c #70FF70",
"<	c #849E84",
"[	c #59CB59",
"}	c #6BFF6B",
"|	c #A699A6",
"1	c #50CD50",
"2	c #5BD65B",
"3	c #778C77",
"4	c #57CE57",
"5	c #59CA59",
"6	c #6AFF6A",
"7	c #6D746D",
"8	c #48A948",
"9	c #58D058",
"0	c #58D158",
"a	c #5BD75B",
"b	c #819681",
"   .+@####$     ",
"   %&*=----;    ",
"   >,')!!!~{]   ",
"   >^/(____:<   ",
"   >^/[}}}}=<   ",
"   >^/[}}}}=<   ",
"   >^/[}}}}=<   ",
"   >^/[}}}}=<   ",
"   >^/[}}}}=<   ",
"   >^/[}}}}=<   ",
"   >^/[}}}}=<   ",
"   >^/[}}}}=<   ",
"   >,/[}}}}=<   ",
"   |12[}}}}=<   ",
"    3456666=<   ",
"     789000ab   "};
