/* XPM */
static const char * right_xpm[] = {
"32 32 245 2",
"  	c None",
". 	c #BBD7DA",
"+ 	c #6EA7BB",
"@ 	c #8BB1B9",
"# 	c #D2DEE1",
"$ 	c #80ACBE",
"% 	c #77B1C4",
"& 	c #7AB7C6",
"* 	c #719DAD",
"= 	c #8FB1B8",
"- 	c #52ABC2",
"; 	c #79C9DC",
"> 	c #3A7C8E",
", 	c #6BB1C2",
"' 	c #64B3C7",
") 	c #80C8D5",
"! 	c #45A3C4",
"~ 	c #4A9DB1",
"{ 	c #499BB2",
"] 	c #4697B5",
"^ 	c #469AB4",
"/ 	c #459AB2",
"( 	c #3F9AAE",
"_ 	c #4DA5B7",
": 	c #6AB4C6",
"< 	c #93C0C4",
"[ 	c #A3AEBA",
"} 	c #81C0D4",
"| 	c #63BBCD",
"1 	c #69BFD5",
"2 	c #51A1B2",
"3 	c #9BB7BF",
"4 	c #C2D5DA",
"5 	c #439EB2",
"6 	c #6EBFD5",
"7 	c #74B9CF",
"8 	c #3892B2",
"9 	c #3D96A8",
"0 	c #4098B0",
"a 	c #3F9AB2",
"b 	c #419FB2",
"c 	c #439EB6",
"d 	c #429FB7",
"e 	c #469EB9",
"f 	c #459BB8",
"g 	c #62ADC4",
"h 	c #57ACC9",
"i 	c #7EC5D7",
"j 	c #5FB3C7",
"k 	c #6CBAD4",
"l 	c #70C0D5",
"m 	c #6FBED0",
"n 	c #2D788F",
"o 	c #97B9C0",
"p 	c #54A1B6",
"q 	c #6DB9CF",
"r 	c #47A3BF",
"s 	c #3C9FB9",
"t 	c #3DA1B9",
"u 	c #3EA6BE",
"v 	c #3FA9BF",
"w 	c #42AAC0",
"x 	c #46ABC3",
"y 	c #47ADC4",
"z 	c #4AACC4",
"A 	c #4CAEC5",
"B 	c #50AEC6",
"C 	c #50AFC7",
"D 	c #65BACC",
"E 	c #73B8CF",
"F 	c #6AB8CE",
"G 	c #6FBCD3",
"H 	c #74BFD2",
"I 	c #77C7D9",
"J 	c #529DB3",
"K 	c #A9C5CC",
"L 	c #A4BFC7",
"M 	c #398DA1",
"N 	c #67B7CD",
"O 	c #43A3C3",
"P 	c #3BA1C0",
"Q 	c #3CA6C1",
"R 	c #40AAC2",
"S 	c #44AAC4",
"T 	c #48ACC4",
"U 	c #4CADC6",
"V 	c #4FAEC7",
"W 	c #53B0C8",
"X 	c #55B1C7",
"Y 	c #5AB2CA",
"Z 	c #5CB4CA",
"` 	c #5EB4C8",
" .	c #58B1CA",
"..	c #6DB9CD",
"+.	c #71BCD0",
"@.	c #72BED4",
"#.	c #77C1D5",
"$.	c #7CC5D6",
"%.	c #81C8DB",
"&.	c #50A1B4",
"*.	c #45879A",
"=.	c #59AEC7",
"-.	c #43A6C0",
";.	c #3FA3C2",
">.	c #3EA4C3",
",.	c #41A6C3",
"'.	c #44A6C6",
").	c #46A8C6",
"!.	c #4CAAC6",
"~.	c #4EADC7",
"{.	c #58AFC8",
"].	c #5BB2CB",
"^.	c #5EB4CC",
"/.	c #64B5CB",
"(.	c #69B8CE",
"_.	c #64B5CD",
":.	c #6DBBCF",
"<.	c #7FC2D5",
"[.	c #7CC2D4",
"}.	c #87C8D8",
"|.	c #82C8DA",
"1.	c #62B7CE",
"2.	c #C9DDE1",
"3.	c #6997A1",
"4.	c #50A6C0",
"5.	c #44A6C2",
"6.	c #3D9FC0",
"7.	c #3FA2C1",
"8.	c #40A2C2",
"9.	c #40A3C6",
"0.	c #3FA2C5",
"a.	c #43A4C4",
"b.	c #42A5C4",
"c.	c #4BA8C6",
"d.	c #4FACCD",
"e.	c #58B0C9",
"f.	c #62B3CC",
"g.	c #67B6CD",
"h.	c #6FBCD0",
"i.	c #74BFD0",
"j.	c #75BFD2",
"k.	c #61B3CD",
"l.	c #7EC2D5",
"m.	c #87C7D9",
"n.	c #93CDDE",
"o.	c #93CEDE",
"p.	c #7CC6D9",
"q.	c #6FAEC0",
"r.	c #55A7BC",
"s.	c #359FBF",
"t.	c #3CA0C0",
"u.	c #3CA0BF",
"v.	c #3DA0C1",
"w.	c #2E9FC0",
"x.	c #51ACC8",
"y.	c #91CCD6",
"z.	c #7CC5D5",
"A.	c #42ABC2",
"B.	c #65B7CE",
"C.	c #6DBBD1",
"D.	c #7CC1D2",
"E.	c #82C4D6",
"F.	c #7DC0D5",
"G.	c #7CC2D5",
"H.	c #9BD0DF",
"I.	c #A2D4E2",
"J.	c #AADAE6",
"K.	c #88CADC",
"L.	c #65AFC8",
"M.	c #DDE2E2",
"N.	c #819FAB",
"O.	c #44A9C6",
"P.	c #3AA1C4",
"Q.	c #3CA0C4",
"R.	c #48ACC6",
"S.	c #A9CFD4",
"T.	c #61B8CC",
"U.	c #66B8CE",
"V.	c #7CC0D3",
"W.	c #8DC9DB",
"X.	c #8FCDDC",
"Y.	c #8FCADC",
"Z.	c #92CDDD",
"`.	c #99CFDE",
" +	c #B6DFEA",
".+	c #B8E0EC",
"++	c #A8D8E6",
"@+	c #8DCEE1",
"#+	c #8AC0CB",
"$+	c #75A0AF",
"%+	c #45A3BB",
"&+	c #77ACBA",
"*+	c #9BD0DC",
"=+	c #86C6D8",
"-+	c #95D0DE",
";+	c #99D2E0",
">+	c #9ED3E1",
",+	c #A4D8E6",
"'+	c #A9D9E7",
")+	c #B4E1EA",
"!+	c #C8E7EE",
"~+	c #B8E1EC",
"{+	c #8BCDDE",
"]+	c #8ABDCE",
"^+	c #6697A6",
"/+	c #B6DAE1",
"(+	c #8BCEDC",
"_+	c #99D1DF",
":+	c #A0D5E3",
"<+	c #A6D8E5",
"[+	c #ABDBE9",
"}+	c #ABDDEA",
"|+	c #A9D7E8",
"1+	c #9BD6E2",
"2+	c #A2D5E4",
"3+	c #8ECBDC",
"4+	c #7FBBCD",
"5+	c #9AB9C2",
"6+	c #81C8D7",
"7+	c #97D1E0",
"8+	c #9BD4E2",
"9+	c #9DD4E2",
"0+	c #A0D5E6",
"a+	c #95CFDD",
"b+	c #6DBDD3",
"c+	c #86CADF",
"d+	c #84CDE0",
"e+	c #3F9EB4",
"f+	c #84AFBB",
"g+	c #CADDDF",
"h+	c #72BED3",
"i+	c #85C8D9",
"j+	c #85C9DC",
"k+	c #7DC8DC",
"l+	c #6CB9CF",
"m+	c #7CBCD2",
"n+	c #A6CFDA",
"o+	c #8CBFCB",
"p+	c #BDCDD0",
"q+	c #8AC9D5",
"r+	c #97D6EA",
"s+	c #74B4C3",
"t+	c #7BA1AD",
"u+	c #EBF3F4",
"v+	c #A3B0B4",
"                                                                ",
"                                                                ",
"                                                                ",
"                                                                ",
"                                                                ",
"                                                                ",
"                                                                ",
"                                                                ",
"                                                                ",
"                                            . + @               ",
"                  #   $ % & * =             - ; >               ",
"              , ' ) ! ~ { ] ^ / ( _ : < [ } | 1 2 3             ",
"          4 5 6 7 8 9 0 a b c d e f g h i j k l m n             ",
"        o p q r s t u v w x y z A B C D E F G H I J K           ",
"      L M N O P Q R S T U V W X Y Z `  ...+.@.#.$.%.&.          ",
"      *.=.-.;.>.,.'.).!.~.{.].^./.(.(.N _.:.<.[.}.|.1.2.        ",
"    3.4.5.6.7.8.9.0.a.b.c.d.e.f.g.h.i.j.+.k.l.m.n.o.p.q.        ",
"      r.s.t.u.v.w.x.y.      z.A.B.C.D.E.E.F.G.H.I.J.K.L.M.      ",
"      N.O.P.Q.R.S.              T.U.V.W.X.Y.Z.`. +.+++@+#+      ",
"        $+%+&+                    *+=+-+;+>+,+'+)+!+~+{+]+      ",
"          ^+                      /+(+_+:+<+[+}+|+1+2+3+4+5+    ",
"                                  6+7+8+9+0+a+b+c+d+e+f+g+      ",
"                                  h+i+j+k+l+m+n+o+p+            ",
"                                q+r+s+t+  u+                    ",
"                                  v+                            ",
"                                                                ",
"                                                                ",
"                                                                ",
"                                                                ",
"                                                                ",
"                                                                ",
"                                                                "};
