/* XPM */
static const char * robotSim_xpm[] = {
"16 16 52 1",
" 	c None",
".	c #030500",
"+	c #000000",
"@	c #A5D11A",
"#	c #BAED1E",
"$	c #9AC418",
"%	c #BBEE1D",
"&	c #759513",
"*	c #82A515",
"=	c #8FB517",
"-	c #B5E61D",
";	c #B4E51C",
">	c #A1CC19",
",	c #546B0D",
"'	c #ADDC1B",
")	c #AAD81B",
"!	c #ACDA1B",
"~	c #B3E31C",
"{	c #5F790F",
"]	c #040601",
"^	c #54690E",
"/	c #ACDB1C",
"(	c #B7E91D",
"_	c #90B817",
":	c #6E8C11",
"<	c #BCEF1E",
"[	c #85AA15",
"}	c #87AC15",
"|	c #495C0C",
"1	c #82A614",
"2	c #93BB17",
"3	c #A1CC1A",
"4	c #546A0D",
"5	c #80A315",
"6	c #0A0D01",
"7	c #C5FB1F",
"8	c #B6E71D",
"9	c #7EA014",
"0	c #B0DF1C",
"a	c #B4E41D",
"b	c #BDF01E",
"c	c #344208",
"d	c #3B4B0A",
"e	c #39480A",
"f	c #3F500A",
"g	c #2A3606",
"h	c #9DC719",
"i	c #7C9E14",
"j	c #42540A",
"k	c #566E0D",
"l	c #556B0D",
"m	c #364408",
"        .+      ",
"       +@#+     ",
"      +$%&*+    ",
"     +=-;>,'+   ",
"    +);-!++~{+  ",
"   ]^/(_+ +:<+  ",
"  +[}|1+   +2+  ",
"  +345+     67+ ",
"  +/89+     +0+ ",
"  +/-9+      +  ",
"  +/-9+      +  ",
"  +/-9+     + + ",
"  +ab*+         ",
" +cdefg+        ",
" +h~~~i+        ",
" +j,klm+        "};
