/* XPM */
static const char * robotSimSelect_xpm[] = {
"16 16 101 2",
"  	c None",
". 	c #140CFF",
"+ 	c #130BFE",
"@ 	c #130BFF",
"# 	c #0A0763",
"$ 	c #394823",
"% 	c #1715A1",
"& 	c #1410B0",
"* 	c #A5D21A",
"= 	c #BAED1E",
"- 	c #3B4B12",
"; 	c #130CF3",
"> 	c #0C089B",
", 	c #9DC813",
"' 	c #BBEE1D",
") 	c #759513",
"! 	c #83A613",
"~ 	c #222837",
"{ 	c #130AFF",
"] 	c #171690",
"^ 	c #95BE0C",
"/ 	c #B5E61D",
"( 	c #B4E51C",
"_ 	c #A2CE17",
": 	c #556D09",
"< 	c #B0E018",
"[ 	c #110DAC",
"} 	c #140CFE",
"| 	c #130CFE",
"1 	c #140BFF",
"2 	c #151477",
"3 	c #ACDB18",
"4 	c #B5E61C",
"5 	c #ACDA1B",
"6 	c #151286",
"7 	c #1D2161",
"8 	c #B3E31C",
"9 	c #5E7716",
"0 	c #1108FF",
"a 	c #140DFF",
"b 	c #080738",
"c 	c #556A0B",
"d 	c #ACDB1C",
"e 	c #B7E91D",
"f 	c #91B915",
"g 	c #130FB1",
"h 	c #1109F0",
"i 	c #6D8B13",
"j 	c #BEF11C",
"k 	c #232951",
"l 	c #0500A8",
"m 	c #8BB20A",
"n 	c #87AC15",
"o 	c #495C0C",
"p 	c #80A219",
"q 	c #0600B2",
"r 	c #0600AE",
"s 	c #97C110",
"t 	c #546B10",
"u 	c #120BEB",
"v 	c #0100A5",
"w 	c #A6D312",
"x 	c #546A0D",
"y 	c #83A70E",
"z 	c #0500BC",
"A 	c #0C0D3D",
"B 	c #C7FD1D",
"C 	c #101150",
"D 	c #B2E213",
"E 	c #B6E71D",
"F 	c #84A709",
"G 	c #0A01E9",
"H 	c #07009C",
"I 	c #B6E912",
"J 	c #0D0B74",
"K 	c #0A01E8",
"L 	c #000000",
"M 	c #140CF9",
"N 	c #0000A9",
"O 	c #B9EC14",
"P 	c #BDF01E",
"Q 	c #88AD09",
"R 	c #0800EF",
"S 	c #130BFA",
"T 	c #130BFD",
"U 	c #120BE2",
"V 	c #354400",
"W 	c #3B4B0B",
"X 	c #39480A",
"Y 	c #3F500B",
"Z 	c #2B3800",
"` 	c #130CDB",
" .	c #A0CC13",
"..	c #82A706",
"+.	c #1107FF",
"@.	c #130CED",
"#.	c #343F52",
"$.	c #47583E",
"%.	c #4B5D37",
"&.	c #49593B",
"*.	c #2C344F",
". . . . . . + @ # $ % @ . . . . ",
". . . . . + . & * = - ; . . . . ",
". . . . + . > , ' ) ! ~ { . . . ",
". . . + @ ] ^ / ( _ : < [ . } . ",
". | @ 1 2 3 ( 4 5 6 7 8 9 0 . . ",
". 1 a b c d e f g @ h i j k + . ",
". . l m n o p q . + . r s t u . ",
". . v w x y z + } . + . A B C 1 ",
". . v D E F G . . . . + H I J . ",
". . v D / F K . . . . . { L M @ ",
". . v D / F K . . . . . L L L . ",
". . v D / F K . . . . . L . L . ",
"+ . N O P Q R + . . . + S T . + ",
". U V W X Y Z 1 . . . . . . . . ",
". `  .8 8 8 ..+.. . . . . . . . ",
". @.#.$.%.&.*.@ . . . . . . . . "};
