/* XPM */
static char * SaveXMLEdit_xpm[] = {
"29 29 360 2",
"  	c None",
". 	c #58A6CF",
"+ 	c #5DA3C7",
"@ 	c #C0DAE8",
"# 	c #F9FBFD",
"$ 	c #D5E6EF",
"% 	c #C2DBE8",
"& 	c #C6DEEA",
"* 	c #E0EDF4",
"= 	c #FAFCFD",
"- 	c #FFFFFF",
"; 	c #FEFEFE",
"> 	c #F6FAFB",
", 	c #86BAD4",
"' 	c #4E9BC2",
") 	c #5EABD5",
"! 	c #5EADD8",
"~ 	c #58A5CD",
"{ 	c #589FC2",
"] 	c #FBFCFD",
"^ 	c #8CBCD3",
"/ 	c #599FC0",
"( 	c #64A5C5",
"_ 	c #ADCFE0",
": 	c #F5F9FB",
"< 	c #7FB5CF",
"[ 	c #4997BD",
"} 	c #5FACD5",
"| 	c #5CABD7",
"1 	c #5BAAD7",
"2 	c #5CABD6",
"3 	c #55A2CA",
"4 	c #529ABC",
"5 	c #BFD9E6",
"6 	c #75AEC8",
"7 	c #3889B0",
"8 	c #4691B5",
"9 	c #9DC5D8",
"0 	c #F4F8FA",
"a 	c #7AB1CA",
"b 	c #4392B7",
"c 	c #5DAAD3",
"d 	c #59A9D5",
"e 	c #59A8D5",
"f 	c #59A8D4",
"g 	c #5AA9D3",
"h 	c #519EC6",
"i 	c #4D95B6",
"j 	c #BED8E3",
"k 	c #71AAC3",
"l 	c #3284A9",
"m 	c #408CAF",
"n 	c #9AC2D4",
"o 	c #F3F8FA",
"p 	c #76ADC6",
"q 	c #3E8CB0",
"r 	c #5AA7D0",
"s 	c #57A7D2",
"t 	c #57A6D2",
"u 	c #58A7D1",
"v 	c #4890B1",
"w 	c #BCD6E1",
"x 	c #6DA6BF",
"y 	c #2C7EA3",
"z 	c #3A87A9",
"A 	c #97BFD1",
"B 	c #72A9C2",
"C 	c #3987AA",
"D 	c #55A5D0",
"E 	c #55A4D0",
"F 	c #56A5CF",
"G 	c #4B99BF",
"H 	c #458EAE",
"I 	c #BAD5E0",
"J 	c #84B3C8",
"K 	c #4D91B0",
"L 	c #5999B5",
"M 	c #A8C9D8",
"N 	c #F5F9FA",
"O 	c #FDFEFB",
"P 	c #EFF9E5",
"Q 	c #7BB4A5",
"R 	c #4C9991",
"S 	c #65B1AD",
"T 	c #64B1AF",
"U 	c #63B1AF",
"V 	c #62AFB1",
"W 	c #59A8C0",
"X 	c #53A3CC",
"Y 	c #54A3CC",
"Z 	c #4A98BD",
"` 	c #3A87A8",
" .	c #A2C6D5",
"..	c #F6F9FB",
"+.	c #EDF3F6",
"@.	c #E5EFF3",
"#.	c #E7F0F4",
"$.	c #F2F7F9",
"%.	c #FDFEFE",
"&.	c #F2FAE6",
"*.	c #C5EE8D",
"=.	c #9DDF58",
"-.	c #96DB55",
";.	c #9ADF59",
">.	c #99DF59",
",.	c #95DB5A",
"'.	c #75BF87",
").	c #55A4C1",
"!.	c #51A0CA",
"~.	c #4997BC",
"{.	c #3081A4",
"].	c #4089AA",
"^.	c #649FB9",
"/.	c #6AA3BC",
"(.	c #70ACA5",
"_.	c #87CA4F",
":.	c #92D91E",
"<.	c #92D91C",
"[.	c #91D824",
"}.	c #76C069",
"|.	c #54A3BA",
"1.	c #4E9EC6",
"2.	c #509CC1",
"3.	c #3F8CAF",
"4.	c #3484A7",
"5.	c #3383A6",
"6.	c #3483A6",
"7.	c #419091",
"8.	c #74BE45",
"9.	c #90D71C",
"0.	c #91D81B",
"a.	c #8FD620",
"b.	c #73BF64",
"c.	c #52A2B7",
"d.	c #4A9AC3",
"e.	c #529FC5",
"f.	c #58A2C5",
"g.	c #56A0C2",
"h.	c #55A0C2",
"i.	c #5EA8A8",
"j.	c #7EC64D",
"k.	c #8FD61D",
"l.	c #8FD71C",
"m.	c #8DD521",
"n.	c #71BD64",
"o.	c #509FB5",
"p.	c #4798C0",
"q.	c #52A1A7",
"r.	c #78C34E",
"s.	c #8DD51E",
"t.	c #8DD51D",
"u.	c #8BD322",
"v.	c #6FBB63",
"w.	c #4D9DB2",
"x.	c #4596BE",
"y.	c #509FA5",
"z.	c #76C14E",
"A.	c #8BD31F",
"B.	c #8BD31E",
"C.	c #89D223",
"D.	c #6DB962",
"E.	c #4B9BB0",
"F.	c #4394BC",
"G.	c #4E9DA4",
"H.	c #74BF4E",
"I.	c #88D120",
"J.	c #89D21F",
"K.	c #89D220",
"L.	c #87D024",
"M.	c #6BB762",
"N.	c #4999AE",
"O.	c #4191B9",
"P.	c #4C9BA2",
"Q.	c #72BD4E",
"R.	c #86D021",
"S.	c #86CF21",
"T.	c #84CE25",
"U.	c #69B562",
"V.	c #4797AC",
"W.	c #3F90B7",
"X.	c #4090B7",
"Y.	c #4091B7",
"Z.	c #4A9AA1",
"`.	c #6FBB4F",
" +	c #84CE23",
".+	c #84CE22",
"++	c #82CC26",
"@+	c #66B362",
"#+	c #4494A9",
"$+	c #3D8DB4",
"%+	c #4793B8",
"&+	c #63A3C3",
"*+	c #71ACC8",
"=+	c #72ACC8",
"-+	c #6DAAC0",
";+	c #68A8B7",
">+	c #67A8B7",
",+	c #6BADA1",
"'+	c #79C050",
")+	c #81CB25",
"!+	c #80CB24",
"~+	c #7FC928",
"{+	c #66B35D",
"]+	c #47979D",
"^+	c #3A8BB2",
"/+	c #6DAAC6",
"(+	c #D4E6EE",
"_+	c #F7FAFC",
":+	c #F8FBFC",
"<+	c #F8FAFC",
"[+	c #F9FBFC",
"}+	c #F9FAFC",
"|+	c #F8FAFB",
"1+	c #D7ECC3",
"2+	c #ADDB7D",
"3+	c #AADA79",
"4+	c #A4D76D",
"5+	c #8BCD3F",
"6+	c #7DC826",
"7+	c #7CC827",
"8+	c #72BE3E",
"9+	c #65B258",
"0+	c #71BD3E",
"a+	c #3889AF",
"b+	c #81B5CD",
"c+	c #ECF4F7",
"d+	c #F9F9FA",
"e+	c #E5E9ED",
"f+	c #E2E6EB",
"g+	c #C4DAB9",
"h+	c #87C645",
"i+	c #7AC528",
"j+	c #7AC527",
"k+	c #7CC727",
"l+	c #3687AD",
"m+	c #82B4CC",
"n+	c #EDF4F7",
"o+	c #F5F7F9",
"p+	c #D9DFE6",
"q+	c #D5DBE3",
"r+	c #D2DADD",
"s+	c #B0D493",
"t+	c #80C637",
"u+	c #77C229",
"v+	c #3485AB",
"w+	c #80B3CA",
"x+	c #FBFBFC",
"y+	c #EDF0F3",
"z+	c #EBEEF1",
"A+	c #DDE9D9",
"B+	c #A1D177",
"C+	c #77BF32",
"D+	c #73BE2B",
"E+	c #73BE2C",
"F+	c #6AB63E",
"G+	c #3182A8",
"H+	c #7FB1C9",
"I+	c #ECF3F7",
"J+	c #F1F3F6",
"K+	c #CAD1DB",
"L+	c #C3CCD6",
"M+	c #C3CCD7",
"N+	c #C1CBD3",
"O+	c #AAC5AA",
"P+	c #80BD52",
"Q+	c #6FBB2E",
"R+	c #70BB2E",
"S+	c #6BB737",
"T+	c #509F6B",
"U+	c #2F81A6",
"V+	c #7DB1C8",
"W+	c #FCFCFD",
"X+	c #F4F5F7",
"Y+	c #F2F4F6",
"Z+	c #F3F4F6",
"`+	c #F0F4F0",
" @	c #C2E1AD",
".@	c #7BC047",
"+@	c #6BB830",
"@@	c #6AB730",
"#@	c #6CB835",
"$@	c #61AA5F",
"%@	c #3D8C97",
"&@	c #2D7EA3",
"*@	c #7CAEC6",
"=@	c #F7F7F9",
"-@	c #DEE3E9",
";@	c #DADFE6",
">@	c #CCD9D3",
",@	c #96C381",
"'@	c #6DB53D",
")@	c #66B432",
"!@	c #68B434",
"~@	c #82C15C",
"{@	c #85B8A6",
"]@	c #428BAB",
"^@	c #2A7CA0",
"/@	c #7BAEC4",
"(@	c #ECF3F6",
"_@	c #F5F6F8",
":@	c #D6DCE3",
"<@	c #D2D8E0",
"[@	c #D1D8DF",
"}@	c #C4D6C5",
"|@	c #89C16A",
"1@	c #66B238",
"2@	c #63B134",
"3@	c #63B135",
"4@	c #76BB4D",
"5@	c #B9DBA7",
"6@	c #A4C8D0",
"7@	c #418AAA",
"8@	c #297B9F",
"9@	c #76A3AE",
"0@	c #E4DBC3",
"a@	c #F7E4C7",
"b@	c #F6E4C6",
"c@	c #F7E4C6",
"d@	c #F5E3C4",
"e@	c #C1CB86",
"f@	c #78B340",
"g@	c #64B135",
"h@	c #68B137",
"i@	c #9CBE5F",
"j@	c #E0D9AF",
"k@	c #A5BAB7",
"l@	c #3F86A3",
"m@	c #2C7B9F",
"n@	c #5F8B8C",
"o@	c #ADA172",
"p@	c #BAA56D",
"q@	c #AFA366",
"r@	c #7DA252",
"s@	c #63AF39",
"t@	c #68A845",
"u@	c #9DA15C",
"v@	c #B5A46D",
"w@	c #809481",
"x@	c #397F9A",
"y@	c #3B819F",
"z@	c #4B8598",
"A@	c #5A878E",
"B@	c #5D888D",
"C@	c #5E888D",
"D@	c #558B89",
"E@	c #5C9F63",
"F@	c #559577",
"G@	c #5B898C",
"H@	c #5C888D",
"I@	c #518594",
"J@	c #4F879E",
"K@	c #9BA1A3",
"L@	c #8E9CA3",
"M@	c #8C9CA3",
"N@	c #8C9BA2",
"O@	c #8D9CA3",
"P@	c #8C9CA2",
"Q@	c #92A199",
"R@	c #8F9E9E",
"S@	c #929EA3",
"      . + @ # $ % & * = - ; - ; ; ; > , ' )               ",
"    ! ~ { % ] ^ / ( _ : - ; - ; ; ; = < [ } | 1           ",
"    2 3 4 5 ] 6 7 8 9 0 - - - - - - = a b c d e f         ",
"    g h i j ] k l m n o - - - ; ; ; = p q r s s t         ",
"    u ' v w = x y z A o - - - ; ; ; # B C ~ D D D E       ",
"    F G H I ] J K L M N - - - - - O P Q R S T U V W X     ",
"    Y Z `  ...+.@.#.$.%.- ; - ; ; &.*.=.-.;.>.>.,.'.).    ",
"    !.~.{.].^././././././././././.(._.:.<.<.<.<.[.}.|.    ",
"    1.2.3.4.5.5.5.6.5.5.6.5.6.5.5.7.8.9.0.0.0.0.a.b.c.    ",
"    d.e.f.g.h.h.h.h.h.h.h.h.h.h.h.i.j.k.l.l.l.l.m.n.o.    ",
"    p.p.p.p.p.p.p.p.p.p.p.p.p.p.p.q.r.s.t.t.t.t.u.v.w.    ",
"    x.x.x.x.x.x.x.x.x.x.x.x.x.x.x.y.z.A.B.A.B.B.C.D.E.    ",
"    F.F.F.F.F.F.F.F.F.F.F.F.F.F.F.G.H.I.J.K.J.K.L.M.N.    ",
"    O.O.O.O.O.O.O.O.O.O.O.O.O.O.O.P.Q.R.R.R.S.R.T.U.V.    ",
"    W.W.X.Y.Y.Y.Y.Y.Y.Y.Y.Y.Y.Y.Y.Z.`. +.+.+.+.+++@+#+    ",
"    $+%+&+*+=+=+=+=+=+=+=+=+-+;+>+,+'+)+!+!+!+!+~+{+]+    ",
"    ^+/+(+_+:+<+<+[+}+}+:+|+1+2+3+4+5+6+6+6+6+6+7+8+9+0+  ",
"    a+b+c+d+e+f+f+f+f+f+f+f+g+h+i+j+j+j+j+j+j+j+j+j+j+j+k+",
"    l+m+n+o+p+q+q+q+q+q+q+q+r+s+t+u+u+u+u+u+u+u+u+u+u+u+  ",
"    v+w+n+x+y+z+z+z+z+z+z+z+z+A+B+C+D+D+D+D+D+D+D+E+F+    ",
"    G+H+I+J+K+L+L+L+L+L+L+L+M+N+O+P+Q+Q+Q+R+Q+Q+Q+S+T+    ",
"    U+V+I+W+X+Y+Y+Z+Z+Z+Z+Y+Z+Y+`+ @.@+@@@@@@@@@#@$@%@    ",
"    &@*@I+=@-@;@;@;@;@;@;@;@;@;@;@>@,@'@)@)@)@!@~@{@]@    ",
"    ^@/@(@_@:@<@<@<@<@<@<@<@<@<@<@[@}@|@1@2@3@4@5@6@7@    ",
"    8@9@0@a@b@b@b@c@b@b@c@b@a@b@b@b@d@e@f@g@h@i@j@k@l@    ",
"    m@n@o@p@p@p@p@p@p@p@p@p@p@p@p@p@p@q@r@s@t@u@v@w@x@    ",
"    y@z@A@B@C@C@C@C@C@C@C@C@C@C@C@C@C@C@D@E@F@G@H@I@J@    ",
"    K@L@M@M@N@N@N@M@M@M@M@N@O@N@N@N@N@M@P@Q@R@M@M@O@S@    ",
"                                                          "};
