/* XPM */
static char * SaveXMLEdit_xpm[] = {
"33 33 327 2",
"  	c None",
". 	c #61AED9",
"+ 	c #4F9DC5",
"@ 	c #67A8C9",
"# 	c #E1EDF4",
"$ 	c #FDFEFE",
"% 	c #DFECF3",
"& 	c #CFE3ED",
"* 	c #CEE3ED",
"= 	c #D9E9F1",
"- 	c #F7FAFC",
"; 	c #FEFEFE",
"> 	c #FFFFFF",
", 	c #EFF6F9",
"' 	c #529DC2",
") 	c #4D9BC3",
"! 	c #5FACD7",
"~ 	c #5CABD7",
"{ 	c #64B0DA",
"] 	c #4E9BC1",
"^ 	c #60A3C4",
"/ 	c #E7F1F6",
"( 	c #94C1D7",
"_ 	c #63A5C5",
": 	c #83B7D1",
"< 	c #EBF3F7",
"[ 	c #F6FAFC",
"} 	c #4593BA",
"| 	c #4C9ABF",
"1 	c #62AED8",
"2 	c #5CABD8",
"3 	c #5AAAD6",
"4 	c #62AFD8",
"5 	c #4997BD",
"6 	c #5A9EBF",
"7 	c #E6F0F5",
"8 	c #78B0CA",
"9 	c #3A8BB2",
"0 	c #62A3C2",
"a 	c #E5F0F5",
"b 	c #3E8EB4",
"c 	c #4795BA",
"d 	c #60ADD6",
"e 	c #5AA9D6",
"f 	c #5AA9D5",
"g 	c #58A7D3",
"h 	c #4492B8",
"i 	c #569ABA",
"j 	c #E6F0F4",
"k 	c #75ACC6",
"l 	c #3586AC",
"m 	c #5E9FBD",
"n 	c #E5EFF4",
"o 	c #F6FAFB",
"p 	c #3989AE",
"q 	c #4290B4",
"r 	c #5EABD4",
"s 	c #56A6D1",
"t 	c #408EB2",
"u 	c #5195B4",
"v 	c #71A9C2",
"w 	c #2F81A6",
"x 	c #599AB8",
"y 	c #E4EFF3",
"z 	c #F6F9FB",
"A 	c #3484A8",
"B 	c #3D8BAF",
"C 	c #5CA9D2",
"D 	c #55A4D0",
"E 	c #5DA9D2",
"F 	c #3B8AAE",
"G 	c #4D92B0",
"H 	c #E4EEF3",
"I 	c #6DA5BE",
"J 	c #2B7CA1",
"K 	c #2A7CA1",
"L 	c #5697B4",
"M 	c #F5F9FB",
"N 	c #2F7FA3",
"O 	c #3987AA",
"P 	c #5AA7D0",
"Q 	c #55A4CF",
"R 	c #54A4CF",
"S 	c #52A2CD",
"T 	c #5BA8D0",
"U 	c #3A89AC",
"V 	c #4B90AE",
"W 	c #8EB9CC",
"X 	c #5A99B5",
"Y 	c #7CAEC4",
"Z 	c #EAF2F5",
"` 	c #F9FDF3",
" .	c #E0F3CA",
"..	c #4F9C84",
"+.	c #56A189",
"@.	c #6DB8A4",
"#.	c #69B6A3",
"$.	c #63B0AA",
"%.	c #53A3CA",
"&.	c #51A1CB",
"*.	c #59A6CE",
"=.	c #3988AB",
"-.	c #3884A5",
";.	c #C4DBE5",
">.	c #DEF4BC",
",.	c #A4E54C",
"'.	c #A2E64C",
").	c #97DD4D",
"!.	c #5DABAB",
"~.	c #4E9EC9",
"{.	c #57A4CC",
"].	c #297B9F",
"^.	c #488EAD",
"/.	c #6AA3BC",
"(.	c #6CA4BD",
"_.	c #7AB886",
":.	c #92D921",
"<.	c #92D91B",
"[.	c #8FD62E",
"}.	c #5FACA0",
"|.	c #4D9DC6",
"1.	c #53A1C9",
"2.	c #4994B6",
"3.	c #287A9E",
"4.	c #4D9C6F",
"5.	c #8FD71D",
"6.	c #91D81B",
"7.	c #8CD428",
"8.	c #5DAB9D",
"9.	c #4B9BC4",
"0.	c #4C9BC4",
"a.	c #62AACB",
"b.	c #5FA5C4",
"c.	c #5CA3C2",
"d.	c #6EB586",
"e.	c #8FD61E",
"f.	c #8FD71C",
"g.	c #8AD328",
"h.	c #5BA99C",
"i.	c #4899C1",
"j.	c #61AE86",
"k.	c #8DD51F",
"l.	c #8ED61D",
"m.	c #8ED61C",
"n.	c #89D129",
"o.	c #59A79A",
"p.	c #4697BF",
"q.	c #60AD85",
"r.	c #8BD320",
"s.	c #8CD41E",
"t.	c #87D029",
"u.	c #57A699",
"v.	c #4595BD",
"w.	c #5DAB84",
"x.	c #89D221",
"y.	c #8AD31F",
"z.	c #8AD31E",
"A.	c #85CE2A",
"B.	c #55A397",
"C.	c #4293BB",
"D.	c #5CAA83",
"E.	c #87D022",
"F.	c #88D120",
"G.	c #83CD2B",
"H.	c #53A296",
"I.	c #4191B9",
"J.	c #5AA782",
"K.	c #85CE23",
"L.	c #86D021",
"M.	c #86CF21",
"N.	c #81CB2C",
"O.	c #51A095",
"P.	c #3F90B7",
"Q.	c #57A682",
"R.	c #83CD25",
"S.	c #84CE22",
"T.	c #7FC92D",
"U.	c #4F9E93",
"V.	c #3E8FB6",
"W.	c #3D8EB4",
"X.	c #3D8DB4",
"Y.	c #4391B7",
"Z.	c #5299BC",
"`.	c #549BBD",
" +	c #64AC86",
".+	c #81CB26",
"++	c #81CB24",
"@+	c #7CC72E",
"#+	c #4D9C92",
"$+	c #3B8CB3",
"%+	c #91BFD4",
"&+	c #EEF5F8",
"*+	c #F8FAFC",
"=+	c #F7FAFB",
"-+	c #DCEECD",
";+	c #C0E39E",
">+	c #BFE29D",
",+	c #A8D973",
"'+	c #7FC927",
")+	c #7EC925",
"!+	c #7BC72B",
"~+	c #61AE62",
"{+	c #59A773",
"]+	c #73BF3B",
"^+	c #398AB0",
"/+	c #388AB0",
"(+	c #CEE2EB",
"_+	c #FBFCFC",
":+	c #FBFBFC",
"<+	c #FBFBFB",
"[+	c #CDE8B0",
"}+	c #83C933",
"|+	c #7BC627",
"1+	c #7CC727",
"2+	c #3788AE",
"3+	c #D2E4ED",
"4+	c #ECEFF2",
"5+	c #C0C9D5",
"6+	c #BDC8CF",
"7+	c #93C36D",
"8+	c #79C329",
"9+	c #78C328",
"0+	c #D2E4EC",
"a+	c #F7F8FA",
"b+	c #E6EAEE",
"c+	c #E6E9EE",
"d+	c #DBE8D5",
"e+	c #8DCB4E",
"f+	c #76C12A",
"g+	c #75C02B",
"h+	c #3384AA",
"i+	c #D1E3EC",
"j+	c #FAFBFB",
"k+	c #EEF0F3",
"l+	c #EDF0F3",
"m+	c #C5DEB6",
"n+	c #7BC03E",
"o+	c #72BD2C",
"p+	c #72BD2D",
"q+	c #5DAA56",
"r+	c #3182A8",
"s+	c #D1E3EB",
"t+	c #E9ECF0",
"u+	c #B8C2CF",
"v+	c #B8C2CE",
"w+	c #B4C1C8",
"x+	c #91BE79",
"y+	c #6FBB2E",
"z+	c #6EBB2E",
"A+	c #63B144",
"B+	c #3D8D90",
"C+	c #D0E3EB",
"D+	c #FDFDFE",
"E+	c #FAFAFB",
"F+	c #F9FAFB",
"G+	c #F2F8EF",
"H+	c #90CA64",
"I+	c #6BB831",
"J+	c #6AB730",
"K+	c #6DB73B",
"L+	c #519B85",
"M+	c #2F81A5",
"N+	c #2D7EA3",
"O+	c #D0E2EB",
"P+	c #F5F6F8",
"Q+	c #DFE3E9",
"R+	c #DEE3E8",
"S+	c #B9D2B5",
"T+	c #71B645",
"U+	c #67B432",
"V+	c #66B432",
"W+	c #9ACB82",
"X+	c #67A2BA",
"Y+	c #2B7DA1",
"Z+	c #D0E2EA",
"`+	c #C1CAD5",
" @	c #BFC9D2",
".@	c #A1C696",
"+@	c #66B237",
"@@	c #63B134",
"#@	c #64B235",
"$@	c #89C464",
"%@	c #DEEDDE",
"&@	c #68A3BC",
"*@	c #CFE1E9",
"=@	c #FBFDF9",
"-@	c #90C770",
";@	c #62B034",
">@	c #63B135",
",@	c #71B847",
"'@	c #D2E8C5",
")@	c #F1F6F8",
"!@	c #67A1BB",
"~@	c #BFAD7B",
"{@	c #EABB70",
"]@	c #CBB459",
"^@	c #78AF37",
"/@	c #64B035",
"(@	c #A3AF43",
"_@	c #E6BA6C",
":@	c #DFB873",
"<@	c #618D91",
"[@	c #327D9F",
"}@	c #768C77",
"|@	c #8C906B",
"1@	c #8B906B",
"2@	c #6A9762",
"3@	c #61AF39",
"4@	c #5CA44D",
"5@	c #849269",
"6@	c #868F6E",
"7@	c #45808F",
"8@	c #2D7C9F",
"9@	c #5088A0",
"0@	c #4384A0",
"a@	c #4283A0",
"b@	c #4383A0",
"c@	c #4484A0",
"d@	c #4483A0",
"e@	c #45859D",
"f@	c #5C9A74",
"g@	c #508F89",
"h@	c #43849F",
"i@	c #4985A0",
"j@	c #6890A1",
"k@	c #A4A4A4",
"l@	c #A3A3A3",
"      . + @ # $ % & * = - ; > ; > ; ; ; ; , ' ) !                 ",
"    ~ { ] ^ / ; ( _ _ : < ; > ; > ; ; ; ; [ } | 1 2 ~             ",
"    3 4 5 6 7 > 8 9 9 0 a > > > > > > > > [ b c d 3 e f           ",
"    g d h i j ; k l l m n ; > ; > ; ; ; ; o p q r g g g           ",
"    s r t u n > v w w x y > > > > > > > > z A B C s s s s         ",
"    D E F G H ; I J K L H ; > ; > ; ; ; ; M N O P Q R D D R       ",
"    S T U V H > W X X Y Z > > > > > > > `  ...+.@.#.#.#.$.%.S     ",
"    &.*.=.-.;.; ; ; > ; > ; > ; > ; ; ; >.,.'.'.'.'.'.'.).!.&.    ",
"    ~.{.=.].^./.(.(.(.(.(.(.(.(.(.(.(.(._.:.<.<.<.<.<.<.[.}.~.    ",
"    |.1.2.].].3.3.3.].3.].3.].3.].3.3.3.4.5.6.6.6.6.6.6.7.8.|.    ",
"    9.0.a.b.c.c.c.c.c.c.c.c.c.c.c.c.c.c.d.e.f.f.f.f.f.f.g.h.9.    ",
"    i.i.i.i.i.i.i.i.i.i.i.i.i.i.i.i.i.i.j.k.l.m.l.m.l.m.n.o.i.    ",
"    p.p.p.p.p.p.p.p.p.p.p.p.p.p.p.p.p.p.q.r.s.s.s.s.s.s.t.u.p.    ",
"    v.v.v.v.v.v.v.v.v.v.v.v.v.v.v.v.v.v.w.x.y.z.y.z.y.z.A.B.v.    ",
"    C.C.C.C.C.C.C.C.C.C.C.C.C.C.C.C.C.C.D.E.F.F.F.F.F.F.G.H.C.    ",
"    I.I.I.I.I.I.I.I.I.I.I.I.I.I.I.I.I.I.J.K.L.M.L.M.L.M.N.O.I.    ",
"    P.P.P.P.P.P.P.P.P.P.P.P.P.P.P.P.P.P.Q.R.S.S.S.S.S.S.T.U.V.    ",
"    W.X.Y.Z.`.`.`.`.`.`.`.`.`.`.`.`.`.`. +.+++++++++++++@+#+W.    ",
"    $+$+%+&+- - - - *+- *+- - =+-+;+>+>+,+'+)+)+)+)+)+)+!+~+{+]+  ",
"    ^+/+(+; ; _+:+:+_+:+_+:+_+<+[+}+|+|+|+|+|+|+|+|+|+|+|+|+|+|+1+",
"    2+2+3+> 4+5+5+5+5+5+5+5+5+5+6+7+8+9+9+9+9+9+9+9+9+9+9+9+9+9+  ",
"    l l 0+; a+b+b+c+b+c+b+c+b+b+b+d+e+f+f+f+f+f+f+f+f+f+f+f+g+    ",
"    h+h+i+> j+k+k+k+k+k+k+k+k+k+k+l+m+n+o+o+o+o+o+o+o+o+o+p+q+    ",
"    r+r+s+; t+u+v+v+u+v+u+v+u+v+u+v+w+x+y+z+y+z+y+z+y+z+y+A+B+    ",
"    w w C+; D+E+F+F+E+F+E+F+E+F+E+F+E+G+H+I+J+J+J+J+J+J+K+L+M+    ",
"    N+N+O+; P+Q+Q+Q+Q+Q+Q+Q+Q+Q+Q+Q+Q+R+S+T+U+V+U+V+U+U+W+X+N+    ",
"    Y+Y+Z+> 4+`+`+`+`+`+`+`+`+`+`+`+`+`+ @.@+@@@@@@@#@$@%@&@Y+    ",
"    ].].*@; > ; ; ; > ; > ; > ; > ; ; ; ; =@-@;@>@;@,@'@)@!@].    ",
"    ].].~@{@{@{@{@{@{@{@{@{@{@{@{@{@{@{@{@{@]@^@>@/@(@_@:@<@].    ",
"    [@3.}@|@|@|@|@|@|@|@|@|@|@|@|@|@|@|@|@|@1@2@3@4@5@|@6@7@8@    ",
"      9@0@a@0@b@b@b@c@b@c@d@c@d@c@d@c@d@c@d@c@e@f@g@h@a@a@i@j@    ",
"    k@l@k@l@k@l@l@l@k@l@k@l@k@l@k@l@l@l@l@l@k@l@k@l@k@l@k@l@k@    ",
"                                                                  "};
