/* XPM */ 
static const char * saveworldxml_xpm[] = {
"16 16 54 1",
" 	c None",
"!	c black",
"#	c #628DEF",
"$	c #C1F2B4",
"%	c #5986F0",
"&	c #C5F3B4",
"'	c #6391DC",
"(	c #5880F7",
")	c #70A1DC",
"*	c #C6F3B4",
"+	c #5D88F3",
",	c #537DF9",
"-	c #D4FFAF",
".	c #C6F4B4",
"0	c #84B4D0",
"1	c #618BF0",
"2	c #A9E3B0",
"3	c #5D87F2",
"4	c #5C86F4",
"5	c #C7F6AD",
"6	c #A6DCB2",
"7	c #6080C0",
"8	c #206080",
"9	c #204080",
":	c #7CA7D3",
";	c #C9F6B1",
"<	c #C9F7B2",
"=	c #CAFDAD",
">	c #658DE0",
"?	c #A6CAF0",
"@	c white",
"A	c #2060C0",
"B	c #5680F4",
"C	c #6C96DD",
"D	c #C9F6B4",
"E	c #D1FDB0",
"F	c #D3FFAE",
"G	c #FFFBF0",
"H	c #4060C0",
"I	c #7AA4D5",
"J	c #A3DAB8",
"K	c #527CF9",
"L	c #BAEBB4",
"M	c #CCF9B1",
"N	c #5F8AF1",
"O	c #B3E7B1",
"P	c #92C8C0",
"Q	c #80A0C0",
"R	c #4080C0",
"S	c #FF0000",
"T	c #406080",
"U	c #004080",
"V	c #60A0C0",
"W	c #A0A0C0",
"    !!!         ",
"  !!##$!!       ",
" !###$$$#!      ",
"!#%$$&&#'#!     ",
"!()$$*$#+,!     ",
"!-.0123456!77789",
"!#:;<##=>$!??@A8",
"!##BC##DEF!@G@AH",
"!###IJ#KLM!??@AH",
" !!#NO##P!@QQQRH",
"   !!!!!!@@RRH7H",
" S   S7SHH7S7SRH",
"  S SH7SSTSSGS9H",
"   S H7SQSUS?S9H",
"  S SAVS?7WS@S9H",
" S   SASRR7S7SSS"};