/* XPM */
static char * SaveXMLEdit_xpm[] = {
"32 32 67 1",
" 	c None",
".	c #F6F9F6",
"+	c #ACD3AC",
"@	c #49A249",
"#	c #239124",
"$	c #1F8E20",
"%	c #219022",
"&	c #279328",
"*	c #289429",
"=	c #399A39",
"-	c #9ACA9A",
";	c #F1F7F2",
">	c #FEFEFE",
",	c #198A19",
"'	c #028104",
")	c #008001",
"!	c #048105",
"~	c #5EAD5E",
"{	c #B3D9B4",
"]	c #B8DCB8",
"^	c #B6DAB5",
"/	c #3E9C3E",
"(	c #0E850F",
"_	c #76B876",
":	c #EDF5ED",
"<	c #FFFFFF",
"[	c #118612",
"}	c #C1DEC1",
"|	c #77B978",
"1	c #80BC81",
"2	c #E0EEE0",
"3	c #92C793",
"4	c #088309",
"5	c #6BB36B",
"6	c #EBF4EB",
"7	c #259125",
"8	c #128614",
"9	c #C8E3C8",
"0	c #78B979",
"a	c #007F01",
"b	c #6CB46B",
"c	c #138814",
"d	c #0A840A",
"e	c #208E21",
"f	c #83BF85",
"g	c #1B8C1B",
"h	c #289228",
"i	c #CDE5CC",
"j	c #0B840C",
"k	c #A5D0A6",
"l	c #F8FAF8",
"m	c #F7FBF8",
"n	c #D0E6D0",
"o	c #4FA650",
"p	c #54A855",
"q	c #53A854",
"r	c #178917",
"s	c #BFDDBF",
"t	c #DFEDDE",
"u	c #51A751",
"v	c #57A958",
"w	c #FAFCFA",
"x	c #4DA54E",
"y	c #ADD4AD",
"z	c #1C8C1C",
"A	c #96C896",
"B	c #AFD4B0",
".+@#$$%&*************&*&%=-;>>>>",
"+,'))!~{]]]]]]]]]]]^]^]+/)(_:<<>",
"@))))[}><<<<<<<<<>^|_12>3')456<>",
"7))))89<<<<<<<<<<>0aa89>-'))4b:>",
"$))))89<<<<<<<<<<>0))c9<-')))d|;",
"%))))89<<<<<<<<<<>0))c9>-'))))(-",
"$)))'89<<<<<<<<<<>0))c9<-')))))=",
"%))))89<<<<<<<<<<>0))c9>-')))')%",
"$))))89<<<<<<<<<<>0))c9<-')))))%",
"%))))89<<<<<<<<<<>0))c9>-')))))e",
"$)))'89<<<<<<<<<<>fgghi<-')))))%",
"%))))jk.lllllllllm2iin:;|))))))e",
"$)))))$opqpppppppqqqqpp@c))))))%",
"%))))))))))))))))))))))))))))))e",
"$))))))))))))))))))))))))))))))%",
"%))'r################%#####r!))e",
"$))*s2t2222222222222222t22t}*))%",
"%)'pm<<<<<<<<<<<<<<<<<<<<<<mu))e",
"$)'vw<<<<<<<<<<<<<<<<<<<<<<lq))%",
"%))vw<<<<<<<<<<<<<<<<<<<<<<wq))e",
"$)'vw<<<<<<<<<<<<<<<<<<<<<<wq))%",
"%))vw<<<<<<<<<<<<<<<<<<<<<<mq))e",
"$)'vw<<<<<<<<<<<<<<<<<<<<<<mq))%",
"%))vw<<<<<<<<<<<<<<<<<<<<<<wq))e",
"$)'vw<<<<<<<<<<<<<<<<<<<<<<wq))%",
"%))vw<<<<<<<<<<<<<<<<<<<<<<mq))e",
"$)'vw<<<<<<<<<<<<<<<<<<<<<<mq))%",
"%))vw<<<<<<<<<<<<<<<<<<<<<<wq))e",
"#)'vw<<<<<<<<<<<<<<<<<<<<<<wq))7",
"@')u.<<<<<<<<<<<<<<<<<<<<<<mx))@",
"y,)zA^^^^^^^^^^^^^^^^^^^^^^Ag)gB",
"mB@77h*h*h*h*h*h*h*h***h***7&@Bl"};
