/* XPM */ 
static const char * saveobjectxml_xpm[] = {
"16 16 28 1",
" 	c None",
"!	c black",
"#	c #FF7E25",
"$	c #FF7923",
"%	c #6BFF6B",
"&	c #6DFF6D",
"'	c #FF7723",
"(	c #6080C0",
")	c #206080",
"*	c #204080",
"+	c #FF7A25",
",	c #FFFC00",
"-	c #FFFB00",
".	c #A6CAF0",
"0	c white",
"1	c #2060C0",
"2	c #FF7125",
"3	c #FFFF00",
"4	c #FFFBF0",
"5	c #4060C0",
"6	c #FCEE00",
"7	c #80A0C0",
"8	c #4080C0",
"9	c #FF0000",
":	c #406080",
";	c #004080",
"<	c #60A0C0",
"=	c #A0A0C0",
"                ",
" !!!!!!!!!!     ",
" !#$!!%%%&!     ",
" !$!'!%%%%!     ",
" !!'$!!!%%!((()*",
" !'+!,-!!%!..01)",
" !!2!3--!!!04015",
"  !!!----!0..015",
"    !--6-!((7785",
"    !!!!!!(885(5",
" 9   9(955(9(985",
"  9 95(99:9949*5",
"   9 5(979;9.9*5",
"  9 91<9.(=909*5",
" 9   91988(9(999",
"                "};