/* XPM */
static const char * saveObject_xpm[] = {
"16 16 28 1",
" 	c None",
".	c #000000",
"+	c #FF7E25",
"@	c #FF7923",
"#	c #6BFF6B",
"$	c #6DFF6D",
"%	c #FF7723",
"&	c #6080C0",
"*	c #206080",
"=	c #204080",
"-	c #FF7A25",
";	c #FFFC00",
">	c #FFFB00",
",	c #A6CAF0",
"'	c #FFFFFF",
")	c #2060C0",
"!	c #FF7125",
"~	c #FFFF00",
"{	c #FFFBF0",
"]	c #4060C0",
"^	c #FCEE00",
"/	c #80A0C0",
"(	c #4080C0",
"_	c #8080C0",
":	c #406080",
"<	c #004080",
"[	c #60A0C0",
"}	c #A0A0C0",
"                ",
" ..........     ",
" .+@..###$.     ",
" .@.%.####.     ",
" ..%@...##.&&&*=",
" .%-.;>..#.,,')*",
" ..!.~>>...'{')]",
"  ...>>>>.',,')]",
"    .>>^>.&&//(]",
"    ......&((]&]",
"     ]&(]]&&&_(]",
"     ]&=/:(,{'=]",
"     ]&*/<<,,'=]",
"     )[=,&}'''=]",
"     ))*((&&&&=&",
"                "};
