/* XPM */
static const char * save_xpm[] = {
"16 16 178 2",
"  	c #FCFCFC",
". 	c #F1F1F1",
"+ 	c #F2F2F2",
"@ 	c #F3F3F3",
"# 	c #F5F5F5",
"$ 	c #F7F9F8",
"% 	c #F8F9F9",
"& 	c #F8FAF9",
"* 	c #F9FAFA",
"= 	c #FAFBFB",
"- 	c #F9F9FA",
"; 	c #F9F9FB",
"> 	c #EEEEEE",
", 	c #FFFFFF",
"' 	c #F2F2F3",
") 	c #727273",
"! 	c #68686A",
"~ 	c #616163",
"{ 	c #6B6B6D",
"] 	c #CBCCCD",
"^ 	c #C4C5C7",
"/ 	c #CBCCCE",
"( 	c #C9CACB",
"_ 	c #BFC0C1",
": 	c #CDCDCF",
"< 	c #C8C8CA",
"[ 	c #505050",
"} 	c #8D8D8D",
"| 	c #FAFAFA",
"1 	c #646466",
"2 	c #606062",
"3 	c #4D4D4F",
"4 	c #525254",
"5 	c #CCCDCF",
"6 	c #D5D6D8",
"7 	c #A1A2A4",
"8 	c #3A3B3D",
"9 	c #AEAEB0",
"0 	c #DADADC",
"a 	c #4B4B4B",
"b 	c #3A3A3A",
"c 	c #E5E5E5",
"d 	c #F0F0F1",
"e 	c #656567",
"f 	c #505052",
"g 	c #59595B",
"h 	c #DBDCDE",
"i 	c #ECEDEF",
"j 	c #F6F7F9",
"k 	c #ABACAE",
"l 	c #515153",
"m 	c #9F9FA1",
"n 	c #BEBEC0",
"o 	c #4A4A4B",
"p 	c #424242",
"q 	c #E8E8E8",
"r 	c #565658",
"s 	c #636365",
"t 	c #E9EAEC",
"u 	c #EBECEE",
"v 	c #D9DADC",
"w 	c #CACBCD",
"x 	c #9B9C9E",
"y 	c #4C4D4F",
"z 	c #969698",
"A 	c #BBBBBD",
"B 	c #474748",
"C 	c #3F3F3F",
"D 	c #E7E7E7",
"E 	c #707072",
"F 	c #DEDFE1",
"G 	c #DDDEE0",
"H 	c #DADBDD",
"I 	c #D2D3D5",
"J 	c #C3C3C5",
"K 	c #E1E1E3",
"L 	c #D0D0D2",
"M 	c #444445",
"N 	c #3E3E3E",
"O 	c #EFEFF0",
"P 	c #555557",
"Q 	c #5D5D5F",
"R 	c #525355",
"S 	c #505153",
"T 	c #535456",
"U 	c #4D4E50",
"V 	c #47484A",
"W 	c #3C3C3E",
"X 	c #353538",
"Y 	c #3E3E3F",
"Z 	c #333333",
"` 	c #4B4B4D",
" .	c #4E4E50",
"..	c #4F4F51",
"+.	c #4F5052",
"@.	c #4E4F51",
"#.	c #4A4B4D",
"$.	c #464749",
"%.	c #414244",
"&.	c #38383A",
"*.	c #383839",
"=.	c #343434",
"-.	c #E6E6E6",
";.	c #EDEDEE",
">.	c #4B4B4E",
",.	c #454547",
"'.	c #808082",
").	c #949496",
"!.	c #969799",
"~.	c #999A9C",
"{.	c #9C9D9F",
"].	c #97989A",
"^.	c #9A9A9C",
"/.	c #737375",
"(.	c #323232",
"_.	c #2A2A2A",
":.	c #ECECEC",
"<.	c #3F3F40",
"[.	c #CFCFCF",
"}.	c #E4E6E6",
"|.	c #E4E6E5",
"1.	c #E1E3E3",
"2.	c #E1E3E2",
"3.	c #E2E4E3",
"4.	c #E3E5E5",
"5.	c #E5E5E7",
"6.	c #C9C9CB",
"7.	c #2E2E2F",
"8.	c #272727",
"9.	c #3D3D3D",
"0.	c #373737",
"a.	c #D7D7D7",
"b.	c #EAEAEA",
"c.	c #EAECEB",
"d.	c #ECEDEC",
"e.	c #EBEEED",
"f.	c #EBEDEC",
"g.	c #EAECEC",
"h.	c #EDEDEF",
"i.	c #CBCBCD",
"j.	c #232323",
"k.	c #252525",
"l.	c #E5E4E4",
"m.	c #303030",
"n.	c #D8D8D8",
"o.	c #EDECED",
"p.	c #E9EDEC",
"q.	c #EDEFEE",
"r.	c #CCCBCB",
"s.	c #242424",
"t.	c #E6E5E6",
"u.	c #EDEDED",
"v.	c #2E2E2E",
"w.	c #D2D2D2",
"x.	c #E2E2E2",
"y.	c #CCCBCC",
"z.	c #222222",
"A.	c #E6E4E5",
"B.	c #313131",
"C.	c #EFEFEF",
"D.	c #EEF0EF",
"E.	c #EFF1F0",
"F.	c #CECECE",
"G.	c #121212",
"H.	c #1B1B1B",
"I.	c #393939",
"J.	c #D0D0D0",
"K.	c #E9E9E9",
"L.	c #E8E9E9",
"M.	c #E8EAE9",
"N.	c #E7E9E8",
"O.	c #C6C6C6",
"P.	c #898989",
"Q.	c #696969",
"R.	c #F6F6F6",
"S.	c #F7F7F7",
"T.	c #F6F7F7",
"U.	c #F6F8F7",
"  . + @ # $ % & $ * = - ; >   , ",
"' ) ! ~ { ] ^ ] / ( _ : < [ } | ",
". 1 2 3 4 ^ 5 / 6 7 8 9 0 a b c ",
"d e ~ f g 5 h i j k l m n o p q ",
"d ~ 1 r s t u v w x y z A B C D ",
"d g e ~ E F G H h I J K L M N q ",
"O g P Q ~ R S T T U V W X Y Z D ",
". 4 `  ...S +.@.#.$.%.&.&.*.=.-.",
";.>.,.'.).!.~.{.{.~.].^./.(._.-.",
":.B <.[.c }.|.1.2.3.4.5.6.7.8.c ",
"> 9.0.a.b.c.c.d.e.f.g.h.i.j.k.l.",
"> =.m.n.o.f.f.f.p.p.p.q.r.s.j.t.",
"u.v.k.w.x.|.|.|.|.|.|.|.y.z.j.A.",
"u.B.s.a.C.D.D.D.D.D.E.C.F.G.H.D ",
"> I.B.J.K.L.M.M.M.M.N.:.O.P.Q.x.",
"  K.K.# R.S.T.U.U.U.T.S.@ K.K.  "};
