/* XPM */
static const char * scara_xpm[] = {
"16 16 10 1",
" 	c None",
".	c #000000",
"+	c #C9CADA",
"@	c #9E9E9B",
"#	c #ACAB9F",
"$	c #A1A094",
"%	c #A1A092",
"&	c #9E9D90",
"*	c #A2A293",
"=	c #496535",
"            ....",
"            .++.",
"            .++.",
"        .....++.",
"   .... .@@@.++.",
"  ..@@@..+++++..",
"  .@@+@@@@@@.+. ",
"  ..@+@......#. ",
"   .@+@.    .$. ",
"   .@+@.    .%. ",
"   .@+@.    .&. ",
"   .@+@.    .*. ",
"   .@+@...  ... ",
"  ..=====.      ",
"  .======.      ",
"  ........      "};
