/* XPM */
static char * SceneSize_xpm[] = {
"28 28 84 1",
" 	c None",
".	c #FFFFFF",
"+	c #E7E7E7",
"@	c #585858",
"#	c #CCCCCC",
"$	c #3D3D3D",
"%	c #E4E4E4",
"&	c #282828",
"*	c #404040",
"=	c #414141",
"-	c #4E4E4E",
";	c #4D4D4D",
">	c #B8B9BA",
",	c #3C3C3C",
"'	c #2A2A2A",
")	c #E8E8E8",
"!	c #C1DDEF",
"~	c #E3E3E3",
"{	c #E2E2E2",
"]	c #CBCBCB",
"^	c #3E3E3E",
"/	c #E9F4FA",
"(	c #67B0DE",
"_	c #FEFEFE",
":	c #FDFDFD",
"<	c #424242",
"[	c #434343",
"}	c #FCFDFE",
"|	c #9FCDEA",
"1	c #419DD6",
"2	c #D6EAF6",
"3	c #54A6DA",
"4	c #3E9BD5",
"5	c #54A6D9",
"6	c #D5E8F5",
"7	c #FAFCFE",
"8	c #97C8E7",
"9	c #58A7D9",
"0	c #57A7D9",
"a	c #96C8E7",
"b	c #F9FCFD",
"c	c #FBFCFC",
"d	c #EBF4FA",
"e	c #E7F3FA",
"f	c #E7F2F9",
"g	c #E6F1F8",
"h	c #E8F2F8",
"i	c #FBFCFD",
"j	c #F8FBFC",
"k	c #EAF3F9",
"l	c #D5E8F4",
"m	c #FAFCFD",
"n	c #59A8D9",
"o	c #E7F2FA",
"p	c #FCFCFC",
"q	c #FBFBFB",
"r	c #58A8DA",
"s	c #9FCCE8",
"t	c #E9F3F9",
"u	c #E6E6E6",
"v	c #67B0DD",
"w	c #439DD5",
"x	c #3F9BD4",
"y	c #58A7D8",
"z	c #E5F1F8",
"A	c #429DD5",
"B	c #68B0DC",
"C	c #C0DDEF",
"D	c #B9BABB",
"E	c #BFDCEE",
"F	c #68B0DD",
"G	c #E5F0F7",
"H	c #439CD4",
"I	c #68B1DE",
"J	c #4F4F4F",
"K	c #E6E7E7",
"L	c #59A8DA",
"M	c #97C9E8",
"N	c #F9FBFC",
"O	c #FCFDFD",
"P	c #FAFBFC",
"Q	c #E9F2F8",
"R	c #CACACA",
"S	c #292929",
".+@@+..................+@@+.",
"+#$$#%%%%%%%%%%%%%%%%%%#$$#+",
"@$&&$*******=--=*******$&&$@",
"@$&&$*******;>>;*******,''$@",
"+#$$#%%%%%%%)!!)%%%%%~{]^^#+",
".%**%......./((/...__:_{<[%.",
".%**%......}|11|}.:::_:~==~.",
".%**%......234456:::::_{==~_",
".%**%.....789900ab:::::~[<~_",
".%**%...._cdeefghi_::_:{<<{:",
".%**%...7c_.._::.:ij:::~<<~:",
".%**%.}28d._::..::k8lm:{<<%_",
".%*;)/|5no::_._ppqgr5stu-[%.",
".%->!vwxyz_._:pq__gnxABCD-%.",
".%->EFwxnf_:p:p__:GnxHI!>-%.",
".%<JKts5ngppp:_::_fL3|/);*%.",
":~[<~:il8dp:__:_..kM2}.%**%.",
"_~<[{::_Nc__:_...:O7...%**%.",
":~<=~__:_:PQfoffkO.....%**%.",
"_{=<~:__:_ja909nM7.....%**%.",
"_~=={:::_:_234432......%**%.",
".~==~:_::_.}|11|}......%**%.",
".%<<~_:...../((/.......%**%.",
"+#^^R{~%%%%%)!!)%%%%%%%#$$#+",
"@$S'$*******;>>;*******$&&$@",
"@$&&$*******=--=*******$&&$@",
"+#$$#%%%%%%%%%%%%%%%%%%#$$#+",
".+@@+..................+@@+."};
