/* XPM */
static char * SceneSize_xpm[] = {
"28 28 231 2",
"  	c None",
". 	c #528EBF",
"+ 	c #518DBF",
"@ 	c #B6B8B8",
"# 	c #C2C3C3",
"$ 	c #C1C3C3",
"% 	c #C3C4C3",
"& 	c #A9B2B9",
"* 	c #6D9CC1",
"= 	c #ACCEE5",
"- 	c #A7CBE4",
"; 	c #CCCDCD",
"> 	c #F9F9F9",
", 	c #F2F3F3",
"' 	c #F3F3F4",
") 	c #F3F4F4",
"! 	c #F6F5F4",
"~ 	c #D3E0EB",
"{ 	c #85B0D4",
"] 	c #96C1E0",
"^ 	c #4D98CC",
"/ 	c #85B1D4",
"( 	c #CBCDCD",
"_ 	c #EFEFF0",
": 	c #DFE1E2",
"< 	c #E0E1E2",
"[ 	c #E0E2E2",
"} 	c #E2E2E3",
"| 	c #C4D0DA",
"1 	c #85AFD0",
"2 	c #8CBCDF",
"3 	c #5DA5D6",
"4 	c #509DD2",
"5 	c #85AED0",
"6 	c #E0E2E3",
"7 	c #F0F0F1",
"8 	c #E2E3E4",
"9 	c #E3E4E5",
"0 	c #E5E5E5",
"a 	c #B5C8D8",
"b 	c #659BC7",
"c 	c #5394C6",
"d 	c #71AFDB",
"e 	c #5DA8DA",
"f 	c #F1F1F1",
"g 	c #E4E4E5",
"h 	c #E5E5E6",
"i 	c #DFE1E4",
"j 	c #CDD6DF",
"k 	c #6D9CC3",
"l 	c #95C2E3",
"m 	c #6AB1E2",
"n 	c #F1F2F2",
"o 	c #E5E6E7",
"p 	c #E6E7E8",
"q 	c #E7E7E8",
"r 	c #EEECEA",
"s 	c #7BA5C8",
"t 	c #8EC1E4",
"u 	c #71B9E9",
"v 	c #E7E8E9",
"w 	c #E8E9E9",
"x 	c #EEECEB",
"y 	c #7EA8C9",
"z 	c #7CB8E4",
"A 	c #73BCED",
"B 	c #F6F5F5",
"C 	c #D0DBE3",
"D 	c #CDD9E2",
"E 	c #E9EAEB",
"F 	c #E9E9EA",
"G 	c #ECEBEB",
"H 	c #B8CBDB",
"I 	c #78A8CF",
"J 	c #70A4CE",
"K 	c #F6F6F5",
"L 	c #CDCDCD",
"M 	c #D5E1EB",
"N 	c #80ACCE",
"O 	c #6097C4",
"P 	c #E4E8EA",
"Q 	c #F1EFED",
"R 	c #F0EEED",
"S 	c #EFEDED",
"T 	c #EDEDEC",
"U 	c #EEEDED",
"V 	c #F2EFED",
"W 	c #F3EFED",
"X 	c #ACB7C0",
"Y 	c #81AED2",
"Z 	c #A0C5E0",
"` 	c #5793C2",
" .	c #8DB3D0",
"..	c #96B7D2",
"+.	c #95B7D2",
"@.	c #A1BED6",
"#.	c #D4DEE6",
"$.	c #EDEEEE",
"%.	c #ECEDED",
"&.	c #ECECED",
"*.	c #81AED3",
"=.	c #6E9CC0",
"-.	c #6DA8D3",
";.	c #7FB4D9",
">.	c #7BAFD4",
",.	c #75ABD1",
"'.	c #74AAD1",
").	c #73AAD1",
"!.	c #649DCA",
"~.	c #A2BFD7",
"{.	c #F2F0F0",
"].	c #EDEEEF",
"^.	c #518EBF",
"/.	c #6DABD7",
"(.	c #559ED1",
"_.	c #539DD0",
":.	c #5EA4D4",
"<.	c #60A5D4",
"[.	c #69AAD7",
"}.	c #68A4D0",
"|.	c #98B8D4",
"1.	c #F5F2F2",
"2.	c #5393C3",
"3.	c #73B4E0",
"4.	c #58A3D7",
"5.	c #59A4D7",
"6.	c #59A3D7",
"7.	c #60A8D9",
"8.	c #60A1D0",
"9.	c #99B9D4",
"0.	c #F6F4F3",
"a.	c #F0F1F1",
"b.	c #5796C7",
"c.	c #61ACE0",
"d.	c #65AFE1",
"e.	c #61ABDD",
"f.	c #60AADD",
"g.	c #62ABDD",
"h.	c #579CD0",
"i.	c #9BBBD6",
"j.	c #F7F5F4",
"k.	c #F2F2F2",
"l.	c #9BACB9",
"m.	c #61A1D1",
"n.	c #6AB4E8",
"o.	c #498DC2",
"p.	c #6599C3",
"q.	c #679BC5",
"r.	c #6FA0C8",
"s.	c #BDD1E2",
"t.	c #F7F5F5",
"u.	c #F4F3F4",
"v.	c #CDCECD",
"w.	c #BED4E5",
"x.	c #67A7D6",
"y.	c #5292C4",
"z.	c #E9F0F4",
"A.	c #FCFBF9",
"B.	c #FBFAF8",
"C.	c #F9F8F7",
"D.	c #F8F7F6",
"E.	c #5293C5",
"F.	c #68A7D6",
"G.	c #CBCDCC",
"H.	c #FEFDFC",
"I.	c #BBD1E2",
"J.	c #B3CCDF",
"K.	c #F4F6F6",
"L.	c #F7F7F7",
"M.	c #F6F7F6",
"N.	c #F6F6F6",
"O.	c #D5E2EB",
"P.	c #9FC1DA",
"Q.	c #96BCD7",
"R.	c #F9F8F8",
"S.	c #B2CCDF",
"T.	c #B8CFE1",
"U.	c #FEFEFC",
"V.	c #CBCCCC",
"W.	c #FCFCFC",
"X.	c #FAFAF8",
"Y.	c #FBFAF9",
"Z.	c #F9F9F8",
"`.	c #F8F8F8",
" +	c #FCFBFA",
".+	c #8FB5D4",
"++	c #70A5CD",
"@+	c #7DAFD3",
"#+	c #FAF9F8",
"$+	c #F9F9FA",
"%+	c #7DAACF",
"&+	c #90BBDB",
"*+	c #62A3D1",
"=+	c #FDFDFD",
"-+	c #FBFBFB",
";+	c #FEFDFD",
">+	c #FFFFFF",
",+	c #7FABCF",
"'+	c #93BEDE",
")+	c #539ED0",
"!+	c #FEFEFE",
"~+	c #CBDDEB",
"{+	c #5993C2",
"]+	c #4184BA",
"^+	c #89BADD",
"/+	c #5DA5D7",
"(+	c #5DA5D8",
"_+	c #89BADE",
":+	c #4284BA",
"<+	c #C2D7E8",
"[+	c #6BA4CF",
"}+	c #82BCE4",
"|+	c #7CBBE4",
"1+	c #83BCE5",
"2+	c #6BA4D0",
"3+	c #BDD3E6",
"4+	c #60A0D0",
"5+	c #62AEE1",
"6+	c #69B4E5",
"7+	c #BBBCBC",
"8+	c #D6D7D7",
"9+	c #D7D8D7",
"0+	c #9DB0C0",
"a+	c #5E9CCA",
"b+	c #71BBEC",
"c+	c #797B7B",
"d+	c #787979",
"e+	c #7A7A7A",
"f+	c #827E7B",
"g+	c #3F607C",
"h+	c #5597C9",
"                          . +                           ",
"    @ # $ $ $ $ $ $ % & * = - * & % $ $ $ $ $ $ # @     ",
"    ; > , ' ' ' ) ! ~ { ] ^ ^ ] / ~ ! ) ' ' ' , > ;     ",
"    ( _ : < [ [ } | 1 2 3 4 4 3 2 5 | } [ [ 6 : _ (     ",
"    ( 7 8 9 9 9 0 a b c d e e d c b a 0 9 9 9 8 7 (     ",
"    ( f g h h h h i j k l m m l k j i h h h h g f (     ",
"    ( n o p p p p q r s t u u t s r q p p p p o n (     ",
"    ( , v w v v v v x y z A A z y x v v v v w v , (     ",
"    ( B C D E F F F G H I J J I H G F F F E D C K (     ",
"    L M N O P Q R S T U V W W V U T S R Q P O N M L     ",
"    X Y Z `  ...+.@.#.$.%.&.&.&.$.#.@.+... .` Z *.X     ",
"    =.-.;.>.,.'.).!.~.{.].].].].{.~.!.).'.,.>.;.-.=.    ",
"  ^./.(._.:.<.<.[.}.|.1._ _ _ _ 1.|.}.[.<.<.:._.(./.^.  ",
"  2.3.4.5.5.5.6.7.8.9.0.a.a.a.a.0.9.8.7.6.5.5.5.4.3.2.  ",
"    b.c.d.e.f.f.g.h.i.j.n n n k.j.i.h.g.f.f.e.d.c.b.    ",
"    l.m.n.o.p.q.q.r.s.t.u.' ' u.t.s.r.q.q.p.o.n.m.l.    ",
"    v.w.x.y.z.A.A.B.C.D.C.C.C.C.D.C.B.A.A.z.E.F.w.v.    ",
"    G.H.I.J.K.L.M.N.C.O.P.Q.Q.P.O.R.N.L.M.K.S.T.U.G.    ",
"    V.W.X.Y.Z.`.`.`. +.+++@+@+++.+ +`.`.`.Z.#+`.W.V.    ",
"    V.W.> $+$+$+$+$+W.%+&+*+*+&+%+W.$+$+$+$+$+> W.V.    ",
"    V.=+-+-+-+-+-+;+>+,+'+)+)+'+,+>+;+-+-+-+-+-+=+V.    ",
"    V.!+W.W.W.W.=+~+{+]+^+/+(+_+:+{+~+=+W.W.W.W.!+V.    ",
"    V.!+=+=+=+=+!+<+[+}+|+e.e.|+1+2+<+!+=+=+=+=+!+V.    ",
"    ; >+>+!+!+!+>+>+3+4+5+6+6+5+4+3+>+>+!+!+!+>+>+;     ",
"    7+8+8+8+8+8+8+8+9+0+a+b+b+a+0+9+8+8+8+8+8+8+8+7+    ",
"      c+d+d+d+d+d+d+e+f+g+h+h+g+f+e+d+d+d+d+d+d+c+      ",
"                                                        ",
"                                                        "};
