/* XPM */
static char * selworldxml_xpm[] = {
"32 28 559 2",
"  	c None",
". 	c #56AB01",
"+ 	c #56AC01",
"@ 	c #55AB01",
"# 	c #56AD01",
"$ 	c #57AC01",
"% 	c #53AB01",
"& 	c #54AB01",
"* 	c #55AD01",
"= 	c #5BB007",
"- 	c #62B611",
"; 	c #68B919",
"> 	c #70BD24",
", 	c #70BE24",
"' 	c #67BA18",
") 	c #61B60F",
"! 	c #58B104",
"~ 	c #57AF01",
"{ 	c #57AE01",
"] 	c #55A901",
"^ 	c #57AC02",
"/ 	c #60B50D",
"( 	c #7CC536",
"_ 	c #9ED767",
": 	c #B6E48A",
"< 	c #C4EB9E",
"[ 	c #C8ECA4",
"} 	c #C8EDA4",
"| 	c #C3EA9D",
"1 	c #B3E285",
"2 	c #97D45C",
"3 	c #75C22B",
"4 	c #5CB508",
"5 	c #57B101",
"6 	c #56AE01",
"7 	c #55AC01",
"8 	c #58B002",
"9 	c #6DBE20",
"0 	c #A2DA6B",
"a 	c #BFE897",
"b 	c #C7ECA4",
"c 	c #CDF1A9",
"d 	c #CEF2AA",
"e 	c #CEF2AB",
"f 	c #CFF2AB",
"g 	c #CFF2AC",
"h 	c #CEF1AA",
"i 	c #C1EB98",
"j 	c #96D659",
"k 	c #64BC12",
"l 	c #58B301",
"m 	c #55B101",
"n 	c #58B101",
"o 	c #6ABD1B",
"p 	c #9BD369",
"q 	c #A1CD7E",
"r 	c #93BF73",
"s 	c #8FBB71",
"t 	c #B3DE8E",
"u 	c #C7F19D",
"v 	c #C8F19E",
"w 	c #C8F19F",
"x 	c #C8F1A0",
"y 	c #C9F1A0",
"z 	c #C9F1A1",
"A 	c #C5EF9B",
"B 	c #9BDA60",
"C 	c #61BC0D",
"D 	c #58B401",
"E 	c #53AA01",
"F 	c #54AC05",
"G 	c #7BBF40",
"H 	c #9ACB72",
"I 	c #9CCC74",
"J 	c #94C56E",
"K 	c #83B461",
"L 	c #ADDD82",
"M 	c #C0F091",
"N 	c #C1F091",
"O 	c #C1F092",
"P 	c #C1F093",
"Q 	c #C2F093",
"R 	c #C2F094",
"S 	c #BCEE8D",
"T 	c #81D039",
"U 	c #59BA02",
"V 	c #55B401",
"W 	c #4EA801",
"X 	c #449401",
"Y 	c #439301",
"Z 	c #3E8E01",
"` 	c #429109",
" .	c #7DB94E",
"..	c #8FC464",
"+.	c #91C666",
"@.	c #AAE078",
"#.	c #ABE179",
"$.	c #B4EA80",
"%.	c #B9EE84",
"&.	c #BAEE84",
"*.	c #BAEE85",
"=.	c #BAEF85",
"-.	c #BAEF86",
";.	c #BBEF86",
">.	c #BBEF87",
",.	c #93DB4F",
"'.	c #5CBF05",
").	c #55B501",
"!.	c #4EA701",
"~.	c #56B001",
"{.	c #368201",
"].	c #367F01",
"^.	c #358101",
"/.	c #358401",
"(.	c #3E8C0A",
"_.	c #80BF4E",
":.	c #89C25A",
"<.	c #71AA4B",
"[.	c #82BC56",
"}.	c #A8E370",
"|.	c #B2ED76",
"1.	c #B2ED77",
"2.	c #B3ED77",
"3.	c #B3ED78",
"4.	c #B3ED79",
"5.	c #B4ED79",
"6.	c #B4ED7A",
"7.	c #B4EE7B",
"8.	c #8FDC47",
"9.	c #5CC205",
"0.	c #49A401",
"a.	c #409401",
"b.	c #469F01",
"c.	c #4CA001",
"d.	c #419201",
"e.	c #358301",
"f.	c #368601",
"g.	c #398904",
"h.	c #579C28",
"i.	c #6AA640",
"j.	c #69A540",
"k.	c #87C653",
"l.	c #A7E766",
"m.	c #ABEC69",
"n.	c #ABEC6A",
"o.	c #ACEC6B",
"p.	c #ACEC6C",
"q.	c #ADEC6D",
"r.	c #ADEC6E",
"s.	c #AAEB69",
"t.	c #7BD42D",
"u.	c #4EB002",
"v.	c #419A01",
"w.	c #3A8D01",
"x.	c #368701",
"y.	c #3F8E01",
"z.	c #388801",
"A.	c #368801",
"B.	c #378A01",
"C.	c #40910D",
"D.	c #5A9E2C",
"E.	c #73B53F",
"F.	c #98DF55",
"G.	c #A3EA5C",
"H.	c #A4EB5D",
"I.	c #A5EB5E",
"J.	c #A5EB5F",
"K.	c #A6EB60",
"L.	c #8EE242",
"M.	c #5AC00B",
"N.	c #409B01",
"O.	c #47A601",
"P.	c #4FB001",
"Q.	c #419801",
"R.	c #56AF01",
"S.	c #4FA901",
"T.	c #388A01",
"U.	c #378901",
"V.	c #378C01",
"W.	c #388F02",
"X.	c #44990D",
"Y.	c #77CB31",
"Z.	c #99E84B",
"`.	c #9CE94F",
" +	c #9DE950",
".+	c #9DEA50",
"++	c #9EEA51",
"@+	c #9EEA52",
"#+	c #99E94C",
"$+	c #84E232",
"%+	c #5CC40D",
"&+	c #3F9D01",
"*+	c #3A9201",
"=+	c #3B9301",
"-+	c #46A201",
";+	c #4CA801",
">+	c #56B201",
",+	c #59B601",
"'+	c #54B401",
")+	c #3D9301",
"!+	c #378B01",
"~+	c #399001",
"{+	c #44A401",
"]+	c #48AF01",
"^+	c #5ED007",
"/+	c #75E11B",
"(+	c #84E62E",
"_+	c #8EE839",
":+	c #92E93E",
"<+	c #92E93F",
"[+	c #8DE938",
"}+	c #81E82B",
"|+	c #70E415",
"1+	c #58CB04",
"2+	c #3FA100",
"3+	c #389500",
"4+	c #389201",
"5+	c #388F01",
"6+	c #388D01",
"7+	c #3B8E01",
"8+	c #59B701",
"9+	c #59BC01",
"0+	c #4BA801",
"a+	c #3A9001",
"b+	c #3E9901",
"c+	c #57C601",
"d+	c #57CA00",
"e+	c #57CC00",
"f+	c #5DDB00",
"g+	c #64E404",
"h+	c #68E808",
"i+	c #6DEC0D",
"j+	c #6EED0E",
"k+	c #6EEE0E",
"l+	c #6CED0C",
"m+	c #68EC07",
"n+	c #64E902",
"o+	c #5DDF00",
"p+	c #45AF00",
"q+	c #3A9900",
"r+	c #399500",
"s+	c #389002",
"t+	c #388A05",
"u+	c #378705",
"v+	c #378405",
"w+	c #3E8F03",
"x+	c #58B501",
"y+	c #59B901",
"z+	c #5ABE01",
"A+	c #58BF01",
"B+	c #49AA01",
"C+	c #3E9A01",
"D+	c #48AE01",
"E+	c #52C200",
"F+	c #59D100",
"G+	c #59D600",
"H+	c #61E500",
"I+	c #62EB00",
"J+	c #63F000",
"K+	c #64F300",
"L+	c #64F400",
"M+	c #64F100",
"N+	c #63ED00",
"O+	c #5BDD00",
"P+	c #40A600",
"Q+	c #3A9602",
"R+	c #3A8709",
"S+	c #397A10",
"T+	c #397412",
"U+	c #397413",
"V+	c #3E7E10",
"W+	c #519D0D",
"X+	c #5DC101",
"Y+	c #59BA01",
"Z+	c #5ABF01",
"`+	c #5BC501",
" @	c #5AC701",
".@	c #54C001",
"+@	c #4EB900",
"@@	c #4AB600",
"#@	c #58D200",
"$@	c #51C800",
"%@	c #4FC500",
"&@	c #57D900",
"*@	c #63F200",
"=@	c #65F800",
"-@	c #65F900",
";@	c #64F500",
">@	c #60E700",
",@	c #4BB304",
"'@	c #3E850E",
")@	c #3D7914",
"!@	c #3B7514",
"~@	c #3B7513",
"{@	c #3B7613",
"]@	c #3E7B12",
"^@	c #49930D",
"/@	c #63C701",
"(@	c #5ABB01",
"_@	c #5AC001",
":@	c #5CCB01",
"<@	c #5DD001",
"[@	c #5ED500",
"}@	c #4EBF00",
"|@	c #3DA300",
"1@	c #3BA200",
"2@	c #41B000",
"3@	c #50CF00",
"4@	c #60F100",
"5@	c #65FD00",
"6@	c #66FC00",
"7@	c #64F200",
"8@	c #63E006",
"9@	c #5FB316",
"0@	c #5B9C1B",
"a@	c #56971A",
"b@	c #428013",
"c@	c #3C7912",
"d@	c #3C7A11",
"e@	c #3D7F0F",
"f@	c #69D301",
"g@	c #5CBE01",
"h@	c #5ED600",
"i@	c #5FDA00",
"j@	c #4DBF00",
"k@	c #3BA000",
"l@	c #3CA500",
"m@	c #3EAB00",
"n@	c #48C200",
"o@	c #52D800",
"p@	c #5EED00",
"q@	c #65F700",
"r@	c #64E605",
"s@	c #65BD14",
"t@	c #65AD1B",
"u@	c #66AD1B",
"v@	c #62AA1A",
"w@	c #488A13",
"x@	c #3D7E10",
"y@	c #41850B",
"z@	c #64C00A",
"A@	c #5DB909",
"B@	c #5CC204",
"C@	c #5CC902",
"D@	c #5DCF01",
"E@	c #5ED800",
"F@	c #4AB700",
"G@	c #3A9E00",
"H@	c #3BA100",
"I@	c #3BA400",
"J@	c #3CA700",
"K@	c #3DA900",
"L@	c #3FAF00",
"M@	c #55D801",
"N@	c #65E506",
"O@	c #66C213",
"P@	c #67B319",
"Q@	c #68B418",
"R@	c #66B318",
"S@	c #4E9612",
"T@	c #3E820E",
"U@	c #3F830E",
"V@	c #4B990B",
"W@	c #6ECB0F",
"X@	c #66B219",
"Y@	c #64B415",
"Z@	c #62BB0F",
"`@	c #60C609",
" #	c #5FD003",
".#	c #5FD801",
"+#	c #57CE00",
"@#	c #41A900",
"##	c #3BA300",
"$#	c #3CA600",
"%#	c #41A903",
"&#	c #5FC90B",
"*#	c #68C113",
"=#	c #69B916",
"-#	c #69BA16",
";#	c #69BB16",
">#	c #6ABB16",
",#	c #68B915",
"'#	c #4F9A10",
")#	c #3F860D",
"!#	c #3F870C",
"~#	c #428A0C",
"{#	c #4FA10B",
"]#	c #75DE0B",
"^#	c #6EC316",
"/#	c #68B618",
"(#	c #68B617",
"_#	c #67B816",
":#	c #66BD12",
"<#	c #65C60D",
"[#	c #63CE09",
"}#	c #56BD06",
"|#	c #3F9B04",
"1#	c #3C9904",
"2#	c #3D9805",
"3#	c #3E9407",
"4#	c #4D9E0D",
"5#	c #67BB13",
"6#	c #6BBF14",
"7#	c #6BC014",
"8#	c #6BC113",
"9#	c #6BC213",
"0#	c #6CC213",
"a#	c #69BF12",
"b#	c #4E9D0D",
"c#	c #418A0B",
"d#	c #418B0B",
"e#	c #49950C",
"f#	c #78DB13",
"g#	c #6EC517",
"h#	c #6ABD15",
"i#	c #6ABE15",
"j#	c #6ABF14",
"k#	c #6AC113",
"l#	c #64B911",
"m#	c #45900B",
"n#	c #408B0A",
"o#	c #418B0A",
"p#	c #4B980C",
"q#	c #64BA10",
"r#	c #6CC511",
"s#	c #6DC611",
"t#	c #6DC711",
"u#	c #6DC810",
"v#	c #6DC910",
"w#	c #6ECA10",
"x#	c #6CC90F",
"y#	c #54A80B",
"z#	c #428F09",
"A#	c #47910F",
"B#	c #59A813",
"C#	c #7DE318",
"D#	c #7CDB1B",
"E#	c #71CA16",
"F#	c #6CC512",
"G#	c #6CC611",
"H#	c #63BA0F",
"I#	c #45920A",
"J#	c #428D0A",
"K#	c #44910A",
"L#	c #5DB40C",
"M#	c #6DCC0F",
"N#	c #6ECD0E",
"O#	c #6FCE0E",
"P#	c #6FCF0D",
"Q#	c #6FD00D",
"R#	c #70D10D",
"S#	c #6FD10C",
"T#	c #5EB80B",
"U#	c #4A9610",
"V#	c #549F16",
"W#	c #84E322",
"X#	c #82DC24",
"Y#	c #75D117",
"Z#	c #6FCD0F",
"`#	c #61BC0C",
" $	c #459508",
".$	c #56AD0A",
"+$	c #6CCD0B",
"@$	c #70D30C",
"#$	c #70D40B",
"$$	c #71D50B",
"%$	c #71D60B",
"&$	c #71D70A",
"*$	c #72D80A",
"=$	c #73D90D",
"-$	c #75CF1D",
";$	c #6AB824",
">$	c #89E52C",
",$	c #87E02E",
"'$	c #7EDA20",
")$	c #73D610",
"!$	c #60BE09",
"~$	c #489C06",
"{$	c #5AB607",
"]$	c #6ED409",
"^$	c #71D909",
"/$	c #72DB09",
"($	c #73DC08",
"_$	c #73DD08",
":$	c #73DE08",
"<$	c #7ADE14",
"[$	c #85DD2C",
"}$	c #89D937",
"|$	c #87D732",
"1$	c #90E53A",
"2$	c #93E63F",
"3$	c #8EE338",
"4$	c #82E023",
"5$	c #64C210",
"6$	c #59B508",
"7$	c #71DA07",
"8$	c #74E007",
"9$	c #74E106",
"0$	c #74E206",
"a$	c #74E306",
"b$	c #75E306",
"c$	c #78E40C",
"d$	c #7EE318",
"e$	c #89E22E",
"f$	c #91DD44",
"g$	c #93DD45",
"h$	c #9EE557",
"i$	c #A1E65A",
"j$	c #A0E757",
"k$	c #8FD64C",
"l$	c #8EDB43",
"m$	c #91E73A",
"n$	c #8DE731",
"o$	c #8DE831",
"p$	c #8DE832",
"q$	c #90E836",
"r$	c #95E740",
"s$	c #9BE650",
"t$	c #A0E35B",
"u$	c #A2E062",
"v$	c #A3E062",
"w$	c #DADADA",
"x$	c #DADDD6",
"y$	c #D0E0C1",
"z$	c #C1E59C",
"A$	c #B5E781",
"B$	c #B3E97B",
"C$	c #B6EA7F",
"D$	c #B8EB82",
"E$	c #BBEB8A",
"F$	c #BDEB8C",
"G$	c #B9E987",
"H$	c #B8E885",
"I$	c #B7E786",
"J$	c #C1E897",
"K$	c #D5EBBB",
"L$	c #EBF2E2",
"M$	c #F6F6F6",
"N$	c #D6D6D6",
"O$	c #D7D7D7",
"P$	c #D9D9D9",
"Q$	c #DEDEDE",
"R$	c #E0E0E0",
"S$	c #E0E1DE",
"T$	c #DDE4D6",
"U$	c #D8E6C9",
"V$	c #D4E8BE",
"W$	c #D3E9BB",
"X$	c #D5EBBF",
"Y$	c #D6EBC0",
"Z$	c #D7EBC2",
"`$	c #DDEDCB",
" %	c #E5EEDB",
".%	c #EEF1EA",
"+%	c #F4F4F3",
"@%	c #F5F5F5",
"#%	c #F7F7F7",
"$%	c #F9F9F9",
"%%	c #FAFAFA",
"                        . + + @ # $ . .                         ",
"                  % & * = - ; > , ' ) ! ~ {                     ",
"                ] ^ / ( _ : < [ } | 1 2 3 4 5 6                 ",
"              7 8 9 0 a b c d e f g g h i j k l m               ",
"            + n o p q r s t u v v w x y z A B C D l             ",
"          & E F G H I J K L M N O O P Q R R S T U V W           ",
"        X Y Z `  ...+.@.#.$.%.&.*.=.-.;.>.>.>.,.'.).!.~.        ",
"      {.].^./.(._.:.<.[.}.|.1.2.3.3.4.5.6.6.7.8.9.0.a.b.        ",
"      c.d.e.f.g.h.i.j.k.l.m.n.o.o.p.p.q.q.r.s.t.u.v.w.x.y.      ",
"      ~ !.z.A.B.C.D.E.F.G.H.H.I.I.J.J.K.K.I.L.M.N.O.P.Q.a.      ",
"    R.l S.T.U.V.W.X.Y.Z.`. +.+++++@+@+@+#+$+%+&+*+=+-+;+0.      ",
"    >+,+'+)+!+~+{+]+^+/+(+_+:+<+<+:+[+}+|+1+2+3+4+5+6+w.7+      ",
"    5 8+9+0+a+b+c+d+e+f+g+h+i+j+k+l+m+n+o+p+q+r+s+t+u+v+w+      ",
"    x+y+z+A+B+C+D+E+F+G+H+I+J+K+L+K+M+N+O+P+Q+R+S+T+U+T+V+W+    ",
"    X+Y+Z+`+ @.@+@@@#@$@%@&@*@=@-@=@;@M+>@,@'@)@!@~@~@{@]@^@    ",
"    /@(@_@`+:@<@[@F+}@|@1@2@3@4@5@6@=@7@8@9@0@a@b@c@c@d@e@      ",
"    f@g@_@`+:@<@h@i@j@k@1@l@m@n@o@p@q@r@s@t@u@v@w@x@x@V+y@      ",
"      z@A@B@C@D@[@E@F@G@H@I@J@K@L@M@N@O@P@P@Q@R@S@T@T@U@V@      ",
"      W@X@Y@Z@`@ #.#+#@#k@##l@$#%#&#*#=#-#;#>#,#'#)#!#~#{#      ",
"      ]#^#/#(#_#:#<#[#}#|#1#2#3#4#5#6#7#8#9#0#a#b#c#d#e#        ",
"        f#g#h#i#j#6#k#l#m#n#o#p#q#r#s#t#u#v#w#x#y#z#A#B#        ",
"        C#D#E#F#G#t#t#H#I#J#K#L#M#N#O#O#P#Q#R#S#T#U#V#          ",
"          W#X#Y#Z#O#O#`# $ $.$+$@$#$$$%$%$&$*$=$-$;$            ",
"            >$,$'$)$%$!$~${$]$^$/$/$($_$:$:$<$[$}$|$            ",
"              1$2$3$4$5$6$7$8$9$0$a$b$c$d$e$f$g$                ",
"                h$i$j$k$l$m$n$o$p$q$r$s$t$u$v$                  ",
"              w$x$y$z$A$B$C$D$E$F$G$H$I$J$K$L$M$                ",
"        N$O$P$w$Q$R$S$T$U$V$W$X$Y$Z$`$ %.%+%@%#%#%$%%%          "};
