/* XPM */
static char * selworldxml_xpm[] = {
"32 32 640 2",
"  	c None",
". 	c #C0C1C2",
"+ 	c #DEDEDE",
"@ 	c #DCDDDE",
"# 	c #92B8CE",
"$ 	c #61A1C5",
"% 	c #4886AA",
"& 	c #BBC1C5",
"* 	c #B1C9D8",
"= 	c #9EC0D4",
"- 	c #93BBD2",
"; 	c #80B2CE",
"> 	c #C4D5DF",
", 	c #E7E7E6",
"' 	c #D2DCE1",
") 	c #5CA5CF",
"! 	c #53A2CE",
"~ 	c #539EC8",
"{ 	c #7399AD",
"] 	c #D4D5D6",
"^ 	c #E7E7E8",
"/ 	c #DAE1E6",
"( 	c #CDD9E1",
"_ 	c #D1DCE2",
": 	c #E7E9EA",
"< 	c #99C0D6",
"[ 	c #9AC2D8",
"} 	c #E7E7E7",
"| 	c #B6CEDB",
"1 	c #5FA7D0",
"2 	c #58A5D0",
"3 	c #54A4D0",
"4 	c #60A7CF",
"5 	c #96B5C7",
"6 	c #BBBDBF",
"7 	c #F3F3F3",
"8 	c #CEDCE4",
"9 	c #4C97C2",
"0 	c #63A5CC",
"a 	c #8FBCD5",
"b 	c #99BFD5",
"c 	c #5FA5CD",
"d 	c #70AED1",
"e 	c #BAD1DE",
"f 	c #7AB4D5",
"g 	c #5FA9D2",
"h 	c #5DA8D2",
"i 	c #59A7D3",
"j 	c #56A5D2",
"k 	c #5FA8D0",
"l 	c #70ACCD",
"m 	c #7AA9C3",
"n 	c #EAEAEA",
"o 	c #F6F5F5",
"p 	c #F4F4F4",
"q 	c #DFE8ED",
"r 	c #68A9CD",
"s 	c #C3D8E5",
"t 	c #E7EAEC",
"u 	c #C8DAE4",
"v 	c #6BADD2",
"w 	c #66ABD2",
"x 	c #6EAED3",
"y 	c #69AED4",
"z 	c #63ACD4",
"A 	c #60AAD4",
"B 	c #5CA9D4",
"C 	c #58A8D4",
"D 	c #80B4D1",
"E 	c #ACC6D5",
"F 	c #ACC2CF",
"G 	c #C8C8C8",
"H 	c #ECECEC",
"I 	c #F8F8F8",
"J 	c #F7F7F7",
"K 	c #F5F5F5",
"L 	c #D0DFE8",
"M 	c #F3F2F2",
"N 	c #F2F2F2",
"O 	c #EFEFEF",
"P 	c #ADCEE1",
"Q 	c #6CAFD5",
"R 	c #6EB0D6",
"S 	c #6BB0D6",
"T 	c #67AED6",
"U 	c #63ADD6",
"V 	c #5EABD5",
"W 	c #5AAAD5",
"X 	c #5DA9D4",
"Y 	c #5BA7D1",
"Z 	c #9FBDCE",
"` 	c #D1D1D1",
" .	c #C5C5C5",
"..	c #EBECEC",
"+.	c #F9F9F9",
"@.	c #F4F3F3",
"#.	c #D8E4EA",
"$.	c #9BC4DB",
"%.	c #87BCDA",
"&.	c #73B4DA",
"*.	c #71B3D8",
"=.	c #6DB1D7",
"-.	c #68AFD7",
";.	c #5FACD7",
">.	c #5BAAD7",
",.	c #56A8D6",
"'.	c #52A7D6",
").	c #6CACCF",
"!.	c #BAC7CE",
"~.	c #99B8C8",
"{.	c #6FA6C5",
"].	c #DBDBDC",
"^.	c #FBFBFB",
"/.	c #EBEEF0",
"(.	c #C2D9E6",
"_.	c #87BDDB",
":.	c #6DB2D8",
"<.	c #71B4DA",
"[.	c #73B6DD",
"}.	c #6EB4DA",
"|.	c #67AFD7",
"1.	c #63AED7",
"2.	c #5FADD7",
"3.	c #5BABD8",
"4.	c #56A9D7",
"5.	c #53A8D7",
"6.	c #75B1D3",
"7.	c #C6CCD0",
"8.	c #52A8D7",
"9.	c #4EA7D7",
"0.	c #3C93C2",
"a.	c #F1F1F2",
"b.	c #F7F6F6",
"c.	c #E1E8EC",
"d.	c #A4C7DB",
"e.	c #6CAED4",
"f.	c #6DB0D6",
"g.	c #6AB1D8",
"h.	c #6DB3DA",
"i.	c #6FB5DD",
"j.	c #6FB6DD",
"k.	c #67B1D9",
"l.	c #62ADD8",
"m.	c #5EADD8",
"n.	c #5AABD8",
"o.	c #56AAD8",
"p.	c #52A9D8",
"q.	c #60AAD2",
"r.	c #B4C4CD",
"s.	c #6FB0D4",
"t.	c #70A9C9",
"u.	c #BFC7CC",
"v.	c #FDFDFD",
"w.	c #F3F4F4",
"x.	c #CADBE5",
"y.	c #58A2CC",
"z.	c #56A5D0",
"A.	c #5CA8D4",
"B.	c #60ABD5",
"C.	c #65AED8",
"D.	c #68B1D9",
"E.	c #6AB2DB",
"F.	c #6AB3DD",
"G.	c #67B4DC",
"H.	c #61AFD9",
"I.	c #58ABD8",
"J.	c #54AAD9",
"K.	c #51A9D9",
"L.	c #4DA8D9",
"M.	c #4DA5D5",
"N.	c #B5C3CC",
"O.	c #CBCACA",
"P.	c #C7C6C6",
"Q.	c #A5A6A6",
"R.	c #AACADC",
"S.	c #FCFCFB",
"T.	c #FAFAF9",
"U.	c #C9DBE5",
"V.	c #66A8CD",
"W.	c #4E9FCD",
"X.	c #53A2D0",
"Y.	c #58A7D3",
"Z.	c #63AED8",
"`.	c #67B2DA",
" +	c #6AB5DD",
".+	c #6AB6DF",
"++	c #69B6E0",
"@+	c #66B4DF",
"#+	c #5BADDA",
"$+	c #58ABDA",
"%+	c #53AAD9",
"&+	c #50A9DA",
"*+	c #4CA8DA",
"=+	c #51A3D0",
"-+	c #CCCBCC",
";+	c #CAC9C9",
">+	c #C6C5C5",
",+	c #BEBDBE",
"'+	c #99C4DD",
")+	c #8CB6CF",
"!+	c #5EA3CA",
"~+	c #A1C8DF",
"{+	c #E5EDF1",
"]+	c #4995C1",
"^+	c #4499C8",
"/+	c #4A9DCC",
"(+	c #50A1CF",
"_+	c #5AA8D4",
":+	c #60ADD8",
"<+	c #63B0DA",
"[+	c #65B1DB",
"}+	c #67B3DD",
"|+	c #67B3DE",
"1+	c #67B4DF",
"2+	c #65B5E0",
"3+	c #5DB0DD",
"4+	c #58ADDB",
"5+	c #54A9D6",
"6+	c #579CC1",
"7+	c #6D98B0",
"8+	c #7493A5",
"9+	c #A1A0A0",
"0+	c #A8A7A6",
"a+	c #B2B1B1",
"b+	c #BFBEBE",
"c+	c #206791",
"d+	c #95C2DC",
"e+	c #EAEFF2",
"f+	c #388ABA",
"g+	c #2A88BE",
"h+	c #3C92C4",
"i+	c #BAD4E3",
"j+	c #3D8FBF",
"k+	c #4297C7",
"l+	c #4B9ECC",
"m+	c #53A4D1",
"n+	c #59A8D5",
"o+	c #5CAAD6",
"p+	c #5FACD8",
"q+	c #61AED9",
"r+	c #62AFDB",
"s+	c #63B0DC",
"t+	c #62B1DD",
"u+	c #60B1DE",
"v+	c #55A8D6",
"w+	c #7195A8",
"x+	c #ACB4B9",
"y+	c #C3C4C4",
"z+	c #D0D2D2",
"A+	c #D2D1D1",
"B+	c #C3C1C1",
"C+	c #A8A6A6",
"D+	c #9D9B9B",
"E+	c #9E9FA0",
"F+	c #217AAD",
"G+	c #83B9D7",
"H+	c #BBCFDB",
"I+	c #2686BC",
"J+	c #2B89BE",
"K+	c #3990C1",
"L+	c #5CA0C7",
"M+	c #3A92C4",
"N+	c #4398C8",
"O+	c #4CA0CE",
"P+	c #4FA2D0",
"Q+	c #53A4D2",
"R+	c #56A6D3",
"S+	c #59A9D4",
"T+	c #5BA9D6",
"U+	c #5CABD8",
"V+	c #5CADD8",
"W+	c #5CADDA",
"X+	c #5AADDB",
"Y+	c #59A7D2",
"Z+	c #7A99A9",
"`+	c #CCCECF",
" @	c #C8D3DA",
".@	c #D2E3ED",
"+@	c #E3E9ED",
"@@	c #EEEEEE",
"#@	c #DEDDDD",
"$@	c #BDBBBB",
"%@	c #868584",
"&@	c #227DB1",
"*@	c #4496C4",
"=@	c #C1D8E5",
"-@	c #8EBBD5",
";@	c #5B9DC2",
">@	c #348DC0",
",@	c #7DB2D0",
"'@	c #5EA2C8",
")@	c #439ACA",
"!@	c #489CCC",
"~@	c #4B9ECD",
"{@	c #4FA1CF",
"]@	c #54A5D2",
"^@	c #55A6D4",
"/@	c #56A8D5",
"(@	c #56A9D5",
"_@	c #57AAD7",
":@	c #669DBB",
"<@	c #B9BDBF",
"[@	c #BBCCD4",
"}@	c #C0D7E3",
"|@	c #C4DAE6",
"1@	c #D1DEE5",
"2@	c #E7E6E6",
"3@	c #DBDBDB",
"4@	c #A09F9E",
"5@	c #227EB2",
"6@	c #2283B9",
"7@	c #3D91C1",
"8@	c #9FC3D8",
"9@	c #77ACCA",
"0@	c #2885BA",
"a@	c #2E8ABE",
"b@	c #4B9CC8",
"c@	c #7EB5D5",
"d@	c #6FACCF",
"e@	c #469AC9",
"f@	c #499ECC",
"g@	c #4DA1CE",
"h@	c #4FA2CF",
"i@	c #50A4D1",
"j@	c #51A4D2",
"k@	c #51A6D4",
"l@	c #51A7D4",
"m@	c #8CA1AC",
"n@	c #BBC3C8",
"o@	c #A8C6D7",
"p@	c #ABC8D8",
"q@	c #AECCDB",
"r@	c #BDCFD8",
"s@	c #DBDADA",
"t@	c #DCDCDB",
"u@	c #DEDEDD",
"v@	c #C3C2C2",
"w@	c #7F7D7D",
"x@	c #247DAF",
"y@	c #2383B9",
"z@	c #2483B9",
"A@	c #3E92C0",
"B@	c #A9C8DA",
"C@	c #2A80B1",
"D@	c #2E8BBF",
"E@	c #3992C4",
"F@	c #56A1CB",
"G@	c #529EC9",
"H@	c #459AC9",
"I@	c #479BCA",
"J@	c #499DCB",
"K@	c #4A9FCC",
"L@	c #4CA0CF",
"M@	c #4CA1D0",
"N@	c #4CA3D2",
"O@	c #4BA1D0",
"P@	c #A4AAAD",
"Q@	c #A9BDC8",
"R@	c #95B9CD",
"S@	c #98BBCF",
"T@	c #9CBFD2",
"U@	c #A4C1D0",
"V@	c #CECECF",
"W@	c #D2D2D2",
"X@	c #D4D4D4",
"Y@	c #CBD3D7",
"Z@	c #CBCBCB",
"`@	c #817F7F",
" #	c #246990",
".#	c #2584B9",
"+#	c #67A6C9",
"@#	c #458CB5",
"##	c #338CBE",
"$#	c #4394C3",
"%#	c #4797C3",
"&#	c #3E93C3",
"*#	c #3C93C5",
"=#	c #3F96C6",
"-#	c #4098C7",
";#	c #4399C9",
">#	c #449ACA",
",#	c #459CCB",
"'#	c #469ECC",
")#	c #479ECE",
"!#	c #459CCC",
"~#	c #AAADAE",
"{#	c #97B2C1",
"]#	c #7BAAC3",
"^#	c #7FADC5",
"/#	c #83B0C8",
"(#	c #88B3CA",
"_#	c #9FB8C6",
":#	c #BDC3C6",
"<#	c #AFC2CD",
"[#	c #9EC2D5",
"}#	c #BBC4C9",
"|#	c #828180",
"1#	c #2583B9",
"2#	c #2583B8",
"3#	c #3088BB",
"4#	c #4E96BF",
"5#	c #64A0C3",
"6#	c #B3CAD7",
"7#	c #AAC4D2",
"8#	c #87B0C8",
"9#	c #539AC2",
"0#	c #4E97C0",
"a#	c #3C94C3",
"b#	c #3E96C6",
"c#	c #4097C7",
"d#	c #4099C8",
"e#	c #419AC9",
"f#	c #429BCC",
"g#	c #419BCC",
"h#	c #9AA6AD",
"i#	c #99B1BD",
"j#	c #66A1C0",
"k#	c #6BA3C1",
"l#	c #71A7C3",
"m#	c #75A9C5",
"n#	c #7DADC7",
"o#	c #8BB2C7",
"p#	c #87B4CC",
"q#	c #8BB7CF",
"r#	c #B9C1C6",
"s#	c #838181",
"t#	c #287FB0",
"u#	c #2683B8",
"v#	c #2783B7",
"w#	c #2A86BA",
"x#	c #86B6D1",
"y#	c #E7E4E3",
"z#	c #E4E1DF",
"A#	c #E0DDDC",
"B#	c #DDD9D8",
"C#	c #BEC6CD",
"D#	c #69A0C0",
"E#	c #4393BF",
"F#	c #3B92C2",
"G#	c #3B93C5",
"H#	c #3C95C6",
"I#	c #3C97C8",
"J#	c #3D98C9",
"K#	c #BABEC1",
"L#	c #5A96B7",
"M#	c #569CC1",
"N#	c #5B9FC3",
"O#	c #60A1C4",
"P#	c #66A4C6",
"Q#	c #6AA7C7",
"R#	c #71AAC9",
"S#	c #8AB1C5",
"T#	c #B6B5B5",
"U#	c #266F99",
"V#	c #2884B8",
"W#	c #358BBB",
"X#	c #A9C6D7",
"Y#	c #E5E2E1",
"Z#	c #E2DEDD",
"`#	c #DEDAD9",
" $	c #DAD7D5",
".$	c #D7D3D2",
"+$	c #C6C9CB",
"@$	c #A5BAC4",
"#$	c #71A2BD",
"$$	c #3991C2",
"%$	c #3A93C4",
"&$	c #3A96C5",
"*$	c #3C96C7",
"=$	c #478FB7",
"-$	c #A6B2B9",
";$	c #99B0BC",
">$	c #5596BA",
",$	c #549DC4",
"'$	c #589FC5",
")$	c #5DA2C6",
"!$	c #61A4C7",
"~$	c #77A8C2",
"{$	c #B9C5CB",
"]$	c #898787",
"^$	c #2C7FAF",
"/$	c #2884B7",
"($	c #5A9CC2",
"_$	c #D9DDDF",
":$	c #E2DEDE",
"<$	c #DFDBDA",
"[$	c #DAD7D4",
"}$	c #D7D5D1",
"|$	c #D3D0CF",
"1$	c #D1CCCC",
"2$	c #CDCAC8",
"3$	c #3E8FBB",
"4$	c #3A90BE",
"5$	c #3A93C3",
"6$	c #3F8DB7",
"7$	c #6A8DA0",
"8$	c #BCBFC1",
"9$	c #C4C4C5",
"0$	c #B6BCC0",
"a$	c #83A9BC",
"b$	c #74A5BF",
"c$	c #7BA8C1",
"d$	c #95B2C1",
"e$	c #BBBCBD",
"f$	c #949291",
"g$	c #2B749D",
"h$	c #2E85B8",
"i$	c #2984B7",
"j$	c #3C8DBB",
"k$	c #B0C7D4",
"l$	c #DCD9D7",
"m$	c #D8D5D3",
"n$	c #D5D1D0",
"o$	c #D0CDCC",
"p$	c #CECAC9",
"q$	c #CAC7C6",
"r$	c #C5C4C4",
"s$	c #9AAFBB",
"t$	c #8EAAB8",
"u$	c #7195AA",
"v$	c #7D929D",
"w$	c #B9B8B9",
"x$	c #5C88A0",
"y$	c #7298AC",
"z$	c #A5AAAD",
"A$	c #B2B2B3",
"B$	c #AFAFB0",
"C$	c #9AA3A8",
"D$	c #6F8591",
"E$	c #2E7DA9",
"F$	c #3087B8",
"G$	c #2B85B7",
"H$	c #3E8EBB",
"I$	c #C7D1D4",
"J$	c #D9D7D5",
"K$	c #D5D1D1",
"L$	c #D1CDCC",
"M$	c #C7C3C3",
"N$	c #C4C2C1",
"O$	c #C2C0BE",
"P$	c #B4B1B1",
"Q$	c #A4A3A2",
"R$	c #D1D0D0",
"S$	c #ADADAD",
"T$	c #6B7E8A",
"U$	c #3894C5",
"V$	c #3A98C9",
"W$	c #3B98C8",
"X$	c #4197C4",
"Y$	c #459CCA",
"Z$	c #4297C4",
"`$	c #307EAA",
" %	c #3288B8",
".%	c #2F86B7",
"+%	c #6FA6C3",
"@%	c #CCCFD2",
"#%	c #D2CFCF",
"$%	c #CFCBCA",
"%%	c #CBC8C5",
"&%	c #C8C4C4",
"*%	c #C5C0C0",
"=%	c #C2BFBE",
"-%	c #B3B1B0",
";%	c #A19E9E",
">%	c #BAB9B9",
",%	c #6F808A",
"'%	c #4189AF",
")%	c #3995C6",
"!%	c #3A97C9",
"~%	c #3F9DCE",
"{%	c #45A2D2",
"]%	c #4398C4",
"^%	c #327EA8",
"/%	c #3587B5",
"(%	c #3589B7",
"_%	c #69A1C0",
":%	c #C8C9CA",
"<%	c #CCC9C7",
"[%	c #C7C3C2",
"}%	c #C4C0C0",
"|%	c #BFBDBC",
"1%	c #B1AFAF",
"2%	c #A4A2A2",
"3%	c #D0CFCF",
"4%	c #AEADAE",
"5%	c #708189",
"6%	c #3A8AB4",
"7%	c #3892C2",
"8%	c #3C96C6",
"9%	c #419CCB",
"0%	c #469ECD",
"a%	c #4294C0",
"b%	c #327CA4",
"c%	c #3686B2",
"d%	c #398BB8",
"e%	c #9FB8C4",
"f%	c #CAC7C5",
"g%	c #BFBCBC",
"h%	c #B0AEAD",
"i%	c #9F9D9C",
"j%	c #72818A",
"k%	c #4084A8",
"l%	c #3B92C0",
"m%	c #3F95C4",
"n%	c #449AC7",
"o%	c #4499C6",
"p%	c #408FB8",
"q%	c #327396",
"r%	c #357CA4",
"s%	c #79A1B7",
"t%	c #C4C2C2",
"u%	c #C3C1C0",
"v%	c #B5B3B1",
"w%	c #A3A1A1",
"x%	c #AFAFAF",
"y%	c #76838A",
"z%	c #4389AF",
"A%	c #4293BD",
"B%	c #4394BE",
"C%	c #4293BE",
"D%	c #408BB4",
"E%	c #3C81A7",
"F%	c #668392",
"G%	c #AFAEAE",
"H%	c #ACABAA",
"I%	c #9F9D9B",
"J%	c #BABABA",
"K%	c #778289",
"L%	c #487F9E",
"M%	c #3F8AB1",
"N%	c #3F8BB2",
"O%	c #3E87AE",
"P%	c #397898",
"Q%	c #B1B0AF",
"R%	c #B1B1B1",
"S%	c #808080",
"T%	c #3F738F",
"U%	c #3B7B9F",
"V%	c #366C89",
"W%	c #6E6C6C",
"                                                                ",
"                          . + @ # $ %                           ",
"                    & * = - ; > , ' ) ! ~ {                     ",
"                ] ^ / ( _ : < [ } | 1 2 3 4 5 6                 ",
"              } 7 8 9 0 a b c d e f g h i j k l m               ",
"            n o p q r s t u v w x y z A B C D E F G             ",
"          H I J K K L M N O P Q R S T U V W X Y Z `  .          ",
"        ..+.I J K p @.N #.$.%.&.*.=.-.U ;.>.,.'.).!.~.{.        ",
"      ].^.+.I J K p @./.(._.:.<.[.}.|.1.2.3.4.5.6.7.8.9.0.      ",
"      a.^.+.I b.K p c.d.e.f.g.h.i.j.k.l.m.n.o.p.q.r.s.Z t.      ",
"    u.v.^.+.J b.w.x.y.z.A.B.C.D.E.F.G.H.3.I.J.K.L.M.N.O.P.Q.    ",
"    R.v.S.T.J b.U.V.W.X.Y.B Z.`. +.+++@+#+$+%+&+*+=+-+;+>+,+    ",
"    '+v.)+!+~+{+]+^+/+(+_+:+<+[+}+|+1+2+3+4+5+6+7+8+9+0+a+b+    ",
"  c+d+e+f+g+h+i+j+k+l+m+n+o+p+q+r+s+t+u+3+v+w+x+y+z+A+B+C+D+E+  ",
"  F+G+H+I+J+K+L+M+N+O+P+Q+R+S+T+U+V+W+X+Y+Z+`+ @.@+@@@H #@$@%@  ",
"  &@*@=@-@;@>@,@'@)@!@~@{@=+]@^@/@(@_@o.:@<@[@}@|@1@2@} } 3@4@  ",
"  5@6@7@8@9@0@a@b@c@d@e@f@~@g@h@i@j@k@l@m@n@o@p@q@r@s@t@#@u@v@w@",
"  x@y@z@A@B@C@D@E@F@G@k+H@I@J@K@L@M@N@O@P@Q@R@S@T@U@V@W@X@Y@Z@`@",
"   #y@z@.#+#@###$#%#&#*#=#-#;#>#,#'#)#!#~#{#]#^#/#(#_#:#<#[#}#|#",
"    1#1#2#3#4#5#6#7#8#9#0#a#b#c#d#e#f#g#h#i#j#k#l#m#n#o#p#q#r#s#",
"    t#.#u#v#w#x#y#z#A#B#C#D#E#F#G#H#I#J#7+K#L#M#N#O#P#Q#R#S#T#  ",
"    U#V#u#v#W#X#Y#Z#`# $.$+$@$#$$$%$&$*$=$-$;$>$,$'$)$!$~${$]$  ",
"      ^$/$v#($_$:$<$[$}$|$1$2$P.3$4$5$6$7$8$9$0$a$b$c$d$e$f$    ",
"      g$h$i$j$k$A#l$m$n$o$p$q$r$s$t$u$v$P.w$x$y$z$A$B$C$D$      ",
"        E$F$G$H$I$J$K$L$2$q$M$N$O$P$Q$R$S$T$U$V$W$X$Y$Z$        ",
"          `$ %.%+%@%#%$%%%&%*%=%-%;%R$>%,%'%)%!%~%{%]%          ",
"            ^%/%(%_%:%<%[%}%|%1%2%3%4%5%6%7%8%9%0%a%            ",
"              b%c%d%e%f%}%g%h%i%3%>%j%k%l%m%n%o%p%              ",
"                q%r%s%t%u%v%w%3%x%y%z%A%B%C%D%E%                ",
"                    F%G%H%I%3%J%K%L%M%N%O%P%                    ",
"                          Q%R%S%T%U%V%                          ",
"                            W%                                  "};
