/* XPM */
static const char * sickLmsSelect_xpm[] = {
"16 16 104 2",
"  	c None",
". 	c #140CFF",
"+ 	c #FFFFFF",
"@ 	c #006997",
"# 	c #007EB5",
"$ 	c #0086C0",
"% 	c #008AC6",
"& 	c #0089C5",
"* 	c #0090CF",
"= 	c #0081B9",
"- 	c #009CE0",
"; 	c #0082BA",
"> 	c #006F9F",
", 	c #00628D",
"' 	c #006089",
") 	c #005E88",
"! 	c #00638E",
"~ 	c #006A98",
"{ 	c #0071A2",
"] 	c #006E9E",
"^ 	c #006D9C",
"/ 	c #006894",
"( 	c #00ADF9",
"_ 	c #00A7EF",
": 	c #00A6EE",
"< 	c #00A8F0",
"[ 	c #009FE3",
"} 	c #0091CF",
"| 	c #0087C1",
"1 	c #005F89",
"2 	c #003C57",
"3 	c #0083BC",
"4 	c #00A8F1",
"5 	c #0090CE",
"6 	c #00ADF8",
"7 	c #00AAF4",
"8 	c #00A6EF",
"9 	c #0085BE",
"0 	c #00AFFB",
"a 	c #00ACF7",
"b 	c #001822",
"c 	c #00293A",
"d 	c #003F5B",
"e 	c #00567B",
"f 	c #006D9D",
"g 	c #0085BF",
"h 	c #009BDF",
"i 	c #008BC8",
"j 	c #005A81",
"k 	c #006896",
"l 	c #0072A5",
"m 	c #000000",
"n 	c #000102",
"o 	c #000203",
"p 	c #000304",
"q 	c #000507",
"r 	c #181E21",
"s 	c #162429",
"t 	c #000104",
"u 	c #202631",
"v 	c #0F6187",
"w 	c #030303",
"x 	c #646464",
"y 	c #2C2C2C",
"z 	c #242833",
"A 	c #116288",
"B 	c #626262",
"C 	c #21242E",
"D 	c #0F6085",
"E 	c #101318",
"F 	c #090B0F",
"G 	c #040607",
"H 	c #4C4B4A",
"I 	c #2D2C2C",
"J 	c #14151B",
"K 	c #06628B",
"L 	c #235A7A",
"M 	c #204760",
"N 	c #1E3040",
"O 	c #1B2029",
"P 	c #20242D",
"Q 	c #212630",
"R 	c #232936",
"S 	c #2C323D",
"T 	c #323740",
"U 	c #1A242F",
"V 	c #154158",
"W 	c #016691",
"X 	c #0099DC",
"Y 	c #0088C3",
"Z 	c #057CB1",
"` 	c #0E7AAD",
" .	c #1F709B",
"..	c #216185",
"+.	c #23516E",
"@.	c #213F56",
"#.	c #223242",
"$.	c #14232F",
"%.	c #004664",
"&.	c #0074A6",
"*.	c #0099DB",
"=.	c #008CC9",
"-.	c #046F9F",
";.	c #005073",
". . . . . . . . . . . . . . . . ",
". . + + + + + + + + . . . . . . ",
". + @ # $ % & * * = + + + + + . ",
". - ; > , ' ) ! ~ > { ] ^ / + . ",
". ( _ : _ _ < [ } | 1 2 3 4 + . ",
". + 5 _ 6 7 4 _ : 8 9 ! 0 a + . ",
". . + b c d e f g h i j k l + . ",
". . + m m n o p q r s t u v + . ",
". . + m m m m m w x y m z A + . ",
". . + m m m m m w B y m C D + . ",
". . + E F G m m m H I m J K + . ",
". + L M N O P Q R S T U V W + . ",
". + X Y Z `  ...+.@.#.$.%.&.+ . ",
". + + + + + - *.5 =.-.;.5 + + . ",
". . . . . . + + + + + + + . . . ",
". . . . . . . . . . . . . . . . "};
