/* XPM */
static const char * sickLms_xpm[] = {
"16 16 106 2",
"  	c None",
". 	c #FFFFFF",
"+ 	c #000000",
"@ 	c #000304",
"# 	c #006997",
"$ 	c #007EB5",
"% 	c #0086C0",
"& 	c #008AC6",
"* 	c #0089C5",
"= 	c #0090CF",
"- 	c #0081B9",
"; 	c #00080C",
"> 	c #009CE0",
", 	c #0082BA",
"' 	c #006F9F",
") 	c #00628D",
"! 	c #006089",
"~ 	c #005E88",
"{ 	c #00638E",
"] 	c #006A98",
"^ 	c #0071A2",
"/ 	c #006E9E",
"( 	c #006D9C",
"_ 	c #006894",
": 	c #00090D",
"< 	c #00ADF9",
"[ 	c #00A7EF",
"} 	c #00A6EE",
"| 	c #00A8F0",
"1 	c #009FE3",
"2 	c #0091CF",
"3 	c #0087C1",
"4 	c #005F89",
"5 	c #003C57",
"6 	c #0083BC",
"7 	c #00A8F1",
"8 	c #000609",
"9 	c #0090CE",
"0 	c #00ADF8",
"a 	c #00AAF4",
"b 	c #00A6EF",
"c 	c #0085BE",
"d 	c #00AFFB",
"e 	c #00ACF7",
"f 	c #001822",
"g 	c #00293A",
"h 	c #003F5B",
"i 	c #00567B",
"j 	c #006D9D",
"k 	c #0085BF",
"l 	c #009BDF",
"m 	c #008BC8",
"n 	c #005A81",
"o 	c #006896",
"p 	c #0072A5",
"q 	c #000102",
"r 	c #000203",
"s 	c #000507",
"t 	c #181E21",
"u 	c #162429",
"v 	c #000104",
"w 	c #202631",
"x 	c #0F6187",
"y 	c #030303",
"z 	c #646464",
"A 	c #2C2C2C",
"B 	c #242833",
"C 	c #116288",
"D 	c #626262",
"E 	c #21242E",
"F 	c #0F6085",
"G 	c #101318",
"H 	c #090B0F",
"I 	c #040607",
"J 	c #4C4B4A",
"K 	c #2D2C2C",
"L 	c #14151B",
"M 	c #06628B",
"N 	c #235A7A",
"O 	c #204760",
"P 	c #1E3040",
"Q 	c #1B2029",
"R 	c #20242D",
"S 	c #212630",
"T 	c #232936",
"U 	c #2C323D",
"V 	c #323740",
"W 	c #1A242F",
"X 	c #154158",
"Y 	c #016691",
"Z 	c #0099DC",
"` 	c #0088C3",
" .	c #057CB1",
"..	c #0E7AAD",
"+.	c #1F709B",
"@.	c #216185",
"#.	c #23516E",
"$.	c #213F56",
"%.	c #223242",
"&.	c #14232F",
"*.	c #004664",
"=.	c #0074A6",
"-.	c #0099DB",
";.	c #008CC9",
">.	c #046F9F",
",.	c #005073",
". . . . . . . . . . . . . . . . ",
". . + + + + + + + + . . . . . . ",
"@ + # $ % & * = = - + + + + + . ",
"; > , ' ) ! ~ { ] ' ^ / ( _ + . ",
": < [ } [ [ | 1 2 3 4 5 6 7 + . ",
"8 + 9 [ 0 a 7 [ } b c { d e + . ",
". . + f g h i j k l m n o p + . ",
". . . + + q r @ s t u v w x + . ",
". . . + + + + + y z A + B C + . ",
". . . + + + + + y D A + E F + . ",
". . + G H I + + + J K + L M + . ",
". + N O P Q R S T U V W X Y + . ",
". + Z `  ...+.@.#.$.%.&.*.=.+ . ",
". + + + + + > -.9 ;.>.,.9 + + . ",
". . . . . . + + + + + + + . . . ",
". . . . . . . . . . . . . . . . "};
