/* XPM */
static const char * solidEntitySelect_xpm[] = {
"16 16 46 1",
" 	c None",
".	c #140CFF",
"+	c #FFFFFF",
"@	c #000000",
"#	c #050505",
"$	c #020202",
"%	c #040404",
"&	c #343434",
"*	c #2B2B2B",
"=	c #2C2C2C",
"-	c #292929",
";	c #010101",
">	c #090909",
",	c #0B0B0B",
"'	c #1B1B1B",
")	c #1A1A1A",
"!	c #181818",
"~	c #070707",
"{	c #0F0F0F",
"]	c #2A2A2A",
"^	c #444444",
"/	c #414141",
"(	c #2F2F2F",
"_	c #303030",
":	c #313131",
"<	c #323232",
"[	c #353535",
"}	c #272727",
"|	c #4B4B4B",
"1	c #3C3C3C",
"2	c #282828",
"3	c #676767",
"4	c #484848",
"5	c #373737",
"6	c #2D2D2D",
"7	c #3E3E3E",
"8	c #686868",
"9	c #515151",
"0	c #3B3B3B",
"a	c #333333",
"b	c #545454",
"c	c #535353",
"d	c #636363",
"e	c #383838",
"f	c #424242",
"g	c #494949",
".......++.......",
"......+@#+......",
".....+@..$+.....",
".....+%..%+.....",
"...+++@@@++++...",
"..+@@@&*=-@;@+..",
"..+@>,')'!~{$+..",
".+@]^/(__:<[@+..",
".+@}+|+1<+++2@+.",
".+@<++314+5<6@+.",
".+@7+8+19+0+a@+.",
".+@b+cd+^+++<@+.",
".+@efag[<f1:a@+.",
".+@@@@@@@@@@@@+.",
".++++++++++++++.",
"................"};
