/* XPM */
static const char * solidEntity_xpm[] = {
"16 16 51 1",
" 	c None",
".	c #000000",
"+	c #050505",
"@	c #3A3A3A",
"#	c #252525",
"$	c #020202",
"%	c #040404",
"&	c #858585",
"*	c #343434",
"=	c #2B2B2B",
"-	c #2C2C2C",
";	c #292929",
">	c #010101",
",	c #090909",
"'	c #0B0B0B",
")	c #1B1B1B",
"!	c #1A1A1A",
"~	c #181818",
"{	c #070707",
"]	c #0F0F0F",
"^	c #2A2A2A",
"/	c #444444",
"(	c #414141",
"_	c #2F2F2F",
":	c #303030",
"<	c #313131",
"[	c #323232",
"}	c #353535",
"|	c #272727",
"1	c #FFFFFF",
"2	c #4B4B4B",
"3	c #3C3C3C",
"4	c #282828",
"5	c #676767",
"6	c #484848",
"7	c #373737",
"8	c #2D2D2D",
"9	c #111111",
"0	c #3E3E3E",
"a	c #686868",
"b	c #515151",
"c	c #3B3B3B",
"d	c #333333",
"e	c #212121",
"f	c #545454",
"g	c #535353",
"h	c #636363",
"i	c #383838",
"j	c #424242",
"k	c #494949",
"l	c #363636",
"                ",
"       .+       ",
"      .@#$      ",
"      %&#%      ",
"      ...       ",
"   ...*=-;.>.   ",
"   .,')!)~{]$   ",
"  .^/(_::<[}.   ",
"  .|1213[1114.  ",
"  .[1153617[8.  ",
"  901a13b1c1d.  ",
" .ef1gh1/111[4. ",
" .*ijdk}[j3<dl. ",
" .............. ",
"                ",
"                "};
