/* XPM */
static char * sphereCom_xpm[] = {
"40 40 252 2",
"  	c None",
". 	c #036F00",
"+ 	c #036E00",
"@ 	c #036D00",
"# 	c #036B00",
"$ 	c #036A00",
"% 	c #036800",
"& 	c #047200",
"* 	c #037100",
"= 	c #047101",
"- 	c #197F16",
"; 	c #449840",
"> 	c #68AB65",
", 	c #78B476",
"' 	c #79B476",
") 	c #69AA67",
"! 	c #469642",
"~ 	c #1A7B17",
"{ 	c #046B00",
"] 	c #036900",
"^ 	c #036500",
"/ 	c #037300",
"( 	c #057301",
"_ 	c #1A8215",
": 	c #5BAC57",
"< 	c #B2DDAF",
"[ 	c #E1F4E0",
"} 	c #E9F6E8",
"| 	c #E7F6E7",
"1 	c #E7F6E6",
"2 	c #E9F7E8",
"3 	c #E3F5E2",
"4 	c #B6DEB4",
"5 	c #5FAA5B",
"6 	c #197B15",
"7 	c #046A01",
"8 	c #036300",
"9 	c #047500",
"0 	c #158010",
"a 	c #56AF51",
"b 	c #ABDEA8",
"c 	c #DBF1DA",
"d 	c #DFF2DD",
"e 	c #DDF1DC",
"f 	c #B4E1B1",
"g 	c #58AC53",
"h 	c #147610",
"i 	c #036700",
"j 	c #047600",
"k 	c #2E9529",
"l 	c #6FC769",
"m 	c #B3E1AF",
"n 	c #D5EED3",
"o 	c #BCE5B9",
"p 	c #72C66C",
"q 	c #2D8D28",
"r 	c #035900",
"s 	c #057701",
"t 	c #39A134",
"u 	c #67C661",
"v 	c #9CD998",
"w 	c #CBE9C9",
"x 	c #CBEAC9",
"y 	c #A8DDA5",
"z 	c #389A33",
"A 	c #056901",
"B 	c #035800",
"C 	c #057801",
"D 	c #35A12F",
"E 	c #5AC254",
"F 	c #6AC765",
"G 	c #BDE4BB",
"H 	c #BFE5BD",
"I 	c #76CB71",
"J 	c #349A2E",
"K 	c #046800",
"L 	c #047900",
"M 	c #24961E",
"N 	c #4EBD47",
"O 	c #4DBD46",
"P 	c #86D082",
"Q 	c #B3E0B0",
"R 	c #B2E0B0",
"S 	c #95D591",
"T 	c #4DBC46",
"U 	c #4DBD47",
"V 	c #238C1D",
"W 	c #10850B",
"X 	c #3FB637",
"Y 	c #41B839",
"Z 	c #40B838",
"` 	c #92D48E",
" .	c #A6DBA2",
"..	c #9FD99B",
"+.	c #3FB537",
"@.	c #0F770A",
"#.	c #035C00",
"$.	c #057A01",
"%.	c #29A521",
"&.	c #35B42D",
"*.	c #33B32B",
"=.	c #8CD188",
"-.	c #97D593",
";.	c #96D592",
">.	c #36B42E",
",.	c #28A121",
"'.	c #046901",
").	c #047A00",
"!.	c #0F8909",
"~.	c #29B021",
"{.	c #29AF21",
"].	c #27AF1F",
"^.	c #75C870",
"/.	c #88CF84",
"(.	c #81CC7C",
"_.	c #28AF20",
":.	c #0E7C09",
"<.	c #035B00",
"[.	c #169E0F",
"}.	c #1EAB15",
"|.	c #4FBB48",
"1.	c #78C873",
"2.	c #5BBF55",
"3.	c #1DAB15",
"4.	c #16980F",
"5.	c #036600",
"6.	c #057F00",
"7.	c #13A709",
"8.	c #13A70A",
"9.	c #1FAB16",
"0.	c #66C15F",
"a.	c #68C262",
"b.	c #68C162",
"c.	c #27AD1E",
"d.	c #046D00",
"e.	c #024C00",
"f.	c #068A00",
"g.	c #09A401",
"h.	c #2EAE28",
"i.	c #56BA50",
"j.	c #38B131",
"k.	c #057D00",
"l.	c #025800",
"m.	c #047B00",
"n.	c #059200",
"o.	c #05A200",
"p.	c #06A301",
"q.	c #2BAC24",
"r.	c #44B33D",
"s.	c #44B33E",
"t.	c #31AE2A",
"u.	c #08A303",
"v.	c #048900",
"w.	c #036100",
"x.	c #059900",
"y.	c #05A300",
"z.	c #19A712",
"A.	c #2FAB27",
"B.	c #32AB2A",
"C.	c #30AB28",
"D.	c #1DA816",
"E.	c #07A401",
"F.	c #059300",
"G.	c #059D00",
"H.	c #05A500",
"I.	c #08A502",
"J.	c #14A50D",
"K.	c #1BA413",
"L.	c #1EA316",
"M.	c #1CA414",
"N.	c #15A50E",
"O.	c #09A503",
"P.	c #05A000",
"Q.	c #05A700",
"R.	c #06A700",
"S.	c #09A402",
"T.	c #07A600",
"U.	c #059C00",
"V.	c #05AA00",
"W.	c #059B00",
"X.	c #036400",
"Y.	c #05AD00",
"Z.	c #049600",
"`.	c #036200",
" +	c #059600",
".+	c #05B100",
"++	c #048B00",
"@+	c #047800",
"#+	c #06B600",
"$+	c #06B500",
"%+	c #024E00",
"&+	c #06BA00",
"*+	c #06B300",
"=+	c #023800",
"-+	c #06BF00",
";+	c #059700",
">+	c #047300",
",+	c #048200",
"'+	c #06C100",
")+	c #06C400",
"!+	c #06C000",
"~+	c #024800",
"{+	c #06CA00",
"]+	c #059A00",
"^+	c #047C00",
"/+	c #06CF00",
"(+	c #06BC00",
"_+	c #023F00",
":+	c #048500",
"<+	c #07CE00",
"[+	c #07D600",
"}+	c #06CC00",
"|+	c #025400",
"1+	c #048C00",
"2+	c #07D500",
"3+	c #07DD00",
"4+	c #07D400",
"5+	c #048100",
"6+	c #035D00",
"7+	c #047100",
"8+	c #06D400",
"9+	c #07E400",
"0+	c #06D200",
"a+	c #047E00",
"b+	c #035E00",
"c+	c #06BD00",
"d+	c #07EA00",
"e+	c #07EB00",
"f+	c #048E00",
"g+	c #06CD00",
"h+	c #07F300",
"i+	c #06CB00",
"j+	c #048700",
"k+	c #047000",
"l+	c #05AE00",
"m+	c #07D300",
"n+	c #07EC00",
"o+	c #08F500",
"p+	c #08F700",
"q+	c #07D200",
"r+	c #05AC00",
"s+	c #012600",
"t+	c #036C00",
"u+	c #037000",
"v+	c #037800",
"w+	c #047D00",
"x+	c #037600",
"y+	c #024900",
"z+	c #024500",
"A+	c #024700",
"B+	c #024000",
"C+	c #013500",
"                                                                                ",
"                                                                                ",
"                                                                                ",
"                                . . + + @ # $ %                                 ",
"                          & * = - ; > , ' ) ! ~ { ] ^                           ",
"                      / ( _ : < [ } | 1 1 | 2 3 4 5 6 7 8                       ",
"                    9 0 a b c d d d d d d d d d d e f g h i                     ",
"                  j k l m n n n n n n n n n n n n n n o p q % r                 ",
"                s t u v w w w w w w w w w w w w w w w x y u z A B               ",
"              C D E F G H H H H H H H H H H H H H H H H H I E J K               ",
"            L M N O P Q R R R R R R R R R R R R R R R R R S T U V ^             ",
"          L W X Y Z `  . . . . . . . . . . . . . . . . . ...Y Y +.@.#.          ",
"          $.%.&.&.*.=.-.-.-.-.-.-.-.-.-.-.-.-.-.-.-.-.-.-.;.>.&.&.,.'.          ",
"        ).!.~.{.{.].^././././././././././././././././././.(._.{.{.~.:.<.        ",
"        ).[.}.}.}.}.|.1.1.1.1.1.1.1.1.1.1.1.1.1.1.1.1.1.1.2.3.}.}.}.4.5.        ",
"        6.7.8.8.8.8.9.0.a.a.a.a.a.a.a.a.a.a.a.a.a.a.a.a.b.c.8.8.8.8.7.d.e.      ",
"      ).f.g.g.g.g.g.g.h.i.i.i.i.i.i.i.i.i.i.i.i.i.i.i.i.j.g.g.g.g.g.g.k.l.      ",
"      m.n.o.o.o.o.o.o.p.q.r.s.s.s.s.s.s.s.s.s.s.s.s.s.t.u.o.o.o.o.o.o.v.w.      ",
"      m.x.y.y.y.y.y.y.y.p.z.A.B.B.B.B.B.B.B.B.B.B.C.D.E.y.y.y.y.y.y.y.F.8       ",
"      ).G.H.H.H.H.H.H.H.H.H.I.J.K.L.L.L.L.L.L.M.N.O.H.H.H.H.H.H.H.H.H.x.^       ",
"      ).P.Q.Q.Q.Q.Q.Q.Q.Q.Q.Q.Q.Q.R.I.S.S.I.T.Q.Q.Q.Q.Q.Q.Q.Q.Q.Q.Q.Q.U.5.      ",
"      ).P.V.V.V.V.V.V.V.V.V.V.V.V.V.V.V.V.V.V.V.V.V.V.V.V.V.V.V.V.V.V.W.X.      ",
"      ).G.Y.Y.Y.Y.Y.Y.Y.Y.Y.Y.Y.Y.Y.Y.Y.Y.Y.Y.Y.Y.Y.Y.Y.Y.Y.Y.Y.Y.Y.Y.Z.`.      ",
"      ). +.+.+.+.+.+.+.+.+.+.+.+.+.+.+.+.+.+.+.+.+.+.+.+.+.+.+.+.+.+.+++#.      ",
"      @+v.#+$+$+$+$+$+$+$+$+$+$+$+$+$+$+$+$+$+$+$+$+$+$+$+$+$+$+$+$+#+).%+      ",
"        m.$+&+&+&+&+&+&+&+&+&+&+&+&+&+&+&+&+&+&+&+&+&+&+&+&+&+&+&+&+*+% =+      ",
"        L P.-+-+-+-+-+-+-+-+-+-+-+-+-+-+-+-+-+-+-+-+-+-+-+-+-+-+-+-+;+`.        ",
"        >+,+'+)+)+)+)+)+)+)+)+)+)+)+)+)+)+)+)+)+)+)+)+)+)+)+)+)+)+!+/ ~+        ",
"          @+o.{+{+{+{+{+{+{+{+{+{+{+{+{+{+{+{+{+{+{+{+{+{+{+{+{+{+]+8           ",
"          @ ^+-+/+/+/+/+/+/+/+/+/+/+/+/+/+/+/+/+/+/+/+/+/+/+/+/+(+@ _+          ",
"            & :+<+[+[+[+[+[+[+[+[+[+[+[+[+[+[+[+[+[+[+[+[+[+[+}+L |+            ",
"              >+1+2+3+3+3+3+3+3+3+3+3+3+3+3+3+3+3+3+3+3+3+3+4+5+6+              ",
"                7+v.8+9+9+9+9+9+9+9+9+9+9+9+9+9+9+9+9+9+9+0+a+b+                ",
"                  @ a+c+d+e+e+e+e+e+e+e+e+e+e+e+e+e+e+d+&+/ r                   ",
"                    w.>+f+g+h+h+h+h+h+h+h+h+h+h+h+h+i+j+] ~+                    ",
"                        X.k+5+l+m+n+o+p+p+o+e+q+r+m.% |+s+                      ",
"                            l.5.t+u+v+w+w+x+@ i b+y+                            ",
"                                    z+A+A+B+C+                                  ",
"                                                                                ",
"                                                                                "};
