/* XPM */
static const char * sphere_xpm[] = {
"16 16 89 1",
" 	c None",
".	c #141300",
"+	c #151300",
"@	c #716D00",
"#	c #E7E100",
"$	c #FFFF00",
"%	c #ECE600",
"&	c #7D7800",
"*	c #A9A600",
"=	c #FFF300",
"-	c #FDEF00",
";	c #FFF200",
">	c #B8B400",
",	c #A19D00",
"'	c #FFF000",
")	c #FFF400",
"!	c #B7B100",
"~	c #535100",
"{	c #F3E500",
"]	c #EEE800",
"^	c #EEEA00",
"/	c #EEEB00",
"(	c #696500",
"_	c #A29D00",
":	c #E4DF00",
"<	c #BAB100",
"[	c #A59E00",
"}	c #A29F00",
"|	c #A3A100",
"1	c #A2A000",
"2	c #A6A000",
"3	c #B8B100",
"4	c #E1DA00",
"5	c #C7BF00",
"6	c #090900",
"7	c #A29C00",
"8	c #B1A800",
"9	c #C2BD00",
"0	c #C2C000",
"a	c #BEBC00",
"b	c #BEBD00",
"c	c #C3C200",
"d	c #C2BC00",
"e	c #B9B200",
"f	c #080800",
"g	c #898400",
"h	c #DBD300",
"i	c #DCD400",
"j	c #918A00",
"k	c #060600",
"l	c #716C00",
"m	c #BDB900",
"n	c #AEAB00",
"o	c #B1AC00",
"p	c #BBB500",
"q	c #C3BC00",
"r	c #C4BD00",
"s	c #BCB600",
"t	c #B0AB00",
"u	c #ACA900",
"v	c #B9B500",
"w	c #837E00",
"x	c #534E00",
"y	c #EFE700",
"z	c #AEA900",
"A	c #B6B300",
"B	c #B9B000",
"C	c #BAB200",
"D	c #B5B200",
"E	c #ADA800",
"F	c #E8E200",
"G	c #6A6600",
"H	c #B1AB00",
"I	c #F6ED00",
"J	c #F6EB00",
"K	c #F3E600",
"L	c #F6EE00",
"M	c #FFFE00",
"N	c #C2BB00",
"O	c #BAB700",
"P	c #FFF100",
"Q	c #FEEF00",
"R	c #C8C300",
"S	c #8B8600",
"T	c #F4EF00",
"U	c #F7F300",
"V	c #989200",
"W	c #3B3700",
"X	c #3E3A00",
"                ",
"       .+       ",
"     @#$$%&     ",
"    *$=--;$>    ",
"   ,$'))))'$!   ",
"  ~${]^///]{$(  ",
"  _:<[}|1}2345  ",
" 67890abaacd8e6 ",
" fgh$$$$$$$$ijk ",
"  lmnopqrstuvw  ",
"  xyzAeBBCDEFG  ",
"   H$IJKKJLMN   ",
"    O$PQQ'$R    ",
"     ST$$UV     ",
"       WX       ",
"                "};
