/* XPM */
static const char * stop_xpm[] = {
"32 32 225 2",
"  	c None",
". 	c #CB5A5A",
"+ 	c #E87B7B",
"@ 	c #E87C7C",
"# 	c #E97B7B",
"$ 	c #E97979",
"% 	c #E87777",
"& 	c #E87474",
"* 	c #E77272",
"= 	c #E76F6F",
"- 	c #CB5151",
"; 	c #CA5555",
"> 	c #DE5252",
", 	c #DD5454",
"' 	c #DE5050",
") 	c #DD4E4E",
"! 	c #DE4D4D",
"~ 	c #DD4B4B",
"{ 	c #DC4949",
"] 	c #DD4848",
"^ 	c #DD4646",
"/ 	c #DD4444",
"( 	c #DC4242",
"_ 	c #DB4141",
": 	c #DB3C3C",
"< 	c #CA4B4B",
"[ 	c #C95353",
"} 	c #DD5252",
"| 	c #DD5353",
"1 	c #DE5151",
"2 	c #DE4E4E",
"3 	c #DD4C4C",
"4 	c #DC4A4A",
"5 	c #DD4949",
"6 	c #DD4747",
"7 	c #DC4545",
"8 	c #DC4343",
"9 	c #DB4242",
"0 	c #DC4040",
"a 	c #DC3E3E",
"b 	c #DB3838",
"c 	c #C84646",
"d 	c #C85050",
"e 	c #DD5151",
"f 	c #DD4F4F",
"g 	c #DD4A4A",
"h 	c #DC4646",
"i 	c #DD4545",
"j 	c #DC3F3F",
"k 	c #DC3C3C",
"l 	c #DB3A3A",
"m 	c #DA3838",
"n 	c #D93333",
"o 	c #C74242",
"p 	c #C84E4E",
"q 	c #DD5050",
"r 	c #DC4B4B",
"s 	c #DB4040",
"t 	c #DC3D3D",
"u 	c #DC3B3B",
"v 	c #DB3939",
"w 	c #DB3636",
"x 	c #DB3434",
"y 	c #DA2F2F",
"z 	c #C63F3F",
"A 	c #C74C4C",
"B 	c #DE4F4F",
"C 	c #DC4747",
"D 	c #DB3B3B",
"E 	c #DA3434",
"F 	c #DA3535",
"G 	c #DA3333",
"H 	c #DA3030",
"I 	c #D92B2B",
"J 	c #C63B3B",
"K 	c #C74B4B",
"L 	c #DD4D4D",
"M 	c #FBE9E9",
"N 	c #DF5353",
"O 	c #DC4141",
"P 	c #FAE7E7",
"Q 	c #DB3535",
"R 	c #DA3131",
"S 	c #D92F2F",
"T 	c #DA2D2D",
"U 	c #D92727",
"V 	c #C63838",
"W 	c #C74949",
"X 	c #FCEFEF",
"Y 	c #FEFEFE",
"Z 	c #FFFFFF",
"` 	c #DA3939",
" .	c #DB3737",
"..	c #DD4343",
"+.	c #FBEDED",
"@.	c #DA3232",
"#.	c #D92E2E",
"$.	c #DA2C2C",
"%.	c #DA2A2A",
"&.	c #D92929",
"*.	c #D82323",
"=.	c #C53535",
"-.	c #C74747",
";.	c #DE4949",
">.	c #DD4242",
",.	c #FCECEC",
"'.	c #DA2E2E",
").	c #D92A2A",
"!.	c #D92828",
"~.	c #D92626",
"{.	c #D92525",
"].	c #D82020",
"^.	c #C53131",
"/.	c #FAE5E5",
"(.	c #D82424",
"_.	c #D92424",
":.	c #D92222",
"<.	c #D91F1F",
"[.	c #DF5151",
"}.	c #D71E1E",
"|.	c #D91D1D",
"1.	c #DF4E4E",
"2.	c #DE4C4C",
"3.	c #D92121",
"4.	c #D71F1F",
"5.	c #D81D1D",
"6.	c #D81C1C",
"7.	c #D91B1B",
"8.	c #DE4B4B",
"9.	c #DB3131",
"0.	c #D92020",
"a.	c #D81B1B",
"b.	c #D81919",
"c.	c #D91919",
"d.	c #D92323",
"e.	c #D81E1E",
"f.	c #D81A1A",
"g.	c #D81717",
"h.	c #D91818",
"i.	c #DE4646",
"j.	c #DB3D3D",
"k.	c #D81818",
"l.	c #DA3737",
"m.	c #DB3232",
"n.	c #D71717",
"o.	c #C60E0E",
"p.	c #C30000",
"q.	c #C20000",
"r.	c #C40000",
"s.	c #C50000",
"t.	c #C60000",
"u.	c #DD3F3F",
"v.	c #DB3333",
"w.	c #C80F0F",
"x.	c #C70000",
"y.	c #C90000",
"z.	c #DD3D3D",
"A.	c #CB1111",
"B.	c #C80000",
"C.	c #CB0000",
"D.	c #DC3A3A",
"E.	c #D52828",
"F.	c #C91616",
"G.	c #C90C0C",
"H.	c #CD1212",
"I.	c #CA0000",
"J.	c #CD0000",
"K.	c #DC3838",
"L.	c #D82D2D",
"M.	c #C60404",
"N.	c #F7DEDE",
"O.	c #CA0E0E",
"P.	c #CC0E0E",
"Q.	c #F8DEDE",
"R.	c #CC0000",
"S.	c #CF0000",
"T.	c #C22222",
"U.	c #C80202",
"V.	c #CC0F0F",
"W.	c #CE0F0F",
"X.	c #CE0202",
"Y.	c #CE0000",
"Z.	c #B90404",
"`.	c #B80A0A",
" +	c #CA0202",
".+	c #FAE8E8",
"++	c #CF1111",
"@+	c #D01111",
"#+	c #D00202",
"$+	c #D00000",
"%+	c #D10000",
"&+	c #BB0707",
"*+	c #CD0202",
"=+	c #F8E1E1",
"-+	c #D11212",
";+	c #D41212",
">+	c #F9E1E1",
",+	c #D20202",
"'+	c #D20000",
")+	c #BD0A0A",
"!+	c #BB0C0C",
"~+	c #D30000",
"{+	c #D40000",
"]+	c #BE0C0C",
"^+	c #BE0E0E",
"/+	c #D50000",
"(+	c #D60000",
"_+	c #C00E0E",
":+	c #C00F0F",
"<+	c #D70000",
"[+	c #C20F0F",
"}+	c #C21010",
"|+	c #D80000",
"1+	c #D90000",
"2+	c #C41010",
"3+	c #C31111",
"4+	c #DA0000",
"5+	c #DB0000",
"6+	c #C61111",
"7+	c #C61313",
"8+	c #E21616",
"9+	c #E31616",
"0+	c #E41616",
"a+	c #E51616",
"b+	c #C91313",
"                                                                ",
"                  . + + @ @ @ # # $ % & * = -                   ",
"                ; > , > ' ) ! ~ { ] ^ / ( _ : <                 ",
"              [ } | 1 ' 2 3 4 5 6 7 8 9 0 a : b c               ",
"            d e > 1 f ! ~ g ] h i 8 _ j a k l m n o             ",
"          p q > ' ) ! r 5 6 h / 9 s j t u v m w x y z           ",
"        A q 1 B 2 3 C ] 6 i 8 _ 0 a : D l E F E G H I J         ",
"      K q ' f L ~ ~ M N / 8 O j t k l b i P Q R S y T U V       ",
"    W q ' 2 3 r ~ X Y Z 2 0 a t u `  ...Z Y +.@.#.$.%.&.*.=.    ",
"  -.f f ! 3 4 g X Y Z Y Z ;.k l `  .>.Z Y Z Y ,.'.).!.~.{.].^.  ",
"  N ) ! r 5 7 M Y Z Z Z Y Z / b w 0 Z Y Z Z Z Y /.(.~._.:.].<.  ",
"  [.3 4 5 6 i [.Z Y Z Z Z Y Z 0 a Z Y Z Z Z Y Z Q {.*.:.].}.|.  ",
"  1.g ] h / 8 O 2.Z Y Z Z Z Y Z Z Y Z Z Z Y Z x _.*.3.4.5.6.7.  ",
"  8.6 h / 9 0 j t 6 Z Y Z Z Z Z Z Z Z Z Y Z 9._.:.0.4.5.a.b.c.  ",
"  ;.i .._ 0 a k D ` O Z Y Z Z Z Z Z Z Y Z y d.3.].e.6.f.b.g.h.  ",
"  i.8 O j j.k l b w Q t Z Z Z Z Z Z Z Z '.d.3.4.5.6.f.k.k.g.h.  ",
"  / s a t u ` l.w x m.D Z Z Z Z Z Z Z Z T ].e.5.a.k.n.n.n.k.h.  ",
"  >.a : l v  .Q G @.D Z Y Z Z Z Z Z Z Y Z o.p.q.p.p.r.r.r.s.t.  ",
"  u.u l m w Q v.R k Z Y Z Z Z Z Z Z Z Z Y Z w.r.s.s.t.t.t.x.y.  ",
"  z.` l.w x m.R : Z Y Z Z Z Y Z Z Y Z Z Z Y Z A.x.x.B.B.B.y.C.  ",
"  D. .Q G m.E.F.Z Y Z Z Z Y Z G.G.Z Y Z Z Z Y Z H.y.I.I.C.C.J.  ",
"  K.x v.L.M.p.N.Y Z Z Z Y Z O.B.B.P.Z Y Z Z Z Y Q.I.R.R.J.J.S.  ",
"  T.x P.t.t.x.U.P Y Z Y Z V.y.I.I.C.W.Z Y Z Y P X.Y.Y.Y.S.S.Z.  ",
"    `.x.B.B.B.y. +.+Y Z ++C.R.R.R.J.J.@+Z Y .+#+S.$+$+$+%+&+    ",
"      `.I.I.C.C.C.*+=+-+J.J.Y.Y.Y.S.S.S.;+>+,+%+%+'+'+'+)+      ",
"        !+C.J.J.J.Y.Y.S.S.S.$+$+$+%+%+'+'+%+~+~+~+{+{+]+        ",
"          ^+Y.S.$+$+$+%+%+%+'+'+~+~+~+{+{+{+/+/+(+/+_+          ",
"            :+$+'+'+'+~+~+~+{+{+/+/+/+(+(+<+<+<+<+[+            ",
"              }+~+{+{+/+/+(+(+(+<+<+|+|+1+1+1+1+2+              ",
"                3+/+<+<+<+|+|+1+1+4+4+5+5+5+5+6+                ",
"                  7+8+8+9+9+9+0+0+0+0+0+a+a+b+                  ",
"                                                                "};
