/* XPM */
static const char * stop2_xpm[] = {
"16 16 11 1",
" 	c None",
".	c #BEABAE",
"+	c #CC0200",
"@	c #B79197",
"#	c #E1C4C4",
"$	c #9DA0A9",
"%	c #B3B3B2",
"&	c #A2A0A9",
"*	c #C70404",
"=	c #CA0000",
"-	c #C70607",
"      .         ",
"     ++++++     ",
"    ++++++++@   ",
"   ++++++++++   ",
"  ++########++$ ",
" +++#%%%%%%#+++ ",
" +++#%%%%%%#+++ ",
" +++#%%%%%%#+++ ",
" +++#%%%%%%#+++ ",
" +++#%%%%%%#+++ ",
" +++#%%%%%%#+++ ",
" &*=########++  ",
"   -+++++++++   ",
"    ++++++++    ",
"     ++++++     ",
"                "};
