/* XPM */
static char * treestructure_xpm[] = {
"23 21 236 2",
"  	c None",
". 	c #EBECEB",
"+ 	c #B8B8B9",
"@ 	c #B3B5B7",
"# 	c #C0BFC2",
"$ 	c #F7F8F9",
"% 	c #FFFFFF",
"& 	c #C8C8C9",
"* 	c #A6B0C0",
"= 	c #B0BED3",
"- 	c #B4C3D8",
"; 	c #B6C6DB",
"> 	c #929AA3",
", 	c #EFEFEF",
"' 	c #C6C6C6",
") 	c #B1BDD1",
"! 	c #8792A3",
"~ 	c #828D9D",
"{ 	c #9EAABE",
"] 	c #ACBAD0",
"^ 	c #B2C0D6",
"/ 	c #AFBCD2",
"( 	c #A9B4CA",
"_ 	c #A9B5C8",
": 	c #C2D4EC",
"< 	c #97A1AD",
"[ 	c #EEEEED",
"} 	c #C6C7C6",
"| 	c #B2BDD1",
"1 	c #788390",
"2 	c #636D78",
"3 	c #7C8693",
"4 	c #434951",
"5 	c #565E6B",
"6 	c #596069",
"7 	c #4C505A",
"8 	c #606672",
"9 	c #AFBDD3",
"0 	c #97A0AD",
"a 	c #B0BECF",
"b 	c #8B97A9",
"c 	c #8D99A9",
"d 	c #818C9B",
"e 	c #6D7584",
"f 	c #939FB1",
"g 	c #7E8998",
"h 	c #788293",
"i 	c #919CAC",
"j 	c #B3C2D5",
"k 	c #98A0AC",
"l 	c #C5C6C7",
"m 	c #A1AFBF",
"n 	c #B1C0D7",
"o 	c #B2C1D7",
"p 	c #ADBDD1",
"q 	c #ADBDD0",
"r 	c #AFBED3",
"s 	c #B1BFD6",
"t 	c #B0BFD6",
"u 	c #B2C1D8",
"v 	c #B4C3DA",
"w 	c #8F97A2",
"x 	c #EDEEEC",
"y 	c #E5E6E6",
"z 	c #AEB0B4",
"A 	c #ADB0B5",
"B 	c #979A9F",
"C 	c #989B9F",
"D 	c #AEB0B5",
"E 	c #B3B4B6",
"F 	c #F7F8F8",
"G 	c #DADADA",
"H 	c #DCDCDC",
"I 	c #E0E0E0",
"J 	c #E1E1E1",
"K 	c #CBCBCB",
"L 	c #CDCDCD",
"M 	c #DFDFDE",
"N 	c #FFFFFE",
"O 	c #F8F8F8",
"P 	c #D6CCCA",
"Q 	c #DACDCA",
"R 	c #DACCCA",
"S 	c #D9CDCA",
"T 	c #E5E1E0",
"U 	c #D4D4D4",
"V 	c #D5D5D4",
"W 	c #FEFEFD",
"X 	c #DFDCDC",
"Y 	c #962510",
"Z 	c #C12E0C",
"` 	c #C42E0B",
" .	c #C32F0B",
"..	c #C42D0D",
"+.	c #BD2D0C",
"@.	c #BF2D0C",
"#.	c #C02E0D",
"$.	c #C22F0B",
"%.	c #BF2D0B",
"&.	c #C22F0A",
"*.	c #BF300B",
"=.	c #B72D0C",
"-.	c #A47973",
";.	c #C5C5D4",
">.	c #ACACC3",
",.	c #D0D1D2",
"'.	c #DDDDDD",
").	c #A8A7A8",
"!.	c #7E200E",
"~.	c #AD260B",
"{.	c #BA270A",
"].	c #B2280C",
"^.	c #C82C0A",
"/.	c #B3290F",
"(.	c #B8290B",
"_.	c #B92A0C",
":.	c #BA270E",
"<.	c #A9230A",
"[.	c #B8280A",
"}.	c #AA250C",
"|.	c #C52D0A",
"1.	c #B0786E",
"2.	c #FEFEFF",
"3.	c #AFAFCA",
"4.	c #8D8EB4",
"5.	c #D8D7D8",
"6.	c #E3E3E3",
"7.	c #B0AFAF",
"8.	c #94240C",
"9.	c #AB2509",
"0.	c #AD230D",
"a.	c #B8270A",
"b.	c #C62B0C",
"c.	c #B2290D",
"d.	c #AA250A",
"e.	c #B8280D",
"f.	c #B8290A",
"g.	c #A6250A",
"h.	c #AA240D",
"i.	c #A6220B",
"j.	c #D02C08",
"k.	c #AF796A",
"l.	c #D4D3D4",
"m.	c #D3D2D4",
"n.	c #FFFEFF",
"o.	c #E0DDDD",
"p.	c #A62F15",
"q.	c #D03413",
"r.	c #CE3711",
"s.	c #D03611",
"t.	c #D33513",
"u.	c #CE3514",
"v.	c #CF3512",
"w.	c #CF3612",
"x.	c #D13611",
"y.	c #CE3710",
"z.	c #CF3610",
"A.	c #C83313",
"B.	c #A97E72",
"C.	c #E2E2E2",
"D.	c #F4F3F3",
"E.	c #B5AAA7",
"F.	c #B6AAA8",
"G.	c #B8ABA8",
"H.	c #B9ABA8",
"I.	c #B7ABA8",
"J.	c #D0CDCC",
"K.	c #C7C7C7",
"L.	c #CACACA",
"M.	c #E3E1DE",
"N.	c #8F3C2A",
"O.	c #B13F26",
"P.	c #B03F27",
"Q.	c #B03F26",
"R.	c #AB3E29",
"S.	c #A78883",
"T.	c #D0CFDE",
"U.	c #BBBBD1",
"V.	c #ECEBEC",
"W.	c #F1F1F1",
"X.	c #C8C5C6",
"Y.	c #8F230D",
"Z.	c #C82B08",
"`.	c #D22D07",
" +	c #CB2C06",
".+	c #D72E08",
"++	c #B5280B",
"@+	c #C42A08",
"#+	c #CC2C08",
"$+	c #CD2C05",
"%+	c #BF2906",
"&+	c #D62E07",
"*+	c #C42907",
"=+	c #CE2D07",
"-+	c #AF796B",
";+	c #FEFFFF",
">+	c #B5B5CE",
",+	c #8C8DB5",
"'+	c #BEBEBE",
")+	c #CFCFCF",
"!+	c #939191",
"~+	c #851F10",
"{+	c #9A220B",
"]+	c #9B220F",
"^+	c #A4250E",
"/+	c #B7270C",
"(+	c #9C250C",
"_+	c #A2240B",
":+	c #A8280E",
"<+	c #A6260C",
"[+	c #93200B",
"}+	c #9A220E",
"|+	c #94200B",
"1+	c #CA2C08",
"2+	c #B0796B",
"3+	c #FCFDFD",
"4+	c #FAFBFB",
"5+	c #FEFEFE",
"6+	c #DDDBDA",
"7+	c #AC260A",
"8+	c #D82D07",
"9+	c #D82C05",
"0+	c #DE2F06",
"a+	c #D52E06",
"b+	c #D72B07",
"c+	c #DD2E05",
"d+	c #DF2E07",
"e+	c #DC2E07",
"f+	c #D92D05",
"g+	c #D82D06",
"h+	c #A8796D",
"i+	c #EFEFED",
"j+	c #AD918C",
"k+	c #B7938C",
"l+	c #B3928D",
"m+	c #C8BDBE",
". + @ @ @ @ @ @ @ @ @ # $ % % % % % % % % % % ",
"& * = - ; ; ; ; ; ; ; > , % % % % % % % % % % ",
"' ) ! ~ { ] ^ / ( _ : < [ % % % % % % % % % % ",
"} | 1 2 3 4 5 6 7 8 9 0 [ % % % % % % % % % % ",
"' a b c d e f g h i j k [ % % % % % % % % % % ",
"l m n o p q r s t u v w x % % % % % % % % % % ",
"y z A A B C A A A A D E F % % % % % % % % % % ",
"% % % % G H % % % % % % % % % % % % % % % % % ",
"% % % % I J % % % % % % % % % % % % % % % % % ",
"% % % % K L % % % % % % % % % % % % % % % % % ",
"% % % % M J N % O P Q R R R S Q R R R Q Q S T ",
"% % % % U V W % X Y Z `  ...+.@.#.$.%.&.*.=.-.",
"% % % % ;.>.,.'.).!.~.{.].^./.(._.:.<.[.}.|.1.",
"% % % 2.3.4.5.6.7.8.9.0.a.b.c.d.e.f.g.h.i.j.k.",
"% % % % l.m.n.% o.p.q.r.s.t.u.v.w.x.s.y.z.A.B.",
"% % % % I C.% % D.E.F.G.H.H.I.I.I.G.I.H.G.F.J.",
"% % % % K.L.% % M.N.O.P.P.P.P.Q.Q.P.P.P.P.R.S.",
"% % % % T.U.V.W.X.Y.Z.`. +.+++@+#+$+%+&+*+=+-+",
"% % % ;+>+,+'+)+!+~+{+]+^+/+(+_+:+<+[+}+|+1+2+",
"% % % % 3+4+5+5+6+7+8+9+0+0+a+b+c+d+e+f+9+g+h+",
"% % % % % % % % i+j+k+k+k+k+k+k+k+k+k+k+k+l+m+"};
