/* XPM */
static const char * ultrasonicSelect_xpm[] = {
"16 16 4 1",
" 	c None",
".	c #D15416",
"+	c #16CBD1",
"@	c #1668D1",
".............+++",
".............+++",
".........+++.+++",
".........+++..++",
".........+++..++",
".....@....+++.++",
"...@@@@@..+++.++",
"...@@@@@..+++.++",
"..@@@@@@@.+++.++",
"...@@@@@..+++.++",
"...@@@@@..+++.++",
".....@...+++..++",
".........+++..++",
".........+++.+++",
".............+++",
".............+++"};
