/* XPM */
static const char * universe_xpm[] = {
"16 16 185 2",
"  	c #FEFEFF",
". 	c #FEF8FF",
"+ 	c #FDFFFE",
"@ 	c #FCFFFD",
"# 	c #FCFAFB",
"$ 	c #FCFDFE",
"% 	c #F8FDFD",
"& 	c #FFFFFD",
"* 	c #FDFDFA",
"= 	c #FBF3FB",
"- 	c #F8FAFB",
"; 	c #FEFEFA",
"> 	c #FAFCFC",
", 	c #FEFFFE",
"' 	c #FFFEFF",
") 	c #FCFFFE",
"! 	c #FCFEFC",
"~ 	c #FCFDFD",
"{ 	c #BED9E7",
"] 	c #A0C5DA",
"^ 	c #FFFFFE",
"/ 	c #D7D4F1",
"( 	c #9557B8",
"_ 	c #8B84C1",
": 	c #FFFFFF",
"< 	c #FFFEFD",
"[ 	c #FFFCFE",
"} 	c #FEFEFE",
"| 	c #FDFDFC",
"1 	c #FFFFFB",
"2 	c #CCE8EC",
"3 	c #3E84AB",
"4 	c #4475A0",
"5 	c #F6EBFD",
"6 	c #704CC6",
"7 	c #162C89",
"8 	c #591FC8",
"9 	c #FCFFF9",
"0 	c #FDFEFE",
"a 	c #FFFDFE",
"b 	c #FFFEFE",
"c 	c #ECF4F8",
"d 	c #E8F7FB",
"e 	c #A8B5D2",
"f 	c #03678D",
"g 	c #989EC6",
"h 	c #9093C7",
"i 	c #19248B",
"j 	c #361DA5",
"k 	c #C8A6DD",
"l 	c #FDFFFF",
"m 	c #FDFFFC",
"n 	c #FEFEFB",
"o 	c #FBFCFF",
"p 	c #7FBAC2",
"q 	c #46A2B5",
"r 	c #B3D7E5",
"s 	c #006589",
"t 	c #CEBEEB",
"u 	c #3D2BAD",
"v 	c #6139A0",
"w 	c #E6D2ED",
"x 	c #FBEEED",
"y 	c #FEF6F4",
"z 	c #F8FBFF",
"A 	c #8DC4CF",
"B 	c #27928F",
"C 	c #ABD1D9",
"D 	c #7CA7D0",
"E 	c #9484C2",
"F 	c #8F69D7",
"G 	c #F9EEF1",
"H 	c #B0BCD5",
"I 	c #9A2988",
"J 	c #920A79",
"K 	c #881474",
"L 	c #CA88B6",
"M 	c #FFFCFC",
"N 	c #FEFEFD",
"O 	c #E6F4DD",
"P 	c #C9E9C7",
"Q 	c #95CCC7",
"R 	c #BBD6EA",
"S 	c #F2B9E1",
"T 	c #BF93CD",
"U 	c #95168A",
"V 	c #8A0373",
"W 	c #94127A",
"X 	c #8B137C",
"Y 	c #8E0A72",
"Z 	c #A2369F",
"` 	c #EFDEF3",
" .	c #F7FBF6",
"..	c #57B541",
"+.	c #169C0A",
"@.	c #99C877",
"#.	c #F6FAED",
"$.	c #F5F8F1",
"%.	c #D3C2DA",
"&.	c #BF6AA7",
"*.	c #B75BA3",
"=.	c #9D339C",
"-.	c #911079",
";.	c #8B1478",
">.	c #9B1F84",
",.	c #DA96C6",
"'.	c #FFF9FC",
").	c #FAFDFA",
"!.	c #ABDDAD",
"~.	c #B2DA91",
"{.	c #B6B95B",
"].	c #DBB6B2",
"^.	c #EDE2D1",
"/.	c #9A4D9E",
"(.	c #C886C0",
"_.	c #F4DAF1",
":.	c #EFD8EF",
"<.	c #DAAED2",
"[.	c #D9ACD0",
"}.	c #E6BFDB",
"|.	c #FFF9FA",
"1.	c #FEFFFF",
"2.	c #E5ECD6",
"3.	c #9BAC1F",
"4.	c #BEC773",
"5.	c #AD5642",
"6.	c #DC9C9E",
"7.	c #9774AF",
"8.	c #8F097D",
"9.	c #9F238B",
"0.	c #AEA8C8",
"a.	c #FEFFF9",
"b.	c #FDFBFB",
"c.	c #CABE89",
"d.	c #86A000",
"e.	c #D9D6A6",
"f.	c #A21616",
"g.	c #A1402A",
"h.	c #F0D4E9",
"i.	c #820272",
"j.	c #8F1578",
"k.	c #8E0E75",
"l.	c #B35AB3",
"m.	c #FFFDFD",
"n.	c #FFFDFC",
"o.	c #DCE3BC",
"p.	c #C1CE8D",
"q.	c #E2AEB4",
"r.	c #9F0B0C",
"s.	c #A11D15",
"t.	c #F9F4FF",
"u.	c #A949A9",
"v.	c #890D78",
"w.	c #8E1279",
"x.	c #910977",
"y.	c #F7E5CE",
"z.	c #FEFFFD",
"A.	c #FCFDFF",
"B.	c #E37F7E",
"C.	c #990302",
"D.	c #9A0000",
"E.	c #F6FCF8",
"F.	c #E8C8DA",
"G.	c #A03590",
"H.	c #90117F",
"I.	c #AA4093",
"J.	c #FDF3F7",
"K.	c #FCFFFF",
"L.	c #EECDCD",
"M.	c #B4363A",
"N.	c #BB4F50",
"O.	c #FFFBFF",
"P.	c #ECD1E5",
"Q.	c #CF9BC9",
"R.	c #FFE2F3",
"S.	c #FCFEFF",
"T.	c #FDFCFD",
"U.	c #FEFDFE",
"V.	c #FFFDFB",
"W.	c #F4DFE0",
"X.	c #F2EBEC",
"Y.	c #FBFFF9",
"Z.	c #FBFFFF",
"`.	c #FFFDF8",
" +	c #FDFAF9",
"  . + @ # $ % & * = - ; > + , ' ",
", ) ! ~ ' { ] ^ / ( _ : < [ ' , ",
"} | 1 : 2 3 4 5 6 7 8 9 0 a } : ",
"b : c d e f g h i j k l m n b : ",
": o p q r s t u v w : x y :   } ",
", z A B C D E F G H I J K L M : ",
"N O P Q R ^ S T U V W X Y Z ` : ",
" ...+.@.#.$.%.&.*.=.-.;.>.,.'.: ",
").!.~.{.].^./.(._.:.<.[.}.|.1.' ",
"1.2.3.4.5.6.7.8.9.0.: l a.+ } : ",
"b.c.d.e.f.g.h.i.j.k.l.: m.n.  , ",
"} o.p.q.r.s.t.u.v.w.x.y.z.A.b : ",
"b : : B.C.D.E.F.G.H.I.J.K.| < 1.",
"} * l L.M.N.O.^ P.Q.R.l S.T.} : ",
"} U.| V.W.X.a Y., : Z.`. +  , ' ",
"' ' b b : 1.} , , , 1.} } ' : , "};
