/* XPM */
static const char * universeSelect_xpm[] = {
"16 16 127 2",
"  	c None",
". 	c #140CFF",
"+ 	c #BED9E7",
"@ 	c #A0C5DA",
"# 	c #D7D4F1",
"$ 	c #9557B8",
"% 	c #8B84C1",
"& 	c #CCE8EC",
"* 	c #3E84AB",
"= 	c #4475A0",
"- 	c #8C82FD",
"; 	c #704CC6",
"> 	c #162C89",
", 	c #591FC8",
"' 	c #6A68FC",
") 	c #D9E7FB",
"! 	c #A8B5D2",
"~ 	c #03678D",
"{ 	c #989EC6",
"] 	c #9093C7",
"^ 	c #19248B",
"/ 	c #361DA5",
"( 	c #C8A6DD",
"_ 	c #7FBAC2",
": 	c #46A2B5",
"< 	c #B3D7E5",
"[ 	c #006589",
"} 	c #CEBEEB",
"| 	c #3D2BAD",
"1 	c #6139A0",
"2 	c #E6D2ED",
"3 	c #7066F7",
"4 	c #8DC4CF",
"5 	c #27928F",
"6 	c #ABD1D9",
"7 	c #7CA7D0",
"8 	c #9484C2",
"9 	c #8F69D7",
"0 	c #F9EEF1",
"a 	c #B0BCD5",
"b 	c #9A2988",
"c 	c #920A79",
"d 	c #881474",
"e 	c #CA88B6",
"f 	c #E6F4DD",
"g 	c #C9E9C7",
"h 	c #95CCC7",
"i 	c #BBD6EA",
"j 	c #FFFFFE",
"k 	c #F2B9E1",
"l 	c #BF93CD",
"m 	c #95168A",
"n 	c #8A0373",
"o 	c #94127A",
"p 	c #8B137C",
"q 	c #8E0A72",
"r 	c #A2369F",
"s 	c #EFDEF3",
"t 	c #57B541",
"u 	c #169C0A",
"v 	c #99C877",
"w 	c #F6FAED",
"x 	c #F5F8F1",
"y 	c #D3C2DA",
"z 	c #BF6AA7",
"A 	c #B75BA3",
"B 	c #9D339C",
"C 	c #911079",
"D 	c #8B1478",
"E 	c #9B1F84",
"F 	c #DA96C6",
"G 	c #ABDDAD",
"H 	c #B2DA91",
"I 	c #B6B95B",
"J 	c #DBB6B2",
"K 	c #EDE2D1",
"L 	c #9A4D9E",
"M 	c #C886C0",
"N 	c #F4DAF1",
"O 	c #EFD8EF",
"P 	c #DAAED2",
"Q 	c #D9ACD0",
"R 	c #E6BFDB",
"S 	c #E5ECD6",
"T 	c #9BAC1F",
"U 	c #BEC773",
"V 	c #AD5642",
"W 	c #DC9C9E",
"X 	c #9774AF",
"Y 	c #8F097D",
"Z 	c #9F238B",
"` 	c #AEA8C8",
" .	c #CABE89",
"..	c #86A000",
"+.	c #D9D6A6",
"@.	c #A21616",
"#.	c #A1402A",
"$.	c #F0D4E9",
"%.	c #820272",
"&.	c #8F1578",
"*.	c #8E0E75",
"=.	c #B35AB3",
"-.	c #DCE3BC",
";.	c #C1CE8D",
">.	c #E2AEB4",
",.	c #9F0B0C",
"'.	c #A11D15",
").	c #A949A9",
"!.	c #890D78",
"~.	c #8E1279",
"{.	c #910977",
"].	c #F7E5CE",
"^.	c #E37F7E",
"/.	c #990302",
"(.	c #9A0000",
"_.	c #E8C8DA",
":.	c #A03590",
"<.	c #90117F",
"[.	c #AA4093",
"}.	c #EECDCD",
"|.	c #B4363A",
"1.	c #BB4F50",
"2.	c #ECD1E5",
"3.	c #CF9BC9",
"4.	c #FFE2F3",
"5.	c #F4DFE0",
"6.	c #8A82F4",
". . . . . . . . . . . . . . . . ",
". . . . . + @ . # $ % . . . . . ",
". . . . & * = - ; > , . . . . . ",
". . ' ) ! ~ { ] ^ / ( . . . . . ",
". . _ : < [ } | 1 2 . 3 . . . . ",
". . 4 5 6 7 8 9 0 a b c d e . . ",
". f g h i j k l m n o p q r s . ",
". t u v w x y z A B C D E F . . ",
". G H I J K L M N O P Q R . . . ",
". S T U V W X Y Z ` . . . . . . ",
".  ...+.@.#.$.%.&.*.=.. . . . . ",
". -.;.>.,.'.. ).!.~.{.].. . . . ",
". . . ^./.(.. _.:.<.[.. . . . . ",
". . . }.|.1.. . 2.3.4.. . . . . ",
". . . . 5.6.. . . . . . . . . . ",
". . . . . . . . . . . . . . . . "};
