/* XPM */
static const char * up_xpm[] = {
"32 32 341 2",
"  	c None",
". 	c #C0D0D4",
"+ 	c #57889C",
"@ 	c #C6D6DB",
"# 	c #D8E1E3",
"$ 	c #77ABBB",
"% 	c #85BBCC",
"& 	c #87BCCA",
"* 	c #D2D6D7",
"= 	c #8BB7C0",
"- 	c #9DD3E2",
"; 	c #5DB5CE",
"> 	c #95D4E4",
", 	c #8ABBCE",
"' 	c #8FBCCA",
") 	c #89C7DB",
"! 	c #5CB2CD",
"~ 	c #6AB5D0",
"{ 	c #4EA9C8",
"] 	c #90CDDB",
"^ 	c #95B7C1",
"/ 	c #AAC2C9",
"( 	c #71B9CB",
"_ 	c #8BCADB",
": 	c #5FB2CC",
"< 	c #72BFD3",
"[ 	c #68BAD3",
"} 	c #53ADC7",
"| 	c #58ACC8",
"1 	c #AEC2C6",
"2 	c #B7C8CE",
"3 	c #52A5C0",
"4 	c #76C0D6",
"5 	c #53ABC7",
"6 	c #72C0D5",
"7 	c #74C0D3",
"8 	c #6BBCCF",
"9 	c #60B6CE",
"0 	c #6CBDD3",
"a 	c #4FA1C0",
"b 	c #CDCFD9",
"c 	c #4BA0BC",
"d 	c #7EC3D3",
"e 	c #56ACC7",
"f 	c #6EBDD6",
"g 	c #77C2D7",
"h 	c #70BFD3",
"i 	c #6ABBD1",
"j 	c #64BACF",
"k 	c #4CACC5",
"l 	c #74BFD2",
"m 	c #499FB6",
"n 	c #E3E1E1",
"o 	c #519CBC",
"p 	c #84C7D7",
"q 	c #51B0CC",
"r 	c #68B9D2",
"s 	c #7DC4D7",
"t 	c #77C1D4",
"u 	c #6FBDD0",
"v 	c #68BACF",
"w 	c #61B8CB",
"x 	c #60B6D0",
"y 	c #50B0C8",
"z 	c #6AC2CF",
"A 	c #62A4BF",
"B 	c #67AEBB",
"C 	c #67BCD0",
"D 	c #5FB6CD",
"E 	c #5BB2CB",
"F 	c #7CC6D9",
"G 	c #7DC3D4",
"H 	c #76C1D6",
"I 	c #6EBED0",
"J 	c #65BACE",
"K 	c #61B7CD",
"L 	c #5AB5CA",
"M 	c #54B2CC",
"N 	c #53B1C9",
"O 	c #62BBCD",
"P 	c #91B8C3",
"Q 	c #A4BEC6",
"R 	c #6EBDCD",
"S 	c #64BAD2",
"T 	c #56B2C8",
"U 	c #79C1D7",
"V 	c #7FC3D7",
"W 	c #7BC4D7",
"X 	c #6CBDCF",
"Y 	c #62B7CB",
"Z 	c #5CB4CB",
"` 	c #58B2CA",
" .	c #53B1CB",
"..	c #4DB1CA",
"+.	c #51B2C7",
"@.	c #4EA5C0",
"#.	c #93B8BC",
"$.	c #CBD4D3",
"%.	c #2C96AE",
"&.	c #6BBED2",
"*.	c #47ACC4",
"=.	c #77BDD9",
"-.	c #83C5DA",
";.	c #80C3D9",
">.	c #7BC2D5",
",.	c #76C0D3",
"'.	c #69BACC",
").	c #61B4CA",
"!.	c #59B1CA",
"~.	c #56B2CA",
"{.	c #51B0C9",
"].	c #4DAFC6",
"^.	c #45ACC4",
"/.	c #6DBED0",
"(.	c #3D97AE",
"_.	c #E2E9E7",
":.	c #2E8AA1",
"<.	c #81C0D2",
"[.	c #47ACC7",
"}.	c #72BBD4",
"|.	c #81C7D9",
"1.	c #81C3D8",
"2.	c #7EC2D8",
"3.	c #7AC3D5",
"4.	c #72C0D2",
"5.	c #66B9CC",
"6.	c #5FB3C6",
"7.	c #57ADC7",
"8.	c #50AFC7",
"9.	c #4CADC6",
"0.	c #49ACC5",
"a.	c #48AEC6",
"b.	c #34A7BE",
"c.	c #75BCD1",
"d.	c #34859B",
"e.	c #9EB7BF",
"f.	c #78B4BD",
"g.	c #4AB0CA",
"h.	c #5EB6CB",
"i.	c #7EC0D6",
"j.	c #7AC1D8",
"k.	c #7FC2D8",
"l.	c #7AC1D7",
"m.	c #70BED1",
"n.	c #64B8CB",
"o.	c #5EB1C5",
"p.	c #55ABC5",
"q.	c #4DABC4",
"r.	c #47ABC4",
"s.	c #47AAC6",
"t.	c #44AAC6",
"u.	c #44AEC7",
"v.	c #37A4C1",
"w.	c #65ABB8",
"x.	c #7AA4B0",
"y.	c #C3D8D4",
"z.	c #3AAAC8",
"A.	c #36A6C4",
"B.	c #58B3CE",
"C.	c #5CB5CE",
"D.	c #6ABBD5",
"E.	c #6CB8CF",
"F.	c #79C0D8",
"G.	c #76BFD4",
"H.	c #6ABCCF",
"I.	c #5FB5C9",
"J.	c #5CAEC3",
"K.	c #52AAC1",
"L.	c #4BA9C2",
"M.	c #42A7C3",
"N.	c #39AAC7",
"O.	c #3BA3C8",
"P.	c #35A7C4",
"Q.	c #30A5C2",
"R.	c #32A6C5",
"S.	c #96C1C0",
"T.	c #8BBCCA",
"U.	c #97C1CB",
"V.	c #95BFC7",
"W.	c #99B8C9",
"X.	c #6C94A6",
"Y.	c #59BAD4",
"Z.	c #74BCD5",
"`.	c #71BCD3",
" +	c #69BACD",
".+	c #5EB6C9",
"++	c #59ABC1",
"@+	c #52A6BE",
"#+	c #4BA7C0",
"$+	c #3EA5C2",
"%+	c #62ABBE",
"&+	c #8AC2CB",
"*+	c #8ABCCB",
"=+	c #8CC0CA",
"-+	c #8BC1CD",
";+	c #A8CADE",
">+	c #B9C1C2",
",+	c #57B9D5",
"'+	c #6EB9D2",
")+	c #70BAD3",
"!+	c #63BACC",
"~+	c #5BB2C5",
"{+	c #56A8BD",
"]+	c #4EA3BA",
"^+	c #49A4BE",
"/+	c #36A3BF",
"(+	c #53B4D2",
"_+	c #6BBAD3",
":+	c #6BB8D0",
"<+	c #60B9CC",
"[+	c #59B0C3",
"}+	c #54A6BB",
"|+	c #4DA0B7",
"1+	c #48A3BC",
"2+	c #37A1BD",
"3+	c #4CAFCD",
"4+	c #66B6CE",
"5+	c #66B7D0",
"6+	c #5DB7CA",
"7+	c #57AFC1",
"8+	c #52A1B8",
"9+	c #4B9FB7",
"0+	c #48A0B7",
"a+	c #33A0BB",
"b+	c #42A8C5",
"c+	c #64B3CE",
"d+	c #5FB4CE",
"e+	c #59B6C9",
"f+	c #55ACBE",
"g+	c #4E9EB4",
"h+	c #4A9CB3",
"i+	c #429DB9",
"j+	c #42A2BC",
"k+	c #3EA5C1",
"l+	c #5FB0CD",
"m+	c #5BB4CE",
"n+	c #55B3C8",
"o+	c #52ABBD",
"p+	c #4D9CB3",
"q+	c #4597AF",
"r+	c #57A6BB",
"s+	c #60B1CA",
"t+	c #409DB7",
"u+	c #5AAECD",
"v+	c #57B2CB",
"w+	c #52B2C7",
"x+	c #4DA7BB",
"y+	c #4699AF",
"z+	c #58A1B4",
"A+	c #6CAFC1",
"B+	c #5FAFC8",
"C+	c #5299B2",
"D+	c #59ADC9",
"E+	c #4FB0CA",
"F+	c #4AAEC6",
"G+	c #4EA7BB",
"H+	c #6DACC0",
"I+	c #6CACBD",
"J+	c #68ADBD",
"K+	c #61ACC8",
"L+	c #599AAD",
"M+	c #62ABC2",
"N+	c #56AFC7",
"O+	c #60B8CB",
"P+	c #77B9C9",
"Q+	c #6BACBD",
"R+	c #6AA8BB",
"S+	c #69ACBF",
"T+	c #5EAEC2",
"U+	c #5F9EB1",
"V+	c #76B3C6",
"W+	c #7CBAC9",
"X+	c #75BECE",
"Y+	c #6EB5C4",
"Z+	c #6AABBB",
"`+	c #6BA6BA",
" @	c #67A9BE",
".@	c #60AFC5",
"+@	c #6BA4B3",
"@@	c #79B8CA",
"#@	c #7EB7C7",
"$@	c #7BB8C6",
"%@	c #6DB4C3",
"&@	c #6CA9BC",
"*@	c #68A7B6",
"=@	c #68A8BD",
"-@	c #61AFC0",
";@	c #6EA7B6",
">@	c #76B6C9",
",@	c #79B9C7",
"'@	c #7BB7C5",
")@	c #76B2BE",
"!@	c #69A9BB",
"~@	c #69A5B8",
"{@	c #68A7BC",
"]@	c #60ADBF",
"^@	c #71A8B7",
"/@	c #74B6CA",
"(@	c #77B8C6",
"_@	c #77B6C5",
":@	c #7AB0BD",
"<@	c #6DA7B7",
"[@	c #68A5B7",
"}@	c #67A7BC",
"|@	c #63AFC1",
"1@	c #76ADBB",
"2@	c #71B3C7",
"3@	c #75B7C6",
"4@	c #75B6C7",
"5@	c #78AFBD",
"6@	c #75A8B6",
"7@	c #67A4B7",
"8@	c #64A8BC",
"9@	c #63AEC2",
"0@	c #7EB4C1",
"a@	c #71B2C7",
"b@	c #74B6C5",
"c@	c #74B5C3",
"d@	c #78B1BE",
"e@	c #79A9B6",
"f@	c #6DA6B8",
"g@	c #67ACBF",
"h@	c #60AFC2",
"i@	c #81B0BD",
"j@	c #75B5C6",
"k@	c #78B6C5",
"l@	c #79B3C1",
"m@	c #7BAEBC",
"n@	c #74ADBB",
"o@	c #6FB0C6",
"p@	c #63B2CA",
"q@	c #8CBDCA",
"r@	c #63ABBF",
"s@	c #67AEC4",
"t@	c #68AEC2",
"u@	c #66ACC2",
"v@	c #67ABBE",
"w@	c #66ABBF",
"x@	c #53ADC5",
"y@	c #4CACC2",
"z@	c #ECF2F4",
"                              . + @                             ",
"                            # $ % & *                           ",
"                            = - ; > ,                           ",
"                          ' ) ! ~ { ] ^                         ",
"                        / ( _ : < [ } | 1                       ",
"                      2 3 4 5 6 7 8 9 0 a b                     ",
"                      c d e f g h i j k l m n                   ",
"                    o p q r s t u v w x y z A                   ",
"                  B C D E F G H I J K L M N O P                 ",
"                Q R S T U V W t X Y Z `  ...+.@.#.              ",
"              $.%.&.*.=.-.;.>.,.'.).!.~.{.].^./.(.              ",
"            _.:.<.[.}.|.1.2.3.4.5.6.7.8.9.0.a.b.c.d.            ",
"            e.f.g.h.i.j.2.k.l.m.n.o.p.q.r.s.t.u.v.w.x.          ",
"            y.z.A.B.C.D.E.F.G.H.I.J.K.L.M.N.O.P.Q.R.S.          ",
"              T.U.V.W.X.Y.Z.`. +.+++@+#+$+%+&+*+=+-+;+          ",
"                      >+,+'+)+!+~+{+]+^+/+                      ",
"                        (+_+:+<+[+}+|+1+2+                      ",
"                        3+4+5+6+7+8+9+0+a+                      ",
"                        b+c+d+e+f+g+h+i+j+                      ",
"                        k+l+m+n+o+p+q+r+s+                      ",
"                        t+u+v+w+x+y+z+A+B+                      ",
"                        C+D+E+F+G+H+I+J+K+                      ",
"                        L+M+N+O+P+Q+R+S+T+                      ",
"                        U+V+W+X+Y+Z+`+ @.@                      ",
"                        +@@@#@$@%@&@*@=@-@                      ",
"                        ;@>@,@'@)@!@~@{@]@                      ",
"                        ^@/@(@_@:@<@[@}@|@                      ",
"                        1@2@3@4@5@6@7@8@9@                      ",
"                        0@a@b@c@d@e@f@g@h@                      ",
"                        i@j@k@k@l@m@n@o@p@                      ",
"                        q@r@s@t@u@v@w@x@y@                      ",
"                                      z@                        "};
