/* XPM */
static char * update_xpm[] = {
"32 32 356 2",
"  	c None",
". 	c #165519",
"+ 	c #165F1A",
"@ 	c #16601B",
"# 	c #19761B",
"$ 	c #1B7E1C",
"% 	c #15581B",
"& 	c #14571A",
"* 	c #1E8B1D",
"= 	c #24A11E",
"- 	c #186A1C",
"; 	c #19641E",
"> 	c #1C6C21",
", 	c #207524",
"' 	c #227A25",
") 	c #217B26",
"! 	c #1E7323",
"~ 	c #1B691F",
"{ 	c #155D19",
"] 	c #229D1D",
"^ 	c #29AF20",
"/ 	c #228C21",
"( 	c #165C1C",
"_ 	c #165B1C",
": 	c #1C6820",
"< 	c #247C28",
"[ 	c #329333",
"} 	c #40A83E",
"| 	c #4AB646",
"1 	c #4FBC4A",
"2 	c #4FBF4A",
"3 	c #4CBD47",
"4 	c #45B541",
"5 	c #36A136",
"6 	c #258128",
"7 	c #1D6A20",
"8 	c #176A1B",
"9 	c #2AAA23",
"0 	c #35B52C",
"a 	c #3BB234",
"b 	c #2E8F2E",
"c 	c #369735",
"d 	c #4BB347",
"e 	c #5BC455",
"f 	c #65CB5E",
"g 	c #69CE62",
"h 	c #6BCF64",
"i 	c #68CE61",
"j 	c #64CC5D",
"k 	c #5FC957",
"l 	c #57C550",
"m 	c #4ABB45",
"n 	c #2F9630",
"o 	c #1C6E21",
"p 	c #1E7C1F",
"q 	c #38B530",
"r 	c #44BC3B",
"s 	c #4FC147",
"t 	c #58C551",
"u 	c #63CB5B",
"v 	c #6CCF65",
"w 	c #74D36D",
"x 	c #7BD674",
"y 	c #7FD879",
"z 	c #81D97B",
"A 	c #80D979",
"B 	c #7CD775",
"C 	c #76D46F",
"D 	c #6ED067",
"E 	c #65CC5D",
"F 	c #5BC754",
"G 	c #4EBF47",
"H 	c #2E9630",
"I 	c #1C6B20",
"J 	c #145519",
"K 	c #2A9328",
"L 	c #50C248",
"M 	c #67CD60",
"N 	c #72D26B",
"O 	c #7DD776",
"P 	c #87DC80",
"Q 	c #8FE089",
"R 	c #95E38F",
"S 	c #97E491",
"T 	c #93E28D",
"U 	c #8CDF86",
"V 	c #83DA7C",
"W 	c #78D572",
"X 	c #6DD066",
"Y 	c #62CB5B",
"Z 	c #56C54F",
"` 	c #46BA40",
" .	c #258428",
"..	c #175E1A",
"+.	c #37A831",
"@.	c #4BC043",
"#.	c #57C650",
"$.	c #64CB5D",
"%.	c #70D169",
"&.	c #7CD776",
"*.	c #88DD82",
"=.	c #94E38E",
"-.	c #9FE89A",
";.	c #A4E99F",
">.	c #93DC8F",
",.	c #79C976",
"'.	c #65BB64",
").	c #5EB85D",
"!.	c #61BF5E",
"~.	c #65C960",
"{.	c #32A431",
"].	c #1D6D21",
"^.	c #1B6C1D",
"/.	c #3FB538",
"(.	c #4EC147",
"_.	c #5BC753",
":.	c #73D36C",
"<.	c #7FD878",
"[.	c #8BDE84",
"}.	c #91E08C",
"|.	c #7AC878",
"1.	c #4B9A4D",
"2.	c #2C7A30",
"3.	c #1F6A23",
"4.	c #19651F",
"5.	c #1B651F",
"6.	c #1E6D23",
"7.	c #277E2B",
"8.	c #3BA03B",
"9.	c #47BE3F",
"0.	c #37B232",
"a.	c #207B24",
"b.	c #228021",
"c.	c #41BA39",
"d.	c #4DC145",
"e.	c #58C651",
"f.	c #64CB5C",
"g.	c #6FD168",
"h.	c #79D672",
"i.	c #82DA7C",
"j.	c #5AB059",
"k.	c #206B25",
"l.	c #1A671F",
"m.	c #27882B",
"n.	c #39B133",
"o.	c #32B32A",
"p.	c #228824",
"q.	c #125217",
"r.	c #269223",
"s.	c #3CB834",
"t.	c #51C34A",
"u.	c #4AA549",
"v.	c #185F1C",
"w.	c #29AD22",
"x.	c #239223",
"y.	c #1A611E",
"z.	c #195D1D",
"A.	c #125117",
"B.	c #18691A",
"C.	c #228322",
"D.	c #319D2D",
"E.	c #40B13A",
"F.	c #4CBE45",
"G.	c #56C54E",
"H.	c #5CC855",
"I.	c #61CA5A",
"J.	c #5AC154",
"K.	c #257A28",
"L.	c #1B6B1F",
"M.	c #239822",
"N.	c #239723",
"O.	c #1A621E",
"P.	c #19611E",
"Q.	c #15581A",
"R.	c #1A651D",
"S.	c #227924",
"T.	c #2F912E",
"U.	c #3EA93A",
"V.	c #48B842",
"W.	c #4EC047",
"X.	c #39A236",
"Y.	c #1A621D",
"Z.	c #1E7C21",
"`.	c #239424",
" +	c #1C6A20",
".+	c #155719",
"++	c #175F1C",
"@+	c #1D6F1F",
"#+	c #258226",
"$+	c #2B942A",
"%+	c #1C7520",
"&+	c #1C6C1F",
"*+	c #208726",
"=+	c #1C6920",
"-+	c #1A6520",
";+	c #1B6A20",
">+	c #15551B",
",+	c #165B1B",
"'+	c #175F1B",
")+	c #17591B",
"!+	c #1D7823",
"~+	c #1A6720",
"{+	c #17581B",
"]+	c #15571B",
"^+	c #1A651E",
"/+	c #1C6720",
"(+	c #1A6A20",
"_+	c #1A751E",
":+	c #239022",
"<+	c #1F8020",
"[+	c #1A6D1D",
"}+	c #175E1B",
"|+	c #155619",
"1+	c #1E7D21",
"2+	c #18631C",
"3+	c #2F9E2C",
"4+	c #3FB937",
"5+	c #33A42E",
"6+	c #288E27",
"7+	c #1E771F",
"8+	c #17641B",
"9+	c #145719",
"0+	c #19601E",
"a+	c #227925",
"b+	c #4FBC49",
"c+	c #54C44D",
"d+	c #4FC247",
"e+	c #48BE40",
"f+	c #3EB737",
"g+	c #33AB2C",
"h+	c #269822",
"i+	c #1C811B",
"j+	c #166819",
"k+	c #185E1D",
"l+	c #1B621E",
"m+	c #229323",
"n+	c #26AC1F",
"o+	c #208622",
"p+	c #185E1C",
"q+	c #45A344",
"r+	c #59C651",
"s+	c #43BC3B",
"t+	c #38B62F",
"u+	c #2CB124",
"v+	c #1E8D1B",
"w+	c #135317",
"x+	c #218823",
"y+	c #27AE1F",
"z+	c #2BAB25",
"A+	c #238626",
"B+	c #1A661F",
"C+	c #216C24",
"D+	c #57B056",
"E+	c #71D26A",
"F+	c #65CC5E",
"G+	c #4CC044",
"H+	c #3FBA36",
"I+	c #31B229",
"J+	c #1B7B1B",
"K+	c #1E7A22",
"L+	c #29AC24",
"M+	c #36B62D",
"N+	c #3FB639",
"O+	c #359E36",
"P+	c #267E2A",
"Q+	c #1E6D21",
"R+	c #1B661F",
"S+	c #2D7B30",
"T+	c #4C9B4E",
"U+	c #79C877",
"V+	c #8EDE88",
"W+	c #85DB7F",
"X+	c #78D571",
"Y+	c #6ACE63",
"Z+	c #41BB38",
"`+	c #31AE29",
" @	c #186A1A",
".@	c #1D6E21",
"+@	c #2AA028",
"@@	c #3BB833",
"#@	c #49BF41",
"$@	c #5CC457",
"%@	c #5BBC58",
"&@	c #5BB759",
"*@	c #63BA62",
"=@	c #77C975",
"-@	c #92DC8F",
";@	c #A3E99E",
">@	c #9DE798",
",@	c #90E18A",
"'@	c #83DA7D",
")@	c #75D46E",
"!@	c #3DB935",
"~@	c #2AA225",
"{@	c #155C19",
"]@	c #228325",
"^@	c #39B433",
"/@	c #63CB5C",
"(@	c #86DC80",
"_@	c #92E18C",
":@	c #8BDE85",
"<@	c #42BB3A",
"[@	c #34B52C",
"}@	c #218E1F",
"|@	c #145419",
"1@	c #29942B",
"2@	c #41B93A",
"3@	c #5AC752",
"4@	c #7AD674",
"5@	c #58C550",
"6@	c #41BB39",
"7@	c #2AAF21",
"8@	c #1A791B",
"9@	c #2A932B",
"0@	c #3EB639",
"a@	c #4BBF43",
"b@	c #53C34B",
"c@	c #5EC957",
"d@	c #5FC958",
"e@	c #5AC653",
"f@	c #51BF4A",
"g@	c #42AF3E",
"h@	c #30932F",
"i@	c #288C28",
"j@	c #2DAC26",
"k@	c #29B020",
"l@	c #25A81E",
"m@	c #1B6920",
"n@	c #228026",
"o@	c #2F9E2E",
"p@	c #3AB036",
"q@	c #41B73B",
"r@	c #44B93E",
"s@	c #44B73E",
"t@	c #40B13C",
"u@	c #39A436",
"v@	c #2D902E",
"w@	c #1B661E",
"x@	c #175A1A",
"y@	c #1F8B1E",
"z@	c #27AE1E",
"A@	c #229C1D",
"B@	c #165D19",
"C@	c #1A681F",
"D@	c #1D7222",
"E@	c #1F7823",
"F@	c #207923",
"G@	c #1F7422",
"H@	c #1B6C20",
"I@	c #18691C",
"J@	c #23A21E",
"K@	c #1E8A1D",
"L@	c #15561A",
"M@	c #15591B",
"N@	c #165F1B",
"O@	c #15551A",
"                .                                               ",
"                + @                                             ",
"                # $ %                                           ",
"              & * = -           ; > , ' ) ! ~                   ",
"              { ] ^ / ( _ : < [ } | 1 2 3 4 5 6 7               ",
"              8 9 0 a b c d e f g h h i j k l m n o             ",
"              p q r s t u v w x y z A B C D E F G H I           ",
"            J K r L F M N O P Q R S T U V W X Y Z `  .          ",
"            ..+.@.#.$.%.&.*.=.-.;.>.,.'.).!.~.Y #.@.{.].        ",
"            ^./.(._.M :.<.[.}.|.1.2.3.4.5.6.7.8.3 9.0.a.        ",
"            b.c.d.e.f.g.h.i.j.k.              l.m.n.o.p.        ",
"          q.r.s.9.t.F j X :.u.v.                  p.w.x.        ",
"      y.z.A.B.C.D.E.F.G.H.I.J.K.                  L.M.N.        ",
"      O.P.      Q.R.S.T.U.V.W.X.Y.                  Z.`. +      ",
"      O.O.            .+++@+#+$+%+                  &+*+=+      ",
"      -+;+                  >+,+'+)+                  !+~+      ",
"      ~+!+                  {+@ ,+]+                  ;+^+      ",
"      /+*+(+                  _+:+<+[+}+|+            y.y.      ",
"      : `.1+                  2+3+4+a 5+6+7+8+9+      0+y.      ",
"        N.M.~                   a+b+c+d+e+f+g+h+i+j+A.k+l+      ",
"        m+n+o+                  p+q+g Y r+s s+t+u+v+w+          ",
"        x+y+z+A+B+              C+D+x E+F+r+G+H+I+J+            ",
"        K+L+M+N+O+P+Q+R+R+3.S+T+U+V+W+X+Y+H.s Z+`+ @            ",
"        .@+@@@#@Z $@%@&@*@=@-@;@>@,@'@)@M r+@.!@~@{@            ",
"          ]@^@#@Z /@%.B (@Q T _@:@z C g H.d+<@[@}@|@            ",
"          I 1@2@(.3@j X w h.4@W :.v u 5@G+6@[@7@8@              ",
"            o 9@0@a@b@3@c@I.I.d@e@f@g@h@i@j@k@l@ @              ",
"              m@n@o@p@q@r@s@t@u@v@' w@x@_ y@z@A@B@              ",
"                  C@D@E@F@G@H@;           I@J@K@L@              ",
"                                          M@$ #                 ",
"                                            + N@                ",
"                                              O@                "};
