/* XPM */
static char * update_xpm[] = {
"29 29 428 2",
"  	c None",
". 	c #358835",
"+ 	c #499449",
"@ 	c #6CA96C",
"# 	c #94C394",
"$ 	c #A6CFA6",
"% 	c #96C396",
"& 	c #6DAA6D",
"* 	c #4B954B",
"= 	c #388938",
"- 	c #348B34",
"; 	c #3B8F3B",
"> 	c #59A459",
", 	c #7BBC7B",
"' 	c #90CB90",
") 	c #9AD49A",
"! 	c #9ED69E",
"~ 	c #9BD49B",
"{ 	c #90CC90",
"] 	c #7CBC7C",
"^ 	c #5BA55B",
"/ 	c #3D913D",
"( 	c #368C36",
"_ 	c #3A9039",
": 	c #5BA65A",
"< 	c #78BC78",
"[ 	c #87C987",
"} 	c #89CC89",
"| 	c #87CC87",
"1 	c #88CC88",
"2 	c #78BD78",
"3 	c #5CA75C",
"4 	c #3C913B",
"5 	c #66B764",
"6 	c #54B151",
"7 	c #4C984A",
"8 	c #6AB16A",
"9 	c #7ABE7A",
"0 	c #7EC27E",
"a 	c #7EC37E",
"b 	c #7ABF7A",
"c 	c #6BB36A",
"d 	c #4F9E4C",
"e 	c #3E963B",
"f 	c #288E24",
"g 	c #3F9E3D",
"h 	c #66B665",
"i 	c #34A230",
"j 	c #4F934C",
"k 	c #69AD68",
"l 	c #74B874",
"m 	c #74B974",
"n 	c #75BA75",
"o 	c #73B773",
"p 	c #6DB26D",
"q 	c #69AE69",
"r 	c #6AAF6A",
"s 	c #6EB36E",
"t 	c #73B873",
"u 	c #74BA74",
"v 	c #74BB74",
"w 	c #6BB26A",
"x 	c #56A453",
"y 	c #4EA14C",
"z 	c #65B064",
"A 	c #6FB76E",
"B 	c #319F2B",
"C 	c #438440",
"D 	c #61A35F",
"E 	c #6BB06B",
"F 	c #6BB16B",
"G 	c #65A965",
"H 	c #579B57",
"I 	c #468C46",
"J 	c #387E38",
"K 	c #307730",
"L 	c #327932",
"M 	c #3B843B",
"N 	c #499349",
"O 	c #5AA45A",
"P 	c #66B066",
"Q 	c #6BB46B",
"R 	c #6BB56B",
"S 	c #6CB46C",
"T 	c #69B269",
"U 	c #69B168",
"V 	c #6BB36B",
"W 	c #68B267",
"X 	c #319E2A",
"Y 	c #306D2B",
"Z 	c #539552",
"` 	c #61A761",
" .	c #62A862",
"..	c #60A560",
"+.	c #509450",
"@.	c #337933",
"#.	c #185F18",
"$.	c #085007",
"%.	c #044A04",
"&.	c #044903",
"*.	c #044A02",
"=.	c #045204",
"-.	c #0B5F0B",
";.	c #1F761F",
">.	c #3B913B",
",.	c #56A756",
"'.	c #60B060",
").	c #62B062",
"!.	c #62AE62",
"~.	c #62AC62",
"{.	c #5EAB5E",
"].	c #329D29",
"^.	c #286123",
"/.	c #3E7C3B",
"(.	c #559A55",
"_.	c #589F58",
":.	c #569C56",
"<.	c #438843",
"[.	c #216720",
"}.	c #0B520A",
"|.	c #064804",
"1.	c #074304",
"2.	c #084004",
"3.	c #083E05",
"4.	c #084104",
"5.	c #074804",
"6.	c #055503",
"7.	c #046503",
"8.	c #0F780E",
"9.	c #2C902C",
"0.	c #4BA84B",
"a.	c #57AE57",
"b.	c #58AD58",
"c.	c #58AB58",
"d.	c #58A858",
"e.	c #56A654",
"f.	c #339B28",
"g.	c #296023",
"h.	c #468744",
"i.	c #4F964F",
"j.	c #4F974F",
"k.	c #4E964E",
"l.	c #3E853E",
"m.	c #1C641C",
"n.	c #095007",
"o.	c #094A05",
"p.	c #0C4406",
"q.	c #0B4E05",
"r.	c #086104",
"s.	c #047603",
"t.	c #0B870B",
"u.	c #289A28",
"v.	c #47AB47",
"w.	c #4FAC4F",
"x.	c #4FA84F",
"y.	c #4FA44F",
"z.	c #4DA24C",
"A.	c #349B26",
"B.	c #1B4E13",
"C.	c #2E6729",
"D.	c #448A44",
"E.	c #468E46",
"F.	c #408740",
"G.	c #216921",
"H.	c #085107",
"I.	c #0A4D05",
"J.	c #0E5F08",
"K.	c #067F03",
"L.	c #029202",
"M.	c #119811",
"N.	c #36A836",
"O.	c #46AC46",
"P.	c #46A646",
"Q.	c #46A146",
"R.	c #449D42",
"S.	c #339725",
"T.	c #1A4B12",
"U.	c #2F6C2D",
"V.	c #3C853C",
"W.	c #2C752C",
"X.	c #0B550B",
"Y.	c #084D05",
"Z.	c #104F09",
"`.	c #105409",
" +	c #0C7807",
".+	c #07A106",
"++	c #0DAC0D",
"@+	c #1CAB1C",
"#+	c #33AE33",
"$+	c #3CAB3C",
"%+	c #3CA33C",
"&+	c #3B9A3B",
"*+	c #359134",
"=+	c #2D8D1F",
"-+	c #194912",
";+	c #2D6E2B",
">+	c #347D34",
",+	c #317A31",
"'+	c #1B661B",
")+	c #045103",
"!+	c #0A4E05",
"~+	c #0D7A08",
"{+	c #0EB60B",
"]+	c #18C917",
"^+	c #25C625",
"/+	c #2FBD2F",
"(+	c #33B233",
"_+	c #2FA42F",
":+	c #279427",
"<+	c #1F841F",
"[+	c #177616",
"}+	c #1F7D13",
"|+	c #154510",
"1+	c #266B26",
"2+	c #2B742B",
"3+	c #247124",
"4+	c #0E620E",
"5+	c #035802",
"6+	c #0B5106",
"7+	c #4A902D",
"8+	c #16840D",
"9+	c #0D920B",
"0+	c #139111",
"a+	c #188B15",
"b+	c #1A8518",
"c+	c #187C15",
"d+	c #147310",
"e+	c #116C0C",
"f+	c #0E6709",
"g+	c #0F6709",
"h+	c #18720E",
"i+	c #10410C",
"j+	c #1A6019",
"k+	c #1D691D",
"l+	c #1F6D1F",
"m+	c #196F19",
"n+	c #086908",
"o+	c #046202",
"p+	c #0C5706",
"q+	c #40712C",
"r+	c #17480F",
"s+	c #0D4107",
"t+	c #0E4207",
"u+	c #0E4308",
"v+	c #0F4509",
"w+	c #104809",
"x+	c #104D09",
"y+	c #125309",
"z+	c #135A0A",
"A+	c #15640C",
"B+	c #0B3C07",
"C+	c #064D05",
"D+	c #045504",
"E+	c #055F05",
"F+	c #056905",
"G+	c #017001",
"H+	c #057102",
"I+	c #0C6106",
"J+	c #0A3C05",
"K+	c #054D03",
"L+	c #005A00",
"M+	c #006500",
"N+	c #007000",
"O+	c #007B00",
"P+	c #048102",
"Q+	c #0D7107",
"R+	c #093E05",
"S+	c #085104",
"T+	c #016300",
"U+	c #006F00",
"V+	c #018500",
"W+	c #058B03",
"X+	c #108109",
"Y+	c #16710C",
"Z+	c #0A4106",
"`+	c #0B5205",
" @	c #046C02",
".@	c #007900",
"+@	c #008400",
"@@	c #038B01",
"#@	c #089004",
"$@	c #118F09",
"%@	c #1C870F",
"&@	c #0C5106",
"*@	c #086F04",
"=@	c #018101",
"-@	c #028A01",
";@	c #068F03",
">@	c #0C9206",
",@	c #13950A",
"'@	c #1E9510",
")@	c #278F15",
"!@	c #2A8516",
"~@	c #2C7717",
"{@	c #288414",
"]@	c #239812",
"^@	c #1D9D0F",
"/@	c #0E5507",
"(@	c #0D6C07",
"_@	c #068503",
":@	c #068E03",
"<@	c #0A9106",
"[@	c #119609",
"}@	c #17990C",
"|@	c #1F9D10",
"1@	c #289E15",
"2@	c #309919",
"3@	c #33931B",
"4@	c #328B1A",
"5@	c #2F8418",
"6@	c #2E8418",
"7@	c #318A1A",
"8@	c #31921A",
"9@	c #2C9C17",
"0@	c #26A014",
"a@	c #209F11",
"b@	c #1B9C0E",
"c@	c #116309",
"d@	c #0E8207",
"e@	c #0A9005",
"f@	c #0E9308",
"g@	c #15980C",
"h@	c #1C9C0F",
"i@	c #23A012",
"j@	c #2AA515",
"k@	c #30A918",
"l@	c #34AB1B",
"m@	c #33AB1B",
"n@	c #31AB19",
"o@	c #30AC19",
"p@	c #30AF19",
"q@	c #30AD19",
"r@	c #2FA918",
"s@	c #2BA616",
"t@	c #26A214",
"u@	c #1F9E11",
"v@	c #189A0D",
"w@	c #18780D",
"x@	c #168C0B",
"y@	c #14950B",
"z@	c #1A9B0E",
"A@	c #229F12",
"B@	c #29A415",
"C@	c #2EA918",
"D@	c #2EB017",
"E@	c #2BB816",
"F@	c #27C014",
"G@	c #24C512",
"H@	c #23C513",
"I@	c #25C114",
"J@	c #29BB15",
"K@	c #2DB417",
"L@	c #2EAC18",
"M@	c #2BA617",
"N@	c #25A213",
"O@	c #1F9D11",
"P@	c #1E9410",
"Q@	c #1B870E",
"R@	c #1F8410",
"S@	c #1F9310",
"T@	c #209D11",
"U@	c #2CA717",
"V@	c #2EAF18",
"W@	c #2AB916",
"X@	c #24C312",
"Y@	c #1FCC10",
"Z@	c #1BD20E",
"`@	c #1AD30E",
" #	c #1DCF10",
".#	c #22C712",
"+#	c #28BD15",
"@#	c #2DB317",
"##	c #2FAA18",
"$#	c #2CA517",
"%#	c #299A15",
"&#	c #238B13",
"*#	c #248813",
"=#	c #289915",
"-#	c #2DA317",
";#	c #30AB18",
">#	c #26C113",
",#	c #1ECC10",
"'#	c #18D70C",
")#	c #13DF0A",
"!#	c #12E009",
"~#	c #16DB0C",
"{#	c #1CD10F",
"]#	c #23C613",
"^#	c #2CB917",
"/#	c #33AC1B",
"(#	c #319D19",
"_#	c #278A14",
":#	c #238312",
"<#	c #2D9418",
"[#	c #36A71C",
"}#	c #32B81A",
"|#	c #25C613",
"1#	c #1BD30E",
"2#	c #12E00A",
"3#	c #0CEB06",
"4#	c #0BED05",
"5#	c #10E509",
"6#	c #1AD90E",
"7#	c #28CA16",
"8#	c #31B31A",
"9#	c #2E9718",
"0#	c #238012",
"a#	c #227F12",
"b#	c #248213",
"c#	c #2C9617",
"d#	c #2FAE19",
"e#	c #2BC316",
"f#	c #22D512",
"g#	c #1BE20E",
"h#	c #1BE10E",
"i#	c #23D012",
"j#	c #27B815",
"k#	c #249C13",
"l#	c #1F8510",
"m#	c #1F7E10",
"n#	c #1A760D",
"o#	c #18780C",
"p#	c #1E850F",
"q#	c #1F8C11",
"r#	c #1B880E",
"s#	c #15790B",
"t#	c #116D08",
"u#	c #116B08",
"                                                          ",
"                    . + @ # $ % & * =                     ",
"                - ; > , ' ) ! ~ { ] ^ / (                 ",
"              _ : < [ } | | | | | 1 [ 2 3 4         5 6   ",
"            7 8 9 0 a a a a a a a a a a b c d e f g h i   ",
"          j k l m m m n o p q r s t u v v u w x y z A B   ",
"        C D E F F E G H I J K L M N O P Q R S T U V W X   ",
"      Y Z `  . ...+.@.#.$.%.&.*.=.-.;.>.,.'.).).!.~.{.].  ",
"    ^./.(._._.:.<.[.}.|.1.2.3.4.5.6.7.8.9.0.a.b.c.d.e.f.  ",
"    g.h.i.j.k.l.m.n.o.p.          q.r.s.t.u.v.w.x.y.z.A.  ",
"  B.C.D.E.E.F.G.H.I.                J.K.L.M.N.O.P.Q.R.S.  ",
"  T.U.V.V.V.W.X.Y.Z.              `. +.+++@+#+$+%+&+*+=+  ",
"  -+;+>+>+,+'+)+!+                ~+{+]+^+/+(+_+:+<+[+}+  ",
"  |+1+2+2+3+4+5+6+              7+8+9+0+a+b+c+d+e+f+g+h+  ",
"  i+j+k+l+m+n+o+p+              q+r+s+t+u+v+w+x+y+z+A+    ",
"  B+C+D+E+F+G+H+I+                                        ",
"  J+K+L+M+N+O+P+Q+                                        ",
"  R+S+T+U+O+V+W+X+Y+                                      ",
"  Z+`+ @.@+@@@#@$@%@                                      ",
"    &@*@=@-@;@>@,@'@)@!@          ~@{@]@^@                ",
"    /@(@_@:@<@[@}@|@1@2@3@4@5@6@7@8@9@0@a@b@}@            ",
"      c@d@e@f@g@h@i@j@k@l@m@n@o@p@q@r@s@t@u@v@g@          ",
"        w@x@y@z@A@B@C@D@E@F@G@H@I@J@K@L@M@N@O@P@Q@        ",
"          R@S@T@t@U@V@W@X@Y@Z@`@ #.#+#@###$#%#&#          ",
"            *#=#-#;#K@>#,#'#)#!#~#{#]#^#/#(#_#            ",
"              :#<#[#}#|#1#2#3#4#5#6#7#8#9#0#              ",
"                a#b#c#d#e#f#g#h#i#j#k#l#m#                ",
"                      n#o#p#q#r#s#t#u#                    ",
"                                                          "};
