/* XPM */
static char * update_xpm[] = {
"33 33 534 2",
"  	c None",
". 	c #308430",
"+ 	c #469146",
"@ 	c #6AA56A",
"# 	c #97C297",
"$ 	c #A7CCA7",
"% 	c #99C299",
"& 	c #6CA66C",
"* 	c #489248",
"= 	c #328532",
"- 	c #1B791B",
"; 	c #288128",
"> 	c #569F56",
", 	c #83BD83",
"' 	c #9ACE9A",
") 	c #A6D8A6",
"! 	c #AADBAA",
"~ 	c #A7D8A7",
"{ 	c #9BCF9B",
"] 	c #84BE84",
"^ 	c #59A059",
"/ 	c #2A822A",
"( 	c #1C7A1C",
"_ 	c #217E20",
": 	c #358B34",
"< 	c #5FA85F",
"[ 	c #86C586",
"} 	c #91D091",
"| 	c #8CD08C",
"1 	c #8BCF8B",
"2 	c #8ACF8A",
"3 	c #8BD08B",
"4 	c #90D090",
"5 	c #87C687",
"6 	c #61AA61",
"7 	c #368C36",
"8 	c #238021",
"9 	c #79C278",
"0 	c #68BB65",
"a 	c #358A33",
"b 	c #509F4F",
"c 	c #76BA76",
"d 	c #84C784",
"e 	c #84C884",
"f 	c #83C883",
"g 	c #77BB77",
"h 	c #52A051",
"i 	c #388E35",
"j 	c #148810",
"k 	c #339C31",
"l 	c #6EBC6D",
"m 	c #299E25",
"n 	c #408A3D",
"o 	c #5DA35B",
"p 	c #7ABC7A",
"q 	c #7BBF7B",
"r 	c #7ABF7A",
"s 	c #7AC07A",
"t 	c #7BC07B",
"u 	c #7BBE7A",
"v 	c #5FA95D",
"w 	c #489A45",
"x 	c #258A20",
"y 	c #399836",
"z 	c #68B467",
"A 	c #73BC71",
"B 	c #1B9715",
"C 	c #3D813A",
"D 	c #5B9E59",
"E 	c #72B572",
"F 	c #72B772",
"G 	c #74B874",
"H 	c #6FB36F",
"I 	c #67AB67",
"J 	c #62A762",
"K 	c #63A863",
"L 	c #68AD68",
"M 	c #6FB46F",
"N 	c #72B872",
"O 	c #72B972",
"P 	c #73B873",
"Q 	c #63AC61",
"R 	c #54A351",
"S 	c #66AF65",
"T 	c #6DB66B",
"U 	c #1E9816",
"V 	c #2F6E2B",
"W 	c #51924E",
"X 	c #6AAD69",
"Y 	c #6BB06B",
"Z 	c #6AB06A",
"` 	c #68AC68",
" .	c #5CA05C",
"..	c #4A8E4A",
"+.	c #3A803A",
"@.	c #2D742D",
"#.	c #276E27",
"$.	c #286F28",
"%.	c #2F782F",
"&.	c #3B853B",
"*.	c #4C974C",
"=.	c #5EA95E",
"-.	c #67B167",
";.	c #6AB46A",
">.	c #6BB46B",
",.	c #6BB36B",
"'.	c #6BB26B",
").	c #65B063",
"!.	c #219818",
"~.	c #205B1A",
"{.	c #3F7D3B",
"].	c #61A561",
"^.	c #62A862",
"/.	c #63A963",
"(.	c #5B9F5B",
"_.	c #438743",
":.	c #266C26",
"<.	c #0D560D",
"[.	c #034C02",
"}.	c #024902",
"|.	c #034902",
"1.	c #024901",
"2.	c #024F01",
"3.	c #045704",
"4.	c #126912",
"5.	c #2B822B",
"6.	c #479B47",
"7.	c #5DAD5D",
"8.	c #62B162",
"9.	c #62B062",
"0.	c #62AF62",
"a.	c #62AD62",
"b.	c #62AC62",
"c.	c #5DAB5C",
"d.	c #249819",
"e.	c #296324",
"f.	c #51914F",
"g.	c #5AA15A",
"h.	c #5BA15B",
"i.	c #529752",
"j.	c #317731",
"k.	c #125A12",
"l.	c #054D04",
"m.	c #054603",
"n.	c #074204",
"o.	c #083F04",
"p.	c #083E05",
"q.	c #084004",
"r.	c #074504",
"s.	c #055003",
"t.	c #026001",
"u.	c #056C05",
"v.	c #187E18",
"w.	c #3B993B",
"x.	c #54AC54",
"y.	c #5AAF5A",
"z.	c #5AAD5A",
"A.	c #5AAC5A",
"B.	c #5AAA5A",
"C.	c #5AA85A",
"D.	c #56A654",
"E.	c #28981A",
"F.	c #1C5115",
"G.	c #3A7536",
"H.	c #519751",
"I.	c #529952",
"J.	c #4A904A",
"K.	c #2B722B",
"L.	c #0C550C",
"M.	c #054B03",
"N.	c #0A4705",
"O.	c #0D4107",
"P.	c #0B4A05",
"Q.	c #0A5405",
"R.	c #046B02",
"S.	c #037B03",
"T.	c #138813",
"U.	c #349F34",
"V.	c #4DAD4D",
"W.	c #52AD52",
"X.	c #52AA52",
"Y.	c #52A752",
"Z.	c #52A452",
"`.	c #4FA24C",
" +	c #2B991B",
".+	c #1F5217",
"++	c #448543",
"@+	c #4A924A",
"#+	c #478E47",
"$+	c #2F762F",
"%+	c #0C560C",
"&+	c #054D03",
"*+	c #0D4B07",
"=+	c #0C6107",
"-+	c #028301",
";+	c #028C02",
">+	c #149414",
",+	c #38A738",
"'+	c #4AAD4A",
")+	c #4AA94A",
"!+	c #4AA44A",
"~+	c #4AA14A",
"{+	c #479E44",
"]+	c #2D991C",
"^+	c #16480D",
"/+	c #255A20",
"(+	c #418841",
"_+	c #418A41",
":+	c #357D35",
"<+	c #145D14",
"[+	c #044D03",
"}+	c #0D4E07",
"|+	c #124E0A",
"1+	c #0D6C07",
"2+	c #039702",
"3+	c #029D02",
"4+	c #0D9C0D",
"5+	c #2DA82D",
"6+	c #40AD40",
"7+	c #41A741",
"8+	c #41A141",
"9+	c #419C41",
"0+	c #3F983C",
"a+	c #2E931C",
"b+	c #15430C",
"c+	c #296226",
"d+	c #398239",
"e+	c #388038",
"f+	c #216A21",
"g+	c #044F04",
"h+	c #074C04",
"i+	c #134F0A",
"j+	c #11460A",
"k+	c #0D6A07",
"l+	c #06A604",
"m+	c #09B909",
"n+	c #19B819",
"o+	c #29B629",
"p+	c #35B235",
"q+	c #39AC39",
"r+	c #39A539",
"s+	c #399D39",
"t+	c #339133",
"u+	c #2A8628",
"v+	c #288917",
"w+	c #133E0B",
"x+	c #286726",
"y+	c #327B32",
"z+	c #2C752C",
"A+	c #136013",
"B+	c #025201",
"C+	c #0A4F05",
"D+	c #0E6708",
"E+	c #09B807",
"F+	c #15D614",
"G+	c #23D223",
"H+	c #2ECA2E",
"I+	c #32C032",
"J+	c #33B433",
"K+	c #2EA62E",
"L+	c #249524",
"M+	c #198319",
"N+	c #107410",
"O+	c #0C6A0A",
"P+	c #1F7D11",
"Q+	c #103A09",
"R+	c #236522",
"S+	c #297329",
"T+	c #1F6E1F",
"U+	c #096009",
"V+	c #025A01",
"W+	c #0B5206",
"X+	c #619C3B",
"Y+	c #227F14",
"Z+	c #0A8707",
"`+	c #0F860C",
" @	c #12810F",
".@	c #147C10",
"+@	c #157712",
"@@	c #13710F",
"#@	c #0F6A0B",
"$@	c #0E6609",
"%@	c #0D6307",
"&@	c #0D6207",
"*@	c #106709",
"=@	c #1A740F",
"-@	c #0D3808",
";@	c #195D18",
">@	c #1D681D",
",@	c #1F6B1F",
"'@	c #207020",
")@	c #176F17",
"!@	c #056805",
"~@	c #036302",
"{@	c #0C5706",
"]@	c #4E7E35",
"^@	c #1E4B15",
"/@	c #0D3B07",
"(@	c #0D3D07",
"_@	c #0E3E07",
":@	c #0E3F07",
"<@	c #0F4208",
"[@	c #104508",
"}@	c #104909",
"|@	c #114F09",
"1@	c #13550A",
"2@	c #145D0B",
"3@	c #16680D",
"4@	c #0C3707",
"5@	c #074A06",
"6@	c #055205",
"7@	c #065806",
"8@	c #076207",
"9@	c #056A05",
"0@	c #016F01",
"a@	c #047002",
"b@	c #0C5E06",
"c@	c #0B3806",
"d@	c #074804",
"e@	c #005300",
"f@	c #005C00",
"g@	c #006700",
"h@	c #007000",
"i@	c #007A00",
"j@	c #048002",
"k@	c #0C6C06",
"l@	c #093A05",
"m@	c #0B4906",
"n@	c #005A00",
"o@	c #006500",
"p@	c #008300",
"q@	c #038A02",
"r@	c #0E7E08",
"s@	c #14680B",
"t@	c #083C05",
"u@	c #0E4907",
"v@	c #036301",
"w@	c #006E00",
"x@	c #007900",
"y@	c #028A01",
"z@	c #058E03",
"A@	c #0F8E08",
"B@	c #197D0D",
"C@	c #0C4606",
"D@	c #0A6705",
"E@	c #007600",
"F@	c #008100",
"G@	c #018901",
"H@	c #058E02",
"I@	c #099105",
"J@	c #0F9308",
"K@	c #1B910F",
"L@	c #238313",
"M@	c #0B4605",
"N@	c #0F6308",
"O@	c #037D02",
"P@	c #018700",
"Q@	c #048D02",
"R@	c #089004",
"S@	c #0D9307",
"T@	c #129609",
"U@	c #1A9A0E",
"V@	c #269814",
"W@	c #2B8C16",
"X@	c #297F16",
"Y@	c #2F7719",
"Z@	c #297615",
"`@	c #289014",
" #	c #209C11",
".#	c #1C9D0F",
"+#	c #105908",
"@#	c #0C7D06",
"##	c #048C01",
"$#	c #078F04",
"%#	c #0C9207",
"&#	c #119609",
"*#	c #17990C",
"=#	c #1D9D0F",
"-#	c #23A012",
";#	c #2EA318",
">#	c #359C1B",
",#	c #34921B",
"'#	c #31891A",
")#	c #2F8418",
"!#	c #2E8318",
"~#	c #30881A",
"{#	c #34941B",
"]#	c #31A119",
"^#	c #2AA416",
"/#	c #25A213",
"(#	c #1F9F11",
"_#	c #1B9C0E",
":#	c #105508",
"<#	c #13710A",
"[#	c #0C8D06",
"}#	c #0A9105",
"|#	c #0F9408",
"1#	c #15980C",
"2#	c #1B9C0F",
"3#	c #229F12",
"4#	c #27A314",
"5#	c #2DA716",
"6#	c #32AB1A",
"7#	c #35AE1B",
"8#	c #33AE1B",
"9#	c #32AE19",
"0#	c #31AF1A",
"a#	c #31B219",
"b#	c #30B119",
"c#	c #2FAC19",
"d#	c #2FA818",
"e#	c #2AA516",
"f#	c #1F9E11",
"g#	c #199B0D",
"h#	c #16690C",
"i#	c #18810D",
"j#	c #139209",
"k#	c #13960A",
"l#	c #199A0E",
"m#	c #209E11",
"n#	c #26A214",
"o#	c #2CA617",
"p#	c #2FAB18",
"q#	c #2EB217",
"r#	c #2BB916",
"s#	c #27BF14",
"t#	c #25C313",
"u#	c #24C313",
"v#	c #26C114",
"w#	c #28BC15",
"x#	c #2CB617",
"y#	c #2FAF18",
"z#	c #2EA918",
"A#	c #24A113",
"B#	c #1E9D10",
"C#	c #1E9A10",
"D#	c #1B880E",
"E#	c #1E7810",
"F#	c #1E8A10",
"G#	c #1C980E",
"H#	c #1D9C0F",
"I#	c #23A013",
"J#	c #2FAA18",
"K#	c #2EB118",
"L#	c #29BB15",
"M#	c #24C312",
"N#	c #20CB10",
"O#	c #1DCF0F",
"P#	c #1CD00F",
"Q#	c #1ECE10",
"R#	c #21C812",
"S#	c #26C014",
"T#	c #2CB717",
"U#	c #2FAE18",
"V#	c #2EA718",
"W#	c #28A415",
"X#	c #28A015",
"Y#	c #269214",
"Z#	c #1E8110",
"`#	c #237F12",
" $	c #268F14",
".$	c #279F15",
"+$	c #2DA717",
"@$	c #30AE18",
"#$	c #2BB816",
"$$	c #1ECC10",
"%$	c #19D50D",
"&$	c #15DB0B",
"*$	c #15DC0B",
"=$	c #17D90D",
"-$	c #1BD20F",
";$	c #21C911",
">$	c #27BE15",
",$	c #2DB318",
"'$	c #31AB19",
")$	c #34A61B",
"!$	c #2D9417",
"~$	c #228312",
"{$	c #227F12",
"]$	c #2A8E16",
"^$	c #34A11B",
"/$	c #34AA1B",
"($	c #2FB218",
"_$	c #28BD14",
":$	c #20C911",
"<$	c #1AD40E",
"[$	c #13DF0A",
"}$	c #0FE708",
"|$	c #0DE906",
"1$	c #10E409",
"2$	c #16DB0C",
"3$	c #1CD010",
"4$	c #25C514",
"5$	c #32B91A",
"6$	c #3AA71E",
"7$	c #2D8D17",
"8$	c #207C11",
"9$	c #1B770E",
"0$	c #238112",
"a$	c #37991D",
"b$	c #3EB120",
"c$	c #2FC219",
"d$	c #20CE11",
"e$	c #17D90C",
"f$	c #0FE508",
"g$	c #09F005",
"h$	c #07F303",
"i$	c #0CEB06",
"j$	c #15E10B",
"k$	c #26D514",
"l$	c #36C01D",
"m$	c #329E1A",
"n$	c #217E11",
"o$	c #18700C",
"p$	c #156D0B",
"q$	c #2F8F18",
"r$	c #37AA1D",
"s$	c #34BF1B",
"t$	c #2BD016",
"u$	c #24DB13",
"v$	c #25DB14",
"w$	c #2ECA18",
"x$	c #31B11A",
"y$	c #279115",
"z$	c #17760C",
"A$	c #116D09",
"B$	c #0B5F06",
"C$	c #116608",
"D$	c #1B6F0E",
"E$	c #1E7410",
"F$	c #1A700D",
"G$	c #0E6407",
"H$	c #085D04",
"I$	c #075A03",
"                                                                  ",
"                        . + @ # $ % & * =                         ",
"                    - ; > , ' ) ! ~ { ] ^ / (                     ",
"                _ : < [ } | 1 2 2 2 2 3 4 5 6 7 8           9 0   ",
"              a b c d e f f f f f f f f f e d g h i     j k l m   ",
"            n o p q r r r r r r r r r r r s s t u v w x y z A B   ",
"          C D E F F F F F G H I J K L M N O O O O P Q R S P T U   ",
"        V W X Y Z Z Z `  ...+.@.#.$.%.&.*.=.-.;.;.>.>.,.,.'.).!.  ",
"      ~.{.].^.^.^./.(._.:.<.[.}.|.1.2.3.4.5.6.7.8.9.9.0.a.b.c.d.  ",
"      e.f.g.g.g.h.i.j.k.l.m.n.o.p.q.r.s.t.u.v.w.x.y.z.A.B.C.D.E.  ",
"    F.G.H.I.I.I.J.K.L.M.N.O.          P.Q.R.S.T.U.V.W.X.Y.Z.`. +  ",
"    .+++@+@+@+#+$+%+&+*+                  =+-+;+>+,+'+)+!+~+{+]+  ",
"  ^+/+(+_+_+_+:+<+[+}+                  |+1+2+3+4+5+6+7+8+9+0+a+  ",
"  b+c+d+d+d+e+f+g+h+i+                j+k+l+m+n+o+p+q+r+s+t+u+v+  ",
"  w+x+y+y+y+z+A+B+C+                  D+E+F+G+H+I+J+K+L+M+N+O+P+  ",
"  Q+R+S+S+S+T+U+V+W+                X+Y+Z+`+ @.@+@@@#@$@%@&@*@=@  ",
"  -@;@>@,@'@)@!@~@{@                ]@^@/@(@_@:@<@[@}@|@1@2@3@    ",
"  4@5@6@7@8@9@0@a@b@                                              ",
"  c@d@e@f@g@h@i@j@k@                                              ",
"  l@m@n@o@h@i@p@q@r@s@                                            ",
"  t@u@v@w@x@p@y@z@A@B@                                            ",
"    C@D@E@F@G@H@I@J@K@L@                                          ",
"    M@N@O@P@Q@R@S@T@U@V@W@X@          Y@Z@`@ #.#                  ",
"      +#@###$#%#&#*#=#-#;#>#,#'#)#!#~#{#]#^#/#(#_#*#              ",
"      :#<#[#}#|#1#2#3#4#5#6#7#8#9#0#a#b#c#d#e#/#f#g#1#            ",
"        h#i#j#k#l#m#n#o#p#q#r#s#t#u#v#w#x#y#z#^#A#B#C#D#          ",
"          E#F#G#H#I#e#J#K#L#M#N#O#P#Q#R#S#T#U#V#W#X#Y#Z#          ",
"            `# $.$4#+$@$#$M#$$%$&$*$=$-$;$>$,$'$)$!$~$            ",
"              {$]$^$/$($_$:$<$[$}$|$1$2$3$4$5$6$7$8$              ",
"                9$0$a$b$c$d$e$f$g$h$i$j$k$l$m$n$o$                ",
"                    p$E#q$r$s$t$u$v$w$x$y$z$A$                    ",
"                          B$C$D$E$F$G$H$I$                        ",
"                                                                  "};
