/* XPM */
static const char * wheeledBase_xpm[] = {
"16 16 72 1",
" 	c None",
".	c #4C4C4B",
"+	c #000001",
"@	c #292950",
"#	c #242448",
"$	c #232348",
"%	c #000003",
"&	c #3E3E3E",
"*	c #1A1A1C",
"=	c #3B3B6E",
"-	c #6D6DD1",
";	c #6E6ED4",
">	c #43437D",
",	c #151518",
"'	c #2C2C52",
")	c #8080FD",
"!	c #8080FE",
"~	c #2E2E56",
"{	c #252524",
"]	c #6060BC",
"^	c #6A6ACF",
"/	c #1D1D1D",
"(	c #212136",
"_	c #232340",
":	c #000000",
"<	c #0D0D0D",
"[	c #09090A",
"}	c #070707",
"|	c #282826",
"1	c #252547",
"2	c #28284D",
"3	c #1E1E1D",
"4	c #020202",
"5	c #565656",
"6	c #010101",
"7	c #111114",
"8	c #1B1B34",
"9	c #6767CA",
"0	c #8383FF",
"a	c #6969CF",
"b	c #1C1C38",
"c	c #1A1A1D",
"d	c #090909",
"e	c #2A2A4D",
"f	c #8585FF",
"g	c #8282FF",
"h	c #8080FF",
"i	c #8181FF",
"j	c #8686FF",
"k	c #3A3A5F",
"l	c #33335C",
"m	c #7F7FFE",
"n	c #42426E",
"o	c #272749",
"p	c #6868CF",
"q	c #6666CD",
"r	c #6464C9",
"s	c #6464C8",
"t	c #6666CC",
"u	c #37375A",
"v	c #1B1B1D",
"w	c #04040A",
"x	c #06060C",
"y	c #15151E",
"z	c #14141E",
"A	c #0B0B10",
"B	c #05050A",
"C	c #19191B",
"D	c #2E2E2E",
"E	c #101010",
"F	c #0C0C0C",
"G	c #131313",
"                ",
"    .+@#$@%&    ",
"     *=-;>,     ",
"      ')!~      ",
"      {]^/      ",
"       (_       ",
"    ::<::[::}   ",
"   : |:12:3 45  ",
"   678900abc d  ",
"    efghhijk    ",
"    limhhmin    ",
"    opqrstpu    ",
"    vwxyzABC    ",
"    :::/D::E    ",
"    F::  6:G    ",
"     ::  ::     "};
