/* XPM */
static const char * wheeledBaseSelect_xpm[] = {
"16 16 98 2",
"  	c None",
". 	c #140CFF",
"+ 	c #130BFF",
"@ 	c #1C14F2",
"# 	c #FFFFFF",
"$ 	c #1C15F2",
"% 	c #1109FF",
"& 	c #434199",
"* 	c #1C1D10",
"= 	c #44445C",
"- 	c #3F3F54",
"; 	c #3E3F54",
"> 	c #1C1D12",
", 	c #49469F",
"' 	c #1A1A14",
") 	c #3B3B6E",
"! 	c #6D6DD1",
"~ 	c #6E6ED4",
"{ 	c #42427C",
"] 	c #1F1F1A",
"^ 	c #130AFF",
"/ 	c #140CFE",
"( 	c #0F07FF",
"_ 	c #2D2D4A",
": 	c #8080FD",
"< 	c #7F7FFE",
"[ 	c #313151",
"} 	c #413CC6",
"| 	c #130BFE",
"1 	c #2A285A",
"2 	c #6161BB",
"3 	c #6A6ACE",
"4 	c #2C2B5E",
"5 	c #24243E",
"6 	c #282848",
"7 	c #3A3793",
"8 	c #27245C",
"9 	c #282663",
"0 	c #37356F",
"a 	c #040406",
"b 	c #030305",
"c 	c #292762",
"d 	c #29285B",
"e 	c #2A285F",
"f 	c #120AFF",
"g 	c #1008FF",
"h 	c #1D1E1E",
"i 	c #62647D",
"j 	c #030300",
"k 	c #242447",
"l 	c #27274D",
"m 	c #040400",
"n 	c #595788",
"o 	c #3A3878",
"p 	c #413E8E",
"q 	c #1007FF",
"r 	c #292A39",
"s 	c #16162E",
"t 	c #6666CA",
"u 	c #8383FF",
"v 	c #6868CE",
"w 	c #181831",
"x 	c #191838",
"y 	c #282826",
"z 	c #3F3BB3",
"A 	c #393A54",
"B 	c #8585FF",
"C 	c #8282FF",
"D 	c #8080FF",
"E 	c #8181FF",
"F 	c #8686FF",
"G 	c #3B3B57",
"H 	c #150DFF",
"I 	c #434363",
"J 	c #444469",
"K 	c #39394F",
"L 	c #6868CF",
"M 	c #6666CD",
"N 	c #6565C7",
"O 	c #6566C7",
"P 	c #6666CC",
"Q 	c #393954",
"R 	c #23224C",
"S 	c #04040A",
"T 	c #090A09",
"U 	c #221F87",
"V 	c #18148B",
"W 	c #111115",
"X 	c #05050A",
"Y 	c #1C1B38",
"Z 	c #131325",
"` 	c #000000",
" .	c #3E3B88",
"..	c #3E3C87",
"+.	c #151427",
"@.	c #1B1A2F",
"#.	c #000100",
"$.	c #19182B",
". . . + @ # # # # # # $ + . . . ",
". . . % & * = - ; = > , % . . . ",
". . . + # ' ) ! ~ { ] # ^ . . . ",
". . . / ( # _ : < [ } # / . . . ",
". . . . | # 1 2 3 4 # | . . . . ",
". . # # # # # 5 6 # # # # + / . ",
". / # 7 8 9 0 a b 0 c d e # f . ",
". g # h # i j k l m n # o p # / ",
". q # # r s t u u v w x # y # + ",
". g z # A B C D D E F G # # # + ",
". | H # I E < D D < E J # H | / ",
". . . # K L M N O P L Q # . . . ",
". . . # R S T U V W X Y # . . . ",
". . . # Z ` `  ...` ` +.# . . . ",
". . . # @.` ` # # #.` $.# . . . ",
". . . . # ` ` # # ` ` # H . . . "};
