/* XPM */
static const char * world_xpm[] = {
"16 16 122 2",
"  	c None",
". 	c #C2D4FB",
"+ 	c #8AA7F8",
"@ 	c #8CABF6",
"# 	c #92B2EF",
"$ 	c #99B6EF",
"% 	c #B6CAFD",
"& 	c #8CAAF6",
"* 	c #5D8CE7",
"= 	c #93C7C3",
"- 	c #8DBFC9",
"; 	c #BEEFB1",
"> 	c #BDEDB3",
", 	c #6B9DDA",
"' 	c #82A4F1",
") 	c #769BF0",
"! 	c #6F9EDF",
"~ 	c #7AA7D4",
"{ 	c #8CC2C4",
"] 	c #82B1D3",
"^ 	c #C1F0B4",
"/ 	c #C5F3B4",
"( 	c #7FAFD4",
"_ 	c #618CEF",
": 	c #7098EA",
"< 	c #80A7E6",
"[ 	c #73A2DE",
"} 	c #93C6C2",
"| 	c #91C4C4",
"1 	c #98CDBE",
"2 	c #7BAAD8",
"3 	c #9ECEC4",
"4 	c #C4F4B1",
"5 	c #6995E6",
"6 	c #628DEF",
"7 	c #6D99E6",
"8 	c #8DB0E9",
"9 	c #97C7CB",
"0 	c #CCFBAE",
"a 	c #C4F2B3",
"b 	c #C4F2B4",
"c 	c #8AB8D0",
"d 	c #8DC3C4",
"e 	c #92C1CC",
"f 	c #77A5DB",
"g 	c #72A1DD",
"h 	c #6995E7",
"i 	c #B3E5B2",
"j 	c #97C9C7",
"k 	c #B8CBFC",
"l 	c #86A4F3",
"m 	c #6C96E4",
"n 	c #6A97E5",
"o 	c #C0F1B2",
"p 	c #93C6C4",
"q 	c #BEEEB2",
"r 	c #6897E6",
"s 	c #618CF0",
"t 	c #6590EB",
"u 	c #86BCC9",
"v 	c #A8DBBB",
"w 	c #C3F2B3",
"x 	c #638DEE",
"y 	c #6F97EE",
"z 	c #A0CBC5",
"A 	c #C9F6B2",
"B 	c #8FC1CB",
"C 	c #6792E9",
"D 	c #9AC6C9",
"E 	c #A4D3BE",
"F 	c #B0E3B3",
"G 	c #90AFF5",
"H 	c #91AFF4",
"I 	c #6A98E4",
"J 	c #B2E4B6",
"K 	c #8BB9CE",
"L 	c #5F89F1",
"M 	c #7CA9DC",
"N 	c #C6F2B1",
"O 	c #ABDDBD",
"P 	c #A7DABD",
"Q 	c #6992EE",
"R 	c #648DEF",
"S 	c #6692EB",
"T 	c #77A7D9",
"U 	c #98CAC4",
"V 	c #6C98E4",
"W 	c #618BF0",
"X 	c #82B1D6",
"Y 	c #B8E7B8",
"Z 	c #C6F4B4",
"` 	c #93C0CC",
" .	c #CDDAFC",
"..	c #8DAAF4",
"+.	c #608CEF",
"@.	c #6A95E6",
"#.	c #C3F1B5",
"$.	c #C3F3B3",
"%.	c #7DABD9",
"&.	c #608AF1",
"*.	c #5A85F4",
"=.	c #B6E8B4",
"-.	c #7FA6E5",
";.	c #8AAAF3",
">.	c #5E8AEE",
",.	c #A0CFC4",
"'.	c #ABDDB9",
").	c #6490ED",
"!.	c #608BEF",
"~.	c #8AB3E0",
"{.	c #93B1F5",
"].	c #628CEF",
"^.	c #5A87EE",
"/.	c #97CDBC",
"(.	c #6490E9",
"_.	c #5B88EE",
":.	c #5D89EF",
"<.	c #8FAEF4",
"[.	c #9CB7F8",
"}.	c #6C97E8",
"|.	c #658FEC",
"1.	c #97B3F8",
"                                ",
"                                ",
"          . + @ # $ %           ",
"        & * = - ; > , '         ",
"      ) ! ~ { ] ^ / ( _ :       ",
"    < [ } | 1 2 3 4 5 6 7 8     ",
"    9 0 a b c d e f g h i j k   ",
"  l m n o / p q r s t u v w x   ",
"  y 6 6 z / A B C 6 t D E F G   ",
"  H 6 6 I J K L 6 6 M N O P Q   ",
"    R 6 6 S T U V W X Y Z `  .  ",
"    ..+.6 6 @.#.$.%.&.*.=.-.    ",
"      ;.>.6 s ,.'.).6 !.~.      ",
"        {.].^./.(._.:.<.        ",
"            [.}.|.1.            ",
"                                "};
