/* XPM */
static const char * worldSelect_xpm[] = {
"16 16 110 2",
"  	c None",
". 	c #140CFF",
"+ 	c #425FDE",
"@ 	c #3E58E0",
"# 	c #4868D6",
"$ 	c #4765D8",
"% 	c #5073E7",
"& 	c #5D8CE7",
"* 	c #93C7C3",
"= 	c #8DBFC9",
"- 	c #BEEFB1",
"; 	c #BDEDB3",
"> 	c #6B9DDA",
", 	c #4D73E5",
"' 	c #577AE5",
") 	c #6F9EDF",
"! 	c #7AA7D4",
"~ 	c #8CC2C4",
"{ 	c #82B1D3",
"] 	c #C1F0B4",
"^ 	c #C5F3B4",
"/ 	c #7FAFD4",
"( 	c #618CEF",
"_ 	c #587CDF",
": 	c #5873D6",
"< 	c #73A2DE",
"[ 	c #93C6C2",
"} 	c #91C4C4",
"| 	c #98CDBE",
"1 	c #7BAAD8",
"2 	c #9ECEC4",
"3 	c #C4F4B1",
"4 	c #6995E6",
"5 	c #628DEF",
"6 	c #6D99E6",
"7 	c #5980DC",
"8 	c #87B8CE",
"9 	c #CCFBAE",
"0 	c #C4F2B3",
"a 	c #C4F2B4",
"b 	c #8AB8D0",
"c 	c #8DC3C4",
"d 	c #92C1CC",
"e 	c #77A5DB",
"f 	c #72A1DD",
"g 	c #6995E7",
"h 	c #B3E5B2",
"i 	c #97C9C7",
"j 	c #5F8CE9",
"k 	c #6A97E5",
"l 	c #C0F1B2",
"m 	c #93C6C4",
"n 	c #BEEEB2",
"o 	c #6897E6",
"p 	c #618CF0",
"q 	c #6590EB",
"r 	c #86BCC9",
"s 	c #A8DBBB",
"t 	c #C3F2B3",
"u 	c #516ADD",
"v 	c #A0CBC5",
"w 	c #C9F6B2",
"x 	c #8FC1CB",
"y 	c #6792E9",
"z 	c #9AC6C9",
"A 	c #A4D3BE",
"B 	c #B0E3B3",
"C 	c #506ADE",
"D 	c #6A98E4",
"E 	c #B2E4B6",
"F 	c #8BB9CE",
"G 	c #5F89F1",
"H 	c #7CA9DC",
"I 	c #C6F2B1",
"J 	c #ABDDBD",
"K 	c #A7DABD",
"L 	c #4864DD",
"M 	c #587BE6",
"N 	c #6692EB",
"O 	c #77A7D9",
"P 	c #98CAC4",
"Q 	c #6C98E4",
"R 	c #618BF0",
"S 	c #82B1D6",
"T 	c #B8E7B8",
"U 	c #C6F4B4",
"V 	c #93C0CC",
"W 	c #608CEF",
"X 	c #6A95E6",
"Y 	c #C3F1B5",
"Z 	c #C3F3B3",
"` 	c #7DABD9",
" .	c #608AF1",
"..	c #5A85F4",
"+.	c #B6E8B4",
"@.	c #5A75D5",
"#.	c #1A16F9",
"$.	c #5E8AEE",
"%.	c #A0CFC4",
"&.	c #ABDDB9",
"*.	c #6490ED",
"=.	c #608BEF",
"-.	c #6991D4",
";.	c #5280ED",
">.	c #5A87EE",
",.	c #97CDBC",
"'.	c #6490E9",
").	c #5B88EE",
"!.	c #5076E5",
"~.	c #4260DD",
". . . . . . . . . . . . . . . . ",
". . . . . . + @ # $ . . . . . . ",
". . . . % & * = - ; > , . . . . ",
". . . ' ) ! ~ { ] ^ / ( _ . . . ",
". . : < [ } | 1 2 3 4 5 6 7 . . ",
". . 8 9 0 a b c d e f g h i . . ",
". . j k l ^ m n o p q r s t u . ",
". . 5 5 v ^ w x y 5 q z A B C . ",
". . 5 5 D E F G 5 5 H I J K L . ",
". . M 5 5 N O P Q R S T U V . . ",
". . . W 5 5 X Y Z `  ...+.@.. . ",
". . . #.$.5 p %.&.*.5 =.-.. . . ",
". . . . . ;.>.,.'.).!.. . . . . ",
". . . . . . ~.~.~.~.. . . . . . ",
". . . . . . . . . . . . . . . . ",
". . . . . . . . . . . . . . . . "};
