/* XPM */
static char * xml_xpm[] = {
"38 38 502 2",
"  	c None",
". 	c #DFDFDF",
"+ 	c #E0E0E0",
"@ 	c #E1E1E1",
"# 	c #E2E2E2",
"$ 	c #E3E3E3",
"% 	c #E4E4E4",
"& 	c #DEDEDE",
"* 	c #DDDDDD",
"= 	c #D7D7D7",
"- 	c #F0F0F0",
"; 	c #F5F5F5",
"> 	c #F6F6F6",
", 	c #F7F7F7",
"' 	c #F9F9F9",
") 	c #FBFBFB",
"! 	c #FDFDFD",
"~ 	c #FEFEFE",
"{ 	c #FFFFFF",
"] 	c #FCFCFC",
"^ 	c #FAFAFA",
"/ 	c #F3F3F3",
"( 	c #F1F1F1",
"_ 	c #EFEFEF",
": 	c #ECECEC",
"< 	c #D6D6D6",
"[ 	c #F4F4F4",
"} 	c #F8F8F8",
"| 	c #BFD1DC",
"1 	c #73C2C4",
"2 	c #42BFB7",
"3 	c #2EBABA",
"4 	c #2EB1C3",
"5 	c #439DCA",
"6 	c #74ACD1",
"7 	c #C0D1DE",
"8 	c #EEEEEE",
"9 	c #C4DAD7",
"0 	c #33A975",
"a 	c #00A674",
"b 	c #00C49A",
"c 	c #00BAAC",
"d 	c #00B2D4",
"e 	c #00CCDB",
"f 	c #00ACDA",
"g 	c #008CDB",
"h 	c #008CC5",
"i 	c #34ADA1",
"j 	c #C6D9DD",
"k 	c #8EB8C0",
"l 	c #04AA4F",
"m 	c #00BE49",
"n 	c #00B6A1",
"o 	c #00BCB7",
"p 	c #00C8B8",
"q 	c #00C2EB",
"r 	c #02D8E7",
"s 	c #00B0E8",
"t 	c #00A1D5",
"u 	c #0093DF",
"v 	c #009BCB",
"w 	c #048AA6",
"x 	c #8EC5B1",
"y 	c #F2F2F2",
"z 	c #EDEDED",
"A 	c #8CB1C5",
"B 	c #009C4E",
"C 	c #00BB41",
"D 	c #00BA4F",
"E 	c #01C3CC",
"F 	c #01D2A5",
"G 	c #01D4BD",
"H 	c #01D5FA",
"I 	c #01CBF5",
"J 	c #01BFF3",
"K 	c #01ADEA",
"L 	c #0191DD",
"M 	c #008EC6",
"N 	c #00939D",
"O 	c #00C25B",
"P 	c #8CC3AE",
"Q 	c #BBC8D7",
"R 	c #028C53",
"S 	c #00B63B",
"T 	c #00B742",
"U 	c #01C17C",
"V 	c #01D3B1",
"W 	c #01DFC6",
"X 	c #02E0DF",
"Y 	c #02DCF1",
"Z 	c #01DCFF",
"` 	c #01C4F5",
" .	c #01A6E5",
"..	c #018FDA",
"+.	c #0178D2",
"@.	c #0173BC",
"#.	c #00B179",
"$.	c #037C91",
"%.	c #BBC4D4",
"&.	c #F6F7F7",
"*.	c #256C7C",
"=.	c #00B833",
"-.	c #00C13C",
";.	c #01BF47",
">.	c #01CA83",
",.	c #01DCC4",
"'.	c #02E2DC",
").	c #03E5FB",
"!.	c #02E5FC",
"~.	c #02DCFE",
"{.	c #02C4F4",
"].	c #02A9E6",
"^.	c #0292DB",
"/.	c #017BD1",
"(.	c #0175C0",
"_.	c #01B385",
":.	c #00429B",
"<.	c #274C8F",
"[.	c #A7B4C9",
"}.	c #00605E",
"|.	c #00B02A",
"1.	c #01AC34",
"2.	c #01B748",
"3.	c #01D276",
"4.	c #02DEE3",
"5.	c #02E6FF",
"6.	c #02E7FF",
"7.	c #02E3FF",
"8.	c #02D6FD",
"9.	c #02C0F2",
"0.	c #02A7E5",
"a.	c #0291DA",
"b.	c #027BD1",
"c.	c #0164CA",
"d.	c #0170A9",
"e.	c #01BE76",
"f.	c #00A25A",
"g.	c #ABC6C1",
"h.	c #576FA5",
"i.	c #00565C",
"j.	c #00972F",
"k.	c #01924D",
"l.	c #01B04E",
"m.	c #02BEB9",
"n.	c #02D5FB",
"o.	c #02DDFE",
"p.	c #02DEFE",
"q.	c #03D8FD",
"r.	c #03CCF7",
"s.	c #03B7ED",
"t.	c #03A1E3",
"u.	c #028DD8",
"v.	c #0277D0",
"w.	c #0260C8",
"x.	c #0176A4",
"y.	c #01C663",
"z.	c #00B94D",
"A.	c #59B28D",
"B.	c #233F8A",
"C.	c #004F58",
"D.	c #016671",
"E.	c #0161C2",
"F.	c #0196B8",
"G.	c #02AEEB",
"H.	c #02BFF1",
"I.	c #03C9F5",
"J.	c #03CBF6",
"K.	c #03C6F4",
"L.	c #03BDEF",
"M.	c #03AAE8",
"N.	c #0398DF",
"O.	c #0386D6",
"P.	c #0372CE",
"Q.	c #0259C6",
"R.	c #028F89",
"S.	c #01BB51",
"T.	c #00BD49",
"U.	c #24A368",
"V.	c #0B267A",
"W.	c #004060",
"X.	c #01517F",
"Y.	c #015CAB",
"Z.	c #0280C0",
"`.	c #0296E1",
" +	c #03A6E6",
".+	c #03AFEA",
"++	c #03B2EB",
"@+	c #03A7E7",
"#+	c #039BE2",
"$+	c #038CDB",
"%+	c #037BD3",
"&+	c #0368CC",
"*+	c #024EC3",
"=+	c #029E81",
"-+	c #01BD5C",
";+	c #01AE3D",
">+	c #0B8849",
",+	c #F5F6F6",
"'+	c #082275",
")+	c #00177B",
"!+	c #015762",
"~+	c #01608F",
"{+	c #0269C7",
"]+	c #0283C7",
"^+	c #0393D2",
"/+	c #0395DF",
"(+	c #039AE2",
"_+	c #049AE2",
":+	c #0495E0",
"<+	c #048BDB",
"[+	c #047FD6",
"}+	c #0470D0",
"|+	c #035BC8",
"1+	c #0344BF",
"2+	c #02817F",
"3+	c #029D3D",
"4+	c #018E2B",
"5+	c #087441",
"6+	c #1A337E",
"7+	c #00137A",
"8+	c #01238E",
"9+	c #015F7F",
"0+	c #0254C5",
"a+	c #0265CD",
"b+	c #0372CF",
"c+	c #037CD4",
"d+	c #0482D8",
"e+	c #0484D9",
"f+	c #0480D7",
"g+	c #0479D4",
"h+	c #0461CA",
"i+	c #044DC2",
"j+	c #033FBA",
"k+	c #025D96",
"l+	c #028D3A",
"m+	c #017046",
"n+	c #1A656D",
"o+	c #455D96",
"p+	c #00167D",
"q+	c #01218E",
"r+	c #013B9F",
"s+	c #02569E",
"t+	c #03718A",
"u+	c #037B93",
"v+	c #0474BD",
"w+	c #046DCF",
"x+	c #046FD0",
"y+	c #056ECF",
"z+	c #0569CD",
"A+	c #055ECA",
"B+	c #0451C4",
"C+	c #0447BD",
"D+	c #0342B5",
"E+	c #033EAD",
"F+	c #024E8E",
"G+	c #01378E",
"H+	c #477497",
"I+	c #8C9AB8",
"J+	c #001F84",
"K+	c #01228D",
"L+	c #012DA3",
"M+	c #024888",
"N+	c #038731",
"O+	c #03833B",
"P+	c #04A348",
"Q+	c #048889",
"R+	c #056AB8",
"S+	c #055AC7",
"T+	c #0557C6",
"U+	c #0553C3",
"V+	c #054FBE",
"W+	c #044BB8",
"X+	c #0346B0",
"Y+	c #0342A7",
"Z+	c #023B9B",
"`+	c #013D95",
" @	c #90A0BB",
".@	c #E5E7EA",
"+@	c #0E3286",
"@@	c #00218C",
"#@	c #012C9C",
"$@	c #026453",
"%@	c #02672D",
"&@	c #037335",
"*@	c #04853D",
"=@	c #048E44",
"-@	c #059751",
";@	c #0560B4",
">@	c #0556C0",
",@	c #0558BE",
"'@	c #0557BA",
")@	c #0453B3",
"!@	c #034EAC",
"~@	c #024AA6",
"{@	c #01449E",
"]@	c #104D97",
"^@	c #E7E9EB",
"/@	c #EBEBEB",
"(@	c #899DB9",
"_@	c #003A97",
":@	c #013E9D",
"<@	c #016381",
"[@	c #026F3D",
"}@	c #036734",
"|@	c #04703A",
"1@	c #047741",
"2@	c #05854C",
"3@	c #058B5C",
"4@	c #068A7E",
"5@	c #06868C",
"6@	c #0567B2",
"7@	c #045EB3",
"8@	c #035BB0",
"9@	c #0259AD",
"0@	c #015CAD",
"a@	c #8DA5BF",
"b@	c #EAEAEA",
"c@	c #DCDCDC",
"d@	c #4D70A0",
"e@	c #003C96",
"f@	c #01429C",
"g@	c #027563",
"h@	c #027844",
"i@	c #037542",
"j@	c #047B44",
"k@	c #04834B",
"l@	c #058C56",
"m@	c #069963",
"n@	c #069A7D",
"o@	c #0574BB",
"p@	c #0471BC",
"q@	c #026FBB",
"r@	c #0171BD",
"s@	c #4F87B1",
"t@	c #E9E9E9",
"u@	c #DBDBDB",
"v@	c #EEEFF0",
"w@	c #4A6EA0",
"x@	c #003E94",
"y@	c #014496",
"z@	c #027B72",
"A@	c #029065",
"B@	c #038C58",
"C@	c #049359",
"D@	c #049F66",
"E@	c #04A776",
"F@	c #0487B5",
"G@	c #0382C5",
"H@	c #0286C9",
"I@	c #018ACB",
"J@	c #4B90B7",
"K@	c #E8E8E8",
"L@	c #DADADA",
"M@	c #F3F4F4",
"N@	c #8096B5",
"O@	c #08428D",
"P@	c #015884",
"Q@	c #01855D",
"R@	c #02986A",
"S@	c #02A15F",
"T@	c #039389",
"U@	c #0280AE",
"V@	c #0281C3",
"W@	c #0190CE",
"X@	c #0990C7",
"Y@	c #80B0C8",
"Z@	c #F3F3F4",
"`@	c #E7E7E7",
" #	c #D9D9D9",
".#	c #DCDFE4",
"+#	c #7996AF",
"@#	c #2B6965",
"##	c #035F62",
"$#	c #016B90",
"%#	c #0165A9",
"&#	c #046BA9",
"*#	c #2C86B6",
"=#	c #7AAFC9",
"-#	c #DCE2E6",
";#	c #E6E6E6",
">#	c #D8D8D8",
",#	c #EDEEEF",
"'#	c #DADEE1",
")#	c #E5E5E5",
"!#	c #838383",
"~#	c #9D9D9D",
"{#	c #A1A1A1",
"]#	c #A3A3A3",
"^#	c #A5A5A5",
"/#	c #A8A8A8",
"(#	c #AAAAAA",
"_#	c #ACACAC",
":#	c #ADADAD",
"<#	c #AFAFAF",
"[#	c #B1B1B1",
"}#	c #B2B2B2",
"|#	c #B3B3B3",
"1#	c #B4B4B4",
"2#	c #B0B0B0",
"3#	c #ABABAB",
"4#	c #A9A9A9",
"5#	c #A7A7A7",
"6#	c #A4A4A4",
"7#	c #A2A2A2",
"8#	c #A0A0A0",
"9#	c #868686",
"0#	c #121212",
"a#	c #191919",
"b#	c #1F1F1F",
"c#	c #242424",
"d#	c #292929",
"e#	c #2E2E2E",
"f#	c #333333",
"g#	c #373737",
"h#	c #3B3B3B",
"i#	c #3F3F3F",
"j#	c #424242",
"k#	c #444444",
"l#	c #474747",
"m#	c #484848",
"n#	c #494949",
"o#	c #4A4A4A",
"p#	c #464646",
"q#	c #434343",
"r#	c #414141",
"s#	c #3D3D3D",
"t#	c #3A3A3A",
"u#	c #353535",
"v#	c #313131",
"w#	c #2C2C2C",
"x#	c #272727",
"y#	c #222222",
"z#	c #1D1D1D",
"A#	c #171717",
"B#	c #111111",
"C#	c #101010",
"D#	c #151515",
"E#	c #1B1B1B",
"F#	c #202020",
"G#	c #252525",
"H#	c #2A2A2A",
"I#	c #323232",
"J#	c #565656",
"K#	c #5B5B5B",
"L#	c #4B4B4B",
"M#	c #5E5E5E",
"N#	c #4E4E4E",
"O#	c #5C5C5C",
"P#	c #4C4C4C",
"Q#	c #4F4F4F",
"R#	c #383838",
"S#	c #343434",
"T#	c #282828",
"U#	c #232323",
"V#	c #1E1E1E",
"W#	c #131313",
"X#	c #1C1C1C",
"Y#	c #2D2D2D",
"Z#	c #6E6E6E",
"`#	c #969696",
" $	c #6D6D6D",
".$	c #3E3E3E",
"+$	c #828282",
"@$	c #898989",
"#$	c #8C8C8C",
"$$	c #B8B8B8",
"%$	c #2F2F2F",
"&$	c #1A1A1A",
"*$	c #2B2B2B",
"=$	c #CBCBCB",
"-$	c #696969",
";$	c #D0D0D0",
">$	c #BFBFBF",
",$	c #CCCCCC",
"'$	c #B6B6B6",
")$	c #262626",
"!$	c #BDBDBD",
"~$	c #303030",
"{$	c #646464",
"]$	c #C3C3C3",
"^$	c #BCBCBC",
"/$	c #777777",
"($	c #C4C4C4",
"_$	c #B7B7B7",
":$	c #212121",
"<$	c #161616",
"[$	c #8F8F8F",
"}$	c #D5D5D5",
"|$	c #616161",
"1$	c #606060",
"2$	c #C2C2C2",
"3$	c #737373",
"4$	c #818181",
"5$	c #B5B5B5",
"6$	c #7F7F7F",
"7$	c #181818",
"8$	c #9E9E9E",
"9$	c #BBBBBB",
"0$	c #393939",
"a$	c #666666",
"b$	c #141414",
"c$	c #363636",
"                                                                            ",
"                                                                            ",
"          . . . + @ @ # # $ $ % % % % % % % % $ $ # # @ + + . & *           ",
"      = - ; ; ; > , ' ) ! ~ { { { { { { { { { { ~ ] ^ ' , ; / ( _ : <       ",
"      @ [ } } > > } ^ ] ~ { ~ | 1 2 3 4 5 6 7 ~ { ! ) ' , ; / - 8 : &       ",
"      $ ; ' ' > > ' ) ! { 9 0 a b c d e f g h i j ~ ] ^ } > / ( _ : .       ",
"      @ / > , > , ' ] ~ k l m n o p q r s t u v w x ! ) } > [ y _ z .       ",
"      + _ / [ ; } ^ ] A B C D E F G H I J K L M N O P ) ' , [ y - z +       ",
"      + 8 ( / > } ^ Q R S T U V W X Y Z `  ...+.@.#.$.%.' , ; y - z +       ",
"      + _ ( / > } &.*.=.-.;.>.,.'.).!.~.{.].^./.(._.:.<.&., ; y - 8 +       ",
"      + _ ( [ > } [.}.|.1.2.3.4.5.6.7.8.9.0.a.b.c.d.e.f.g., ; / - 8 +       ",
"      + _ ( / > } h.i.j.k.l.m.n.o.p.q.r.s.t.u.v.w.x.y.z.A., ; / - 8 +       ",
"      + 8 ( / > } B.C.D.E.F.G.H.I.J.K.L.M.N.O.P.Q.R.S.T.U., ; y - 8 +       ",
"      + 8 ( / ; , V.W.X.Y.Z.`. +.+++.+@+#+$+%+&+*+=+-+;+>+> ; y - z +       ",
"      + 8 - / ; ,+'+)+!+~+{+]+^+/+(+_+:+<+[+}+|+1+2+3+4+5+; [ y _ z .       ",
"      . 8 - y ; , 6+7+8+9+0+a+b+c+d+e+f+g+}+h+i+j+k+l+m+n+> [ ( _ z .       ",
"      . z _ y [ > o+p+q+r+s+t+u+v+w+x+y+z+A+B+C+D+E+F+G+H+; / ( 8 : .       ",
"      & : _ ( / ; I+J+K+L+M+N+O+P+Q+R+S+T+U+V+W+X+Y+Z+`+ @[ y - 8 : &       ",
"      * : 8 - y [ .@+@@@#@$@%@&@*@=@-@;@>@,@'@)@!@~@{@]@^@/ ( _ z /@&       ",
"      * /@z _ ( / ; (@_@:@<@[@}@|@1@2@3@4@5@6@7@8@9@0@a@; y - 8 : b@*       ",
"      c@b@: 8 - y [ [ d@e@f@g@h@i@j@k@l@m@n@o@p@q@r@s@[ / ( _ z /@t@c@      ",
"      u@t@/@z _ ( / ; v@w@x@y@z@A@B@C@D@E@F@G@H@I@J@v@[ y - 8 : b@K@u@      ",
"      L@K@b@: 8 - y / ; M@N@O@P@Q@R@S@T@U@V@W@X@Y@Z@[ / ( _ z /@t@`@L@      ",
"       #`@t@/@z 8 - y / ; > .#+#@###$#%#&#*#=#-#; [ / ( _ 8 : b@K@;# #      ",
"      >#;#K@b@/@z _ - y / [ ; > > ,#'#'#,#> > ; [ y ( - 8 : /@t@`@)#>#      ",
"      !#~#{#]#^#/#(#_#:#<#[#}#|#1#1#1#1#1#|#}#[#2#<#:#3#4#5#6#7#8#~#9#      ",
"      0#a#b#c#d#e#f#g#h#i#j#k#l#m#n#o#o#n#m#p#q#r#s#t#u#v#w#x#y#z#A#B#      ",
"      C#D#E#F#G#H#e#I#i#J#s#k#K#L#M#N#k#m#O#P#o#Q#R#S#v#w#T#U#V#a#W#C#      ",
"      C#0#A#X#F#G#d#Y#g#* Z#`#3# $y /#.$+$/ @$#$$$f#%$w#T#U#b#&$D#B#C#      ",
"      C#B#W#A#X#F#c#T#*$Z#=$c@k#-$;$+ h#>$,$9#@$'$Y#H#x#U#V#&$D#B#B#C#      ",
"      C#B#B#W#A#E#b#U#)$R#: !$~${$]$^$/$($_$+$9#1#T#G#:$V#&$D#0#B#B#C#      ",
"      C#B#B#B#0#<$&$V#:$^#[$}$|$1$2$3$@ 4$5$6$!#1#w#G#X#a#D#0#B#B#B#C#      ",
"      C#B#B#B#B#0#D#7$t#1#*$1$8$Q#`#~$9$0$#${$a$^$9$ $A#b$B#B#B#B#B#C#      ",
"      E#B#B#B#B#B#B#W#<$7$E#z#V#b#F#:$F#F#b#V#X#&$A#D#0#B#B#B#B#B#B#E#      ",
"      0$u#%$~$~$~$~$~$~$v#f#S#u#c$g#g#g#c$c$u#S#I#v#~$~$~$~$~$~$%$S#0$      ",
"          c#c#c#c#c#c#c#c#c#c#c#G#G#G#G#G#G#c#c#c#c#c#c#c#c#c#c#c#          ",
"                                                                            ",
"                                                                            "};
