/* XPM */
static char * xml_xpm[] = {
"34 34 481 2",
"  	c None",
". 	c #EDEDED",
"+ 	c #EEEEEE",
"@ 	c #EFEFEF",
"# 	c #F1F1F1",
"$ 	c #F2F2F2",
"% 	c #F6F5F5",
"& 	c #F7F4F6",
"* 	c #EDEFF1",
"= 	c #E0EBEC",
"- 	c #D8EBEA",
"; 	c #D5E9EA",
"> 	c #D8E6EC",
", 	c #E0E8ED",
"' 	c #EDEEF0",
") 	c #F7F4F5",
"! 	c #F0F0F0",
"~ 	c #ECECEC",
"{ 	c #EAEAEA",
"] 	c #E8E8E8",
"^ 	c #F8F8F8",
"/ 	c #F7F7F7",
"( 	c #FAFAFA",
"_ 	c #FCFCFC",
": 	c #FFFFFF",
"< 	c #F9FBFB",
"[ 	c #DAECE7",
"} 	c #A9D9D4",
"| 	c #7CD1CA",
"1 	c #62CDCB",
"2 	c #59C9D3",
"3 	c #62C0D9",
"4 	c #7DBBDD",
"5 	c #A9CFE3",
"6 	c #DAEDEE",
"7 	c #FAFCFB",
"8 	c #FBFBFB",
"9 	c #F9F9F9",
"0 	c #F5F5F5",
"a 	c #F6F6F6",
"b 	c #FDFDFD",
"c 	c #F2F6F8",
"d 	c #ACD8C5",
"e 	c #4AB98B",
"f 	c #18B58C",
"g 	c #09BCA1",
"h 	c #02B8BE",
"i 	c #01BED4",
"j 	c #03B7D9",
"k 	c #0898D7",
"l 	c #1896CA",
"m 	c #4BB1BE",
"n 	c #ADD5D7",
"o 	c #F1F7F4",
"p 	c #F4F4F4",
"q 	c #E9E9E9",
"r 	c #F0F3F6",
"s 	c #89BFB7",
"t 	c #11AF57",
"u 	c #00B85E",
"v 	c #00BC9C",
"w 	c #00C4B4",
"x 	c #00C7D2",
"y 	c #01CEEB",
"z 	c #01C3E9",
"A 	c #00A5E2",
"B 	c #0098D9",
"C 	c #0092C8",
"D 	c #1195A8",
"E 	c #89CDAF",
"F 	c #EFF5F3",
"G 	c #F3F3F3",
"H 	c #EBEBEB",
"I 	c #EFF1F5",
"J 	c #8BBABB",
"K 	c #12A557",
"L 	c #00B642",
"M 	c #01BF72",
"N 	c #01CCAC",
"O 	c #01D6BD",
"P 	c #01D9DC",
"Q 	c #01D4F8",
"R 	c #01C6F6",
"S 	c #01B0EC",
"T 	c #0197DE",
"U 	c #0187C9",
"V 	c #0090A0",
"W 	c #12BA6F",
"X 	c #8BBCBC",
"Y 	c #EEF0F3",
"Z 	c #B1C6D0",
"` 	c #28A067",
" .	c #02B53E",
"..	c #00BC48",
"+.	c #01C782",
"@.	c #01D7B8",
"#.	c #02E1D9",
"$.	c #02E2EE",
"%.	c #02DEFB",
"&.	c #01CDF9",
"*.	c #01AFEA",
"=.	c #0193DC",
"-.	c #017CD2",
";.	c #007CB7",
">.	c #03A283",
",.	c #2971A1",
"'.	c #B1BED2",
").	c #E3E6EB",
"!.	c #62959F",
"~.	c #099D44",
"{.	c #01B335",
"].	c #01BD49",
"^.	c #01CF88",
"/.	c #02DED0",
"(.	c #02E5F4",
"_.	c #02E6FD",
":.	c #02DEFE",
"<.	c #02CAF7",
"[.	c #02AFE9",
"}.	c #0294DC",
"|.	c #027CD2",
"1.	c #0171C0",
"2.	c #018B94",
"3.	c #0A8781",
"4.	c #64A79F",
"5.	c #E3EAE9",
"6.	c #F5F5F6",
"7.	c #BDC7D9",
"8.	c #336E83",
"9.	c #028B3C",
"0.	c #009B3D",
"a.	c #01B251",
"b.	c #02C7A7",
"c.	c #02D9EC",
"d.	c #02E1FF",
"e.	c #03E0FF",
"f.	c #03D6FC",
"g.	c #03C2F3",
"h.	c #03A9E6",
"i.	c #0291DA",
"j.	c #0278D1",
"k.	c #0267C4",
"l.	c #008499",
"m.	c #03BE62",
"n.	c #35B575",
"o.	c #BEDCD0",
"p.	c #F4F5F4",
"q.	c #F2F3F4",
"r.	c #A0ADCA",
"s.	c #174F71",
"t.	c #01665F",
"u.	c #016B9A",
"v.	c #0197AB",
"w.	c #02B3DA",
"x.	c #02C5F3",
"y.	c #03CEF8",
"z.	c #03C5F4",
"A.	c #03B4EB",
"B.	c #039FE2",
"C.	c #038AD8",
"D.	c #0372D0",
"E.	c #0264BF",
"F.	c #029483",
"G.	c #01BE51",
"H.	c #17B35C",
"I.	c #A0D4BC",
"J.	c #F2F5F4",
"K.	c #F0F1F3",
"L.	c #919EC1",
"M.	c #08366E",
"N.	c #014D70",
"O.	c #015BA0",
"P.	c #027EC0",
"Q.	c #0299DC",
"R.	c #03A9E7",
"S.	c #03B1EB",
"T.	c #03B2EB",
"U.	c #03ACE9",
"V.	c #03A0E4",
"W.	c #0390DC",
"X.	c #037ED4",
"Y.	c #0366CE",
"Z.	c #025CBA",
"`.	c #029F77",
" +	c #01B54D",
".+	c #099E44",
"++	c #91C7AB",
"@+	c #F1F3F2",
"#+	c #F0F1F2",
"$+	c #8F9BBF",
"%+	c #072178",
"&+	c #013A72",
"*+	c #015A88",
"=+	c #0269C0",
"-+	c #027DD1",
";+	c #038DD8",
">+	c #0394DF",
",+	c #0398E1",
"'+	c #0496E0",
")+	c #048DDC",
"!+	c #0480D7",
"~+	c #0470D0",
"{+	c #0459C9",
"]+	c #034FB7",
"^+	c #028575",
"/+	c #019B38",
"(+	c #08833E",
"_+	c #8FBDAA",
":+	c #EFF2F1",
"<+	c #F4F4F3",
"[+	c #F1F1F3",
"}+	c #99A4C4",
"|+	c #102680",
"1+	c #012382",
"2+	c #014B8A",
"3+	c #025AB2",
"4+	c #036DBB",
"5+	c #0378C4",
"6+	c #037BD4",
"7+	c #047ED9",
"8+	c #047FD7",
"9+	c #057AD4",
"0+	c #046FD0",
"a+	c #0460CA",
"b+	c #044DC3",
"c+	c #0345B5",
"d+	c #025E8C",
"e+	c #027355",
"f+	c #116566",
"g+	c #99B9BC",
"h+	c #F0F1F1",
"i+	c #F3F2F2",
"j+	c #F1F2F3",
"k+	c #B0B9CF",
"l+	c #273E8D",
"m+	c #021E8A",
"n+	c #01349A",
"o+	c #025097",
"p+	c #037378",
"q+	c #04837B",
"r+	c #04829B",
"s+	c #0476BE",
"t+	c #056ACD",
"u+	c #0564CC",
"v+	c #055DC9",
"w+	c #0453C4",
"x+	c #0449BC",
"y+	c #0344B3",
"z+	c #0244A1",
"A+	c #034B87",
"B+	c #295D92",
"C+	c #B0C1CE",
"D+	c #F1F1F2",
"E+	c #D5D9E3",
"F+	c #4B62A2",
"G+	c #022289",
"H+	c #00289D",
"I+	c #02546D",
"J+	c #02723F",
"K+	c #04833F",
"L+	c #048C58",
"M+	c #058974",
"N+	c #056EA7",
"O+	c #0555CB",
"P+	c #0553C6",
"Q+	c #0551BF",
"R+	c #044DB6",
"S+	c #0348AE",
"T+	c #0141A4",
"U+	c #033F9B",
"V+	c #4D75AE",
"W+	c #D5DBE3",
"X+	c #EFEFF1",
"Y+	c #93A3C4",
"Z+	c #1B4296",
"`+	c #00339B",
" @	c #015C6C",
".@	c #026D3B",
"+@	c #037233",
"@@	c #047C3C",
"#@	c #058844",
"$@	c #05806C",
"%@	c #057198",
"&@	c #066DA5",
"*@	c #0564AF",
"=@	c #0459B4",
"-@	c #0254AE",
";@	c #0151A9",
">@	c #1C5FA8",
",@	c #96ADCA",
"'@	c #E7E7E7",
")@	c #DFE3E8",
"!@	c #6889B6",
"~@	c #11499C",
"{@	c #00508A",
"]@	c #016A5B",
"^@	c #027143",
"/@	c #037441",
"(@	c #047D46",
"_@	c #058B4F",
":@	c #059562",
"<@	c #069083",
"[@	c #057BA7",
"}@	c #036ABA",
"|@	c #0068B7",
"1@	c #126DB4",
"2@	c #6A9BC3",
"3@	c #E0E4E8",
"4@	c #E6E6E6",
"5@	c #E5E5E5",
"6@	c #F8F7F6",
"7@	c #CBD3DE",
"8@	c #5B7EB1",
"9@	c #154D9A",
"0@	c #00587D",
"a@	c #007462",
"b@	c #018455",
"c@	c #038B51",
"d@	c #04945B",
"e@	c #049A71",
"f@	c #039393",
"g@	c #0083B9",
"h@	c #007EC4",
"i@	c #1585C3",
"j@	c #5C9EC8",
"k@	c #CBD8E1",
"l@	c #F7F6F5",
"m@	c #E4E4E4",
"n@	c #FAF9F7",
"o@	c #CAD3DE",
"p@	c #6E8BB8",
"q@	c #2C649E",
"r@	c #0F6E7C",
"s@	c #018164",
"t@	c #008C5E",
"u@	c #008F73",
"v@	c #008993",
"w@	c #0284B1",
"x@	c #108BC7",
"y@	c #2C9BCD",
"z@	c #6DB3D3",
"A@	c #CBDAE4",
"B@	c #FAF7F5",
"C@	c #FCFBF9",
"D@	c #DFE3EA",
"E@	c #AABBD1",
"F@	c #6D98A5",
"G@	c #3F8983",
"H@	c #2B8A85",
"I@	c #2688A0",
"J@	c #2B86B7",
"K@	c #4095C3",
"L@	c #6EB2D2",
"M@	c #A9D1E1",
"N@	c #DEE9ED",
"O@	c #FBF8F7",
"P@	c #D7D7D7",
"Q@	c #DEDEDE",
"R@	c #DFDFDF",
"S@	c #E1E1E1",
"T@	c #ECECEB",
"U@	c #DEE1E2",
"V@	c #D1D8D9",
"W@	c #C1CDD2",
"X@	c #B9C8D2",
"Y@	c #C1CFDA",
"Z@	c #D0DBE2",
"`@	c #DEE3E6",
" #	c #ECEBEB",
".#	c #E8E7E7",
"+#	c #E3E3E3",
"@#	c #DDDDDD",
"##	c #D6D6D6",
"$#	c #7C7C7C",
"%#	c #868686",
"&#	c #898989",
"*#	c #8C8C8C",
"=#	c #909090",
"-#	c #939393",
";#	c #959595",
">#	c #989898",
",#	c #9A9A9A",
"'#	c #9C9B9B",
")#	c #9F9E9E",
"!#	c #A0A0A0",
"~#	c #A19F9F",
"{#	c #A09F9E",
"]#	c #9D9D9C",
"^#	c #9B9A9A",
"/#	c #999999",
"(#	c #979797",
"_#	c #949494",
":#	c #919191",
"<#	c #8F8F8F",
"[#	c #8B8B8B",
"}#	c #888888",
"|#	c #858585",
"1#	c #131313",
"2#	c #1A1A1A",
"3#	c #1F1F1F",
"4#	c #252525",
"5#	c #2B2B2B",
"6#	c #2F2F2F",
"7#	c #353535",
"8#	c #434343",
"9#	c #3F3F3F",
"0#	c #474747",
"a#	c #4B4B4B",
"b#	c #4C4C4C",
"c#	c #454545",
"d#	c #4A4A4A",
"e#	c #494949",
"f#	c #444444",
"g#	c #424242",
"h#	c #373737",
"i#	c #323232",
"j#	c #2E2E2E",
"k#	c #292929",
"l#	c #232323",
"m#	c #1D1D1D",
"n#	c #181818",
"o#	c #111111",
"p#	c #191919",
"q#	c #202020",
"r#	c #242424",
"s#	c #2A2A2A",
"t#	c #7F7F7F",
"u#	c #5E5E5E",
"v#	c #6A6A6A",
"w#	c #6B6B6B",
"x#	c #878787",
"y#	c #5D5D5D",
"z#	c #555555",
"A#	c #707070",
"B#	c #303030",
"C#	c #2D2D2D",
"D#	c #282828",
"E#	c #1E1E1E",
"F#	c #171717",
"G#	c #121212",
"H#	c #151515",
"I#	c #A6A6A6",
"J#	c #767676",
"K#	c #9B9B9B",
"L#	c #D0D0D0",
"M#	c #717171",
"N#	c #BFBFBF",
"O#	c #9C9C9C",
"P#	c #272727",
"Q#	c #222222",
"R#	c #262626",
"S#	c #414141",
"T#	c #CCCCCC",
"U#	c #A9A9A9",
"V#	c #595959",
"W#	c #C7C7C7",
"X#	c #BEBEBE",
"Y#	c #212121",
"Z#	c #141414",
"`#	c #7A7A7A",
" $	c #A8A8A8",
".$	c #ADADAD",
"+$	c #6C6C6C",
"@$	c #B5B5B5",
"#$	c #8D8D8D",
"$$	c #1C1C1C",
"%$	c #101010",
"&$	c #161616",
"*$	c #676767",
"=$	c #747474",
"-$	c #565656",
";$	c #727272",
">$	c #828282",
",$	c #5B5B5B",
"'$	c #6D6D6D",
")$	c #848484",
"!$	c #404040",
"~$	c #343434",
"{$	c #333333",
"]$	c #363636",
"^$	c #3A3A3A",
"                                                                    ",
"                                                                    ",
"                                                                    ",
"          . . . + @ # $ % & * = - ; > , ' ) % $ ! @ . ~ { ]         ",
"        + ^ ^ / ^ ( _ : < [ } | 1 2 3 4 5 6 7 : 8 9 / 0 $ ! ]       ",
"        ! ^ ^ a / ( b c d e f g h i j k l m n o _ 9 / p $ @ q       ",
"        . 0 / a ^ 8 r s t u v w x y z A B C D E F ( / 0 G ! q       ",
"        H G p a 9 I J K L M N O P Q R S T U V W X Y ^ 0 $ ! q       ",
"        { # p / / Z `  ...+.@.#.$.%.&.*.=.-.;.>.,.'.a a G ! q       ",
"        H $ 0 / ).!.~.{.].^./.(._.:.<.[.}.|.1.2.3.4.5.a p # {       ",
"        H $ p 6.7.8.9.0.a.b.c.d.e.f.g.h.i.j.k.l.m.n.o.p.p # {       ",
"        { # p q.r.s.t.u.v.w.x.y.y.z.A.B.C.D.E.F.G.H.I.J.G # {       ",
"        { # p K.L.M.N.O.P.Q.R.S.T.U.V.W.X.Y.Z.`. +.+++@+G ! {       ",
"        { # p #+$+%+&+*+=+-+;+>+,+'+)+!+~+{+]+^+/+(+_+:+G ! q       ",
"        { ! <+[+}+|+1+2+3+4+5+6+7+8+9+0+a+b+c+d+e+f+g+h+i+@ q       ",
"        q @ $ j+k+l+m+n+o+p+q+r+s+t+u+v+w+x+y+z+A+B+C+D+# @ q       ",
"        ] @ # G E+F+G+H+I+J+K+L+M+N+O+P+Q+R+S+T+U+V+W+$ ! + ]       ",
"        ] + ! $ X+Y+Z+`+ @.@+@@@#@$@%@&@*@=@-@;@>@,@X+# @ . '@      ",
"        '@~ @ # p )@!@~@{@]@^@/@(@_@:@<@[@}@|@1@2@3@G ! + H 4@      ",
"        5@H + ! $ 6@7@8@9@0@a@b@c@d@e@f@g@h@i@j@k@l@# @ . { 5@      ",
"        m@H . @ # G n@o@p@q@r@s@t@u@v@w@x@y@z@A@B@$ ! + ~ q m@      ",
"        5@~ . ! $ G 0 C@D@E@F@G@H@I@J@K@L@M@N@O@p $ # @ ~ { 5@      ",
"        P@Q@R@S@m@5@'@] T@{ U@V@W@X@Y@Z@`@q  #.#4@m@+#S@R@@###      ",
"        $#%#&#*#=#-#;#>#,#'#)#!#~#~#~#{#]#^#/#(#_#:#<#[#}#|#$#      ",
"        1#2#3#4#5#6#7#8#9#8#0#a#b#0#c#d#e#f#g#h#i#j#k#l#m#n#o#      ",
"        1#p#q#r#s#j#7#t#u#v#w#t#x#y#z#t#$#v#A#7#B#C#D#l#E#F#G#      ",
"        G#H#2#q#r#D#s#x#I#I#J#K#L#%#M#N#I#=#O#6#5#P#Q#E#n#1#o#      ",
"        o#G#H#2#3#l#R#S#T#U#V#|#W#,#<#X#(#<#K#D#4#Y#E#p#Z#o#o#      ",
"        o#o#o#Z#p#E#E#`# $.$+$&#>#U#@$K#_##$O#5#Q#$$n#Z#o#o#o#      ",
"        %$%$%$o#1#&$R#%#b#*$v#=$-$;$>$,$'$w#,#)$!$H#G#o#%$%$%$      ",
"        m#p#p#p#p#2#q#~$R#j#{$7#j#{$]$j#i#B#^$^$R#2#p#p#p#n#m#      ",
"          D#P#P#P#P#P#r#D#D#k#k#5#s#k#s#k#D#4#r#R#P#P#P#P#P#        ",
"                                                                    ",
"                                                                    "};
