/* XPM */
static const char * xmlTreeIcon_xpm[] = {
"35 35 1031 2",
"  	c #9DB5E0",
". 	c #A1B9DD",
"+ 	c #9FB5D4",
"@ 	c #A4B7D5",
"# 	c #C5D5EA",
"$ 	c #C9D7E7",
"% 	c #CBDBE6",
"& 	c #CADBE4",
"* 	c #CCDBE4",
"= 	c #CCDBE5",
"- 	c #CCDCE4",
"; 	c #CDDCE4",
"> 	c #CDDCE3",
", 	c #CBDCE3",
"' 	c #CADCE4",
") 	c #C7DBE4",
"! 	c #CADBE5",
"~ 	c #D0D9E4",
"{ 	c #CFD8E4",
"] 	c #D1DAE5",
"^ 	c #CFD7E3",
"/ 	c #D2DAE8",
"( 	c #C0CBE7",
"_ 	c #A4B7D0",
": 	c #9FB7C1",
"< 	c #9EB7CC",
"[ 	c #A1B6DB",
"} 	c #A4B9DC",
"| 	c #B8CBE4",
"1 	c #E2F3FA",
"2 	c #8C9BC1",
"3 	c #6977A8",
"4 	c #6776A6",
"5 	c #6D7BAB",
"6 	c #6A78AC",
"7 	c #6A77AC",
"8 	c #6A77AD",
"9 	c #6B77AE",
"0 	c #6B77AD",
"a 	c #6976AD",
"b 	c #6876AD",
"c 	c #6A75AD",
"d 	c #6B76AC",
"e 	c #6B76AF",
"f 	c #6A75AF",
"g 	c #747FAF",
"h 	c #A5B1D5",
"i 	c #E4F3FD",
"j 	c #B6C8D7",
"k 	c #9EB3C8",
"l 	c #A1B2D2",
"m 	c #BDCDEC",
"n 	c #C4D3E9",
"o 	c #303E7E",
"p 	c #192772",
"q 	c #222F81",
"r 	c #212D83",
"s 	c #243186",
"t 	c #223285",
"u 	c #203083",
"v 	c #202F84",
"w 	c #202E86",
"x 	c #212D86",
"y 	c #212D85",
"z 	c #212B81",
"A 	c #1F2C81",
"B 	c #1C2D82",
"C 	c #1C2D83",
"D 	c #1D2E84",
"E 	c #1A2B81",
"F 	c #15277C",
"G 	c #162371",
"H 	c #525C92",
"I 	c #E0ECFA",
"J 	c #B1C0D3",
"K 	c #ACB8D9",
"L 	c #E1ECFB",
"M 	c #334080",
"N 	c #212F7A",
"O 	c #4B5AA8",
"P 	c #7383D2",
"Q 	c #7988DB",
"R 	c #7585D7",
"S 	c #7389CD",
"T 	c #7389CB",
"U 	c #7288CA",
"V 	c #7387C9",
"W 	c #7386C7",
"X 	c #7386C8",
"Y 	c #7286C9",
"Z 	c #7286CA",
"` 	c #7484C5",
" .	c #7683C3",
"..	c #7483C3",
"+.	c #7083C4",
"@.	c #7185C6",
"#.	c #6F83C3",
"$.	c #667ABA",
"%.	c #43529B",
"&.	c #1B2173",
"*.	c #575C96",
"=.	c #DCE4EB",
"-.	c #C2CAE9",
";.	c #A2ACCE",
">.	c #1B2773",
",.	c #4A5AA8",
"'.	c #7F92D4",
").	c #7A8EC5",
"!.	c #8193CB",
"~.	c #8091CA",
"{.	c #7E92C5",
"].	c #7D92C4",
"^.	c #7B90C2",
"/.	c #7C90BF",
"(.	c #7A8DB7",
"_.	c #7B90BC",
":.	c #7991C0",
"<.	c #7690C2",
"[.	c #778FC2",
"}.	c #798EC0",
"|.	c #7C8CBC",
"1.	c #7D8BBC",
"2.	c #7D8ABE",
"3.	c #7C89BD",
"4.	c #7B89BC",
"5.	c #7A88BC",
"6.	c #7A87BB",
"7.	c #7A86C8",
"8.	c #373E98",
"9.	c #191B70",
"0.	c #E2E6FB",
"a.	c #C5D0E6",
"b.	c #757FA3",
"c.	c #233082",
"d.	c #6779C8",
"e.	c #7A91C7",
"f.	c #7F96B9",
"g.	c #8395B4",
"h.	c #8391B8",
"i.	c #818DB8",
"j.	c #818DB9",
"k.	c #818CB9",
"l.	c #7F8BB7",
"m.	c #7F8AB3",
"n.	c #818BB1",
"o.	c #7F8EB8",
"p.	c #7E92C3",
"q.	c #7B92C9",
"r.	c #7890C9",
"s.	c #7A8FC8",
"t.	c #7D8DC4",
"u.	c #7F8AC4",
"v.	c #8088C5",
"w.	c #7F87C4",
"x.	c #7F86C3",
"y.	c #7E85C2",
"z.	c #7D85C2",
"A.	c #7C84C1",
"B.	c #7B87C6",
"C.	c #505CAF",
"D.	c #1F2180",
"E.	c #AFB0D2",
"F.	c #CBD9E9",
"G.	c #7483A7",
"H.	c #203084",
"I.	c #6479CA",
"J.	c #7A92C8",
"K.	c #8398B7",
"L.	c #8594B0",
"M.	c #CCD3EC",
"N.	c #D1D5E5",
"O.	c #D2D5E5",
"P.	c #D1D4E4",
"Q.	c #D2D4E4",
"R.	c #D4D5E8",
"S.	c #9097B9",
"T.	c #7E8EBA",
"U.	c #7C92C7",
"V.	c #7B93CC",
"W.	c #7C91CC",
"X.	c #7E8FC9",
"Y.	c #808EC8",
"Z.	c #808BC8",
"`.	c #7F8BC7",
" +	c #7F8AC7",
".+	c #7E89C6",
"++	c #7D88C5",
"@+	c #7C87C4",
"#+	c #7B86C2",
"$+	c #788ABF",
"%+	c #4B5CA6",
"&+	c #1E2285",
"*+	c #A1A1CA",
"=+	c #C9D9E2",
"-+	c #7584A9",
";+	c #1F3184",
">+	c #566EBC",
",+	c #7B95CB",
"'+	c #8699C0",
")+	c #8A94B6",
"!+	c #F2F4FF",
"~+	c #FEFFFD",
"{+	c #FEFEFE",
"]+	c #FEFEFD",
"^+	c #FFFEFC",
"/+	c #FDFDFF",
"(+	c #9096A8",
"_+	c #8190B2",
":+	c #8198C3",
"<+	c #7D97C5",
"[+	c #7D94C5",
"}+	c #7F93C3",
"|+	c #8091C1",
"1+	c #7E90C0",
"2+	c #7E8FC0",
"3+	c #7D8EC1",
"4+	c #7C8DC0",
"5+	c #7B8CBF",
"6+	c #7A8BBC",
"7+	c #7888B8",
"8+	c #778EBB",
"9+	c #3E539A",
"0+	c #1C2286",
"a+	c #A3A4CD",
"b+	c #CBD4E7",
"c+	c #7884AC",
"d+	c #1E3283",
"e+	c #3A5998",
"f+	c #7D9CCE",
"g+	c #8499C9",
"h+	c #8B93B7",
"i+	c #F4F5FF",
"j+	c #FFFEFF",
"k+	c #FFFFFF",
"l+	c #FEFFFF",
"m+	c #FEFEFF",
"n+	c #FFFDFE",
"o+	c #FCFEFE",
"p+	c #8F99AC",
"q+	c #7D8FB9",
"r+	c #7E96CA",
"s+	c #7D98CA",
"t+	c #7E97C6",
"u+	c #7F94C3",
"v+	c #8092C2",
"w+	c #8091C3",
"x+	c #7F8FC4",
"y+	c #7E8DC6",
"z+	c #7C8BC5",
"A+	c #7E8BC5",
"B+	c #7D8BBF",
"C+	c #7B88B7",
"D+	c #7A8DCE",
"E+	c #233895",
"F+	c #1D2788",
"G+	c #9FA6CB",
"H+	c #CCD5E4",
"I+	c #7683AB",
"J+	c #23378D",
"K+	c #26458B",
"L+	c #6C8CC4",
"M+	c #8399CF",
"N+	c #8D98BA",
"O+	c #F2F7FC",
"P+	c #FFFFFB",
"Q+	c #FFFFFC",
"R+	c #FFFFFD",
"S+	c #FEFFFB",
"T+	c #FAFFFE",
"U+	c #8E99AF",
"V+	c #7E90BC",
"W+	c #8097CC",
"X+	c #7E99CB",
"Y+	c #7F94C4",
"Z+	c #8093C4",
"`+	c #8092C5",
" @	c #7F90C3",
".@	c #7E8EC2",
"+@	c #7E8DC3",
"@@	c #7B8AC1",
"#@	c #7C8AC2",
"$@	c #5F71BD",
"%@	c #1F3493",
"&@	c #1A2585",
"*@	c #9FA7CB",
"=@	c #CBD6E2",
"-@	c #7683AC",
";@	c #213491",
">@	c #274597",
",@	c #4565A8",
"'@	c #829AD7",
")@	c #899BBE",
"!@	c #EDF9FD",
"~@	c #FDFFFC",
"{@	c #FFFFFA",
"]@	c #FEFFFA",
"^@	c #FCFFFD",
"/@	c #F7FFFF",
"(@	c #8D9AB2",
"_@	c #7F91BF",
":@	c #8298CD",
"<@	c #8099CA",
"[@	c #7F98C6",
"}@	c #7F95C5",
"|@	c #8093C7",
"1@	c #8192C7",
"2@	c #8092C1",
"3@	c #7E91BC",
"4@	c #7E91BD",
"5@	c #7B8DBF",
"6@	c #7889C5",
"7@	c #7E8DD3",
"8@	c #304297",
"9@	c #192485",
"0@	c #9FA7CC",
"a@	c #CAD6E2",
"b@	c #7684AE",
"c@	c #223496",
"d@	c #27449F",
"e@	c #2B4B99",
"f@	c #5E7ABF",
"g@	c #869DC7",
"h@	c #DAEDF3",
"i@	c #E6EEF3",
"j@	c #E9EDF1",
"k@	c #EBEDEE",
"l@	c #F9F9F8",
"m@	c #F8FBFA",
"n@	c #E5EBED",
"o@	c #E3EEF1",
"p@	c #E1EDF1",
"q@	c #E1EEF2",
"r@	c #8A98B6",
"s@	c #8399CC",
"t@	c #829AC8",
"u@	c #8098C5",
"v@	c #8095C7",
"w@	c #8194CA",
"x@	c #8293C9",
"y@	c #7D92BA",
"z@	c #7B90BA",
"A@	c #7B90C4",
"B@	c #7D8FD4",
"C@	c #495AAD",
"D@	c #203591",
"E@	c #213696",
"F@	c #1B2686",
"G@	c #9EA5CC",
"H@	c #C8D7E2",
"I@	c #213596",
"J@	c #2846A1",
"K@	c #2A4D9F",
"L@	c #3353A1",
"M@	c #5F7EB5",
"N@	c #829FBD",
"O@	c #7F91B9",
"P@	c #818EAF",
"Q@	c #858B9F",
"R@	c #D9DBE2",
"S@	c #DEE2E7",
"T@	c #747E91",
"U@	c #7E90AB",
"V@	c #7C8FAD",
"W@	c #8091AE",
"X@	c #7E8FB7",
"Y@	c #8497C8",
"Z@	c #849ACB",
"`@	c #8199C5",
" #	c #8198C5",
".#	c #8096C9",
"+#	c #7E92CB",
"@#	c #8091C9",
"##	c #7E91C4",
"$#	c #7A8FBE",
"%#	c #7B91C2",
"&#	c #7990CC",
"*#	c #4A5FAB",
"=#	c #233792",
"-#	c #213698",
";#	c #1F3494",
">#	c #1D2888",
",#	c #C7D7E3",
"'#	c #7585AD",
")#	c #203692",
"!#	c #27479D",
"~#	c #2B4FA0",
"{#	c #2F52A8",
"]#	c #3457A0",
"^#	c #4F72A8",
"/#	c #7998D7",
"(#	c #869DD2",
"_#	c #8794B8",
":#	c #D6DCE8",
"<#	c #DDE3E9",
"[#	c #74829E",
"}#	c #8297C0",
"|#	c #829AC5",
"1#	c #8599BE",
"2#	c #8497C5",
"3#	c #869ACC",
"4#	c #8197C7",
"5#	c #7F96C0",
"6#	c #7F97C2",
"7#	c #7F96C9",
"8#	c #8094CE",
"9#	c #8092CC",
"0#	c #7F93CC",
"a#	c #6D84C3",
"b#	c #384F98",
"c#	c #233B8F",
"d#	c #203895",
"e#	c #203898",
"f#	c #C6D6E6",
"g#	c #7585AC",
"h#	c #20378D",
"i#	c #274996",
"j#	c #284F9C",
"k#	c #2E54AF",
"l#	c #3156AF",
"m#	c #2F58A3",
"n#	c #3763B1",
"o#	c #587BBA",
"p#	c #778EB8",
"q#	c #D2DEE8",
"r#	c #DAE4E9",
"s#	c #7585A3",
"t#	c #819DCB",
"u#	c #849BC5",
"v#	c #8297C8",
"w#	c #8599CD",
"x#	c #8296C5",
"y#	c #8197C0",
"z#	c #7E95C1",
"A#	c #7D94C9",
"B#	c #7E92CD",
"C#	c #788AC6",
"D#	c #6779BA",
"E#	c #465AA2",
"F#	c #263B8B",
"G#	c #21398F",
"H#	c #213A94",
"I#	c #223D98",
"J#	c #1D3694",
"K#	c #C6D6E7",
"L#	c #7585AB",
"M#	c #21378B",
"N#	c #284897",
"O#	c #2A4F9E",
"P#	c #2D54AC",
"Q#	c #3057B3",
"R#	c #2F57AC",
"S#	c #305DAC",
"T#	c #305B9D",
"U#	c #345083",
"V#	c #BFCEDA",
"W#	c #CFDBE4",
"X#	c #546990",
"Y#	c #7191C1",
"Z#	c #7395CC",
"`#	c #7696CA",
" $	c #7692CA",
".$	c #758CC2",
"+$	c #889CC4",
"@$	c #8EA0BC",
"#$	c #8596B3",
"$$	c #7383A6",
"%$	c #627298",
"&$	c #4F5F86",
"*$	c #42507D",
"=$	c #414F82",
"-$	c #42508A",
";$	c #3C4C8B",
">$	c #243986",
",$	c #1B3488",
"'$	c #1E3893",
")$	c #9FA6CC",
"!$	c #C7D6E6",
"~$	c #7786A8",
"{$	c #23358D",
"]$	c #2B44A4",
"^$	c #2D4DA2",
"/$	c #2E53A1",
"($	c #3156A7",
"_$	c #3457AB",
":$	c #385AA3",
"<$	c #2D5C9F",
"[$	c #2B4F91",
"}$	c #BCC7D6",
"|$	c #C9CFDB",
"1$	c #10265C",
"2$	c #23497E",
"3$	c #294E8D",
"4$	c #28508D",
"5$	c #2C4D88",
"6$	c #273F72",
"7$	c #B2C1D8",
"8$	c #F8FFFF",
"9$	c #FCFFFF",
"0$	c #FBFFFE",
"a$	c #F6FFFD",
"b$	c #FEFDFF",
"c$	c #F9FCFF",
"d$	c #5D6793",
"e$	c #1A2B75",
"f$	c #1F3590",
"g$	c #1E3393",
"h$	c #1C2787",
"i$	c #9EA6CC",
"j$	c #7685A7",
"k$	c #22348C",
"l$	c #2A42A4",
"m$	c #2C4CA2",
"n$	c #2E529F",
"o$	c #3156A6",
"p$	c #3356AC",
"q$	c #345AA9",
"r$	c #295CA4",
"s$	c #2A4E90",
"t$	c #C0C6D4",
"u$	c #E4E1EB",
"v$	c #7F89A9",
"w$	c #899CB8",
"x$	c #8C9AC0",
"y$	c #8A9DC0",
"z$	c #8C99BC",
"A$	c #8991AF",
"B$	c #D6DBE8",
"C$	c #FDFFFD",
"D$	c #FDFFFF",
"E$	c #FEFFFE",
"F$	c #FFFEFB",
"G$	c #FFFEFD",
"H$	c #FBFCFF",
"I$	c #555E8B",
"J$	c #192779",
"K$	c #203495",
"L$	c #C7D6E7",
"M$	c #21338B",
"N$	c #2840A2",
"O$	c #2C4BA2",
"P$	c #2D519E",
"Q$	c #3055A5",
"R$	c #3256AD",
"S$	c #305AAE",
"T$	c #275CA6",
"U$	c #2A4D8F",
"V$	c #C3C5D1",
"W$	c #FBF5FA",
"X$	c #ECECF7",
"Y$	c #EDF4FB",
"Z$	c #EDEDFC",
"`$	c #EBF0FE",
" %	c #EDEEFC",
".%	c #F0EEF7",
"+%	c #F9F7FC",
"@%	c #FFFFF5",
"#%	c #FFFFF9",
"$%	c #FFFEF7",
"%%	c #FFFEF8",
"&%	c #FCFEFF",
"*%	c #565D8B",
"=%	c #1B277F",
"-%	c #1F3298",
";%	c #C8D7E7",
">%	c #2740A1",
",%	c #2A4AA1",
"'%	c #2C509D",
")%	c #2F54A4",
"!%	c #3154AB",
"~%	c #3258AC",
"{%	c #285AA5",
"]%	c #2A4C8D",
"^%	c #C1C7D2",
"/%	c #D7D5DE",
"(%	c #333C5E",
"_%	c #3B4C6C",
":%	c #3B4773",
"<%	c #3A4A73",
"[%	c #39446E",
"}%	c #393F63",
"|%	c #B9BBCB",
"1%	c #FFFEFE",
"2%	c #FFFFF8",
"3%	c #FAFEFE",
"4%	c #535B86",
"5%	c #1B277C",
"6%	c #1F3296",
"7%	c #C8D7E6",
"8%	c #7685A6",
"9%	c #2840A1",
"0%	c #29489F",
"a%	c #2B4F9C",
"b%	c #2D52A2",
"c%	c #3052A8",
"d%	c #3555A6",
"e%	c #2A58A1",
"f%	c #284A8C",
"g%	c #BDC8D4",
"h%	c #CAD1DB",
"i%	c #11295E",
"j%	c #234980",
"k%	c #26498E",
"l%	c #214789",
"m%	c #28478A",
"n%	c #233A75",
"o%	c #A7B6D4",
"p%	c #EBF4FE",
"q%	c #EEF2FB",
"r%	c #F0F1FB",
"s%	c #EFF0FB",
"t%	c #EFF2FA",
"u%	c #EFF2F9",
"v%	c #EFF3F8",
"w%	c #E8F1FA",
"x%	c #54618E",
"y%	c #172776",
"z%	c #1D3291",
"A%	c #1D3392",
"B%	c #263EA0",
"C%	c #27479E",
"D%	c #294D9A",
"E%	c #2C51A1",
"F%	c #3051A7",
"G%	c #3552A2",
"H%	c #29569F",
"I%	c #26498D",
"J%	c #BAC7D5",
"K%	c #C7D1DE",
"L%	c #112E70",
"M%	c #244F98",
"N%	c #244EA5",
"O%	c #2454A7",
"P%	c #234CA1",
"Q%	c #274797",
"R%	c #31498A",
"S%	c #324376",
"T%	c #313D6B",
"U%	c #323A6D",
"V%	c #323A6C",
"W%	c #313B67",
"X%	c #323A68",
"Y%	c #313967",
"Z%	c #313A62",
"`%	c #313E6A",
" &	c #192965",
".&	c #1E2F81",
"+&	c #1F3492",
"@&	c #7585A6",
"#&	c #203289",
"$&	c #243D9E",
"%&	c #26459C",
"&&	c #284C99",
"*&	c #2B509F",
"=&	c #2D4FA6",
"-&	c #3050A4",
";&	c #2555A0",
">&	c #24488D",
",&	c #BCC7D4",
"'&	c #CACFDD",
")&	c #142A6E",
"!&	c #2A4B98",
"~&	c #2C4BA6",
"{&	c #284FA4",
"]&	c #294CA5",
"^&	c #2845A0",
"/&	c #2A4397",
"(&	c #27408B",
"_&	c #243B87",
":&	c #22388E",
"<&	c #20378A",
"[&	c #233782",
"}&	c #233487",
"|&	c #223288",
"1&	c #223283",
"2&	c #1F317E",
"3&	c #1E3182",
"4&	c #1F328D",
"5&	c #1E3493",
"6&	c #7584A6",
"7&	c #1F318A",
"8&	c #243B9D",
"9&	c #26449C",
"0&	c #284A9A",
"a&	c #2A4E9F",
"b&	c #2B4EA3",
"c&	c #29519E",
"d&	c #2551A3",
"e&	c #27458B",
"f&	c #BCC7D3",
"g&	c #CAD0DD",
"h&	c #16256D",
"i&	c #2E459A",
"j&	c #2D499D",
"k&	c #274C98",
"l&	c #28499B",
"m&	c #2C479C",
"n&	c #243C8C",
"o&	c #1F3781",
"p&	c #1C3481",
"q&	c #193188",
"r&	c #182E85",
"s&	c #1C2D7E",
"t&	c #1C2983",
"u&	c #1D2785",
"v&	c #1E2882",
"w&	c #1A277D",
"x&	c #1D2E88",
"y&	c #24369C",
"z&	c #1A2F95",
"A&	c #1D3292",
"B&	c #1C2687",
"C&	c #C7D7E5",
"D&	c #20318A",
"E&	c #243A9D",
"F&	c #26439C",
"G&	c #28489B",
"H&	c #294CA0",
"I&	c #245296",
"J&	c #2B49A9",
"K&	c #2E4087",
"L&	c #BBC6D0",
"M&	c #C9D1DA",
"N&	c #18216A",
"O&	c #2D4096",
"P&	c #2B4B92",
"Q&	c #234897",
"R&	c #274698",
"S&	c #223B86",
"T&	c #8DA0CE",
"U&	c #BDCDE7",
"V&	c #BBC9E7",
"W&	c #BBC8E7",
"X&	c #BEC9E7",
"Y&	c #C1C8E6",
"Z&	c #C3C7E7",
"`&	c #C4C6E7",
" *	c #C1C4E6",
".*	c #C0C7E7",
"+*	c #4E5A99",
"@*	c #1A2B82",
"#*	c #1D3193",
"$*	c #1D3090",
"%*	c #1C2586",
"&*	c #A0A5CC",
"**	c #C7D8E5",
"=*	c #1F2F89",
"-*	c #23389B",
";*	c #25409A",
">*	c #264698",
",*	c #2A49A1",
"'*	c #294EA0",
")*	c #2E43AC",
"!*	c #313A85",
"~*	c #BFC5D0",
"{*	c #CBCED3",
"]*	c #111442",
"^*	c #1D285E",
"/*	c #1A2E5D",
"(*	c #162972",
"_*	c #17266F",
":*	c #171F5C",
"<*	c #AEB3CB",
"[*	c #FCFFF9",
"}*	c #FCFFF8",
"|*	c #FDFFF9",
"1*	c #FEFFF7",
"2*	c #FDFFF7",
"3*	c #F4FCFC",
"4*	c #56617F",
"5*	c #1D2D6B",
"6*	c #1A2E84",
"7*	c #C8D7E5",
"8*	c #1F2E88",
"9*	c #213599",
"0*	c #233D98",
"a*	c #244396",
"b*	c #27459D",
"c*	c #2946A1",
"d*	c #2948A3",
"e*	c #2D3FAA",
"f*	c #303887",
"g*	c #BFC4D2",
"h*	c #F1F4F7",
"i*	c #D6D8E2",
"j*	c #D5DEE5",
"k*	c #D2E0E6",
"l*	c #D3DFE8",
"m*	c #D7DEE8",
"n*	c #DCDDE7",
"o*	c #F2F0F6",
"p*	c #FFFCFE",
"q*	c #FFFCFB",
"r*	c #FFFBFD",
"s*	c #FFFBFE",
"t*	c #FFFCFC",
"u*	c #FFFDFB",
"v*	c #FFFDF8",
"w*	c #FFFEF9",
"x*	c #F8F8FD",
"y*	c #585B89",
"z*	c #182075",
"A*	c #1E2E92",
"B*	c #C9D7E4",
"C*	c #7581A4",
"D*	c #22308A",
"E*	c #213398",
"F*	c #233B96",
"G*	c #244195",
"H*	c #27449C",
"I*	c #24469E",
"J*	c #2841A5",
"K*	c #2A3B8C",
"L*	c #8996B4",
"M*	c #ABB6C7",
"N*	c #ADB5CA",
"O*	c #ABB5CB",
"P*	c #A8B5C8",
"Q*	c #AAB7C8",
"R*	c #AEB6C7",
"S*	c #AEB0C0",
"T*	c #E5E3EC",
"U*	c #FFFDFC",
"V*	c #FFFAFE",
"W*	c #FFFBFA",
"X*	c #FEFBFA",
"Y*	c #FDFBFF",
"Z*	c #56598D",
"`*	c #1A1F7F",
" =	c #1F2C97",
".=	c #1F3192",
"+=	c #1B2485",
"@=	c #A1A6CD",
"#=	c #C9D6E6",
"$=	c #7983A8",
"%=	c #1C2984",
"&=	c #233499",
"*=	c #223A95",
"==	c #243F94",
"-=	c #27419A",
";=	c #26439E",
">=	c #214799",
",=	c #21429D",
"'=	c #1F3A8F",
")=	c #1F3776",
"!=	c #1B3168",
"~=	c #1C2E6D",
"{=	c #1B2B72",
"]=	c #1A2A74",
"^=	c #1B2977",
"/=	c #1E2975",
"(=	c #1A1F5C",
"_=	c #B0B4CF",
":=	c #FAFFFF",
"<=	c #FAFFFA",
"[=	c #FAFFF8",
"}=	c #FBFFFB",
"|=	c #FDFEFD",
"1=	c #FEFEFC",
"2=	c #FCFBF8",
"3=	c #FAFDFE",
"4=	c #555C84",
"5=	c #19226F",
"6=	c #1C2D8B",
"7=	c #1C2F8F",
"8=	c #A0A5CB",
"9=	c #CAD5E6",
"0=	c #7881A5",
"a=	c #1F2B86",
"b=	c #213197",
"c=	c #213894",
"d=	c #233D92",
"e=	c #253E97",
"f=	c #253F9A",
"g=	c #214195",
"h=	c #21419A",
"i=	c #25429E",
"j=	c #213D92",
"k=	c #243E8D",
"l=	c #243C8E",
"m=	c #253996",
"n=	c #25389B",
"o=	c #26399C",
"p=	c #263698",
"q=	c #202D83",
"r=	c #6F79A7",
"s=	c #8C97AE",
"t=	c #8C97AA",
"u=	c #8B97AA",
"v=	c #8C96AC",
"w=	c #8D96AB",
"x=	c #8E94AC",
"y=	c #9093AC",
"z=	c #8F92AA",
"A=	c #8E93AD",
"B=	c #37417B",
"C=	c #182679",
"D=	c #1D2F8E",
"E=	c #1A2D8D",
"F=	c #C8D3E6",
"G=	c #848CB0",
"H=	c #19247F",
"I=	c #233398",
"J=	c #203793",
"K=	c #213B90",
"L=	c #223C95",
"M=	c #233B98",
"N=	c #263C97",
"O=	c #243B98",
"P=	c #233A9C",
"Q=	c #233B9E",
"R=	c #233B91",
"S=	c #253999",
"T=	c #23369B",
"U=	c #203892",
"V=	c #233894",
"W=	c #263591",
"X=	c #1F2B7E",
"Y=	c #1C276F",
"Z=	c #1A266C",
"`=	c #182372",
" -	c #152473",
".-	c #11256F",
"+-	c #142273",
"@-	c #172074",
"#-	c #1A2071",
"$-	c #141D6B",
"%-	c #17247A",
"&-	c #1B2B8E",
"*-	c #1B3095",
"=-	c #161F80",
"--	c #C3C8EE",
";-	c #B4C1D8",
">-	c #CAD6E9",
",-	c #192472",
"'-	c #1F2C8D",
")-	c #223396",
"!-	c #213899",
"~-	c #1F399B",
"{-	c #1F389A",
"]-	c #263995",
"^-	c #243895",
"/-	c #233998",
"(-	c #203697",
"_-	c #20388E",
":-	c #223792",
"<-	c #223797",
"[-	c #203894",
"}-	c #233897",
"|-	c #223494",
"1-	c #243592",
"2-	c #23338D",
"3-	c #22328C",
"4-	c #203090",
"5-	c #1E3190",
"6-	c #1A328D",
"7-	c #1C3090",
"8-	c #1F2F91",
"9-	c #1F2E8D",
"0-	c #1E2E8B",
"a-	c #1B2E8B",
"b-	c #1A3092",
"c-	c #1B2F97",
"d-	c #1E2D8F",
"e-	c #232D7A",
"f-	c #E6EEFB",
"g-	c #A3B6CB",
"h-	c #D8E9F6",
"i-	c #6B77A8",
"j-	c #1D2779",
"k-	c #202D8D",
"l-	c #223296",
"m-	c #1D3496",
"n-	c #1E3797",
"o-	c #213493",
"p-	c #223493",
"q-	c #203392",
"r-	c #203394",
"s-	c #203295",
"t-	c #213295",
"u-	c #1F3193",
"v-	c #1F3093",
"w-	c #1E3093",
"x-	c #1E3092",
"y-	c #1B2D90",
"z-	c #1D2F92",
"A-	c #19288C",
"B-	c #152274",
"C-	c #9DABCB",
"D-	c #BCC7CE",
"E-	c #A2B6D1",
"F-	c #A3B6D6",
"G-	c #DEEDFA",
"H-	c #808CBC",
"I-	c #212C6E",
"J-	c #121E66",
"K-	c #14246D",
"L-	c #192A77",
"M-	c #18237B",
"N-	c #19227C",
"O-	c #19227B",
"P-	c #192378",
"Q-	c #182278",
"R-	c #182277",
"S-	c #192379",
"T-	c #162076",
"U-	c #172176",
"V-	c #2F3A81",
"W-	c #A7B5CF",
"X-	c #D9E5E9",
"Y-	c #8E99A1",
"Z-	c #A0B7DA",
"`-	c #9CB2D2",
" ;	c #9CAECA",
".;	c #D2DDEA",
"+;	c #ECF4FD",
"@;	c #D4DBF4",
"#;	c #C3CBE6",
"$;	c #BDC5E2",
"%;	c #C1C7E7",
"&;	c #C2C8E8",
"*;	c #C2C8E7",
"=;	c #C2C9E5",
"-;	c #C2C8E5",
";;	c #C3C9E6",
">;	c #C1C7E4",
",;	c #C1C7E5",
"';	c #DAE1F8",
");	c #E9F2F7",
"!;	c #B8C3CD",
"~;	c #89939D",
"{;	c #8E96A2",
"  . + @ # $ % & * = = = * * * * - ; > > , ' ) ! ~ ~ ~ { ] ^ / ( _ : < ",
"[ } | 1 2 3 4 5 6 7 7 7 7 7 7 8 9 9 0 0 0 a b b c c c d e f g h i j k ",
"l m n o p q r s t t t t u u u v w x w y y r z A B C C D E C F G H I J ",
"K L M N O P Q R S T T T U U U V W X Y Z X `  ...+.+.+.+.@.#.$.%.&.*.=.",
"-.;.>.,.'.).!.~.{.].].].^.^.^./.(._.:.<.[.}.|.1.2.3.4.5.6.6.6.7.8.9.0.",
"a.b.c.d.e.f.g.h.i.j.j.k.l.l.l.m.n.o.p.q.r.s.t.u.v.v.w.x.y.z.A.B.C.D.E.",
"F.G.H.I.J.K.L.M.N.O.O.O.P.P.P.Q.R.S.T.U.V.W.X.Y.Z.`. +.+++@+#+$+%+&+*+",
"=+-+;+>+,+'+)+!+~+~+{+{+{+]+^+]+/+(+_+:+<+[+}+|+1+2+3+4+5+6+7+8+9+0+a+",
"b+c+d+e+f+g+h+i+j+k+l+m+m+j+n+^+o+p+q+r+s+t+u+v+w+x+y+z+A+B+C+D+E+F+G+",
"H+I+J+K+L+M+N+O+P+Q+Q+~+~+R+P+S+T+U+V+W+X+t+Y+Z+`+ @.@.@+@@@#@$@%@&@*@",
"=@-@;@>@,@'@)@!@~@P+P+{@]@~@^@T+/@(@_@:@<@[@}@|@1@2@3@4@5@6@7@8@%@9@0@",
"a@b@c@d@e@f@g@h@i@j@k@l@m@n@o@p@q@r@v+s@t@u@v@w@x@2@y@z@A@B@C@D@E@F@G@",
"H@b@I@J@K@L@M@N@O@P@Q@R@S@T@U@V@W@X@Y@Z@`@ #.#+#@###$#%#&#*#=#-#;#>#0@",
",#'#)#!#~#{#]#^#/#(#_#:#<#[#}#|#1#2#3#4#5#6#7#8#9#0#W.a#b#c#d#e#;#>#0@",
"f#g#h#i#j#k#l#m#n#o#p#q#r#s#|#t#u#v#w#x#y#z#A#B#C#D#E#F#G#H#I#J#;#>#0@",
"K#L#M#N#O#P#Q#R#S#T#U#V#W#X#Y#Z#`# $.$+$@$#$$$%$&$*$=$-$;$>$,$'$%@>#)$",
"!$~${$]$^$/$($_$:$<$[$}$|$1$2$3$4$5$6$7$8$9$m+0$a$0$m+b$c$d$e$f$g$h$i$",
"!$j$k$l$m$n$o$p$q$r$s$t$u$v$w$x$y$z$A$B$C${@Q+D$0$E$F$G$H$I$J$K$g$h$i$",
"L$j$M$N$O$P$Q$R$S$T$U$V$W$X$Y$Z$`$ %.%+%{@@%#%E$k+^+$%%%&%*%=%-%g$h$i$",
";%j$M$>%,%'%)%!%~%{%]%^%/%(%_%:%<%[%}%|%~+{@Q+j+j+1%2%2%3%4%5%6%g$h$i$",
"7%8%k$9%0%a%b%c%d%e%f%g%h%i%j%k%l%m%n%o%p%q%r%s%t%t%u%v%w%x%y%z%A%h$)$",
"7%8%M$B%C%D%E%F%G%H%I%J%K%L%M%N%O%P%Q%R%S%T%U%V%W%X%Y%Z%`% &.&+&A%h$)$",
"7%@&#&$&%&&&*&=&-&;&>&,&'&)&!&~&{&]&^&/&(&_&:&<&[&}&|&1&2&3&4&5&A%h$)$",
"7%6&7&8&9&0&a&b&c&d&e&f&g&h&i&j&k&l&m&n&o&p&q&r&s&t&u&v&w&x&y&z&A&B&)$",
"C&8%D&E&F&G&,%H&I&J&K&L&M&N&O&P&Q&R&S&T&U&V&W&X&Y&Z&`& *.*+*@*#*$*%*&*",
"**6&=*-*;*>*0%,*'*)*!*~*{*]*^*/*(*_*:*<*0$[*}*[*[*|*1*2*3*4*5*6*$*%*&*",
"7*6&8*9*0*a*b*c*d*e*f*g*h*i*j*k*l*m*n*o*p*q*r*s*t*u*v*w*x*y*z*A*$*%*&*",
"B*C*D*E*F*G*H*d@I*J*K*L*M*N*O*P*Q*R*S*T*n+U*r*V*s*r*W*X*Y*Z*`* =.=+=@=",
"#=$=%=&=*===-=;=>=,='=)=!=~={=]=^=/=(=_=:=<=[=}=|=1=w*2=3=4=5=6=7=%*8=",
"9=0=a=b=c=d=e=f=g=h=i=j=k=l=m=n=o=p=q=r=s=t=u=v=w=x=y=z=A=B=C=D=E=%*&*",
"F=G=H=I=J=K=L=M=N=O=P=Q=F*R=S=T=U=V=W=X=Y=Z=`= -.-+-@-#-$-%-&-*-$*=---",
";->-,-'-)-!-~-{-]-^-/-(-J=_-:-<-[-}-|-1-2-3-4-5-6-7-8-9-0-a-b-c-d-e-f-",
"g-h-i-j-k-l-m-n-o-p-o-o-q-q-q-r-s-s-t-s-u-u-u-v-w-w-w-x-y-z-z-A-B-C-D-",
"E-F-G-H-I-J-K-L-M-N-N-N-N-N-N-O-P-P-P-Q-R-R-R-Q-S-S-S-T-R-R-U-V-W-X-Y-",
"Z-`- ;.;+;@;#;$;%;%;%;%;&;&;&;*;=;=;=;-;-;-;-;-;;;;;;;-;>;,;';);!;~;{;"};
