/* XPM */
static char * xmlwindow_xpm[] = {
"63 25 411 2",
"  	c None",
". 	c #FFB07B",
"+ 	c #FFC7A2",
"@ 	c #FFCCAA",
"# 	c #F6C29F",
"$ 	c #C88960",
"% 	c #FF9D5B",
"& 	c #FFAB73",
"* 	c #FFB07A",
"= 	c #FFAE77",
"- 	c #FCAC76",
"; 	c #CB8252",
"> 	c #8C4210",
", 	c #FF9955",
"' 	c #FF8D41",
") 	c #FF761A",
"! 	c #FF7113",
"~ 	c #F96E12",
"{ 	c #B14B08",
"] 	c #803300",
"^ 	c #FF8839",
"/ 	c #FF6A07",
"( 	c #FF6600",
"_ 	c #F96300",
": 	c #B04600",
"< 	c #FF7920",
"[ 	c #FF8F44",
"} 	c #FF8F45",
"| 	c #FF8331",
"1 	c #FF6702",
"2 	c #FF7E27",
"3 	c #FF7D27",
"4 	c #FF6803",
"5 	c #FF7315",
"6 	c #FF8E43",
"7 	c #FF822F",
"8 	c #FF6B08",
"9 	c #FF7010",
"0 	c #FF8C3F",
"a 	c #FF8635",
"b 	c #FF6B09",
"c 	c #FF6C0A",
"d 	c #FF8738",
"e 	c #FF8D40",
"f 	c #FF7112",
"g 	c #FF8838",
"h 	c #FFDFC9",
"i 	c #FFECE0",
"j 	c #FFDCC4",
"k 	c #FF7A22",
"l 	c #FF7A21",
"m 	c #FFC9A5",
"n 	c #FFDFCB",
"o 	c #FF9852",
"p 	c #FF6804",
"q 	c #FF9045",
"r 	c #FFE8D8",
"s 	c #FFECDF",
"t 	c #FFCBA9",
"u 	c #FF7C25",
"v 	c #FFCDAC",
"w 	c #FF781E",
"x 	c #FFD2B4",
"y 	c #FFE3D1",
"z 	c #FF8A3C",
"A 	c #FBB07E",
"B 	c #FCF6F2",
"C 	c #FFFEFE",
"D 	c #FCC19A",
"E 	c #FB6E10",
"F 	c #FF6E0C",
"G 	c #FFB684",
"H 	c #FFF9F4",
"I 	c #FCFAF9",
"J 	c #DAB298",
"K 	c #BA5614",
"L 	c #DA5800",
"M 	c #FE954F",
"N 	c #FFFAF7",
"O 	c #FFFFFF",
"P 	c #FAECE3",
"Q 	c #E0884E",
"R 	c #FA6502",
"S 	c #FFBB8D",
"T 	c #EED5C4",
"U 	c #CF6722",
"V 	c #F56200",
"W 	c #FFE1CE",
"X 	c #FAF3EE",
"Y 	c #D17D44",
"Z 	c #E75D00",
"` 	c #FF6601",
" .	c #F97B27",
"..	c #F7CBAE",
"+.	c #FEFBFA",
"@.	c #FCEDE4",
"#.	c #F79B5E",
"$.	c #FD6A08",
"%.	c #FF944C",
"&.	c #FFE7D7",
"*.	c #E4D4C9",
"=.	c #9D613A",
"-.	c #903A01",
";.	c #E15A00",
">.	c #FF954F",
",.	c #FEFDFC",
"'.	c #FBF8F7",
").	c #FCFBFA",
"!.	c #CB9B7A",
"~.	c #EB6207",
"{.	c #FF6C0B",
"].	c #FBF9F8",
"^.	c #E1CFC4",
"/.	c #A95822",
"(.	c #ED5F00",
"_.	c #F7F1EE",
":.	c #AD6E44",
"<.	c #D55500",
"[.	c #FE6804",
"}.	c #F68F4B",
"|.	c #FBE9DD",
"1.	c #F7D5BE",
"2.	c #FA7E2C",
"3.	c #FF7317",
"4.	c #FFD1B2",
"5.	c #FFFCFA",
"6.	c #FEFEFD",
"7.	c #B08061",
"8.	c #8B3C07",
"9.	c #BF4C00",
"0.	c #FA6400",
"a.	c #FDFBFA",
"b.	c #EBDFD7",
"c.	c #DEC4B3",
"d.	c #D75F10",
"e.	c #FFF2EA",
"f.	c #F4EEE9",
"g.	c #F2EAE5",
"h.	c #FC6B0A",
"i.	c #F3A877",
"j.	c #FDFAF9",
"k.	c #FDF9F7",
"l.	c #F5B88F",
"m.	c #FDB07E",
"n.	c #FFFBF8",
"o.	c #FDFCFC",
"p.	c #D9C3B4",
"q.	c #863B09",
"r.	c #A74300",
"s.	c #EE5F00",
"t.	c #FDFDFC",
"u.	c #D1B6A3",
"v.	c #F8F3F1",
"w.	c #F2E9E3",
"x.	c #C76A2C",
"y.	c #FB6400",
"z.	c #FFA264",
"A.	c #FFFDFC",
"B.	c #E2D1C5",
"C.	c #E8DAD0",
"D.	c #FA6E12",
"E.	c #F6CFB6",
"F.	c #FEF7F2",
"G.	c #FEF6F2",
"H.	c #E7D8CF",
"I.	c #9F653E",
"J.	c #933B00",
"K.	c #DA5700",
"L.	c #FE6600",
"M.	c #C09A80",
"N.	c #EADCD3",
"O.	c #FAF8F7",
"P.	c #C78D65",
"Q.	c #F06101",
"R.	c #FF6E0D",
"S.	c #FFC8A3",
"T.	c #FCFAF8",
"U.	c #CDAF9B",
"V.	c #E0CDC0",
"W.	c #F68C46",
"X.	c #FBE9DE",
"Y.	c #F9F5F2",
"Z.	c #BB9176",
"`.	c #843A09",
" +	c #C44E00",
".+	c #F96400",
"++	c #B78B6E",
"@+	c #D4B7A3",
"#+	c #FFFEFD",
"$+	c #D6B49D",
"%+	c #DE5E09",
"&+	c #FF7D26",
"*+	c #F5EFEB",
"=+	c #B78B6D",
"-+	c #DBC4B5",
";+	c #FE8E44",
">+	c #FDECE1",
",+	c #FAF7F5",
"'+	c #9D4307",
")+	c #B28262",
"!+	c #C89574",
"~+	c #FFF7F1",
"{+	c #ECDCD2",
"]+	c #CA611C",
"^+	c #FD9854",
"/+	c #FFF1E8",
"(+	c #EADED5",
"_+	c #A06640",
":+	c #D8C0B1",
"<+	c #B14600",
"[+	c #FF7213",
"}+	c #FFD3B6",
"|+	c #FAF6F4",
"1+	c #ECDBD0",
"2+	c #E38241",
"3+	c #B27E5B",
"4+	c #C67845",
"5+	c #F8F2EE",
"6+	c #CA8353",
"7+	c #F0B086",
"8+	c #FFFAF6",
"9+	c #D9C1B1",
"0+	c #8F4515",
"a+	c #DBC1B0",
"b+	c #B14700",
"c+	c #FF6D0B",
"d+	c #FFB07C",
"e+	c #FFFCF9",
"f+	c #FCF9F8",
"g+	c #CDB09C",
"h+	c #C6A38C",
"i+	c #FEFDFD",
"j+	c #F7D1B8",
"k+	c #FC6C0D",
"l+	c #B27D59",
"m+	c #C6621E",
"n+	c #FBF8F5",
"o+	c #D6B49E",
"p+	c #E5C7B3",
"q+	c #B88C70",
"r+	c #9B4308",
"s+	c #E9C7B0",
"t+	c #FF944D",
"u+	c #FFE8D9",
"v+	c #9B5F36",
"w+	c #9B5221",
"x+	c #F1D0BA",
"y+	c #FEFCFB",
"z+	c #FDFBF9",
"A+	c #F79F64",
"B+	c #C65306",
"C+	c #FFB889",
"D+	c #FEF9F6",
"E+	c #EDE2DA",
"F+	c #F0E6E0",
"G+	c #9C5E35",
"H+	c #B04C08",
"I+	c #F5CCB0",
"J+	c #FF7F29",
"K+	c #FFD1B3",
"L+	c #B08161",
"M+	c #883B08",
"N+	c #C25004",
"O+	c #F4904E",
"P+	c #F8E5D9",
"Q+	c #FAE0CF",
"R+	c #F9893E",
"S+	c #FF6701",
"T+	c #C64F00",
"U+	c #FFF6EF",
"V+	c #E5D5CA",
"W+	c #924513",
"X+	c #C85508",
"Y+	c #FCCEB0",
"Z+	c #F7F2EE",
"`+	c #AD6F45",
" @	c #D55601",
".@	c #FF7011",
"+@	c #FFBF94",
"@@	c #FFFBF9",
"#@	c #FDFBFB",
"$@	c #C39F87",
"%@	c #873B0A",
"&@	c #AE4500",
"*@	c #F46200",
"=@	c #FC6907",
"-@	c #F5A772",
";@	c #FBF2ED",
">@	c #F9CCAD",
",@	c #FB7821",
"'@	c #FFE4D1",
")@	c #FDFCFB",
"!@	c #953C01",
"~@	c #E35F08",
"{@	c #FFD0B0",
"]@	c #FAF7F4",
"^@	c #CCA48B",
"/@	c #E59560",
"(@	c #FFA060",
"_@	c #FF9F5E",
":@	c #FF8737",
"<@	c #FF9C5B",
"[@	c #E3D2C6",
"}@	c #914D20",
"|@	c #993D00",
"1@	c #E05A00",
"2@	c #F9751E",
"3@	c #F4C3A2",
"4@	c #FCF3ED",
"5@	c #F7AC79",
"6@	c #FE6B0A",
"7@	c #FFC39B",
"8@	c #FFFFFE",
"9@	c #F7F3F0",
"0@	c #A87451",
"a@	c #A44100",
"b@	c #F76708",
"c@	c #FFFCFB",
"d@	c #FCBB91",
"e@	c #FF6E0E",
"f@	c #FFB27F",
"g@	c #F4CBB0",
"h@	c #DABDAA",
"i@	c #A6704C",
"j@	c #8C3902",
"k@	c #C95000",
"l@	c #FE6702",
"m@	c #F57D2D",
"n@	c #E0C3AF",
"o@	c #D8C0B0",
"p@	c #D3AB90",
"q@	c #EC6B15",
"r@	c #FF8736",
"s@	c #F2C8AB",
"t@	c #DBC2B1",
"u@	c #A5673E",
"v@	c #FD944F",
"w@	c #E8C5AD",
"x@	c #CCAD98",
"y@	c #904D20",
"z@	c #C04D00",
"A@	c #FE6906",
"B@	c #FFAF7A",
"C@	c #E5C5B1",
"D@	c #A45018",
"E@	c #FF751A",
"F@	c #FAB98E",
"G@	c #E1C4B1",
"H@	c #D7BEAE",
"I@	c #C18964",
"J@	c #CC5100",
"K@	c #FB6B0B",
"L@	c #C5570D",
"M@	c #90410C",
"N@	c #883904",
"O@	c #B24700",
"P@	c #F66200",
"Q@	c #FE6601",
"R@	c #C9580D",
"S@	c #92430D",
"T@	c #8D400C",
"U@	c #B14802",
"V@	c #F66504",
"W@	c #DB5F0D",
"X@	c #98450D",
"Y@	c #8E3B05",
"Z@	c #FC6805",
"`@	c #CA580D",
" #	c #8D3F0B",
".#	c #8A3802",
"+#	c #E45B00",
"@#	c #B24F0D",
"##	c #8B3E0A",
"$#	c #9F4002",
"%#	c #F0660B",
"&#	c #A84B0D",
"*#	c #8D400D",
"=#	c #8A3C07",
"-#	c #BC4B00",
";#	c #F88539",
">#	c #EE6307",
",#	c #E95D00",
"'#	c #C44F00",
")#	c #BB4B00",
"!#	c #DF5900",
"~#	c #E35B00",
"{#	c #DD5900",
"]#	c #BD4C00",
"^#	c #D75600",
"/#	c #DC5800",
"(#	c #C14D00",
"_#	c #E75C00",
":#	c #C54F00",
"<#	c #E65C00",
"[#	c #C75000",
"}#	c #D15400",
"|#	c #EB5E00",
"1#	c #E85D00",
"2#	c #A94400",
"3#	c #F4914F",
"4#	c #B56028",
"5#	c #8A3903",
"6#	c #893700",
"7#	c #873600",
"8#	c #793100",
"9#	c #7C3100",
"0#	c #B4642F",
"a#	c #652D08",
"b#	c #552200",
"c#	c #582300",
"d#	c #682A00",
". + @ @ @ @ @ @ @ @ @ @ @ @ @ @ @ @ @ @ @ @ @ @ @ @ @ @ @ @ @ @ @ @ @ @ @ @ @ @ @ @ @ @ @ @ @ @ @ @ @ @ @ @ @ @ @ @ @ @ @ # $ ",
"% & * = = = = = = = = = = = = = = = = = = = = = = = = = = = = = = = = = = = = = = = = = = = = = = = = = = = = = = = = = - ; > ",
", ' ) ! ! ! ! ! ! ! ! ! ! ! ! ! ! ! ! ! ! ! ! ! ! ! ! ! ! ! ! ! ! ! ! ! ! ! ! ! ! ! ! ! ! ! ! ! ! ! ! ! ! ! ! ! ! ! ! ! ~ { ] ",
", ^ / ( ( ( ( ( ( ( ( ( ( ( ( ( ( ( ( ( ( ( ( ( ( ( ( ( ( ( ( ( ( ( ( ( ( ( ( ( ( ( ( ( ( ( ( ( ( ( ( ( ( ( ( ( ( ( ( ( _ : ] ",
", ^ / ( ( ( ( ( ( ( ( ( ( ( ( ( ( ( ( ( ( ( ( ( ( ( ( ( ( ( ( ( ( ( ( ( ( ( ( ( ( ( ( ( ( ( ( ( ( ( ( ( ( ( ( ( ( ( ( ( _ : ] ",
", ^ / ( ( ( ( ( ( ( < [ } | 1 ( ( ( ( 1 2 } [ 3 4 5 6 } [ 7 8 ( ( ( ( 9 0 } } a b ( c d } e f ( ( ( ( ( ( ( ( ( ( ( ( ( _ : ] ",
", ^ / ( ( ( ( ( ( ( g h i j k ( ( ( ( l m i n o p q r i s t u ( ( ( ( q r i i v w ( < x i y z ( ( ( ( ( ( ( ( ( ( ( ( ( _ : ] ",
", ^ / ( ( ( ( ( ( ( b A B C D E ( ( F G H I J K L M N O O P Q R ( ( ( S O O O T U V u W O X Y Z ( ( ( ( ( ( ( ( ( ( ( ( _ : ] ",
", ^ / ( ( ( ( ( ( ( `  ...+.@.#.$.p %.&.O *.=.-.;.>.N ,.'.).!.~.( ( {.h ,.].C ^./.(.u W O _.:.<.( ( ( ( ( ( ( ( ( ( ( ( _ : ] ",
", ^ / ( ( ( ( ( ( ( ( [.}.|.,.1.2.3.4.5.6.7.8.9.0.>.N a.b.a.c.d.( ( 7 e.f.g.6.^./.(.u W O _.:.<.( ( ( ( ( ( ( ( ( ( ( ( _ : ] ",
", ^ / ( ( ( ( ( ( ( ( ( h.i.j.k.l.m.n.o.p.q.r.s.( >.N t.u.v.w.x.y.4 z.A.B.C.C ^./.(.u W O _.:.<.( ( ( ( ( ( ( ( ( ( ( ( _ : ] ",
", ^ / ( ( ( ( ( ( ( ( ( ( D.E.,.F.G.C H.I.J.K.L.( >.N C M.N.O.P.Q.R.S.T.U.V.O ^./.(.u W O _.:.<.( ( ( ( ( ( ( ( ( ( ( ( _ : ] ",
", ^ / ( ( ( ( ( ( ( ( ( ( ( W.X.O O Y.Z.`. +.+( ( >.N O ++@+#+$+%+&+y *+=+-+O ^./.(.u W O _.:.<.( ( ( ( ( ( ( ( ( ( ( ( _ : ] ",
", ^ / ( ( ( ( ( ( ( ( ( ( ( ;+>+O O ,+Z.'+V ( ( ( >.N O )+!+~+{+]+^+/+(+_+:+O ^./.(.u W O _.:.<.( ( ( ( ( ( ( ( ( ( ( ( .+<+] ",
", ^ / ( ( ( ( ( ( ( ( ( ( [+}+C ,+|+C 1+2+( ( ( ( >.N O 3+4+r 5+6+7+8+9+0+a+O ^./.(.u W O _.:.<.( ( ( ( ( ( ( ( ( ( ( ( .+b+] ",
", ^ / ( ( ( ( ( ( ( ( ( c+d+e+f+g+h+I i+j+k+( ( ( >.N O l+m+x n+o+p+A.q+r+s+O ^./.(.u W O _.:.<.( ( ( ( ( ( ( ( ( ( ( ( .+b+] ",
", ^ / ( ( ( ( ( ( ( ( p t+u+i+B.v+w+x+y+z+A+$.( ( >.N O l+B+C+D+E+F+Y.G+H+I+O ^./.(.u W O _.:.<.( ( ( ( ( ( ( ( ( ( ( ( .+b+] ",
", ^ / ( ( ( ( ( ( ( ` J+K+5.g.L+M+N+O+P+O Q+R+S+( >.N O l+T+>.U+o.,.V+W+X+Y+O ^./.(.u W O Z+`+ @S+S+S+S+S+` ( ( ( ( ( ( .+b+] ",
", ^ / ( ( ( ( ( ( ( .@+@@@#@$@%@&@*@=@-@;@i+>@,@` >.N O l+T+) '@O )@h+!@~@{@O ^./.(.u W O ]@^@/@(@(@(@(@_@:@( ( ( ( ( ( .+b+] ",
", ^ / ( ( ( ( ( ( p <@e.6.[@}@|@1@L.( 2@3@O 4@5@6@>.N O l+T+b 7@8@9@0@a@b@{@O ^./.(.u W O O O O O O O O c@d@y.( ( ( ( ( .+b+] ",
", ^ / ( ( ( ( ( ( e@f@g@h@i@j@k@.+( ( l@m@n@o@p@q@r@s@t@u@T+` v@w@x@y@z@A@B@C@$@D@(.E@F@G@:+:+:+:+:+:+:+H@I@J@y.( ( ( ( .+b+] ",
", ^ / ( ( ( ( ( ( 1 K@L@M@N@O@P@( ( ( ( Q@R@S@T@U@V@W@X@Y@k@( Z@`@ #.#+#( b @###$#s.1 %#&#*#*#*#*#*#*#*#*#=#-#0.( ( ( ( .+b+] ",
", ;#>#(.(.(.(.(.(.(.,#'#)#-#!#(.(.(.(.(.(.~# +)#z@;.{#z@]#^#(.(./#9.(#_#(.(.J@)#:#<#(.<#[#)#)#)#)#)#)#)#)#)#}#|#(.(.(.(.1#2#] ",
"3#4#5#6#6#6#6#6#6#6#6#6#6#6#6#6#6#6#6#6#6#6#6#6#6#6#6#6#6#6#6#6#6#6#6#6#6#6#6#6#6#6#6#6#6#6#6#6#6#6#6#6#6#6#6#6#6#6#6#6#7#8#9#",
"0#a#b#b#b#b#b#b#b#b#b#b#b#b#b#b#b#b#b#b#b#b#b#b#b#b#b#b#b#b#b#b#b#b#b#b#b#b#b#b#b#b#b#b#b#b#b#b#b#b#b#b#b#b#b#b#b#b#b#b#b#c#d#"};
