/* XPM */
static char * zoom_xpm[] = {
"27 27 180 2",
"  	c None",
". 	c #4BC5F3",
"+ 	c #49C4F3",
"@ 	c #2CBBF1",
"# 	c #00ADEE",
"$ 	c #47C4F3",
"% 	c #41C2F2",
"& 	c #10B2EF",
"* 	c #44C3F2",
"= 	c #2FBCF1",
"- 	c #01ADEE",
"; 	c #00ADED",
"> 	c #42C2F2",
", 	c #52C7F3",
"' 	c #64CDF4",
") 	c #69CEF5",
"! 	c #5CCBF4",
"~ 	c #1CB6F0",
"{ 	c #3EC1F2",
"] 	c #74D2F5",
"^ 	c #A9E3F9",
"/ 	c #C9EDFB",
"( 	c #D0EFFB",
"_ 	c #BEEAFB",
": 	c #72D2F6",
"< 	c #27BAF1",
"[ 	c #3BC0F2",
"} 	c #41C2F3",
"| 	c #82D7F7",
"1 	c #D5F0F9",
"2 	c #CEDFE5",
"3 	c #AAD0DD",
"4 	c #A0CCDC",
"5 	c #A5CAD7",
"6 	c #DAE7EC",
"7 	c #A0E1F9",
"8 	c #29BAF1",
"9 	c #37BEF2",
"0 	c #65CDF5",
"a 	c #CEEEFB",
"b 	c #BDDAE4",
"c 	c #6CBCD9",
"d 	c #42AFD9",
"e 	c #31ABD8",
"f 	c #20A0D0",
"g 	c #6AB5D1",
"h 	c #D9E9EF",
"i 	c #8FDBF7",
"j 	c #08B0EE",
"k 	c #34BDF1",
"l 	c #36BEF1",
"m 	c #94DDF8",
"n 	c #D8EBF3",
"o 	c #71C4E3",
"p 	c #38BBEC",
"q 	c #19B5F0",
"r 	c #0FA6DF",
"s 	c #8CC7DD",
"t 	c #D0F0FC",
"u 	c #31BDF1",
"v 	c #31BCF1",
"w 	c #3AC0F2",
"x 	c #AAE4F9",
"y 	c #C2E6F3",
"z 	c #53C4EF",
"A 	c #2BBBF0",
"B 	c #08AFEF",
"C 	c #03ADEC",
"D 	c #45B9E5",
"E 	c #E0F5FD",
"F 	c #57C9F4",
"G 	c #2DBBF1",
"H 	c #36BDEF",
"I 	c #A9E2F7",
"J 	c #C1EAFA",
"K 	c #4FC6F3",
"L 	c #02AEEE",
"M 	c #03AEEE",
"N 	c #43C1F0",
"O 	c #E1F4FC",
"P 	c #59C7F0",
"Q 	c #2ABAF1",
"R 	c #2BBAF0",
"S 	c #90D4EE",
"T 	c #DCF0F7",
"U 	c #65CEF5",
"V 	c #0AB0EF",
"W 	c #0BB1EF",
"X 	c #86D8F7",
"Y 	c #D4EEF7",
"Z 	c #34B4E3",
"` 	c #26B9F0",
" .	c #56BBE1",
"..	c #CCE5EF",
"+.	c #C4ECFB",
"@.	c #3FC1F2",
"#.	c #05AFEE",
"$.	c #59CAF4",
"%.	c #E6F4F9",
"&.	c #9DCEE1",
"*.	c #06A8E5",
"=.	c #00ACED",
"-.	c #23B8F0",
";.	c #25B4EA",
">.	c #70B9D5",
",.	c #DBE8ED",
"'.	c #E5F5FB",
").	c #A3E1F8",
"!.	c #8AD9F7",
"~.	c #BCE9FA",
"{.	c #F9FDFF",
"].	c #E7F5F9",
"^.	c #5ABEE3",
"/.	c #20B7F0",
"(.	c #20B0E7",
"_.	c #46A1C2",
":.	c #9DC0CC",
"<.	c #DAE9EE",
"[.	c #E6F1F5",
"}.	c #D0E2E8",
"|.	c #EFF5F6",
"1.	c #FDFEFF",
"2.	c #C3ECFB",
"3.	c #0BB0EF",
"4.	c #029DD6",
"5.	c #0788B7",
"6.	c #0D84B0",
"7.	c #078CBD",
"8.	c #79B7CD",
"9.	c #F8FAFA",
"0.	c #F3FBFE",
"a.	c #97DDF8",
"b.	c #13B3EF",
"c.	c #15A6DC",
"d.	c #B4D3DF",
"e.	c #FEFEFE",
"f.	c #E1F6FD",
"g.	c #69CFF5",
"h.	c #08B0EF",
"i.	c #16B4EF",
"j.	c #0BB0EE",
"k.	c #03ACEB",
"l.	c #3DABD4",
"m.	c #DBE9EE",
"n.	c #FEFFFF",
"o.	c #C7EDFB",
"p.	c #05AEEE",
"q.	c #0DACE8",
"r.	c #71BAD5",
"s.	c #EEF3F5",
"t.	c #DDEBF0",
"u.	c #63C1E5",
"v.	c #03ADED",
"w.	c #0FB2EF",
"x.	c #09B0EE",
"y.	c #02ADEE",
"z.	c #00ACEC",
"A.	c #1FABDF",
"B.	c #84BDD2",
"C.	c #71B7D0",
"D.	c #1DA5D8",
"E.	c #0CB0EE",
"F.	c #04AEEE",
"G.	c #04ABE9",
"H.	c #11A1D6",
"I.	c #0BA2DA",
"J.	c #08AFED",
"K.	c #08AFEE",
"L.	c #06AFEE",
"M.	c #06ABEA",
"N.	c #01AAEA",
"O.	c #067BA7",
"P.	c #039BD3",
"Q.	c #039DD6",
"R.	c #029CD6",
"S.	c #019CD6",
"T.	c #019AD3",
"U.	c #057BA7",
"V.	c #0B485E",
"W.	c #0A495F",
"                                                      ",
"      . . . . . . . . . . . + @ # # # # # # # #       ",
"    $ $ $ $ $ $ $ $ $ $ $ $ % & # # # # # # # # #     ",
"    * * * * * * * * * * * * = - # # # # # # # # ;     ",
"    % % % % % % % > , ' ) ! ~ # # # # # # # # # ;     ",
"    { { { { { { $ ] ^ / ( _ : < # # # # # # # # #     ",
"    [ [ [ [ [ } | 1 2 3 4 5 6 7 8 # # # # # # # #     ",
"    9 9 9 9 9 0 a b c d e f g h i j # # # # # # #     ",
"    k k k k l m n o p k q - r s t u # # # # # # #     ",
"    v v v v w x y z v A B # C D E F # # # # # # #     ",
"    G G G G H I J K G q L # M N O P # # # # # # #     ",
"    Q Q Q Q R S T U 8 V # # W X Y Z # # # # # # #     ",
"    ` ` ` ` `  ...+.@.#.# M $.%.&.*.# # # # # # =.    ",
"    -.-.-.-.-.;.>.,.'.).!.~.{.].^.- # # # # # # ;     ",
"    /./././././.(._.:.<.[.}.|.1.2.-.# # # # # # =.    ",
"    ~ ~ ~ ~ ~ ~ ~ 3.4.5.6.7.8.9.0.a.& # # # # # #     ",
"    q q q q q q b.#.# # # ; c.d.e.f.g.h.# # # # #     ",
"    i.i.i.i.i.i.j.- # # # # k.l.m.n.o.@.- # # # #     ",
"    b.b.b.b.b.& p.# # # # # # q.r.s.t.u.v.# # # #     ",
"    & w.w.w.w.x.y.# # # # # # z.A.B.C.D.z.# # # #     ",
"    E.3.3.3.V F.# # # # # # # # G.H.I.=.# # # # #     ",
"    J.K.K.K.L.- # # # # # # # # # # # # # # # # #     ",
"    M.p.p.p.L # # # # # # # # # # # # # # # # # N.    ",
"    O.P.Q.Q.R.S.S.S.S.S.S.S.S.S.S.S.S.S.S.S.S.T.U.    ",
"      V.W.W.W.W.W.W.W.W.W.W.W.W.W.W.W.W.W.W.W.V.      ",
"                                                      ",
"                                                      "};
