/* XPM */
static char * zoom_xpm[] = {
"26 26 137 2",
"  	c None",
". 	c #FEFEFE",
"+ 	c #FCFCFC",
"@ 	c #F5F5F5",
"# 	c #E7E7E7",
"$ 	c #D6D6D6",
"% 	c #CBCBCB",
"& 	c #D8D8D8",
"* 	c #E8E8E8",
"= 	c #F6F6F6",
"- 	c #FDFDFD",
"; 	c #FFFFFF",
"> 	c #A8A8A8",
", 	c #757575",
"' 	c #565656",
") 	c #4D4D4D",
"! 	c #585858",
"~ 	c #777777",
"{ 	c #E1E1E1",
"] 	c #F9F9F9",
"^ 	c #F0F0F0",
"/ 	c #BFBFBF",
"( 	c #797979",
"_ 	c #535353",
": 	c #606060",
"< 	c #7D7D7D",
"[ 	c #8D8D8D",
"} 	c #8C8C8C",
"| 	c #7B7B7B",
"1 	c #5D5D5D",
"2 	c #4C4C4C",
"3 	c #7E7E7E",
"4 	c #CACACA",
"5 	c #6D6D6D",
"6 	c #5C5C5C",
"7 	c #909090",
"8 	c #C8C8C8",
"9 	c #F1F1F1",
"0 	c #E5E5E5",
"a 	c #C7C7C7",
"b 	c #919191",
"c 	c #4F4F4F",
"d 	c #707070",
"e 	c #F8F8F8",
"f 	c #A3A3A3",
"g 	c #E4E4E4",
"h 	c #FBFBFB",
"i 	c #EAEAEA",
"j 	c #9B9B9B",
"k 	c #7F7F7F",
"l 	c #DCDCDC",
"m 	c #888888",
"n 	c #555555",
"o 	c #ADADAD",
"p 	c #F4F4F4",
"q 	c #FAFAFA",
"r 	c #C4C4C4",
"s 	c #5F5F5F",
"t 	c #808080",
"u 	c #E2E2E2",
"v 	c #E0E0E0",
"w 	c #7C7C7C",
"x 	c #676767",
"y 	c #D0D0D0",
"z 	c #E9E9E9",
"A 	c #8B8B8B",
"B 	c #C6C6C6",
"C 	c #8A8A8A",
"D 	c #D7D7D7",
"E 	c #DFDFDF",
"F 	c #7A7A7A",
"G 	c #686868",
"H 	c #D1D1D1",
"I 	c #5E5E5E",
"J 	c #818181",
"K 	c #E3E3E3",
"L 	c #515151",
"M 	c #ACACAC",
"N 	c #EBEBEB",
"O 	c #3B3B3B",
"P 	c #DADADA",
"Q 	c #FBFCFC",
"R 	c #FCFDFD",
"S 	c #FDFEFE",
"T 	c #C9C9C9",
"U 	c #545454",
"V 	c #DEDEDE",
"W 	c #C3C3C3",
"X 	c #878787",
"Y 	c #3C3C3C",
"Z 	c #313131",
"` 	c #616262",
" .	c #C0C5C8",
"..	c #E0EDF5",
"+.	c #E8F3FA",
"@.	c #FAFCFE",
"#.	c #575757",
"$.	c #727272",
"%.	c #6D7377",
"&.	c #97B3C5",
"*.	c #88BFE2",
"=.	c #95C8E8",
"-.	c #D6EAF6",
";.	c #F9FCFE",
">.	c #F7F7F7",
",.	c #DBDBDB",
"'.	c #70B1DA",
").	c #49A1D8",
"!.	c #4EA3D9",
"~.	c #8BC3E6",
"{.	c #D7EAF6",
"].	c #F9FCFD",
"^.	c #F3F3F3",
"/.	c #3E9BD5",
"(.	c #3F9BD5",
"_.	c #51A5D9",
":.	c #8DC4E6",
"<.	c #D6E9F6",
"[.	c #409CD5",
"}.	c #52A5D9",
"|.	c #D5EAF6",
"1.	c #D5E9F6",
"2.	c #88C1E5",
"3.	c #FAFCFD",
"4.	c #3F9CD5",
"5.	c #4FA4D9",
"6.	c #9FCDEA",
"7.	c #F2F8FB",
"8.	c #53A6DA",
"9.	c #A5D1EC",
"0.	c #F3F8FC",
"a.	c #D5E9F5",
"b.	c #93C7E8",
"c.	c #DDEEF8",
"d.	c #FBFDFD",
"e.	c #F8FCFE",
"f.	c #FAFDFE",
". . . . + @ # $ % % & * = - . . . . . . . . . . . . ",
". ; . @ & > , ' ) ) ! ~ > { ] ; ; ; ; ; ; ; ; ; ; . ",
". . ^ / ( _ : < [ } | 1 2 3 4 = ; ; ; ; ; ; ; ; ; . ",
". @ / 5 6 7 8 # 9 ^ 0 a b c d 8 e ; ; ; ; ; ; ; ; . ",
"+ & ( 6 f g h ; ; ; ; + i j _ k l - ; . . . . ; ; . ",
"@ > _ 7 g - ; ; ; ; ; ; . 0 m n o p . - - - . ; ; . ",
"# , : 8 h ; ; ; ; ; ; ; ; q r s t u - - . - - . ; . ",
"$ ' < # ; ; ; ; ; ; ; ; . - v w x y h - - . . . ; . ",
"% ) [ 9 ; ; ; ; ; ; . . . - z A : B q - . - - . . . ",
"% ) } ^ ; ; ; ; ; . . ; ; - * C : a q - - . - - - . ",
"D ! | 0 ; ; ; ; . . . . - - E F G H h - - . . . . . ",
"* ~ 1 a + ; ; . . . - . . q r I J K - - - - . ; ; . ",
"= > 2 b i . . . - . . . - i m L M p . - . ; ; ; ; . ",
"- { k c j K ] + + - + e N 7 O d P Q R S ; ; ; ; ; . ",
". ] T d U m r v z * V W X Y Z `  ...+.@.; ; ; ; ; . ",
". - p a t #.: < A C F 1 L $.` %.&.*.=.-.;.; ; ; ; . ",
". - . >.,.M t x : : G J o ,. .&.'.).!.~.{.].; ; ; . ",
". . . - + ^.u y B a H K @ R ..*.)./.(._.:.<.].; ; . ",
". ; . - - - - + q q - . . . +.=.!.(./.[.}.:.{.;.; . ",
". ; ; . - . - . . . ; ; ; ; @.|.~._.[./.[._.~.1.;.. ",
". ; ; . - - - . ; ; ; ; ; ; ; ;.-.:.}.[./.(.!.2.{.3.",
". ; ; ; ; . . ; ; ; ; ; ; ; ; ; ].1.:._.(./.4.5.6.7.",
". ; ; ; ; ; ; ; ; ; ; ; ; ; ; ; ; ].-.~.!.4.4.8.9.0.",
". ; ; ; ; ; ; ; ; ; ; ; ; ; ; ; ; ; ;.a.2.5.8.b.c.d.",
". ; ; ; ; ; ; ; ; ; ; ; ; ; ; ; ; ; ; e.-.6.9.c.f.. ",
". . . . . . . . . . . . . . . . . . . . 3.7.0.d.. . "};
