solid model
facet normal 0.0 1.0 0.0
outer loop
vertex -1.85319859911526 0.757992842657522 0.365419226849396
vertex -0.853198599115261 0.757992842657522 -0.134580773150604
vertex -1.85319859911526 0.757992842657522 -0.134580773150604
endloop
endfacet
facet normal 0.0 1.0 0.0
outer loop
vertex -0.853198599115261 0.757992842657522 -0.134580773150604
vertex -1.85319859911526 0.757992842657522 0.365419226849396
vertex -0.853198599115261 0.757992842657522 0.365419226849396
endloop
endfacet
facet normal -0.0 -1.0 -0.0
outer loop
vertex -0.903198599115261 0.707992842657522 0.365419226849396
vertex -1.80319859911526 0.707992842657522 -0.0845807731506037
vertex -0.903198599115261 0.707992842657522 -0.0845807731506037
endloop
endfacet
facet normal -0.0 -1.0 -0.0
outer loop
vertex -1.80319859911526 0.707992842657522 -0.0845807731506037
vertex -0.903198599115261 0.707992842657522 0.365419226849396
vertex -1.80319859911526 0.707992842657522 0.365419226849396
endloop
endfacet
facet normal 0.0 0.0 1.0
outer loop
vertex -0.903198599115261 -0.192007157342478 -0.0845807731506037
vertex -1.80319859911526 0.707992842657522 -0.0845807731506037
vertex -1.80319859911526 -0.192007157342478 -0.0845807731506037
endloop
endfacet
facet normal 0.0 0.0 1.0
outer loop
vertex -1.80319859911526 0.707992842657522 -0.0845807731506037
vertex -0.903198599115261 -0.192007157342478 -0.0845807731506037
vertex -0.903198599115261 0.707992842657522 -0.0845807731506037
endloop
endfacet
facet normal 0.0 0.0 -1.0
outer loop
vertex -0.853198599115261 0.757992842657522 -0.134580773150604
vertex -1.85319859911526 -0.242007157342478 -0.134580773150604
vertex -1.85319859911526 0.757992842657522 -0.134580773150604
endloop
endfacet
facet normal 0.0 0.0 -1.0
outer loop
vertex -1.85319859911526 -0.242007157342478 -0.134580773150604
vertex -0.853198599115261 0.757992842657522 -0.134580773150604
vertex -0.853198599115261 -0.242007157342478 -0.134580773150604
endloop
endfacet
facet normal 0.0 1.0 0.0
outer loop
vertex -1.80319859911526 -0.192007157342478 0.365419226849396
vertex -0.903198599115261 -0.192007157342478 -0.0845807731506037
vertex -1.80319859911526 -0.192007157342478 -0.0845807731506037
endloop
endfacet
facet normal 0.0 1.0 0.0
outer loop
vertex -0.903198599115261 -0.192007157342478 -0.0845807731506037
vertex -1.80319859911526 -0.192007157342478 0.365419226849396
vertex -0.903198599115261 -0.192007157342478 0.365419226849396
endloop
endfacet
facet normal 0.0 0.0 1.0
outer loop
vertex -1.85319859911526 -0.242007157342478 0.365419226849396
vertex -1.80319859911526 -0.192007157342478 0.365419226849396
vertex -1.85319859911526 0.757992842657522 0.365419226849396
endloop
endfacet
facet normal 0.0 0.0 1.0
outer loop
vertex -1.80319859911526 -0.192007157342478 0.365419226849396
vertex -1.85319859911526 -0.242007157342478 0.365419226849396
vertex -0.853198599115261 -0.242007157342478 0.365419226849396
endloop
endfacet
facet normal 0.0 0.0 1.0
outer loop
vertex -1.80319859911526 -0.192007157342478 0.365419226849396
vertex -0.853198599115261 -0.242007157342478 0.365419226849396
vertex -0.903198599115261 -0.192007157342478 0.365419226849396
endloop
endfacet
facet normal 0.0 0.0 1.0
outer loop
vertex -0.903198599115261 -0.192007157342478 0.365419226849396
vertex -0.853198599115261 -0.242007157342478 0.365419226849396
vertex -0.903198599115261 0.707992842657522 0.365419226849396
endloop
endfacet
facet normal 0.0 0.0 1.0
outer loop
vertex -1.85319859911526 0.757992842657522 0.365419226849396
vertex -1.80319859911526 0.707992842657522 0.365419226849396
vertex -0.853198599115261 0.757992842657522 0.365419226849396
endloop
endfacet
facet normal 0.0 0.0 1.0
outer loop
vertex -1.80319859911526 0.707992842657522 0.365419226849396
vertex -1.85319859911526 0.757992842657522 0.365419226849396
vertex -1.80319859911526 -0.192007157342478 0.365419226849396
endloop
endfacet
facet normal 0.0 0.0 1.0
outer loop
vertex -0.853198599115261 0.757992842657522 0.365419226849396
vertex -1.80319859911526 0.707992842657522 0.365419226849396
vertex -0.903198599115261 0.707992842657522 0.365419226849396
endloop
endfacet
facet normal 0.0 0.0 1.0
outer loop
vertex -0.853198599115261 0.757992842657522 0.365419226849396
vertex -0.903198599115261 0.707992842657522 0.365419226849396
vertex -0.853198599115261 -0.242007157342478 0.365419226849396
endloop
endfacet
facet normal -1.0 0.0 0.0
outer loop
vertex -1.85319859911526 0.757992842657522 0.365419226849396
vertex -1.85319859911526 -0.242007157342478 -0.134580773150604
vertex -1.85319859911526 -0.242007157342478 0.365419226849396
endloop
endfacet
facet normal -1.0 0.0 0.0
outer loop
vertex -1.85319859911526 -0.242007157342478 -0.134580773150604
vertex -1.85319859911526 0.757992842657522 0.365419226849396
vertex -1.85319859911526 0.757992842657522 -0.134580773150604
endloop
endfacet
facet normal -1.0 0.0 0.0
outer loop
vertex -0.903198599115261 0.707992842657522 0.365419226849396
vertex -0.903198599115261 -0.192007157342478 -0.0845807731506037
vertex -0.903198599115261 -0.192007157342478 0.365419226849396
endloop
endfacet
facet normal -1.0 0.0 0.0
outer loop
vertex -0.903198599115261 -0.192007157342478 -0.0845807731506037
vertex -0.903198599115261 0.707992842657522 0.365419226849396
vertex -0.903198599115261 0.707992842657522 -0.0845807731506037
endloop
endfacet
facet normal 1.0 0.0 0.0
outer loop
vertex -1.80319859911526 0.707992842657522 -0.0845807731506037
vertex -1.80319859911526 -0.192007157342478 0.365419226849396
vertex -1.80319859911526 -0.192007157342478 -0.0845807731506037
endloop
endfacet
facet normal 1.0 0.0 0.0
outer loop
vertex -1.80319859911526 -0.192007157342478 0.365419226849396
vertex -1.80319859911526 0.707992842657522 -0.0845807731506037
vertex -1.80319859911526 0.707992842657522 0.365419226849396
endloop
endfacet
facet normal -0.0 -1.0 -0.0
outer loop
vertex -0.853198599115261 -0.242007157342478 0.365419226849396
vertex -1.85319859911526 -0.242007157342478 -0.134580773150604
vertex -0.853198599115261 -0.242007157342478 -0.134580773150604
endloop
endfacet
facet normal -0.0 -1.0 -0.0
outer loop
vertex -1.85319859911526 -0.242007157342478 -0.134580773150604
vertex -0.853198599115261 -0.242007157342478 0.365419226849396
vertex -1.85319859911526 -0.242007157342478 0.365419226849396
endloop
endfacet
facet normal 1.0 0.0 0.0
outer loop
vertex -0.853198599115261 0.757992842657522 -0.134580773150604
vertex -0.853198599115261 -0.242007157342478 0.365419226849396
vertex -0.853198599115261 -0.242007157342478 -0.134580773150604
endloop
endfacet
facet normal 1.0 0.0 0.0
outer loop
vertex -0.853198599115261 -0.242007157342478 0.365419226849396
vertex -0.853198599115261 0.757992842657522 -0.134580773150604
vertex -0.853198599115261 0.757992842657522 0.365419226849396
endloop
endfacet
endsolid model
