/* XPM */
static char * box_xpm[] = {
"34 26 371 2",
"  	c #C0C0C0",
". 	c #BFBFBF",
"+ 	c #BFBFC0",
"@ 	c #BEBEBE",
"# 	c #C0BFBF",
"$ 	c #C1BFBC",
"% 	c #BEBFC0",
"& 	c #BCC0C1",
"* 	c #BBC0C1",
"= 	c #A7B3B9",
"- 	c #94A3AC",
"; 	c #93A5B4",
"> 	c #A1ADB6",
", 	c #ADB7BF",
"' 	c #BBBEC3",
") 	c #BEBFBF",
"! 	c #C0C0BB",
"~ 	c #C0BEBA",
"{ 	c #C1BFBD",
"] 	c #BDBFC0",
"^ 	c #BFC0C1",
"/ 	c #B9BEC3",
"( 	c #A9B3BB",
"_ 	c #94A3AE",
": 	c #8A9FAD",
"< 	c #8DA1AE",
"[ 	c #A1AFB8",
"} 	c #9DB1BE",
"| 	c #A4B2BE",
"1 	c #B0B8BE",
"2 	c #A0ACB8",
"3 	c #91A6B2",
"4 	c #8CA4B1",
"5 	c #8EA5B3",
"6 	c #94A5B2",
"7 	c #A2AEB7",
"8 	c #AFB9C1",
"9 	c #BBBEC1",
"0 	c #BFBEBE",
"a 	c #BDBEC0",
"b 	c #AAB2B9",
"c 	c #92A2AF",
"d 	c #7B97AC",
"e 	c #678AA5",
"f 	c #7393AB",
"g 	c #9DAFBC",
"h 	c #B8BFC3",
"i 	c #BDBFBF",
"j 	c #C1BFB9",
"k 	c #A3B2BB",
"l 	c #A9B2BA",
"m 	c #BEBEBF",
"n 	c #C0BFBE",
"o 	c #C1BEBE",
"p 	c #C0BFC1",
"q 	c #B8BDC0",
"r 	c #AAB4BC",
"s 	c #9BA9B6",
"t 	c #8FA1B2",
"u 	c #8BA1B6",
"v 	c #809BB0",
"w 	c #A6B1B9",
"x 	c #C2BFBC",
"y 	c #BEC0C2",
"z 	c #BBBFC3",
"A 	c #90A2B1",
"B 	c #839AAD",
"C 	c #869DAE",
"D 	c #9BA8B3",
"E 	c #B5BABE",
"F 	c #92A7B9",
"G 	c #AFBAC3",
"H 	c #B1B8BE",
"I 	c #9DABB7",
"J 	c #8C9EB0",
"K 	c #849DB3",
"L 	c #889FB2",
"M 	c #899FB2",
"N 	c #9FAEB9",
"O 	c #C1BEBF",
"P 	c #B2BABE",
"Q 	c #8EA1AF",
"R 	c #7D96A8",
"S 	c #8EA5B6",
"T 	c #92A2B2",
"U 	c #BEBFBE",
"V 	c #96A4B0",
"W 	c #7D97AE",
"X 	c #839BAE",
"Y 	c #95A6B3",
"Z 	c #AFB7BD",
"` 	c #C1BFBF",
" .	c #C0C0BF",
"..	c #96AAB5",
"+.	c #ACB5C0",
"@.	c #BEC0BF",
"#.	c #BFBFBC",
"$.	c #BBBEC2",
"%.	c #91A6B9",
"&.	c #869DB1",
"*.	c #859BAD",
"=.	c #B4B9C0",
"-.	c #9CABB4",
";.	c #7F95A5",
">.	c #829BAD",
",.	c #AAB4BA",
"'.	c #B0B8BF",
").	c #98AAB6",
"!.	c #BDBFBD",
"~.	c #6F92AD",
"{.	c #7F9AAF",
"].	c #7B95AB",
"^.	c #8BA0B0",
"/.	c #A6B3BB",
"(.	c #BCBFC2",
"_.	c #C0BEBF",
":.	c #9AADB6",
"<.	c #AEB5C0",
"[.	c #9FAFBB",
"}.	c #ADB5BC",
"|.	c #C0BFBD",
"1.	c #BFC0C0",
"2.	c #9DADBA",
"3.	c #6589A6",
"4.	c #5A84A4",
"5.	c #96A6B4",
"6.	c #BABDC2",
"7.	c #C1BFC1",
"8.	c #C0BFC0",
"9.	c #BFC0BF",
"0.	c #A5B1BB",
"a.	c #A2AFB9",
"b.	c #7B9CB3",
"c.	c #BBBFC1",
"d.	c #A9B5BE",
"e.	c #8FA2B1",
"f.	c #7994AA",
"g.	c #8099AE",
"h.	c #9AA8B4",
"i.	c #B6BBBF",
"j.	c #9DAFBA",
"k.	c #A8B2BD",
"l.	c #BFBFBD",
"m.	c #A1AEB8",
"n.	c #A6B2B9",
"o.	c #91A3AE",
"p.	c #7291A4",
"q.	c #849BA8",
"r.	c #ABB6BD",
"s.	c #819FB6",
"t.	c #B9BDC1",
"u.	c #BFBEC0",
"v.	c #ACB5BC",
"w.	c #7D9CB3",
"x.	c #BFBFC1",
"y.	c #B3BABF",
"z.	c #97A9B7",
"A.	c #7A96AC",
"B.	c #6A8DAA",
"C.	c #839BAF",
"D.	c #A7B3BC",
"E.	c #BBBEC0",
"F.	c #BEBFBD",
"G.	c #A0ACB5",
"H.	c #7690A3",
"I.	c #748FA2",
"J.	c #9AAAB4",
"K.	c #BBBDC1",
"L.	c #C1BEC0",
"M.	c #819DB5",
"N.	c #BCBFC3",
"O.	c #93A7B7",
"P.	c #819CB2",
"Q.	c #BBBFC2",
"R.	c #C1C0BF",
"S.	c #A4B0BA",
"T.	c #88A2B7",
"U.	c #859EB2",
"V.	c #708FAB",
"W.	c #7798AF",
"X.	c #708BA2",
"Y.	c #869DB0",
"Z.	c #90A4B3",
"`.	c #B2B9C2",
" +	c #C0C0C1",
".+	c #BEC0C0",
"++	c #809DB4",
"@+	c #BEBFC2",
"#+	c #8DA4B7",
"$+	c #BDBFC1",
"%+	c #879FB3",
"&+	c #B5BCC1",
"*+	c #9DACB8",
"=+	c #BEC0C1",
"-+	c #7797AF",
";+	c #B4B9BF",
">+	c #C3C0BD",
",+	c #97ACBB",
"'+	c #ADB7BE",
")+	c #C0BEBE",
"!+	c #809DB3",
"~+	c #89A3B7",
"{+	c #90A6B6",
"]+	c #ABB5BD",
"^+	c #C1BFBE",
"/+	c #ACB6BF",
"(+	c #9CABB7",
"_+	c #7798B4",
":+	c #8A9EAE",
"<+	c #92A3B0",
"[+	c #97A5B0",
"}+	c #8DA1B0",
"|+	c #97A6B1",
"1+	c #B0B8BD",
"2+	c #7F9DB5",
"3+	c #C2BFBE",
"4+	c #8BA4B8",
"5+	c #BEC1C1",
"6+	c #9CACBB",
"7+	c #A2B0B8",
"8+	c #AFB7BE",
"9+	c #98A9B6",
"0+	c #BDBEBC",
"a+	c #9AAAB3",
"b+	c #678DAA",
"c+	c #99A6B6",
"d+	c #BEBDC0",
"e+	c #B6BCC0",
"f+	c #9BA9B4",
"g+	c #8CA2B3",
"h+	c #7192AC",
"i+	c #A5AFB8",
"j+	c #BCBFC1",
"k+	c #BFC0C2",
"l+	c #8CA4B6",
"m+	c #A7B2BB",
"n+	c #BDBFBE",
"o+	c #AFB6BC",
"p+	c #7090A9",
"q+	c #859CAC",
"r+	c #A5B2BA",
"s+	c #7F9BB0",
"t+	c #B2BCC2",
"u+	c #BFC1BF",
"v+	c #BDBFC2",
"w+	c #C0BEC0",
"x+	c #7C9DB6",
"y+	c #A5B0B8",
"z+	c #8FA0AD",
"A+	c #8AA0B1",
"B+	c #99A9B4",
"C+	c #AFBBC4",
"D+	c #8CA3B5",
"E+	c #B2B7BC",
"F+	c #8CA4B2",
"G+	c #AFB2B5",
"H+	c #879BAB",
"I+	c #8B9DAC",
"J+	c #9AA8B5",
"K+	c #879DAB",
"L+	c #8EA2B2",
"M+	c #7395B0",
"N+	c #B4BBC1",
"O+	c #C2C0BD",
"P+	c #BEBFC1",
"Q+	c #BBBFC0",
"R+	c #849FB4",
"S+	c #AAB6BE",
"T+	c #6C8AA3",
"U+	c #9DAAB5",
"V+	c #B9BDC2",
"W+	c #88A0AF",
"X+	c #BDBEBE",
"Y+	c #9DAAB3",
"Z+	c #8497A6",
"`+	c #95A4B0",
" @	c #BABCBE",
".@	c #BDBEBF",
"+@	c #7394AE",
"@@	c #7E9AB0",
"#@	c #94A6B4",
"$@	c #B4BBC0",
"%@	c #BFBFBE",
"&@	c #B9BDBE",
"*@	c #86A1B6",
"=@	c #A9B2BB",
"-@	c #7B95A6",
";@	c #A6B0B9",
">@	c #C0BEBD",
",@	c #819EB3",
"'@	c #B7B9BE",
")@	c #8FA1B0",
"!@	c #8197AA",
"~@	c #9DACB9",
"{@	c #7D9CB4",
"]@	c #B1B9C0",
"^@	c #AAB4BB",
"/@	c #8D9DAB",
"(@	c #859BAC",
"_@	c #A2ACB5",
":@	c #BCBDBE",
"<@	c #C0C1C1",
"[@	c #B4BBBE",
"}@	c #8DA4B3",
"|@	c #B7BCBB",
"1@	c #8799AF",
"2@	c #89A0AF",
"3@	c #BCBCBC",
"4@	c #7292A9",
"5@	c #7591A6",
"6@	c #A8B4BB",
"7@	c #809FB7",
"8@	c #B0B7BD",
"9@	c #9DADB9",
"0@	c #889BA9",
"a@	c #99ACB9",
"b@	c #7897AC",
"c@	c #7A90A4",
"d@	c #AAB5B7",
"e@	c #B1BABC",
"f@	c #859CAE",
"g@	c #8096A5",
"h@	c #A9B3B9",
"i@	c #839EB4",
"j@	c #C2BEBC",
"k@	c #A6B6BF",
"l@	c #61859D",
"m@	c #8FA3B2",
"n@	c #BCBEC1",
"o@	c #C2BEBA",
"p@	c #B2BBC0",
"q@	c #889FB1",
"r@	c #7B94A7",
"s@	c #A6AFB5",
"t@	c #93A4B1",
"u@	c #7B8FA2",
"v@	c #B1B6BE",
"w@	c #B3BBC2",
"x@	c #8A9FB1",
"y@	c #7792A8",
"z@	c #A2ACB4",
"A@	c #C1BEBD",
"B@	c #B0B7BE",
"C@	c #AFB4B7",
"D@	c #7590A5",
"E@	c #BABFC4",
"F@	c #B9BCBF",
"G@	c #8AA1B4",
"H@	c #758FA3",
"I@	c #97A8B5",
"J@	c #BABFC1",
"K@	c #839FB5",
"L@	c #BBBEBC",
"M@	c #8A9CAD",
"N@	c #7A92A6",
"O@	c #B2B9BD",
"P@	c #B8BEBE",
"Q@	c #91A2B2",
"R@	c #718DA3",
"S@	c #96A5B0",
"T@	c #859EB3",
"U@	c #95A6B8",
"V@	c #738AA1",
"W@	c #97A9B4",
"X@	c #C4BEBC",
"Y@	c #B6BEC4",
"Z@	c #95A4B2",
"`@	c #698CA7",
" #	c #7D94AB",
".#	c #B6BBC1",
"+#	c #C0C0BE",
"  . .   . . . .     . .   . . . .   .   . . . . . . . .   . . . .   ",
".   .   . . . . .   . . + . .   .   . .   .   . + . . . . . .   .   ",
". . . . .   @ . . .   @ # $ % & * = - ; > , ' ) ! ~ { . ] ^ . . .   ",
"    .   . . . . . . . % / ( _ : < [ } | 1 2 3 4 5 6 7 8 9       .   ",
". . + . % + 0 + a b c d e f g h i j k l m n o o p q r s t u v w .   ",
". . x y z l A B C D E F G H I J K L M N ] n . .   O + P Q R S T     ",
") U V W X Y Z . ` #  ...+.)  .@.#.$.%.&.*.X Q 7 =.-.;.>.,.x '.)..   ",
"@.!.~.{.].^./.(._.    :.<.  . . . # [.}.|.1.2.3.4.5.6.7.8.9.0.a..   ",
"9.U b.x c.d.e.f.g.h.i.j.k.1.n 9.l.# m.n.o.p.q.r.s.t.9.l.9.u.2.v..   ",
"  @ w.x.l.  # + y.z.A.B.C.D.E.F.c.G.H.I.J.K.L.) M.N.. . . . O.i..   ",
". . P.Q.|.  n R.1.% + S.T.U.V.W.X.Y.Z.`.^  +8..+++@+  . .  .#+$+    ",
". . %+&+|.. . . . . . ( *+) =+-+;+>+,+'+)+)+. 0 !++ . . . { ~+y @   ",
"  . {+]+^+  . .   .   /+(+% .+_+[.:+<+[+}+|+1+) 2+$+$+.+9.3+4+5+.   ",
". . 6+7+.   .   . . R.8+9+0+a+b+c+d+L.# % e+f+g+h+i+j+n u.k+l+y .   ",
". . m+9+n+. . . # $+n o+p+q+r+s+t+u+F.  % v+w+% x+y+z+A+B+C+D+. .   ",
".   E+F+)   + 1.=+G+H+I+J+K+L+M+N+O+P++ . .   Q+R+_.. 8.S+T+U+n     ",
". . V+W+) 8.X+Y+Z+`+ @.@y @.E +@@@#@$@%@0 + # &@*@m 9.=@-@;@>@+ .   ",
"    (.,@'@)@!@~@m .   .   . %@{@]@^@/@(@_@:@<@[@}@|@1@2@3@.+.   .   ",
". . % 4@5@6@i { =+@   .   . %@7@8@. . c.9@B 0@a@b@c@d@w+%@  . . .   ",
"  . 8.e@f@g@h@x 1.  . .   . >@i@1   .   { j@k@l@m@n@# +   . . . .   ",
".   . n o@p@q@r@s@(.=+. + . >@i@8+  . . P+t@u@v@+ %@. . . . .   .   ",
". . . + % . |.w@x@y@z@) + _.A@i@B@# F.C@D@Y E@n 9.U . . .   . . .   ",
"    .   . . + n x F@G@H@I@J@l.K@8+L@M@N@O@n # . . .   .   . .   .   ",
". . . . . . . + =+%@0 P@Q@R@S@T@U@V@W@%@) + + . . . . . . . .   .   ",
". .   . .   .   . .  .|.X@Y@Z@`@ #.#+#9..   . .   .   . .   .       ",
". . . . . . . . . .  .m # |.] j+_.# ) . . . . . . . . . . . . . .   "};
