/* XPM */
static char * Links_xpm[] = {
"26 21 298 2",
"  	c #8D8B8C",
". 	c #767474",
"+ 	c #676362",
"@ 	c #686564",
"# 	c #676364",
"$ 	c #716E6E",
"% 	c #6D6162",
"& 	c #97474B",
"* 	c #B3363B",
"= 	c #B0383D",
"- 	c #B4373C",
"; 	c #8B3F43",
"> 	c #574143",
", 	c #B2282D",
"' 	c #F21720",
") 	c #EC1921",
"! 	c #EC1920",
"~ 	c #EC1821",
"{ 	c #F41821",
"] 	c #A31D23",
"^ 	c #594445",
"/ 	c #B42C31",
"( 	c #F31A23",
"_ 	c #E91C23",
": 	c #DD1B21",
"< 	c #DE1B22",
"[ 	c #E71B23",
"} 	c #E21A23",
"| 	c #EC1C24",
"1 	c #ED1C24",
"2 	c #DA1A21",
"3 	c #DC1A22",
"4 	c #EA1C24",
"5 	c #EE1C24",
"6 	c #F51B24",
"7 	c #A42127",
"8 	c #D91A21",
"9 	c #9B1217",
"0 	c #9E1319",
"a 	c #BC161C",
"b 	c #A31419",
"c 	c #D81A21",
"d 	c #D41920",
"e 	c #DE1A21",
"f 	c #E01A22",
"g 	c #D71920",
"h 	c #D31920",
"i 	c #D51920",
"j 	c #CD181F",
"k 	c #850F13",
"l 	c #961218",
"m 	c #F41B24",
"n 	c #F31B23",
"o 	c #CE191F",
"p 	c #6D0C10",
"q 	c #660D11",
"r 	c #770E11",
"s 	c #4D090D",
"t 	c #901115",
"u 	c #7C0F13",
"v 	c #981217",
"w 	c #A31318",
"x 	c #861014",
"y 	c #780E12",
"z 	c #7B0F12",
"A 	c #7F0F13",
"B 	c #AD151B",
"C 	c #8F1115",
"D 	c #420709",
"E 	c #6E0D12",
"F 	c #D41921",
"G 	c #CD181E",
"H 	c #680C0F",
"I 	c #630C10",
"J 	c #750D10",
"K 	c #3E070B",
"L 	c #7D0F13",
"M 	c #540A0C",
"N 	c #520A0D",
"O 	c #620B0F",
"P 	c #660B0F",
"Q 	c #550A0D",
"R 	c #4F090C",
"S 	c #520A0C",
"T 	c #4D090C",
"U 	c #8A1116",
"V 	c #B6161C",
"W 	c #660B0E",
"X 	c #730E13",
"Y 	c #D1181F",
"Z 	c #750D11",
"` 	c #780F13",
" .	c #951115",
"..	c #4E090C",
"+.	c #560A0C",
"@.	c #570A0D",
"#.	c #770E12",
"$.	c #6D0D10",
"%.	c #6F0D10",
"&.	c #720E11",
"*.	c #670C0F",
"=.	c #931217",
"-.	c #820F12",
";.	c #811015",
">.	c #D61921",
",.	c #5A4445",
"'.	c #B52C31",
").	c #F41B23",
"!.	c #DF1A21",
"~.	c #AE141A",
"{.	c #B2151C",
"].	c #C2171C",
"^.	c #891015",
"/.	c #A8141A",
"(.	c #9A1217",
"_.	c #A31319",
":.	c #B0141A",
"<.	c #AC141A",
"[.	c #AE151A",
"}.	c #AF151A",
"|.	c #A81419",
"1.	c #BF171E",
"2.	c #E21B23",
"3.	c #B6151A",
"4.	c #B4161C",
"5.	c #E31A23",
"6.	c #EF1C24",
"7.	c #F61B24",
"8.	c #A52127",
"9.	c #AB2930",
"0.	c #E51620",
"a.	c #DF1722",
"b.	c #D91721",
"c.	c #DA1721",
"d.	c #DB1721",
"e.	c #D31620",
"f.	c #D71621",
"g.	c #D61620",
"h.	c #D11620",
"i.	c #D61621",
"j.	c #D91621",
"k.	c #D81721",
"l.	c #E11722",
"m.	c #E61722",
"n.	c #9B1E25",
"o.	c #504544",
"p.	c #783228",
"q.	c #942515",
"r.	c #922617",
"s.	c #932617",
"t.	c #932618",
"u.	c #962617",
"v.	c #662319",
"w.	c #474F43",
"x.	c #3D7123",
"y.	c #36880C",
"z.	c #37850F",
"A.	c #37860F",
"B.	c #398A0F",
"C.	c #275F0D",
"D.	c #445843",
"E.	c #2BAC23",
"F.	c #1AE60D",
"G.	c #1BE20F",
"H.	c #1CE30F",
"I.	c #1CE20F",
"J.	c #1BE10F",
"K.	c #1CE810",
"L.	c #139B0B",
"M.	c #445A43",
"N.	c #2BB823",
"O.	c #1AF90E",
"P.	c #1BEC0F",
"Q.	c #1AE20F",
"R.	c #1BEB0F",
"S.	c #1BEC10",
"T.	c #1CF410",
"U.	c #1CF610",
"V.	c #1CF510",
"W.	c #1BED10",
"X.	c #19D90E",
"Y.	c #17D10E",
"Z.	c #19E10F",
"`.	c #1BF110",
" +	c #1DFB11",
".+	c #13A80B",
"++	c #2CB823",
"@+	c #1AF50D",
"#+	c #17C10D",
"$+	c #0E7808",
"%+	c #13AD0C",
"&+	c #139E0B",
"*+	c #13AA0B",
"=+	c #1AE00E",
"-+	c #19D80E",
";+	c #19D90F",
">+	c #1AE30F",
",+	c #19DE0E",
"'+	c #19D50E",
")+	c #19D40E",
"!+	c #17C30D",
"~+	c #0F7E08",
"{+	c #0C6306",
"]+	c #0F8209",
"^+	c #19DC0E",
"/+	c #1CF310",
"(+	c #13A70B",
"_+	c #1AF30D",
":+	c #15B10B",
"<+	c #094E05",
"[+	c #0E8109",
"}+	c #084605",
"|+	c #0B6407",
"1+	c #11950A",
"2+	c #0C6606",
"3+	c #0D7007",
"4+	c #11940A",
"5+	c #0F8208",
"6+	c #0C6607",
"7+	c #0B6006",
"8+	c #0E7B08",
"9+	c #13A40B",
"0+	c #11960A",
"a+	c #0B6807",
"b+	c #18D50E",
"c+	c #094F05",
"d+	c #0F8809",
"e+	c #0A5306",
"f+	c #0B6607",
"g+	c #0E7207",
"h+	c #084104",
"i+	c #0A5C06",
"j+	c #0C6807",
"k+	c #0A5906",
"l+	c #0A5406",
"m+	c #0A5506",
"n+	c #0A5F07",
"o+	c #0F8009",
"p+	c #094D05",
"q+	c #0F8B0A",
"r+	c #19E00F",
"s+	c #1AF40D",
"t+	c #16BB0C",
"u+	c #0C6907",
"v+	c #129F0B",
"w+	c #0E7608",
"x+	c #0C6E08",
"y+	c #0A5605",
"z+	c #0D7507",
"A+	c #108909",
"B+	c #0E7708",
"C+	c #0E7A08",
"D+	c #0E7908",
"E+	c #0D7608",
"F+	c #0F8108",
"G+	c #0A5706",
"H+	c #095005",
"I+	c #0F8509",
"J+	c #19DD0E",
"K+	c #1AF70E",
"L+	c #1ADB0E",
"M+	c #15B80C",
"N+	c #18D10E",
"O+	c #16BC0D",
"P+	c #16C00D",
"Q+	c #13A50B",
"R+	c #14AD0B",
"S+	c #17C40D",
"T+	c #16C00C",
"U+	c #16BF0C",
"V+	c #16BC0C",
"W+	c #15B70C",
"X+	c #13A50A",
"Y+	c #13A10A",
"Z+	c #15B30B",
"`+	c #1BE50F",
" @	c #435A41",
".@	c #2BBA22",
"+@	c #19FD0C",
"@@	c #1BF80F",
"#@	c #1BF40F",
"$@	c #1BF70F",
"%@	c #1BF30F",
"&@	c #1AF00F",
"*@	c #1BF20F",
"=@	c #1BF00F",
"-@	c #1AEF0F",
";@	c #1BF10F",
">@	c #1BF90E",
",@	c #1BFB0E",
"'@	c #1DFE0F",
")@	c #12AB09",
"!@	c #4F5D4F",
"~@	c #34882F",
"{@	c #20A619",
"]@	c #22A41A",
"^@	c #23A81A",
"/@	c #1D7617",
"  . + @ @ @ @ @ @ @ @ @ @ @ @ @ @ @ @ @ @ @ @ @ # $ ",
"% & * = = = = = = = = = = = = = = = = = = = = = - ; ",
"> , ' ) ! ! ) ~ ) ) ) ) ) ) ) ) ) ) ) ~ ~ ) ) ) { ] ",
"^ / ( _ : < [ } | 1 1 1 1 1 1 1 1 1 | 2 3 4 5 5 6 7 ",
"^ / ( 8 9 0 a b c 2 d e f g h d i f j k l 3 1 1 m 7 ",
"^ / n o p q r s 0 t u v w x y z A B C D E F 1 1 m 7 ",
"^ / n G H I J K L M N O P Q R S T U V W X F 1 1 m 7 ",
"^ / n Y Z `  ...x +.@.#.#.$.%.&.*.=.F -.;.>.1 1 m 7 ",
",.'.).!.~.{.].^./.(.x _.:.<.[.}.|.1.2.3.4.5.6.6.7.8.",
"^ 9.0.a.b.c.d.e.f.g.h.i.j.b.b.b.k.c.a.c.c.a.l.l.m.n.",
"o.p.q.r.s.s.t.t.s.t.t.t.s.t.t.t.s.s.r.s.s.r.r.r.u.v.",
"w.x.y.z.z.z.z.z.z.z.z.z.z.z.z.z.z.z.A.A.z.z.z.z.B.C.",
"D.E.F.G.H.G.I.I.J.J.J.J.J.J.J.J.J.I.I.G.H.I.J.J.K.L.",
"M.N.O.P.Q.R.R.S.T.U.V.V.V.V.U.U.T.W.X.Y.Z.`.T.T. +.+",
"M.++@+#+$+%+&+*+=+-+;+>+,+'+)+'+X.!+~+{+]+^+/+/+ +(+",
"M.++_+:+<+[+}+|+1+2+3+4+5+6+7+|+8+9+0+{+a+b+/+/+ +(+",
"M.++_+:+c+d+e+f+g+h+i+j+k+k+l+m+n+1+o+p+q+r+/+/+ +(+",
"M.++s+t+u+v+w+x+]+y+z+A+B+C+$+D+E+F+G+H+I+J+/+/+ +(+",
"M.++K+L+M+N+O+*+P+Q+R+S+T+T+U+U+V+W+X+Y+Z+`+/+/+ +(+",
" @.@+@@@#@$@%@&@#@&@&@#@#@#@#@#@#@*@=@-@;@>@,@,@'@)@",
"!@~@{@]@]@]@]@]@]@]@]@]@]@]@]@]@]@]@]@]@]@]@]@]@^@/@"};
