/* XPM */
static char * treeStructure_xpm[] = {
"23 23 139 2",
"  	c None",
". 	c #FFFFFF",
"+ 	c #FFFCF6",
"@ 	c #FFF1D8",
"# 	c #FFEFD4",
"$ 	c #FFEBC9",
"% 	c #FCF8F1",
"& 	c #FFEFD5",
"* 	c #FFB840",
"= 	c #FFB22E",
"- 	c #FFA60E",
"; 	c #F2E0C2",
"> 	c #FEFEFE",
", 	c #FFECCC",
"' 	c #FFA917",
") 	c #FFA101",
"! 	c #FFA100",
"~ 	c #FEA000",
"{ 	c #F2E0C1",
"] 	c #E9E9E9",
"^ 	c #E7E7E7",
"/ 	c #E5E5E5",
"( 	c #E4E4E4",
"_ 	c #F2F2F2",
": 	c #EBEBEB",
"< 	c #DFDFDF",
"[ 	c #DEDEDE",
"} 	c #DDDDDD",
"| 	c #ECECEC",
"1 	c #FDFDFD",
"2 	c #FFEAC7",
"3 	c #FDA307",
"4 	c #FDA000",
"5 	c #FC9F00",
"6 	c #FAFAFA",
"7 	c #FBFBFB",
"8 	c #F1E0C1",
"9 	c #EFECE6",
"0 	c #CACACA",
"a 	c #FFFFFE",
"b 	c #FFFDFA",
"c 	c #FFFDF9",
"d 	c #FFFDF8",
"e 	c #FFFEFC",
"f 	c #B1B1B1",
"g 	c #AEAEAE",
"h 	c #FFF2DD",
"i 	c #FFCD78",
"j 	c #FFC768",
"k 	c #FFC665",
"l 	c #FFBC49",
"m 	c #FFD893",
"n 	c #FFFEFB",
"o 	c #B4B4B4",
"p 	c #9C9C9C",
"q 	c #DADADA",
"r 	c #E3E3E3",
"s 	c #E2E2E2",
"t 	c #FFEDD0",
"u 	c #FFBA44",
"v 	c #FFB433",
"w 	c #FFA814",
"x 	c #FDA208",
"y 	c #FEFBF5",
"z 	c #F7F7F7",
"A 	c #F6F6F6",
"B 	c #F4F4F4",
"C 	c #FCFCFC",
"D 	c #B9B9B9",
"E 	c #616161",
"F 	c #6F6F6F",
"G 	c #7A7A7A",
"H 	c #878787",
"I 	c #FBE5C1",
"J 	c #FFAA19",
"K 	c #FCA105",
"L 	c #F6F2EC",
"M 	c #D6D6D6",
"N 	c #D3D3D3",
"O 	c #D0D0D0",
"P 	c #EFEFEF",
"Q 	c #B2B2B2",
"R 	c #818181",
"S 	c #9F9F9F",
"T 	c #ABABAB",
"U 	c #F4DFBA",
"V 	c #F4F1EA",
"W 	c #DBDBDB",
"X 	c #D9D9D9",
"Y 	c #ACACAC",
"Z 	c #F9F9F9",
"` 	c #FBE3BB",
" .	c #FEA40A",
"..	c #FD9F00",
"+.	c #FCA510",
"@.	c #FFFBF6",
"#.	c #FDF6EB",
"$.	c #F7DEB3",
"%.	c #F5DCB2",
"&.	c #F5DFB9",
"*.	c #FFFBF4",
"=.	c #FFFBF3",
"-.	c #FFFAF1",
";.	c #FFF0D6",
">.	c #FFC45F",
",.	c #FFBF52",
"'.	c #FFB537",
").	c #FDC057",
"!.	c #B6B6B6",
"~.	c #999999",
"{.	c #DCDCDC",
"].	c #D5D5D5",
"^.	c #FFAE24",
"/.	c #FFA60C",
"(.	c #FFA50C",
"_.	c #FEA103",
":.	c #F5F5F5",
"<.	c #B0B0B0",
"[.	c #565656",
"}.	c #686868",
"|.	c #737373",
"1.	c #717171",
"2.	c #F9E4C0",
"3.	c #FCF8F2",
"4.	c #D1D1D1",
"5.	c #CDCDCD",
"6.	c #EDEDED",
"7.	c #ADADAD",
"8.	c #B7B7B7",
"9.	c #F9E1B9",
"0.	c #FCA104",
"a.	c #FDF9F3",
"b.	c #FEE5BA",
"c.	c #FCB948",
"d.	c #FEF8EF",
"e.	c #FCE6C2",
"f.	c #FBE6C1",
"g.	c #FBEFD9",
"h.	c #FFFEFE",
". . . . . . . . . . . . . . . . . . . . . . . ",
". + @ # # $ % . . . . . . . . . . . . . . . . ",
". & * = = - ; > . . . . . . . . . . . . . . . ",
". , ' ) ! ~ { ] ^ / / / / / / / / / / / ( _ > ",
". , ' ! ! ~ { : < [ [ [ [ [ [ [ [ [ [ [ } | 1 ",
". 2 3 4 4 5 { > 6 6 6 6 6 6 6 6 6 6 6 6 6 7 . ",
". % { { 8 { 9 > . . . . . . . . . . . . . . . ",
". . > 0 0 7 > . . a b c c d e . . . . . . . . ",
". . . f g 6 . . . h i j k l m n . . . . . . . ",
". . . o p q r s ( t u v v w x y z A A A B C . ",
". . . D E F G G H I J ! ! ~ K L M N N N O P > ",
". . . Q R S S S T U J ! ! ~ 5 V W X X X X | 1 ",
". . . g Y A Z Z Z `  .4 4 ..+.@.6 Z Z Z Z 6 . ",
". . . g Y 6 . . . #.$.%.%.%.&.e . . . . . . . ",
". . . g Y 6 . . . . 1 1 1 1 1 . . . . . . . . ",
". . . g Y 6 . . . e *.=.=.-.*.. . . . . . . . ",
". . . f g 6 . . . ;.>.,.,.'.).c . . . . . . . ",
". . . !.~.N {.W ].2 ^./.(._.K y :.B B B _ 7 . ",
". . . <.[.}.|.1.1.2.J ! ! ~ 5 3.N 4.4.4.5.6.> ",
". . . q 7.Y Y Y 8.9.(.~ ~ ~ 0.a.r s s s s _ > ",
". . . . > > > > > b.4 ....5 c.d . > > > > > . ",
". . . . . . . . . d.e.f.f.f.g.h.. . . . . . . ",
". . . . . . . . . . . . . . . . . . . . . . . "};
