/* XPM */
static const char * axis_xpm[] = {
"32 32 139 2",
"  	c None",
". 	c #56C8E4",
"+ 	c #4FC8E5",
"@ 	c #36C8EB",
"# 	c #48C8E6",
"$ 	c #48C7E7",
"% 	c #64C9E1",
"& 	c #80C9DB",
"* 	c #76C9DE",
"= 	c #CCCCCC",
"- 	c #5FC9E1",
"; 	c #9CCBD6",
"> 	c #57C8E4",
", 	c #B8CBD0",
"' 	c #46C8E6",
") 	c #93CAD8",
"! 	c #3DC8E9",
"~ 	c #AFCBD1",
"{ 	c #C1C1C1",
"] 	c #636364",
"^ 	c #6F7071",
"/ 	c #66C8E1",
"( 	c #B5B5B5",
"_ 	c #353738",
": 	c #131517",
"< 	c #414244",
"[ 	c #71CADF",
"} 	c #3EC8E9",
"| 	c #929394",
"1 	c #1D2024",
"2 	c #35373A",
"3 	c #343639",
"4 	c #1E2125",
"5 	c #9D9E9F",
"6 	c #C2CCCE",
"7 	c #9E9FA0",
"8 	c #15181C",
"9 	c #595B5C",
"0 	c #414447",
"a 	c #15191C",
"b 	c #A9AAAB",
"c 	c #5EC8E2",
"d 	c #414548",
"e 	c #424548",
"f 	c #929495",
"g 	c #6DC8DE",
"h 	c #43474A",
"i 	c #42464A",
"j 	c #A5CAD3",
"k 	c #43474C",
"l 	c #4FC7E5",
"m 	c #44494E",
"n 	c #44494D",
"o 	c #5AC8E3",
"p 	c #444A50",
"q 	c #454C52",
"r 	c #444B51",
"s 	c #454C53",
"t 	c #464D53",
"u 	c #45C7E7",
"v 	c #B6B7B8",
"w 	c #313A42",
"x 	c #303942",
"y 	c #3CC8E9",
"z 	c #686E75",
"A 	c #8A8E91",
"B 	c #C1C2C3",
"C 	c #74797F",
"D 	c #1C2732",
"E 	c #303B43",
"F 	c #1C2731",
"G 	c #7F8488",
"H 	c #525960",
"I 	c #50C7E4",
"J 	c #313C45",
"K 	c #73797F",
"L 	c #8A8E93",
"M 	c #27333C",
"N 	c #27313C",
"O 	c #7F8489",
"P 	c #757A80",
"Q 	c #323C46",
"R 	c #1E2B36",
"S 	c #A0A3A6",
"T 	c #3E4851",
"U 	c #1D2A36",
"V 	c #687076",
"W 	c #737A80",
"X 	c #28343D",
"Y 	c #323D48",
"Z 	c #8B8F94",
"` 	c #ABAEB0",
" .	c #1E2C39",
"..	c #8B9094",
"+.	c #535E67",
"@.	c #1F2C39",
"#.	c #535C66",
"$.	c #B6B8BA",
"%.	c #5E666F",
"&.	c #4A545D",
"*.	c #80868B",
"=.	c #A0A4A7",
"-.	c #1F2E3B",
";.	c #1F2D3B",
">.	c #3E4A55",
",.	c #ABAEB1",
"'.	c #49535E",
").	c #8B9197",
"!.	c #202F3D",
"~.	c #21303E",
"{.	c #8B9196",
"].	c #C2C3C3",
"^.	c #B7B8BA",
"/.	c #6B747B",
"(.	c #2A3845",
"_.	c #969A9F",
":.	c #65C9E1",
"<.	c #58C8E3",
"[.	c #B7B9BB",
"}.	c #6A737C",
"|.	c #2B3A48",
"1.	c #2A3948",
"2.	c #606A74",
"3.	c #C2C3C4",
"4.	c #4B5763",
"5.	c #213140",
"6.	c #354351",
"7.	c #81888F",
"8.	c #89CAD9",
"9.	c #969BA0",
"0.	c #55616C",
"a.	c #606C76",
"b.	c #A1A5A9",
"c.	c #51C8E4",
"d.	c #4EC8E5",
"e.	c #8ACAD9",
"f.	c #81CADB",
"g.	c #9CCAD5",
"h.	c #6DC9DE",
"                        . + @ @ @ @ + .                         ",
"                  . # @ $ % & & & & % $ * =                     ",
"              - @ @ % ; = = = = = = = = = = = =                 ",
"            > @ * , = = = = = = = = = = = = = = = =             ",
"          ' @ ) = = = = = = = = = = = = = = = = = = =           ",
"        ' ! ~ = = = = = = = = = = = = = = = = = = = = =         ",
"      > ! , = = = = = = = = { ] ^ = = = = = = = = = = = =       ",
"    / @ ; = = = = = = = = ( _ : : < { = = = = = = = = = ; [     ",
"    } % = = = = = = = = | 1 2 3 2 3 4 5 = = = = = = = = & }     ",
"  . ! 6 = = = = = = = 7 8 9 { 0 0 { 9 a b = = = = = = = , @ c   ",
"  # * = = = = = = = = { 7 = = d e = = f { = = = = = = = = g #   ",
"  @ ; = = = = = = = = = = = = h i = = = = = = = = = = = = j @   ",
"% @ = = = = = = = = = = = = = k k = = = = = = = = = = = = = ! c ",
"l % = = = = = = = = = = = = = m n = = = = = = = = = = = = = o > ",
"! & = = = = = = = = = = = = = p p = = = = = = = = = = = = = g . ",
"@ & = = = = = = = = = = = = = q r = = = = = = = = = = = = = & @ ",
"@ & = = = = = = = = = = = = = s t = = = = = = = = = = = = = & @ ",
"u & = = = = = = = = = = = = v w x v = = = = = = = = = = = = & y ",
"l % = = = = z A = = = = B C D E E F C B = = = = G H = = = = % l ",
"I # = = = = J K = = = L M N O = = O N M P = = = K Q = = = 6 @ . ",
"  @ , = = = R S = S T U V B = = = = B W X Y Z = S U = = = ; @   ",
"  @ & = = `  ...+.@.#.$.= = = = = = = = $.%. .&.*.@.` = = g !   ",
"  I } 6 = =.-.;.>.=.= = = = = = = = = = = = ,.'.-.;.=.= 6 } I   ",
"    @ & = ).!.~.{.].= = = = = = = = = = = = ^./.(.~._.= :.@     ",
"    <.@ j = [.}.|.1.2.3.= = = = = = = = 3.4.5.6.7.3.= 8.@ <.    ",
"      l } , = = = 9.0.[.= = = = = = = = [.a.b.= = = ~ } #       ",
"        u c.~ = = = = = = = = = = = = = = = = = = , c.u         ",
"          d.} ~ = = = = = = = = = = = = = = = = e.} u           ",
"            # @ f.6 = = = = = = = = = = = = 6 :.@ #             ",
"              <.! } f., = = = = = = = 6 g.h.} ! <.              ",
"                  I @ @ # :.f.f.f.f.c.@ @ ! I                   ",
"                        I l u @ @ y l .                         "};
