/* XPM */
static char * box_xpm[] = {
"32 32 153 2",
"  	c None",
". 	c #4BC8E6",
"+ 	c #4AC8E6",
"@ 	c #36C8EB",
"# 	c #47C8E6",
"$ 	c #48C7E7",
"% 	c #64C9E1",
"& 	c #80C9DB",
"* 	c #76C9DE",
"= 	c #CCCCCC",
"- 	c #4EC8E4",
"; 	c #9CCBD6",
"> 	c #51C8E5",
", 	c #B8CBD0",
"' 	c #45C8E6",
") 	c #93CAD8",
"! 	c #3DC8E9",
"~ 	c #AFCBD1",
"{ 	c #575759",
"] 	c #27282A",
"^ 	c #404141",
"/ 	c #3F4041",
"( 	c #131415",
"_ 	c #57595B",
": 	c #575959",
"< 	c #6F7071",
"[ 	c #A9A9AA",
"} 	c #292C2D",
"| 	c #282A2D",
"1 	c #3EC8E9",
"2 	c #57595C",
"3 	c #878788",
"4 	c #9E9E9F",
"5 	c #6F7072",
"6 	c #A9AAAA",
"7 	c #292D2E",
"8 	c #414345",
"9 	c #4BC8E7",
"0 	c #C2CCCE",
"a 	c #595B5E",
"b 	c #87888A",
"c 	c #9E9FA0",
"d 	c #6F7173",
"e 	c #A9AAAB",
"f 	c #2A2D31",
"g 	c #414447",
"h 	c #50C7E5",
"i 	c #595C5E",
"j 	c #87888B",
"k 	c #6F7274",
"l 	c #2C2E34",
"m 	c #424549",
"n 	c #6DC8DE",
"o 	c #595C60",
"p 	c #595D60",
"q 	c #9FA0A2",
"r 	c #7D8081",
"s 	c #5A5D60",
"t 	c #939597",
"u 	c #2D3035",
"v 	c #AAABAC",
"w 	c #42474A",
"x 	c #A5CAD3",
"y 	c #55C8E4",
"z 	c #2D3136",
"A 	c #707476",
"B 	c #707376",
"C 	c #595E61",
"D 	c #43474C",
"E 	c #43484C",
"F 	c #939596",
"G 	c #4AC7E6",
"H 	c #44494E",
"I 	c #717478",
"J 	c #5AC8E3",
"K 	c #3CC8E9",
"L 	c #444A50",
"M 	c #9FA1A3",
"N 	c #717579",
"O 	c #53C8E4",
"P 	c #454C52",
"Q 	c #72767A",
"R 	c #71767A",
"S 	c #444B51",
"T 	c #454C53",
"U 	c #9FA2A4",
"V 	c #72767B",
"W 	c #72777B",
"X 	c #9FA1A4",
"Y 	c #464D53",
"Z 	c #44C7E8",
"` 	c #474E55",
" .	c #73787C",
"..	c #72777C",
"+.	c #A0A2A4",
"@.	c #464D55",
"#.	c #474F56",
"$.	c #A0A2A5",
"%.	c #73787D",
"&.	c #73787E",
"*.	c #474F57",
"=.	c #46C7E6",
"-.	c #48C8E6",
";.	c #475059",
">.	c #95989C",
",.	c #48515A",
"'.	c #757980",
").	c #757A80",
"!.	c #5E656C",
"~.	c #323C46",
"{.	c #47515A",
"].	c #ABADB0",
"^.	c #333C48",
"/.	c #95999C",
"(.	c #A0A3A6",
"_.	c #5E656D",
":.	c #7F858A",
"<.	c #49535C",
"[.	c #ABAEB0",
"}.	c #343E4A",
"|.	c #747B81",
"1.	c #A0A4A7",
"2.	c #8B9094",
"3.	c #5E666F",
"4.	c #49535D",
"5.	c #34414B",
"6.	c #747C82",
"7.	c #5E6871",
"8.	c #4A5560",
"9.	c #ACAEB1",
"0.	c #34424E",
"a.	c #757C83",
"b.	c #A1A4A8",
"c.	c #8B9195",
"d.	c #606872",
"e.	c #65C9E1",
"f.	c #344250",
"g.	c #354351",
"h.	c #ACAFB1",
"i.	c #757D85",
"j.	c #606A74",
"k.	c #89CAD9",
"l.	c #223342",
"m.	c #354452",
"n.	c #4B5963",
"o.	c #4B5763",
"p.	c #606C74",
"q.	c #51C8E4",
"r.	c #4CC8E5",
"s.	c #8ACAD9",
"t.	c #81CADB",
"u.	c #9CCAD5",
"v.	c #6DC9DE",
"                        . + @ @ @ @ + .                         ",
"                  . # @ $ % & & & & % $ * =                     ",
"              - @ @ % ; = = = = = = = = = = = =                 ",
"            > @ * , = = = = = = = = = = = = = = = =             ",
"          ' @ ) = = = = = = = = = = = = = = = = = = =           ",
"        ' ! ~ = = = = = = = = = = = = = = = = = = = = =         ",
"      > ! , = = = = = { ] ^ / ^ / ^ / ^ / ^ / ^ ] ( = = =       ",
"      @ ; = = = = = _ : < = = = = = = = = = = [ } | = = ;       ",
"    1 % = = = = = 2 3 4 5 = = = = = = = = = 6 7 6 8 = = & 1     ",
"  9 ! 0 = = = = a b = c d = = = = = = = = e f e = g = = , @ h   ",
"  # * = = = = i j = = c k = = = = = = = e l e = = m = = = n #   ",
"  @ ; = = = o p q q q r s q q q q q q t u v = = = w = = = x @   ",
"y @ = = = = z A B A B C D A B A B A B E F = = = = E = = = = ! h ",
"G % = = = = H = = = = q I = = = = = = I q = = = = H = = = = J > ",
"K & = = = = L = = = = M N = = = = = = N M = = = = L = = = = n O ",
"@ & = = = = P = = = = M Q = = = = = = R M = = = = S = = = = & @ ",
"@ & = = = = T = = = = U V = = = = = = W X = = = = Y = = = = & @ ",
"Z & = = = = ` = = = = U  .= = = = = = ..+.= = = = @.= = = = & K ",
"G % = = = = #.= = = = $.%.= = = = = = &.$.= = = = *.= = = = % G ",
"=.-.= = = = ;.= = = = >.,.'.).'.).'.).,.!.'.).'.).~.= = = 0 @ 9 ",
"  @ , = = = {.= = = ].^./.(.(.(.(.(.(._.:.(.(.(._._.= = = ; @   ",
"  @ & = = = <.= = [.}.[.= = = = = = = |.1.= = 2.3.= = = = n !   ",
"  =.1 0 = = 4.= [.5.[.= = = = = = = = 6.1.= 2.7.= = = = 0 1 =.  ",
"    @ & = = 8.9.0.9.= = = = = = = = = a.b.c.d.= = = = = e.@     ",
"    G @ x = f.g.h.= = = = = = = = = = i.j.j.= = = = = k.@ G     ",
"      G 1 , l.m.n.o.n.o.n.o.n.o.n.o.n.m.p.= = = = = ~ 1 '       ",
"        Z q.~ = = = = = = = = = = = = = = = = = = , q.Z         ",
"          r.1 ~ = = = = = = = = = = = = = = = = s.1 Z           ",
"            ' @ t.0 = = = = = = = = = = = = 0 e.@ '             ",
"              G ! 1 t., = = = = = = = 0 u.v.1 ! G               ",
"                  =.@ @ -.e.t.t.t.t.q.@ @ ! =.                  ",
"                        =.G Z @ @ K G 9                         "};
