/* XPM */
static char * Links_xpm[] = {
"24 24 132 2",
"  	c None",
". 	c #69AFF6",
"+ 	c #68AFF6",
"@ 	c #66AEF7",
"# 	c #7EB5ED",
"$ 	c #99BDE2",
"% 	c #9BBEE1",
"& 	c #9BBEE2",
"* 	c #75A8DD",
"= 	c #2C2D2F",
"- 	c #111110",
"; 	c #121111",
"> 	c #474646",
", 	c #C5C4C4",
"' 	c #CECDCD",
") 	c #111111",
"! 	c #101010",
"~ 	c #8DAED0",
"{ 	c #070707",
"] 	c #BEBEBE",
"^ 	c #B4B4B4",
"/ 	c #989EA4",
"( 	c #3C3B39",
"_ 	c #C0C0C0",
": 	c #C9C9C9",
"< 	c #CACACA",
"[ 	c #3A3A3A",
"} 	c #8D111D",
"| 	c #9D1320",
"1 	c #A61422",
"2 	c #8EAFCF",
"3 	c #050505",
"4 	c #CDCDCD",
"5 	c #BBBBBB",
"6 	c #41403E",
"7 	c #9F9F9F",
"8 	c #515151",
"9 	c #545454",
"0 	c #5C5C5C",
"a 	c #5B5B5B",
"b 	c #9B9B9B",
"c 	c #3F3F3F",
"d 	c #A31421",
"e 	c #B31625",
"f 	c #8EAFD0",
"g 	c #ACACAC",
"h 	c #838383",
"i 	c #8D8D8D",
"j 	c #202020",
"k 	c #2D2D2D",
"l 	c #8C8C8C",
"m 	c #ABABAB",
"n 	c #121212",
"o 	c #656361",
"p 	c #605E5D",
"q 	c #565553",
"r 	c #383838",
"s 	c #C3C3C3",
"t 	c #343434",
"u 	c #474747",
"v 	c #5E5E5E",
"w 	c #626262",
"x 	c #97B9DC",
"y 	c #919090",
"z 	c #818181",
"A 	c #828282",
"B 	c #999999",
"C 	c #333333",
"D 	c #454545",
"E 	c #CCCCCC",
"F 	c #BFBFBF",
"G 	c #B8B8B8",
"H 	c #BDBCBC",
"I 	c #99BCE0",
"J 	c #464646",
"K 	c #414141",
"L 	c #4A4A4A",
"M 	c #1F1F1F",
"N 	c #90B0D2",
"O 	c #444444",
"P 	c #C7C7C7",
"Q 	c #3C3C3C",
"R 	c #B0B0B0",
"S 	c #C4C4C4",
"T 	c #353535",
"U 	c #171717",
"V 	c #424242",
"W 	c #979797",
"X 	c #B9B9B9",
"Y 	c #3E3E3E",
"Z 	c #B5B5B5",
"` 	c #BABABA",
" .	c #A8A8A8",
"..	c #C6C6C6",
"+.	c #181818",
"@.	c #1C1C1C",
"#.	c #1D1D1D",
"$.	c #141414",
"%.	c #C8C8C8",
"&.	c #8F8F8F",
"*.	c #737373",
"=.	c #727272",
"-.	c #868585",
";.	c #96B8DA",
">.	c #C2C2C2",
",.	c #565656",
"'.	c #606060",
").	c #666666",
"!.	c #0A0A0A",
"~.	c #303030",
"{.	c #262626",
"].	c #797979",
"^.	c #08B936",
"/.	c #09C63A",
"(.	c #6D6D6D",
"_.	c #404040",
":.	c #969696",
"<.	c #08B334",
"[.	c #C3CAD1",
"}.	c #373737",
"|.	c #2B8D44",
"1.	c #079C2D",
"2.	c #07A530",
"3.	c #060606",
"4.	c #73A6D9",
"5.	c #96B8DB",
"6.	c #5B6F84",
"7.	c #475768",
"8.	c #485869",
"9.	c #465768",
"0.	c #425F7C",
"a.	c #61A5EB",
"  . + + + + + + + + + + + + + + + + + + + + .   ",
". @ # $ % & & & & & & & & & & & & & & % $ # @ . ",
"+ * = - ; ; ; > , ' ' ' ' ' ' , > ) ) ) ! = * + ",
"+ ~ { ] ^ ^ / ( _ : : < < : : _ [ } | | 1 { ~ + ",
"+ 2 3 4 4 4 5 6 7 8 9 0 a 9 8 b c d e e e 3 2 + ",
"+ f 3 4 4 4 ] 6 g h i j k l h m c 1 e e e 3 f + ",
"+ f n o p p q r s 4 4 t u 4 4 s r 9 v v w n f + ",
"+ x y z A A A B : 4 4 C D 4 4 : B A A A z y x + ",
"+ & ' 4 4 4 4 4 4 4 4 C D 4 4 4 4 4 4 4 4 ' & + ",
"+ & ' 4 4 4 4 4 4 4 4 C D 4 4 E F G G G G H I + ",
"+ & ' 4 4 4 4 4 4 4 4 C J 4 4 s K K u u L M N + ",
"+ & ' 4 4 4 4 4 4 4 4 C O 4 P _ Q R S S 4 3 f + ",
"+ & ' 4 4 4 4 4 4 4 4 T U L V W c X 4 4 4 3 f + ",
"+ & ' 4 4 4 4 4 4 4 4 C Y ] Z ` [  .5 5 ..3 f + ",
"+ & ' 4 4 4 4 4 4 4 4 C J 4 4 s t +.@.@.#.$.f + ",
"+ & ' 4 4 4 4 4 4 4 4 C D 4 4 4 4 4 4 4 4 ' & + ",
"+ & ' 4 4 4 4 4 4 4 4 C D 4 4 4 4 4 4 4 4 ' & + ",
"+ & ' 4 4 4 4 4 4 4 4 C D 4 4 %.&.*.=.=.=.-.;.+ ",
"+ & ' 4 4 4 4 4 4 4 4 C J 4 4 >.T ,.'.'.).!.f + ",
"+ % ' 4 4 4 4 4 4 4 4 ~.{.A ]. .Y ^./././.3 2 + ",
"+ $ ' 4 4 4 4 4 4 4 4 (.O D _.:._.<./././.3 ~ + ",
"+ # [.' ' ' ' ' ' ' ' ' ' ' ' , }.|.1.1.2.3.4.+ ",
". @ # $ % & & & & & & & & & & 5.6.7.8.8.9.0.a.. ",
"  . + + + + + + + + + + + + + + + + + + + + .   "};
