/* XPM */
static char * NewWorld_xpm[] = {
"32 32 89 1",
" 	c None",
".	c #4BC8E6",
"+	c #4AC8E6",
"@	c #36C8EB",
"#	c #47C8E6",
"$	c #48C7E7",
"%	c #64C9E1",
"&	c #80C9DB",
"*	c #76C9DE",
"=	c #CCCCCC",
"-	c #4EC8E4",
";	c #9CCBD6",
">	c #51C8E5",
",	c #B8CBD0",
"'	c #45C8E6",
")	c #93CAD8",
"!	c #8C8C8C",
"~	c #4C4C4C",
"{	c #262626",
"]	c #000000",
"^	c #3DC8E9",
"/	c #AFCBD1",
"(	c #7F7F7F",
"_	c #191919",
":	c #181818",
"<	c #0C0C0C",
"[	c #BFBFBF",
"}	c #404040",
"|	c #727272",
"1	c #656565",
"2	c #989898",
"3	c #B2B2B2",
"4	c #3EC8E9",
"5	c #252525",
"6	c #666666",
"7	c #999999",
"8	c #4BC8E7",
"9	c #C2CCCE",
"0	c #A5A5A5",
"a	c #50C7E5",
"b	c #323232",
"c	c #6DC8DE",
"d	c #585858",
"e	c #3F3F3F",
"f	c #A5CAD3",
"g	c #55C8E4",
"h	c #4AC7E6",
"i	c #5AC8E3",
"j	c #3CC8E9",
"k	c #53C8E4",
"l	c #44C7E8",
"m	c #46C7E6",
"n	c #48C8E6",
"o	c #D8D8D8",
"p	c #F2F2F2",
"q	c #B5DEF4",
"r	c #B4DBF1",
"s	c #575757",
"t	c #9F9F9F",
"u	c #FFFFFF",
"v	c #A1D6F3",
"w	c #A0D5F3",
"x	c #F7F7F7",
"y	c #D5D5D5",
"z	c #202020",
"A	c #F8F8F8",
"B	c #F5F5F5",
"C	c #333333",
"D	c #595959",
"E	c #707070",
"F	c #D0D7D9",
"G	c #8297A2",
"H	c #44ADE7",
"I	c #74CCE5",
"J	c #BEBEBE",
"K	c #E8F4F8",
"L	c #F4F8F9",
"M	c #49CBE9",
"N	c #51C8E4",
"O	c #F6F8F8",
"P	c #70D1E8",
"Q	c #4CC8E5",
"R	c #B8E0F6",
"S	c #ABDAEF",
"T	c #46CAE9",
"U	c #81CADB",
"V	c #65C9E1",
"W	c #9CCAD5",
"X	c #6DC9DE",
"            .+@@@@+.            ",
"         .#@$%&&&&%$*=          ",
"       -@@%;============        ",
"      >@*,================      ",
"     '@)===!~{]]]{~!=======     ",
"    '^/==(_]]]:~<]]]_!======    ",
"   >^,=[}]:|]:[=[:]|:]~[=====   ",
"   @;=[{]_[1]2===2]13_]{[===;   ",
"  4%=[{]5]]<<67776<]]]5]}===&4  ",
" 8^9=1]|=0~]]]]]]]]]~0=1]|==,@a ",
" #*=3<b===1]0222220](===b<[==c# ",
" @;=d]0===e<=======]d===2]|==f@ ",
"g@==:5====5b=======bb====:{===^a",
"h%=0]1====]e=======bb====d][==i>",
"j&=2]2====]1=======d<====(]2==ck",
"@&=(]]]]]]]]]]]]]]]]]]]]]]]2==&@",
"@&=2]5bbbb]:bbbbbbb:]bbbb5]2==&@",
"l&=2]|====]d=======e:====1]2==&j",
"h%=[]d====bb=======bb====~]===%h",
"mn==b<====bb=======5bopqr3s==9@8",
" @,=|](===d]=======]tuuvwuxy=;@ ",
" @&==:_[==(]~66666~zAuuvwuuB=c^ ",
" m49=2]C3D_]]]]]]]]EuuuvwuuuF4m ",
"  @&==|]]]e:<[===3]GHHHHHHHHI@  ",
"  h@f==d]{0(]|===1]JuuuvwuuK@h  ",
"   h4,==!<]C]]!=!]<~uuuvwuLM'   ",
"    lN/==[1<]]]]]]]<tuuvwOPl    ",
"     Q4/====!1~b~12==opRSTl     ",
"      '@U9============9V@'      ",
"       h^4U,=======9WX4^h       ",
"         m@@nVUUUUN@@^m         ",
"            mhl@@jh8            "};
