/* XPM */
static char * treeStructure_xpm[] = {
"24 24 131 2",
"  	c None",
". 	c #69AFF6",
"+ 	c #68AFF6",
"@ 	c #66AEF7",
"# 	c #7EB5ED",
"$ 	c #99BDE2",
"% 	c #9BBEE1",
"& 	c #9BBEE2",
"* 	c #75A8DD",
"= 	c #2C2D2F",
"- 	c #111110",
"; 	c #121111",
"> 	c #474646",
", 	c #C5C4C4",
"' 	c #CECDCD",
") 	c #111111",
"! 	c #101010",
"~ 	c #8DAED0",
"{ 	c #070707",
"] 	c #569EE9",
"^ 	c #5697D9",
"/ 	c #588BBF",
"( 	c #3C3B39",
"_ 	c #C0C0C0",
": 	c #C9C9C9",
"< 	c #CACACA",
"[ 	c #3A3A3A",
"} 	c #A1A1A1",
"| 	c #B4B4B4",
"1 	c #BEBEBE",
"2 	c #8EAFCF",
"3 	c #050505",
"4 	c #63ADF8",
"5 	c #6AA3DC",
"6 	c #41403E",
"7 	c #9F9F9F",
"8 	c #515151",
"9 	c #545454",
"0 	c #5C5C5C",
"a 	c #5B5B5B",
"b 	c #9B9B9B",
"c 	c #3F3F3F",
"d 	c #BBBBBB",
"e 	c #CDCDCD",
"f 	c #8EAFD0",
"g 	c #5DABFB",
"h 	c #68A4E1",
"i 	c #ACACAC",
"j 	c #838383",
"k 	c #8D8D8D",
"l 	c #202020",
"m 	c #2D2D2D",
"n 	c #8C8C8C",
"o 	c #ABABAB",
"p 	c #121212",
"q 	c #656361",
"r 	c #605E5D",
"s 	c #565553",
"t 	c #383838",
"u 	c #C3C3C3",
"v 	c #343434",
"w 	c #474747",
"x 	c #5E5E5E",
"y 	c #626262",
"z 	c #97B9DC",
"A 	c #919090",
"B 	c #818181",
"C 	c #828282",
"D 	c #999999",
"E 	c #333333",
"F 	c #454545",
"G 	c #CCCCCC",
"H 	c #BFBFBF",
"I 	c #B8B8B8",
"J 	c #BDBCBC",
"K 	c #99BCE0",
"L 	c #464646",
"M 	c #414141",
"N 	c #4A4A4A",
"O 	c #1F1F1F",
"P 	c #90B0D2",
"Q 	c #444444",
"R 	c #C7C7C7",
"S 	c #3C3C3C",
"T 	c #B0B0B0",
"U 	c #C4C4C4",
"V 	c #353535",
"W 	c #171717",
"X 	c #424242",
"Y 	c #979797",
"Z 	c #B9B9B9",
"` 	c #3E3E3E",
" .	c #B5B5B5",
"..	c #BABABA",
"+.	c #A8A8A8",
"@.	c #C6C6C6",
"#.	c #181818",
"$.	c #1C1C1C",
"%.	c #1D1D1D",
"&.	c #141414",
"*.	c #C8C8C8",
"=.	c #8F8F8F",
"-.	c #737373",
";.	c #727272",
">.	c #868585",
",.	c #96B8DA",
"'.	c #C2C2C2",
").	c #565656",
"!.	c #606060",
"~.	c #666666",
"{.	c #0A0A0A",
"].	c #303030",
"^.	c #262626",
"/.	c #797979",
"(.	c #6D6D6D",
"_.	c #404040",
":.	c #969696",
"<.	c #C3CAD1",
"[.	c #373737",
"}.	c #929191",
"|.	c #A2A1A1",
"1.	c #ACABAB",
"2.	c #060606",
"3.	c #73A6D9",
"4.	c #96B8DB",
"5.	c #5B6F84",
"6.	c #475768",
"7.	c #485869",
"8.	c #465768",
"9.	c #425F7C",
"0.	c #61A5EB",
"  . + + + + + + + + + + + + + + + + + + + + .   ",
". @ # $ % & & & & & & & & & & & & & & % $ # @ . ",
"+ * = - ; ; ; > , ' ' ' ' ' ' , > ) ) ) ! = * + ",
"+ ~ { ] ^ ^ / ( _ : : < < : : _ [ } | | 1 { ~ + ",
"+ 2 3 4 . . 5 6 7 8 9 0 a 9 8 b c d e e e 3 2 + ",
"+ f 3 g 4 4 h 6 i j k l m n j o c 1 e e e 3 f + ",
"+ f p q r r s t u e e v w e e u t 9 x x y p f + ",
"+ z A B C C C D : e e E F e e : D C C C B A z + ",
"+ & ' e e e e e e e e E F e e e e e e e e ' & + ",
"+ & ' e e e e e e e e E F e e G H I I I I J K + ",
"+ & ' e e e e e e e e E L e e u M M w w N O P + ",
"+ & ' e e e e e e e e E Q e R _ S T U U e 3 f + ",
"+ & ' e e e e e e e e V W N X Y c Z e e e 3 f + ",
"+ & ' e e e e e e e e E ` 1  ...[ +.d d @.3 f + ",
"+ & ' e e e e e e e e E L e e u v #.$.$.%.&.f + ",
"+ & ' e e e e e e e e E F e e e e e e e e ' & + ",
"+ & ' e e e e e e e e E F e e e e e e e e ' & + ",
"+ & ' e e e e e e e e E F e e *.=.-.;.;.;.>.,.+ ",
"+ & ' e e e e e e e e E L e e '.V ).!.!.~.{.f + ",
"+ % ' e e e e e e e e ].^.C /.+.` _ e e e 3 2 + ",
"+ $ ' e e e e e e e e (.Q F _.:._.Z e e e 3 ~ + ",
"+ # <.' ' ' ' ' ' ' ' ' ' ' ' , [.}.|.|.1.2.3.+ ",
". @ # $ % & & & & & & & & & & 4.5.6.7.7.8.9.0.. ",
"  . + + + + + + + + + + + + + + + + + + + + .   "};
