/* XPM */
static char * xml_xpm[] = {
"32 32 171 2",
"  	c None",
". 	c #4BC8E6",
"+ 	c #4AC8E6",
"@ 	c #36C8EB",
"# 	c #47C8E6",
"$ 	c #48C7E7",
"% 	c #64C9E1",
"& 	c #80C9DB",
"* 	c #76C9DE",
"= 	c #CCCCCC",
"- 	c #4EC8E4",
"; 	c #9CCBD6",
"> 	c #51C8E5",
", 	c #5D9DAC",
"' 	c #6A7577",
") 	c #6F7070",
"! 	c #9D9D9E",
"~ 	c #45C8E6",
"{ 	c #35C4E7",
"] 	c #29363B",
"^ 	c #131516",
"/ 	c #121416",
"( 	c #858787",
"_ 	c #3DC8E9",
": 	c #8BA1A6",
"< 	c #131618",
"[ 	c #7B7C7D",
"} 	c #9D9E9F",
"| 	c #9D9E9E",
"1 	c #1C1E20",
"2 	c #878787",
"3 	c #B8CBD0",
"4 	c #9E9E9F",
"5 	c #141719",
"6 	c #929394",
"7 	c #353739",
"8 	c #14171A",
"9 	c #878788",
"0 	c #9E9F9F",
"a 	c #15181C",
"b 	c #C1C1C1",
"c 	c #35383B",
"d 	c #3EC8E9",
"e 	c #9E9FA0",
"f 	c #15191D",
"g 	c #36393C",
"h 	c #202528",
"i 	c #A9AAAB",
"j 	c #4BC8E7",
"k 	c #C2CCCE",
"l 	c #161B1F",
"m 	c #2A2E34",
"n 	c #202629",
"o 	c #50C7E5",
"p 	c #9EA0A1",
"q 	c #161C21",
"r 	c #5A5D60",
"s 	c #717477",
"t 	c #727477",
"u 	c #4F5355",
"v 	c #21272A",
"w 	c #B5B6B7",
"x 	c #6DC8DE",
"y 	c #171D23",
"z 	c #A5CAD3",
"A 	c #55C8E4",
"B 	c #9FA0A2",
"C 	c #181E25",
"D 	c #181F25",
"E 	c #4AC7E6",
"F 	c #192027",
"G 	c #9FA1A2",
"H 	c #181F26",
"I 	c #5AC8E3",
"J 	c #3CC8E9",
"K 	c #9FA1A3",
"L 	c #192129",
"M 	c #53C8E4",
"N 	c #1A222B",
"O 	c #19222A",
"P 	c #9FA2A4",
"Q 	c #1A242C",
"R 	c #1B242D",
"S 	c #44C7E8",
"T 	c #1B252E",
"U 	c #A0A2A5",
"V 	c #1B2630",
"W 	c #9FA2A5",
"X 	c #1C2731",
"Y 	c #46C7E6",
"Z 	c #48C8E6",
"` 	c #1C2832",
" .	c #3B444D",
"..	c #A0A3A5",
"+.	c #8A8E91",
"@.	c #3B454D",
"#.	c #525961",
"$.	c #94989B",
"%.	c #73797E",
"&.	c #5C636A",
"*.	c #7F8488",
"=.	c #1C2732",
"-.	c #A0A3A6",
";.	c #1D2934",
">.	c #7F8489",
",.	c #323C46",
"'.	c #27333C",
").	c #8A8E93",
"!.	c #475059",
"~.	c #535B62",
"{.	c #C1C2C3",
"].	c #686F75",
"^.	c #73797F",
"/.	c #1E2A36",
"(.	c #48515A",
"_.	c #3C4751",
":.	c #28323D",
"<.	c #737A80",
"[.	c #47515A",
"}.	c #1D2A36",
"|.	c #A0A4A7",
"1.	c #1E2B38",
"2.	c #49535C",
"3.	c #5E666F",
"4.	c #29353F",
"5.	c #95999D",
"6.	c #1F2C38",
"7.	c #687077",
"8.	c #48525C",
"9.	c #80868C",
"0.	c #A1A4A7",
"a.	c #A0A3A7",
"b.	c #1F2D3A",
"c.	c #B6B8BA",
"d.	c #535C66",
"e.	c #697178",
"f.	c #ABAEB0",
"g.	c #687078",
"h.	c #48535C",
"i.	c #49535D",
"j.	c #1E2C39",
"k.	c #65C9E1",
"l.	c #A1A4A8",
"m.	c #1F2E3B",
"n.	c #202E3C",
"o.	c #89CAD9",
"p.	c #202F3E",
"q.	c #202F3D",
"r.	c #AFCBD1",
"s.	c #51C8E4",
"t.	c #8EA7B0",
"u.	c #21303F",
"v.	c #81898F",
"w.	c #A2A5A9",
"x.	c #A2A6A9",
"y.	c #81878F",
"z.	c #213140",
"A.	c #95A7AE",
"B.	c #4CC8E5",
"C.	c #3EC5E6",
"D.	c #3B4E5B",
"E.	c #213141",
"F.	c #223241",
"G.	c #344D5E",
"H.	c #6AA4B4",
"I.	c #76838B",
"J.	c #767E86",
"K.	c #53A2B8",
"L.	c #81CADB",
"M.	c #9CCAD5",
"N.	c #6DC9DE",
"                        . + @ @ @ @ + .                         ",
"                  . # @ $ % & & & & % $ * =                     ",
"              - @ @ % ; = = = = = = = = = = = =                 ",
"            > @ , ' ) ) ) ) ) ) ) ) ! = = = = = = =             ",
"          ~ { ] ^ / ^ / ^ / ^ / ^ / ^ ( = = = = = = =           ",
"        ~ _ : < [ } | } | } | } [ < 1 < 2 = = = = = = =         ",
"      > _ 3 4 5 4 = = = = = = = 4 5 6 7 8 9 = = = = = = =       ",
"      @ ; = 0 a 0 = = = = = = = 0 a 0 b c a 0 = = = = = ;       ",
"    d % = = e f e = = = = = = = e f e = b g h i = = = = & d     ",
"  j _ k = = e l e = = = = = = = e l e = = b m n i = = = 3 @ o   ",
"  # * = = = p q p = = = = = = = p q r s t s u q v w = = = x #   ",
"  @ ; = = = p y p = = = = = = = w y y y y y y y y p = = = z @   ",
"A @ = = = = B C B = = = = = = = = = = = = = = B D B = = = = _ o ",
"E % = = = = B F B = = = = = = = = = = = = = = G H G = = = = I > ",
"J & = = = = K L K = = = = = = = = = = = = = = K L K = = = = x M ",
"@ & = = = = K N K = = = = = = = = = = = = = = K O K = = = = & @ ",
"@ & = = = = P Q P = = = = = = = = = = = = = = P R P = = = = & @ ",
"S & = = = = P T P = = = = = = = = = = = = = = P T P = = = = & J ",
"E % = = = = U V U = = = = = = = = = = = = = = W X W = = = = % E ",
"Y Z = = = = U ` U =  ...+.@.#.$.= %.&.*.*.= = ..=...= = = k @ j ",
"  @ 3 = = = -.;.-.= >.,.'.).!.~.{.'.!.].^.= = -.;.-.= = = ; @   ",
"  @ & = = = -./.-.= {./.(.= _.:.<.:.[.(.<.= = -.}.-.= = = x _   ",
"  Y d k = = |.1.|.= 2.3.4.5.6.3.6.7.2.8.9.0.= a.6.a.= = k d Y   ",
"    @ & = = |.b.|.c.d.{.5.e.d.|.d.f.g.e.h.i.f.|.j.|.= = k.@     ",
"    E @ z = l.m.l.= = = = = = = = = = = = = = |.n.|.= o.@ E     ",
"      E d 3 l.p.l.= = = = = = = = = = = = = = l.q.l.r.d ~       ",
"        S s.t.u.v.w.x.w.x.w.x.w.x.w.x.w.x.w.x.y.z.A.s.S         ",
"          B.C.D.E.F.E.F.E.F.E.F.E.F.E.F.E.F.E.F.G.C.S           ",
"            ~ @ H.I.J.J.J.J.J.J.J.J.J.J.J.J.I.K.@ ~             ",
"              E _ d L.3 = = = = = = = k M.N.d _ E               ",
"                  Y @ @ Z k.L.L.L.L.s.@ @ _ Y                   ",
"                        Y E S @ @ J E j                         "};
