solid model
facet normal 0.0 1.0 0.0
outer loop
vertex -1.85319859911526 0.757992842657522 0.365419226849396
vertex -0.853198599115261 0.757992842657522 -0.134580773150604
vertex -1.85319859911526 0.757992842657522 -0.134580773150604
endloop
endfacet
facet normal 0.0 1.0 0.0
outer loop
vertex -0.853198599115261 0.757992842657522 -0.134580773150604
vertex -1.85319859911526 0.757992842657522 0.365419226849396
vertex -0.853198599115261 0.757992842657522 0.365419226849396
endloop
endfacet
facet normal -0.0 -1.0 -0.0
outer loop
vertex -0.903198599115261 0.707992842657522 0.365419226849396
vertex -1.80319859911526 0.707992842657522 -0.0845807731506037
vertex -0.903198599115261 0.707992842657522 -0.0845807731506037
endloop
endfacet
facet normal -0.0 -1.0 -0.0
outer loop
vertex -1.80319859911526 0.707992842657522 -0.0845807731506037
vertex -0.903198599115261 0.707992842657522 0.365419226849396
vertex -1.80319859911526 0.707992842657522 0.365419226849396
endloop
endfacet
facet normal 0.0 0.0 1.0
outer loop
vertex -0.903198599115261 -0.192007157342478 -0.0845807731506037
vertex -1.80319859911526 0.707992842657522 -0.0845807731506037
vertex -1.80319859911526 -0.192007157342478 -0.0845807731506037
endloop
endfacet
facet normal 0.0 0.0 1.0
outer loop
vertex -1.80319859911526 0.707992842657522 -0.0845807731506037
vertex -0.903198599115261 -0.192007157342478 -0.0845807731506037
vertex -0.903198599115261 0.707992842657522 -0.0845807731506037
endloop
endfacet
facet normal 0.0 0.0 -1.0
outer loop
vertex -0.853198599115261 0.757992842657522 -0.134580773150604
vertex -1.85319859911526 -0.242007157342478 -0.134580773150604
vertex -1.85319859911526 0.757992842657522 -0.134580773150604
endloop
endfacet
facet normal 0.0 0.0 -1.0
outer loop
vertex -1.85319859911526 -0.242007157342478 -0.134580773150604
vertex -0.853198599115261 0.757992842657522 -0.134580773150604
vertex -0.853198599115261 -0.242007157342478 -0.134580773150604
endloop
endfacet
facet normal 0.0 1.0 0.0
outer loop
vertex -1.80319859911526 -0.192007157342478 0.365419226849396
vertex -0.903198599115261 -0.192007157342478 -0.0845807731506037
vertex -1.80319859911526 -0.192007157342478 -0.0845807731506037
endloop
endfacet
facet normal 0.0 1.0 0.0
outer loop
vertex -0.903198599115261 -0.192007157342478 -0.0845807731506037
vertex -1.80319859911526 -0.192007157342478 0.365419226849396
vertex -0.903198599115261 -0.192007157342478 0.365419226849396
endloop
endfacet
facet normal 0.0 0.0 1.0
outer loop
vertex -1.85319859911526 -0.242007157342478 0.365419226849396
vertex -1.80319859911526 -0.192007157342478 0.365419226849396
vertex -1.85319859911526 0.757992842657522 0.365419226849396
endloop
endfacet
facet normal 0.0 0.0 1.0
outer loop
vertex -1.80319859911526 -0.192007157342478 0.365419226849396
vertex -1.85319859911526 -0.242007157342478 0.365419226849396
vertex -0.853198599115261 -0.242007157342478 0.365419226849396
endloop
endfacet
facet normal 0.0 0.0 1.0
outer loop
vertex -1.80319859911526 -0.192007157342478 0.365419226849396
vertex -0.853198599115261 -0.242007157342478 0.365419226849396
vertex -0.903198599115261 -0.192007157342478 0.365419226849396
endloop
endfacet
facet normal 0.0 0.0 1.0
outer loop
vertex -0.903198599115261 -0.192007157342478 0.365419226849396
vertex -0.853198599115261 -0.242007157342478 0.365419226849396
vertex -0.903198599115261 0.707992842657522 0.365419226849396
endloop
endfacet
facet normal 0.0 0.0 1.0
outer loop
vertex -1.85319859911526 0.757992842657522 0.365419226849396
vertex -1.80319859911526 0.707992842657522 0.365419226849396
vertex -0.853198599115261 0.757992842657522 0.365419226849396
endloop
endfacet
facet normal 0.0 0.0 1.0
outer loop
vertex -1.80319859911526 0.707992842657522 0.365419226849396
vertex -1.85319859911526 0.757992842657522 0.365419226849396
vertex -1.80319859911526 -0.192007157342478 0.365419226849396
endloop
endfacet
facet normal 0.0 0.0 1.0
outer loop
vertex -0.853198599115261 0.757992842657522 0.365419226849396
vertex -1.80319859911526 0.707992842657522 0.365419226849396
vertex -0.903198599115261 0.707992842657522 0.365419226849396
endloop
endfacet
facet normal 0.0 0.0 1.0
outer loop
vertex -0.853198599115261 0.757992842657522 0.365419226849396
vertex -0.903198599115261 0.707992842657522 0.365419226849396
vertex -0.853198599115261 -0.242007157342478 0.365419226849396
endloop
endfacet
facet normal -1.0 0.0 0.0
outer loop
vertex -1.85319859911526 0.757992842657522 0.365419226849396
vertex -1.85319859911526 -0.242007157342478 -0.134580773150604
vertex -1.85319859911526 -0.242007157342478 0.365419226849396
endloop
endfacet
facet normal -1.0 0.0 0.0
outer loop
vertex -1.85319859911526 -0.242007157342478 -0.134580773150604
vertex -1.85319859911526 0.757992842657522 0.365419226849396
vertex -1.85319859911526 0.757992842657522 -0.134580773150604
endloop
endfacet
facet normal -1.0 0.0 0.0
outer loop
vertex -0.903198599115261 0.707992842657522 0.365419226849396
vertex -0.903198599115261 -0.192007157342478 -0.0845807731506037
vertex -0.903198599115261 -0.192007157342478 0.365419226849396
endloop
endfacet
facet normal -1.0 0.0 0.0
outer loop
vertex -0.903198599115261 -0.192007157342478 -0.0845807731506037
vertex -0.903198599115261 0.707992842657522 0.365419226849396
vertex -0.903198599115261 0.707992842657522 -0.0845807731506037
endloop
endfacet
facet normal 1.0 0.0 0.0
outer loop
vertex -1.80319859911526 0.707992842657522 -0.0845807731506037
vertex -1.80319859911526 -0.192007157342478 0.365419226849396
vertex -1.80319859911526 -0.192007157342478 -0.0845807731506037
endloop
endfacet
facet normal 1.0 0.0 0.0
outer loop
vertex -1.80319859911526 -0.192007157342478 0.365419226849396
vertex -1.80319859911526 0.707992842657522 -0.0845807731506037
vertex -1.80319859911526 0.707992842657522 0.365419226849396
endloop
endfacet
facet normal -0.0 -1.0 -0.0
outer loop
vertex -0.853198599115261 -0.242007157342478 0.365419226849396
vertex -1.85319859911526 -0.242007157342478 -0.134580773150604
vertex -0.853198599115261 -0.242007157342478 -0.134580773150604
endloop
endfacet
facet normal -0.0 -1.0 -0.0
outer loop
vertex -1.85319859911526 -0.242007157342478 -0.134580773150604
vertex -0.853198599115261 -0.242007157342478 0.365419226849396
vertex -1.85319859911526 -0.242007157342478 0.365419226849396
endloop
endfacet
facet normal 1.0 0.0 0.0
outer loop
vertex -0.853198599115261 0.757992842657522 -0.134580773150604
vertex -0.853198599115261 -0.242007157342478 0.365419226849396
vertex -0.853198599115261 -0.242007157342478 -0.134580773150604
endloop
endfacet
facet normal 1.0 0.0 0.0
outer loop
vertex -0.853198599115261 -0.242007157342478 0.365419226849396
vertex -0.853198599115261 0.757992842657522 -0.134580773150604
vertex -0.853198599115261 0.757992842657522 0.365419226849396
endloop
endfacet
facet normal -0.0 -0.0 -1.0
outer loop
vertex 2.04680140088474 2.50799284265752 1.7654192268494
vertex 1.19680140088474 1.25799284265752 1.7654192268494
vertex 1.19680140088474 2.50799284265752 1.7654192268494
endloop
endfacet
facet normal -0.0 -0.0 -1.0
outer loop
vertex 1.19680140088474 1.25799284265752 1.7654192268494
vertex 2.04680140088474 2.50799284265752 1.7654192268494
vertex 2.04680140088474 1.25799284265752 1.7654192268494
endloop
endfacet
facet normal 1.0 0.0 0.0
outer loop
vertex 1.19680140088474 2.50799284265752 0.915419226849396
vertex 1.19680140088474 1.25799284265752 1.7654192268494
vertex 1.19680140088474 1.25799284265752 0.915419226849396
endloop
endfacet
facet normal 1.0 0.0 0.0
outer loop
vertex 1.19680140088474 1.25799284265752 1.7654192268494
vertex 1.19680140088474 2.50799284265752 0.915419226849396
vertex 1.19680140088474 2.50799284265752 1.7654192268494
endloop
endfacet
facet normal 0.0 -1.0 0.0
outer loop
vertex 2.04680140088474 2.50799284265752 1.7654192268494
vertex 1.19680140088474 2.50799284265752 0.915419226849396
vertex 2.04680140088474 2.50799284265752 0.915419226849396
endloop
endfacet
facet normal 0.0 -1.0 0.0
outer loop
vertex 1.19680140088474 2.50799284265752 0.915419226849396
vertex 2.04680140088474 2.50799284265752 1.7654192268494
vertex 1.19680140088474 2.50799284265752 1.7654192268494
endloop
endfacet
facet normal 0.0 0.0 1.0
outer loop
vertex 1.09680140088474 1.25799284265752 0.915419226849396
vertex 0.246801400884738 2.50799284265752 0.915419226849396
vertex 0.246801400884738 1.25799284265752 0.915419226849396
endloop
endfacet
facet normal 0.0 0.0 1.0
outer loop
vertex 0.246801400884738 2.50799284265752 0.915419226849396
vertex 1.09680140088474 1.25799284265752 0.915419226849396
vertex 1.09680140088474 2.50799284265752 0.915419226849396
endloop
endfacet
facet normal 0.0 0.0 1.0
outer loop
vertex 0.146801400884738 1.75799284265752 0.615419226849396
vertex -1.85319859911526 2.00799284265752 0.615419226849396
vertex -1.85319859911526 1.75799284265752 0.615419226849396
endloop
endfacet
facet normal 0.0 0.0 1.0
outer loop
vertex -1.85319859911526 2.00799284265752 0.615419226849396
vertex 0.146801400884738 1.75799284265752 0.615419226849396
vertex 0.146801400884738 2.00799284265752 0.615419226849396
endloop
endfacet
facet normal -1.0 0.0 0.0
outer loop
vertex 0.146801400884738 2.50799284265752 1.8654192268494
vertex 0.146801400884738 1.25799284265752 0.115419226849396
vertex 0.146801400884738 1.25799284265752 1.8654192268494
endloop
endfacet
facet normal -1.0 0.0 0.0
outer loop
vertex 0.146801400884738 1.25799284265752 0.115419226849396
vertex 0.146801400884738 2.50799284265752 1.8654192268494
vertex 0.146801400884738 1.50799284265752 0.365419226849396
endloop
endfacet
facet normal -1.0 0.0 0.0
outer loop
vertex 0.146801400884738 1.50799284265752 0.365419226849396
vertex 0.146801400884738 2.50799284265752 1.8654192268494
vertex 0.146801400884738 1.75799284265752 0.615419226849396
endloop
endfacet
facet normal -1.0 0.0 0.0
outer loop
vertex 0.146801400884738 1.75799284265752 0.615419226849396
vertex 0.146801400884738 2.50799284265752 1.8654192268494
vertex 0.146801400884738 2.00799284265752 0.865419226849396
endloop
endfacet
facet normal -1.0 0.0 0.0
outer loop
vertex 0.146801400884738 2.00799284265752 0.865419226849396
vertex 0.146801400884738 2.50799284265752 1.8654192268494
vertex 0.146801400884738 2.25799284265752 1.1154192268494
endloop
endfacet
facet normal -1.0 0.0 0.0
outer loop
vertex 0.146801400884738 2.25799284265752 1.1154192268494
vertex 0.146801400884738 2.50799284265752 1.8654192268494
vertex 0.146801400884738 2.50799284265752 1.1154192268494
endloop
endfacet
facet normal -1.0 0.0 0.0
outer loop
vertex 0.146801400884738 2.25799284265752 0.865419226849396
vertex 0.146801400884738 2.00799284265752 0.865419226849396
vertex 0.146801400884738 2.25799284265752 1.1154192268494
endloop
endfacet
facet normal -1.0 0.0 0.0
outer loop
vertex 0.146801400884738 2.00799284265752 0.615419226849396
vertex 0.146801400884738 1.75799284265752 0.615419226849396
vertex 0.146801400884738 2.00799284265752 0.865419226849396
endloop
endfacet
facet normal -1.0 0.0 0.0
outer loop
vertex 0.146801400884738 1.75799284265752 0.365419226849396
vertex 0.146801400884738 1.50799284265752 0.365419226849396
vertex 0.146801400884738 1.75799284265752 0.615419226849396
endloop
endfacet
facet normal -1.0 0.0 0.0
outer loop
vertex 0.146801400884738 1.50799284265752 0.115419226849396
vertex 0.146801400884738 1.25799284265752 0.115419226849396
vertex 0.146801400884738 1.50799284265752 0.365419226849396
endloop
endfacet
facet normal 0.0 -1.0 0.0
outer loop
vertex 0.146801400884738 1.50799284265752 0.365419226849396
vertex -1.85319859911526 1.50799284265752 0.115419226849396
vertex 0.146801400884738 1.50799284265752 0.115419226849396
endloop
endfacet
facet normal 0.0 -1.0 0.0
outer loop
vertex -1.85319859911526 1.50799284265752 0.115419226849396
vertex 0.146801400884738 1.50799284265752 0.365419226849396
vertex -1.85319859911526 1.50799284265752 0.365419226849396
endloop
endfacet
facet normal 0.0 0.0 1.0
outer loop
vertex 2.14680140088474 1.25799284265752 1.8654192268494
vertex 0.146801400884738 2.50799284265752 1.8654192268494
vertex 0.146801400884738 1.25799284265752 1.8654192268494
endloop
endfacet
facet normal 0.0 0.0 1.0
outer loop
vertex 0.146801400884738 2.50799284265752 1.8654192268494
vertex -1.85319859911526 2.75799284265752 1.8654192268494
vertex -1.85319859911526 2.50799284265752 1.8654192268494
endloop
endfacet
facet normal 0.0 0.0 1.0
outer loop
vertex -1.85319859911526 2.75799284265752 1.8654192268494
vertex 0.146801400884738 2.50799284265752 1.8654192268494
vertex 2.14680140088474 2.75799284265752 1.8654192268494
endloop
endfacet
facet normal 0.0 0.0 1.0
outer loop
vertex 2.14680140088474 2.75799284265752 1.8654192268494
vertex 0.146801400884738 2.50799284265752 1.8654192268494
vertex 2.14680140088474 1.25799284265752 1.8654192268494
endloop
endfacet
facet normal 1.0 0.0 0.0
outer loop
vertex 2.14680140088474 2.75799284265752 -0.134580773150604
vertex 2.14680140088474 1.25799284265752 1.8654192268494
vertex 2.14680140088474 1.25799284265752 -0.134580773150604
endloop
endfacet
facet normal 1.0 0.0 0.0
outer loop
vertex 2.14680140088474 1.25799284265752 1.8654192268494
vertex 2.14680140088474 2.75799284265752 -0.134580773150604
vertex 2.14680140088474 2.75799284265752 1.8654192268494
endloop
endfacet
facet normal 0.0 1.0 0.0
outer loop
vertex -1.85319859911526 2.75799284265752 1.8654192268494
vertex 2.14680140088474 2.75799284265752 -0.134580773150604
vertex -1.85319859911526 2.75799284265752 -0.134580773150604
endloop
endfacet
facet normal 0.0 1.0 0.0
outer loop
vertex 2.14680140088474 2.75799284265752 -0.134580773150604
vertex -1.85319859911526 2.75799284265752 1.8654192268494
vertex 2.14680140088474 2.75799284265752 1.8654192268494
endloop
endfacet
facet normal 0.0 -1.0 0.0
outer loop
vertex 1.09680140088474 2.50799284265752 1.7654192268494
vertex 0.246801400884738 2.50799284265752 0.915419226849396
vertex 1.09680140088474 2.50799284265752 0.915419226849396
endloop
endfacet
facet normal 0.0 -1.0 0.0
outer loop
vertex 0.246801400884738 2.50799284265752 0.915419226849396
vertex 1.09680140088474 2.50799284265752 1.7654192268494
vertex 0.246801400884738 2.50799284265752 1.7654192268494
endloop
endfacet
facet normal 0.0 -1.0 0.0
outer loop
vertex 2.04680140088474 2.50799284265752 0.815419226849396
vertex 1.19680140088474 2.50799284265752 -0.0345807731506038
vertex 2.04680140088474 2.50799284265752 -0.0345807731506038
endloop
endfacet
facet normal 0.0 -1.0 0.0
outer loop
vertex 1.19680140088474 2.50799284265752 -0.0345807731506038
vertex 2.04680140088474 2.50799284265752 0.815419226849396
vertex 1.20523259741176 2.50799284265752 0.815419226849396
endloop
endfacet
facet normal -0.0 -1.0 -0.0
outer loop
vertex 2.14680140088474 1.25799284265752 -0.134580773150604
vertex 2.04680140088474 1.25799284265752 -0.0345807731506038
vertex -1.85319859911526 1.25799284265752 -0.134580773150604
endloop
endfacet
facet normal -0.0 -1.0 -0.0
outer loop
vertex 2.04680140088474 1.25799284265752 -0.0345807731506038
vertex 2.14680140088474 1.25799284265752 -0.134580773150604
vertex 2.14680140088474 1.25799284265752 1.8654192268494
endloop
endfacet
facet normal -0.0 -1.0 -0.0
outer loop
vertex 2.04680140088474 1.25799284265752 -0.0345807731506038
vertex 2.14680140088474 1.25799284265752 1.8654192268494
vertex 2.04680140088474 1.25799284265752 0.815419226849396
endloop
endfacet
facet normal -0.0 -1.0 -0.0
outer loop
vertex 2.04680140088474 1.25799284265752 0.815419226849396
vertex 2.14680140088474 1.25799284265752 1.8654192268494
vertex 2.04680140088474 1.25799284265752 0.915419226849396
endloop
endfacet
facet normal -0.0 -1.0 -0.0
outer loop
vertex 2.04680140088474 1.25799284265752 0.915419226849396
vertex 2.14680140088474 1.25799284265752 1.8654192268494
vertex 2.04680140088474 1.25799284265752 1.7654192268494
endloop
endfacet
facet normal -0.0 -1.0 -0.0
outer loop
vertex 2.04680140088474 1.25799284265752 1.7654192268494
vertex 2.14680140088474 1.25799284265752 1.8654192268494
vertex 1.19680140088474 1.25799284265752 1.7654192268494
endloop
endfacet
facet normal -0.0 -1.0 -0.0
outer loop
vertex 1.19680140088474 1.25799284265752 1.7654192268494
vertex 2.14680140088474 1.25799284265752 1.8654192268494
vertex 1.09680140088474 1.25799284265752 1.7654192268494
endloop
endfacet
facet normal -0.0 -1.0 -0.0
outer loop
vertex 1.09680140088474 1.25799284265752 1.7654192268494
vertex 2.14680140088474 1.25799284265752 1.8654192268494
vertex 0.246801400884738 1.25799284265752 1.7654192268494
endloop
endfacet
facet normal -0.0 -1.0 -0.0
outer loop
vertex 0.246801400884738 1.25799284265752 0.815419226849396
vertex 0.146801400884738 1.25799284265752 0.115419226849396
vertex 0.246801400884738 1.25799284265752 -0.0345807731506038
endloop
endfacet
facet normal -0.0 -1.0 -0.0
outer loop
vertex 0.146801400884738 1.25799284265752 0.115419226849396
vertex 0.246801400884738 1.25799284265752 0.815419226849396
vertex 0.146801400884738 1.25799284265752 1.8654192268494
endloop
endfacet
facet normal -0.0 -1.0 -0.0
outer loop
vertex 0.146801400884738 1.25799284265752 1.8654192268494
vertex 0.246801400884738 1.25799284265752 0.815419226849396
vertex 0.246801400884738 1.25799284265752 0.915419226849396
endloop
endfacet
facet normal -0.0 -1.0 -0.0
outer loop
vertex 0.146801400884738 1.25799284265752 1.8654192268494
vertex 0.246801400884738 1.25799284265752 0.915419226849396
vertex 0.246801400884738 1.25799284265752 1.7654192268494
endloop
endfacet
facet normal -0.0 -1.0 -0.0
outer loop
vertex 0.146801400884738 1.25799284265752 1.8654192268494
vertex 0.246801400884738 1.25799284265752 1.7654192268494
vertex 2.14680140088474 1.25799284265752 1.8654192268494
endloop
endfacet
facet normal -0.0 -1.0 -0.0
outer loop
vertex -1.85319859911526 1.25799284265752 -0.134580773150604
vertex 0.246801400884738 1.25799284265752 -0.0345807731506038
vertex -1.85319859911526 1.25799284265752 0.115419226849396
endloop
endfacet
facet normal -0.0 -1.0 -0.0
outer loop
vertex 0.246801400884738 1.25799284265752 -0.0345807731506038
vertex -1.85319859911526 1.25799284265752 -0.134580773150604
vertex 2.04680140088474 1.25799284265752 -0.0345807731506038
endloop
endfacet
facet normal -0.0 -1.0 -0.0
outer loop
vertex 0.246801400884738 1.25799284265752 -0.0345807731506038
vertex 2.04680140088474 1.25799284265752 -0.0345807731506038
vertex 1.19680140088474 1.25799284265752 -0.0345807731506038
endloop
endfacet
facet normal -0.0 -1.0 -0.0
outer loop
vertex 0.246801400884738 1.25799284265752 -0.0345807731506038
vertex 1.19680140088474 1.25799284265752 -0.0345807731506038
vertex 1.09680140088474 1.25799284265752 -0.0345807731506038
endloop
endfacet
facet normal -0.0 -1.0 -0.0
outer loop
vertex -1.85319859911526 1.25799284265752 0.115419226849396
vertex 0.246801400884738 1.25799284265752 -0.0345807731506038
vertex 0.146801400884738 1.25799284265752 0.115419226849396
endloop
endfacet
facet normal -1.0 0.0 0.0
outer loop
vertex -1.85319859911526 1.75799284265752 0.365419226849396
vertex -1.85319859911526 1.50799284265752 0.115419226849396
vertex -1.85319859911526 1.50799284265752 0.365419226849396
endloop
endfacet
facet normal -1.0 0.0 0.0
outer loop
vertex -1.85319859911526 2.00799284265752 0.615419226849396
vertex -1.85319859911526 1.75799284265752 0.365419226849396
vertex -1.85319859911526 1.75799284265752 0.615419226849396
endloop
endfacet
facet normal -1.0 0.0 0.0
outer loop
vertex -1.85319859911526 2.25799284265752 0.865419226849396
vertex -1.85319859911526 2.00799284265752 0.615419226849396
vertex -1.85319859911526 2.00799284265752 0.865419226849396
endloop
endfacet
facet normal -1.0 0.0 0.0
outer loop
vertex -1.85319859911526 2.50799284265752 1.1154192268494
vertex -1.85319859911526 2.25799284265752 0.865419226849396
vertex -1.85319859911526 2.25799284265752 1.1154192268494
endloop
endfacet
facet normal -1.0 0.0 0.0
outer loop
vertex -1.85319859911526 2.75799284265752 1.8654192268494
vertex -1.85319859911526 2.50799284265752 1.1154192268494
vertex -1.85319859911526 2.50799284265752 1.8654192268494
endloop
endfacet
facet normal -1.0 0.0 0.0
outer loop
vertex -1.85319859911526 1.50799284265752 0.115419226849396
vertex -1.85319859911526 1.25799284265752 -0.134580773150604
vertex -1.85319859911526 1.25799284265752 0.115419226849396
endloop
endfacet
facet normal -1.0 0.0 0.0
outer loop
vertex -1.85319859911526 1.25799284265752 -0.134580773150604
vertex -1.85319859911526 1.50799284265752 0.115419226849396
vertex -1.85319859911526 2.75799284265752 -0.134580773150604
endloop
endfacet
facet normal -1.0 0.0 0.0
outer loop
vertex -1.85319859911526 2.75799284265752 -0.134580773150604
vertex -1.85319859911526 1.50799284265752 0.115419226849396
vertex -1.85319859911526 1.75799284265752 0.365419226849396
endloop
endfacet
facet normal -1.0 0.0 0.0
outer loop
vertex -1.85319859911526 2.75799284265752 -0.134580773150604
vertex -1.85319859911526 1.75799284265752 0.365419226849396
vertex -1.85319859911526 2.00799284265752 0.615419226849396
endloop
endfacet
facet normal -1.0 0.0 0.0
outer loop
vertex -1.85319859911526 2.75799284265752 -0.134580773150604
vertex -1.85319859911526 2.00799284265752 0.615419226849396
vertex -1.85319859911526 2.25799284265752 0.865419226849396
endloop
endfacet
facet normal -1.0 0.0 0.0
outer loop
vertex -1.85319859911526 2.75799284265752 -0.134580773150604
vertex -1.85319859911526 2.25799284265752 0.865419226849396
vertex -1.85319859911526 2.50799284265752 1.1154192268494
endloop
endfacet
facet normal -1.0 0.0 0.0
outer loop
vertex -1.85319859911526 2.75799284265752 -0.134580773150604
vertex -1.85319859911526 2.50799284265752 1.1154192268494
vertex -1.85319859911526 2.75799284265752 1.8654192268494
endloop
endfacet
facet normal -1.0 0.0 0.0
outer loop
vertex 2.04680140088474 2.50799284265752 0.815419226849396
vertex 2.04680140088474 1.25799284265752 -0.0345807731506038
vertex 2.04680140088474 1.25799284265752 0.815419226849396
endloop
endfacet
facet normal -1.0 0.0 0.0
outer loop
vertex 2.04680140088474 1.25799284265752 -0.0345807731506038
vertex 2.04680140088474 2.50799284265752 0.815419226849396
vertex 2.04680140088474 2.50799284265752 -0.0345807731506038
endloop
endfacet
facet normal 0.0 0.0 1.0
outer loop
vertex 0.146801400884738 1.50799284265752 0.365419226849396
vertex -1.85319859911526 1.75799284265752 0.365419226849396
vertex -1.85319859911526 1.50799284265752 0.365419226849396
endloop
endfacet
facet normal 0.0 0.0 1.0
outer loop
vertex -1.85319859911526 1.75799284265752 0.365419226849396
vertex 0.146801400884738 1.50799284265752 0.365419226849396
vertex 0.146801400884738 1.75799284265752 0.365419226849396
endloop
endfacet
facet normal 0.0 0.0 1.0
outer loop
vertex 0.146801400884738 2.00799284265752 0.865419226849396
vertex -1.85319859911526 2.25799284265752 0.865419226849396
vertex -1.85319859911526 2.00799284265752 0.865419226849396
endloop
endfacet
facet normal 0.0 0.0 1.0
outer loop
vertex -1.85319859911526 2.25799284265752 0.865419226849396
vertex 0.146801400884738 2.00799284265752 0.865419226849396
vertex 0.146801400884738 2.25799284265752 0.865419226849396
endloop
endfacet
facet normal -1.0 0.0 0.0
outer loop
vertex 1.09680140088474 2.50799284265752 1.7654192268494
vertex 1.09680140088474 1.25799284265752 0.915419226849396
vertex 1.09680140088474 1.25799284265752 1.7654192268494
endloop
endfacet
facet normal -1.0 0.0 0.0
outer loop
vertex 1.09680140088474 1.25799284265752 0.915419226849396
vertex 1.09680140088474 2.50799284265752 1.7654192268494
vertex 1.09680140088474 2.50799284265752 0.915419226849396
endloop
endfacet
facet normal 0.0 0.0 1.0
outer loop
vertex 0.146801400884738 1.25799284265752 0.115419226849396
vertex -1.85319859911526 1.50799284265752 0.115419226849396
vertex -1.85319859911526 1.25799284265752 0.115419226849396
endloop
endfacet
facet normal 0.0 0.0 1.0
outer loop
vertex -1.85319859911526 1.50799284265752 0.115419226849396
vertex 0.146801400884738 1.25799284265752 0.115419226849396
vertex 0.146801400884738 1.50799284265752 0.115419226849396
endloop
endfacet
facet normal 0.0 0.0 1.0
outer loop
vertex 1.09680140088474 1.25799284265752 -0.0345807731506038
vertex 0.246801400884738 2.50799284265752 -0.0345807731506038
vertex 0.246801400884738 1.25799284265752 -0.0345807731506038
endloop
endfacet
facet normal 0.0 0.0 1.0
outer loop
vertex 0.246801400884738 2.50799284265752 -0.0345807731506038
vertex 1.09680140088474 1.25799284265752 -0.0345807731506038
vertex 1.09680140088474 2.50799284265752 -0.0345807731506038
endloop
endfacet
facet normal -1.0 0.0 0.0
outer loop
vertex 1.09680140088474 2.50799284265752 0.815419226849396
vertex 1.09680140088474 1.25799284265752 -0.0345807731506038
vertex 1.09680140088474 1.25799284265752 0.815419226849396
endloop
endfacet
facet normal -1.0 0.0 0.0
outer loop
vertex 1.09680140088474 1.25799284265752 -0.0345807731506038
vertex 1.09680140088474 2.50799284265752 0.815419226849396
vertex 1.09680140088474 2.50799284265752 -0.0345807731506038
endloop
endfacet
facet normal 0.0 -1.0 0.0
outer loop
vertex 1.19680140088474 1.25799284265752 1.7654192268494
vertex 1.09680140088474 1.25799284265752 0.915419226849396
vertex 1.19680140088474 1.25799284265752 0.915419226849396
endloop
endfacet
facet normal 0.0 -1.0 0.0
outer loop
vertex 1.09680140088474 1.25799284265752 0.915419226849396
vertex 1.19680140088474 1.25799284265752 1.7654192268494
vertex 1.09680140088474 1.25799284265752 1.7654192268494
endloop
endfacet
facet normal 0.0 -1.0 0.0
outer loop
vertex 2.04680140088474 1.25799284265752 0.915419226849396
vertex 1.20523259741176 1.25799284265752 0.815419226849396
vertex 2.04680140088474 1.25799284265752 0.815419226849396
endloop
endfacet
facet normal 0.0 -1.0 0.0
outer loop
vertex 1.20523259741176 1.25799284265752 0.815419226849396
vertex 2.04680140088474 1.25799284265752 0.915419226849396
vertex 1.09680140088474 1.25799284265752 0.815419226849396
endloop
endfacet
facet normal 0.0 -1.0 0.0
outer loop
vertex 1.09680140088474 1.25799284265752 0.815419226849396
vertex 2.04680140088474 1.25799284265752 0.915419226849396
vertex 0.246801400884738 1.25799284265752 0.815419226849396
endloop
endfacet
facet normal 0.0 -1.0 0.0
outer loop
vertex 0.246801400884738 1.25799284265752 0.815419226849396
vertex 2.04680140088474 1.25799284265752 0.915419226849396
vertex 0.246801400884738 1.25799284265752 0.915419226849396
endloop
endfacet
facet normal 0.0 -1.0 0.0
outer loop
vertex 0.246801400884738 1.25799284265752 0.915419226849396
vertex 2.04680140088474 1.25799284265752 0.915419226849396
vertex 1.19680140088474 1.25799284265752 0.915419226849396
endloop
endfacet
facet normal 0.0 -1.0 0.0
outer loop
vertex 0.246801400884738 1.25799284265752 0.915419226849396
vertex 1.19680140088474 1.25799284265752 0.915419226849396
vertex 1.09680140088474 1.25799284265752 0.915419226849396
endloop
endfacet
facet normal 0.0 -1.0 0.0
outer loop
vertex 1.20523259741176 1.25799284265752 0.815419226849396
vertex 1.09680140088474 1.25799284265752 -0.0345807731506038
vertex 1.19680140088474 1.25799284265752 -0.0345807731506038
endloop
endfacet
facet normal 0.0 -1.0 0.0
outer loop
vertex 1.09680140088474 1.25799284265752 -0.0345807731506038
vertex 1.20523259741176 1.25799284265752 0.815419226849396
vertex 1.09680140088474 1.25799284265752 0.815419226849396
endloop
endfacet
facet normal -0.0 -1.0 -0.0
outer loop
vertex 0.146801400884738 2.25799284265752 1.1154192268494
vertex -1.85319859911526 2.25799284265752 0.865419226849396
vertex 0.146801400884738 2.25799284265752 0.865419226849396
endloop
endfacet
facet normal -0.0 -1.0 -0.0
outer loop
vertex -1.85319859911526 2.25799284265752 0.865419226849396
vertex 0.146801400884738 2.25799284265752 1.1154192268494
vertex -1.85319859911526 2.25799284265752 1.1154192268494
endloop
endfacet
facet normal 0.0 -1.0 0.0
outer loop
vertex 0.146801400884738 1.75799284265752 0.615419226849396
vertex -1.85319859911526 1.75799284265752 0.365419226849396
vertex 0.146801400884738 1.75799284265752 0.365419226849396
endloop
endfacet
facet normal 0.0 -1.0 0.0
outer loop
vertex -1.85319859911526 1.75799284265752 0.365419226849396
vertex 0.146801400884738 1.75799284265752 0.615419226849396
vertex -1.85319859911526 1.75799284265752 0.615419226849396
endloop
endfacet
facet normal -0.0 -1.0 -0.0
outer loop
vertex 0.146801400884738 2.50799284265752 1.8654192268494
vertex -1.85319859911526 2.50799284265752 1.1154192268494
vertex 0.146801400884738 2.50799284265752 1.1154192268494
endloop
endfacet
facet normal -0.0 -1.0 -0.0
outer loop
vertex -1.85319859911526 2.50799284265752 1.1154192268494
vertex 0.146801400884738 2.50799284265752 1.8654192268494
vertex -1.85319859911526 2.50799284265752 1.8654192268494
endloop
endfacet
facet normal 0.0 0.0 1.0
outer loop
vertex 2.04680140088474 1.25799284265752 0.915419226849396
vertex 1.19680140088474 2.50799284265752 0.915419226849396
vertex 1.19680140088474 1.25799284265752 0.915419226849396
endloop
endfacet
facet normal 0.0 0.0 1.0
outer loop
vertex 1.19680140088474 2.50799284265752 0.915419226849396
vertex 2.04680140088474 1.25799284265752 0.915419226849396
vertex 2.04680140088474 2.50799284265752 0.915419226849396
endloop
endfacet
facet normal -1.0 0.0 0.0
outer loop
vertex 2.04680140088474 2.50799284265752 1.7654192268494
vertex 2.04680140088474 1.25799284265752 0.915419226849396
vertex 2.04680140088474 1.25799284265752 1.7654192268494
endloop
endfacet
facet normal -1.0 0.0 0.0
outer loop
vertex 2.04680140088474 1.25799284265752 0.915419226849396
vertex 2.04680140088474 2.50799284265752 1.7654192268494
vertex 2.04680140088474 2.50799284265752 0.915419226849396
endloop
endfacet
facet normal 0.0 -1.0 0.0
outer loop
vertex 0.146801400884738 2.00799284265752 0.865419226849396
vertex -1.85319859911526 2.00799284265752 0.615419226849396
vertex 0.146801400884738 2.00799284265752 0.615419226849396
endloop
endfacet
facet normal 0.0 -1.0 0.0
outer loop
vertex -1.85319859911526 2.00799284265752 0.615419226849396
vertex 0.146801400884738 2.00799284265752 0.865419226849396
vertex -1.85319859911526 2.00799284265752 0.865419226849396
endloop
endfacet
facet normal 1.0 0.0 0.0
outer loop
vertex 0.246801400884738 2.50799284265752 0.915419226849396
vertex 0.246801400884738 1.25799284265752 1.7654192268494
vertex 0.246801400884738 1.25799284265752 0.915419226849396
endloop
endfacet
facet normal 1.0 0.0 0.0
outer loop
vertex 0.246801400884738 1.25799284265752 1.7654192268494
vertex 0.246801400884738 2.50799284265752 0.915419226849396
vertex 0.246801400884738 2.50799284265752 1.7654192268494
endloop
endfacet
facet normal 0.0 0.0 1.0
outer loop
vertex 0.146801400884738 2.25799284265752 1.1154192268494
vertex -1.85319859911526 2.50799284265752 1.1154192268494
vertex -1.85319859911526 2.25799284265752 1.1154192268494
endloop
endfacet
facet normal 0.0 0.0 1.0
outer loop
vertex -1.85319859911526 2.50799284265752 1.1154192268494
vertex 0.146801400884738 2.25799284265752 1.1154192268494
vertex 0.146801400884738 2.50799284265752 1.1154192268494
endloop
endfacet
facet normal -0.0 -0.0 -1.0
outer loop
vertex 1.09680140088474 2.50799284265752 1.7654192268494
vertex 0.246801400884738 1.25799284265752 1.7654192268494
vertex 0.246801400884738 2.50799284265752 1.7654192268494
endloop
endfacet
facet normal -0.0 -0.0 -1.0
outer loop
vertex 0.246801400884738 1.25799284265752 1.7654192268494
vertex 1.09680140088474 2.50799284265752 1.7654192268494
vertex 1.09680140088474 1.25799284265752 1.7654192268494
endloop
endfacet
facet normal -0.0 -0.0 -1.0
outer loop
vertex 2.04680140088474 2.50799284265752 0.815419226849396
vertex 1.20523259741176 1.25799284265752 0.815419226849396
vertex 1.20523259741176 2.50799284265752 0.815419226849396
endloop
endfacet
facet normal -0.0 -0.0 -1.0
outer loop
vertex 1.20523259741176 1.25799284265752 0.815419226849396
vertex 2.04680140088474 2.50799284265752 0.815419226849396
vertex 2.04680140088474 1.25799284265752 0.815419226849396
endloop
endfacet
facet normal 0.999950809806306 0.0 -0.00991856681745307
outer loop
vertex 1.19680140088474 2.50799284265752 -0.0345807731506038
vertex 1.20523259741176 1.25799284265752 0.815419226849396
vertex 1.19680140088474 1.25799284265752 -0.0345807731506038
endloop
endfacet
facet normal 0.999950809806306 0.0 -0.00991856681745307
outer loop
vertex 1.20523259741176 1.25799284265752 0.815419226849396
vertex 1.19680140088474 2.50799284265752 -0.0345807731506038
vertex 1.20523259741176 2.50799284265752 0.815419226849396
endloop
endfacet
facet normal 0.0 -1.0 0.0
outer loop
vertex 1.09680140088474 2.50799284265752 0.815419226849396
vertex 0.246801400884738 2.50799284265752 -0.0345807731506038
vertex 1.09680140088474 2.50799284265752 -0.0345807731506038
endloop
endfacet
facet normal 0.0 -1.0 0.0
outer loop
vertex 0.246801400884738 2.50799284265752 -0.0345807731506038
vertex 1.09680140088474 2.50799284265752 0.815419226849396
vertex 0.246801400884738 2.50799284265752 0.815419226849396
endloop
endfacet
facet normal 0.0 0.0 -1.0
outer loop
vertex 2.14680140088474 2.75799284265752 -0.134580773150604
vertex -1.85319859911526 1.25799284265752 -0.134580773150604
vertex -1.85319859911526 2.75799284265752 -0.134580773150604
endloop
endfacet
facet normal 0.0 0.0 -1.0
outer loop
vertex -1.85319859911526 1.25799284265752 -0.134580773150604
vertex 2.14680140088474 2.75799284265752 -0.134580773150604
vertex 2.14680140088474 1.25799284265752 -0.134580773150604
endloop
endfacet
facet normal -0.0 -0.0 -1.0
outer loop
vertex 1.09680140088474 2.50799284265752 0.815419226849396
vertex 0.246801400884738 1.25799284265752 0.815419226849396
vertex 0.246801400884738 2.50799284265752 0.815419226849396
endloop
endfacet
facet normal -0.0 -0.0 -1.0
outer loop
vertex 0.246801400884738 1.25799284265752 0.815419226849396
vertex 1.09680140088474 2.50799284265752 0.815419226849396
vertex 1.09680140088474 1.25799284265752 0.815419226849396
endloop
endfacet
facet normal 1.0 0.0 0.0
outer loop
vertex 0.246801400884738 2.50799284265752 -0.0345807731506038
vertex 0.246801400884738 1.25799284265752 0.815419226849396
vertex 0.246801400884738 1.25799284265752 -0.0345807731506038
endloop
endfacet
facet normal 1.0 0.0 0.0
outer loop
vertex 0.246801400884738 1.25799284265752 0.815419226849396
vertex 0.246801400884738 2.50799284265752 -0.0345807731506038
vertex 0.246801400884738 2.50799284265752 0.815419226849396
endloop
endfacet
facet normal 0.0 0.0 1.0
outer loop
vertex 2.04680140088474 1.25799284265752 -0.0345807731506038
vertex 1.19680140088474 2.50799284265752 -0.0345807731506038
vertex 1.19680140088474 1.25799284265752 -0.0345807731506038
endloop
endfacet
facet normal 0.0 0.0 1.0
outer loop
vertex 1.19680140088474 2.50799284265752 -0.0345807731506038
vertex 2.04680140088474 1.25799284265752 -0.0345807731506038
vertex 2.04680140088474 2.50799284265752 -0.0345807731506038
endloop
endfacet
facet normal 1.58206781009085e-015 1.0 0.0
outer loop
vertex 1.40037385180817 1.50799284265752 1.01374965860083
vertex 1.65037385180817 1.50799284265752 1.26374965860083
vertex 1.65037385180817 1.50799284265752 1.01374965860083
endloop
endfacet
facet normal 1.58206781009085e-015 1.0 0.0
outer loop
vertex 1.65037385180817 1.50799284265752 1.26374965860083
vertex 1.40037385180817 1.50799284265752 1.01374965860083
vertex 1.40037385180817 1.50799284265752 1.26374965860083
endloop
endfacet
facet normal 1.0 -1.58206781009085e-015 -0.0
outer loop
vertex 1.65037385180817 1.50799284265752 1.26374965860083
vertex 1.65037385180817 1.25799284265752 1.01374965860083
vertex 1.65037385180817 1.50799284265752 1.01374965860083
endloop
endfacet
facet normal 1.0 -1.58206781009085e-015 -0.0
outer loop
vertex 1.65037385180817 1.25799284265752 1.01374965860083
vertex 1.65037385180817 1.50799284265752 1.26374965860083
vertex 1.65037385180817 1.25799284265752 1.26374965860083
endloop
endfacet
facet normal -1.0 1.58206781009085e-015 0.0
outer loop
vertex 1.40037385180817 1.25799284265752 1.26374965860083
vertex 1.40037385180817 1.50799284265752 1.01374965860083
vertex 1.40037385180817 1.25799284265752 1.01374965860083
endloop
endfacet
facet normal -1.0 1.58206781009085e-015 0.0
outer loop
vertex 1.40037385180817 1.50799284265752 1.01374965860083
vertex 1.40037385180817 1.25799284265752 1.26374965860083
vertex 1.40037385180817 1.50799284265752 1.26374965860083
endloop
endfacet
facet normal -1.58206781009085e-015 -1.0 0.0
outer loop
vertex 1.40037385180817 1.25799284265752 1.26374965860083
vertex 1.65037385180817 1.25799284265752 1.01374965860083
vertex 1.65037385180817 1.25799284265752 1.26374965860083
endloop
endfacet
facet normal -1.58206781009085e-015 -1.0 0.0
outer loop
vertex 1.65037385180817 1.25799284265752 1.01374965860083
vertex 1.40037385180817 1.25799284265752 1.26374965860083
vertex 1.40037385180817 1.25799284265752 1.01374965860083
endloop
endfacet
facet normal 0.0 0.0 1.0
outer loop
vertex 1.65037385180817 1.50799284265752 1.26374965860083
vertex 1.40037385180817 1.25799284265752 1.26374965860083
vertex 1.65037385180817 1.25799284265752 1.26374965860083
endloop
endfacet
facet normal 0.0 0.0 1.0
outer loop
vertex 1.40037385180817 1.25799284265752 1.26374965860083
vertex 1.65037385180817 1.50799284265752 1.26374965860083
vertex 1.40037385180817 1.50799284265752 1.26374965860083
endloop
endfacet
facet normal 0.0 0.0 -1.0
outer loop
vertex 1.40037385180817 1.50799284265752 1.01374965860083
vertex 1.65037385180817 1.25799284265752 1.01374965860083
vertex 1.40037385180817 1.25799284265752 1.01374965860083
endloop
endfacet
facet normal 0.0 0.0 -1.0
outer loop
vertex 1.65037385180817 1.25799284265752 1.01374965860083
vertex 1.40037385180817 1.50799284265752 1.01374965860083
vertex 1.65037385180817 1.50799284265752 1.01374965860083
endloop
endfacet
facet normal 1.58206781009085e-015 1.0 0.0
outer loop
vertex 1.50535700720648 1.50799284265752 0.0686203640974924
vertex 1.75535700720648 1.50799284265752 0.318620364097492
vertex 1.75535700720648 1.50799284265752 0.0686203640974924
endloop
endfacet
facet normal 1.58206781009085e-015 1.0 0.0
outer loop
vertex 1.75535700720648 1.50799284265752 0.318620364097492
vertex 1.50535700720648 1.50799284265752 0.0686203640974924
vertex 1.50535700720648 1.50799284265752 0.318620364097492
endloop
endfacet
facet normal 1.0 -1.58206781009085e-015 -0.0
outer loop
vertex 1.75535700720648 1.50799284265752 0.318620364097492
vertex 1.75535700720648 1.25799284265752 0.0686203640974924
vertex 1.75535700720648 1.50799284265752 0.0686203640974924
endloop
endfacet
facet normal 1.0 -1.58206781009085e-015 -0.0
outer loop
vertex 1.75535700720648 1.25799284265752 0.0686203640974924
vertex 1.75535700720648 1.50799284265752 0.318620364097492
vertex 1.75535700720648 1.25799284265752 0.318620364097492
endloop
endfacet
facet normal -1.0 1.58206781009085e-015 0.0
outer loop
vertex 1.50535700720648 1.25799284265752 0.318620364097492
vertex 1.50535700720648 1.50799284265752 0.0686203640974924
vertex 1.50535700720648 1.25799284265752 0.0686203640974924
endloop
endfacet
facet normal -1.0 1.58206781009085e-015 0.0
outer loop
vertex 1.50535700720648 1.50799284265752 0.0686203640974924
vertex 1.50535700720648 1.25799284265752 0.318620364097492
vertex 1.50535700720648 1.50799284265752 0.318620364097492
endloop
endfacet
facet normal -1.58206781009085e-015 -1.0 0.0
outer loop
vertex 1.50535700720648 1.25799284265752 0.318620364097492
vertex 1.75535700720648 1.25799284265752 0.0686203640974924
vertex 1.75535700720648 1.25799284265752 0.318620364097492
endloop
endfacet
facet normal -1.58206781009085e-015 -1.0 0.0
outer loop
vertex 1.75535700720648 1.25799284265752 0.0686203640974924
vertex 1.50535700720648 1.25799284265752 0.318620364097492
vertex 1.50535700720648 1.25799284265752 0.0686203640974924
endloop
endfacet
facet normal 0.0 0.0 1.0
outer loop
vertex 1.75535700720648 1.50799284265752 0.318620364097492
vertex 1.50535700720648 1.25799284265752 0.318620364097492
vertex 1.75535700720648 1.25799284265752 0.318620364097492
endloop
endfacet
facet normal 0.0 0.0 1.0
outer loop
vertex 1.50535700720648 1.25799284265752 0.318620364097492
vertex 1.75535700720648 1.50799284265752 0.318620364097492
vertex 1.50535700720648 1.50799284265752 0.318620364097492
endloop
endfacet
facet normal 0.0 0.0 -1.0
outer loop
vertex 1.50535700720648 1.50799284265752 0.0686203640974924
vertex 1.75535700720648 1.25799284265752 0.0686203640974924
vertex 1.50535700720648 1.25799284265752 0.0686203640974924
endloop
endfacet
facet normal 0.0 0.0 -1.0
outer loop
vertex 1.75535700720648 1.25799284265752 0.0686203640974924
vertex 1.50535700720648 1.50799284265752 0.0686203640974924
vertex 1.75535700720648 1.50799284265752 0.0686203640974924
endloop
endfacet
facet normal 1.58206781009085e-015 1.0 0.0
outer loop
vertex 0.583173946573134 1.51829425744696 0.0654192268493962
vertex 0.833173946573134 1.51829425744696 0.315419226849396
vertex 0.833173946573134 1.51829425744696 0.0654192268493962
endloop
endfacet
facet normal 1.58206781009085e-015 1.0 0.0
outer loop
vertex 0.833173946573134 1.51829425744696 0.315419226849396
vertex 0.583173946573134 1.51829425744696 0.0654192268493962
vertex 0.583173946573134 1.51829425744696 0.315419226849396
endloop
endfacet
facet normal 1.0 -1.58206781009085e-015 -0.0
outer loop
vertex 0.833173946573134 1.51829425744696 0.315419226849396
vertex 0.833173946573134 1.26829425744696 0.0654192268493962
vertex 0.833173946573134 1.51829425744696 0.0654192268493962
endloop
endfacet
facet normal 1.0 -1.58206781009085e-015 -0.0
outer loop
vertex 0.833173946573134 1.26829425744696 0.0654192268493962
vertex 0.833173946573134 1.51829425744696 0.315419226849396
vertex 0.833173946573134 1.26829425744696 0.315419226849396
endloop
endfacet
facet normal -1.0 1.58206781009085e-015 0.0
outer loop
vertex 0.583173946573134 1.26829425744696 0.315419226849396
vertex 0.583173946573134 1.51829425744696 0.0654192268493962
vertex 0.583173946573134 1.26829425744696 0.0654192268493962
endloop
endfacet
facet normal -1.0 1.58206781009085e-015 0.0
outer loop
vertex 0.583173946573134 1.51829425744696 0.0654192268493962
vertex 0.583173946573134 1.26829425744696 0.315419226849396
vertex 0.583173946573134 1.51829425744696 0.315419226849396
endloop
endfacet
facet normal -1.58206781009085e-015 -1.0 0.0
outer loop
vertex 0.583173946573134 1.26829425744696 0.315419226849396
vertex 0.833173946573134 1.26829425744696 0.0654192268493962
vertex 0.833173946573134 1.26829425744696 0.315419226849396
endloop
endfacet
facet normal -1.58206781009085e-015 -1.0 0.0
outer loop
vertex 0.833173946573134 1.26829425744696 0.0654192268493962
vertex 0.583173946573134 1.26829425744696 0.315419226849396
vertex 0.583173946573134 1.26829425744696 0.0654192268493962
endloop
endfacet
facet normal 0.0 0.0 1.0
outer loop
vertex 0.833173946573134 1.51829425744696 0.315419226849396
vertex 0.583173946573134 1.26829425744696 0.315419226849396
vertex 0.833173946573134 1.26829425744696 0.315419226849396
endloop
endfacet
facet normal 0.0 0.0 1.0
outer loop
vertex 0.583173946573134 1.26829425744696 0.315419226849396
vertex 0.833173946573134 1.51829425744696 0.315419226849396
vertex 0.583173946573134 1.51829425744696 0.315419226849396
endloop
endfacet
facet normal 0.0 0.0 -1.0
outer loop
vertex 0.583173946573134 1.51829425744696 0.0654192268493962
vertex 0.833173946573134 1.26829425744696 0.0654192268493962
vertex 0.583173946573134 1.26829425744696 0.0654192268493962
endloop
endfacet
facet normal 0.0 0.0 -1.0
outer loop
vertex 0.833173946573134 1.26829425744696 0.0654192268493962
vertex 0.583173946573134 1.51829425744696 0.0654192268493962
vertex 0.833173946573134 1.51829425744696 0.0654192268493962
endloop
endfacet
facet normal 1.0 0.0 0.0
outer loop
vertex 0.671801400884739 1.50799284265752 1.04091146537561
vertex 0.671801400884739 1.25799284265752 1.29091146537561
vertex 0.671801400884739 1.25799284265752 1.04091146537561
endloop
endfacet
facet normal 1.0 0.0 0.0
outer loop
vertex 0.671801400884739 1.25799284265752 1.29091146537561
vertex 0.671801400884739 1.50799284265752 1.04091146537561
vertex 0.671801400884739 1.50799284265752 1.29091146537561
endloop
endfacet
facet normal -0.0 -1.0 -0.0
outer loop
vertex 0.671801400884739 1.25799284265752 1.29091146537561
vertex 0.421801400884739 1.25799284265752 1.04091146537561
vertex 0.671801400884739 1.25799284265752 1.04091146537561
endloop
endfacet
facet normal -0.0 -1.0 -0.0
outer loop
vertex 0.421801400884739 1.25799284265752 1.04091146537561
vertex 0.671801400884739 1.25799284265752 1.29091146537561
vertex 0.421801400884739 1.25799284265752 1.29091146537561
endloop
endfacet
facet normal 0.0 1.0 0.0
outer loop
vertex 0.421801400884739 1.50799284265752 1.29091146537561
vertex 0.671801400884739 1.50799284265752 1.04091146537561
vertex 0.421801400884739 1.50799284265752 1.04091146537561
endloop
endfacet
facet normal 0.0 1.0 0.0
outer loop
vertex 0.671801400884739 1.50799284265752 1.04091146537561
vertex 0.421801400884739 1.50799284265752 1.29091146537561
vertex 0.671801400884739 1.50799284265752 1.29091146537561
endloop
endfacet
facet normal -1.0 0.0 0.0
outer loop
vertex 0.421801400884739 1.50799284265752 1.29091146537561
vertex 0.421801400884739 1.25799284265752 1.04091146537561
vertex 0.421801400884739 1.25799284265752 1.29091146537561
endloop
endfacet
facet normal -1.0 0.0 0.0
outer loop
vertex 0.421801400884739 1.25799284265752 1.04091146537561
vertex 0.421801400884739 1.50799284265752 1.29091146537561
vertex 0.421801400884739 1.50799284265752 1.04091146537561
endloop
endfacet
facet normal 0.0 0.0 1.0
outer loop
vertex 0.671801400884739 1.25799284265752 1.29091146537561
vertex 0.421801400884739 1.50799284265752 1.29091146537561
vertex 0.421801400884739 1.25799284265752 1.29091146537561
endloop
endfacet
facet normal 0.0 0.0 1.0
outer loop
vertex 0.421801400884739 1.50799284265752 1.29091146537561
vertex 0.671801400884739 1.25799284265752 1.29091146537561
vertex 0.671801400884739 1.50799284265752 1.29091146537561
endloop
endfacet
facet normal 0.0 0.0 -1.0
outer loop
vertex 0.671801400884739 1.50799284265752 1.04091146537561
vertex 0.421801400884739 1.25799284265752 1.04091146537561
vertex 0.421801400884739 1.50799284265752 1.04091146537561
endloop
endfacet
facet normal 0.0 0.0 -1.0
outer loop
vertex 0.421801400884739 1.25799284265752 1.04091146537561
vertex 0.671801400884739 1.50799284265752 1.04091146537561
vertex 0.671801400884739 1.25799284265752 1.04091146537561
endloop
endfacet
facet normal 1.0 -6.49480469405717e-015 -3.45481022262506e-015
outer loop
vertex -0.247330996298497 1.90099284265752 0.665419226849396
vertex -0.247330996298496 1.80099284265752 1.1654192268494
vertex -0.247330996298497 1.80099284265752 0.665419226849396
endloop
endfacet
facet normal 1.0 -6.49480469405717e-015 -3.45481022262506e-015
outer loop
vertex -0.247330996298496 1.80099284265752 1.1654192268494
vertex -0.247330996298497 1.90099284265752 0.665419226849396
vertex -0.247330996298495 1.90099284265752 1.1654192268494
endloop
endfacet
facet normal -1.0 6.49480469405717e-015 3.45481022262506e-015
outer loop
vertex -0.497330996298495 1.90099284265752 1.1654192268494
vertex -0.497330996298496 1.80099284265752 0.915419226849397
vertex -0.497330996298496 1.80099284265752 1.1654192268494
endloop
endfacet
facet normal -1.0 6.49480469405717e-015 3.45481022262506e-015
outer loop
vertex -0.497330996298496 1.80099284265752 0.915419226849397
vertex -0.497330996298495 1.90099284265752 1.1654192268494
vertex -0.497330996298496 1.90099284265752 0.915419226849397
endloop
endfacet
facet normal 6.49480469405717e-015 1.0 -2.24825357987988e-029
outer loop
vertex -0.247330996298497 1.90099284265752 0.665419226849396
vertex -0.497330996298495 1.90099284265752 1.1654192268494
vertex -0.247330996298495 1.90099284265752 1.1654192268494
endloop
endfacet
facet normal 6.49480469405717e-015 1.0 -2.24825357987988e-029
outer loop
vertex -0.497330996298495 1.90099284265752 1.1654192268494
vertex -0.247330996298497 1.90099284265752 0.665419226849396
vertex -0.497330996298496 1.90099284265752 0.915419226849397
endloop
endfacet
facet normal 6.49480469405717e-015 1.0 -2.24825357987988e-029
outer loop
vertex -0.497330996298496 1.90099284265752 0.915419226849397
vertex -0.247330996298497 1.90099284265752 0.665419226849396
vertex -0.497330996298497 1.90099284265752 0.665419226849397
endloop
endfacet
facet normal -6.49480469405717e-015 -1.0 2.24825357987988e-029
outer loop
vertex -0.497330996298496 1.80099284265752 0.915419226849397
vertex -0.247330996298496 1.80099284265752 1.1654192268494
vertex -0.497330996298496 1.80099284265752 1.1654192268494
endloop
endfacet
facet normal -6.49480469405717e-015 -1.0 2.24825357987988e-029
outer loop
vertex -0.247330996298496 1.80099284265752 1.1654192268494
vertex -0.497330996298496 1.80099284265752 0.915419226849397
vertex -0.247330996298497 1.80099284265752 0.665419226849396
endloop
endfacet
facet normal -6.49480469405717e-015 -1.0 2.24825357987988e-029
outer loop
vertex -0.247330996298497 1.80099284265752 0.665419226849396
vertex -0.497330996298496 1.80099284265752 0.915419226849397
vertex -0.497330996298497 1.80099284265752 0.665419226849397
endloop
endfacet
facet normal 3.45481022262506e-015 4.42181478169213e-032 1.0
outer loop
vertex -0.497330996298495 1.90099284265752 1.1654192268494
vertex -0.247330996298496 1.80099284265752 1.1654192268494
vertex -0.247330996298495 1.90099284265752 1.1654192268494
endloop
endfacet
facet normal 3.45481022262506e-015 4.42181478169213e-032 1.0
outer loop
vertex -0.247330996298496 1.80099284265752 1.1654192268494
vertex -0.497330996298495 1.90099284265752 1.1654192268494
vertex -0.497330996298496 1.80099284265752 1.1654192268494
endloop
endfacet
facet normal -1.0 6.49480469405717e-015 3.45481022262506e-015
outer loop
vertex -0.497330996298496 1.90099284265752 0.915419226849397
vertex -0.497330996298497 1.80099284265752 0.665419226849397
vertex -0.497330996298496 1.80099284265752 0.915419226849397
endloop
endfacet
facet normal -1.0 6.49480469405717e-015 3.45481022262506e-015
outer loop
vertex -0.497330996298497 1.80099284265752 0.665419226849397
vertex -0.497330996298496 1.90099284265752 0.915419226849397
vertex -0.497330996298497 1.90099284265752 0.665419226849397
endloop
endfacet
facet normal -3.45481022262506e-015 -4.42181478169213e-032 -1.0
outer loop
vertex -0.497330996298497 1.80099284265752 0.665419226849397
vertex -0.247330996298497 1.90099284265752 0.665419226849396
vertex -0.247330996298497 1.80099284265752 0.665419226849396
endloop
endfacet
facet normal -3.45481022262506e-015 -4.42181478169213e-032 -1.0
outer loop
vertex -0.247330996298497 1.90099284265752 0.665419226849396
vertex -0.497330996298497 1.80099284265752 0.665419226849397
vertex -0.497330996298497 1.90099284265752 0.665419226849397
endloop
endfacet
facet normal 0.0 1.0 0.0
outer loop
vertex -12.5531985991153 12.9579928426575 -0.134580773150604
vertex 12.8468014008847 12.9579928426575 -4.2816387731506
vertex -12.5531985991153 12.9579928426575 -4.2816387731506
endloop
endfacet
facet normal 0.0 1.0 0.0
outer loop
vertex 12.8468014008847 12.9579928426575 -4.2816387731506
vertex -12.5531985991153 12.9579928426575 -0.134580773150604
vertex 12.8468014008847 12.9579928426575 -0.134580773150604
endloop
endfacet
facet normal 1.0 0.0 0.0
outer loop
vertex 12.8468014008847 12.9579928426575 -4.2816387731506
vertex 12.8468014008847 -12.4420071573425 -0.134580773150604
vertex 12.8468014008847 -12.4420071573425 -4.2816387731506
endloop
endfacet
facet normal 1.0 0.0 0.0
outer loop
vertex 12.8468014008847 -12.4420071573425 -0.134580773150604
vertex 12.8468014008847 12.9579928426575 -4.2816387731506
vertex 12.8468014008847 12.9579928426575 -0.134580773150604
endloop
endfacet
facet normal -1.0 0.0 0.0
outer loop
vertex -12.5531985991153 12.9579928426575 -0.134580773150604
vertex -12.5531985991153 -12.4420071573425 -4.2816387731506
vertex -12.5531985991153 -12.4420071573425 -0.134580773150604
endloop
endfacet
facet normal -1.0 0.0 0.0
outer loop
vertex -12.5531985991153 -12.4420071573425 -4.2816387731506
vertex -12.5531985991153 12.9579928426575 -0.134580773150604
vertex -12.5531985991153 12.9579928426575 -4.2816387731506
endloop
endfacet
facet normal -0.0 -1.0 -0.0
outer loop
vertex 12.8468014008847 -12.4420071573425 -0.134580773150604
vertex -12.5531985991153 -12.4420071573425 -4.2816387731506
vertex 12.8468014008847 -12.4420071573425 -4.2816387731506
endloop
endfacet
facet normal -0.0 -1.0 -0.0
outer loop
vertex -12.5531985991153 -12.4420071573425 -4.2816387731506
vertex 12.8468014008847 -12.4420071573425 -0.134580773150604
vertex -12.5531985991153 -12.4420071573425 -0.134580773150604
endloop
endfacet
facet normal 0.0 0.0 -1.0
outer loop
vertex 12.8468014008847 12.9579928426575 -4.2816387731506
vertex -12.5531985991153 -12.4420071573425 -4.2816387731506
vertex -12.5531985991153 12.9579928426575 -4.2816387731506
endloop
endfacet
facet normal 0.0 0.0 -1.0
outer loop
vertex -12.5531985991153 -12.4420071573425 -4.2816387731506
vertex 12.8468014008847 12.9579928426575 -4.2816387731506
vertex 12.8468014008847 -12.4420071573425 -4.2816387731506
endloop
endfacet
facet normal 0.0 0.0 1.0
outer loop
vertex 12.8468014008847 -12.4420071573425 -0.134580773150604
vertex -12.5531985991153 12.9579928426575 -0.134580773150604
vertex -12.5531985991153 -12.4420071573425 -0.134580773150604
endloop
endfacet
facet normal 0.0 0.0 1.0
outer loop
vertex -12.5531985991153 12.9579928426575 -0.134580773150604
vertex 12.8468014008847 -12.4420071573425 -0.134580773150604
vertex 12.8468014008847 12.9579928426575 -0.134580773150604
endloop
endfacet
endsolid model
