solid model
facet normal -0.0 -0.0 -1.0
outer loop
vertex 2.04680140088474 2.50799284265752 1.7654192268494
vertex 1.19680140088474 1.25799284265752 1.7654192268494
vertex 1.19680140088474 2.50799284265752 1.7654192268494
endloop
endfacet
facet normal -0.0 -0.0 -1.0
outer loop
vertex 1.19680140088474 1.25799284265752 1.7654192268494
vertex 2.04680140088474 2.50799284265752 1.7654192268494
vertex 2.04680140088474 1.25799284265752 1.7654192268494
endloop
endfacet
facet normal 1.0 0.0 0.0
outer loop
vertex 1.19680140088474 2.50799284265752 0.915419226849396
vertex 1.19680140088474 1.25799284265752 1.7654192268494
vertex 1.19680140088474 1.25799284265752 0.915419226849396
endloop
endfacet
facet normal 1.0 0.0 0.0
outer loop
vertex 1.19680140088474 1.25799284265752 1.7654192268494
vertex 1.19680140088474 2.50799284265752 0.915419226849396
vertex 1.19680140088474 2.50799284265752 1.7654192268494
endloop
endfacet
facet normal 0.0 -1.0 0.0
outer loop
vertex 2.04680140088474 2.50799284265752 1.7654192268494
vertex 1.19680140088474 2.50799284265752 0.915419226849396
vertex 2.04680140088474 2.50799284265752 0.915419226849396
endloop
endfacet
facet normal 0.0 -1.0 0.0
outer loop
vertex 1.19680140088474 2.50799284265752 0.915419226849396
vertex 2.04680140088474 2.50799284265752 1.7654192268494
vertex 1.19680140088474 2.50799284265752 1.7654192268494
endloop
endfacet
facet normal 0.0 0.0 1.0
outer loop
vertex 1.09680140088474 1.25799284265752 0.915419226849396
vertex 0.246801400884738 2.50799284265752 0.915419226849396
vertex 0.246801400884738 1.25799284265752 0.915419226849396
endloop
endfacet
facet normal 0.0 0.0 1.0
outer loop
vertex 0.246801400884738 2.50799284265752 0.915419226849396
vertex 1.09680140088474 1.25799284265752 0.915419226849396
vertex 1.09680140088474 2.50799284265752 0.915419226849396
endloop
endfacet
facet normal 0.0 0.0 1.0
outer loop
vertex 0.146801400884738 1.75799284265752 0.615419226849396
vertex -1.85319859911526 2.00799284265752 0.615419226849396
vertex -1.85319859911526 1.75799284265752 0.615419226849396
endloop
endfacet
facet normal 0.0 0.0 1.0
outer loop
vertex -1.85319859911526 2.00799284265752 0.615419226849396
vertex 0.146801400884738 1.75799284265752 0.615419226849396
vertex 0.146801400884738 2.00799284265752 0.615419226849396
endloop
endfacet
facet normal -1.0 0.0 0.0
outer loop
vertex 0.146801400884738 2.50799284265752 1.8654192268494
vertex 0.146801400884738 1.25799284265752 0.115419226849396
vertex 0.146801400884738 1.25799284265752 1.8654192268494
endloop
endfacet
facet normal -1.0 0.0 0.0
outer loop
vertex 0.146801400884738 1.25799284265752 0.115419226849396
vertex 0.146801400884738 2.50799284265752 1.8654192268494
vertex 0.146801400884738 1.50799284265752 0.365419226849396
endloop
endfacet
facet normal -1.0 0.0 0.0
outer loop
vertex 0.146801400884738 1.50799284265752 0.365419226849396
vertex 0.146801400884738 2.50799284265752 1.8654192268494
vertex 0.146801400884738 1.75799284265752 0.615419226849396
endloop
endfacet
facet normal -1.0 0.0 0.0
outer loop
vertex 0.146801400884738 1.75799284265752 0.615419226849396
vertex 0.146801400884738 2.50799284265752 1.8654192268494
vertex 0.146801400884738 2.00799284265752 0.865419226849396
endloop
endfacet
facet normal -1.0 0.0 0.0
outer loop
vertex 0.146801400884738 2.00799284265752 0.865419226849396
vertex 0.146801400884738 2.50799284265752 1.8654192268494
vertex 0.146801400884738 2.25799284265752 1.1154192268494
endloop
endfacet
facet normal -1.0 0.0 0.0
outer loop
vertex 0.146801400884738 2.25799284265752 1.1154192268494
vertex 0.146801400884738 2.50799284265752 1.8654192268494
vertex 0.146801400884738 2.50799284265752 1.1154192268494
endloop
endfacet
facet normal -1.0 0.0 0.0
outer loop
vertex 0.146801400884738 2.25799284265752 0.865419226849396
vertex 0.146801400884738 2.00799284265752 0.865419226849396
vertex 0.146801400884738 2.25799284265752 1.1154192268494
endloop
endfacet
facet normal -1.0 0.0 0.0
outer loop
vertex 0.146801400884738 2.00799284265752 0.615419226849396
vertex 0.146801400884738 1.75799284265752 0.615419226849396
vertex 0.146801400884738 2.00799284265752 0.865419226849396
endloop
endfacet
facet normal -1.0 0.0 0.0
outer loop
vertex 0.146801400884738 1.75799284265752 0.365419226849396
vertex 0.146801400884738 1.50799284265752 0.365419226849396
vertex 0.146801400884738 1.75799284265752 0.615419226849396
endloop
endfacet
facet normal -1.0 0.0 0.0
outer loop
vertex 0.146801400884738 1.50799284265752 0.115419226849396
vertex 0.146801400884738 1.25799284265752 0.115419226849396
vertex 0.146801400884738 1.50799284265752 0.365419226849396
endloop
endfacet
facet normal 0.0 -1.0 0.0
outer loop
vertex 0.146801400884738 1.50799284265752 0.365419226849396
vertex -1.85319859911526 1.50799284265752 0.115419226849396
vertex 0.146801400884738 1.50799284265752 0.115419226849396
endloop
endfacet
facet normal 0.0 -1.0 0.0
outer loop
vertex -1.85319859911526 1.50799284265752 0.115419226849396
vertex 0.146801400884738 1.50799284265752 0.365419226849396
vertex -1.85319859911526 1.50799284265752 0.365419226849396
endloop
endfacet
facet normal 0.0 0.0 1.0
outer loop
vertex 2.14680140088474 1.25799284265752 1.8654192268494
vertex 0.146801400884738 2.50799284265752 1.8654192268494
vertex 0.146801400884738 1.25799284265752 1.8654192268494
endloop
endfacet
facet normal 0.0 0.0 1.0
outer loop
vertex 0.146801400884738 2.50799284265752 1.8654192268494
vertex -1.85319859911526 2.75799284265752 1.8654192268494
vertex -1.85319859911526 2.50799284265752 1.8654192268494
endloop
endfacet
facet normal 0.0 0.0 1.0
outer loop
vertex -1.85319859911526 2.75799284265752 1.8654192268494
vertex 0.146801400884738 2.50799284265752 1.8654192268494
vertex 2.14680140088474 2.75799284265752 1.8654192268494
endloop
endfacet
facet normal 0.0 0.0 1.0
outer loop
vertex 2.14680140088474 2.75799284265752 1.8654192268494
vertex 0.146801400884738 2.50799284265752 1.8654192268494
vertex 2.14680140088474 1.25799284265752 1.8654192268494
endloop
endfacet
facet normal 1.0 0.0 0.0
outer loop
vertex 2.14680140088474 2.75799284265752 -0.134580773150604
vertex 2.14680140088474 1.25799284265752 1.8654192268494
vertex 2.14680140088474 1.25799284265752 -0.134580773150604
endloop
endfacet
facet normal 1.0 0.0 0.0
outer loop
vertex 2.14680140088474 1.25799284265752 1.8654192268494
vertex 2.14680140088474 2.75799284265752 -0.134580773150604
vertex 2.14680140088474 2.75799284265752 1.8654192268494
endloop
endfacet
facet normal 0.0 1.0 0.0
outer loop
vertex -1.85319859911526 2.75799284265752 1.8654192268494
vertex 2.14680140088474 2.75799284265752 -0.134580773150604
vertex -1.85319859911526 2.75799284265752 -0.134580773150604
endloop
endfacet
facet normal 0.0 1.0 0.0
outer loop
vertex 2.14680140088474 2.75799284265752 -0.134580773150604
vertex -1.85319859911526 2.75799284265752 1.8654192268494
vertex 2.14680140088474 2.75799284265752 1.8654192268494
endloop
endfacet
facet normal 0.0 -1.0 0.0
outer loop
vertex 1.09680140088474 2.50799284265752 1.7654192268494
vertex 0.246801400884738 2.50799284265752 0.915419226849396
vertex 1.09680140088474 2.50799284265752 0.915419226849396
endloop
endfacet
facet normal 0.0 -1.0 0.0
outer loop
vertex 0.246801400884738 2.50799284265752 0.915419226849396
vertex 1.09680140088474 2.50799284265752 1.7654192268494
vertex 0.246801400884738 2.50799284265752 1.7654192268494
endloop
endfacet
facet normal 0.0 -1.0 0.0
outer loop
vertex 2.04680140088474 2.50799284265752 0.815419226849396
vertex 1.19680140088474 2.50799284265752 -0.0345807731506038
vertex 2.04680140088474 2.50799284265752 -0.0345807731506038
endloop
endfacet
facet normal 0.0 -1.0 0.0
outer loop
vertex 1.19680140088474 2.50799284265752 -0.0345807731506038
vertex 2.04680140088474 2.50799284265752 0.815419226849396
vertex 1.20523259741176 2.50799284265752 0.815419226849396
endloop
endfacet
facet normal -0.0 -1.0 -0.0
outer loop
vertex 2.14680140088474 1.25799284265752 -0.134580773150604
vertex 2.04680140088474 1.25799284265752 -0.0345807731506038
vertex -1.85319859911526 1.25799284265752 -0.134580773150604
endloop
endfacet
facet normal -0.0 -1.0 -0.0
outer loop
vertex 2.04680140088474 1.25799284265752 -0.0345807731506038
vertex 2.14680140088474 1.25799284265752 -0.134580773150604
vertex 2.14680140088474 1.25799284265752 1.8654192268494
endloop
endfacet
facet normal -0.0 -1.0 -0.0
outer loop
vertex 2.04680140088474 1.25799284265752 -0.0345807731506038
vertex 2.14680140088474 1.25799284265752 1.8654192268494
vertex 2.04680140088474 1.25799284265752 0.815419226849396
endloop
endfacet
facet normal -0.0 -1.0 -0.0
outer loop
vertex 2.04680140088474 1.25799284265752 0.815419226849396
vertex 2.14680140088474 1.25799284265752 1.8654192268494
vertex 2.04680140088474 1.25799284265752 0.915419226849396
endloop
endfacet
facet normal -0.0 -1.0 -0.0
outer loop
vertex 2.04680140088474 1.25799284265752 0.915419226849396
vertex 2.14680140088474 1.25799284265752 1.8654192268494
vertex 2.04680140088474 1.25799284265752 1.7654192268494
endloop
endfacet
facet normal -0.0 -1.0 -0.0
outer loop
vertex 2.04680140088474 1.25799284265752 1.7654192268494
vertex 2.14680140088474 1.25799284265752 1.8654192268494
vertex 1.19680140088474 1.25799284265752 1.7654192268494
endloop
endfacet
facet normal -0.0 -1.0 -0.0
outer loop
vertex 1.19680140088474 1.25799284265752 1.7654192268494
vertex 2.14680140088474 1.25799284265752 1.8654192268494
vertex 1.09680140088474 1.25799284265752 1.7654192268494
endloop
endfacet
facet normal -0.0 -1.0 -0.0
outer loop
vertex 1.09680140088474 1.25799284265752 1.7654192268494
vertex 2.14680140088474 1.25799284265752 1.8654192268494
vertex 0.246801400884738 1.25799284265752 1.7654192268494
endloop
endfacet
facet normal -0.0 -1.0 -0.0
outer loop
vertex 0.246801400884738 1.25799284265752 0.815419226849396
vertex 0.146801400884738 1.25799284265752 0.115419226849396
vertex 0.246801400884738 1.25799284265752 -0.0345807731506038
endloop
endfacet
facet normal -0.0 -1.0 -0.0
outer loop
vertex 0.146801400884738 1.25799284265752 0.115419226849396
vertex 0.246801400884738 1.25799284265752 0.815419226849396
vertex 0.146801400884738 1.25799284265752 1.8654192268494
endloop
endfacet
facet normal -0.0 -1.0 -0.0
outer loop
vertex 0.146801400884738 1.25799284265752 1.8654192268494
vertex 0.246801400884738 1.25799284265752 0.815419226849396
vertex 0.246801400884738 1.25799284265752 0.915419226849396
endloop
endfacet
facet normal -0.0 -1.0 -0.0
outer loop
vertex 0.146801400884738 1.25799284265752 1.8654192268494
vertex 0.246801400884738 1.25799284265752 0.915419226849396
vertex 0.246801400884738 1.25799284265752 1.7654192268494
endloop
endfacet
facet normal -0.0 -1.0 -0.0
outer loop
vertex 0.146801400884738 1.25799284265752 1.8654192268494
vertex 0.246801400884738 1.25799284265752 1.7654192268494
vertex 2.14680140088474 1.25799284265752 1.8654192268494
endloop
endfacet
facet normal -0.0 -1.0 -0.0
outer loop
vertex -1.85319859911526 1.25799284265752 -0.134580773150604
vertex 0.246801400884738 1.25799284265752 -0.0345807731506038
vertex -1.85319859911526 1.25799284265752 0.115419226849396
endloop
endfacet
facet normal -0.0 -1.0 -0.0
outer loop
vertex 0.246801400884738 1.25799284265752 -0.0345807731506038
vertex -1.85319859911526 1.25799284265752 -0.134580773150604
vertex 2.04680140088474 1.25799284265752 -0.0345807731506038
endloop
endfacet
facet normal -0.0 -1.0 -0.0
outer loop
vertex 0.246801400884738 1.25799284265752 -0.0345807731506038
vertex 2.04680140088474 1.25799284265752 -0.0345807731506038
vertex 1.19680140088474 1.25799284265752 -0.0345807731506038
endloop
endfacet
facet normal -0.0 -1.0 -0.0
outer loop
vertex 0.246801400884738 1.25799284265752 -0.0345807731506038
vertex 1.19680140088474 1.25799284265752 -0.0345807731506038
vertex 1.09680140088474 1.25799284265752 -0.0345807731506038
endloop
endfacet
facet normal -0.0 -1.0 -0.0
outer loop
vertex -1.85319859911526 1.25799284265752 0.115419226849396
vertex 0.246801400884738 1.25799284265752 -0.0345807731506038
vertex 0.146801400884738 1.25799284265752 0.115419226849396
endloop
endfacet
facet normal -1.0 0.0 0.0
outer loop
vertex -1.85319859911526 1.75799284265752 0.365419226849396
vertex -1.85319859911526 1.50799284265752 0.115419226849396
vertex -1.85319859911526 1.50799284265752 0.365419226849396
endloop
endfacet
facet normal -1.0 0.0 0.0
outer loop
vertex -1.85319859911526 2.00799284265752 0.615419226849396
vertex -1.85319859911526 1.75799284265752 0.365419226849396
vertex -1.85319859911526 1.75799284265752 0.615419226849396
endloop
endfacet
facet normal -1.0 0.0 0.0
outer loop
vertex -1.85319859911526 2.25799284265752 0.865419226849396
vertex -1.85319859911526 2.00799284265752 0.615419226849396
vertex -1.85319859911526 2.00799284265752 0.865419226849396
endloop
endfacet
facet normal -1.0 0.0 0.0
outer loop
vertex -1.85319859911526 2.50799284265752 1.1154192268494
vertex -1.85319859911526 2.25799284265752 0.865419226849396
vertex -1.85319859911526 2.25799284265752 1.1154192268494
endloop
endfacet
facet normal -1.0 0.0 0.0
outer loop
vertex -1.85319859911526 2.75799284265752 1.8654192268494
vertex -1.85319859911526 2.50799284265752 1.1154192268494
vertex -1.85319859911526 2.50799284265752 1.8654192268494
endloop
endfacet
facet normal -1.0 0.0 0.0
outer loop
vertex -1.85319859911526 1.50799284265752 0.115419226849396
vertex -1.85319859911526 1.25799284265752 -0.134580773150604
vertex -1.85319859911526 1.25799284265752 0.115419226849396
endloop
endfacet
facet normal -1.0 0.0 0.0
outer loop
vertex -1.85319859911526 1.25799284265752 -0.134580773150604
vertex -1.85319859911526 1.50799284265752 0.115419226849396
vertex -1.85319859911526 2.75799284265752 -0.134580773150604
endloop
endfacet
facet normal -1.0 0.0 0.0
outer loop
vertex -1.85319859911526 2.75799284265752 -0.134580773150604
vertex -1.85319859911526 1.50799284265752 0.115419226849396
vertex -1.85319859911526 1.75799284265752 0.365419226849396
endloop
endfacet
facet normal -1.0 0.0 0.0
outer loop
vertex -1.85319859911526 2.75799284265752 -0.134580773150604
vertex -1.85319859911526 1.75799284265752 0.365419226849396
vertex -1.85319859911526 2.00799284265752 0.615419226849396
endloop
endfacet
facet normal -1.0 0.0 0.0
outer loop
vertex -1.85319859911526 2.75799284265752 -0.134580773150604
vertex -1.85319859911526 2.00799284265752 0.615419226849396
vertex -1.85319859911526 2.25799284265752 0.865419226849396
endloop
endfacet
facet normal -1.0 0.0 0.0
outer loop
vertex -1.85319859911526 2.75799284265752 -0.134580773150604
vertex -1.85319859911526 2.25799284265752 0.865419226849396
vertex -1.85319859911526 2.50799284265752 1.1154192268494
endloop
endfacet
facet normal -1.0 0.0 0.0
outer loop
vertex -1.85319859911526 2.75799284265752 -0.134580773150604
vertex -1.85319859911526 2.50799284265752 1.1154192268494
vertex -1.85319859911526 2.75799284265752 1.8654192268494
endloop
endfacet
facet normal -1.0 0.0 0.0
outer loop
vertex 2.04680140088474 2.50799284265752 0.815419226849396
vertex 2.04680140088474 1.25799284265752 -0.0345807731506038
vertex 2.04680140088474 1.25799284265752 0.815419226849396
endloop
endfacet
facet normal -1.0 0.0 0.0
outer loop
vertex 2.04680140088474 1.25799284265752 -0.0345807731506038
vertex 2.04680140088474 2.50799284265752 0.815419226849396
vertex 2.04680140088474 2.50799284265752 -0.0345807731506038
endloop
endfacet
facet normal 0.0 0.0 1.0
outer loop
vertex 0.146801400884738 1.50799284265752 0.365419226849396
vertex -1.85319859911526 1.75799284265752 0.365419226849396
vertex -1.85319859911526 1.50799284265752 0.365419226849396
endloop
endfacet
facet normal 0.0 0.0 1.0
outer loop
vertex -1.85319859911526 1.75799284265752 0.365419226849396
vertex 0.146801400884738 1.50799284265752 0.365419226849396
vertex 0.146801400884738 1.75799284265752 0.365419226849396
endloop
endfacet
facet normal 0.0 0.0 1.0
outer loop
vertex 0.146801400884738 2.00799284265752 0.865419226849396
vertex -1.85319859911526 2.25799284265752 0.865419226849396
vertex -1.85319859911526 2.00799284265752 0.865419226849396
endloop
endfacet
facet normal 0.0 0.0 1.0
outer loop
vertex -1.85319859911526 2.25799284265752 0.865419226849396
vertex 0.146801400884738 2.00799284265752 0.865419226849396
vertex 0.146801400884738 2.25799284265752 0.865419226849396
endloop
endfacet
facet normal -1.0 0.0 0.0
outer loop
vertex 1.09680140088474 2.50799284265752 1.7654192268494
vertex 1.09680140088474 1.25799284265752 0.915419226849396
vertex 1.09680140088474 1.25799284265752 1.7654192268494
endloop
endfacet
facet normal -1.0 0.0 0.0
outer loop
vertex 1.09680140088474 1.25799284265752 0.915419226849396
vertex 1.09680140088474 2.50799284265752 1.7654192268494
vertex 1.09680140088474 2.50799284265752 0.915419226849396
endloop
endfacet
facet normal 0.0 0.0 1.0
outer loop
vertex 0.146801400884738 1.25799284265752 0.115419226849396
vertex -1.85319859911526 1.50799284265752 0.115419226849396
vertex -1.85319859911526 1.25799284265752 0.115419226849396
endloop
endfacet
facet normal 0.0 0.0 1.0
outer loop
vertex -1.85319859911526 1.50799284265752 0.115419226849396
vertex 0.146801400884738 1.25799284265752 0.115419226849396
vertex 0.146801400884738 1.50799284265752 0.115419226849396
endloop
endfacet
facet normal 0.0 0.0 1.0
outer loop
vertex 1.09680140088474 1.25799284265752 -0.0345807731506038
vertex 0.246801400884738 2.50799284265752 -0.0345807731506038
vertex 0.246801400884738 1.25799284265752 -0.0345807731506038
endloop
endfacet
facet normal 0.0 0.0 1.0
outer loop
vertex 0.246801400884738 2.50799284265752 -0.0345807731506038
vertex 1.09680140088474 1.25799284265752 -0.0345807731506038
vertex 1.09680140088474 2.50799284265752 -0.0345807731506038
endloop
endfacet
facet normal -1.0 0.0 0.0
outer loop
vertex 1.09680140088474 2.50799284265752 0.815419226849396
vertex 1.09680140088474 1.25799284265752 -0.0345807731506038
vertex 1.09680140088474 1.25799284265752 0.815419226849396
endloop
endfacet
facet normal -1.0 0.0 0.0
outer loop
vertex 1.09680140088474 1.25799284265752 -0.0345807731506038
vertex 1.09680140088474 2.50799284265752 0.815419226849396
vertex 1.09680140088474 2.50799284265752 -0.0345807731506038
endloop
endfacet
facet normal 0.0 -1.0 0.0
outer loop
vertex 1.19680140088474 1.25799284265752 1.7654192268494
vertex 1.09680140088474 1.25799284265752 0.915419226849396
vertex 1.19680140088474 1.25799284265752 0.915419226849396
endloop
endfacet
facet normal 0.0 -1.0 0.0
outer loop
vertex 1.09680140088474 1.25799284265752 0.915419226849396
vertex 1.19680140088474 1.25799284265752 1.7654192268494
vertex 1.09680140088474 1.25799284265752 1.7654192268494
endloop
endfacet
facet normal 0.0 -1.0 0.0
outer loop
vertex 2.04680140088474 1.25799284265752 0.915419226849396
vertex 1.20523259741176 1.25799284265752 0.815419226849396
vertex 2.04680140088474 1.25799284265752 0.815419226849396
endloop
endfacet
facet normal 0.0 -1.0 0.0
outer loop
vertex 1.20523259741176 1.25799284265752 0.815419226849396
vertex 2.04680140088474 1.25799284265752 0.915419226849396
vertex 1.09680140088474 1.25799284265752 0.815419226849396
endloop
endfacet
facet normal 0.0 -1.0 0.0
outer loop
vertex 1.09680140088474 1.25799284265752 0.815419226849396
vertex 2.04680140088474 1.25799284265752 0.915419226849396
vertex 0.246801400884738 1.25799284265752 0.815419226849396
endloop
endfacet
facet normal 0.0 -1.0 0.0
outer loop
vertex 0.246801400884738 1.25799284265752 0.815419226849396
vertex 2.04680140088474 1.25799284265752 0.915419226849396
vertex 0.246801400884738 1.25799284265752 0.915419226849396
endloop
endfacet
facet normal 0.0 -1.0 0.0
outer loop
vertex 0.246801400884738 1.25799284265752 0.915419226849396
vertex 2.04680140088474 1.25799284265752 0.915419226849396
vertex 1.19680140088474 1.25799284265752 0.915419226849396
endloop
endfacet
facet normal 0.0 -1.0 0.0
outer loop
vertex 0.246801400884738 1.25799284265752 0.915419226849396
vertex 1.19680140088474 1.25799284265752 0.915419226849396
vertex 1.09680140088474 1.25799284265752 0.915419226849396
endloop
endfacet
facet normal 0.0 -1.0 0.0
outer loop
vertex 1.20523259741176 1.25799284265752 0.815419226849396
vertex 1.09680140088474 1.25799284265752 -0.0345807731506038
vertex 1.19680140088474 1.25799284265752 -0.0345807731506038
endloop
endfacet
facet normal 0.0 -1.0 0.0
outer loop
vertex 1.09680140088474 1.25799284265752 -0.0345807731506038
vertex 1.20523259741176 1.25799284265752 0.815419226849396
vertex 1.09680140088474 1.25799284265752 0.815419226849396
endloop
endfacet
facet normal -0.0 -1.0 -0.0
outer loop
vertex 0.146801400884738 2.25799284265752 1.1154192268494
vertex -1.85319859911526 2.25799284265752 0.865419226849396
vertex 0.146801400884738 2.25799284265752 0.865419226849396
endloop
endfacet
facet normal -0.0 -1.0 -0.0
outer loop
vertex -1.85319859911526 2.25799284265752 0.865419226849396
vertex 0.146801400884738 2.25799284265752 1.1154192268494
vertex -1.85319859911526 2.25799284265752 1.1154192268494
endloop
endfacet
facet normal 0.0 -1.0 0.0
outer loop
vertex 0.146801400884738 1.75799284265752 0.615419226849396
vertex -1.85319859911526 1.75799284265752 0.365419226849396
vertex 0.146801400884738 1.75799284265752 0.365419226849396
endloop
endfacet
facet normal 0.0 -1.0 0.0
outer loop
vertex -1.85319859911526 1.75799284265752 0.365419226849396
vertex 0.146801400884738 1.75799284265752 0.615419226849396
vertex -1.85319859911526 1.75799284265752 0.615419226849396
endloop
endfacet
facet normal -0.0 -1.0 -0.0
outer loop
vertex 0.146801400884738 2.50799284265752 1.8654192268494
vertex -1.85319859911526 2.50799284265752 1.1154192268494
vertex 0.146801400884738 2.50799284265752 1.1154192268494
endloop
endfacet
facet normal -0.0 -1.0 -0.0
outer loop
vertex -1.85319859911526 2.50799284265752 1.1154192268494
vertex 0.146801400884738 2.50799284265752 1.8654192268494
vertex -1.85319859911526 2.50799284265752 1.8654192268494
endloop
endfacet
facet normal 0.0 0.0 1.0
outer loop
vertex 2.04680140088474 1.25799284265752 0.915419226849396
vertex 1.19680140088474 2.50799284265752 0.915419226849396
vertex 1.19680140088474 1.25799284265752 0.915419226849396
endloop
endfacet
facet normal 0.0 0.0 1.0
outer loop
vertex 1.19680140088474 2.50799284265752 0.915419226849396
vertex 2.04680140088474 1.25799284265752 0.915419226849396
vertex 2.04680140088474 2.50799284265752 0.915419226849396
endloop
endfacet
facet normal -1.0 0.0 0.0
outer loop
vertex 2.04680140088474 2.50799284265752 1.7654192268494
vertex 2.04680140088474 1.25799284265752 0.915419226849396
vertex 2.04680140088474 1.25799284265752 1.7654192268494
endloop
endfacet
facet normal -1.0 0.0 0.0
outer loop
vertex 2.04680140088474 1.25799284265752 0.915419226849396
vertex 2.04680140088474 2.50799284265752 1.7654192268494
vertex 2.04680140088474 2.50799284265752 0.915419226849396
endloop
endfacet
facet normal 0.0 -1.0 0.0
outer loop
vertex 0.146801400884738 2.00799284265752 0.865419226849396
vertex -1.85319859911526 2.00799284265752 0.615419226849396
vertex 0.146801400884738 2.00799284265752 0.615419226849396
endloop
endfacet
facet normal 0.0 -1.0 0.0
outer loop
vertex -1.85319859911526 2.00799284265752 0.615419226849396
vertex 0.146801400884738 2.00799284265752 0.865419226849396
vertex -1.85319859911526 2.00799284265752 0.865419226849396
endloop
endfacet
facet normal 1.0 0.0 0.0
outer loop
vertex 0.246801400884738 2.50799284265752 0.915419226849396
vertex 0.246801400884738 1.25799284265752 1.7654192268494
vertex 0.246801400884738 1.25799284265752 0.915419226849396
endloop
endfacet
facet normal 1.0 0.0 0.0
outer loop
vertex 0.246801400884738 1.25799284265752 1.7654192268494
vertex 0.246801400884738 2.50799284265752 0.915419226849396
vertex 0.246801400884738 2.50799284265752 1.7654192268494
endloop
endfacet
facet normal 0.0 0.0 1.0
outer loop
vertex 0.146801400884738 2.25799284265752 1.1154192268494
vertex -1.85319859911526 2.50799284265752 1.1154192268494
vertex -1.85319859911526 2.25799284265752 1.1154192268494
endloop
endfacet
facet normal 0.0 0.0 1.0
outer loop
vertex -1.85319859911526 2.50799284265752 1.1154192268494
vertex 0.146801400884738 2.25799284265752 1.1154192268494
vertex 0.146801400884738 2.50799284265752 1.1154192268494
endloop
endfacet
facet normal -0.0 -0.0 -1.0
outer loop
vertex 1.09680140088474 2.50799284265752 1.7654192268494
vertex 0.246801400884738 1.25799284265752 1.7654192268494
vertex 0.246801400884738 2.50799284265752 1.7654192268494
endloop
endfacet
facet normal -0.0 -0.0 -1.0
outer loop
vertex 0.246801400884738 1.25799284265752 1.7654192268494
vertex 1.09680140088474 2.50799284265752 1.7654192268494
vertex 1.09680140088474 1.25799284265752 1.7654192268494
endloop
endfacet
facet normal -0.0 -0.0 -1.0
outer loop
vertex 2.04680140088474 2.50799284265752 0.815419226849396
vertex 1.20523259741176 1.25799284265752 0.815419226849396
vertex 1.20523259741176 2.50799284265752 0.815419226849396
endloop
endfacet
facet normal -0.0 -0.0 -1.0
outer loop
vertex 1.20523259741176 1.25799284265752 0.815419226849396
vertex 2.04680140088474 2.50799284265752 0.815419226849396
vertex 2.04680140088474 1.25799284265752 0.815419226849396
endloop
endfacet
facet normal 0.999950809806306 0.0 -0.00991856681745307
outer loop
vertex 1.19680140088474 2.50799284265752 -0.0345807731506038
vertex 1.20523259741176 1.25799284265752 0.815419226849396
vertex 1.19680140088474 1.25799284265752 -0.0345807731506038
endloop
endfacet
facet normal 0.999950809806306 0.0 -0.00991856681745307
outer loop
vertex 1.20523259741176 1.25799284265752 0.815419226849396
vertex 1.19680140088474 2.50799284265752 -0.0345807731506038
vertex 1.20523259741176 2.50799284265752 0.815419226849396
endloop
endfacet
facet normal 0.0 -1.0 0.0
outer loop
vertex 1.09680140088474 2.50799284265752 0.815419226849396
vertex 0.246801400884738 2.50799284265752 -0.0345807731506038
vertex 1.09680140088474 2.50799284265752 -0.0345807731506038
endloop
endfacet
facet normal 0.0 -1.0 0.0
outer loop
vertex 0.246801400884738 2.50799284265752 -0.0345807731506038
vertex 1.09680140088474 2.50799284265752 0.815419226849396
vertex 0.246801400884738 2.50799284265752 0.815419226849396
endloop
endfacet
facet normal 0.0 0.0 -1.0
outer loop
vertex 2.14680140088474 2.75799284265752 -0.134580773150604
vertex -1.85319859911526 1.25799284265752 -0.134580773150604
vertex -1.85319859911526 2.75799284265752 -0.134580773150604
endloop
endfacet
facet normal 0.0 0.0 -1.0
outer loop
vertex -1.85319859911526 1.25799284265752 -0.134580773150604
vertex 2.14680140088474 2.75799284265752 -0.134580773150604
vertex 2.14680140088474 1.25799284265752 -0.134580773150604
endloop
endfacet
facet normal -0.0 -0.0 -1.0
outer loop
vertex 1.09680140088474 2.50799284265752 0.815419226849396
vertex 0.246801400884738 1.25799284265752 0.815419226849396
vertex 0.246801400884738 2.50799284265752 0.815419226849396
endloop
endfacet
facet normal -0.0 -0.0 -1.0
outer loop
vertex 0.246801400884738 1.25799284265752 0.815419226849396
vertex 1.09680140088474 2.50799284265752 0.815419226849396
vertex 1.09680140088474 1.25799284265752 0.815419226849396
endloop
endfacet
facet normal 1.0 0.0 0.0
outer loop
vertex 0.246801400884738 2.50799284265752 -0.0345807731506038
vertex 0.246801400884738 1.25799284265752 0.815419226849396
vertex 0.246801400884738 1.25799284265752 -0.0345807731506038
endloop
endfacet
facet normal 1.0 0.0 0.0
outer loop
vertex 0.246801400884738 1.25799284265752 0.815419226849396
vertex 0.246801400884738 2.50799284265752 -0.0345807731506038
vertex 0.246801400884738 2.50799284265752 0.815419226849396
endloop
endfacet
facet normal 0.0 0.0 1.0
outer loop
vertex 2.04680140088474 1.25799284265752 -0.0345807731506038
vertex 1.19680140088474 2.50799284265752 -0.0345807731506038
vertex 1.19680140088474 1.25799284265752 -0.0345807731506038
endloop
endfacet
facet normal 0.0 0.0 1.0
outer loop
vertex 1.19680140088474 2.50799284265752 -0.0345807731506038
vertex 2.04680140088474 1.25799284265752 -0.0345807731506038
vertex 2.04680140088474 2.50799284265752 -0.0345807731506038
endloop
endfacet
endsolid model
